<svg width="396" height="295" viewBox="0 0 396 295" fill="none" xmlns="http://www.w3.org/2000/svg">
<rect x="0.5" y="68.5" width="286" height="89" rx="19.5" fill="#D8FF29" stroke="#ACACAC"/>
<path d="M121.125 114.725V104.3H124.15V114.775C124.15 119.35 121.025 122.625 116.65 122.625C112.25 122.625 109.125 119.35 109.125 114.775V104.3H112.15V114.725C112.15 117.475 113.9 120 116.65 120.025C119.325 120.025 121.125 117.775 121.125 114.725ZM142.462 116.7C142.462 120.15 139.737 122.625 135.412 122.625C130.987 122.625 127.787 119.925 127.787 116.225H130.637C130.637 118.5 132.637 120.15 135.487 120.15C138.012 120.15 139.487 118.85 139.487 117.075C139.487 115.05 137.237 114.75 134.737 114.4C131.412 113.95 128.012 113.35 128.012 109.275C128.012 106 130.787 103.675 134.912 103.675C139.062 103.675 142.062 106.225 142.062 109.75H139.287C139.287 107.65 137.462 106.15 134.937 106.15C132.537 106.15 130.987 107.35 130.987 108.975C130.987 111 133.037 111.325 135.587 111.675C138.887 112.125 142.462 112.725 142.462 116.7ZM149.187 114.025V119.45H158.787V122H146.287V104.3H158.537V106.85H149.187V111.725H157.537V114.025H149.187ZM170.273 106.775H165.473V113.2H170.273C172.573 113.2 174.273 111.875 174.273 110.05C174.273 107.975 172.598 106.775 170.273 106.775ZM165.473 115.6V122H162.473V104.3H170.623C174.498 104.3 177.273 106.675 177.273 110.05C177.273 112.425 175.548 114.525 173.148 115.15L177.573 122H174.123L170.223 115.6H165.473Z" fill="black"/>
<path d="M32.15 196H30.25V194.225C29.4 195.625 27.675 196.5 25.925 196.5C22.7 196.5 20.725 194.15 20.725 190.925V183.375H22.625V190.925C22.625 193.15 23.9 194.775 26.15 194.775C28.35 194.775 30.25 193.075 30.25 190.775V183.375H32.15V196ZM45.6367 192.375C45.6367 194.75 43.4367 196.5 40.4367 196.5C37.1867 196.5 34.8367 194.5 34.8367 191.775H36.7117C36.7117 193.525 38.2617 194.775 40.4117 194.775C42.3617 194.775 43.7867 193.825 43.7867 192.55C43.7617 190.975 41.5617 190.625 40.1867 190.425C37.3117 189.975 35.0867 189.575 35.1117 186.725C35.1117 184.5 37.2117 182.875 39.9367 182.875C43.0617 182.875 45.3367 184.675 45.3617 187.15L43.4867 187.125C43.4617 185.675 41.9617 184.625 39.9117 184.625C38.2867 184.625 36.9617 185.525 36.9617 186.775C36.9617 187.9 38.0117 188.275 40.3117 188.65C42.6367 189.05 45.6117 189.575 45.6367 192.375ZM49.5104 188.65L58.8354 188.675C58.4854 186.275 56.6354 184.625 54.1354 184.625C51.6854 184.625 49.8604 186.275 49.5104 188.65ZM47.5104 189.55C47.5104 185.7 50.3104 182.875 54.2104 182.875C58.0604 182.875 60.8354 185.7 60.8354 189.575C60.8354 189.8 60.8354 190.05 60.8104 190.325L49.4604 190.3C49.7604 192.95 51.6604 194.775 54.1604 194.775C56.1104 194.775 57.9604 193.575 58.5354 191.925L60.4104 192.225C59.6354 194.7 57.0354 196.5 54.2354 196.5C50.3354 196.5 47.5104 193.575 47.5104 189.55ZM63.3295 183.375H65.1795V185.125C65.9295 183.75 67.1295 182.925 68.6795 182.925C69.2045 182.925 69.8045 183.05 70.3795 183.275V185.025C69.7295 184.725 69.0045 184.625 68.5045 184.625C66.5295 184.625 65.2295 186.4 65.2295 188.925V196H63.3295V183.375ZM68.6855 196H81.1855V197.625H68.6855V196ZM82.7105 183.375H84.6105V196H82.7105V183.375ZM83.6605 181.05C82.8855 181.05 82.3605 180.5 82.3605 179.75C82.3605 179 82.8855 178.475 83.6605 178.475C84.4105 178.475 84.9605 179 84.9605 179.75C84.9605 180.5 84.4105 181.05 83.6605 181.05ZM94.1309 184.725C91.3309 184.725 89.3059 186.825 89.3059 189.7C89.3059 192.6 91.3559 194.65 94.1309 194.65C96.9309 194.65 98.9559 192.55 98.9559 189.7C98.9559 186.825 96.9309 184.725 94.1309 184.725ZM87.4059 189.7C87.4059 185.75 90.1559 182.875 93.9309 182.875C96.0559 182.875 97.8309 183.875 98.9059 185.5V177.625H100.806V196H98.9559V193.825C97.8809 195.475 96.0809 196.5 93.9309 196.5C90.1559 196.5 87.4059 193.625 87.4059 189.7ZM117.897 181.375H115.047V187.725H117.897C120.197 187.725 121.797 186.4 121.797 184.55C121.797 182.675 120.197 181.375 117.897 181.375ZM118.647 190.9H115.047V196H110.997V178.2H118.697C122.997 178.2 125.997 180.825 125.997 184.55C125.997 188.3 122.997 190.9 118.647 190.9ZM128.215 196V178.2H132.415V185.3L138.34 178.2H143.415L136.14 186.6L143.565 196H138.465L132.415 188.025V196H128.215Z" fill="black"/>
<path d="M32.15 221.992H30.25V220.217C29.4 221.617 27.675 222.492 25.925 222.492C22.7 222.492 20.725 220.142 20.725 216.917V209.367H22.625V216.917C22.625 219.142 23.9 220.767 26.15 220.767C28.35 220.767 30.25 219.067 30.25 216.767V209.367H32.15V221.992ZM45.6367 218.367C45.6367 220.742 43.4367 222.492 40.4367 222.492C37.1867 222.492 34.8367 220.492 34.8367 217.767H36.7117C36.7117 219.517 38.2617 220.767 40.4117 220.767C42.3617 220.767 43.7867 219.817 43.7867 218.542C43.7617 216.967 41.5617 216.617 40.1867 216.417C37.3117 215.967 35.0867 215.567 35.1117 212.717C35.1117 210.492 37.2117 208.867 39.9367 208.867C43.0617 208.867 45.3367 210.667 45.3617 213.142L43.4867 213.117C43.4617 211.667 41.9617 210.617 39.9117 210.617C38.2867 210.617 36.9617 211.517 36.9617 212.767C36.9617 213.892 38.0117 214.267 40.3117 214.642C42.6367 215.042 45.6117 215.567 45.6367 218.367ZM49.5104 214.642L58.8354 214.667C58.4854 212.267 56.6354 210.617 54.1354 210.617C51.6854 210.617 49.8604 212.267 49.5104 214.642ZM47.5104 215.542C47.5104 211.692 50.3104 208.867 54.2104 208.867C58.0604 208.867 60.8354 211.692 60.8354 215.567C60.8354 215.792 60.8354 216.042 60.8104 216.317L49.4604 216.292C49.7604 218.942 51.6604 220.767 54.1604 220.767C56.1104 220.767 57.9604 219.567 58.5354 217.917L60.4104 218.217C59.6354 220.692 57.0354 222.492 54.2354 222.492C50.3354 222.492 47.5104 219.567 47.5104 215.542ZM63.3295 209.367H65.1795V211.117C65.9295 209.742 67.1295 208.917 68.6795 208.917C69.2045 208.917 69.8045 209.042 70.3795 209.267V211.017C69.7295 210.717 69.0045 210.617 68.5045 210.617C66.5295 210.617 65.2295 212.392 65.2295 214.917V221.992H63.3295V209.367ZM68.6855 221.992H81.1855V223.617H68.6855V221.992ZM88.4355 220.767C91.2105 220.767 93.2605 218.617 93.2605 215.692C93.2605 212.742 91.2105 210.617 88.4355 210.617C85.6355 210.617 83.6105 212.742 83.6105 215.692C83.6105 218.617 85.6355 220.767 88.4355 220.767ZM93.2855 211.617V209.367H95.1855V221.992H93.2855V219.767C92.2105 221.442 90.3855 222.492 88.2105 222.492C84.4355 222.492 81.7105 219.617 81.7105 215.692C81.7105 211.742 84.4355 208.867 88.2105 208.867C90.3855 208.867 92.2105 209.917 93.2855 211.617ZM104.409 220.617C107.209 220.617 109.234 218.542 109.234 215.692C109.234 212.742 107.209 210.617 104.409 210.617C101.609 210.617 99.5842 212.742 99.5842 215.692C99.5842 218.542 101.634 220.617 104.409 220.617ZM104.534 226.517C107.234 226.517 109.184 224.767 109.184 221.792V219.792C108.084 221.392 106.334 222.342 104.209 222.342C100.434 222.342 97.6842 219.542 97.6842 215.692C97.6842 211.767 100.434 208.917 104.209 208.917C106.384 208.917 108.109 209.892 109.184 211.467V209.367H111.084V221.792C111.084 225.842 108.359 228.242 104.609 228.242C101.334 228.242 98.6092 226.167 98.1592 223.292L99.9842 223.042C100.409 225.067 102.334 226.517 104.534 226.517ZM115.585 214.642L124.91 214.667C124.56 212.267 122.71 210.617 120.21 210.617C117.76 210.617 115.935 212.267 115.585 214.642ZM113.585 215.542C113.585 211.692 116.385 208.867 120.285 208.867C124.135 208.867 126.91 211.692 126.91 215.567C126.91 215.792 126.91 216.042 126.885 216.317L115.535 216.292C115.835 218.942 117.735 220.767 120.235 220.767C122.185 220.767 124.035 219.567 124.61 217.917L126.485 218.217C125.71 220.692 123.11 222.492 120.31 222.492C116.41 222.492 113.585 219.567 113.585 215.542Z" fill="black"/>
<path d="M20.975 261.375H22.825V263.125C23.575 261.75 24.775 260.925 26.325 260.925C26.85 260.925 27.45 261.05 28.025 261.275V263.025C27.375 262.725 26.65 262.625 26.15 262.625C24.175 262.625 22.875 264.4 22.875 266.925V274H20.975V261.375ZM30.607 266.65L39.932 266.675C39.582 264.275 37.732 262.625 35.232 262.625C32.782 262.625 30.957 264.275 30.607 266.65ZM28.607 267.55C28.607 263.7 31.407 260.875 35.307 260.875C39.157 260.875 41.932 263.7 41.932 267.575C41.932 267.8 41.932 268.05 41.907 268.325L30.557 268.3C30.857 270.95 32.757 272.775 35.257 272.775C37.207 272.775 39.057 271.575 39.632 269.925L41.507 270.225C40.732 272.7 38.132 274.5 35.332 274.5C31.432 274.5 28.607 271.575 28.607 267.55ZM51.1012 272.65C53.9012 272.65 55.9262 270.55 55.9262 267.7C55.9262 264.775 53.8762 262.725 51.1012 262.725C48.3012 262.725 46.2762 264.825 46.2762 267.7C46.2762 270.55 48.3012 272.65 51.1012 272.65ZM57.8262 267.7C57.8262 271.625 55.1012 274.5 51.3262 274.5C49.1762 274.5 47.4012 273.525 46.3262 271.875V279.75H44.4262V261.375H46.2762V263.55C47.3512 261.9 49.1512 260.875 51.3262 260.875C55.0762 260.875 57.8262 263.75 57.8262 267.7ZM66.3266 260.875C70.2766 260.875 73.0766 263.7 73.0766 267.7C73.0766 271.675 70.2766 274.5 66.3266 274.5C62.3766 274.5 59.6016 271.675 59.6016 267.7C59.6016 263.7 62.3766 260.875 66.3266 260.875ZM66.3266 272.775C69.1266 272.775 71.1516 270.625 71.1516 267.7C71.1516 264.75 69.1266 262.625 66.3266 262.625C63.5266 262.625 61.5016 264.75 61.5016 267.7C61.5016 270.625 63.5266 272.775 66.3266 272.775ZM75.5434 261.375H77.3934V263.125C78.1434 261.75 79.3434 260.925 80.8934 260.925C81.4184 260.925 82.0184 261.05 82.5934 261.275V263.025C81.9434 262.725 81.2184 262.625 80.7184 262.625C78.7434 262.625 77.4434 264.4 77.4434 266.925V274H75.5434V261.375ZM85.7072 270.875V262.95H83.6322V261.375H85.7822L86.0572 258.425H87.6072V261.375H90.8822V262.95H87.6072V270.8C87.6072 272.025 88.3572 272.85 89.5572 272.875C89.9572 272.875 90.6072 272.775 91.0822 272.625V274.2C90.5072 274.375 89.7072 274.5 89.0822 274.5C87.0072 274.5 85.7072 273.05 85.7072 270.875ZM103.85 270.375C103.85 272.75 101.65 274.5 98.6496 274.5C95.3996 274.5 93.0496 272.5 93.0496 269.775H94.9246C94.9246 271.525 96.4746 272.775 98.6246 272.775C100.575 272.775 102 271.825 102 270.55C101.975 268.975 99.7746 268.625 98.3996 268.425C95.5246 267.975 93.2996 267.575 93.3246 264.725C93.3246 262.5 95.4246 260.875 98.1496 260.875C101.275 260.875 103.55 262.675 103.575 265.15L101.7 265.125C101.675 263.675 100.175 262.625 98.1246 262.625C96.4996 262.625 95.1746 263.525 95.1746 264.775C95.1746 265.9 96.2246 266.275 98.5246 266.65C100.85 267.05 103.825 267.575 103.85 270.375ZM104.448 274H116.948V275.625H104.448V274ZM118.491 270.875V262.95H116.416V261.375H118.566L118.841 258.425H120.391V261.375H123.666V262.95H120.391V270.8C120.391 272.025 121.141 272.85 122.341 272.875C122.741 272.875 123.391 272.775 123.866 272.625V274.2C123.291 274.375 122.491 274.5 121.866 274.5C119.791 274.5 118.491 273.05 118.491 270.875ZM132.359 260.875C136.309 260.875 139.109 263.7 139.109 267.7C139.109 271.675 136.309 274.5 132.359 274.5C128.409 274.5 125.634 271.675 125.634 267.7C125.634 263.7 128.409 260.875 132.359 260.875ZM132.359 272.775C135.159 272.775 137.184 270.625 137.184 267.7C137.184 264.75 135.159 262.625 132.359 262.625C129.559 262.625 127.534 264.75 127.534 267.7C127.534 270.625 129.559 272.775 132.359 272.775ZM139.601 274H152.101V275.625H139.601V274ZM164.501 274H162.601V272.225C161.751 273.625 160.026 274.5 158.276 274.5C155.051 274.5 153.076 272.15 153.076 268.925V261.375H154.976V268.925C154.976 271.15 156.251 272.775 158.501 272.775C160.701 272.775 162.601 271.075 162.601 268.775V261.375H164.501V274ZM177.987 270.375C177.987 272.75 175.787 274.5 172.787 274.5C169.537 274.5 167.187 272.5 167.187 269.775H169.062C169.062 271.525 170.612 272.775 172.762 272.775C174.712 272.775 176.137 271.825 176.137 270.55C176.112 268.975 173.912 268.625 172.537 268.425C169.662 267.975 167.437 267.575 167.462 264.725C167.462 262.5 169.562 260.875 172.287 260.875C175.412 260.875 177.687 262.675 177.712 265.15L175.837 265.125C175.812 263.675 174.312 262.625 172.262 262.625C170.637 262.625 169.312 263.525 169.312 264.775C169.312 265.9 170.362 266.275 172.662 266.65C174.987 267.05 177.962 267.575 177.987 270.375ZM181.861 266.65L191.186 266.675C190.836 264.275 188.986 262.625 186.486 262.625C184.036 262.625 182.211 264.275 181.861 266.65ZM179.861 267.55C179.861 263.7 182.661 260.875 186.561 260.875C190.411 260.875 193.186 263.7 193.186 267.575C193.186 267.8 193.186 268.05 193.161 268.325L181.811 268.3C182.111 270.95 184.011 272.775 186.511 272.775C188.461 272.775 190.311 271.575 190.886 269.925L192.761 270.225C191.986 272.7 189.386 274.5 186.586 274.5C182.686 274.5 179.861 271.575 179.861 267.55ZM195.68 261.375H197.53V263.125C198.28 261.75 199.48 260.925 201.03 260.925C201.555 260.925 202.155 261.05 202.73 261.275V263.025C202.08 262.725 201.355 262.625 200.855 262.625C198.88 262.625 197.58 264.4 197.58 266.925V274H195.68V261.375ZM201.036 274H213.536V275.625H201.036V274ZM215.061 261.375H216.961V274H215.061V261.375ZM216.011 259.05C215.236 259.05 214.711 258.5 214.711 257.75C214.711 257 215.236 256.475 216.011 256.475C216.761 256.475 217.311 257 217.311 257.75C217.311 258.5 216.761 259.05 216.011 259.05ZM226.481 262.725C223.681 262.725 221.656 264.825 221.656 267.7C221.656 270.6 223.706 272.65 226.481 272.65C229.281 272.65 231.306 270.55 231.306 267.7C231.306 264.825 229.281 262.725 226.481 262.725ZM219.756 267.7C219.756 263.75 222.506 260.875 226.281 260.875C228.406 260.875 230.181 261.875 231.256 263.5V255.625H233.156V274H231.306V271.825C230.231 273.475 228.431 274.5 226.281 274.5C222.506 274.5 219.756 271.625 219.756 267.7Z" fill="black"/>
<path d="M247.972 256.2L255.122 268.925V256.2H259.122V274H254.497L247.322 261.3V274H243.347V256.2H247.972ZM268.497 260.7C272.722 260.7 275.622 263.5 275.622 267.6C275.622 271.675 272.722 274.5 268.497 274.5C264.297 274.5 261.397 271.675 261.397 267.6C261.397 263.5 264.297 260.7 268.497 260.7ZM268.497 271.2C270.472 271.2 271.847 269.7 271.847 267.6C271.847 265.5 270.472 264 268.497 264C266.547 264 265.172 265.5 265.172 267.6C265.172 269.7 266.547 271.2 268.497 271.2ZM277.531 261.2H281.181V262.925C282.081 261.55 283.581 260.7 285.256 260.7C288.131 260.7 290.081 262.925 290.081 266V274H286.331V266.65C286.331 265.1 285.431 264 283.956 264C282.481 264 281.281 265.175 281.281 266.8V274H277.531V261.2ZM291.758 264.7H302.008V267.775H291.758V264.7ZM313.112 271.025C315.362 271.025 317.387 269.475 317.937 267.35L321.862 267.875C321.262 271.8 317.562 274.625 313.012 274.625C307.512 274.625 303.512 270.625 303.512 265.1C303.512 259.575 307.512 255.575 313.012 255.575C317.512 255.575 321.212 258.475 321.862 262.5L317.912 262.95C317.412 260.75 315.412 259.175 313.112 259.175C309.937 259.175 307.712 261.625 307.712 265.1C307.712 268.575 309.962 271.025 313.112 271.025ZM324.913 269.85V264.05H323.113V261.2H325.088L325.513 257.975H328.663V261.2H331.563V264.05H328.663V269.475C328.663 270.55 329.313 271.275 330.363 271.275C330.713 271.275 331.263 271.2 331.688 271.075V274.1C330.913 274.35 329.913 274.5 329.113 274.5C326.563 274.5 324.913 272.575 324.913 269.85ZM337.238 274H332.688L337.063 267.35L332.888 261.2H337.338L339.888 265.275L342.438 261.2H346.888L342.713 267.35L347.113 274H342.538L339.888 269.525L337.238 274ZM349.634 269.85V264.05H347.834V261.2H349.809L350.234 257.975H353.384V261.2H356.284V264.05H353.384V269.475C353.384 270.55 354.034 271.275 355.084 271.275C355.434 271.275 355.984 271.2 356.409 271.075V274.1C355.634 274.35 354.634 274.5 353.834 274.5C351.284 274.5 349.634 272.575 349.634 269.85ZM376.324 267.625H369.874V274H365.674V256.2H377.799V259.8H369.874V264.425H376.324V267.625ZM379.866 274V256.2H384.066V263.3L389.991 256.2H395.066L387.791 264.6L395.216 274H390.116L384.066 266.025V274H379.866Z" fill="#6485FC"/>
<path d="M21.575 248.292C20.8 248.292 20.275 247.767 20.275 246.992C20.275 246.267 20.8 245.717 21.575 245.717C22.325 245.717 22.875 246.267 22.875 246.992C22.875 247.767 22.325 248.292 21.575 248.292ZM25.9764 248.292C25.2014 248.292 24.6764 247.767 24.6764 246.992C24.6764 246.267 25.2014 245.717 25.9764 245.717C26.7264 245.717 27.2764 246.267 27.2764 246.992C27.2764 247.767 26.7264 248.292 25.9764 248.292ZM30.3777 248.292C29.6027 248.292 29.0777 247.767 29.0777 246.992C29.0777 246.267 29.6027 245.717 30.3777 245.717C31.1277 245.717 31.6777 246.267 31.6777 246.992C31.6777 247.767 31.1277 248.292 30.3777 248.292Z" fill="black"/>
<path d="M21.575 294.3C20.8 294.3 20.275 293.775 20.275 293C20.275 292.275 20.8 291.725 21.575 291.725C22.325 291.725 22.875 292.275 22.875 293C22.875 293.775 22.325 294.3 21.575 294.3ZM25.9764 294.3C25.2014 294.3 24.6764 293.775 24.6764 293C24.6764 292.275 25.2014 291.725 25.9764 291.725C26.7264 291.725 27.2764 292.275 27.2764 293C27.2764 293.775 26.7264 294.3 25.9764 294.3ZM30.3777 294.3C29.6027 294.3 29.0777 293.775 29.0777 293C29.0777 292.275 29.6027 291.725 30.3777 291.725C31.1277 291.725 31.6777 292.275 31.6777 293C31.6777 293.775 31.1277 294.3 30.3777 294.3Z" fill="black"/>
<path d="M248.534 65.3186C248.71 66.1282 249.509 66.6417 250.319 66.4658L263.511 63.598C264.32 63.422 264.834 62.6231 264.658 61.8136C264.482 61.004 263.683 60.4905 262.873 60.6664L251.147 63.2156L248.598 51.4895C248.422 50.68 247.623 50.1664 246.814 50.3424C246.004 50.5183 245.49 51.3172 245.666 52.1268L248.534 65.3186ZM343.593 6.89137L344.234 5.53499L343.593 6.89137ZM313.204 3.30624L312.896 1.83806L313.204 3.30624ZM309.871 4.00368L310.179 5.47187L309.871 4.00368ZM368.095 38.2203C368.271 39.0297 369.07 39.5426 369.88 39.366C370.689 39.1894 371.202 38.3902 371.026 37.5808L368.095 38.2203ZM345.656 7.8654L346.297 6.50903L345.656 7.8654ZM345.311 86.6258L344.682 85.2639L345.311 86.6258ZM371.026 37.5808C370.849 36.7714 370.05 36.2584 369.24 36.435C368.431 36.6116 367.918 37.4109 368.095 38.2203L371.026 37.5808ZM252.022 64.6283C252.47 63.9315 252.268 63.0034 251.572 62.5554C250.875 62.1074 249.947 62.3092 249.499 63.006L252.022 64.6283ZM252.54 58.2747C252.092 58.9716 252.294 59.8996 252.991 60.3476C253.688 60.7956 254.616 60.5938 255.064 59.897L252.54 58.2747ZM256.584 57.5313C257.032 56.8345 256.831 55.9064 256.134 55.4584C255.437 55.0105 254.509 55.2122 254.061 55.9091L256.584 57.5313ZM257.103 51.1777C256.655 51.8746 256.856 52.8027 257.553 53.2506C258.25 53.6986 259.178 53.4969 259.626 52.8L257.103 51.1777ZM261.147 50.4344C261.595 49.7375 261.393 48.8094 260.696 48.3615C259.999 47.9135 259.071 48.1152 258.623 48.8121L261.147 50.4344ZM261.665 44.0808C261.217 44.7776 261.419 45.7057 262.115 46.1537C262.812 46.6017 263.74 46.3999 264.188 45.703L261.665 44.0808ZM265.709 43.3374C266.157 42.6405 265.955 41.7125 265.259 41.2645C264.562 40.8165 263.634 41.0183 263.186 41.7151L265.709 43.3374ZM266.227 36.9838C265.779 37.6806 265.981 38.6087 266.678 39.0567C267.375 39.5047 268.303 39.3029 268.751 38.6061L266.227 36.9838ZM270.272 36.2404C270.719 35.5436 270.518 34.6155 269.821 34.1675C269.124 33.7195 268.196 33.9213 267.748 34.6181L270.272 36.2404ZM270.79 29.8868C270.342 30.5837 270.543 31.5117 271.24 31.9597C271.937 32.4077 272.865 32.2059 273.313 31.5091L270.79 29.8868ZM274.901 29.0752C275.368 28.3904 275.19 27.4573 274.506 26.9911C273.821 26.5248 272.888 26.702 272.421 27.3868L274.901 29.0752ZM276.246 22.362C275.71 22.9937 275.788 23.9403 276.42 24.4762C277.052 25.0121 277.998 24.9344 278.534 24.3027L276.246 22.362ZM280.534 22.0672C281.103 21.4647 281.075 20.5153 280.473 19.9468C279.87 19.3782 278.921 19.4057 278.353 20.0082L280.534 22.0672ZM282.923 15.6511C282.294 16.1903 282.221 17.1372 282.76 17.7662C283.3 18.3952 284.246 18.4681 284.875 17.9289L282.923 15.6511ZM287.204 16.0376C287.861 15.5324 287.983 14.5907 287.478 13.9341C286.973 13.2775 286.031 13.1547 285.375 13.6598L287.204 16.0376ZM290.576 10.0792C289.87 10.5123 289.648 11.4358 290.081 12.1421C290.514 12.8483 291.438 13.0698 292.144 12.6368L290.576 10.0792ZM294.742 11.1368C295.47 10.7417 295.74 9.83115 295.345 9.10302C294.95 8.37489 294.039 8.10492 293.311 8.50003L294.742 11.1368ZM299.013 5.78588C298.247 6.10191 297.882 6.97889 298.199 7.74467C298.515 8.51045 299.392 8.87504 300.157 8.55901L299.013 5.78588ZM302.96 7.48837C303.741 7.21327 304.151 6.3568 303.876 5.57538C303.601 4.79396 302.745 4.38351 301.963 4.6586L302.96 7.48837ZM308.022 2.87945C307.216 3.07051 306.718 3.87887 306.909 4.68496C307.1 5.49106 307.908 5.98963 308.714 5.79857L308.022 2.87945ZM310.734 5.35563C311.545 5.18592 312.065 4.39101 311.895 3.58015C311.725 2.76929 310.93 2.24954 310.119 2.41926L310.734 5.35563ZM312.341 1.9543C311.53 2.12401 311.01 2.91892 311.18 3.72978C311.35 4.54063 312.145 5.06038 312.955 4.89067L312.341 1.9543ZM315.157 4.46059C315.974 4.32014 316.522 3.54443 316.381 2.72799C316.241 1.91156 315.465 1.36357 314.649 1.50402L315.157 4.46059ZM321.744 0.803478C320.916 0.82539 320.263 1.51449 320.284 2.34263C320.306 3.17077 320.996 3.82434 321.824 3.80243L321.744 0.803478ZM325.175 3.83434C326.003 3.87202 326.704 3.23168 326.742 2.40411C326.779 1.57654 326.139 0.875121 325.311 0.837445L325.175 3.83434ZM332.392 1.67278C331.579 1.51685 330.793 2.05 330.637 2.86362C330.481 3.67724 331.014 4.46322 331.828 4.61916L332.392 1.67278ZM335.095 5.368C335.895 5.58202 336.717 5.10675 336.931 4.30644C337.145 3.50614 336.67 2.68386 335.87 2.46984L335.095 5.368ZM342.607 4.8023C341.846 4.47572 340.964 4.82816 340.637 5.5895C340.311 6.35084 340.663 7.23277 341.425 7.55935L342.607 4.8023ZM343.297 8.41008C344.046 8.76382 344.94 8.44332 345.294 7.69421C345.647 6.94511 345.327 6.05108 344.578 5.69733L343.297 8.41008ZM345.953 6.34669C345.204 5.99294 344.31 6.31345 343.956 7.06255C343.602 7.81166 343.923 8.70569 344.672 9.05943L345.953 6.34669ZM346.449 9.93231C347.184 10.3143 348.09 10.028 348.472 9.29295C348.854 8.55785 348.567 7.65226 347.832 7.27027L346.449 9.93231ZM353.651 10.8818C352.983 10.3925 352.044 10.5379 351.555 11.2064C351.065 11.8749 351.211 12.8135 351.879 13.3027L353.651 10.8818ZM354.386 15.2884C355.015 15.8271 355.962 15.7537 356.501 15.1244C357.04 14.4951 356.966 13.5482 356.337 13.0095L354.386 15.2884ZM361.185 17.8466C360.645 17.2185 359.698 17.1472 359.07 17.6874C358.442 18.2276 358.37 19.1747 358.911 19.8028L361.185 17.8466ZM360.902 22.3051C361.393 22.9724 362.332 23.1156 362.999 22.6247C363.667 22.1339 363.81 21.195 363.319 20.5277L360.902 22.3051ZM366.944 26.3375C366.561 25.6033 365.654 25.3193 364.92 25.7031C364.186 26.0868 363.902 26.9931 364.286 27.7273L366.944 26.3375ZM365.658 30.6157C365.985 31.377 366.867 31.7293 367.628 31.4026C368.389 31.0758 368.742 30.1938 368.415 29.4326L365.658 30.6157ZM370.628 35.9134C370.421 35.1113 369.603 34.6291 368.801 34.8364C367.999 35.0437 367.517 35.8619 367.724 36.664L370.628 35.9134ZM368.362 39.5475C368.513 40.3621 369.295 40.9003 370.11 40.7496C370.924 40.599 371.463 39.8165 371.312 39.0019L368.362 39.5475ZM371.997 44.7512C371.953 43.924 371.246 43.2898 370.418 43.3347C369.591 43.3796 368.957 44.0866 369.002 44.9138L371.997 44.7512ZM369.061 47.616C369.052 48.4444 369.717 49.123 370.545 49.1316C371.374 49.1403 372.052 48.4758 372.061 47.6474L369.061 47.616ZM371.626 53.4223C371.741 52.602 371.17 51.8434 370.35 51.7279C369.529 51.6124 368.771 52.1838 368.655 53.0041L371.626 53.4223ZM368.192 55.6673C368.024 56.4785 368.545 57.2724 369.356 57.4406C370.168 57.6088 370.962 57.0876 371.13 56.2764L368.192 55.6673ZM369.591 61.8587C369.862 61.0759 369.448 60.2216 368.665 59.9506C367.882 59.6795 367.028 60.0945 366.756 60.8773L369.591 61.8587ZM365.79 63.4026C365.47 64.1664 365.829 65.0456 366.593 65.3664C367.356 65.6871 368.236 65.3279 368.556 64.5641L365.79 63.4026ZM365.977 69.7476C366.393 69.0311 366.149 68.1131 365.433 67.6972C364.716 67.2813 363.798 67.5248 363.382 68.2413L365.977 69.7476ZM361.95 70.5348C361.489 71.223 361.673 72.1548 362.361 72.6159C363.05 73.077 363.981 72.8928 364.443 72.2046L361.95 70.5348ZM360.917 76.7978C361.462 76.1745 361.4 75.2269 360.776 74.6812C360.153 74.1354 359.205 74.1983 358.66 74.8216L360.917 76.7978ZM356.814 76.7969C356.229 77.3837 356.231 78.3334 356.818 78.9182C357.405 79.503 358.354 79.5014 358.939 78.9146L356.814 76.7969ZM354.594 82.7437C355.25 82.2373 355.371 81.2953 354.865 80.6397C354.358 79.984 353.416 79.8631 352.76 80.3695L354.594 82.7437ZM350.569 81.9516C349.882 82.4146 349.7 83.3468 350.163 84.0338C350.626 84.7208 351.559 84.9024 352.246 84.4394L350.569 81.9516ZM347.246 87.3593C347.986 86.9883 348.286 86.0871 347.915 85.3464C347.544 84.6057 346.643 84.306 345.902 84.677L347.246 87.3593ZM343.27 85.9156C342.518 86.2628 342.189 87.154 342.537 87.9062C342.884 88.6583 343.775 88.9867 344.527 88.6395L343.27 85.9156ZM338.879 91.2466C339.631 90.8994 339.959 90.0082 339.612 89.2561C339.265 88.5039 338.374 88.1755 337.621 88.5227L338.879 91.2466ZM334.797 89.8262C334.045 90.1734 333.717 91.0646 334.064 91.8168C334.411 92.5689 335.302 92.8973 336.054 92.5501L334.797 89.8262ZM330.406 95.1572C331.158 94.81 331.486 93.9188 331.139 93.1667C330.792 92.4145 329.901 92.0861 329.148 92.4333L330.406 95.1572ZM326.324 93.7368C325.572 94.084 325.244 94.9752 325.591 95.7274C325.938 96.4795 326.829 96.8079 327.581 96.4607L326.324 93.7368ZM321.933 99.0678C322.685 98.7206 323.013 97.8294 322.666 97.0773C322.319 96.3251 321.428 95.9967 320.675 96.3439L321.933 99.0678ZM317.851 97.6474C317.099 97.9946 316.771 98.8858 317.118 99.638C317.465 100.39 318.356 100.718 319.108 100.371L317.851 97.6474ZM313.46 102.978C314.212 102.631 314.54 101.74 314.193 100.988C313.846 100.236 312.955 99.9073 312.202 100.254L313.46 102.978ZM309.378 101.558C308.626 101.905 308.298 102.796 308.645 103.549C308.992 104.301 309.883 104.629 310.635 104.282L309.378 101.558ZM304.987 106.889C305.739 106.542 306.067 105.651 305.72 104.898C305.373 104.146 304.482 103.818 303.73 104.165L304.987 106.889ZM300.905 105.469C300.153 105.816 299.825 106.707 300.172 107.459C300.519 108.211 301.41 108.54 302.162 108.193L300.905 105.469ZM296.514 110.8C297.266 110.452 297.594 109.561 297.247 108.809C296.9 108.057 296.009 107.729 295.257 108.076L296.514 110.8ZM292.432 109.379C291.68 109.726 291.352 110.618 291.699 111.37C292.046 112.122 292.937 112.45 293.689 112.103L292.432 109.379ZM288.041 114.71C288.793 114.363 289.121 113.472 288.774 112.72C288.427 111.967 287.536 111.639 286.784 111.986L288.041 114.71ZM251.262 65.8111L252.022 64.6283L249.499 63.006L248.738 64.1889L251.262 65.8111ZM255.064 59.897L256.584 57.5313L254.061 55.9091L252.54 58.2747L255.064 59.897ZM259.626 52.8L261.147 50.4344L258.623 48.8121L257.103 51.1777L259.626 52.8ZM264.188 45.703L265.709 43.3374L263.186 41.7151L261.665 44.0808L264.188 45.703ZM268.751 38.6061L270.272 36.2404L267.748 34.6181L266.227 36.9838L268.751 38.6061ZM273.313 31.5091L274.073 30.3263L271.55 28.704L270.79 29.8868L273.313 31.5091ZM274.073 30.3263C274.344 29.905 274.62 29.488 274.901 29.0752L272.421 27.3868C272.126 27.8214 271.835 28.2605 271.55 28.704L274.073 30.3263ZM278.534 24.3027C279.182 23.5388 279.849 22.7935 280.534 22.0672L278.353 20.0082C277.631 20.7729 276.929 21.5577 276.246 22.362L278.534 24.3027ZM284.875 17.9289C285.635 17.2778 286.412 16.6471 287.204 16.0376L285.375 13.6598C284.541 14.3015 283.723 14.9655 282.923 15.6511L284.875 17.9289ZM292.144 12.6368C292.996 12.1142 293.863 11.6141 294.742 11.1368L293.311 8.50003C292.385 9.00249 291.473 9.52911 290.576 10.0792L292.144 12.6368ZM300.157 8.55901C301.08 8.17807 302.015 7.82099 302.96 7.48837L301.963 4.6586C300.969 5.00882 299.985 5.38479 299.013 5.78588L300.157 8.55901ZM308.714 5.79857C309.2 5.68338 309.688 5.57446 310.179 5.47187L309.564 2.5355C309.048 2.6435 308.534 2.75818 308.022 2.87945L308.714 5.79857ZM310.179 5.47187L310.734 5.35563L310.119 2.41926L309.564 2.5355L310.179 5.47187ZM312.955 4.89067L313.511 4.77443L312.896 1.83806L312.341 1.9543L312.955 4.89067ZM313.511 4.77443C314.059 4.65979 314.607 4.55519 315.157 4.46059L314.649 1.50402C314.063 1.60471 313.479 1.71604 312.896 1.83806L313.511 4.77443ZM321.824 3.80243C322.942 3.77284 324.06 3.78356 325.175 3.83434L325.311 0.837445C324.124 0.7834 322.935 0.771986 321.744 0.803478L321.824 3.80243ZM331.828 4.61916C332.924 4.82932 334.014 5.07902 335.095 5.368L335.87 2.46984C334.719 2.16225 333.56 1.89647 332.392 1.67278L331.828 4.61916ZM341.425 7.55935C341.937 7.77932 342.447 8.0088 342.953 8.24774L344.234 5.53499C343.695 5.28068 343.153 5.03644 342.607 4.8023L341.425 7.55935ZM342.953 8.24774L343.297 8.41008L344.578 5.69733L344.234 5.53499L342.953 8.24774ZM344.672 9.05943L345.016 9.22177L346.297 6.50903L345.953 6.34669L344.672 9.05943ZM345.016 9.22177C345.499 9.45002 345.977 9.68694 346.449 9.93231L347.832 7.27027C347.326 7.00737 346.814 6.75355 346.297 6.50903L345.016 9.22177ZM351.879 13.3027C352.742 13.9338 353.578 14.5963 354.386 15.2884L356.337 13.0095C355.471 12.2679 354.575 11.558 353.651 10.8818L351.879 13.3027ZM358.911 19.8028C359.606 20.6113 360.27 21.446 360.902 22.3051L363.319 20.5277C362.642 19.6072 361.93 18.7128 361.185 17.8466L358.911 19.8028ZM364.286 27.7273C364.779 28.6703 365.237 29.6338 365.658 30.6157L368.415 29.4326C367.963 28.3803 367.473 27.348 366.944 26.3375L364.286 27.7273ZM367.724 36.664C367.857 37.1792 367.981 37.698 368.095 38.2203L371.026 37.5808C370.904 37.0213 370.771 36.4654 370.628 35.9134L367.724 36.664ZM368.095 38.2203C368.191 38.6626 368.28 39.105 368.362 39.5475L371.312 39.0019C371.224 38.528 371.129 38.0543 371.026 37.5808L368.095 38.2203ZM369.002 44.9138C369.051 45.8173 369.07 46.7184 369.061 47.616L372.061 47.6474C372.071 46.6853 372.05 45.7194 371.997 44.7512L369.002 44.9138ZM368.655 53.0041C368.529 53.8985 368.375 54.7866 368.192 55.6673L371.13 56.2764C371.325 55.3326 371.491 54.3808 371.626 53.4223L368.655 53.0041ZM366.756 60.8773C366.461 61.7297 366.139 62.5719 365.79 63.4026L368.556 64.5641C368.93 63.6742 369.275 62.772 369.591 61.8587L366.756 60.8773ZM363.382 68.2413C362.93 69.0204 362.452 69.7854 361.95 70.5348L364.443 72.2046C364.98 71.4017 365.492 70.5822 365.977 69.7476L363.382 68.2413ZM358.66 74.8216C358.067 75.4984 357.452 76.1572 356.814 76.7969L358.939 78.9146C359.622 78.2291 360.282 77.523 360.917 76.7978L358.66 74.8216ZM352.76 80.3695C352.05 80.9182 351.319 81.446 350.569 81.9516L352.246 84.4394C353.05 83.8975 353.833 83.3319 354.594 82.7437L352.76 80.3695ZM345.902 84.677C345.5 84.8785 345.093 85.0742 344.682 85.2639L345.939 87.9877C346.379 87.7846 346.815 87.5751 347.246 87.3593L345.902 84.677ZM344.682 85.2639L343.27 85.9156L344.527 88.6395L345.939 87.9877L344.682 85.2639ZM337.621 88.5227L334.797 89.8262L336.054 92.5501L338.879 91.2466L337.621 88.5227ZM329.148 92.4333L326.324 93.7368L327.581 96.4607L330.406 95.1572L329.148 92.4333ZM320.675 96.3439L317.851 97.6474L319.108 100.371L321.933 99.0678L320.675 96.3439ZM312.202 100.254L309.378 101.558L310.635 104.282L313.46 102.978L312.202 100.254ZM303.73 104.165L300.905 105.469L302.162 108.193L304.987 106.889L303.73 104.165ZM295.257 108.076L292.432 109.379L293.689 112.103L296.514 110.8L295.257 108.076ZM286.784 111.986L285.371 112.638L286.629 115.362L288.041 114.71L286.784 111.986Z" fill="#6485FC"/>
</svg>
