<svg width="801" height="230" viewBox="0 0 801 230" fill="none" xmlns="http://www.w3.org/2000/svg">
<rect x="0.5" y="1.5" width="218" height="89" rx="19.5" fill="#D8FF29" stroke="#ACACAC"/>
<rect x="274.5" y="1.5" width="184" height="89" rx="19.5" fill="#76F5BC" stroke="#ACACAC"/>
<rect x="514.5" y="0.5" width="286" height="89" rx="19.5" fill="#D8FF29" stroke="#ACACAC"/>
<path d="M338.475 54H327.375V36.375H329.45V52.15H338.475V54ZM348.964 54.625C343.414 54.625 339.489 50.725 339.489 45.2C339.489 39.675 343.414 35.75 348.964 35.75C354.514 35.75 358.464 39.675 358.464 45.2C358.464 50.725 354.514 54.625 348.964 54.625ZM348.964 37.6C344.664 37.6 341.564 40.775 341.564 45.2C341.564 49.6 344.664 52.75 348.964 52.775C353.289 52.775 356.364 49.6 356.364 45.2C356.364 40.775 353.289 37.6 348.964 37.6ZM370.961 52.775C374.961 52.775 378.036 49.85 378.036 46H370.911V44.275H380.111C380.536 50.275 376.686 54.625 370.961 54.625C365.461 54.625 361.486 50.65 361.486 45.2C361.486 39.725 365.461 35.75 370.961 35.75C375.011 35.75 378.536 38.375 379.336 42L377.361 42.375C376.636 39.6 373.936 37.6 370.961 37.6C366.661 37.6 363.561 40.75 363.561 45.2C363.561 49.575 366.661 52.775 370.961 52.775ZM384.04 36.375H386.115V54H384.04V36.375ZM393.601 36.375L402.726 51.45V36.375H404.826V54H402.101L392.951 38.925V54H390.876V36.375H393.601Z" fill="black"/>
<path d="M596.825 39.225L592.8 49.775H600.825L596.825 39.225ZM592.3 51.4L590.95 55H588.725L595.3 37.375H598.3L604.875 55H602.65L601.325 51.4H592.3ZM615.521 53.775C618.496 53.775 621.121 51.8 621.821 49.125L623.846 49.5C622.971 53.025 619.496 55.625 615.521 55.625C610.221 55.625 606.371 51.675 606.371 46.2C606.371 40.725 610.221 36.75 615.521 36.75C619.496 36.75 622.996 39.475 623.846 43.175L621.796 43.425C621.146 40.675 618.521 38.6 615.521 38.6C611.396 38.6 608.446 41.775 608.446 46.2C608.471 50.6 611.421 53.775 615.521 53.775ZM636.053 53.775C639.028 53.775 641.653 51.8 642.353 49.125L644.378 49.5C643.503 53.025 640.028 55.625 636.053 55.625C630.753 55.625 626.903 51.675 626.903 46.2C626.903 40.725 630.753 36.75 636.053 36.75C640.028 36.75 643.528 39.475 644.378 43.175L642.328 43.425C641.678 40.675 639.053 38.6 636.053 38.6C631.928 38.6 628.978 41.775 628.978 46.2C629.003 50.6 631.953 53.775 636.053 53.775ZM656.91 55.625C651.36 55.625 647.435 51.725 647.435 46.2C647.435 40.675 651.36 36.75 656.91 36.75C662.46 36.75 666.41 40.675 666.41 46.2C666.41 51.725 662.46 55.625 656.91 55.625ZM656.91 38.6C652.61 38.6 649.51 41.775 649.51 46.2C649.51 50.6 652.61 53.75 656.91 53.775C661.235 53.775 664.31 50.6 664.31 46.2C664.31 41.775 661.235 38.6 656.91 38.6ZM682.332 47.85V37.375H684.407V47.85C684.407 52.4 681.457 55.625 677.282 55.625C673.082 55.625 670.132 52.4 670.132 47.85V37.375H672.207V47.85C672.207 51.075 674.207 53.775 677.282 53.775C680.307 53.775 682.332 51.325 682.332 47.85ZM691.733 37.375L700.858 52.45V37.375H702.958V55H700.233L691.083 39.925V55H689.008V37.375H691.733ZM711.735 55V39.225H705.835V37.375H719.71V39.225H713.81V55H711.735Z" fill="black"/>
<path d="M38.28 111.5C40.72 111.5 42.78 113.06 43.16 115.2L41.68 115.4C41.3 113.92 39.88 112.84 38.28 112.84C36.16 112.84 34.54 114.58 34.54 116.96C34.54 119.34 36.14 121.06 38.28 121.06C39.92 121.06 41.28 120 41.68 118.56L43.18 118.76C42.72 120.88 40.66 122.4 38.28 122.4C35.22 122.4 33.02 120.12 33.02 116.96C33.02 113.8 35.24 111.5 38.28 111.5ZM54.127 122H52.607V120.58C51.927 121.7 50.547 122.4 49.147 122.4C46.567 122.4 44.987 120.52 44.987 117.94V111.9H46.507V117.94C46.507 119.72 47.527 121.02 49.327 121.02C51.087 121.02 52.607 119.66 52.607 117.82V111.9H54.127V122ZM64.9164 119.1C64.9164 121 63.1564 122.4 60.7564 122.4C58.1564 122.4 56.2764 120.8 56.2764 118.62H57.7764C57.7764 120.02 59.0164 121.02 60.7364 121.02C62.2964 121.02 63.4364 120.26 63.4364 119.24C63.4164 117.98 61.6564 117.7 60.5564 117.54C58.2564 117.18 56.4764 116.86 56.4964 114.58C56.4964 112.8 58.1764 111.5 60.3564 111.5C62.8564 111.5 64.6764 112.94 64.6964 114.92L63.1964 114.9C63.1764 113.74 61.9764 112.9 60.3364 112.9C59.0364 112.9 57.9764 113.62 57.9764 114.62C57.9764 115.52 58.8164 115.82 60.6564 116.12C62.5164 116.44 64.8964 116.86 64.9164 119.1ZM67.2298 119.5V113.16H65.5698V111.9H67.2898L67.5098 109.54H68.7498V111.9H71.3698V113.16H68.7498V119.44C68.7498 120.42 69.3498 121.08 70.3098 121.1C70.6298 121.1 71.1498 121.02 71.5298 120.9V122.16C71.0698 122.3 70.4298 122.4 69.9298 122.4C68.2698 122.4 67.2298 121.24 67.2298 119.5ZM78.3237 111.5C81.4837 111.5 83.7237 113.76 83.7237 116.96C83.7237 120.14 81.4837 122.4 78.3237 122.4C75.1637 122.4 72.9437 120.14 72.9437 116.96C72.9437 113.76 75.1637 111.5 78.3237 111.5ZM78.3237 121.02C80.5637 121.02 82.1837 119.3 82.1837 116.96C82.1837 114.6 80.5637 112.9 78.3237 112.9C76.0837 112.9 74.4637 114.6 74.4637 116.96C74.4637 119.3 76.0837 121.02 78.3237 121.02ZM87.2172 122H85.6972V111.9H87.1772V113.16C87.8172 112.12 88.8772 111.5 90.1772 111.5C91.8372 111.5 93.1972 112.34 93.7572 113.62C94.3972 112.34 95.6572 111.52 97.2572 111.52C99.6172 111.52 101.297 113.36 101.297 115.96V122H99.7572V115.94C99.7572 114.16 98.6372 112.9 97.0772 112.9C95.3972 112.9 94.2372 114.16 94.2372 115.94V122H92.7172V115.94C92.7172 114.12 91.6572 112.9 90.0372 112.9C88.3572 112.9 87.2172 114.12 87.2172 115.94V122ZM104.692 116.12L112.152 116.14C111.872 114.22 110.392 112.9 108.392 112.9C106.432 112.9 104.972 114.22 104.692 116.12ZM103.092 116.84C103.092 113.76 105.332 111.5 108.452 111.5C111.532 111.5 113.752 113.76 113.752 116.86C113.752 117.04 113.752 117.24 113.732 117.46L104.652 117.44C104.892 119.56 106.412 121.02 108.412 121.02C109.972 121.02 111.452 120.06 111.912 118.74L113.412 118.98C112.792 120.96 110.712 122.4 108.472 122.4C105.352 122.4 103.092 120.06 103.092 116.84ZM115.747 111.9H117.227V113.3C117.827 112.2 118.787 111.54 120.027 111.54C120.447 111.54 120.927 111.64 121.387 111.82V113.22C120.867 112.98 120.287 112.9 119.887 112.9C118.307 112.9 117.267 114.32 117.267 116.34V122H115.747V111.9ZM120.032 122H130.032V123.3H120.032V122ZM131.252 111.9H132.772V122H131.252V111.9ZM132.012 110.04C131.392 110.04 130.972 109.6 130.972 109C130.972 108.4 131.392 107.98 132.012 107.98C132.612 107.98 133.052 108.4 133.052 109C133.052 109.6 132.612 110.04 132.012 110.04ZM140.388 112.98C138.148 112.98 136.528 114.66 136.528 116.96C136.528 119.28 138.168 120.92 140.388 120.92C142.628 120.92 144.248 119.24 144.248 116.96C144.248 114.66 142.628 112.98 140.388 112.98ZM135.008 116.96C135.008 113.8 137.208 111.5 140.228 111.5C141.928 111.5 143.348 112.3 144.208 113.6V107.3H145.728V122H144.248V120.26C143.388 121.58 141.948 122.4 140.228 122.4C137.208 122.4 135.008 120.1 135.008 116.96ZM159.401 110.3H157.121V115.38H159.401C161.241 115.38 162.521 114.32 162.521 112.84C162.521 111.34 161.241 110.3 159.401 110.3ZM160.001 117.92H157.121V122H153.881V107.76H160.041C163.481 107.76 165.881 109.86 165.881 112.84C165.881 115.84 163.481 117.92 160.001 117.92ZM167.656 122V107.76H171.016V113.44L175.756 107.76H179.816L173.996 114.48L179.936 122H175.856L171.016 115.62V122H167.656Z" fill="black"/>
<path d="M283.28 111.5C285.72 111.5 287.78 113.06 288.16 115.2L286.68 115.4C286.3 113.92 284.88 112.84 283.28 112.84C281.16 112.84 279.54 114.58 279.54 116.96C279.54 119.34 281.14 121.06 283.28 121.06C284.92 121.06 286.28 120 286.68 118.56L288.18 118.76C287.72 120.88 285.66 122.4 283.28 122.4C280.22 122.4 278.02 120.12 278.02 116.96C278.02 113.8 280.24 111.5 283.28 111.5ZM299.127 122H297.607V120.58C296.927 121.7 295.547 122.4 294.147 122.4C291.567 122.4 289.987 120.52 289.987 117.94V111.9H291.507V117.94C291.507 119.72 292.527 121.02 294.327 121.02C296.087 121.02 297.607 119.66 297.607 117.82V111.9H299.127V122ZM309.916 119.1C309.916 121 308.156 122.4 305.756 122.4C303.156 122.4 301.276 120.8 301.276 118.62H302.776C302.776 120.02 304.016 121.02 305.736 121.02C307.296 121.02 308.436 120.26 308.436 119.24C308.416 117.98 306.656 117.7 305.556 117.54C303.256 117.18 301.476 116.86 301.496 114.58C301.496 112.8 303.176 111.5 305.356 111.5C307.856 111.5 309.676 112.94 309.696 114.92L308.196 114.9C308.176 113.74 306.976 112.9 305.336 112.9C304.036 112.9 302.976 113.62 302.976 114.62C302.976 115.52 303.816 115.82 305.656 116.12C307.516 116.44 309.896 116.86 309.916 119.1ZM312.23 119.5V113.16H310.57V111.9H312.29L312.51 109.54H313.75V111.9H316.37V113.16H313.75V119.44C313.75 120.42 314.35 121.08 315.31 121.1C315.63 121.1 316.15 121.02 316.53 120.9V122.16C316.07 122.3 315.43 122.4 314.93 122.4C313.27 122.4 312.23 121.24 312.23 119.5ZM323.324 111.5C326.484 111.5 328.724 113.76 328.724 116.96C328.724 120.14 326.484 122.4 323.324 122.4C320.164 122.4 317.944 120.14 317.944 116.96C317.944 113.76 320.164 111.5 323.324 111.5ZM323.324 121.02C325.564 121.02 327.184 119.3 327.184 116.96C327.184 114.6 325.564 112.9 323.324 112.9C321.084 112.9 319.464 114.6 319.464 116.96C319.464 119.3 321.084 121.02 323.324 121.02ZM332.217 122H330.697V111.9H332.177V113.16C332.817 112.12 333.877 111.5 335.177 111.5C336.837 111.5 338.197 112.34 338.757 113.62C339.397 112.34 340.657 111.52 342.257 111.52C344.617 111.52 346.297 113.36 346.297 115.96V122H344.757V115.94C344.757 114.16 343.637 112.9 342.077 112.9C340.397 112.9 339.237 114.16 339.237 115.94V122H337.717V115.94C337.717 114.12 336.657 112.9 335.037 112.9C333.357 112.9 332.217 114.12 332.217 115.94V122ZM349.692 116.12L357.152 116.14C356.872 114.22 355.392 112.9 353.392 112.9C351.432 112.9 349.972 114.22 349.692 116.12ZM348.092 116.84C348.092 113.76 350.332 111.5 353.452 111.5C356.532 111.5 358.752 113.76 358.752 116.86C358.752 117.04 358.752 117.24 358.732 117.46L349.652 117.44C349.892 119.56 351.412 121.02 353.412 121.02C354.972 121.02 356.452 120.06 356.912 118.74L358.412 118.98C357.792 120.96 355.712 122.4 353.472 122.4C350.352 122.4 348.092 120.06 348.092 116.84ZM360.747 111.9H362.227V113.3C362.827 112.2 363.787 111.54 365.027 111.54C365.447 111.54 365.927 111.64 366.387 111.82V113.22C365.867 112.98 365.287 112.9 364.887 112.9C363.307 112.9 362.267 114.32 362.267 116.34V122H360.747V111.9ZM365.032 122H375.032V123.3H365.032V122ZM376.252 111.9H377.772V122H376.252V111.9ZM377.012 110.04C376.392 110.04 375.972 109.6 375.972 109C375.972 108.4 376.392 107.98 377.012 107.98C377.612 107.98 378.052 108.4 378.052 109C378.052 109.6 377.612 110.04 377.012 110.04ZM385.388 112.98C383.148 112.98 381.528 114.66 381.528 116.96C381.528 119.28 383.168 120.92 385.388 120.92C387.628 120.92 389.248 119.24 389.248 116.96C389.248 114.66 387.628 112.98 385.388 112.98ZM380.008 116.96C380.008 113.8 382.208 111.5 385.228 111.5C386.928 111.5 388.348 112.3 389.208 113.6V107.3H390.728V122H389.248V120.26C388.388 121.58 386.948 122.4 385.228 122.4C382.208 122.4 380.008 120.1 380.008 116.96ZM405.901 119.62C407.701 119.62 409.321 118.38 409.761 116.68L412.901 117.1C412.421 120.24 409.461 122.5 405.821 122.5C401.421 122.5 398.221 119.3 398.221 114.88C398.221 110.46 401.421 107.26 405.821 107.26C409.421 107.26 412.381 109.58 412.901 112.8L409.741 113.16C409.341 111.4 407.741 110.14 405.901 110.14C403.361 110.14 401.581 112.1 401.581 114.88C401.581 117.66 403.381 119.62 405.901 119.62ZM415.342 118.68V114.04H413.902V111.76H415.482L415.822 109.18H418.342V111.76H420.662V114.04H418.342V118.38C418.342 119.24 418.862 119.82 419.702 119.82C419.982 119.82 420.422 119.76 420.762 119.66V122.08C420.142 122.28 419.342 122.4 418.702 122.4C416.662 122.4 415.342 120.86 415.342 118.68ZM425.202 122H421.562L425.062 116.68L421.722 111.76H425.282L427.322 115.02L429.362 111.76H432.922L429.582 116.68L433.102 122H429.442L427.322 118.42L425.202 122ZM435.119 118.68V114.04H433.679V111.76H435.259L435.599 109.18H438.119V111.76H440.439V114.04H438.119V118.38C438.119 119.24 438.639 119.82 439.479 119.82C439.759 119.82 440.199 119.76 440.539 119.66V122.08C439.919 122.28 439.119 122.4 438.479 122.4C436.439 122.4 435.119 120.86 435.119 118.68ZM456.471 116.9H451.311V122H447.951V107.76H457.651V110.64H451.311V114.34H456.471V116.9ZM459.304 122V107.76H462.664V113.44L467.404 107.76H471.464L465.644 114.48L471.584 122H467.504L462.664 115.62V122H459.304Z" fill="black"/>
<path d="M540.4 121.02C542.62 121.02 544.26 119.3 544.26 116.96C544.26 114.6 542.62 112.9 540.4 112.9C538.16 112.9 536.54 114.6 536.54 116.96C536.54 119.3 538.16 121.02 540.4 121.02ZM544.28 113.7V111.9H545.8V122H544.28V120.22C543.42 121.56 541.96 122.4 540.22 122.4C537.2 122.4 535.02 120.1 535.02 116.96C535.02 113.8 537.2 111.5 540.22 111.5C541.96 111.5 543.42 112.34 544.28 113.7ZM553.059 111.5C555.499 111.5 557.559 113.06 557.939 115.2L556.459 115.4C556.079 113.92 554.659 112.84 553.059 112.84C550.939 112.84 549.319 114.58 549.319 116.96C549.319 119.34 550.919 121.06 553.059 121.06C554.699 121.06 556.059 120 556.459 118.56L557.959 118.76C557.499 120.88 555.439 122.4 553.059 122.4C549.999 122.4 547.799 120.12 547.799 116.96C547.799 113.8 550.019 111.5 553.059 111.5ZM564.666 111.5C567.106 111.5 569.166 113.06 569.546 115.2L568.066 115.4C567.686 113.92 566.266 112.84 564.666 112.84C562.546 112.84 560.926 114.58 560.926 116.96C560.926 119.34 562.526 121.06 564.666 121.06C566.306 121.06 567.666 120 568.066 118.56L569.566 118.76C569.106 120.88 567.046 122.4 564.666 122.4C561.606 122.4 559.406 120.12 559.406 116.96C559.406 113.8 561.626 111.5 564.666 111.5ZM576.373 111.5C579.533 111.5 581.773 113.76 581.773 116.96C581.773 120.14 579.533 122.4 576.373 122.4C573.213 122.4 570.993 120.14 570.993 116.96C570.993 113.76 573.213 111.5 576.373 111.5ZM576.373 121.02C578.613 121.02 580.233 119.3 580.233 116.96C580.233 114.6 578.613 112.9 576.373 112.9C574.133 112.9 572.513 114.6 572.513 116.96C572.513 119.3 574.133 121.02 576.373 121.02ZM592.686 122H591.166V120.58C590.486 121.7 589.106 122.4 587.706 122.4C585.126 122.4 583.546 120.52 583.546 117.94V111.9H585.066V117.94C585.066 119.72 586.086 121.02 587.886 121.02C589.646 121.02 591.166 119.66 591.166 117.82V111.9H592.686V122ZM595.256 111.9H596.776V113.32C597.476 112.2 598.836 111.5 600.236 111.5C602.816 111.5 604.396 113.38 604.396 115.96V122H602.876V115.96C602.876 114.18 601.856 112.9 600.076 112.9C598.316 112.9 596.776 114.24 596.776 116.1V122H595.256V111.9ZM607.625 119.5V113.16H605.965V111.9H607.685L607.905 109.54H609.145V111.9H611.765V113.16H609.145V119.44C609.145 120.42 609.745 121.08 610.705 121.1C611.025 121.1 611.545 121.02 611.925 120.9V122.16C611.465 122.3 610.825 122.4 610.325 122.4C608.665 122.4 607.625 121.24 607.625 119.5ZM612.339 122H622.339V123.3H612.339V122ZM623.559 111.9H625.079V122H623.559V111.9ZM624.319 110.04C623.699 110.04 623.279 109.6 623.279 109C623.279 108.4 623.699 107.98 624.319 107.98C624.919 107.98 625.359 108.4 625.359 109C625.359 109.6 624.919 110.04 624.319 110.04ZM632.695 112.98C630.455 112.98 628.835 114.66 628.835 116.96C628.835 119.28 630.475 120.92 632.695 120.92C634.935 120.92 636.555 119.24 636.555 116.96C636.555 114.66 634.935 112.98 632.695 112.98ZM627.315 116.96C627.315 113.8 629.515 111.5 632.535 111.5C634.235 111.5 635.655 112.3 636.515 113.6V107.3H638.035V122H636.555V120.26C635.695 121.58 634.255 122.4 632.535 122.4C629.515 122.4 627.315 120.1 627.315 116.96ZM651.708 110.3H649.428V115.38H651.708C653.548 115.38 654.828 114.32 654.828 112.84C654.828 111.34 653.548 110.3 651.708 110.3ZM652.308 117.92H649.428V122H646.188V107.76H652.348C655.788 107.76 658.188 109.86 658.188 112.84C658.188 115.84 655.788 117.92 652.308 117.92ZM659.963 122V107.76H663.323V113.44L668.063 107.76H672.123L666.303 114.48L672.243 122H668.163L663.323 115.62V122H659.963Z" fill="black"/>
<path d="M283.4 147.02C285.62 147.02 287.26 145.3 287.26 142.96C287.26 140.6 285.62 138.9 283.4 138.9C281.16 138.9 279.54 140.6 279.54 142.96C279.54 145.3 281.16 147.02 283.4 147.02ZM287.28 139.7V137.9H288.8V148H287.28V146.22C286.42 147.56 284.96 148.4 283.22 148.4C280.2 148.4 278.02 146.1 278.02 142.96C278.02 139.8 280.2 137.5 283.22 137.5C284.96 137.5 286.42 138.34 287.28 139.7ZM296.059 137.5C298.499 137.5 300.559 139.06 300.939 141.2L299.459 141.4C299.079 139.92 297.659 138.84 296.059 138.84C293.939 138.84 292.319 140.58 292.319 142.96C292.319 145.34 293.919 147.06 296.059 147.06C297.699 147.06 299.059 146 299.459 144.56L300.959 144.76C300.499 146.88 298.439 148.4 296.059 148.4C292.999 148.4 290.799 146.12 290.799 142.96C290.799 139.8 293.019 137.5 296.059 137.5ZM307.666 137.5C310.106 137.5 312.166 139.06 312.546 141.2L311.066 141.4C310.686 139.92 309.266 138.84 307.666 138.84C305.546 138.84 303.926 140.58 303.926 142.96C303.926 145.34 305.526 147.06 307.666 147.06C309.306 147.06 310.666 146 311.066 144.56L312.566 144.76C312.106 146.88 310.046 148.4 307.666 148.4C304.606 148.4 302.406 146.12 302.406 142.96C302.406 139.8 304.626 137.5 307.666 137.5ZM319.373 137.5C322.533 137.5 324.773 139.76 324.773 142.96C324.773 146.14 322.533 148.4 319.373 148.4C316.213 148.4 313.993 146.14 313.993 142.96C313.993 139.76 316.213 137.5 319.373 137.5ZM319.373 147.02C321.613 147.02 323.233 145.3 323.233 142.96C323.233 140.6 321.613 138.9 319.373 138.9C317.133 138.9 315.513 140.6 315.513 142.96C315.513 145.3 317.133 147.02 319.373 147.02ZM335.686 148H334.166V146.58C333.486 147.7 332.106 148.4 330.706 148.4C328.126 148.4 326.546 146.52 326.546 143.94V137.9H328.066V143.94C328.066 145.72 329.086 147.02 330.886 147.02C332.646 147.02 334.166 145.66 334.166 143.82V137.9H335.686V148ZM338.256 137.9H339.776V139.32C340.476 138.2 341.836 137.5 343.236 137.5C345.816 137.5 347.396 139.38 347.396 141.96V148H345.876V141.96C345.876 140.18 344.856 138.9 343.076 138.9C341.316 138.9 339.776 140.24 339.776 142.1V148H338.256V137.9ZM350.625 145.5V139.16H348.965V137.9H350.685L350.905 135.54H352.145V137.9H354.765V139.16H352.145V145.44C352.145 146.42 352.745 147.08 353.705 147.1C354.025 147.1 354.545 147.02 354.925 146.9V148.16C354.465 148.3 353.825 148.4 353.325 148.4C351.665 148.4 350.625 147.24 350.625 145.5ZM355.339 148H365.339V149.3H355.339V148ZM366.559 137.9H368.079V148H366.559V137.9ZM367.319 136.04C366.699 136.04 366.279 135.6 366.279 135C366.279 134.4 366.699 133.98 367.319 133.98C367.919 133.98 368.359 134.4 368.359 135C368.359 135.6 367.919 136.04 367.319 136.04ZM375.695 138.98C373.455 138.98 371.835 140.66 371.835 142.96C371.835 145.28 373.475 146.92 375.695 146.92C377.935 146.92 379.555 145.24 379.555 142.96C379.555 140.66 377.935 138.98 375.695 138.98ZM370.315 142.96C370.315 139.8 372.515 137.5 375.535 137.5C377.235 137.5 378.655 138.3 379.515 139.6V133.3H381.035V148H379.555V146.26C378.695 147.58 377.255 148.4 375.535 148.4C372.515 148.4 370.315 146.1 370.315 142.96Z" fill="black"/>
<path d="M392.888 133.76L398.608 143.94V133.76H401.808V148H398.108L392.368 137.84V148H389.188V133.76H392.888ZM409.308 137.36C412.688 137.36 415.008 139.6 415.008 142.88C415.008 146.14 412.688 148.4 409.308 148.4C405.948 148.4 403.628 146.14 403.628 142.88C403.628 139.6 405.948 137.36 409.308 137.36ZM409.308 145.76C410.888 145.76 411.988 144.56 411.988 142.88C411.988 141.2 410.888 140 409.308 140C407.748 140 406.648 141.2 406.648 142.88C406.648 144.56 407.748 145.76 409.308 145.76ZM416.535 137.76H419.455V139.14C420.175 138.04 421.375 137.36 422.715 137.36C425.015 137.36 426.575 139.14 426.575 141.6V148H423.575V142.12C423.575 140.88 422.855 140 421.675 140C420.495 140 419.535 140.94 419.535 142.24V148H416.535V137.76ZM427.917 140.56H436.117V143.02H427.917V140.56ZM444.999 145.62C446.799 145.62 448.419 144.38 448.859 142.68L451.999 143.1C451.519 146.24 448.559 148.5 444.919 148.5C440.519 148.5 437.319 145.3 437.319 140.88C437.319 136.46 440.519 133.26 444.919 133.26C448.519 133.26 451.479 135.58 451.999 138.8L448.839 139.16C448.439 137.4 446.839 136.14 444.999 136.14C442.459 136.14 440.679 138.1 440.679 140.88C440.679 143.66 442.479 145.62 444.999 145.62ZM454.441 144.68V140.04H453.001V137.76H454.581L454.921 135.18H457.441V137.76H459.761V140.04H457.441V144.38C457.441 145.24 457.961 145.82 458.801 145.82C459.081 145.82 459.521 145.76 459.861 145.66V148.08C459.241 148.28 458.441 148.4 457.801 148.4C455.761 148.4 454.441 146.86 454.441 144.68ZM464.301 148H460.661L464.161 142.68L460.821 137.76H464.381L466.421 141.02L468.461 137.76H472.021L468.681 142.68L472.201 148H468.541L466.421 144.42L464.301 148ZM474.217 144.68V140.04H472.777V137.76H474.357L474.697 135.18H477.217V137.76H479.537V140.04H477.217V144.38C477.217 145.24 477.737 145.82 478.577 145.82C478.857 145.82 479.297 145.76 479.637 145.66V148.08C479.017 148.28 478.217 148.4 477.577 148.4C475.537 148.4 474.217 146.86 474.217 144.68ZM495.57 142.9H490.41V148H487.05V133.76H496.75V136.64H490.41V140.34H495.57V142.9ZM498.403 148V133.76H501.763V139.44L506.503 133.76H510.563L504.743 140.48L510.683 148H506.603L501.763 141.62V148H498.403Z" fill="#6485FC"/>
<path d="M540.4 146.02C542.62 146.02 544.26 144.3 544.26 141.96C544.26 139.6 542.62 137.9 540.4 137.9C538.16 137.9 536.54 139.6 536.54 141.96C536.54 144.3 538.16 146.02 540.4 146.02ZM544.28 138.7V136.9H545.8V147H544.28V145.22C543.42 146.56 541.96 147.4 540.22 147.4C537.2 147.4 535.02 145.1 535.02 141.96C535.02 138.8 537.2 136.5 540.22 136.5C541.96 136.5 543.42 137.34 544.28 138.7ZM553.059 136.5C555.499 136.5 557.559 138.06 557.939 140.2L556.459 140.4C556.079 138.92 554.659 137.84 553.059 137.84C550.939 137.84 549.319 139.58 549.319 141.96C549.319 144.34 550.919 146.06 553.059 146.06C554.699 146.06 556.059 145 556.459 143.56L557.959 143.76C557.499 145.88 555.439 147.4 553.059 147.4C549.999 147.4 547.799 145.12 547.799 141.96C547.799 138.8 550.019 136.5 553.059 136.5ZM564.666 136.5C567.106 136.5 569.166 138.06 569.546 140.2L568.066 140.4C567.686 138.92 566.266 137.84 564.666 137.84C562.546 137.84 560.926 139.58 560.926 141.96C560.926 144.34 562.526 146.06 564.666 146.06C566.306 146.06 567.666 145 568.066 143.56L569.566 143.76C569.106 145.88 567.046 147.4 564.666 147.4C561.606 147.4 559.406 145.12 559.406 141.96C559.406 138.8 561.626 136.5 564.666 136.5ZM576.373 136.5C579.533 136.5 581.773 138.76 581.773 141.96C581.773 145.14 579.533 147.4 576.373 147.4C573.213 147.4 570.993 145.14 570.993 141.96C570.993 138.76 573.213 136.5 576.373 136.5ZM576.373 146.02C578.613 146.02 580.233 144.3 580.233 141.96C580.233 139.6 578.613 137.9 576.373 137.9C574.133 137.9 572.513 139.6 572.513 141.96C572.513 144.3 574.133 146.02 576.373 146.02ZM592.686 147H591.166V145.58C590.486 146.7 589.106 147.4 587.706 147.4C585.126 147.4 583.546 145.52 583.546 142.94V136.9H585.066V142.94C585.066 144.72 586.086 146.02 587.886 146.02C589.646 146.02 591.166 144.66 591.166 142.82V136.9H592.686V147ZM595.256 136.9H596.776V138.32C597.476 137.2 598.836 136.5 600.236 136.5C602.816 136.5 604.396 138.38 604.396 140.96V147H602.876V140.96C602.876 139.18 601.856 137.9 600.076 137.9C598.316 137.9 596.776 139.24 596.776 141.1V147H595.256V136.9ZM607.625 144.5V138.16H605.965V136.9H607.685L607.905 134.54H609.145V136.9H611.765V138.16H609.145V144.44C609.145 145.42 609.745 146.08 610.705 146.1C611.025 146.1 611.545 146.02 611.925 145.9V147.16C611.465 147.3 610.825 147.4 610.325 147.4C608.665 147.4 607.625 146.24 607.625 144.5ZM612.339 147H622.339V148.3H612.339V147ZM623.574 144.5V138.16H621.914V136.9H623.634L623.854 134.54H625.094V136.9H627.714V138.16H625.094V144.44C625.094 145.42 625.694 146.08 626.654 146.1C626.974 146.1 627.494 146.02 627.874 145.9V147.16C627.414 147.3 626.774 147.4 626.274 147.4C624.614 147.4 623.574 146.24 623.574 144.5ZM629.567 151.16V149.82C630.027 149.98 630.527 150.1 630.907 150.1C632.387 150.1 632.827 148.5 633.487 146.98L628.947 136.9H630.627L634.227 145.1L637.387 136.9H639.007L634.987 147.14C634.067 149.44 633.247 151.46 631.127 151.46C630.627 151.46 630.027 151.34 629.567 151.16ZM645.994 145.92C648.234 145.92 649.854 144.24 649.854 141.96C649.854 139.62 648.214 137.98 645.994 137.98C643.754 137.98 642.134 139.66 642.134 141.96C642.134 144.24 643.754 145.92 645.994 145.92ZM651.374 141.96C651.374 145.1 649.194 147.4 646.174 147.4C644.454 147.4 643.034 146.62 642.174 145.3V151.6H640.654V136.9H642.134V138.64C642.994 137.32 644.434 136.5 646.174 136.5C649.174 136.5 651.374 138.8 651.374 141.96ZM654.415 141.12L661.875 141.14C661.595 139.22 660.115 137.9 658.115 137.9C656.155 137.9 654.695 139.22 654.415 141.12ZM652.815 141.84C652.815 138.76 655.055 136.5 658.175 136.5C661.255 136.5 663.475 138.76 663.475 141.86C663.475 142.04 663.475 142.24 663.455 142.46L654.375 142.44C654.615 144.56 656.135 146.02 658.135 146.02C659.695 146.02 661.175 145.06 661.635 143.74L663.135 143.98C662.515 145.96 660.435 147.4 658.195 147.4C655.075 147.4 652.815 145.06 652.815 141.84Z" fill="black"/>
<path d="M540.4 172.02C542.62 172.02 544.26 170.3 544.26 167.96C544.26 165.6 542.62 163.9 540.4 163.9C538.16 163.9 536.54 165.6 536.54 167.96C536.54 170.3 538.16 172.02 540.4 172.02ZM544.28 164.7V162.9H545.8V173H544.28V171.22C543.42 172.56 541.96 173.4 540.22 173.4C537.2 173.4 535.02 171.1 535.02 167.96C535.02 164.8 537.2 162.5 540.22 162.5C541.96 162.5 543.42 163.34 544.28 164.7ZM553.059 162.5C555.499 162.5 557.559 164.06 557.939 166.2L556.459 166.4C556.079 164.92 554.659 163.84 553.059 163.84C550.939 163.84 549.319 165.58 549.319 167.96C549.319 170.34 550.919 172.06 553.059 172.06C554.699 172.06 556.059 171 556.459 169.56L557.959 169.76C557.499 171.88 555.439 173.4 553.059 173.4C549.999 173.4 547.799 171.12 547.799 167.96C547.799 164.8 550.019 162.5 553.059 162.5ZM564.666 162.5C567.106 162.5 569.166 164.06 569.546 166.2L568.066 166.4C567.686 164.92 566.266 163.84 564.666 163.84C562.546 163.84 560.926 165.58 560.926 167.96C560.926 170.34 562.526 172.06 564.666 172.06C566.306 172.06 567.666 171 568.066 169.56L569.566 169.76C569.106 171.88 567.046 173.4 564.666 173.4C561.606 173.4 559.406 171.12 559.406 167.96C559.406 164.8 561.626 162.5 564.666 162.5ZM576.373 162.5C579.533 162.5 581.773 164.76 581.773 167.96C581.773 171.14 579.533 173.4 576.373 173.4C573.213 173.4 570.993 171.14 570.993 167.96C570.993 164.76 573.213 162.5 576.373 162.5ZM576.373 172.02C578.613 172.02 580.233 170.3 580.233 167.96C580.233 165.6 578.613 163.9 576.373 163.9C574.133 163.9 572.513 165.6 572.513 167.96C572.513 170.3 574.133 172.02 576.373 172.02ZM592.686 173H591.166V171.58C590.486 172.7 589.106 173.4 587.706 173.4C585.126 173.4 583.546 171.52 583.546 168.94V162.9H585.066V168.94C585.066 170.72 586.086 172.02 587.886 172.02C589.646 172.02 591.166 170.66 591.166 168.82V162.9H592.686V173ZM595.256 162.9H596.776V164.32C597.476 163.2 598.836 162.5 600.236 162.5C602.816 162.5 604.396 164.38 604.396 166.96V173H602.876V166.96C602.876 165.18 601.856 163.9 600.076 163.9C598.316 163.9 596.776 165.24 596.776 167.1V173H595.256V162.9ZM607.625 170.5V164.16H605.965V162.9H607.685L607.905 160.54H609.145V162.9H611.765V164.16H609.145V170.44C609.145 171.42 609.745 172.08 610.705 172.1C611.025 172.1 611.545 172.02 611.925 171.9V173.16C611.465 173.3 610.825 173.4 610.325 173.4C608.665 173.4 607.625 172.24 607.625 170.5ZM612.339 173H622.339V174.3H612.339V173ZM628.139 163.98C625.899 163.98 624.279 165.66 624.279 167.96C624.279 170.28 625.919 171.92 628.139 171.92C630.379 171.92 631.999 170.24 631.999 167.96C631.999 165.66 630.379 163.98 628.139 163.98ZM622.759 167.96C622.759 164.8 624.959 162.5 627.979 162.5C629.679 162.5 631.099 163.3 631.959 164.6V158.3H633.479V173H631.999V171.26C631.139 172.58 629.699 173.4 627.979 173.4C624.959 173.4 622.759 171.1 622.759 167.96ZM640.859 172.02C643.079 172.02 644.719 170.3 644.719 167.96C644.719 165.6 643.079 163.9 640.859 163.9C638.619 163.9 636.999 165.6 636.999 167.96C636.999 170.3 638.619 172.02 640.859 172.02ZM644.739 164.7V162.9H646.259V173H644.739V171.22C643.879 172.56 642.419 173.4 640.679 173.4C637.659 173.4 635.479 171.1 635.479 167.96C635.479 164.8 637.659 162.5 640.679 162.5C642.419 162.5 643.879 163.34 644.739 164.7ZM649.678 170.5V164.16H648.018V162.9H649.738L649.958 160.54H651.198V162.9H653.818V164.16H651.198V170.44C651.198 171.42 651.798 172.08 652.758 172.1C653.078 172.1 653.598 172.02 653.978 171.9V173.16C653.518 173.3 652.878 173.4 652.378 173.4C650.718 173.4 649.678 172.24 649.678 170.5ZM657.012 167.12L664.472 167.14C664.192 165.22 662.712 163.9 660.712 163.9C658.752 163.9 657.292 165.22 657.012 167.12ZM655.412 167.84C655.412 164.76 657.652 162.5 660.772 162.5C663.852 162.5 666.072 164.76 666.072 167.86C666.072 168.04 666.072 168.24 666.052 168.46L656.972 168.44C657.212 170.56 658.732 172.02 660.732 172.02C662.292 172.02 663.772 171.06 664.232 169.74L665.732 169.98C665.112 171.96 663.032 173.4 660.792 173.4C657.672 173.4 655.412 171.06 655.412 167.84Z" fill="black"/>
<path d="M540.4 198.02C542.62 198.02 544.26 196.3 544.26 193.96C544.26 191.6 542.62 189.9 540.4 189.9C538.16 189.9 536.54 191.6 536.54 193.96C536.54 196.3 538.16 198.02 540.4 198.02ZM544.28 190.7V188.9H545.8V199H544.28V197.22C543.42 198.56 541.96 199.4 540.22 199.4C537.2 199.4 535.02 197.1 535.02 193.96C535.02 190.8 537.2 188.5 540.22 188.5C541.96 188.5 543.42 189.34 544.28 190.7ZM553.059 188.5C555.499 188.5 557.559 190.06 557.939 192.2L556.459 192.4C556.079 190.92 554.659 189.84 553.059 189.84C550.939 189.84 549.319 191.58 549.319 193.96C549.319 196.34 550.919 198.06 553.059 198.06C554.699 198.06 556.059 197 556.459 195.56L557.959 195.76C557.499 197.88 555.439 199.4 553.059 199.4C549.999 199.4 547.799 197.12 547.799 193.96C547.799 190.8 550.019 188.5 553.059 188.5ZM564.666 188.5C567.106 188.5 569.166 190.06 569.546 192.2L568.066 192.4C567.686 190.92 566.266 189.84 564.666 189.84C562.546 189.84 560.926 191.58 560.926 193.96C560.926 196.34 562.526 198.06 564.666 198.06C566.306 198.06 567.666 197 568.066 195.56L569.566 195.76C569.106 197.88 567.046 199.4 564.666 199.4C561.606 199.4 559.406 197.12 559.406 193.96C559.406 190.8 561.626 188.5 564.666 188.5ZM576.373 188.5C579.533 188.5 581.773 190.76 581.773 193.96C581.773 197.14 579.533 199.4 576.373 199.4C573.213 199.4 570.993 197.14 570.993 193.96C570.993 190.76 573.213 188.5 576.373 188.5ZM576.373 198.02C578.613 198.02 580.233 196.3 580.233 193.96C580.233 191.6 578.613 189.9 576.373 189.9C574.133 189.9 572.513 191.6 572.513 193.96C572.513 196.3 574.133 198.02 576.373 198.02ZM592.686 199H591.166V197.58C590.486 198.7 589.106 199.4 587.706 199.4C585.126 199.4 583.546 197.52 583.546 194.94V188.9H585.066V194.94C585.066 196.72 586.086 198.02 587.886 198.02C589.646 198.02 591.166 196.66 591.166 194.82V188.9H592.686V199ZM595.256 188.9H596.776V190.32C597.476 189.2 598.836 188.5 600.236 188.5C602.816 188.5 604.396 190.38 604.396 192.96V199H602.876V192.96C602.876 191.18 601.856 189.9 600.076 189.9C598.316 189.9 596.776 191.24 596.776 193.1V199H595.256V188.9ZM607.625 196.5V190.16H605.965V188.9H607.685L607.905 186.54H609.145V188.9H611.765V190.16H609.145V196.44C609.145 197.42 609.745 198.08 610.705 198.1C611.025 198.1 611.545 198.02 611.925 197.9V199.16C611.465 199.3 610.825 199.4 610.325 199.4C608.665 199.4 607.625 198.24 607.625 196.5ZM612.339 199H622.339V200.3H612.339V199ZM628.659 189.98C626.419 189.98 624.799 191.66 624.799 193.96C624.799 196.24 626.419 197.92 628.659 197.92C630.879 197.92 632.519 196.28 632.519 193.96C632.519 191.66 630.899 189.98 628.659 189.98ZM634.039 193.96C634.039 197.1 631.839 199.4 628.839 199.4C627.099 199.4 625.659 198.58 624.799 197.26V199H623.319V184.3H624.839V190.6C625.699 189.3 627.119 188.5 628.839 188.5C631.859 188.5 634.039 190.8 634.039 193.96ZM640.859 198.02C643.079 198.02 644.719 196.3 644.719 193.96C644.719 191.6 643.079 189.9 640.859 189.9C638.619 189.9 636.999 191.6 636.999 193.96C636.999 196.3 638.619 198.02 640.859 198.02ZM644.739 190.7V188.9H646.259V199H644.739V197.22C643.879 198.56 642.419 199.4 640.679 199.4C637.659 199.4 635.479 197.1 635.479 193.96C635.479 190.8 637.659 188.5 640.679 188.5C642.419 188.5 643.879 189.34 644.739 190.7ZM648.798 184.3H650.338V199H648.798V184.3ZM657.706 198.02C659.926 198.02 661.566 196.3 661.566 193.96C661.566 191.6 659.926 189.9 657.706 189.9C655.466 189.9 653.846 191.6 653.846 193.96C653.846 196.3 655.466 198.02 657.706 198.02ZM661.586 190.7V188.9H663.106V199H661.586V197.22C660.726 198.56 659.266 199.4 657.526 199.4C654.506 199.4 652.326 197.1 652.326 193.96C652.326 190.8 654.506 188.5 657.526 188.5C659.266 188.5 660.726 189.34 661.586 190.7ZM665.665 188.9H667.185V190.32C667.885 189.2 669.245 188.5 670.645 188.5C673.225 188.5 674.805 190.38 674.805 192.96V199H673.285V192.96C673.285 191.18 672.265 189.9 670.485 189.9C668.725 189.9 667.185 191.24 667.185 193.1V199H665.665V188.9ZM681.875 188.5C684.315 188.5 686.375 190.06 686.755 192.2L685.275 192.4C684.895 190.92 683.475 189.84 681.875 189.84C679.755 189.84 678.135 191.58 678.135 193.96C678.135 196.34 679.735 198.06 681.875 198.06C683.515 198.06 684.875 197 685.275 195.56L686.775 195.76C686.315 197.88 684.255 199.4 681.875 199.4C678.815 199.4 676.615 197.12 676.615 193.96C676.615 190.8 678.835 188.5 681.875 188.5ZM689.822 193.12L697.282 193.14C697.002 191.22 695.522 189.9 693.522 189.9C691.562 189.9 690.102 191.22 689.822 193.12ZM688.222 193.84C688.222 190.76 690.462 188.5 693.582 188.5C696.662 188.5 698.882 190.76 698.882 193.86C698.882 194.04 698.882 194.24 698.862 194.46L689.782 194.44C690.022 196.56 691.542 198.02 693.542 198.02C695.102 198.02 696.582 197.06 697.042 195.74L698.542 195.98C697.922 197.96 695.842 199.4 693.602 199.4C690.482 199.4 688.222 197.06 688.222 193.84Z" fill="black"/>
<path d="M278.56 159.3H280.1V174H278.56V159.3ZM287.448 163.5C290.608 163.5 292.848 165.76 292.848 168.96C292.848 172.14 290.608 174.4 287.448 174.4C284.288 174.4 282.068 172.14 282.068 168.96C282.068 165.76 284.288 163.5 287.448 163.5ZM287.448 173.02C289.688 173.02 291.308 171.3 291.308 168.96C291.308 166.6 289.688 164.9 287.448 164.9C285.208 164.9 283.588 166.6 283.588 168.96C283.588 171.3 285.208 173.02 287.448 173.02ZM299.641 172.9C301.881 172.9 303.501 171.24 303.501 168.96C303.501 166.6 301.881 164.9 299.641 164.9C297.401 164.9 295.781 166.6 295.781 168.96C295.781 171.24 297.421 172.9 299.641 172.9ZM299.741 177.62C301.901 177.62 303.461 176.22 303.461 173.84V172.24C302.581 173.52 301.181 174.28 299.481 174.28C296.461 174.28 294.261 172.04 294.261 168.96C294.261 165.82 296.461 163.54 299.481 163.54C301.221 163.54 302.601 164.32 303.461 165.58V163.9H304.981V173.84C304.981 177.08 302.801 179 299.801 179C297.181 179 295.001 177.34 294.641 175.04L296.101 174.84C296.441 176.46 297.981 177.62 299.741 177.62ZM307.782 163.9H309.302V174H307.782V163.9ZM308.542 162.04C307.922 162.04 307.502 161.6 307.502 161C307.502 160.4 307.922 159.98 308.542 159.98C309.142 159.98 309.582 160.4 309.582 161C309.582 161.6 309.142 162.04 308.542 162.04ZM312.098 163.9H313.618V165.32C314.318 164.2 315.678 163.5 317.078 163.5C319.658 163.5 321.238 165.38 321.238 167.96V174H319.718V167.96C319.718 166.18 318.698 164.9 316.918 164.9C315.158 164.9 313.618 166.24 313.618 168.1V174H312.098V163.9ZM322.027 174H332.027V175.3H322.027V174ZM333.247 163.9H334.767V174H333.247V163.9ZM334.007 162.04C333.387 162.04 332.967 161.6 332.967 161C332.967 160.4 333.387 159.98 334.007 159.98C334.607 159.98 335.047 160.4 335.047 161C335.047 161.6 334.607 162.04 334.007 162.04ZM342.384 164.98C340.144 164.98 338.524 166.66 338.524 168.96C338.524 171.28 340.164 172.92 342.384 172.92C344.624 172.92 346.244 171.24 346.244 168.96C346.244 166.66 344.624 164.98 342.384 164.98ZM337.004 168.96C337.004 165.8 339.204 163.5 342.224 163.5C343.924 163.5 345.344 164.3 346.204 165.6V159.3H347.724V174H346.244V172.26C345.384 173.58 343.944 174.4 342.224 174.4C339.204 174.4 337.004 172.1 337.004 168.96ZM361.396 162.3H359.116V167.38H361.396C363.236 167.38 364.516 166.32 364.516 164.84C364.516 163.34 363.236 162.3 361.396 162.3ZM361.996 169.92H359.116V174H355.876V159.76H362.036C365.476 159.76 367.876 161.86 367.876 164.84C367.876 167.84 365.476 169.92 361.996 169.92ZM369.651 174V159.76H373.011V165.44L377.751 159.76H381.811L375.991 166.48L381.931 174H377.851L373.011 167.62V174H369.651Z" fill="black"/>
<path d="M278.56 184.3H280.1V199H278.56V184.3ZM287.448 188.5C290.608 188.5 292.848 190.76 292.848 193.96C292.848 197.14 290.608 199.4 287.448 199.4C284.288 199.4 282.068 197.14 282.068 193.96C282.068 190.76 284.288 188.5 287.448 188.5ZM287.448 198.02C289.688 198.02 291.308 196.3 291.308 193.96C291.308 191.6 289.688 189.9 287.448 189.9C285.208 189.9 283.588 191.6 283.588 193.96C283.588 196.3 285.208 198.02 287.448 198.02ZM299.641 197.9C301.881 197.9 303.501 196.24 303.501 193.96C303.501 191.6 301.881 189.9 299.641 189.9C297.401 189.9 295.781 191.6 295.781 193.96C295.781 196.24 297.421 197.9 299.641 197.9ZM299.741 202.62C301.901 202.62 303.461 201.22 303.461 198.84V197.24C302.581 198.52 301.181 199.28 299.481 199.28C296.461 199.28 294.261 197.04 294.261 193.96C294.261 190.82 296.461 188.54 299.481 188.54C301.221 188.54 302.601 189.32 303.461 190.58V188.9H304.981V198.84C304.981 202.08 302.801 204 299.801 204C297.181 204 295.001 202.34 294.641 200.04L296.101 199.84C296.441 201.46 297.981 202.62 299.741 202.62ZM307.782 188.9H309.302V199H307.782V188.9ZM308.542 187.04C307.922 187.04 307.502 186.6 307.502 186C307.502 185.4 307.922 184.98 308.542 184.98C309.142 184.98 309.582 185.4 309.582 186C309.582 186.6 309.142 187.04 308.542 187.04ZM312.098 188.9H313.618V190.32C314.318 189.2 315.678 188.5 317.078 188.5C319.658 188.5 321.238 190.38 321.238 192.96V199H319.718V192.96C319.718 191.18 318.698 189.9 316.918 189.9C315.158 189.9 313.618 191.24 313.618 193.1V199H312.098V188.9ZM322.027 199H332.027V200.3H322.027V199ZM337.827 189.98C335.587 189.98 333.967 191.66 333.967 193.96C333.967 196.28 335.607 197.92 337.827 197.92C340.067 197.92 341.687 196.24 341.687 193.96C341.687 191.66 340.067 189.98 337.827 189.98ZM332.447 193.96C332.447 190.8 334.647 188.5 337.667 188.5C339.367 188.5 340.787 189.3 341.647 190.6V184.3H343.167V199H341.687V197.26C340.827 198.58 339.387 199.4 337.667 199.4C334.647 199.4 332.447 197.1 332.447 193.96ZM350.548 198.02C352.768 198.02 354.408 196.3 354.408 193.96C354.408 191.6 352.768 189.9 350.548 189.9C348.308 189.9 346.688 191.6 346.688 193.96C346.688 196.3 348.308 198.02 350.548 198.02ZM354.428 190.7V188.9H355.948V199H354.428V197.22C353.568 198.56 352.108 199.4 350.368 199.4C347.348 199.4 345.168 197.1 345.168 193.96C345.168 190.8 347.348 188.5 350.368 188.5C352.108 188.5 353.568 189.34 354.428 190.7ZM359.367 196.5V190.16H357.707V188.9H359.427L359.647 186.54H360.887V188.9H363.507V190.16H360.887V196.44C360.887 197.42 361.487 198.08 362.447 198.1C362.767 198.1 363.287 198.02 363.667 197.9V199.16C363.207 199.3 362.567 199.4 362.067 199.4C360.407 199.4 359.367 198.24 359.367 196.5ZM366.7 193.12L374.16 193.14C373.88 191.22 372.4 189.9 370.4 189.9C368.44 189.9 366.98 191.22 366.7 193.12ZM365.1 193.84C365.1 190.76 367.34 188.5 370.46 188.5C373.54 188.5 375.76 190.76 375.76 193.86C375.76 194.04 375.76 194.24 375.74 194.46L366.66 194.44C366.9 196.56 368.42 198.02 370.42 198.02C371.98 198.02 373.46 197.06 373.92 195.74L375.42 195.98C374.8 197.96 372.72 199.4 370.48 199.4C367.36 199.4 365.1 197.06 365.1 193.84Z" fill="black"/>
<path d="M217.939 44.9393C217.354 45.5251 217.354 46.4749 217.939 47.0607L227.485 56.6066C228.071 57.1924 229.021 57.1924 229.607 56.6066C230.192 56.0208 230.192 55.0711 229.607 54.4853L221.121 46L229.607 37.5147C230.192 36.9289 230.192 35.9792 229.607 35.3934C229.021 34.8076 228.071 34.8076 227.485 35.3934L217.939 44.9393ZM274 44.5L219 44.5V47.5L274 47.5V44.5Z" fill="#717171"/>
<path d="M515.061 46.0607C515.646 45.4749 515.646 44.5251 515.061 43.9393L505.515 34.3934C504.929 33.8076 503.979 33.8076 503.393 34.3934C502.808 34.9792 502.808 35.9289 503.393 36.5147L511.879 45L503.393 53.4853C502.808 54.0711 502.808 55.0208 503.393 55.6066C503.979 56.1924 504.929 56.1924 505.515 55.6066L515.061 46.0607ZM514 43.5L512.036 43.5L512.036 46.5L514 46.5L514 43.5ZM508.107 43.5L504.179 43.5L504.179 46.5L508.107 46.5L508.107 43.5ZM500.25 43.5L496.321 43.5L496.321 46.5L500.25 46.5L500.25 43.5ZM492.393 43.5L488.464 43.5L488.464 46.5L492.393 46.5L492.393 43.5ZM484.536 43.5L480.607 43.5L480.607 46.5L484.536 46.5L484.536 43.5ZM476.679 43.5L472.75 43.5L472.75 46.5L476.679 46.5L476.679 43.5ZM468.821 43.5L464.893 43.5L464.893 46.5L468.821 46.5L468.821 43.5ZM460.964 43.5L459 43.5L459 46.5L460.964 46.5L460.964 43.5ZM515.061 46.0607C515.646 45.4749 515.646 44.5251 515.061 43.9393L505.515 34.3934C504.929 33.8076 503.979 33.8076 503.393 34.3934C502.808 34.9792 502.808 35.9289 503.393 36.5147L511.879 45L503.393 53.4853C502.808 54.0711 502.808 55.0208 503.393 55.6066C503.979 56.1924 504.929 56.1924 505.515 55.6066L515.061 46.0607ZM514 43.5L512.036 43.5L512.036 46.5L514 46.5L514 43.5ZM508.107 43.5L504.179 43.5L504.179 46.5L508.107 46.5L508.107 43.5ZM500.25 43.5L496.321 43.5L496.321 46.5L500.25 46.5L500.25 43.5ZM492.393 43.5L488.464 43.5L488.464 46.5L492.393 46.5L492.393 43.5ZM484.536 43.5L480.607 43.5L480.607 46.5L484.536 46.5L484.536 43.5ZM476.679 43.5L472.75 43.5L472.75 46.5L476.679 46.5L476.679 43.5ZM468.821 43.5L464.893 43.5L464.893 46.5L468.821 46.5L468.821 43.5ZM460.964 43.5L459 43.5L459 46.5L460.964 46.5L460.964 43.5Z" fill="#6485FC"/>
<path d="M36.06 147.24C35.44 147.24 35.02 146.82 35.02 146.2C35.02 145.62 35.44 145.18 36.06 145.18C36.66 145.18 37.1 145.62 37.1 146.2C37.1 146.82 36.66 147.24 36.06 147.24ZM39.5811 147.24C38.9611 147.24 38.5411 146.82 38.5411 146.2C38.5411 145.62 38.9611 145.18 39.5811 145.18C40.1811 145.18 40.6211 145.62 40.6211 146.2C40.6211 146.82 40.1811 147.24 39.5811 147.24ZM43.1022 147.24C42.4822 147.24 42.0622 146.82 42.0622 146.2C42.0622 145.62 42.4822 145.18 43.1022 145.18C43.7022 145.18 44.1422 145.62 44.1422 146.2C44.1422 146.82 43.7022 147.24 43.1022 147.24Z" fill="black"/>
<path d="M279.06 225.24C278.44 225.24 278.02 224.82 278.02 224.2C278.02 223.62 278.44 223.18 279.06 223.18C279.66 223.18 280.1 223.62 280.1 224.2C280.1 224.82 279.66 225.24 279.06 225.24ZM282.581 225.24C281.961 225.24 281.541 224.82 281.541 224.2C281.541 223.62 281.961 223.18 282.581 223.18C283.181 223.18 283.621 223.62 283.621 224.2C283.621 224.82 283.181 225.24 282.581 225.24ZM286.102 225.24C285.482 225.24 285.062 224.82 285.062 224.2C285.062 223.62 285.482 223.18 286.102 223.18C286.702 223.18 287.142 223.62 287.142 224.2C287.142 224.82 286.702 225.24 286.102 225.24Z" fill="black"/>
<path d="M539.06 225.24C538.44 225.24 538.02 224.82 538.02 224.2C538.02 223.62 538.44 223.18 539.06 223.18C539.66 223.18 540.1 223.62 540.1 224.2C540.1 224.82 539.66 225.24 539.06 225.24ZM542.581 225.24C541.961 225.24 541.541 224.82 541.541 224.2C541.541 223.62 541.961 223.18 542.581 223.18C543.181 223.18 543.621 223.62 543.621 224.2C543.621 224.82 543.181 225.24 542.581 225.24ZM546.102 225.24C545.482 225.24 545.062 224.82 545.062 224.2C545.062 223.62 545.482 223.18 546.102 223.18C546.702 223.18 547.142 223.62 547.142 224.2C547.142 224.82 546.702 225.24 546.102 225.24Z" fill="black"/>
<path d="M43.675 53.775C46.65 53.775 49.275 51.8 49.975 49.125L52 49.5C51.125 53.025 47.65 55.625 43.675 55.625C38.375 55.625 34.525 51.675 34.525 46.2C34.525 40.725 38.375 36.75 43.675 36.75C47.65 36.75 51.15 39.475 52 43.175L49.95 43.425C49.3 40.675 46.675 38.6 43.675 38.6C39.55 38.6 36.6 41.775 36.6 46.2C36.625 50.6 39.575 53.775 43.675 53.775ZM67.9572 47.85V37.375H70.0322V47.85C70.0322 52.4 67.0822 55.625 62.9072 55.625C58.7072 55.625 55.7572 52.4 55.7572 47.85V37.375H57.8322V47.85C57.8322 51.075 59.8322 53.775 62.9072 53.775C65.9322 53.775 67.9572 51.325 67.9572 47.85ZM88.1328 49.875C88.1328 53.225 85.4828 55.625 81.3328 55.625C77.0078 55.625 73.9078 52.975 73.8828 49.3H75.9578C75.9578 51.9 78.1828 53.775 81.3578 53.775C84.2578 53.775 86.0328 52.25 86.0328 50.125C86.0328 47.775 83.5328 47.425 80.8078 47.075C77.5328 46.625 74.1578 46.1 74.1578 42.175C74.1578 39.05 76.8328 36.75 80.8078 36.75C84.8328 36.75 87.7578 39.25 87.7828 42.725H85.7578C85.7578 40.325 83.6828 38.6 80.8078 38.6C78.0578 38.6 76.2578 40.025 76.2578 42C76.2578 44.35 78.6078 44.725 81.3828 45.1C84.6078 45.55 88.1328 46.075 88.1328 49.875ZM96.2365 55V39.225H90.3365V37.375H104.212V39.225H98.3115V55H96.2365ZM114.85 55.625C109.3 55.625 105.375 51.725 105.375 46.2C105.375 40.675 109.3 36.75 114.85 36.75C120.4 36.75 124.35 40.675 124.35 46.2C124.35 51.725 120.4 55.625 114.85 55.625ZM114.85 38.6C110.55 38.6 107.45 41.775 107.45 46.2C107.45 50.6 110.55 53.75 114.85 53.775C119.175 53.775 122.25 50.6 122.25 46.2C122.25 41.775 119.175 38.6 114.85 38.6ZM130.297 40.05V55H128.222V37.375H131.222L137.647 52.175L144.122 37.375H147.122V55H145.047V40.025L138.497 55H136.822L130.297 40.05ZM153.904 46.75V53.15H164.154V55H151.879V37.375H163.904V39.225H153.904V45H162.904V46.75H153.904ZM175.617 39.225H170.067V46.5H175.617C178.217 46.5 180.067 45.025 180.067 42.925C180.067 40.625 178.217 39.225 175.617 39.225ZM170.067 48.35V55H167.992V37.375H175.767C179.492 37.375 182.142 39.675 182.142 42.925C182.142 45.375 180.342 47.5 177.792 48.05L182.292 55H179.867L175.692 48.35H170.067Z" fill="black"/>
</svg>
