<svg width="287" height="307" viewBox="0 0 287 307" fill="none" xmlns="http://www.w3.org/2000/svg">
<rect x="0.5" y="0.5" width="286" height="89" rx="19.5" fill="#D8FF29" stroke="#ACACAC"/>
<path d="M50.85 122.875C53.9 122.875 56.475 124.825 56.95 127.5L55.1 127.75C54.625 125.9 52.85 124.55 50.85 124.55C48.2 124.55 46.175 126.725 46.175 129.7C46.175 132.675 48.175 134.825 50.85 134.825C52.9 134.825 54.6 133.5 55.1 131.7L56.975 131.95C56.4 134.6 53.825 136.5 50.85 136.5C47.025 136.5 44.275 133.65 44.275 129.7C44.275 125.75 47.05 122.875 50.85 122.875ZM70.6588 136H68.7588V134.225C67.9088 135.625 66.1838 136.5 64.4338 136.5C61.2088 136.5 59.2338 134.15 59.2338 130.925V123.375H61.1338V130.925C61.1338 133.15 62.4088 134.775 64.6588 134.775C66.8588 134.775 68.7588 133.075 68.7588 130.775V123.375H70.6588V136ZM84.1455 132.375C84.1455 134.75 81.9455 136.5 78.9455 136.5C75.6955 136.5 73.3455 134.5 73.3455 131.775H75.2205C75.2205 133.525 76.7705 134.775 78.9205 134.775C80.8705 134.775 82.2955 133.825 82.2955 132.55C82.2705 130.975 80.0705 130.625 78.6955 130.425C75.8205 129.975 73.5955 129.575 73.6205 126.725C73.6205 124.5 75.7205 122.875 78.4455 122.875C81.5705 122.875 83.8455 124.675 83.8705 127.15L81.9955 127.125C81.9705 125.675 80.4705 124.625 78.4205 124.625C76.7955 124.625 75.4705 125.525 75.4705 126.775C75.4705 127.9 76.5205 128.275 78.8205 128.65C81.1455 129.05 84.1205 129.575 84.1455 132.375ZM87.0373 132.875V124.95H84.9623V123.375H87.1123L87.3873 120.425H88.9373V123.375H92.2123V124.95H88.9373V132.8C88.9373 134.025 89.6873 134.85 90.8873 134.875C91.2873 134.875 91.9373 134.775 92.4123 134.625V136.2C91.8373 136.375 91.0373 136.5 90.4123 136.5C88.3373 136.5 87.0373 135.05 87.0373 132.875ZM100.905 122.875C104.855 122.875 107.655 125.7 107.655 129.7C107.655 133.675 104.855 136.5 100.905 136.5C96.9547 136.5 94.1797 133.675 94.1797 129.7C94.1797 125.7 96.9547 122.875 100.905 122.875ZM100.905 134.775C103.705 134.775 105.73 132.625 105.73 129.7C105.73 126.75 103.705 124.625 100.905 124.625C98.1047 124.625 96.0797 126.75 96.0797 129.7C96.0797 132.625 98.1047 134.775 100.905 134.775ZM112.021 136H110.121V123.375H111.971V124.95C112.771 123.65 114.096 122.875 115.721 122.875C117.796 122.875 119.496 123.925 120.196 125.525C120.996 123.925 122.571 122.9 124.571 122.9C127.521 122.9 129.621 125.2 129.621 128.45V136H127.696V128.425C127.696 126.2 126.296 124.625 124.346 124.625C122.246 124.625 120.796 126.2 120.796 128.425V136H118.896V128.425C118.896 126.15 117.571 124.625 115.546 124.625C113.446 124.625 112.021 126.15 112.021 128.425V136ZM133.865 128.65L143.19 128.675C142.84 126.275 140.99 124.625 138.49 124.625C136.04 124.625 134.215 126.275 133.865 128.65ZM131.865 129.55C131.865 125.7 134.665 122.875 138.565 122.875C142.415 122.875 145.19 125.7 145.19 129.575C145.19 129.8 145.19 130.05 145.165 130.325L133.815 130.3C134.115 132.95 136.015 134.775 138.515 134.775C140.465 134.775 142.315 133.575 142.89 131.925L144.765 132.225C143.99 134.7 141.39 136.5 138.59 136.5C134.69 136.5 131.865 133.575 131.865 129.55ZM147.684 123.375H149.534V125.125C150.284 123.75 151.484 122.925 153.034 122.925C153.559 122.925 154.159 123.05 154.734 123.275V125.025C154.084 124.725 153.359 124.625 152.859 124.625C150.884 124.625 149.584 126.4 149.584 128.925V136H147.684V123.375ZM153.04 136H165.54V137.625H153.04V136ZM167.065 123.375H168.965V136H167.065V123.375ZM168.015 121.05C167.24 121.05 166.715 120.5 166.715 119.75C166.715 119 167.24 118.475 168.015 118.475C168.765 118.475 169.315 119 169.315 119.75C169.315 120.5 168.765 121.05 168.015 121.05ZM178.485 124.725C175.685 124.725 173.66 126.825 173.66 129.7C173.66 132.6 175.71 134.65 178.485 134.65C181.285 134.65 183.31 132.55 183.31 129.7C183.31 126.825 181.285 124.725 178.485 124.725ZM171.76 129.7C171.76 125.75 174.51 122.875 178.285 122.875C180.41 122.875 182.185 123.875 183.26 125.5V117.625H185.16V136H183.31V133.825C182.235 135.475 180.435 136.5 178.285 136.5C174.51 136.5 171.76 133.625 171.76 129.7ZM206.001 129.625H199.551V136H195.351V118.2H207.476V121.8H199.551V126.425H206.001V129.625ZM209.543 136V118.2H213.743V125.3L219.668 118.2H224.743L217.468 126.6L224.893 136H219.793L213.743 128.025V136H209.543Z" fill="black"/>
<path d="M45.275 157.375H47.175V170H45.275V157.375ZM46.225 155.05C45.45 155.05 44.925 154.5 44.925 153.75C44.925 153 45.45 152.475 46.225 152.475C46.975 152.475 47.525 153 47.525 153.75C47.525 154.5 46.975 155.05 46.225 155.05ZM56.6953 158.725C53.8953 158.725 51.8703 160.825 51.8703 163.7C51.8703 166.6 53.9203 168.65 56.6953 168.65C59.4953 168.65 61.5203 166.55 61.5203 163.7C61.5203 160.825 59.4953 158.725 56.6953 158.725ZM49.9703 163.7C49.9703 159.75 52.7203 156.875 56.4953 156.875C58.6203 156.875 60.3953 157.875 61.4703 159.5V151.625H63.3703V170H61.5203V167.825C60.4453 169.475 58.6453 170.5 56.4953 170.5C52.7203 170.5 49.9703 167.625 49.9703 163.7ZM80.4611 155.375H77.6111V161.725H80.4611C82.7611 161.725 84.3611 160.4 84.3611 158.55C84.3611 156.675 82.7611 155.375 80.4611 155.375ZM81.2111 164.9H77.6111V170H73.5611V152.2H81.2611C85.5611 152.2 88.5611 154.825 88.5611 158.55C88.5611 162.3 85.5611 164.9 81.2111 164.9ZM90.7799 170V152.2H94.9799V159.3L100.905 152.2H105.98L98.7049 160.6L106.13 170H101.03L94.9799 162.025V170H90.7799Z" fill="black"/>
<path d="M51 192.725C48.2 192.725 46.175 194.825 46.175 197.7C46.175 200.6 48.225 202.65 51 202.65C53.8 202.65 55.825 200.55 55.825 197.7C55.825 194.825 53.8 192.725 51 192.725ZM44.275 197.7C44.275 193.75 47.025 190.875 50.8 190.875C52.925 190.875 54.7 191.875 55.775 193.5V185.625H57.675V204H55.825V201.825C54.75 203.475 52.95 204.5 50.8 204.5C47.025 204.5 44.275 201.625 44.275 197.7ZM66.9004 202.775C69.6754 202.775 71.7254 200.625 71.7254 197.7C71.7254 194.75 69.6754 192.625 66.9004 192.625C64.1004 192.625 62.0754 194.75 62.0754 197.7C62.0754 200.625 64.1004 202.775 66.9004 202.775ZM71.7504 193.625V191.375H73.6504V204H71.7504V201.775C70.6754 203.45 68.8504 204.5 66.6754 204.5C62.9004 204.5 60.1754 201.625 60.1754 197.7C60.1754 193.75 62.9004 190.875 66.6754 190.875C68.8504 190.875 70.6754 191.925 71.7504 193.625ZM77.924 200.875V192.95H75.849V191.375H77.999L78.274 188.425H79.824V191.375H83.099V192.95H79.824V200.8C79.824 202.025 80.574 202.85 81.774 202.875C82.174 202.875 82.824 202.775 83.299 202.625V204.2C82.724 204.375 81.924 204.5 81.299 204.5C79.224 204.5 77.924 203.05 77.924 200.875ZM87.0914 196.65L96.4164 196.675C96.0664 194.275 94.2164 192.625 91.7164 192.625C89.2664 192.625 87.4414 194.275 87.0914 196.65ZM85.0914 197.55C85.0914 193.7 87.8914 190.875 91.7914 190.875C95.6414 190.875 98.4164 193.7 98.4164 197.575C98.4164 197.8 98.4164 198.05 98.3914 198.325L87.0414 198.3C87.3414 200.95 89.2414 202.775 91.7414 202.775C93.6914 202.775 95.5414 201.575 96.1164 199.925L97.9914 200.225C97.2164 202.7 94.6164 204.5 91.8164 204.5C87.9164 204.5 85.0914 201.575 85.0914 197.55Z" fill="black"/>
<path d="M46.05 234.875V226.95H43.975V225.375H46.125L46.4 222.425H47.95V225.375H51.225V226.95H47.95V234.8C47.95 236.025 48.7 236.85 49.9 236.875C50.3 236.875 50.95 236.775 51.425 236.625V238.2C50.85 238.375 50.05 238.5 49.425 238.5C47.35 238.5 46.05 237.05 46.05 234.875ZM53.5424 243.2V241.525C54.1174 241.725 54.7424 241.875 55.2174 241.875C57.0674 241.875 57.6174 239.875 58.4424 237.975L52.7674 225.375H54.8674L59.3674 235.625L63.3174 225.375H65.3424L60.3174 238.175C59.1674 241.05 58.1424 243.575 55.4924 243.575C54.8674 243.575 54.1174 243.425 53.5424 243.2ZM74.0758 236.65C76.8758 236.65 78.9008 234.55 78.9008 231.7C78.9008 228.775 76.8508 226.725 74.0758 226.725C71.2758 226.725 69.2508 228.825 69.2508 231.7C69.2508 234.55 71.2758 236.65 74.0758 236.65ZM80.8008 231.7C80.8008 235.625 78.0758 238.5 74.3008 238.5C72.1508 238.5 70.3758 237.525 69.3008 235.875V243.75H67.4008V225.375H69.2508V227.55C70.3258 225.9 72.1258 224.875 74.3008 224.875C78.0508 224.875 80.8008 227.75 80.8008 231.7ZM84.6012 230.65L93.9262 230.675C93.5762 228.275 91.7262 226.625 89.2262 226.625C86.7762 226.625 84.9512 228.275 84.6012 230.65ZM82.6012 231.55C82.6012 227.7 85.4012 224.875 89.3012 224.875C93.1512 224.875 95.9262 227.7 95.9262 231.575C95.9262 231.8 95.9262 232.05 95.9012 232.325L84.5512 232.3C84.8512 234.95 86.7512 236.775 89.2512 236.775C91.2012 236.775 93.0512 235.575 93.6262 233.925L95.5012 234.225C94.7262 236.7 92.1262 238.5 89.3262 238.5C85.4262 238.5 82.6012 235.575 82.6012 231.55Z" fill="black"/>
<path d="M44.95 253.625H46.875V272H44.95V253.625ZM56.06 258.875C60.01 258.875 62.81 261.7 62.81 265.7C62.81 269.675 60.01 272.5 56.06 272.5C52.11 272.5 49.335 269.675 49.335 265.7C49.335 261.7 52.11 258.875 56.06 258.875ZM56.06 270.775C58.86 270.775 60.885 268.625 60.885 265.7C60.885 262.75 58.86 260.625 56.06 260.625C53.26 260.625 51.235 262.75 51.235 265.7C51.235 268.625 53.26 270.775 56.06 270.775ZM71.1518 258.875C74.2018 258.875 76.7768 260.825 77.2518 263.5L75.4018 263.75C74.9268 261.9 73.1518 260.55 71.1518 260.55C68.5018 260.55 66.4768 262.725 66.4768 265.7C66.4768 268.675 68.4768 270.825 71.1518 270.825C73.2018 270.825 74.9018 269.5 75.4018 267.7L77.2768 267.95C76.7018 270.6 74.1268 272.5 71.1518 272.5C67.3268 272.5 64.5768 269.65 64.5768 265.7C64.5768 261.75 67.3518 258.875 71.1518 258.875ZM85.8105 270.775C88.5855 270.775 90.6355 268.625 90.6355 265.7C90.6355 262.75 88.5855 260.625 85.8105 260.625C83.0105 260.625 80.9855 262.75 80.9855 265.7C80.9855 268.625 83.0105 270.775 85.8105 270.775ZM90.6605 261.625V259.375H92.5605V272H90.6605V269.775C89.5855 271.45 87.7605 272.5 85.5855 272.5C81.8105 272.5 79.0855 269.625 79.0855 265.7C79.0855 261.75 81.8105 258.875 85.5855 258.875C87.7605 258.875 89.5855 259.925 90.6605 261.625ZM96.8342 268.875V260.95H94.7592V259.375H96.9092L97.1842 256.425H98.7342V259.375H102.009V260.95H98.7342V268.8C98.7342 270.025 99.4842 270.85 100.684 270.875C101.084 270.875 101.734 270.775 102.209 270.625V272.2C101.634 272.375 100.834 272.5 100.209 272.5C98.1342 272.5 96.8342 271.05 96.8342 268.875ZM105.002 259.375H106.902V272H105.002V259.375ZM105.952 257.05C105.177 257.05 104.652 256.5 104.652 255.75C104.652 255 105.177 254.475 105.952 254.475C106.702 254.475 107.252 255 107.252 255.75C107.252 256.5 106.702 257.05 105.952 257.05ZM116.397 258.875C120.347 258.875 123.147 261.7 123.147 265.7C123.147 269.675 120.347 272.5 116.397 272.5C112.447 272.5 109.672 269.675 109.672 265.7C109.672 261.7 112.447 258.875 116.397 258.875ZM116.397 270.775C119.197 270.775 121.222 268.625 121.222 265.7C121.222 262.75 119.197 260.625 116.397 260.625C113.597 260.625 111.572 262.75 111.572 265.7C111.572 268.625 113.597 270.775 116.397 270.775ZM125.614 259.375H127.514V261.15C128.389 259.75 130.089 258.875 131.839 258.875C135.064 258.875 137.039 261.225 137.039 264.45V272H135.139V264.45C135.139 262.225 133.864 260.625 131.639 260.625C129.439 260.625 127.514 262.3 127.514 264.625V272H125.614V259.375Z" fill="black"/>
<path d="M45.575 306.3C44.8 306.3 44.275 305.775 44.275 305C44.275 304.275 44.8 303.725 45.575 303.725C46.325 303.725 46.875 304.275 46.875 305C46.875 305.775 46.325 306.3 45.575 306.3ZM49.9764 306.3C49.2014 306.3 48.6764 305.775 48.6764 305C48.6764 304.275 49.2014 303.725 49.9764 303.725C50.7264 303.725 51.2764 304.275 51.2764 305C51.2764 305.775 50.7264 306.3 49.9764 306.3ZM54.3777 306.3C53.6027 306.3 53.0777 305.775 53.0777 305C53.0777 304.275 53.6027 303.725 54.3777 303.725C55.1277 303.725 55.6777 304.275 55.6777 305C55.6777 305.775 55.1277 306.3 54.3777 306.3Z" fill="black"/>
<path d="M97.175 45.025V50.45H106.775V53H94.275V35.3H106.525V37.85H97.175V42.725H105.525V45.025H97.175ZM108.862 35.3H112.012L117.237 50.8L122.437 35.3H125.587L119.487 53H114.962L108.862 35.3ZM131.428 45.025V50.45H141.028V53H128.528V35.3H140.778V37.85H131.428V42.725H139.778V45.025H131.428ZM148.364 35.3L156.539 49.35V35.3H159.464V53H155.814L147.664 38.95V53H144.714V35.3H148.364ZM167.901 53V37.875H162.226V35.3H176.551V37.875H170.901V53H167.901ZM193.234 47.7C193.234 51.15 190.509 53.625 186.184 53.625C181.759 53.625 178.559 50.925 178.559 47.225H181.409C181.409 49.5 183.409 51.15 186.259 51.15C188.784 51.15 190.259 49.85 190.259 48.075C190.259 46.05 188.009 45.75 185.509 45.4C182.184 44.95 178.784 44.35 178.784 40.275C178.784 37 181.559 34.675 185.684 34.675C189.834 34.675 192.834 37.225 192.834 40.75H190.059C190.059 38.65 188.234 37.15 185.709 37.15C183.309 37.15 181.759 38.35 181.759 39.975C181.759 42 183.809 42.325 186.359 42.675C189.659 43.125 193.234 43.725 193.234 47.7Z" fill="black"/>
</svg>
