<svg width="287" height="162" viewBox="0 0 287 162" fill="none" xmlns="http://www.w3.org/2000/svg">
<rect x="0.5" y="0.5" width="286" height="89" rx="19.5" fill="#D8FF29" stroke="#ACACAC"/>
<path d="M67.7 52.025C70.3 52.025 72.65 50.275 73.325 47.85L76.175 48.325C75.375 51.975 71.8 54.625 67.675 54.625C62.3 54.625 58.4 50.65 58.425 45.15C58.425 39.65 62.3 35.675 67.675 35.675C71.8 35.675 75.375 38.45 76.175 42.25L73.3 42.6C72.7 40.1 70.35 38.3 67.7 38.3C64.025 38.3 61.425 41.15 61.425 45.15C61.45 49.15 64.05 52.025 67.7 52.025ZM91.7305 46.725V36.3H94.7555V46.775C94.7555 51.35 91.6305 54.625 87.2555 54.625C82.8555 54.625 79.7305 51.35 79.7305 46.775V36.3H82.7555V46.725C82.7555 49.475 84.5055 52 87.2555 52.025C89.9305 52.025 91.7305 49.775 91.7305 46.725ZM113.068 48.7C113.068 52.15 110.343 54.625 106.018 54.625C101.593 54.625 98.3926 51.925 98.3926 48.225H101.243C101.243 50.5 103.243 52.15 106.093 52.15C108.618 52.15 110.093 50.85 110.093 49.075C110.093 47.05 107.843 46.75 105.343 46.4C102.018 45.95 98.6176 45.35 98.6176 41.275C98.6176 38 101.393 35.675 105.518 35.675C109.668 35.675 112.668 38.225 112.668 41.75H109.893C109.893 39.65 108.068 38.15 105.543 38.15C103.143 38.15 101.593 39.35 101.593 40.975C101.593 43 103.643 43.325 106.193 43.675C109.493 44.125 113.068 44.725 113.068 48.7ZM120.767 54V38.875H115.092V36.3H129.417V38.875H123.767V54H120.767ZM140.096 54.625C134.421 54.625 130.471 50.725 130.471 45.15C130.471 39.6 134.421 35.675 140.096 35.675C145.796 35.675 149.746 39.6 149.746 45.15C149.746 50.725 145.796 54.625 140.096 54.625ZM140.096 38.3C136.221 38.3 133.471 41.15 133.471 45.15C133.471 49.15 136.221 52 140.096 52.025C143.996 52.025 146.746 49.15 146.746 45.15C146.746 41.15 143.996 38.3 140.096 38.3ZM156.415 40.05V54H153.44V36.3H157.615L163.34 50.225L169.115 36.3H173.29V54H170.315V40.025L164.515 54H162.215L156.415 40.05ZM180.73 46.025V51.45H190.33V54H177.83V36.3H190.08V38.85H180.73V43.725H189.08V46.025H180.73ZM201.816 38.775H197.016V45.2H201.816C204.116 45.2 205.816 43.875 205.816 42.05C205.816 39.975 204.141 38.775 201.816 38.775ZM197.016 47.6V54H194.016V36.3H202.166C206.041 36.3 208.816 38.675 208.816 42.05C208.816 44.425 207.091 46.525 204.691 47.15L209.116 54H205.666L201.766 47.6H197.016ZM226.691 48.7C226.691 52.15 223.966 54.625 219.641 54.625C215.216 54.625 212.016 51.925 212.016 48.225H214.866C214.866 50.5 216.866 52.15 219.716 52.15C222.241 52.15 223.716 50.85 223.716 49.075C223.716 47.05 221.466 46.75 218.966 46.4C215.641 45.95 212.241 45.35 212.241 41.275C212.241 38 215.016 35.675 219.141 35.675C223.291 35.675 226.291 38.225 226.291 41.75H223.516C223.516 39.65 221.691 38.15 219.166 38.15C216.766 38.15 215.216 39.35 215.216 40.975C215.216 43 217.266 43.325 219.816 43.675C223.116 44.125 226.691 44.725 226.691 48.7Z" fill="black"/>
<path d="M56.85 121.875C59.9 121.875 62.475 123.825 62.95 126.5L61.1 126.75C60.625 124.9 58.85 123.55 56.85 123.55C54.2 123.55 52.175 125.725 52.175 128.7C52.175 131.675 54.175 133.825 56.85 133.825C58.9 133.825 60.6 132.5 61.1 130.7L62.975 130.95C62.4 133.6 59.825 135.5 56.85 135.5C53.025 135.5 50.275 132.65 50.275 128.7C50.275 124.75 53.05 121.875 56.85 121.875ZM76.6588 135H74.7588V133.225C73.9088 134.625 72.1838 135.5 70.4338 135.5C67.2088 135.5 65.2338 133.15 65.2338 129.925V122.375H67.1338V129.925C67.1338 132.15 68.4088 133.775 70.6588 133.775C72.8588 133.775 74.7588 132.075 74.7588 129.775V122.375H76.6588V135ZM90.1455 131.375C90.1455 133.75 87.9455 135.5 84.9455 135.5C81.6955 135.5 79.3455 133.5 79.3455 130.775H81.2205C81.2205 132.525 82.7705 133.775 84.9205 133.775C86.8705 133.775 88.2955 132.825 88.2955 131.55C88.2705 129.975 86.0705 129.625 84.6955 129.425C81.8205 128.975 79.5955 128.575 79.6205 125.725C79.6205 123.5 81.7205 121.875 84.4455 121.875C87.5705 121.875 89.8455 123.675 89.8705 126.15L87.9955 126.125C87.9705 124.675 86.4705 123.625 84.4205 123.625C82.7955 123.625 81.4705 124.525 81.4705 125.775C81.4705 126.9 82.5205 127.275 84.8205 127.65C87.1455 128.05 90.1205 128.575 90.1455 131.375ZM93.0373 131.875V123.95H90.9623V122.375H93.1123L93.3873 119.425H94.9373V122.375H98.2123V123.95H94.9373V131.8C94.9373 133.025 95.6873 133.85 96.8873 133.875C97.2873 133.875 97.9373 133.775 98.4123 133.625V135.2C97.8373 135.375 97.0373 135.5 96.4123 135.5C94.3373 135.5 93.0373 134.05 93.0373 131.875ZM106.905 121.875C110.855 121.875 113.655 124.7 113.655 128.7C113.655 132.675 110.855 135.5 106.905 135.5C102.955 135.5 100.18 132.675 100.18 128.7C100.18 124.7 102.955 121.875 106.905 121.875ZM106.905 133.775C109.705 133.775 111.73 131.625 111.73 128.7C111.73 125.75 109.705 123.625 106.905 123.625C104.105 123.625 102.08 125.75 102.08 128.7C102.08 131.625 104.105 133.775 106.905 133.775ZM118.021 135H116.121V122.375H117.971V123.95C118.771 122.65 120.096 121.875 121.721 121.875C123.796 121.875 125.496 122.925 126.196 124.525C126.996 122.925 128.571 121.9 130.571 121.9C133.521 121.9 135.621 124.2 135.621 127.45V135H133.696V127.425C133.696 125.2 132.296 123.625 130.346 123.625C128.246 123.625 126.796 125.2 126.796 127.425V135H124.896V127.425C124.896 125.15 123.571 123.625 121.546 123.625C119.446 123.625 118.021 125.15 118.021 127.425V135ZM139.865 127.65L149.19 127.675C148.84 125.275 146.99 123.625 144.49 123.625C142.04 123.625 140.215 125.275 139.865 127.65ZM137.865 128.55C137.865 124.7 140.665 121.875 144.565 121.875C148.415 121.875 151.19 124.7 151.19 128.575C151.19 128.8 151.19 129.05 151.165 129.325L139.815 129.3C140.115 131.95 142.015 133.775 144.515 133.775C146.465 133.775 148.315 132.575 148.89 130.925L150.765 131.225C149.99 133.7 147.39 135.5 144.59 135.5C140.69 135.5 137.865 132.575 137.865 128.55ZM153.684 122.375H155.534V124.125C156.284 122.75 157.484 121.925 159.034 121.925C159.559 121.925 160.159 122.05 160.734 122.275V124.025C160.084 123.725 159.359 123.625 158.859 123.625C156.884 123.625 155.584 125.4 155.584 127.925V135H153.684V122.375ZM159.04 135H171.54V136.625H159.04V135ZM173.065 122.375H174.965V135H173.065V122.375ZM174.015 120.05C173.24 120.05 172.715 119.5 172.715 118.75C172.715 118 173.24 117.475 174.015 117.475C174.765 117.475 175.315 118 175.315 118.75C175.315 119.5 174.765 120.05 174.015 120.05ZM184.485 123.725C181.685 123.725 179.66 125.825 179.66 128.7C179.66 131.6 181.71 133.65 184.485 133.65C187.285 133.65 189.31 131.55 189.31 128.7C189.31 125.825 187.285 123.725 184.485 123.725ZM177.76 128.7C177.76 124.75 180.51 121.875 184.285 121.875C186.41 121.875 188.185 122.875 189.26 124.5V116.625H191.16V135H189.31V132.825C188.235 134.475 186.435 135.5 184.285 135.5C180.51 135.5 177.76 132.625 177.76 128.7ZM208.251 120.375H205.401V126.725H208.251C210.551 126.725 212.151 125.4 212.151 123.55C212.151 121.675 210.551 120.375 208.251 120.375ZM209.001 129.9H205.401V135H201.351V117.2H209.051C213.351 117.2 216.351 119.825 216.351 123.55C216.351 127.3 213.351 129.9 209.001 129.9ZM218.57 135V117.2H222.77V124.3L228.695 117.2H233.77L226.495 125.6L233.92 135H228.82L222.77 127.025V135H218.57Z" fill="black"/>
<path d="M51.575 161.3C50.8 161.3 50.275 160.775 50.275 160C50.275 159.275 50.8 158.725 51.575 158.725C52.325 158.725 52.875 159.275 52.875 160C52.875 160.775 52.325 161.3 51.575 161.3ZM55.9764 161.3C55.2014 161.3 54.6764 160.775 54.6764 160C54.6764 159.275 55.2014 158.725 55.9764 158.725C56.7264 158.725 57.2764 159.275 57.2764 160C57.2764 160.775 56.7264 161.3 55.9764 161.3ZM60.3777 161.3C59.6027 161.3 59.0777 160.775 59.0777 160C59.0777 159.275 59.6027 158.725 60.3777 158.725C61.1277 158.725 61.6777 159.275 61.6777 160C61.6777 160.775 61.1277 161.3 60.3777 161.3Z" fill="black"/>
</svg>
