<svg width="845" height="61" viewBox="0 0 845 61" fill="none" xmlns="http://www.w3.org/2000/svg">
<path d="M606.061 38.0607C606.646 37.4749 606.646 36.5251 606.061 35.9393L596.515 26.3934C595.929 25.8076 594.979 25.8076 594.393 26.3934C593.808 26.9792 593.808 27.9289 594.393 28.5147L602.879 37L594.393 45.4853C593.808 46.0711 593.808 47.0208 594.393 47.6066C594.979 48.1924 595.929 48.1924 596.515 47.6066L606.061 38.0607ZM605 35.5L390 35.5V38.5L605 38.5V35.5Z" fill="#717171"/>
<path d="M844.061 38.0607C844.646 37.4749 844.646 36.5251 844.061 35.9393L834.515 26.3934C833.929 25.8076 832.979 25.8076 832.393 26.3934C831.808 26.9792 831.808 27.9289 832.393 28.5147L840.879 37L832.393 45.4853C831.808 46.0711 831.808 47.0208 832.393 47.6066C832.979 48.1924 833.929 48.1924 834.515 47.6066L844.061 38.0607ZM843 35.5H840.014V38.5H843V35.5ZM834.042 35.5H828.069V38.5H834.042V35.5ZM822.097 35.5H816.125V38.5H822.097V35.5ZM810.153 35.5H804.181V38.5H810.153V35.5ZM798.208 35.5H792.236V38.5H798.208V35.5ZM786.264 35.5H780.292V38.5H786.264V35.5ZM774.319 35.5H768.347V38.5H774.319V35.5ZM762.375 35.5L756.403 35.5V38.5L762.375 38.5V35.5ZM750.431 35.5H744.458V38.5H750.431V35.5ZM738.486 35.5H732.514V38.5H738.486V35.5ZM726.542 35.5H720.569V38.5H726.542V35.5ZM714.597 35.5H708.625V38.5H714.597V35.5ZM702.653 35.5L696.681 35.5V38.5L702.653 38.5V35.5ZM690.708 35.5H684.736V38.5H690.708V35.5ZM678.764 35.5H672.792V38.5H678.764V35.5ZM666.819 35.5H660.847V38.5H666.819V35.5ZM654.875 35.5H648.903V38.5H654.875V35.5ZM642.93 35.5L636.958 35.5V38.5L642.93 38.5V35.5ZM630.986 35.5H628V38.5H630.986V35.5ZM844.061 38.0607C844.646 37.4749 844.646 36.5251 844.061 35.9393L834.515 26.3934C833.929 25.8076 832.979 25.8076 832.393 26.3934C831.808 26.9792 831.808 27.9289 832.393 28.5147L840.879 37L832.393 45.4853C831.808 46.0711 831.808 47.0208 832.393 47.6066C832.979 48.1924 833.929 48.1924 834.515 47.6066L844.061 38.0607ZM843 35.5H840.014V38.5H843V35.5ZM834.042 35.5H828.069V38.5H834.042V35.5ZM822.097 35.5H816.125V38.5H822.097V35.5ZM810.153 35.5H804.181V38.5H810.153V35.5ZM798.208 35.5H792.236V38.5H798.208V35.5ZM786.264 35.5H780.292V38.5H786.264V35.5ZM774.319 35.5H768.347V38.5H774.319V35.5ZM762.375 35.5L756.403 35.5V38.5L762.375 38.5V35.5ZM750.431 35.5H744.458V38.5H750.431V35.5ZM738.486 35.5H732.514V38.5H738.486V35.5ZM726.542 35.5H720.569V38.5H726.542V35.5ZM714.597 35.5H708.625V38.5H714.597V35.5ZM702.653 35.5L696.681 35.5V38.5L702.653 38.5V35.5ZM690.708 35.5H684.736V38.5H690.708V35.5ZM678.764 35.5H672.792V38.5H678.764V35.5ZM666.819 35.5H660.847V38.5H666.819V35.5ZM654.875 35.5H648.903V38.5H654.875V35.5ZM642.93 35.5L636.958 35.5V38.5L642.93 38.5V35.5ZM630.986 35.5H628V38.5H630.986V35.5Z" fill="#6485FC"/>
<rect x="0.5" y="13.5" width="171" height="47" rx="19.5" fill="#D8FF29" stroke="#ACACAC"/>
<rect x="195.5" y="13.5" width="171" height="47" rx="19.5" fill="#76F5BC" stroke="#ACACAC"/>
<path d="M49.7 40.175C49.7 42.7 47.4 44.525 44.175 44.525C40.825 44.525 38.4 42.5 38.4 39.7H40.9C40.9 41.2 42.275 42.3 44.175 42.3C45.875 42.3 47.1 41.525 47.075 40.475C47.075 39.15 45.1 38.825 43.825 38.65C40.85 38.2 38.6 37.825 38.6 34.8C38.6 32.475 40.825 30.775 43.7 30.775C46.975 30.775 49.375 32.6 49.375 35.125H46.85C46.825 33.875 45.5 33 43.675 33C42.3 33 41.15 33.75 41.15 34.775C41.15 35.725 42.1 36.025 44.15 36.375C46.575 36.775 49.7 37.3 49.7 40.175ZM64.4398 44H61.7648V42.375C60.8898 43.7 59.2898 44.5 57.6648 44.5C54.5398 44.5 52.5148 42.2 52.5148 39.05V31.3H55.2398V38.85C55.2398 40.725 56.3398 42.075 58.2648 42.075C60.1398 42.075 61.7398 40.625 61.7398 38.6V31.3H64.4398V44ZM74.848 33.35C72.423 33.35 70.673 35.175 70.673 37.65C70.673 40.125 72.423 41.95 74.848 41.95C77.248 41.95 79.048 40.175 79.048 37.65C79.048 35.175 77.273 33.35 74.848 33.35ZM81.748 37.65C81.748 41.625 79.048 44.5 75.373 44.5C73.423 44.5 71.798 43.65 70.698 42.225V44H68.048V25.55H70.773V33.025C71.848 31.625 73.473 30.8 75.373 30.8C79.073 30.8 81.748 33.675 81.748 37.65ZM85.0723 45.375V31.3H87.7723V45.7C87.7723 48.1 86.2723 49.7 84.0223 49.7C83.1973 49.7 82.2473 49.575 81.5973 49.35L81.6223 47.1C82.0723 47.25 82.6973 47.325 83.1973 47.325C84.3223 47.3 85.0723 46.525 85.0723 45.375ZM86.3973 29.25C85.4223 29.25 84.7223 28.55 84.7223 27.575C84.7223 26.625 85.4223 25.95 86.3973 25.95C87.3973 25.95 88.0973 26.625 88.0973 27.575C88.0973 28.55 87.3973 29.25 86.3973 29.25ZM93.9303 36.475H101.83C101.53 34.475 99.9303 33.075 97.8303 33.075C95.7803 33.075 94.2803 34.45 93.9303 36.475ZM91.1053 37.5C91.1053 33.6 93.9553 30.8 97.9053 30.8C101.855 30.8 104.655 33.6 104.655 37.525C104.655 37.825 104.63 38.2 104.605 38.5L93.9053 38.475C94.2303 40.725 95.8053 42.225 97.8803 42.225C99.5803 42.225 101.155 41.225 101.63 39.825L104.18 40.2C103.455 42.7 100.83 44.5 97.9303 44.5C93.9553 44.5 91.1053 41.575 91.1053 37.5ZM113.748 30.8C116.973 30.8 119.623 32.825 120.073 35.625L117.473 35.95C117.073 34.3 115.523 33.125 113.773 33.125C111.523 33.125 109.748 35.025 109.748 37.65C109.773 40.275 111.498 42.175 113.773 42.175C115.573 42.175 117.048 41 117.498 39.375L120.098 39.7C119.573 42.475 116.898 44.5 113.773 44.5C109.873 44.5 107.048 41.625 107.048 37.65C107.048 33.675 109.873 30.8 113.748 30.8ZM124.202 40.425V33.425H122.252V31.3H124.352L124.702 28.225H126.927V31.3H130.027V33.425H126.927V40.25C126.927 41.4 127.627 42.2 128.777 42.2C129.127 42.2 129.727 42.125 130.202 41.975V44.15C129.552 44.375 128.652 44.5 127.952 44.5C125.677 44.5 124.202 42.85 124.202 40.425Z" fill="black"/>
<path d="M245.95 25.625H247.875V44H245.95V25.625ZM252.11 31.375H254.01V44H252.11V31.375ZM253.06 29.05C252.285 29.05 251.76 28.5 251.76 27.75C251.76 27 252.285 26.475 253.06 26.475C253.81 26.475 254.36 27 254.36 27.75C254.36 28.5 253.81 29.05 253.06 29.05ZM258.255 31.375H260.155V33.15C261.03 31.75 262.73 30.875 264.48 30.875C267.705 30.875 269.68 33.225 269.68 36.45V44H267.78V36.45C267.78 34.225 266.505 32.625 264.28 32.625C262.08 32.625 260.155 34.3 260.155 36.625V44H258.255V31.375ZM273.392 44V25.625H275.292V36.475L280.792 31.375H283.367L277.042 37.25L283.617 44H281.042L275.292 38.025V44H273.392ZM286.801 36.65L296.126 36.675C295.776 34.275 293.926 32.625 291.426 32.625C288.976 32.625 287.151 34.275 286.801 36.65ZM284.801 37.55C284.801 33.7 287.601 30.875 291.501 30.875C295.351 30.875 298.126 33.7 298.126 37.575C298.126 37.8 298.126 38.05 298.101 38.325L286.751 38.3C287.051 40.95 288.951 42.775 291.451 42.775C293.401 42.775 295.251 41.575 295.826 39.925L297.701 40.225C296.926 42.7 294.326 44.5 291.526 44.5C287.626 44.5 284.801 41.575 284.801 37.55ZM307.396 32.725C304.596 32.725 302.571 34.825 302.571 37.7C302.571 40.6 304.621 42.65 307.396 42.65C310.196 42.65 312.221 40.55 312.221 37.7C312.221 34.825 310.196 32.725 307.396 32.725ZM300.671 37.7C300.671 33.75 303.421 30.875 307.196 30.875C309.321 30.875 311.096 31.875 312.171 33.5V25.625H314.071V44H312.221V41.825C311.146 43.475 309.346 44.5 307.196 44.5C303.421 44.5 300.671 41.625 300.671 37.7Z" fill="black"/>
<path d="M437.675 17.775C440.65 17.775 443.275 15.8 443.975 13.125L446 13.5C445.125 17.025 441.65 19.625 437.675 19.625C432.375 19.625 428.525 15.675 428.525 10.2C428.525 4.725 432.375 0.75 437.675 0.75C441.65 0.75 445.15 3.475 446 7.175L443.95 7.425C443.3 4.675 440.675 2.6 437.675 2.6C433.55 2.6 430.6 5.775 430.6 10.2C430.625 14.6 433.575 17.775 437.675 17.775ZM455.507 5.875C459.457 5.875 462.257 8.7 462.257 12.7C462.257 16.675 459.457 19.5 455.507 19.5C451.557 19.5 448.782 16.675 448.782 12.7C448.782 8.7 451.557 5.875 455.507 5.875ZM455.507 17.775C458.307 17.775 460.332 15.625 460.332 12.7C460.332 9.75 458.307 7.625 455.507 7.625C452.707 7.625 450.682 9.75 450.682 12.7C450.682 15.625 452.707 17.775 455.507 17.775ZM465.474 6.375H467.374V8.15C468.249 6.75 469.949 5.875 471.699 5.875C474.924 5.875 476.899 8.225 476.899 11.45V19H474.999V11.45C474.999 9.225 473.724 7.625 471.499 7.625C469.299 7.625 467.374 9.3 467.374 11.625V19H465.474V6.375ZM481.686 15.875V7.95H479.611V6.375H481.761L482.036 3.425H483.586V6.375H486.861V7.95H483.586V15.8C483.586 17.025 484.336 17.85 485.536 17.875C485.936 17.875 486.586 17.775 487.061 17.625V19.2C486.486 19.375 485.686 19.5 485.061 19.5C482.986 19.5 481.686 18.05 481.686 15.875ZM491.603 11.65L500.928 11.675C500.578 9.275 498.728 7.625 496.228 7.625C493.778 7.625 491.953 9.275 491.603 11.65ZM489.603 12.55C489.603 8.7 492.403 5.875 496.303 5.875C500.153 5.875 502.928 8.7 502.928 12.575C502.928 12.8 502.928 13.05 502.903 13.325L491.553 13.3C491.853 15.95 493.753 17.775 496.253 17.775C498.203 17.775 500.053 16.575 500.628 14.925L502.503 15.225C501.728 17.7 499.128 19.5 496.328 19.5C492.428 19.5 489.603 16.575 489.603 12.55ZM506.84 19H504.515L508.965 12.45L504.765 6.375H507.015L510.365 11.3L513.74 6.375H515.99L511.79 12.45L516.24 19H513.915L510.365 13.65L506.84 19ZM520.358 15.875V7.95H518.283V6.375H520.433L520.708 3.425H522.258V6.375H525.533V7.95H522.258V15.8C522.258 17.025 523.008 17.85 524.208 17.875C524.608 17.875 525.258 17.775 525.733 17.625V19.2C525.158 19.375 524.358 19.5 523.733 19.5C521.658 19.5 520.358 18.05 520.358 15.875ZM546.715 11.8H539.14V19H537.065V1.375H548.19V3.225H539.14V10.075H546.715V11.8ZM551.592 19V1.375H553.667V8.9L561.142 1.375H563.867L555.517 9.7L564.117 19H561.392L553.667 10.475V19H551.592Z" fill="black"/>
<path d="M643.1 1.375L652.225 16.45V1.375H654.325V19H651.6L642.45 3.925V19H640.375V1.375H643.1ZM664.652 5.875C668.602 5.875 671.402 8.7 671.402 12.7C671.402 16.675 668.602 19.5 664.652 19.5C660.702 19.5 657.927 16.675 657.927 12.7C657.927 8.7 660.702 5.875 664.652 5.875ZM664.652 17.775C667.452 17.775 669.477 15.625 669.477 12.7C669.477 9.75 667.452 7.625 664.652 7.625C661.852 7.625 659.827 9.75 659.827 12.7C659.827 15.625 661.852 17.775 664.652 17.775ZM674.619 6.375H676.519V8.15C677.394 6.75 679.094 5.875 680.844 5.875C684.069 5.875 686.044 8.225 686.044 11.45V19H684.144V11.45C684.144 9.225 682.869 7.625 680.644 7.625C678.444 7.625 676.519 9.3 676.519 11.625V19H674.619V6.375ZM689.055 10.325H699.305V12.075H689.055V10.325ZM708.423 5.875C711.473 5.875 714.048 7.825 714.523 10.5L712.673 10.75C712.198 8.9 710.423 7.55 708.423 7.55C705.773 7.55 703.748 9.725 703.748 12.7C703.748 15.675 705.748 17.825 708.423 17.825C710.473 17.825 712.173 16.5 712.673 14.7L714.548 14.95C713.973 17.6 711.398 19.5 708.423 19.5C704.598 19.5 701.848 16.65 701.848 12.7C701.848 8.75 704.623 5.875 708.423 5.875ZM723.807 5.875C727.757 5.875 730.557 8.7 730.557 12.7C730.557 16.675 727.757 19.5 723.807 19.5C719.857 19.5 717.082 16.675 717.082 12.7C717.082 8.7 719.857 5.875 723.807 5.875ZM723.807 17.775C726.607 17.775 728.632 15.625 728.632 12.7C728.632 9.75 726.607 7.625 723.807 7.625C721.007 7.625 718.982 9.75 718.982 12.7C718.982 15.625 721.007 17.775 723.807 17.775ZM733.774 6.375H735.674V8.15C736.549 6.75 738.249 5.875 739.999 5.875C743.224 5.875 745.199 8.225 745.199 11.45V19H743.299V11.45C743.299 9.225 742.024 7.625 739.799 7.625C737.599 7.625 735.674 9.3 735.674 11.625V19H733.774V6.375ZM749.986 15.875V7.95H747.911V6.375H750.061L750.336 3.425H751.886V6.375H755.161V7.95H751.886V15.8C751.886 17.025 752.636 17.85 753.836 17.875C754.236 17.875 754.886 17.775 755.361 17.625V19.2C754.786 19.375 753.986 19.5 753.361 19.5C751.286 19.5 749.986 18.05 749.986 15.875ZM759.903 11.65L769.228 11.675C768.878 9.275 767.028 7.625 764.528 7.625C762.078 7.625 760.253 9.275 759.903 11.65ZM757.903 12.55C757.903 8.7 760.703 5.875 764.603 5.875C768.453 5.875 771.228 8.7 771.228 12.575C771.228 12.8 771.228 13.05 771.203 13.325L759.853 13.3C760.153 15.95 762.053 17.775 764.553 17.775C766.503 17.775 768.353 16.575 768.928 14.925L770.803 15.225C770.028 17.7 767.428 19.5 764.628 19.5C760.728 19.5 757.903 16.575 757.903 12.55ZM775.14 19H772.815L777.265 12.45L773.065 6.375H775.315L778.665 11.3L782.04 6.375H784.29L780.09 12.45L784.54 19H782.215L778.665 13.65L775.14 19ZM788.657 15.875V7.95H786.582V6.375H788.732L789.007 3.425H790.557V6.375H793.832V7.95H790.557V15.8C790.557 17.025 791.307 17.85 792.507 17.875C792.907 17.875 793.557 17.775 794.032 17.625V19.2C793.457 19.375 792.657 19.5 792.032 19.5C789.957 19.5 788.657 18.05 788.657 15.875ZM815.015 11.8H807.44V19H805.365V1.375H816.49V3.225H807.44V10.075H815.015V11.8ZM819.892 19V1.375H821.967V8.9L829.442 1.375H832.167L823.817 9.7L832.417 19H829.692L821.967 10.475V19H819.892Z" fill="#6485FC"/>
</svg>
