<svg width="777" height="178" viewBox="0 0 777 178" fill="none" xmlns="http://www.w3.org/2000/svg">
<rect x="0.5" y="1.5" width="218" height="89" rx="19.5" fill="#D8FF29" stroke="#ACACAC"/>
<rect x="262.5" y="1.5" width="184" height="89" rx="19.5" fill="#76F5BC" stroke="#ACACAC"/>
<rect x="490.5" y="0.5" width="286" height="89" rx="19.5" fill="#76F5BC" stroke="#ACACAC"/>
<path d="M288.825 38.225L284.8 48.775H292.825L288.825 38.225ZM284.3 50.4L282.95 54H280.725L287.3 36.375H290.3L296.875 54H294.65L293.325 50.4H284.3ZM307.521 52.775C310.496 52.775 313.121 50.8 313.821 48.125L315.846 48.5C314.971 52.025 311.496 54.625 307.521 54.625C302.221 54.625 298.371 50.675 298.371 45.2C298.371 39.725 302.221 35.75 307.521 35.75C311.496 35.75 314.996 38.475 315.846 42.175L313.796 42.425C313.146 39.675 310.521 37.6 307.521 37.6C303.396 37.6 300.446 40.775 300.446 45.2C300.471 49.6 303.421 52.775 307.521 52.775ZM328.053 52.775C331.028 52.775 333.653 50.8 334.353 48.125L336.378 48.5C335.503 52.025 332.028 54.625 328.053 54.625C322.753 54.625 318.903 50.675 318.903 45.2C318.903 39.725 322.753 35.75 328.053 35.75C332.028 35.75 335.528 38.475 336.378 42.175L334.328 42.425C333.678 39.675 331.053 37.6 328.053 37.6C323.928 37.6 320.978 40.775 320.978 45.2C321.003 49.6 323.953 52.775 328.053 52.775ZM348.91 54.625C343.36 54.625 339.435 50.725 339.435 45.2C339.435 39.675 343.36 35.75 348.91 35.75C354.46 35.75 358.41 39.675 358.41 45.2C358.41 50.725 354.46 54.625 348.91 54.625ZM348.91 37.6C344.61 37.6 341.51 40.775 341.51 45.2C341.51 49.6 344.61 52.75 348.91 52.775C353.235 52.775 356.31 49.6 356.31 45.2C356.31 40.775 353.235 37.6 348.91 37.6ZM374.332 46.85V36.375H376.407V46.85C376.407 51.4 373.457 54.625 369.282 54.625C365.082 54.625 362.132 51.4 362.132 46.85V36.375H364.207V46.85C364.207 50.075 366.207 52.775 369.282 52.775C372.307 52.775 374.332 50.325 374.332 46.85ZM383.733 36.375L392.858 51.45V36.375H394.958V54H392.233L383.083 38.925V54H381.008V36.375H383.733ZM403.735 54V38.225H397.835V36.375H411.71V38.225H405.81V54H403.735ZM428.102 48.875C428.102 52.225 425.452 54.625 421.302 54.625C416.977 54.625 413.877 51.975 413.852 48.3H415.927C415.927 50.9 418.152 52.775 421.327 52.775C424.227 52.775 426.002 51.25 426.002 49.125C426.002 46.775 423.502 46.425 420.777 46.075C417.502 45.625 414.127 45.1 414.127 41.175C414.127 38.05 416.802 35.75 420.777 35.75C424.802 35.75 427.727 38.25 427.752 41.725H425.727C425.727 39.325 423.652 37.6 420.777 37.6C418.027 37.6 416.227 39.025 416.227 41C416.227 43.35 418.577 43.725 421.352 44.1C424.577 44.55 428.102 45.075 428.102 48.875Z" fill="black"/>
<path d="M539.425 55V39.225H533.525V37.375H547.4V39.225H541.5V55H539.425ZM557.917 39.225H552.367V46.5H557.917C560.517 46.5 562.367 45.025 562.367 42.925C562.367 40.625 560.517 39.225 557.917 39.225ZM552.367 48.35V55H550.292V37.375H558.067C561.792 37.375 564.442 39.675 564.442 42.925C564.442 45.375 562.642 47.5 560.092 48.05L564.592 55H562.167L557.992 48.35H552.367ZM575.004 39.225L570.979 49.775H579.004L575.004 39.225ZM570.479 51.4L569.129 55H566.904L573.479 37.375H576.479L583.054 55H580.829L579.504 51.4H570.479ZM588.881 37.375L598.006 52.45V37.375H600.106V55H597.381L588.231 39.925V55H586.156V37.375H588.881ZM618.333 49.875C618.333 53.225 615.683 55.625 611.533 55.625C607.208 55.625 604.108 52.975 604.083 49.3H606.158C606.158 51.9 608.383 53.775 611.558 53.775C614.458 53.775 616.233 52.25 616.233 50.125C616.233 47.775 613.733 47.425 611.008 47.075C607.733 46.625 604.358 46.1 604.358 42.175C604.358 39.05 607.033 36.75 611.008 36.75C615.033 36.75 617.958 39.25 617.983 42.725H615.958C615.958 40.325 613.883 38.6 611.008 38.6C608.258 38.6 606.458 40.025 606.458 42C606.458 44.35 608.808 44.725 611.583 45.1C614.808 45.55 618.333 46.075 618.333 49.875ZM628.837 39.225L624.812 49.775H632.837L628.837 39.225ZM624.312 51.4L622.962 55H620.737L627.312 37.375H630.312L636.887 55H634.662L633.337 51.4H624.312ZM647.532 53.775C650.507 53.775 653.132 51.8 653.832 49.125L655.857 49.5C654.982 53.025 651.507 55.625 647.532 55.625C642.232 55.625 638.382 51.675 638.382 46.2C638.382 40.725 642.232 36.75 647.532 36.75C651.507 36.75 655.007 39.475 655.857 43.175L653.807 43.425C653.157 40.675 650.532 38.6 647.532 38.6C643.407 38.6 640.457 41.775 640.457 46.2C640.482 50.6 643.432 53.775 647.532 53.775ZM662.936 55V39.225H657.036V37.375H670.911V39.225H665.011V55H662.936ZM673.803 37.375H675.878V55H673.803V37.375ZM689.264 55.625C683.714 55.625 679.789 51.725 679.789 46.2C679.789 40.675 683.714 36.75 689.264 36.75C694.814 36.75 698.764 40.675 698.764 46.2C698.764 51.725 694.814 55.625 689.264 55.625ZM689.264 38.6C684.964 38.6 681.864 41.775 681.864 46.2C681.864 50.6 684.964 53.75 689.264 53.775C693.589 53.775 696.664 50.6 696.664 46.2C696.664 41.775 693.589 38.6 689.264 38.6ZM705.361 37.375L714.486 52.45V37.375H716.586V55H713.861L704.711 39.925V55H702.636V37.375H705.361ZM734.813 49.875C734.813 53.225 732.163 55.625 728.013 55.625C723.688 55.625 720.587 52.975 720.563 49.3H722.638C722.638 51.9 724.863 53.775 728.038 53.775C730.938 53.775 732.712 52.25 732.712 50.125C732.712 47.775 730.213 47.425 727.488 47.075C724.213 46.625 720.838 46.1 720.838 42.175C720.838 39.05 723.513 36.75 727.488 36.75C731.513 36.75 734.438 39.25 734.463 42.725H732.438C732.438 40.325 730.363 38.6 727.488 38.6C724.738 38.6 722.938 40.025 722.938 42C722.938 44.35 725.288 44.725 728.063 45.1C731.288 45.55 734.813 46.075 734.813 49.875Z" fill="black"/>
<path d="M38.28 111.5C40.72 111.5 42.78 113.06 43.16 115.2L41.68 115.4C41.3 113.92 39.88 112.84 38.28 112.84C36.16 112.84 34.54 114.58 34.54 116.96C34.54 119.34 36.14 121.06 38.28 121.06C39.92 121.06 41.28 120 41.68 118.56L43.18 118.76C42.72 120.88 40.66 122.4 38.28 122.4C35.22 122.4 33.02 120.12 33.02 116.96C33.02 113.8 35.24 111.5 38.28 111.5ZM54.127 122H52.607V120.58C51.927 121.7 50.547 122.4 49.147 122.4C46.567 122.4 44.987 120.52 44.987 117.94V111.9H46.507V117.94C46.507 119.72 47.527 121.02 49.327 121.02C51.087 121.02 52.607 119.66 52.607 117.82V111.9H54.127V122ZM64.9164 119.1C64.9164 121 63.1564 122.4 60.7564 122.4C58.1564 122.4 56.2764 120.8 56.2764 118.62H57.7764C57.7764 120.02 59.0164 121.02 60.7364 121.02C62.2964 121.02 63.4364 120.26 63.4364 119.24C63.4164 117.98 61.6564 117.7 60.5564 117.54C58.2564 117.18 56.4764 116.86 56.4964 114.58C56.4964 112.8 58.1764 111.5 60.3564 111.5C62.8564 111.5 64.6764 112.94 64.6964 114.92L63.1964 114.9C63.1764 113.74 61.9764 112.9 60.3364 112.9C59.0364 112.9 57.9764 113.62 57.9764 114.62C57.9764 115.52 58.8164 115.82 60.6564 116.12C62.5164 116.44 64.8964 116.86 64.9164 119.1ZM67.2298 119.5V113.16H65.5698V111.9H67.2898L67.5098 109.54H68.7498V111.9H71.3698V113.16H68.7498V119.44C68.7498 120.42 69.3498 121.08 70.3098 121.1C70.6298 121.1 71.1498 121.02 71.5298 120.9V122.16C71.0698 122.3 70.4298 122.4 69.9298 122.4C68.2698 122.4 67.2298 121.24 67.2298 119.5ZM78.3237 111.5C81.4837 111.5 83.7237 113.76 83.7237 116.96C83.7237 120.14 81.4837 122.4 78.3237 122.4C75.1637 122.4 72.9437 120.14 72.9437 116.96C72.9437 113.76 75.1637 111.5 78.3237 111.5ZM78.3237 121.02C80.5637 121.02 82.1837 119.3 82.1837 116.96C82.1837 114.6 80.5637 112.9 78.3237 112.9C76.0837 112.9 74.4637 114.6 74.4637 116.96C74.4637 119.3 76.0837 121.02 78.3237 121.02ZM87.2172 122H85.6972V111.9H87.1772V113.16C87.8172 112.12 88.8772 111.5 90.1772 111.5C91.8372 111.5 93.1972 112.34 93.7572 113.62C94.3972 112.34 95.6572 111.52 97.2572 111.52C99.6172 111.52 101.297 113.36 101.297 115.96V122H99.7572V115.94C99.7572 114.16 98.6372 112.9 97.0772 112.9C95.3972 112.9 94.2372 114.16 94.2372 115.94V122H92.7172V115.94C92.7172 114.12 91.6572 112.9 90.0372 112.9C88.3572 112.9 87.2172 114.12 87.2172 115.94V122ZM104.692 116.12L112.152 116.14C111.872 114.22 110.392 112.9 108.392 112.9C106.432 112.9 104.972 114.22 104.692 116.12ZM103.092 116.84C103.092 113.76 105.332 111.5 108.452 111.5C111.532 111.5 113.752 113.76 113.752 116.86C113.752 117.04 113.752 117.24 113.732 117.46L104.652 117.44C104.892 119.56 106.412 121.02 108.412 121.02C109.972 121.02 111.452 120.06 111.912 118.74L113.412 118.98C112.792 120.96 110.712 122.4 108.472 122.4C105.352 122.4 103.092 120.06 103.092 116.84ZM115.747 111.9H117.227V113.3C117.827 112.2 118.787 111.54 120.027 111.54C120.447 111.54 120.927 111.64 121.387 111.82V113.22C120.867 112.98 120.287 112.9 119.887 112.9C118.307 112.9 117.267 114.32 117.267 116.34V122H115.747V111.9ZM120.032 122H130.032V123.3H120.032V122ZM131.252 111.9H132.772V122H131.252V111.9ZM132.012 110.04C131.392 110.04 130.972 109.6 130.972 109C130.972 108.4 131.392 107.98 132.012 107.98C132.612 107.98 133.052 108.4 133.052 109C133.052 109.6 132.612 110.04 132.012 110.04ZM140.388 112.98C138.148 112.98 136.528 114.66 136.528 116.96C136.528 119.28 138.168 120.92 140.388 120.92C142.628 120.92 144.248 119.24 144.248 116.96C144.248 114.66 142.628 112.98 140.388 112.98ZM135.008 116.96C135.008 113.8 137.208 111.5 140.228 111.5C141.928 111.5 143.348 112.3 144.208 113.6V107.3H145.728V122H144.248V120.26C143.388 121.58 141.948 122.4 140.228 122.4C137.208 122.4 135.008 120.1 135.008 116.96ZM159.401 110.3H157.121V115.38H159.401C161.241 115.38 162.521 114.32 162.521 112.84C162.521 111.34 161.241 110.3 159.401 110.3ZM160.001 117.92H157.121V122H153.881V107.76H160.041C163.481 107.76 165.881 109.86 165.881 112.84C165.881 115.84 163.481 117.92 160.001 117.92ZM167.656 122V107.76H171.016V113.44L175.756 107.76H179.816L173.996 114.48L179.936 122H175.856L171.016 115.62V122H167.656Z" fill="black"/>
<path d="M283.28 111.5C285.72 111.5 287.78 113.06 288.16 115.2L286.68 115.4C286.3 113.92 284.88 112.84 283.28 112.84C281.16 112.84 279.54 114.58 279.54 116.96C279.54 119.34 281.14 121.06 283.28 121.06C284.92 121.06 286.28 120 286.68 118.56L288.18 118.76C287.72 120.88 285.66 122.4 283.28 122.4C280.22 122.4 278.02 120.12 278.02 116.96C278.02 113.8 280.24 111.5 283.28 111.5ZM299.127 122H297.607V120.58C296.927 121.7 295.547 122.4 294.147 122.4C291.567 122.4 289.987 120.52 289.987 117.94V111.9H291.507V117.94C291.507 119.72 292.527 121.02 294.327 121.02C296.087 121.02 297.607 119.66 297.607 117.82V111.9H299.127V122ZM309.916 119.1C309.916 121 308.156 122.4 305.756 122.4C303.156 122.4 301.276 120.8 301.276 118.62H302.776C302.776 120.02 304.016 121.02 305.736 121.02C307.296 121.02 308.436 120.26 308.436 119.24C308.416 117.98 306.656 117.7 305.556 117.54C303.256 117.18 301.476 116.86 301.496 114.58C301.496 112.8 303.176 111.5 305.356 111.5C307.856 111.5 309.676 112.94 309.696 114.92L308.196 114.9C308.176 113.74 306.976 112.9 305.336 112.9C304.036 112.9 302.976 113.62 302.976 114.62C302.976 115.52 303.816 115.82 305.656 116.12C307.516 116.44 309.896 116.86 309.916 119.1ZM312.23 119.5V113.16H310.57V111.9H312.29L312.51 109.54H313.75V111.9H316.37V113.16H313.75V119.44C313.75 120.42 314.35 121.08 315.31 121.1C315.63 121.1 316.15 121.02 316.53 120.9V122.16C316.07 122.3 315.43 122.4 314.93 122.4C313.27 122.4 312.23 121.24 312.23 119.5ZM323.324 111.5C326.484 111.5 328.724 113.76 328.724 116.96C328.724 120.14 326.484 122.4 323.324 122.4C320.164 122.4 317.944 120.14 317.944 116.96C317.944 113.76 320.164 111.5 323.324 111.5ZM323.324 121.02C325.564 121.02 327.184 119.3 327.184 116.96C327.184 114.6 325.564 112.9 323.324 112.9C321.084 112.9 319.464 114.6 319.464 116.96C319.464 119.3 321.084 121.02 323.324 121.02ZM332.217 122H330.697V111.9H332.177V113.16C332.817 112.12 333.877 111.5 335.177 111.5C336.837 111.5 338.197 112.34 338.757 113.62C339.397 112.34 340.657 111.52 342.257 111.52C344.617 111.52 346.297 113.36 346.297 115.96V122H344.757V115.94C344.757 114.16 343.637 112.9 342.077 112.9C340.397 112.9 339.237 114.16 339.237 115.94V122H337.717V115.94C337.717 114.12 336.657 112.9 335.037 112.9C333.357 112.9 332.217 114.12 332.217 115.94V122ZM349.692 116.12L357.152 116.14C356.872 114.22 355.392 112.9 353.392 112.9C351.432 112.9 349.972 114.22 349.692 116.12ZM348.092 116.84C348.092 113.76 350.332 111.5 353.452 111.5C356.532 111.5 358.752 113.76 358.752 116.86C358.752 117.04 358.752 117.24 358.732 117.46L349.652 117.44C349.892 119.56 351.412 121.02 353.412 121.02C354.972 121.02 356.452 120.06 356.912 118.74L358.412 118.98C357.792 120.96 355.712 122.4 353.472 122.4C350.352 122.4 348.092 120.06 348.092 116.84ZM360.747 111.9H362.227V113.3C362.827 112.2 363.787 111.54 365.027 111.54C365.447 111.54 365.927 111.64 366.387 111.82V113.22C365.867 112.98 365.287 112.9 364.887 112.9C363.307 112.9 362.267 114.32 362.267 116.34V122H360.747V111.9ZM365.032 122H375.032V123.3H365.032V122ZM376.252 111.9H377.772V122H376.252V111.9ZM377.012 110.04C376.392 110.04 375.972 109.6 375.972 109C375.972 108.4 376.392 107.98 377.012 107.98C377.612 107.98 378.052 108.4 378.052 109C378.052 109.6 377.612 110.04 377.012 110.04ZM385.388 112.98C383.148 112.98 381.528 114.66 381.528 116.96C381.528 119.28 383.168 120.92 385.388 120.92C387.628 120.92 389.248 119.24 389.248 116.96C389.248 114.66 387.628 112.98 385.388 112.98ZM380.008 116.96C380.008 113.8 382.208 111.5 385.228 111.5C386.928 111.5 388.348 112.3 389.208 113.6V107.3H390.728V122H389.248V120.26C388.388 121.58 386.948 122.4 385.228 122.4C382.208 122.4 380.008 120.1 380.008 116.96ZM407.401 116.9H402.241V122H398.881V107.76H408.581V110.64H402.241V114.34H407.401V116.9ZM410.234 122V107.76H413.594V113.44L418.334 107.76H422.394L416.574 114.48L422.514 122H418.434L413.594 115.62V122H410.234Z" fill="black"/>
<path d="M562.4 121.02C564.62 121.02 566.26 119.3 566.26 116.96C566.26 114.6 564.62 112.9 562.4 112.9C560.16 112.9 558.54 114.6 558.54 116.96C558.54 119.3 560.16 121.02 562.4 121.02ZM566.28 113.7V111.9H567.8V122H566.28V120.22C565.42 121.56 563.96 122.4 562.22 122.4C559.2 122.4 557.02 120.1 557.02 116.96C557.02 113.8 559.2 111.5 562.22 111.5C563.96 111.5 565.42 112.34 566.28 113.7ZM575.059 111.5C577.499 111.5 579.559 113.06 579.939 115.2L578.459 115.4C578.079 113.92 576.659 112.84 575.059 112.84C572.939 112.84 571.319 114.58 571.319 116.96C571.319 119.34 572.919 121.06 575.059 121.06C576.699 121.06 578.059 120 578.459 118.56L579.959 118.76C579.499 120.88 577.439 122.4 575.059 122.4C571.999 122.4 569.799 120.12 569.799 116.96C569.799 113.8 572.019 111.5 575.059 111.5ZM586.666 111.5C589.106 111.5 591.166 113.06 591.546 115.2L590.066 115.4C589.686 113.92 588.266 112.84 586.666 112.84C584.546 112.84 582.926 114.58 582.926 116.96C582.926 119.34 584.526 121.06 586.666 121.06C588.306 121.06 589.666 120 590.066 118.56L591.566 118.76C591.106 120.88 589.046 122.4 586.666 122.4C583.606 122.4 581.406 120.12 581.406 116.96C581.406 113.8 583.626 111.5 586.666 111.5ZM598.373 111.5C601.533 111.5 603.773 113.76 603.773 116.96C603.773 120.14 601.533 122.4 598.373 122.4C595.213 122.4 592.993 120.14 592.993 116.96C592.993 113.76 595.213 111.5 598.373 111.5ZM598.373 121.02C600.613 121.02 602.233 119.3 602.233 116.96C602.233 114.6 600.613 112.9 598.373 112.9C596.133 112.9 594.513 114.6 594.513 116.96C594.513 119.3 596.133 121.02 598.373 121.02ZM614.686 122H613.166V120.58C612.486 121.7 611.106 122.4 609.706 122.4C607.126 122.4 605.546 120.52 605.546 117.94V111.9H607.066V117.94C607.066 119.72 608.086 121.02 609.886 121.02C611.646 121.02 613.166 119.66 613.166 117.82V111.9H614.686V122ZM617.256 111.9H618.776V113.32C619.476 112.2 620.836 111.5 622.236 111.5C624.816 111.5 626.396 113.38 626.396 115.96V122H624.876V115.96C624.876 114.18 623.856 112.9 622.076 112.9C620.316 112.9 618.776 114.24 618.776 116.1V122H617.256V111.9ZM629.625 119.5V113.16H627.965V111.9H629.685L629.905 109.54H631.145V111.9H633.765V113.16H631.145V119.44C631.145 120.42 631.745 121.08 632.705 121.1C633.025 121.1 633.545 121.02 633.925 120.9V122.16C633.465 122.3 632.825 122.4 632.325 122.4C630.665 122.4 629.625 121.24 629.625 119.5ZM634.339 122H644.339V123.3H634.339V122ZM645.559 111.9H647.079V122H645.559V111.9ZM646.319 110.04C645.699 110.04 645.279 109.6 645.279 109C645.279 108.4 645.699 107.98 646.319 107.98C646.919 107.98 647.359 108.4 647.359 109C647.359 109.6 646.919 110.04 646.319 110.04ZM654.695 112.98C652.455 112.98 650.835 114.66 650.835 116.96C650.835 119.28 652.475 120.92 654.695 120.92C656.935 120.92 658.555 119.24 658.555 116.96C658.555 114.66 656.935 112.98 654.695 112.98ZM649.315 116.96C649.315 113.8 651.515 111.5 654.535 111.5C656.235 111.5 657.655 112.3 658.515 113.6V107.3H660.035V122H658.555V120.26C657.695 121.58 656.255 122.4 654.535 122.4C651.515 122.4 649.315 120.1 649.315 116.96ZM676.708 116.9H671.548V122H668.188V107.76H677.888V110.64H671.548V114.34H676.708V116.9ZM679.541 122V107.76H682.901V113.44L687.641 107.76H691.701L685.881 114.48L691.821 122H687.741L682.901 115.62V122H679.541Z" fill="black"/>
<path d="M283.4 147.02C285.62 147.02 287.26 145.3 287.26 142.96C287.26 140.6 285.62 138.9 283.4 138.9C281.16 138.9 279.54 140.6 279.54 142.96C279.54 145.3 281.16 147.02 283.4 147.02ZM287.28 139.7V137.9H288.8V148H287.28V146.22C286.42 147.56 284.96 148.4 283.22 148.4C280.2 148.4 278.02 146.1 278.02 142.96C278.02 139.8 280.2 137.5 283.22 137.5C284.96 137.5 286.42 138.34 287.28 139.7ZM296.059 137.5C298.499 137.5 300.559 139.06 300.939 141.2L299.459 141.4C299.079 139.92 297.659 138.84 296.059 138.84C293.939 138.84 292.319 140.58 292.319 142.96C292.319 145.34 293.919 147.06 296.059 147.06C297.699 147.06 299.059 146 299.459 144.56L300.959 144.76C300.499 146.88 298.439 148.4 296.059 148.4C292.999 148.4 290.799 146.12 290.799 142.96C290.799 139.8 293.019 137.5 296.059 137.5ZM307.666 137.5C310.106 137.5 312.166 139.06 312.546 141.2L311.066 141.4C310.686 139.92 309.266 138.84 307.666 138.84C305.546 138.84 303.926 140.58 303.926 142.96C303.926 145.34 305.526 147.06 307.666 147.06C309.306 147.06 310.666 146 311.066 144.56L312.566 144.76C312.106 146.88 310.046 148.4 307.666 148.4C304.606 148.4 302.406 146.12 302.406 142.96C302.406 139.8 304.626 137.5 307.666 137.5ZM319.373 137.5C322.533 137.5 324.773 139.76 324.773 142.96C324.773 146.14 322.533 148.4 319.373 148.4C316.213 148.4 313.993 146.14 313.993 142.96C313.993 139.76 316.213 137.5 319.373 137.5ZM319.373 147.02C321.613 147.02 323.233 145.3 323.233 142.96C323.233 140.6 321.613 138.9 319.373 138.9C317.133 138.9 315.513 140.6 315.513 142.96C315.513 145.3 317.133 147.02 319.373 147.02ZM335.686 148H334.166V146.58C333.486 147.7 332.106 148.4 330.706 148.4C328.126 148.4 326.546 146.52 326.546 143.94V137.9H328.066V143.94C328.066 145.72 329.086 147.02 330.886 147.02C332.646 147.02 334.166 145.66 334.166 143.82V137.9H335.686V148ZM338.256 137.9H339.776V139.32C340.476 138.2 341.836 137.5 343.236 137.5C345.816 137.5 347.396 139.38 347.396 141.96V148H345.876V141.96C345.876 140.18 344.856 138.9 343.076 138.9C341.316 138.9 339.776 140.24 339.776 142.1V148H338.256V137.9ZM350.625 145.5V139.16H348.965V137.9H350.685L350.905 135.54H352.145V137.9H354.765V139.16H352.145V145.44C352.145 146.42 352.745 147.08 353.705 147.1C354.025 147.1 354.545 147.02 354.925 146.9V148.16C354.465 148.3 353.825 148.4 353.325 148.4C351.665 148.4 350.625 147.24 350.625 145.5ZM355.339 148H365.339V149.3H355.339V148ZM366.559 137.9H368.079V148H366.559V137.9ZM367.319 136.04C366.699 136.04 366.279 135.6 366.279 135C366.279 134.4 366.699 133.98 367.319 133.98C367.919 133.98 368.359 134.4 368.359 135C368.359 135.6 367.919 136.04 367.319 136.04ZM375.695 138.98C373.455 138.98 371.835 140.66 371.835 142.96C371.835 145.28 373.475 146.92 375.695 146.92C377.935 146.92 379.555 145.24 379.555 142.96C379.555 140.66 377.935 138.98 375.695 138.98ZM370.315 142.96C370.315 139.8 372.515 137.5 375.535 137.5C377.235 137.5 378.655 138.3 379.515 139.6V133.3H381.035V148H379.555V146.26C378.695 147.58 377.255 148.4 375.535 148.4C372.515 148.4 370.315 146.1 370.315 142.96ZM394.708 136.3H392.428V141.38H394.708C396.548 141.38 397.828 140.32 397.828 138.84C397.828 137.34 396.548 136.3 394.708 136.3ZM395.308 143.92H392.428V148H389.188V133.76H395.348C398.788 133.76 401.188 135.86 401.188 138.84C401.188 141.84 398.788 143.92 395.308 143.92ZM402.963 148V133.76H406.323V139.44L411.063 133.76H415.123L409.303 140.48L415.243 148H411.163L406.323 141.62V148H402.963Z" fill="black"/>
<path d="M558.44 145.5V139.16H556.78V137.9H558.5L558.72 135.54H559.96V137.9H562.58V139.16H559.96V145.44C559.96 146.42 560.56 147.08 561.52 147.1C561.84 147.1 562.36 147.02 562.74 146.9V148.16C562.28 148.3 561.64 148.4 561.14 148.4C559.48 148.4 558.44 147.24 558.44 145.5ZM564.734 137.9H566.214V139.3C566.814 138.2 567.774 137.54 569.014 137.54C569.434 137.54 569.914 137.64 570.374 137.82V139.22C569.854 138.98 569.274 138.9 568.874 138.9C567.294 138.9 566.254 140.32 566.254 142.34V148H564.734V137.9ZM576.22 147.02C578.44 147.02 580.08 145.3 580.08 142.96C580.08 140.6 578.44 138.9 576.22 138.9C573.98 138.9 572.36 140.6 572.36 142.96C572.36 145.3 573.98 147.02 576.22 147.02ZM580.1 139.7V137.9H581.62V148H580.1V146.22C579.24 147.56 577.78 148.4 576.04 148.4C573.02 148.4 570.84 146.1 570.84 142.96C570.84 139.8 573.02 137.5 576.04 137.5C577.78 137.5 579.24 138.34 580.1 139.7ZM584.178 137.9H585.698V139.32C586.398 138.2 587.758 137.5 589.158 137.5C591.738 137.5 593.318 139.38 593.318 141.96V148H591.798V141.96C591.798 140.18 590.778 138.9 588.998 138.9C587.238 138.9 585.698 140.24 585.698 142.1V148H584.178V137.9ZM603.908 145.1C603.908 147 602.148 148.4 599.748 148.4C597.148 148.4 595.268 146.8 595.268 144.62H596.768C596.768 146.02 598.008 147.02 599.728 147.02C601.288 147.02 602.428 146.26 602.428 145.24C602.408 143.98 600.648 143.7 599.548 143.54C597.248 143.18 595.468 142.86 595.488 140.58C595.488 138.8 597.168 137.5 599.348 137.5C601.848 137.5 603.668 138.94 603.688 140.92L602.188 140.9C602.168 139.74 600.968 138.9 599.328 138.9C598.028 138.9 596.968 139.62 596.968 140.62C596.968 141.52 597.808 141.82 599.648 142.12C601.508 142.44 603.888 142.86 603.908 145.1ZM610.787 147.02C613.007 147.02 614.647 145.3 614.647 142.96C614.647 140.6 613.007 138.9 610.787 138.9C608.547 138.9 606.927 140.6 606.927 142.96C606.927 145.3 608.547 147.02 610.787 147.02ZM614.667 139.7V137.9H616.187V148H614.667V146.22C613.807 147.56 612.347 148.4 610.607 148.4C607.587 148.4 605.407 146.1 605.407 142.96C605.407 139.8 607.587 137.5 610.607 137.5C612.347 137.5 613.807 138.34 614.667 139.7ZM623.446 137.5C625.886 137.5 627.946 139.06 628.326 141.2L626.846 141.4C626.466 139.92 625.046 138.84 623.446 138.84C621.326 138.84 619.706 140.58 619.706 142.96C619.706 145.34 621.306 147.06 623.446 147.06C625.086 147.06 626.446 146 626.846 144.56L628.346 144.76C627.886 146.88 625.826 148.4 623.446 148.4C620.386 148.4 618.186 146.12 618.186 142.96C618.186 139.8 620.406 137.5 623.446 137.5ZM631.213 145.5V139.16H629.553V137.9H631.273L631.493 135.54H632.733V137.9H635.353V139.16H632.733V145.44C632.733 146.42 633.333 147.08 634.293 147.1C634.613 147.1 635.133 147.02 635.513 146.9V148.16C635.053 148.3 634.413 148.4 633.913 148.4C632.253 148.4 631.213 147.24 631.213 145.5ZM637.747 137.9H639.267V148H637.747V137.9ZM638.507 136.04C637.887 136.04 637.467 135.6 637.467 135C637.467 134.4 637.887 133.98 638.507 133.98C639.107 133.98 639.547 134.4 639.547 135C639.547 135.6 639.107 136.04 638.507 136.04ZM646.863 137.5C650.023 137.5 652.263 139.76 652.263 142.96C652.263 146.14 650.023 148.4 646.863 148.4C643.703 148.4 641.483 146.14 641.483 142.96C641.483 139.76 643.703 137.5 646.863 137.5ZM646.863 147.02C649.103 147.02 650.723 145.3 650.723 142.96C650.723 140.6 649.103 138.9 646.863 138.9C644.623 138.9 643.003 140.6 643.003 142.96C643.003 145.3 644.623 147.02 646.863 147.02ZM654.236 137.9H655.756V139.32C656.456 138.2 657.816 137.5 659.216 137.5C661.796 137.5 663.376 139.38 663.376 141.96V148H661.856V141.96C661.856 140.18 660.836 138.9 659.056 138.9C657.296 138.9 655.756 140.24 655.756 142.1V148H654.236V137.9ZM664.166 148H674.166V149.3H664.166V148ZM675.386 137.9H676.906V148H675.386V137.9ZM676.146 136.04C675.526 136.04 675.106 135.6 675.106 135C675.106 134.4 675.526 133.98 676.146 133.98C676.746 133.98 677.186 134.4 677.186 135C677.186 135.6 676.746 136.04 676.146 136.04ZM684.522 138.98C682.282 138.98 680.662 140.66 680.662 142.96C680.662 145.28 682.302 146.92 684.522 146.92C686.762 146.92 688.382 145.24 688.382 142.96C688.382 140.66 686.762 138.98 684.522 138.98ZM679.142 142.96C679.142 139.8 681.342 137.5 684.362 137.5C686.062 137.5 687.482 138.3 688.342 139.6V133.3H689.862V148H688.382V146.26C687.522 147.58 686.082 148.4 684.362 148.4C681.342 148.4 679.142 146.1 679.142 142.96ZM703.535 136.3H701.255V141.38H703.535C705.375 141.38 706.655 140.32 706.655 138.84C706.655 137.34 705.375 136.3 703.535 136.3ZM704.135 143.92H701.255V148H698.015V133.76H704.175C707.615 133.76 710.015 135.86 710.015 138.84C710.015 141.84 707.615 143.92 704.135 143.92ZM711.79 148V133.76H715.15V139.44L719.89 133.76H723.95L718.13 140.48L724.07 148H719.99L715.15 141.62V148H711.79Z" fill="black"/>
<path d="M558.44 170.5V164.16H556.78V162.9H558.5L558.72 160.54H559.96V162.9H562.58V164.16H559.96V170.44C559.96 171.42 560.56 172.08 561.52 172.1C561.84 172.1 562.36 172.02 562.74 171.9V173.16C562.28 173.3 561.64 173.4 561.14 173.4C559.48 173.4 558.44 172.24 558.44 170.5ZM564.734 162.9H566.214V164.3C566.814 163.2 567.774 162.54 569.014 162.54C569.434 162.54 569.914 162.64 570.374 162.82V164.22C569.854 163.98 569.274 163.9 568.874 163.9C567.294 163.9 566.254 165.32 566.254 167.34V173H564.734V162.9ZM576.22 172.02C578.44 172.02 580.08 170.3 580.08 167.96C580.08 165.6 578.44 163.9 576.22 163.9C573.98 163.9 572.36 165.6 572.36 167.96C572.36 170.3 573.98 172.02 576.22 172.02ZM580.1 164.7V162.9H581.62V173H580.1V171.22C579.24 172.56 577.78 173.4 576.04 173.4C573.02 173.4 570.84 171.1 570.84 167.96C570.84 164.8 573.02 162.5 576.04 162.5C577.78 162.5 579.24 163.34 580.1 164.7ZM584.178 162.9H585.698V164.32C586.398 163.2 587.758 162.5 589.158 162.5C591.738 162.5 593.318 164.38 593.318 166.96V173H591.798V166.96C591.798 165.18 590.778 163.9 588.998 163.9C587.238 163.9 585.698 165.24 585.698 167.1V173H584.178V162.9ZM603.908 170.1C603.908 172 602.148 173.4 599.748 173.4C597.148 173.4 595.268 171.8 595.268 169.62H596.768C596.768 171.02 598.008 172.02 599.728 172.02C601.288 172.02 602.428 171.26 602.428 170.24C602.408 168.98 600.648 168.7 599.548 168.54C597.248 168.18 595.468 167.86 595.488 165.58C595.488 163.8 597.168 162.5 599.348 162.5C601.848 162.5 603.668 163.94 603.688 165.92L602.188 165.9C602.168 164.74 600.968 163.9 599.328 163.9C598.028 163.9 596.968 164.62 596.968 165.62C596.968 166.52 597.808 166.82 599.648 167.12C601.508 167.44 603.888 167.86 603.908 170.1ZM610.787 172.02C613.007 172.02 614.647 170.3 614.647 167.96C614.647 165.6 613.007 163.9 610.787 163.9C608.547 163.9 606.927 165.6 606.927 167.96C606.927 170.3 608.547 172.02 610.787 172.02ZM614.667 164.7V162.9H616.187V173H614.667V171.22C613.807 172.56 612.347 173.4 610.607 173.4C607.587 173.4 605.407 171.1 605.407 167.96C605.407 164.8 607.587 162.5 610.607 162.5C612.347 162.5 613.807 163.34 614.667 164.7ZM623.446 162.5C625.886 162.5 627.946 164.06 628.326 166.2L626.846 166.4C626.466 164.92 625.046 163.84 623.446 163.84C621.326 163.84 619.706 165.58 619.706 167.96C619.706 170.34 621.306 172.06 623.446 172.06C625.086 172.06 626.446 171 626.846 169.56L628.346 169.76C627.886 171.88 625.826 173.4 623.446 173.4C620.386 173.4 618.186 171.12 618.186 167.96C618.186 164.8 620.406 162.5 623.446 162.5ZM631.213 170.5V164.16H629.553V162.9H631.273L631.493 160.54H632.733V162.9H635.353V164.16H632.733V170.44C632.733 171.42 633.333 172.08 634.293 172.1C634.613 172.1 635.133 172.02 635.513 171.9V173.16C635.053 173.3 634.413 173.4 633.913 173.4C632.253 173.4 631.213 172.24 631.213 170.5ZM637.747 162.9H639.267V173H637.747V162.9ZM638.507 161.04C637.887 161.04 637.467 160.6 637.467 160C637.467 159.4 637.887 158.98 638.507 158.98C639.107 158.98 639.547 159.4 639.547 160C639.547 160.6 639.107 161.04 638.507 161.04ZM646.863 162.5C650.023 162.5 652.263 164.76 652.263 167.96C652.263 171.14 650.023 173.4 646.863 173.4C643.703 173.4 641.483 171.14 641.483 167.96C641.483 164.76 643.703 162.5 646.863 162.5ZM646.863 172.02C649.103 172.02 650.723 170.3 650.723 167.96C650.723 165.6 649.103 163.9 646.863 163.9C644.623 163.9 643.003 165.6 643.003 167.96C643.003 170.3 644.623 172.02 646.863 172.02ZM654.236 162.9H655.756V164.32C656.456 163.2 657.816 162.5 659.216 162.5C661.796 162.5 663.376 164.38 663.376 166.96V173H661.856V166.96C661.856 165.18 660.836 163.9 659.056 163.9C657.296 163.9 655.756 165.24 655.756 167.1V173H654.236V162.9ZM664.166 173H674.166V174.3H664.166V173ZM679.966 163.98C677.726 163.98 676.106 165.66 676.106 167.96C676.106 170.28 677.746 171.92 679.966 171.92C682.206 171.92 683.826 170.24 683.826 167.96C683.826 165.66 682.206 163.98 679.966 163.98ZM674.586 167.96C674.586 164.8 676.786 162.5 679.806 162.5C681.506 162.5 682.926 163.3 683.786 164.6V158.3H685.306V173H683.826V171.26C682.966 172.58 681.526 173.4 679.806 173.4C676.786 173.4 674.586 171.1 674.586 167.96ZM692.686 172.02C694.906 172.02 696.546 170.3 696.546 167.96C696.546 165.6 694.906 163.9 692.686 163.9C690.446 163.9 688.826 165.6 688.826 167.96C688.826 170.3 690.446 172.02 692.686 172.02ZM696.566 164.7V162.9H698.086V173H696.566V171.22C695.706 172.56 694.246 173.4 692.506 173.4C689.486 173.4 687.306 171.1 687.306 167.96C687.306 164.8 689.486 162.5 692.506 162.5C694.246 162.5 695.706 163.34 696.566 164.7ZM701.505 170.5V164.16H699.845V162.9H701.565L701.785 160.54H703.025V162.9H705.645V164.16H703.025V170.44C703.025 171.42 703.625 172.08 704.585 172.1C704.905 172.1 705.425 172.02 705.805 171.9V173.16C705.345 173.3 704.705 173.4 704.205 173.4C702.545 173.4 701.505 172.24 701.505 170.5ZM708.839 167.12L716.299 167.14C716.019 165.22 714.539 163.9 712.539 163.9C710.579 163.9 709.119 165.22 708.839 167.12ZM707.239 167.84C707.239 164.76 709.479 162.5 712.599 162.5C715.679 162.5 717.899 164.76 717.899 167.86C717.899 168.04 717.899 168.24 717.879 168.46L708.799 168.44C709.039 170.56 710.559 172.02 712.559 172.02C714.119 172.02 715.599 171.06 716.059 169.74L717.559 169.98C716.939 171.96 714.859 173.4 712.619 173.4C709.499 173.4 707.239 171.06 707.239 167.84Z" fill="black"/>
<path d="M283.4 172.02C285.62 172.02 287.26 170.3 287.26 167.96C287.26 165.6 285.62 163.9 283.4 163.9C281.16 163.9 279.54 165.6 279.54 167.96C279.54 170.3 281.16 172.02 283.4 172.02ZM287.28 164.7V162.9H288.8V173H287.28V171.22C286.42 172.56 284.96 173.4 283.22 173.4C280.2 173.4 278.02 171.1 278.02 167.96C278.02 164.8 280.2 162.5 283.22 162.5C284.96 162.5 286.42 163.34 287.28 164.7ZM296.059 162.5C298.499 162.5 300.559 164.06 300.939 166.2L299.459 166.4C299.079 164.92 297.659 163.84 296.059 163.84C293.939 163.84 292.319 165.58 292.319 167.96C292.319 170.34 293.919 172.06 296.059 172.06C297.699 172.06 299.059 171 299.459 169.56L300.959 169.76C300.499 171.88 298.439 173.4 296.059 173.4C292.999 173.4 290.799 171.12 290.799 167.96C290.799 164.8 293.019 162.5 296.059 162.5ZM307.666 162.5C310.106 162.5 312.166 164.06 312.546 166.2L311.066 166.4C310.686 164.92 309.266 163.84 307.666 163.84C305.546 163.84 303.926 165.58 303.926 167.96C303.926 170.34 305.526 172.06 307.666 172.06C309.306 172.06 310.666 171 311.066 169.56L312.566 169.76C312.106 171.88 310.046 173.4 307.666 173.4C304.606 173.4 302.406 171.12 302.406 167.96C302.406 164.8 304.626 162.5 307.666 162.5ZM319.373 162.5C322.533 162.5 324.773 164.76 324.773 167.96C324.773 171.14 322.533 173.4 319.373 173.4C316.213 173.4 313.993 171.14 313.993 167.96C313.993 164.76 316.213 162.5 319.373 162.5ZM319.373 172.02C321.613 172.02 323.233 170.3 323.233 167.96C323.233 165.6 321.613 163.9 319.373 163.9C317.133 163.9 315.513 165.6 315.513 167.96C315.513 170.3 317.133 172.02 319.373 172.02ZM335.686 173H334.166V171.58C333.486 172.7 332.106 173.4 330.706 173.4C328.126 173.4 326.546 171.52 326.546 168.94V162.9H328.066V168.94C328.066 170.72 329.086 172.02 330.886 172.02C332.646 172.02 334.166 170.66 334.166 168.82V162.9H335.686V173ZM338.256 162.9H339.776V164.32C340.476 163.2 341.836 162.5 343.236 162.5C345.816 162.5 347.396 164.38 347.396 166.96V173H345.876V166.96C345.876 165.18 344.856 163.9 343.076 163.9C341.316 163.9 339.776 165.24 339.776 167.1V173H338.256V162.9ZM350.625 170.5V164.16H348.965V162.9H350.685L350.905 160.54H352.145V162.9H354.765V164.16H352.145V170.44C352.145 171.42 352.745 172.08 353.705 172.1C354.025 172.1 354.545 172.02 354.925 171.9V173.16C354.465 173.3 353.825 173.4 353.325 173.4C351.665 173.4 350.625 172.24 350.625 170.5ZM355.339 173H365.339V174.3H355.339V173ZM366.574 170.5V164.16H364.914V162.9H366.634L366.854 160.54H368.094V162.9H370.714V164.16H368.094V170.44C368.094 171.42 368.694 172.08 369.654 172.1C369.974 172.1 370.494 172.02 370.874 171.9V173.16C370.414 173.3 369.774 173.4 369.274 173.4C367.614 173.4 366.574 172.24 366.574 170.5ZM372.567 177.16V175.82C373.027 175.98 373.527 176.1 373.907 176.1C375.387 176.1 375.827 174.5 376.487 172.98L371.947 162.9H373.627L377.227 171.1L380.387 162.9H382.007L377.987 173.14C377.067 175.44 376.247 177.46 374.127 177.46C373.627 177.46 373.027 177.34 372.567 177.16ZM388.994 171.92C391.234 171.92 392.854 170.24 392.854 167.96C392.854 165.62 391.214 163.98 388.994 163.98C386.754 163.98 385.134 165.66 385.134 167.96C385.134 170.24 386.754 171.92 388.994 171.92ZM394.374 167.96C394.374 171.1 392.194 173.4 389.174 173.4C387.454 173.4 386.034 172.62 385.174 171.3V177.6H383.654V162.9H385.134V164.64C385.994 163.32 387.434 162.5 389.174 162.5C392.174 162.5 394.374 164.8 394.374 167.96ZM397.415 167.12L404.875 167.14C404.595 165.22 403.115 163.9 401.115 163.9C399.155 163.9 397.695 165.22 397.415 167.12ZM395.815 167.84C395.815 164.76 398.055 162.5 401.175 162.5C404.255 162.5 406.475 164.76 406.475 167.86C406.475 168.04 406.475 168.24 406.455 168.46L397.375 168.44C397.615 170.56 399.135 172.02 401.135 172.02C402.695 172.02 404.175 171.06 404.635 169.74L406.135 169.98C405.515 171.96 403.435 173.4 401.195 173.4C398.075 173.4 395.815 171.06 395.815 167.84Z" fill="black"/>
<path d="M217.939 44.9393C217.354 45.5251 217.354 46.4749 217.939 47.0607L227.485 56.6066C228.071 57.1924 229.021 57.1924 229.607 56.6066C230.192 56.0208 230.192 55.0711 229.607 54.4853L221.121 46L229.607 37.5147C230.192 36.9289 230.192 35.9792 229.607 35.3934C229.021 34.8076 228.071 34.8076 227.485 35.3934L217.939 44.9393ZM262 44.5L219 44.5L219 47.5L262 47.5L262 44.5Z" fill="#717171"/>
<path d="M445.939 43.9393C445.354 44.5251 445.354 45.4749 445.939 46.0607L455.485 55.6066C456.071 56.1924 457.021 56.1924 457.607 55.6066C458.192 55.0208 458.192 54.0711 457.607 53.4853L449.121 45L457.607 36.5147C458.192 35.9289 458.192 34.9792 457.607 34.3934C457.021 33.8076 456.071 33.8076 455.485 34.3934L445.939 43.9393ZM490 43.5L447 43.5L447 46.5L490 46.5L490 43.5Z" fill="#717171"/>
<path d="M36.06 147.24C35.44 147.24 35.02 146.82 35.02 146.2C35.02 145.62 35.44 145.18 36.06 145.18C36.66 145.18 37.1 145.62 37.1 146.2C37.1 146.82 36.66 147.24 36.06 147.24ZM39.5811 147.24C38.9611 147.24 38.5411 146.82 38.5411 146.2C38.5411 145.62 38.9611 145.18 39.5811 145.18C40.1811 145.18 40.6211 145.62 40.6211 146.2C40.6211 146.82 40.1811 147.24 39.5811 147.24ZM43.1022 147.24C42.4822 147.24 42.0622 146.82 42.0622 146.2C42.0622 145.62 42.4822 145.18 43.1022 145.18C43.7022 145.18 44.1422 145.62 44.1422 146.2C44.1422 146.82 43.7022 147.24 43.1022 147.24Z" fill="black"/>
<path d="M44.675 53.775C47.65 53.775 50.275 51.8 50.975 49.125L53 49.5C52.125 53.025 48.65 55.625 44.675 55.625C39.375 55.625 35.525 51.675 35.525 46.2C35.525 40.725 39.375 36.75 44.675 36.75C48.65 36.75 52.15 39.475 53 43.175L50.95 43.425C50.3 40.675 47.675 38.6 44.675 38.6C40.55 38.6 37.6 41.775 37.6 46.2C37.625 50.6 40.575 53.775 44.675 53.775ZM68.9572 47.85V37.375H71.0322V47.85C71.0322 52.4 68.0822 55.625 63.9072 55.625C59.7072 55.625 56.7572 52.4 56.7572 47.85V37.375H58.8322V47.85C58.8322 51.075 60.8322 53.775 63.9072 53.775C66.9322 53.775 68.9572 51.325 68.9572 47.85ZM89.1328 49.875C89.1328 53.225 86.4828 55.625 82.3328 55.625C78.0078 55.625 74.9078 52.975 74.8828 49.3H76.9578C76.9578 51.9 79.1828 53.775 82.3578 53.775C85.2578 53.775 87.0328 52.25 87.0328 50.125C87.0328 47.775 84.5328 47.425 81.8078 47.075C78.5328 46.625 75.1578 46.1 75.1578 42.175C75.1578 39.05 77.8328 36.75 81.8078 36.75C85.8328 36.75 88.7578 39.25 88.7828 42.725H86.7578C86.7578 40.325 84.6828 38.6 81.8078 38.6C79.0578 38.6 77.2578 40.025 77.2578 42C77.2578 44.35 79.6078 44.725 82.3828 45.1C85.6078 45.55 89.1328 46.075 89.1328 49.875ZM97.2365 55V39.225H91.3365V37.375H105.212V39.225H99.3115V55H97.2365ZM115.85 55.625C110.3 55.625 106.375 51.725 106.375 46.2C106.375 40.675 110.3 36.75 115.85 36.75C121.4 36.75 125.35 40.675 125.35 46.2C125.35 51.725 121.4 55.625 115.85 55.625ZM115.85 38.6C111.55 38.6 108.45 41.775 108.45 46.2C108.45 50.6 111.55 53.75 115.85 53.775C120.175 53.775 123.25 50.6 123.25 46.2C123.25 41.775 120.175 38.6 115.85 38.6ZM131.297 40.05V55H129.222V37.375H132.222L138.647 52.175L145.122 37.375H148.122V55H146.047V40.025L139.497 55H137.822L131.297 40.05ZM154.904 46.75V53.15H165.154V55H152.879V37.375H164.904V39.225H154.904V45H163.904V46.75H154.904ZM176.617 39.225H171.067V46.5H176.617C179.217 46.5 181.067 45.025 181.067 42.925C181.067 40.625 179.217 39.225 176.617 39.225ZM171.067 48.35V55H168.992V37.375H176.767C180.492 37.375 183.142 39.675 183.142 42.925C183.142 45.375 181.342 47.5 178.792 48.05L183.292 55H180.867L176.692 48.35H171.067Z" fill="black"/>
</svg>
