<svg width="832" height="215" viewBox="0 0 832 215" fill="none" xmlns="http://www.w3.org/2000/svg">
<rect x="0.5" y="63.5" width="286" height="89" rx="19.5" fill="#D8FF29" stroke="#ACACAC"/>
<path d="M78.675 115.775C81.65 115.775 84.275 113.8 84.975 111.125L87 111.5C86.125 115.025 82.65 117.625 78.675 117.625C73.375 117.625 69.525 113.675 69.525 108.2C69.525 102.725 73.375 98.75 78.675 98.75C82.65 98.75 86.15 101.475 87 105.175L84.95 105.425C84.3 102.675 81.675 100.6 78.675 100.6C74.55 100.6 71.6 103.775 71.6 108.2C71.625 112.6 74.575 115.775 78.675 115.775ZM102.957 109.85V99.375H105.032V109.85C105.032 114.4 102.082 117.625 97.9072 117.625C93.7072 117.625 90.7572 114.4 90.7572 109.85V99.375H92.8322V109.85C92.8322 113.075 94.8322 115.775 97.9072 115.775C100.932 115.775 102.957 113.325 102.957 109.85ZM123.133 111.875C123.133 115.225 120.483 117.625 116.333 117.625C112.008 117.625 108.908 114.975 108.883 111.3H110.958C110.958 113.9 113.183 115.775 116.358 115.775C119.258 115.775 121.033 114.25 121.033 112.125C121.033 109.775 118.533 109.425 115.808 109.075C112.533 108.625 109.158 108.1 109.158 104.175C109.158 101.05 111.833 98.75 115.808 98.75C119.833 98.75 122.758 101.25 122.783 104.725H120.758C120.758 102.325 118.683 100.6 115.808 100.6C113.058 100.6 111.258 102.025 111.258 104C111.258 106.35 113.608 106.725 116.383 107.1C119.608 107.55 123.133 108.075 123.133 111.875ZM131.237 117V101.225H125.337V99.375H139.212V101.225H133.312V117H131.237ZM149.85 117.625C144.3 117.625 140.375 113.725 140.375 108.2C140.375 102.675 144.3 98.75 149.85 98.75C155.4 98.75 159.35 102.675 159.35 108.2C159.35 113.725 155.4 117.625 149.85 117.625ZM149.85 100.6C145.55 100.6 142.45 103.775 142.45 108.2C142.45 112.6 145.55 115.75 149.85 115.775C154.175 115.775 157.25 112.6 157.25 108.2C157.25 103.775 154.175 100.6 149.85 100.6ZM165.297 102.05V117H163.222V99.375H166.222L172.647 114.175L179.122 99.375H182.122V117H180.047V102.025L173.497 117H171.822L165.297 102.05ZM188.904 108.75V115.15H199.154V117H186.879V99.375H198.904V101.225H188.904V107H197.904V108.75H188.904ZM210.617 101.225H205.067V108.5H210.617C213.217 108.5 215.067 107.025 215.067 104.925C215.067 102.625 213.217 101.225 210.617 101.225ZM205.067 110.35V117H202.992V99.375H210.767C214.492 99.375 217.142 101.675 217.142 104.925C217.142 107.375 215.342 109.5 212.792 110.05L217.292 117H214.867L210.692 110.35H205.067Z" fill="black"/>
<rect x="363.5" y="0.5" width="286" height="89" rx="19.5" fill="#76F5BC" stroke="#ACACAC"/>
<rect x="363.5" y="125.5" width="286" height="89" rx="19.5" fill="#76F5BC" stroke="#ACACAC"/>
<path d="M437.025 36.375L441.025 52.6L445.575 36.375H447.725L442.725 54H439.375L435.45 38.55L431.55 54H428.175L423.15 36.375H425.325L429.875 52.6L433.975 36.375H437.025ZM453.304 45.75V52.15H463.554V54H451.279V36.375H463.304V38.225H453.304V44H462.304V45.75H453.304ZM478.768 48.85C478.768 46.95 476.993 45.6 474.518 45.6H469.468V52.15H474.518C476.993 52.15 478.768 50.75 478.768 48.85ZM474.593 38.225H469.468V43.75H474.593C476.743 43.75 478.268 42.625 478.268 41C478.268 39.4 476.743 38.225 474.593 38.225ZM474.793 54H467.393V36.375H474.843C478.018 36.375 480.343 38.325 480.343 40.975C480.343 42.725 479.168 44.225 477.518 44.65C479.468 45.1 480.843 46.875 480.843 48.95C480.843 51.875 478.293 54 474.793 54ZM482.62 54H495.12V55.625H482.62V54ZM505.795 52.775C508.77 52.775 511.395 50.8 512.095 48.125L514.12 48.5C513.245 52.025 509.77 54.625 505.795 54.625C500.495 54.625 496.645 50.675 496.645 45.2C496.645 39.725 500.495 35.75 505.795 35.75C509.77 35.75 513.27 38.475 514.12 42.175L512.07 42.425C511.42 39.675 508.795 37.6 505.795 37.6C501.67 37.6 498.72 40.775 498.72 45.2C498.745 49.6 501.695 52.775 505.795 52.775ZM529.127 54H518.027V36.375H520.102V52.15H529.127V54ZM532.48 36.375H534.555V54H532.48V36.375ZM547.616 52.775C550.591 52.775 553.216 50.8 553.916 48.125L555.941 48.5C555.066 52.025 551.591 54.625 547.616 54.625C542.316 54.625 538.466 50.675 538.466 45.2C538.466 39.725 542.316 35.75 547.616 35.75C551.591 35.75 555.091 38.475 555.941 42.175L553.891 42.425C553.241 39.675 550.616 37.6 547.616 37.6C543.491 37.6 540.541 40.775 540.541 45.2C540.566 49.6 543.516 52.775 547.616 52.775ZM559.849 54V36.375H561.924V43.9L569.399 36.375H572.124L563.774 44.7L572.374 54H569.649L561.924 45.475V54H559.849ZM587.558 48.875C587.558 52.225 584.908 54.625 580.758 54.625C576.433 54.625 573.333 51.975 573.308 48.3H575.383C575.383 50.9 577.608 52.775 580.783 52.775C583.683 52.775 585.458 51.25 585.458 49.125C585.458 46.775 582.958 46.425 580.233 46.075C576.958 45.625 573.583 45.1 573.583 41.175C573.583 38.05 576.258 35.75 580.233 35.75C584.258 35.75 587.183 38.25 587.208 41.725H585.183C585.183 39.325 583.108 37.6 580.233 37.6C577.483 37.6 575.683 39.025 575.683 41C575.683 43.35 578.033 43.725 580.808 44.1C584.033 44.55 587.558 45.075 587.558 48.875Z" fill="black"/>
<path d="M431.875 173.875C431.875 177.225 429.225 179.625 425.075 179.625C420.75 179.625 417.65 176.975 417.625 173.3H419.7C419.7 175.9 421.925 177.775 425.1 177.775C428 177.775 429.775 176.25 429.775 174.125C429.775 171.775 427.275 171.425 424.55 171.075C421.275 170.625 417.9 170.1 417.9 166.175C417.9 163.05 420.575 160.75 424.55 160.75C428.575 160.75 431.5 163.25 431.525 166.725H429.5C429.5 164.325 427.425 162.6 424.55 162.6C421.8 162.6 420 164.025 420 166C420 168.35 422.35 168.725 425.125 169.1C428.35 169.55 431.875 170.075 431.875 173.875ZM439.979 179V163.225H434.079V161.375H447.954V163.225H442.054V179H439.979ZM458.592 179.625C453.042 179.625 449.117 175.725 449.117 170.2C449.117 164.675 453.042 160.75 458.592 160.75C464.142 160.75 468.092 164.675 468.092 170.2C468.092 175.725 464.142 179.625 458.592 179.625ZM458.592 162.6C454.292 162.6 451.192 165.775 451.192 170.2C451.192 174.6 454.292 177.75 458.592 177.775C462.917 177.775 465.992 174.6 465.992 170.2C465.992 165.775 462.917 162.6 458.592 162.6ZM479.589 163.225H474.039V170.5H479.589C482.189 170.5 484.039 169.025 484.039 166.925C484.039 164.625 482.189 163.225 479.589 163.225ZM474.039 172.35V179H471.964V161.375H479.739C483.464 161.375 486.114 163.675 486.114 166.925C486.114 169.375 484.314 171.5 481.764 172.05L486.264 179H483.839L479.664 172.35H474.039ZM492.251 170.75V177.15H502.501V179H490.226V161.375H502.251V163.225H492.251V169H501.251V170.75H492.251ZM503.964 179H516.464V180.625H503.964V179ZM515.7 161.375H517.9L523.675 177.425L529.425 161.375H531.625L525.225 179H522.125L515.7 161.375ZM534.732 161.375H536.807V179H534.732V161.375ZM555.068 173.875C555.068 177.225 552.418 179.625 548.268 179.625C543.943 179.625 540.843 176.975 540.818 173.3H542.893C542.893 175.9 545.118 177.775 548.293 177.775C551.193 177.775 552.968 176.25 552.968 174.125C552.968 171.775 550.468 171.425 547.743 171.075C544.468 170.625 541.093 170.1 541.093 166.175C541.093 163.05 543.768 160.75 547.743 160.75C551.768 160.75 554.693 163.25 554.718 166.725H552.693C552.693 164.325 550.618 162.6 547.743 162.6C544.993 162.6 543.193 164.025 543.193 166C543.193 168.35 545.543 168.725 548.318 169.1C551.543 169.55 555.068 170.075 555.068 173.875ZM559.122 161.375H561.197V179H559.122V161.375ZM570.008 179V163.225H564.108V161.375H577.983V163.225H572.083V179H570.008ZM594.375 173.875C594.375 177.225 591.725 179.625 587.575 179.625C583.25 179.625 580.15 176.975 580.125 173.3H582.2C582.2 175.9 584.425 177.775 587.6 177.775C590.5 177.775 592.275 176.25 592.275 174.125C592.275 171.775 589.775 171.425 587.05 171.075C583.775 170.625 580.4 170.1 580.4 166.175C580.4 163.05 583.075 160.75 587.05 160.75C591.075 160.75 594 163.25 594.025 166.725H592C592 164.325 589.925 162.6 587.05 162.6C584.3 162.6 582.5 164.025 582.5 166C582.5 168.35 584.85 168.725 587.625 169.1C590.85 169.55 594.375 170.075 594.375 173.875Z" fill="black"/>
<path d="M55.28 185.5C57.72 185.5 59.78 187.06 60.16 189.2L58.68 189.4C58.3 187.92 56.88 186.84 55.28 186.84C53.16 186.84 51.54 188.58 51.54 190.96C51.54 193.34 53.14 195.06 55.28 195.06C56.92 195.06 58.28 194 58.68 192.56L60.18 192.76C59.72 194.88 57.66 196.4 55.28 196.4C52.22 196.4 50.02 194.12 50.02 190.96C50.02 187.8 52.24 185.5 55.28 185.5ZM71.127 196H69.607V194.58C68.927 195.7 67.547 196.4 66.147 196.4C63.567 196.4 61.987 194.52 61.987 191.94V185.9H63.507V191.94C63.507 193.72 64.527 195.02 66.327 195.02C68.087 195.02 69.607 193.66 69.607 191.82V185.9H71.127V196ZM81.9164 193.1C81.9164 195 80.1564 196.4 77.7564 196.4C75.1564 196.4 73.2764 194.8 73.2764 192.62H74.7764C74.7764 194.02 76.0164 195.02 77.7364 195.02C79.2964 195.02 80.4364 194.26 80.4364 193.24C80.4164 191.98 78.6564 191.7 77.5564 191.54C75.2564 191.18 73.4764 190.86 73.4964 188.58C73.4964 186.8 75.1764 185.5 77.3564 185.5C79.8564 185.5 81.6764 186.94 81.6964 188.92L80.1964 188.9C80.1764 187.74 78.9764 186.9 77.3364 186.9C76.0364 186.9 74.9764 187.62 74.9764 188.62C74.9764 189.52 75.8164 189.82 77.6564 190.12C79.5164 190.44 81.8964 190.86 81.9164 193.1ZM84.2298 193.5V187.16H82.5698V185.9H84.2898L84.5098 183.54H85.7498V185.9H88.3698V187.16H85.7498V193.44C85.7498 194.42 86.3498 195.08 87.3098 195.1C87.6298 195.1 88.1498 195.02 88.5298 194.9V196.16C88.0698 196.3 87.4298 196.4 86.9298 196.4C85.2698 196.4 84.2298 195.24 84.2298 193.5ZM95.3237 185.5C98.4837 185.5 100.724 187.76 100.724 190.96C100.724 194.14 98.4837 196.4 95.3237 196.4C92.1637 196.4 89.9437 194.14 89.9437 190.96C89.9437 187.76 92.1637 185.5 95.3237 185.5ZM95.3237 195.02C97.5637 195.02 99.1837 193.3 99.1837 190.96C99.1837 188.6 97.5637 186.9 95.3237 186.9C93.0837 186.9 91.4637 188.6 91.4637 190.96C91.4637 193.3 93.0837 195.02 95.3237 195.02ZM104.217 196H102.697V185.9H104.177V187.16C104.817 186.12 105.877 185.5 107.177 185.5C108.837 185.5 110.197 186.34 110.757 187.62C111.397 186.34 112.657 185.52 114.257 185.52C116.617 185.52 118.297 187.36 118.297 189.96V196H116.757V189.94C116.757 188.16 115.637 186.9 114.077 186.9C112.397 186.9 111.237 188.16 111.237 189.94V196H109.717V189.94C109.717 188.12 108.657 186.9 107.037 186.9C105.357 186.9 104.217 188.12 104.217 189.94V196ZM121.692 190.12L129.152 190.14C128.872 188.22 127.392 186.9 125.392 186.9C123.432 186.9 121.972 188.22 121.692 190.12ZM120.092 190.84C120.092 187.76 122.332 185.5 125.452 185.5C128.532 185.5 130.752 187.76 130.752 190.86C130.752 191.04 130.752 191.24 130.732 191.46L121.652 191.44C121.892 193.56 123.412 195.02 125.412 195.02C126.972 195.02 128.452 194.06 128.912 192.74L130.412 192.98C129.792 194.96 127.712 196.4 125.472 196.4C122.352 196.4 120.092 194.06 120.092 190.84ZM132.747 185.9H134.227V187.3C134.827 186.2 135.787 185.54 137.027 185.54C137.447 185.54 137.927 185.64 138.387 185.82V187.22C137.867 186.98 137.287 186.9 136.887 186.9C135.307 186.9 134.267 188.32 134.267 190.34V196H132.747V185.9ZM137.032 196H147.032V197.3H137.032V196ZM148.252 185.9H149.772V196H148.252V185.9ZM149.012 184.04C148.392 184.04 147.972 183.6 147.972 183C147.972 182.4 148.392 181.98 149.012 181.98C149.612 181.98 150.052 182.4 150.052 183C150.052 183.6 149.612 184.04 149.012 184.04ZM157.388 186.98C155.148 186.98 153.528 188.66 153.528 190.96C153.528 193.28 155.168 194.92 157.388 194.92C159.628 194.92 161.248 193.24 161.248 190.96C161.248 188.66 159.628 186.98 157.388 186.98ZM152.008 190.96C152.008 187.8 154.208 185.5 157.228 185.5C158.928 185.5 160.348 186.3 161.208 187.6V181.3H162.728V196H161.248V194.26C160.388 195.58 158.948 196.4 157.228 196.4C154.208 196.4 152.008 194.1 152.008 190.96ZM176.401 184.3H174.121V189.38H176.401C178.241 189.38 179.521 188.32 179.521 186.84C179.521 185.34 178.241 184.3 176.401 184.3ZM177.001 191.92H174.121V196H170.881V181.76H177.041C180.481 181.76 182.881 183.86 182.881 186.84C182.881 189.84 180.481 191.92 177.001 191.92ZM184.656 196V181.76H188.016V187.44L192.756 181.76H196.816L190.996 188.48L196.936 196H192.856L188.016 189.62V196H184.656Z" fill="black"/>
<path d="M682.28 5.5C684.72 5.5 686.78 7.06 687.16 9.2L685.68 9.4C685.3 7.92 683.88 6.84 682.28 6.84C680.16 6.84 678.54 8.58 678.54 10.96C678.54 13.34 680.14 15.06 682.28 15.06C683.92 15.06 685.28 14 685.68 12.56L687.18 12.76C686.72 14.88 684.66 16.4 682.28 16.4C679.22 16.4 677.02 14.12 677.02 10.96C677.02 7.8 679.24 5.5 682.28 5.5ZM698.127 16H696.607V14.58C695.927 15.7 694.547 16.4 693.147 16.4C690.567 16.4 688.987 14.52 688.987 11.94V5.9H690.507V11.94C690.507 13.72 691.527 15.02 693.327 15.02C695.087 15.02 696.607 13.66 696.607 11.82V5.9H698.127V16ZM708.916 13.1C708.916 15 707.156 16.4 704.756 16.4C702.156 16.4 700.276 14.8 700.276 12.62H701.776C701.776 14.02 703.016 15.02 704.736 15.02C706.296 15.02 707.436 14.26 707.436 13.24C707.416 11.98 705.656 11.7 704.556 11.54C702.256 11.18 700.476 10.86 700.496 8.58C700.496 6.8 702.176 5.5 704.356 5.5C706.856 5.5 708.676 6.94 708.696 8.92L707.196 8.9C707.176 7.74 705.976 6.9 704.336 6.9C703.036 6.9 701.976 7.62 701.976 8.62C701.976 9.52 702.816 9.82 704.656 10.12C706.516 10.44 708.896 10.86 708.916 13.1ZM711.23 13.5V7.16H709.57V5.9H711.29L711.51 3.54H712.75V5.9H715.37V7.16H712.75V13.44C712.75 14.42 713.35 15.08 714.31 15.1C714.63 15.1 715.15 15.02 715.53 14.9V16.16C715.07 16.3 714.43 16.4 713.93 16.4C712.27 16.4 711.23 15.24 711.23 13.5ZM722.324 5.5C725.484 5.5 727.724 7.76 727.724 10.96C727.724 14.14 725.484 16.4 722.324 16.4C719.164 16.4 716.944 14.14 716.944 10.96C716.944 7.76 719.164 5.5 722.324 5.5ZM722.324 15.02C724.564 15.02 726.184 13.3 726.184 10.96C726.184 8.6 724.564 6.9 722.324 6.9C720.084 6.9 718.464 8.6 718.464 10.96C718.464 13.3 720.084 15.02 722.324 15.02ZM731.217 16H729.697V5.9H731.177V7.16C731.817 6.12 732.877 5.5 734.177 5.5C735.837 5.5 737.197 6.34 737.757 7.62C738.397 6.34 739.657 5.52 741.257 5.52C743.617 5.52 745.297 7.36 745.297 9.96V16H743.757V9.94C743.757 8.16 742.637 6.9 741.077 6.9C739.397 6.9 738.237 8.16 738.237 9.94V16H736.717V9.94C736.717 8.12 735.657 6.9 734.037 6.9C732.357 6.9 731.217 8.12 731.217 9.94V16ZM748.692 10.12L756.152 10.14C755.872 8.22 754.392 6.9 752.392 6.9C750.432 6.9 748.972 8.22 748.692 10.12ZM747.092 10.84C747.092 7.76 749.332 5.5 752.452 5.5C755.532 5.5 757.752 7.76 757.752 10.86C757.752 11.04 757.752 11.24 757.732 11.46L748.652 11.44C748.892 13.56 750.412 15.02 752.412 15.02C753.972 15.02 755.452 14.06 755.912 12.74L757.412 12.98C756.792 14.96 754.712 16.4 752.472 16.4C749.352 16.4 747.092 14.06 747.092 10.84ZM759.747 5.9H761.227V7.3C761.827 6.2 762.787 5.54 764.027 5.54C764.447 5.54 764.927 5.64 765.387 5.82V7.22C764.867 6.98 764.287 6.9 763.887 6.9C762.307 6.9 761.267 8.32 761.267 10.34V16H759.747V5.9ZM764.032 16H774.032V17.3H764.032V16ZM775.252 5.9H776.772V16H775.252V5.9ZM776.012 4.04C775.392 4.04 774.972 3.6 774.972 3C774.972 2.4 775.392 1.98 776.012 1.98C776.612 1.98 777.052 2.4 777.052 3C777.052 3.6 776.612 4.04 776.012 4.04ZM784.388 6.98C782.148 6.98 780.528 8.66 780.528 10.96C780.528 13.28 782.168 14.92 784.388 14.92C786.628 14.92 788.248 13.24 788.248 10.96C788.248 8.66 786.628 6.98 784.388 6.98ZM779.008 10.96C779.008 7.8 781.208 5.5 784.228 5.5C785.928 5.5 787.348 6.3 788.208 7.6V1.3H789.728V16H788.248V14.26C787.388 15.58 785.948 16.4 784.228 16.4C781.208 16.4 779.008 14.1 779.008 10.96ZM806.401 10.9H801.241V16H797.881V1.76H807.581V4.64H801.241V8.34H806.401V10.9ZM809.234 16V1.76H812.594V7.44L817.334 1.76H821.394L815.574 8.48L821.514 16H817.434L812.594 9.62V16H809.234Z" fill="black"/>
<path d="M682.28 131.5C684.72 131.5 686.78 133.06 687.16 135.2L685.68 135.4C685.3 133.92 683.88 132.84 682.28 132.84C680.16 132.84 678.54 134.58 678.54 136.96C678.54 139.34 680.14 141.06 682.28 141.06C683.92 141.06 685.28 140 685.68 138.56L687.18 138.76C686.72 140.88 684.66 142.4 682.28 142.4C679.22 142.4 677.02 140.12 677.02 136.96C677.02 133.8 679.24 131.5 682.28 131.5ZM698.127 142H696.607V140.58C695.927 141.7 694.547 142.4 693.147 142.4C690.567 142.4 688.987 140.52 688.987 137.94V131.9H690.507V137.94C690.507 139.72 691.527 141.02 693.327 141.02C695.087 141.02 696.607 139.66 696.607 137.82V131.9H698.127V142ZM708.916 139.1C708.916 141 707.156 142.4 704.756 142.4C702.156 142.4 700.276 140.8 700.276 138.62H701.776C701.776 140.02 703.016 141.02 704.736 141.02C706.296 141.02 707.436 140.26 707.436 139.24C707.416 137.98 705.656 137.7 704.556 137.54C702.256 137.18 700.476 136.86 700.496 134.58C700.496 132.8 702.176 131.5 704.356 131.5C706.856 131.5 708.676 132.94 708.696 134.92L707.196 134.9C707.176 133.74 705.976 132.9 704.336 132.9C703.036 132.9 701.976 133.62 701.976 134.62C701.976 135.52 702.816 135.82 704.656 136.12C706.516 136.44 708.896 136.86 708.916 139.1ZM711.23 139.5V133.16H709.57V131.9H711.29L711.51 129.54H712.75V131.9H715.37V133.16H712.75V139.44C712.75 140.42 713.35 141.08 714.31 141.1C714.63 141.1 715.15 141.02 715.53 140.9V142.16C715.07 142.3 714.43 142.4 713.93 142.4C712.27 142.4 711.23 141.24 711.23 139.5ZM722.324 131.5C725.484 131.5 727.724 133.76 727.724 136.96C727.724 140.14 725.484 142.4 722.324 142.4C719.164 142.4 716.944 140.14 716.944 136.96C716.944 133.76 719.164 131.5 722.324 131.5ZM722.324 141.02C724.564 141.02 726.184 139.3 726.184 136.96C726.184 134.6 724.564 132.9 722.324 132.9C720.084 132.9 718.464 134.6 718.464 136.96C718.464 139.3 720.084 141.02 722.324 141.02ZM731.217 142H729.697V131.9H731.177V133.16C731.817 132.12 732.877 131.5 734.177 131.5C735.837 131.5 737.197 132.34 737.757 133.62C738.397 132.34 739.657 131.52 741.257 131.52C743.617 131.52 745.297 133.36 745.297 135.96V142H743.757V135.94C743.757 134.16 742.637 132.9 741.077 132.9C739.397 132.9 738.237 134.16 738.237 135.94V142H736.717V135.94C736.717 134.12 735.657 132.9 734.037 132.9C732.357 132.9 731.217 134.12 731.217 135.94V142ZM748.692 136.12L756.152 136.14C755.872 134.22 754.392 132.9 752.392 132.9C750.432 132.9 748.972 134.22 748.692 136.12ZM747.092 136.84C747.092 133.76 749.332 131.5 752.452 131.5C755.532 131.5 757.752 133.76 757.752 136.86C757.752 137.04 757.752 137.24 757.732 137.46L748.652 137.44C748.892 139.56 750.412 141.02 752.412 141.02C753.972 141.02 755.452 140.06 755.912 138.74L757.412 138.98C756.792 140.96 754.712 142.4 752.472 142.4C749.352 142.4 747.092 140.06 747.092 136.84ZM759.747 131.9H761.227V133.3C761.827 132.2 762.787 131.54 764.027 131.54C764.447 131.54 764.927 131.64 765.387 131.82V133.22C764.867 132.98 764.287 132.9 763.887 132.9C762.307 132.9 761.267 134.32 761.267 136.34V142H759.747V131.9ZM764.032 142H774.032V143.3H764.032V142ZM775.252 131.9H776.772V142H775.252V131.9ZM776.012 130.04C775.392 130.04 774.972 129.6 774.972 129C774.972 128.4 775.392 127.98 776.012 127.98C776.612 127.98 777.052 128.4 777.052 129C777.052 129.6 776.612 130.04 776.012 130.04ZM784.388 132.98C782.148 132.98 780.528 134.66 780.528 136.96C780.528 139.28 782.168 140.92 784.388 140.92C786.628 140.92 788.248 139.24 788.248 136.96C788.248 134.66 786.628 132.98 784.388 132.98ZM779.008 136.96C779.008 133.8 781.208 131.5 784.228 131.5C785.928 131.5 787.348 132.3 788.208 133.6V127.3H789.728V142H788.248V140.26C787.388 141.58 785.948 142.4 784.228 142.4C781.208 142.4 779.008 140.1 779.008 136.96ZM806.401 136.9H801.241V142H797.881V127.76H807.581V130.64H801.241V134.34H806.401V136.9ZM809.234 142V127.76H812.594V133.44L817.334 127.76H821.394L815.574 134.48L821.514 142H817.434L812.594 135.62V142H809.234Z" fill="black"/>
<path d="M682.28 28.5C684.72 28.5 686.78 30.06 687.16 32.2L685.68 32.4C685.3 30.92 683.88 29.84 682.28 29.84C680.16 29.84 678.54 31.58 678.54 33.96C678.54 36.34 680.14 38.06 682.28 38.06C683.92 38.06 685.28 37 685.68 35.56L687.18 35.76C686.72 37.88 684.66 39.4 682.28 39.4C679.22 39.4 677.02 37.12 677.02 33.96C677.02 30.8 679.24 28.5 682.28 28.5ZM689.167 24.3H690.707V39H689.167V24.3ZM693.495 28.9H695.015V39H693.495V28.9ZM694.255 27.04C693.635 27.04 693.215 26.6 693.215 26C693.215 25.4 693.635 24.98 694.255 24.98C694.855 24.98 695.295 25.4 695.295 26C695.295 26.6 694.855 27.04 694.255 27.04ZM702.511 28.5C704.951 28.5 707.011 30.06 707.391 32.2L705.911 32.4C705.531 30.92 704.111 29.84 702.511 29.84C700.391 29.84 698.771 31.58 698.771 33.96C698.771 36.34 700.371 38.06 702.511 38.06C704.151 38.06 705.511 37 705.911 35.56L707.411 35.76C706.951 37.88 704.891 39.4 702.511 39.4C699.451 39.4 697.251 37.12 697.251 33.96C697.251 30.8 699.471 28.5 702.511 28.5ZM709.418 39V24.3H710.938V32.98L715.338 28.9H717.398L712.338 33.6L717.598 39H715.538L710.938 34.22V39H709.418ZM717.531 39H727.531V40.3H717.531V39ZM728.751 28.9H730.271V39H728.751V28.9ZM729.511 27.04C728.891 27.04 728.471 26.6 728.471 26C728.471 25.4 728.891 24.98 729.511 24.98C730.111 24.98 730.551 25.4 730.551 26C730.551 26.6 730.111 27.04 729.511 27.04ZM737.887 29.98C735.647 29.98 734.027 31.66 734.027 33.96C734.027 36.28 735.667 37.92 737.887 37.92C740.127 37.92 741.747 36.24 741.747 33.96C741.747 31.66 740.127 29.98 737.887 29.98ZM732.507 33.96C732.507 30.8 734.707 28.5 737.727 28.5C739.427 28.5 740.847 29.3 741.707 30.6V24.3H743.227V39H741.747V37.26C740.887 38.58 739.447 39.4 737.727 39.4C734.707 39.4 732.507 37.1 732.507 33.96ZM756.9 27.3H754.62V32.38H756.9C758.74 32.38 760.02 31.32 760.02 29.84C760.02 28.34 758.74 27.3 756.9 27.3ZM757.5 34.92H754.62V39H751.38V24.76H757.54C760.98 24.76 763.38 26.86 763.38 29.84C763.38 32.84 760.98 34.92 757.5 34.92ZM765.155 39V24.76H768.515V30.44L773.255 24.76H777.315L771.495 31.48L777.435 39H773.355L768.515 32.62V39H765.155Z" fill="black"/>
<path d="M682.72 165H680.58L676.66 154.9H678.3L681.64 163.78L684.98 154.9H686.62L682.72 165ZM688.509 154.9H690.029V165H688.509V154.9ZM689.269 153.04C688.649 153.04 688.229 152.6 688.229 152C688.229 151.4 688.649 150.98 689.269 150.98C689.869 150.98 690.309 151.4 690.309 152C690.309 152.6 689.869 153.04 689.269 153.04ZM701.045 162.1C701.045 164 699.285 165.4 696.885 165.4C694.285 165.4 692.405 163.8 692.405 161.62H693.905C693.905 163.02 695.145 164.02 696.865 164.02C698.425 164.02 699.565 163.26 699.565 162.24C699.545 160.98 697.785 160.7 696.685 160.54C694.385 160.18 692.605 159.86 692.625 157.58C692.625 155.8 694.305 154.5 696.485 154.5C698.985 154.5 700.805 155.94 700.825 157.92L699.325 157.9C699.305 156.74 698.105 155.9 696.465 155.9C695.165 155.9 694.105 156.62 694.105 157.62C694.105 158.52 694.945 158.82 696.785 159.12C698.645 159.44 701.025 159.86 701.045 162.1ZM703.344 154.9H704.864V165H703.344V154.9ZM704.104 153.04C703.484 153.04 703.064 152.6 703.064 152C703.064 151.4 703.484 150.98 704.104 150.98C704.704 150.98 705.144 151.4 705.144 152C705.144 152.6 704.704 153.04 704.104 153.04ZM708.52 162.5V156.16H706.86V154.9H708.58L708.8 152.54H710.04V154.9H712.66V156.16H710.04V162.44C710.04 163.42 710.64 164.08 711.6 164.1C711.92 164.1 712.44 164.02 712.82 163.9V165.16C712.36 165.3 711.72 165.4 711.22 165.4C709.56 165.4 708.52 164.24 708.52 162.5ZM713.234 165H723.234V166.3H713.234V165ZM724.454 154.9H725.974V165H724.454V154.9ZM725.214 153.04C724.594 153.04 724.174 152.6 724.174 152C724.174 151.4 724.594 150.98 725.214 150.98C725.814 150.98 726.254 151.4 726.254 152C726.254 152.6 725.814 153.04 725.214 153.04ZM733.591 155.98C731.351 155.98 729.731 157.66 729.731 159.96C729.731 162.28 731.371 163.92 733.591 163.92C735.831 163.92 737.451 162.24 737.451 159.96C737.451 157.66 735.831 155.98 733.591 155.98ZM728.211 159.96C728.211 156.8 730.411 154.5 733.431 154.5C735.131 154.5 736.551 155.3 737.411 156.6V150.3H738.931V165H737.451V163.26C736.591 164.58 735.151 165.4 733.431 165.4C730.411 165.4 728.211 163.1 728.211 159.96ZM752.603 153.3H750.323V158.38H752.603C754.443 158.38 755.723 157.32 755.723 155.84C755.723 154.34 754.443 153.3 752.603 153.3ZM753.203 160.92H750.323V165H747.083V150.76H753.243C756.683 150.76 759.083 152.86 759.083 155.84C759.083 158.84 756.683 160.92 753.203 160.92ZM760.858 165V150.76H764.218V156.44L768.958 150.76H773.018L767.198 157.48L773.138 165H769.058L764.218 158.62V165H760.858Z" fill="black"/>
<path d="M682.28 50.5C684.72 50.5 686.78 52.06 687.16 54.2L685.68 54.4C685.3 52.92 683.88 51.84 682.28 51.84C680.16 51.84 678.54 53.58 678.54 55.96C678.54 58.34 680.14 60.06 682.28 60.06C683.92 60.06 685.28 59 685.68 57.56L687.18 57.76C686.72 59.88 684.66 61.4 682.28 61.4C679.22 61.4 677.02 59.12 677.02 55.96C677.02 52.8 679.24 50.5 682.28 50.5ZM689.167 46.3H690.707V61H689.167V46.3ZM693.495 50.9H695.015V61H693.495V50.9ZM694.255 49.04C693.635 49.04 693.215 48.6 693.215 48C693.215 47.4 693.635 46.98 694.255 46.98C694.855 46.98 695.295 47.4 695.295 48C695.295 48.6 694.855 49.04 694.255 49.04ZM702.511 50.5C704.951 50.5 707.011 52.06 707.391 54.2L705.911 54.4C705.531 52.92 704.111 51.84 702.511 51.84C700.391 51.84 698.771 53.58 698.771 55.96C698.771 58.34 700.371 60.06 702.511 60.06C704.151 60.06 705.511 59 705.911 57.56L707.411 57.76C706.951 59.88 704.891 61.4 702.511 61.4C699.451 61.4 697.251 59.12 697.251 55.96C697.251 52.8 699.471 50.5 702.511 50.5ZM709.418 61V46.3H710.938V54.98L715.338 50.9H717.398L712.338 55.6L717.598 61H715.538L710.938 56.22V61H709.418ZM717.531 61H727.531V62.3H717.531V61ZM733.331 51.98C731.091 51.98 729.471 53.66 729.471 55.96C729.471 58.28 731.111 59.92 733.331 59.92C735.571 59.92 737.191 58.24 737.191 55.96C737.191 53.66 735.571 51.98 733.331 51.98ZM727.951 55.96C727.951 52.8 730.151 50.5 733.171 50.5C734.871 50.5 736.291 51.3 737.151 52.6V46.3H738.671V61H737.191V59.26C736.331 60.58 734.891 61.4 733.171 61.4C730.151 61.4 727.951 59.1 727.951 55.96ZM746.052 60.02C748.272 60.02 749.912 58.3 749.912 55.96C749.912 53.6 748.272 51.9 746.052 51.9C743.812 51.9 742.192 53.6 742.192 55.96C742.192 58.3 743.812 60.02 746.052 60.02ZM749.932 52.7V50.9H751.452V61H749.932V59.22C749.072 60.56 747.612 61.4 745.872 61.4C742.852 61.4 740.672 59.1 740.672 55.96C740.672 52.8 742.852 50.5 745.872 50.5C747.612 50.5 749.072 51.34 749.932 52.7ZM754.87 58.5V52.16H753.21V50.9H754.93L755.15 48.54H756.39V50.9H759.01V52.16H756.39V58.44C756.39 59.42 756.99 60.08 757.95 60.1C758.27 60.1 758.79 60.02 759.17 59.9V61.16C758.71 61.3 758.07 61.4 757.57 61.4C755.91 61.4 754.87 60.24 754.87 58.5ZM762.204 55.12L769.664 55.14C769.384 53.22 767.904 51.9 765.904 51.9C763.944 51.9 762.484 53.22 762.204 55.12ZM760.604 55.84C760.604 52.76 762.844 50.5 765.964 50.5C769.044 50.5 771.264 52.76 771.264 55.86C771.264 56.04 771.264 56.24 771.244 56.46L762.164 56.44C762.404 58.56 763.924 60.02 765.924 60.02C767.484 60.02 768.964 59.06 769.424 57.74L770.924 57.98C770.304 59.96 768.224 61.4 765.984 61.4C762.864 61.4 760.604 59.06 760.604 55.84Z" fill="black"/>
<path d="M682.72 187H680.58L676.66 176.9H678.3L681.64 185.78L684.98 176.9H686.62L682.72 187ZM688.509 176.9H690.029V187H688.509V176.9ZM689.269 175.04C688.649 175.04 688.229 174.6 688.229 174C688.229 173.4 688.649 172.98 689.269 172.98C689.869 172.98 690.309 173.4 690.309 174C690.309 174.6 689.869 175.04 689.269 175.04ZM701.045 184.1C701.045 186 699.285 187.4 696.885 187.4C694.285 187.4 692.405 185.8 692.405 183.62H693.905C693.905 185.02 695.145 186.02 696.865 186.02C698.425 186.02 699.565 185.26 699.565 184.24C699.545 182.98 697.785 182.7 696.685 182.54C694.385 182.18 692.605 181.86 692.625 179.58C692.625 177.8 694.305 176.5 696.485 176.5C698.985 176.5 700.805 177.94 700.825 179.92L699.325 179.9C699.305 178.74 698.105 177.9 696.465 177.9C695.165 177.9 694.105 178.62 694.105 179.62C694.105 180.52 694.945 180.82 696.785 181.12C698.645 181.44 701.025 181.86 701.045 184.1ZM703.344 176.9H704.864V187H703.344V176.9ZM704.104 175.04C703.484 175.04 703.064 174.6 703.064 174C703.064 173.4 703.484 172.98 704.104 172.98C704.704 172.98 705.144 173.4 705.144 174C705.144 174.6 704.704 175.04 704.104 175.04ZM708.52 184.5V178.16H706.86V176.9H708.58L708.8 174.54H710.04V176.9H712.66V178.16H710.04V184.44C710.04 185.42 710.64 186.08 711.6 186.1C711.92 186.1 712.44 186.02 712.82 185.9V187.16C712.36 187.3 711.72 187.4 711.22 187.4C709.56 187.4 708.52 186.24 708.52 184.5ZM713.234 187H723.234V188.3H713.234V187ZM729.034 177.98C726.794 177.98 725.174 179.66 725.174 181.96C725.174 184.28 726.814 185.92 729.034 185.92C731.274 185.92 732.894 184.24 732.894 181.96C732.894 179.66 731.274 177.98 729.034 177.98ZM723.654 181.96C723.654 178.8 725.854 176.5 728.874 176.5C730.574 176.5 731.994 177.3 732.854 178.6V172.3H734.374V187H732.894V185.26C732.034 186.58 730.594 187.4 728.874 187.4C725.854 187.4 723.654 185.1 723.654 181.96ZM741.755 186.02C743.975 186.02 745.615 184.3 745.615 181.96C745.615 179.6 743.975 177.9 741.755 177.9C739.515 177.9 737.895 179.6 737.895 181.96C737.895 184.3 739.515 186.02 741.755 186.02ZM745.635 178.7V176.9H747.155V187H745.635V185.22C744.775 186.56 743.315 187.4 741.575 187.4C738.555 187.4 736.375 185.1 736.375 181.96C736.375 178.8 738.555 176.5 741.575 176.5C743.315 176.5 744.775 177.34 745.635 178.7ZM750.574 184.5V178.16H748.914V176.9H750.634L750.854 174.54H752.094V176.9H754.714V178.16H752.094V184.44C752.094 185.42 752.694 186.08 753.654 186.1C753.974 186.1 754.494 186.02 754.874 185.9V187.16C754.414 187.3 753.774 187.4 753.274 187.4C751.614 187.4 750.574 186.24 750.574 184.5ZM757.907 181.12L765.367 181.14C765.087 179.22 763.607 177.9 761.607 177.9C759.647 177.9 758.187 179.22 757.907 181.12ZM756.307 181.84C756.307 178.76 758.547 176.5 761.667 176.5C764.747 176.5 766.967 178.76 766.967 181.86C766.967 182.04 766.967 182.24 766.947 182.46L757.867 182.44C758.107 184.56 759.627 186.02 761.627 186.02C763.187 186.02 764.667 185.06 765.127 183.74L766.627 183.98C766.007 185.96 763.927 187.4 761.687 187.4C758.567 187.4 756.307 185.06 756.307 181.84Z" fill="black"/>
<path d="M678.06 84.24C677.44 84.24 677.02 83.82 677.02 83.2C677.02 82.62 677.44 82.18 678.06 82.18C678.66 82.18 679.1 82.62 679.1 83.2C679.1 83.82 678.66 84.24 678.06 84.24ZM681.581 84.24C680.961 84.24 680.541 83.82 680.541 83.2C680.541 82.62 680.961 82.18 681.581 82.18C682.181 82.18 682.621 82.62 682.621 83.2C682.621 83.82 682.181 84.24 681.581 84.24ZM685.102 84.24C684.482 84.24 684.062 83.82 684.062 83.2C684.062 82.62 684.482 82.18 685.102 82.18C685.702 82.18 686.142 82.62 686.142 83.2C686.142 83.82 685.702 84.24 685.102 84.24Z" fill="black"/>
<path d="M678.06 210.24C677.44 210.24 677.02 209.82 677.02 209.2C677.02 208.62 677.44 208.18 678.06 208.18C678.66 208.18 679.1 208.62 679.1 209.2C679.1 209.82 678.66 210.24 678.06 210.24ZM681.581 210.24C680.961 210.24 680.541 209.82 680.541 209.2C680.541 208.62 680.961 208.18 681.581 208.18C682.181 208.18 682.621 208.62 682.621 209.2C682.621 209.82 682.181 210.24 681.581 210.24ZM685.102 210.24C684.482 210.24 684.062 209.82 684.062 209.2C684.062 208.62 684.482 208.18 685.102 208.18C685.702 208.18 686.142 208.62 686.142 209.2C686.142 209.82 685.702 210.24 685.102 210.24Z" fill="black"/>
<path d="M285.547 89.6277C285.341 90.4302 285.825 91.2475 286.628 91.4531L299.705 94.8035C300.508 95.0091 301.325 94.5252 301.531 93.7227C301.736 92.9202 301.252 92.103 300.45 91.8974L288.825 88.9192L291.804 77.2946C292.009 76.4921 291.525 75.6749 290.723 75.4693C289.92 75.2637 289.103 75.7476 288.897 76.5501L285.547 89.6277ZM362.236 43.7093L286.236 88.7093L287.764 91.2907L363.764 46.2907L362.236 43.7093Z" fill="#717171"/>
<path d="M286.628 123.547C285.825 123.753 285.341 124.57 285.547 125.372L288.897 138.45C289.103 139.252 289.92 139.736 290.723 139.531C291.525 139.325 292.009 138.508 291.804 137.705L288.825 126.081L300.45 123.103C301.252 122.897 301.736 122.08 301.531 121.277C301.325 120.475 300.508 119.991 299.705 120.196L286.628 123.547ZM363.764 168.709L287.764 123.709L286.236 126.291L362.236 171.291L363.764 168.709Z" fill="#717171"/>
</svg>
