<svg width="724" height="307" viewBox="0 0 724 307" fill="none" xmlns="http://www.w3.org/2000/svg">
<rect x="437.5" y="0.5" width="286" height="89" rx="19.5" fill="#76F5BC" stroke="#ACACAC"/>
<rect x="0.5" y="0.5" width="286" height="89" rx="19.5" fill="#D8FF29" stroke="#ACACAC"/>
<path d="M78.675 52.775C81.65 52.775 84.275 50.8 84.975 48.125L87 48.5C86.125 52.025 82.65 54.625 78.675 54.625C73.375 54.625 69.525 50.675 69.525 45.2C69.525 39.725 73.375 35.75 78.675 35.75C82.65 35.75 86.15 38.475 87 42.175L84.95 42.425C84.3 39.675 81.675 37.6 78.675 37.6C74.55 37.6 71.6 40.775 71.6 45.2C71.625 49.6 74.575 52.775 78.675 52.775ZM102.957 46.85V36.375H105.032V46.85C105.032 51.4 102.082 54.625 97.9072 54.625C93.7072 54.625 90.7572 51.4 90.7572 46.85V36.375H92.8322V46.85C92.8322 50.075 94.8322 52.775 97.9072 52.775C100.932 52.775 102.957 50.325 102.957 46.85ZM123.133 48.875C123.133 52.225 120.483 54.625 116.333 54.625C112.008 54.625 108.908 51.975 108.883 48.3H110.958C110.958 50.9 113.183 52.775 116.358 52.775C119.258 52.775 121.033 51.25 121.033 49.125C121.033 46.775 118.533 46.425 115.808 46.075C112.533 45.625 109.158 45.1 109.158 41.175C109.158 38.05 111.833 35.75 115.808 35.75C119.833 35.75 122.758 38.25 122.783 41.725H120.758C120.758 39.325 118.683 37.6 115.808 37.6C113.058 37.6 111.258 39.025 111.258 41C111.258 43.35 113.608 43.725 116.383 44.1C119.608 44.55 123.133 45.075 123.133 48.875ZM131.237 54V38.225H125.337V36.375H139.212V38.225H133.312V54H131.237ZM149.85 54.625C144.3 54.625 140.375 50.725 140.375 45.2C140.375 39.675 144.3 35.75 149.85 35.75C155.4 35.75 159.35 39.675 159.35 45.2C159.35 50.725 155.4 54.625 149.85 54.625ZM149.85 37.6C145.55 37.6 142.45 40.775 142.45 45.2C142.45 49.6 145.55 52.75 149.85 52.775C154.175 52.775 157.25 49.6 157.25 45.2C157.25 40.775 154.175 37.6 149.85 37.6ZM165.297 39.05V54H163.222V36.375H166.222L172.647 51.175L179.122 36.375H182.122V54H180.047V39.025L173.497 54H171.822L165.297 39.05ZM188.904 45.75V52.15H199.154V54H186.879V36.375H198.904V38.225H188.904V44H197.904V45.75H188.904ZM210.617 38.225H205.067V45.5H210.617C213.217 45.5 215.067 44.025 215.067 41.925C215.067 39.625 213.217 38.225 210.617 38.225ZM205.067 47.35V54H202.992V36.375H210.767C214.492 36.375 217.142 38.675 217.142 41.925C217.142 44.375 215.342 46.5 212.792 47.05L217.292 54H214.867L210.692 47.35H205.067Z" fill="black"/>
<path d="M56.85 121.875C59.9 121.875 62.475 123.825 62.95 126.5L61.1 126.75C60.625 124.9 58.85 123.55 56.85 123.55C54.2 123.55 52.175 125.725 52.175 128.7C52.175 131.675 54.175 133.825 56.85 133.825C58.9 133.825 60.6 132.5 61.1 130.7L62.975 130.95C62.4 133.6 59.825 135.5 56.85 135.5C53.025 135.5 50.275 132.65 50.275 128.7C50.275 124.75 53.05 121.875 56.85 121.875ZM76.6588 135H74.7588V133.225C73.9088 134.625 72.1838 135.5 70.4338 135.5C67.2088 135.5 65.2338 133.15 65.2338 129.925V122.375H67.1338V129.925C67.1338 132.15 68.4088 133.775 70.6588 133.775C72.8588 133.775 74.7588 132.075 74.7588 129.775V122.375H76.6588V135ZM90.1455 131.375C90.1455 133.75 87.9455 135.5 84.9455 135.5C81.6955 135.5 79.3455 133.5 79.3455 130.775H81.2205C81.2205 132.525 82.7705 133.775 84.9205 133.775C86.8705 133.775 88.2955 132.825 88.2955 131.55C88.2705 129.975 86.0705 129.625 84.6955 129.425C81.8205 128.975 79.5955 128.575 79.6205 125.725C79.6205 123.5 81.7205 121.875 84.4455 121.875C87.5705 121.875 89.8455 123.675 89.8705 126.15L87.9955 126.125C87.9705 124.675 86.4705 123.625 84.4205 123.625C82.7955 123.625 81.4705 124.525 81.4705 125.775C81.4705 126.9 82.5205 127.275 84.8205 127.65C87.1455 128.05 90.1205 128.575 90.1455 131.375ZM93.0373 131.875V123.95H90.9623V122.375H93.1123L93.3873 119.425H94.9373V122.375H98.2123V123.95H94.9373V131.8C94.9373 133.025 95.6873 133.85 96.8873 133.875C97.2873 133.875 97.9373 133.775 98.4123 133.625V135.2C97.8373 135.375 97.0373 135.5 96.4123 135.5C94.3373 135.5 93.0373 134.05 93.0373 131.875ZM106.905 121.875C110.855 121.875 113.655 124.7 113.655 128.7C113.655 132.675 110.855 135.5 106.905 135.5C102.955 135.5 100.18 132.675 100.18 128.7C100.18 124.7 102.955 121.875 106.905 121.875ZM106.905 133.775C109.705 133.775 111.73 131.625 111.73 128.7C111.73 125.75 109.705 123.625 106.905 123.625C104.105 123.625 102.08 125.75 102.08 128.7C102.08 131.625 104.105 133.775 106.905 133.775ZM118.021 135H116.121V122.375H117.971V123.95C118.771 122.65 120.096 121.875 121.721 121.875C123.796 121.875 125.496 122.925 126.196 124.525C126.996 122.925 128.571 121.9 130.571 121.9C133.521 121.9 135.621 124.2 135.621 127.45V135H133.696V127.425C133.696 125.2 132.296 123.625 130.346 123.625C128.246 123.625 126.796 125.2 126.796 127.425V135H124.896V127.425C124.896 125.15 123.571 123.625 121.546 123.625C119.446 123.625 118.021 125.15 118.021 127.425V135ZM139.865 127.65L149.19 127.675C148.84 125.275 146.99 123.625 144.49 123.625C142.04 123.625 140.215 125.275 139.865 127.65ZM137.865 128.55C137.865 124.7 140.665 121.875 144.565 121.875C148.415 121.875 151.19 124.7 151.19 128.575C151.19 128.8 151.19 129.05 151.165 129.325L139.815 129.3C140.115 131.95 142.015 133.775 144.515 133.775C146.465 133.775 148.315 132.575 148.89 130.925L150.765 131.225C149.99 133.7 147.39 135.5 144.59 135.5C140.69 135.5 137.865 132.575 137.865 128.55ZM153.684 122.375H155.534V124.125C156.284 122.75 157.484 121.925 159.034 121.925C159.559 121.925 160.159 122.05 160.734 122.275V124.025C160.084 123.725 159.359 123.625 158.859 123.625C156.884 123.625 155.584 125.4 155.584 127.925V135H153.684V122.375ZM159.04 135H171.54V136.625H159.04V135ZM173.065 122.375H174.965V135H173.065V122.375ZM174.015 120.05C173.24 120.05 172.715 119.5 172.715 118.75C172.715 118 173.24 117.475 174.015 117.475C174.765 117.475 175.315 118 175.315 118.75C175.315 119.5 174.765 120.05 174.015 120.05ZM184.485 123.725C181.685 123.725 179.66 125.825 179.66 128.7C179.66 131.6 181.71 133.65 184.485 133.65C187.285 133.65 189.31 131.55 189.31 128.7C189.31 125.825 187.285 123.725 184.485 123.725ZM177.76 128.7C177.76 124.75 180.51 121.875 184.285 121.875C186.41 121.875 188.185 122.875 189.26 124.5V116.625H191.16V135H189.31V132.825C188.235 134.475 186.435 135.5 184.285 135.5C180.51 135.5 177.76 132.625 177.76 128.7ZM208.251 120.375H205.401V126.725H208.251C210.551 126.725 212.151 125.4 212.151 123.55C212.151 121.675 210.551 120.375 208.251 120.375ZM209.001 129.9H205.401V135H201.351V117.2H209.051C213.351 117.2 216.351 119.825 216.351 123.55C216.351 127.3 213.351 129.9 209.001 129.9ZM218.57 135V117.2H222.77V124.3L228.695 117.2H233.77L226.495 125.6L233.92 135H228.82L222.77 127.025V135H218.57Z" fill="black"/>
<path d="M487.85 122.875C490.9 122.875 493.475 124.825 493.95 127.5L492.1 127.75C491.625 125.9 489.85 124.55 487.85 124.55C485.2 124.55 483.175 126.725 483.175 129.7C483.175 132.675 485.175 134.825 487.85 134.825C489.9 134.825 491.6 133.5 492.1 131.7L493.975 131.95C493.4 134.6 490.825 136.5 487.85 136.5C484.025 136.5 481.275 133.65 481.275 129.7C481.275 125.75 484.05 122.875 487.85 122.875ZM507.659 136H505.759V134.225C504.909 135.625 503.184 136.5 501.434 136.5C498.209 136.5 496.234 134.15 496.234 130.925V123.375H498.134V130.925C498.134 133.15 499.409 134.775 501.659 134.775C503.859 134.775 505.759 133.075 505.759 130.775V123.375H507.659V136ZM521.146 132.375C521.146 134.75 518.946 136.5 515.946 136.5C512.696 136.5 510.346 134.5 510.346 131.775H512.221C512.221 133.525 513.771 134.775 515.921 134.775C517.871 134.775 519.296 133.825 519.296 132.55C519.271 130.975 517.071 130.625 515.696 130.425C512.821 129.975 510.596 129.575 510.621 126.725C510.621 124.5 512.721 122.875 515.446 122.875C518.571 122.875 520.846 124.675 520.871 127.15L518.996 127.125C518.971 125.675 517.471 124.625 515.421 124.625C513.796 124.625 512.471 125.525 512.471 126.775C512.471 127.9 513.521 128.275 515.821 128.65C518.146 129.05 521.121 129.575 521.146 132.375ZM524.037 132.875V124.95H521.962V123.375H524.112L524.387 120.425H525.937V123.375H529.212V124.95H525.937V132.8C525.937 134.025 526.687 134.85 527.887 134.875C528.287 134.875 528.937 134.775 529.412 134.625V136.2C528.837 136.375 528.037 136.5 527.412 136.5C525.337 136.5 524.037 135.05 524.037 132.875ZM537.905 122.875C541.855 122.875 544.655 125.7 544.655 129.7C544.655 133.675 541.855 136.5 537.905 136.5C533.955 136.5 531.18 133.675 531.18 129.7C531.18 125.7 533.955 122.875 537.905 122.875ZM537.905 134.775C540.705 134.775 542.73 132.625 542.73 129.7C542.73 126.75 540.705 124.625 537.905 124.625C535.105 124.625 533.08 126.75 533.08 129.7C533.08 132.625 535.105 134.775 537.905 134.775ZM549.021 136H547.121V123.375H548.971V124.95C549.771 123.65 551.096 122.875 552.721 122.875C554.796 122.875 556.496 123.925 557.196 125.525C557.996 123.925 559.571 122.9 561.571 122.9C564.521 122.9 566.621 125.2 566.621 128.45V136H564.696V128.425C564.696 126.2 563.296 124.625 561.346 124.625C559.246 124.625 557.796 126.2 557.796 128.425V136H555.896V128.425C555.896 126.15 554.571 124.625 552.546 124.625C550.446 124.625 549.021 126.15 549.021 128.425V136ZM570.865 128.65L580.19 128.675C579.84 126.275 577.99 124.625 575.49 124.625C573.04 124.625 571.215 126.275 570.865 128.65ZM568.865 129.55C568.865 125.7 571.665 122.875 575.565 122.875C579.415 122.875 582.19 125.7 582.19 129.575C582.19 129.8 582.19 130.05 582.165 130.325L570.815 130.3C571.115 132.95 573.015 134.775 575.515 134.775C577.465 134.775 579.315 133.575 579.89 131.925L581.765 132.225C580.99 134.7 578.39 136.5 575.59 136.5C571.69 136.5 568.865 133.575 568.865 129.55ZM584.684 123.375H586.534V125.125C587.284 123.75 588.484 122.925 590.034 122.925C590.559 122.925 591.159 123.05 591.734 123.275V125.025C591.084 124.725 590.359 124.625 589.859 124.625C587.884 124.625 586.584 126.4 586.584 128.925V136H584.684V123.375ZM590.04 136H602.54V137.625H590.04V136ZM604.065 123.375H605.965V136H604.065V123.375ZM605.015 121.05C604.24 121.05 603.715 120.5 603.715 119.75C603.715 119 604.24 118.475 605.015 118.475C605.765 118.475 606.315 119 606.315 119.75C606.315 120.5 605.765 121.05 605.015 121.05ZM615.485 124.725C612.685 124.725 610.66 126.825 610.66 129.7C610.66 132.6 612.71 134.65 615.485 134.65C618.285 134.65 620.31 132.55 620.31 129.7C620.31 126.825 618.285 124.725 615.485 124.725ZM608.76 129.7C608.76 125.75 611.51 122.875 615.285 122.875C617.41 122.875 619.185 123.875 620.26 125.5V117.625H622.16V136H620.31V133.825C619.235 135.475 617.435 136.5 615.285 136.5C611.51 136.5 608.76 133.625 608.76 129.7ZM643.001 129.625H636.551V136H632.351V118.2H644.476V121.8H636.551V126.425H643.001V129.625ZM646.543 136V118.2H650.743V125.3L656.668 118.2H661.743L654.468 126.6L661.893 136H656.793L650.743 128.025V136H646.543Z" fill="black"/>
<path d="M482.275 157.375H484.175V170H482.275V157.375ZM483.225 155.05C482.45 155.05 481.925 154.5 481.925 153.75C481.925 153 482.45 152.475 483.225 152.475C483.975 152.475 484.525 153 484.525 153.75C484.525 154.5 483.975 155.05 483.225 155.05ZM493.695 158.725C490.895 158.725 488.87 160.825 488.87 163.7C488.87 166.6 490.92 168.65 493.695 168.65C496.495 168.65 498.52 166.55 498.52 163.7C498.52 160.825 496.495 158.725 493.695 158.725ZM486.97 163.7C486.97 159.75 489.72 156.875 493.495 156.875C495.62 156.875 497.395 157.875 498.47 159.5V151.625H500.37V170H498.52V167.825C497.445 169.475 495.645 170.5 493.495 170.5C489.72 170.5 486.97 167.625 486.97 163.7ZM517.461 155.375H514.611V161.725H517.461C519.761 161.725 521.361 160.4 521.361 158.55C521.361 156.675 519.761 155.375 517.461 155.375ZM518.211 164.9H514.611V170H510.561V152.2H518.261C522.561 152.2 525.561 154.825 525.561 158.55C525.561 162.3 522.561 164.9 518.211 164.9ZM527.78 170V152.2H531.98V159.3L537.905 152.2H542.98L535.705 160.6L543.13 170H538.03L531.98 162.025V170H527.78Z" fill="black"/>
<path d="M488 192.725C485.2 192.725 483.175 194.825 483.175 197.7C483.175 200.6 485.225 202.65 488 202.65C490.8 202.65 492.825 200.55 492.825 197.7C492.825 194.825 490.8 192.725 488 192.725ZM481.275 197.7C481.275 193.75 484.025 190.875 487.8 190.875C489.925 190.875 491.7 191.875 492.775 193.5V185.625H494.675V204H492.825V201.825C491.75 203.475 489.95 204.5 487.8 204.5C484.025 204.5 481.275 201.625 481.275 197.7ZM503.9 202.775C506.675 202.775 508.725 200.625 508.725 197.7C508.725 194.75 506.675 192.625 503.9 192.625C501.1 192.625 499.075 194.75 499.075 197.7C499.075 200.625 501.1 202.775 503.9 202.775ZM508.75 193.625V191.375H510.65V204H508.75V201.775C507.675 203.45 505.85 204.5 503.675 204.5C499.9 204.5 497.175 201.625 497.175 197.7C497.175 193.75 499.9 190.875 503.675 190.875C505.85 190.875 507.675 191.925 508.75 193.625ZM514.924 200.875V192.95H512.849V191.375H514.999L515.274 188.425H516.824V191.375H520.099V192.95H516.824V200.8C516.824 202.025 517.574 202.85 518.774 202.875C519.174 202.875 519.824 202.775 520.299 202.625V204.2C519.724 204.375 518.924 204.5 518.299 204.5C516.224 204.5 514.924 203.05 514.924 200.875ZM524.091 196.65L533.416 196.675C533.066 194.275 531.216 192.625 528.716 192.625C526.266 192.625 524.441 194.275 524.091 196.65ZM522.091 197.55C522.091 193.7 524.891 190.875 528.791 190.875C532.641 190.875 535.416 193.7 535.416 197.575C535.416 197.8 535.416 198.05 535.391 198.325L524.041 198.3C524.341 200.95 526.241 202.775 528.741 202.775C530.691 202.775 532.541 201.575 533.116 199.925L534.991 200.225C534.216 202.7 531.616 204.5 528.816 204.5C524.916 204.5 522.091 201.575 522.091 197.55Z" fill="black"/>
<path d="M483.05 234.875V226.95H480.975V225.375H483.125L483.4 222.425H484.95V225.375H488.225V226.95H484.95V234.8C484.95 236.025 485.7 236.85 486.9 236.875C487.3 236.875 487.95 236.775 488.425 236.625V238.2C487.85 238.375 487.05 238.5 486.425 238.5C484.35 238.5 483.05 237.05 483.05 234.875ZM490.542 243.2V241.525C491.117 241.725 491.742 241.875 492.217 241.875C494.067 241.875 494.617 239.875 495.442 237.975L489.767 225.375H491.867L496.367 235.625L500.317 225.375H502.342L497.317 238.175C496.167 241.05 495.142 243.575 492.492 243.575C491.867 243.575 491.117 243.425 490.542 243.2ZM511.076 236.65C513.876 236.65 515.901 234.55 515.901 231.7C515.901 228.775 513.851 226.725 511.076 226.725C508.276 226.725 506.251 228.825 506.251 231.7C506.251 234.55 508.276 236.65 511.076 236.65ZM517.801 231.7C517.801 235.625 515.076 238.5 511.301 238.5C509.151 238.5 507.376 237.525 506.301 235.875V243.75H504.401V225.375H506.251V227.55C507.326 225.9 509.126 224.875 511.301 224.875C515.051 224.875 517.801 227.75 517.801 231.7ZM521.601 230.65L530.926 230.675C530.576 228.275 528.726 226.625 526.226 226.625C523.776 226.625 521.951 228.275 521.601 230.65ZM519.601 231.55C519.601 227.7 522.401 224.875 526.301 224.875C530.151 224.875 532.926 227.7 532.926 231.575C532.926 231.8 532.926 232.05 532.901 232.325L521.551 232.3C521.851 234.95 523.751 236.775 526.251 236.775C528.201 236.775 530.051 235.575 530.626 233.925L532.501 234.225C531.726 236.7 529.126 238.5 526.326 238.5C522.426 238.5 519.601 235.575 519.601 231.55Z" fill="black"/>
<path d="M481.95 253.625H483.875V272H481.95V253.625ZM493.06 258.875C497.01 258.875 499.81 261.7 499.81 265.7C499.81 269.675 497.01 272.5 493.06 272.5C489.11 272.5 486.335 269.675 486.335 265.7C486.335 261.7 489.11 258.875 493.06 258.875ZM493.06 270.775C495.86 270.775 497.885 268.625 497.885 265.7C497.885 262.75 495.86 260.625 493.06 260.625C490.26 260.625 488.235 262.75 488.235 265.7C488.235 268.625 490.26 270.775 493.06 270.775ZM508.152 258.875C511.202 258.875 513.777 260.825 514.252 263.5L512.402 263.75C511.927 261.9 510.152 260.55 508.152 260.55C505.502 260.55 503.477 262.725 503.477 265.7C503.477 268.675 505.477 270.825 508.152 270.825C510.202 270.825 511.902 269.5 512.402 267.7L514.277 267.95C513.702 270.6 511.127 272.5 508.152 272.5C504.327 272.5 501.577 269.65 501.577 265.7C501.577 261.75 504.352 258.875 508.152 258.875ZM522.811 270.775C525.586 270.775 527.636 268.625 527.636 265.7C527.636 262.75 525.586 260.625 522.811 260.625C520.011 260.625 517.986 262.75 517.986 265.7C517.986 268.625 520.011 270.775 522.811 270.775ZM527.661 261.625V259.375H529.561V272H527.661V269.775C526.586 271.45 524.761 272.5 522.586 272.5C518.811 272.5 516.086 269.625 516.086 265.7C516.086 261.75 518.811 258.875 522.586 258.875C524.761 258.875 526.586 259.925 527.661 261.625ZM533.834 268.875V260.95H531.759V259.375H533.909L534.184 256.425H535.734V259.375H539.009V260.95H535.734V268.8C535.734 270.025 536.484 270.85 537.684 270.875C538.084 270.875 538.734 270.775 539.209 270.625V272.2C538.634 272.375 537.834 272.5 537.209 272.5C535.134 272.5 533.834 271.05 533.834 268.875ZM542.002 259.375H543.902V272H542.002V259.375ZM542.952 257.05C542.177 257.05 541.652 256.5 541.652 255.75C541.652 255 542.177 254.475 542.952 254.475C543.702 254.475 544.252 255 544.252 255.75C544.252 256.5 543.702 257.05 542.952 257.05ZM553.397 258.875C557.347 258.875 560.147 261.7 560.147 265.7C560.147 269.675 557.347 272.5 553.397 272.5C549.447 272.5 546.672 269.675 546.672 265.7C546.672 261.7 549.447 258.875 553.397 258.875ZM553.397 270.775C556.197 270.775 558.222 268.625 558.222 265.7C558.222 262.75 556.197 260.625 553.397 260.625C550.597 260.625 548.572 262.75 548.572 265.7C548.572 268.625 550.597 270.775 553.397 270.775ZM562.614 259.375H564.514V261.15C565.389 259.75 567.089 258.875 568.839 258.875C572.064 258.875 574.039 261.225 574.039 264.45V272H572.139V264.45C572.139 262.225 570.864 260.625 568.639 260.625C566.439 260.625 564.514 262.3 564.514 264.625V272H562.614V259.375Z" fill="black"/>
<path d="M482.575 306.3C481.8 306.3 481.275 305.775 481.275 305C481.275 304.275 481.8 303.725 482.575 303.725C483.325 303.725 483.875 304.275 483.875 305C483.875 305.775 483.325 306.3 482.575 306.3ZM486.976 306.3C486.201 306.3 485.676 305.775 485.676 305C485.676 304.275 486.201 303.725 486.976 303.725C487.726 303.725 488.276 304.275 488.276 305C488.276 305.775 487.726 306.3 486.976 306.3ZM491.378 306.3C490.603 306.3 490.078 305.775 490.078 305C490.078 304.275 490.603 303.725 491.378 303.725C492.128 303.725 492.678 304.275 492.678 305C492.678 305.775 492.128 306.3 491.378 306.3Z" fill="black"/>
<path d="M543.4 44.75V51.15H553.65V53H541.375V35.375H553.4V37.225H543.4V43H552.4V44.75H543.4ZM555.838 35.375H558.038L563.813 51.425L569.563 35.375H571.763L565.363 53H562.263L555.838 35.375ZM576.896 44.75V51.15H587.146V53H574.871V35.375H586.896V37.225H576.896V43H585.896V44.75H576.896ZM593.709 35.375L602.834 50.45V35.375H604.934V53H602.209L593.059 37.925V53H590.984V35.375H593.709ZM613.711 53V37.225H607.811V35.375H621.686V37.225H615.786V53H613.711Z" fill="black"/>
<path d="M285.939 43.9393C285.354 44.5251 285.354 45.4749 285.939 46.0607L295.485 55.6066C296.071 56.1924 297.021 56.1924 297.607 55.6066C298.192 55.0208 298.192 54.0711 297.607 53.4853L289.121 45L297.607 36.5147C298.192 35.9289 298.192 34.9792 297.607 34.3934C297.021 33.8076 296.071 33.8076 295.485 34.3934L285.939 43.9393ZM437 43.5L287 43.5V46.5L437 46.5V43.5Z" fill="#717171"/>
</svg>
