<svg width="359" height="262" viewBox="0 0 359 262" fill="none" xmlns="http://www.w3.org/2000/svg">
<path d="M299.09 106.312H294.891V104.212H299.09V106.312ZM290.692 106.312H286.492V104.212H290.692V106.312ZM282.293 106.312H278.094V104.212H282.293V106.312ZM273.895 106.312H269.695V104.212H273.895V106.312ZM265.496 106.312H261.297V104.212H265.496V106.312ZM257.097 106.312H253.248V104.212H257.097V106.312ZM109.283 106.312H105.084V104.212H109.283V106.312ZM100.884 106.312H96.6851V104.212H100.884V106.312ZM92.4858 106.312H88.2865V104.212H92.4858V106.312ZM84.0872 106.312H79.888V104.212H84.0872V106.312ZM75.6887 106.312H71.4894V104.212H75.6887V106.312ZM67.2901 106.312H63.0909V104.212H67.2901V106.312ZM58.8916 106.312H54.6923V104.212H58.8916V106.312ZM50.493 106.312H49.1982V101.308H51.2979V105.262H50.493V106.312ZM301.295 102.218H299.195V98.0183H301.295V102.218ZM51.2979 97.1084H49.1982V92.9092H51.2979V97.1084ZM301.295 93.819H299.195V89.6198H301.295V93.819ZM51.2979 88.7099H49.1982V84.5106H51.2979V88.7099ZM301.295 85.4205H299.195V81.2212H301.295V85.4205ZM51.2979 80.3113H49.1982V76.1121H51.2979V80.3113ZM301.295 77.0219H299.195V72.8227H301.295V77.0219ZM51.2979 71.9128H49.1982V67.7135H51.2979V71.9128ZM301.295 68.6234H299.195V64.4241H301.295V68.6234ZM51.2979 63.5142H49.1982V59.3149H51.2979V63.5142ZM301.295 60.2248H299.195V56.0255H301.295V60.2248ZM51.2979 55.1157H49.1982V50.9164H51.2979V55.1157ZM301.295 51.8263H299.195V47.627H301.295V51.8263ZM51.2979 46.7171H49.1982V42.5178H51.2979V46.7171ZM301.295 43.4277H299.195V39.2284H301.295V43.4277ZM51.2979 38.3186H49.1982V34.1193H51.2979V38.3186ZM301.295 35.0292H299.195V30.8299H301.295V35.0292ZM51.2979 29.92H49.1982V25.7207H51.2979V29.92ZM301.295 26.6306H299.195V26.2456H297.481V24.146H301.295V26.6306ZM293.281 26.2456H289.082V24.146H293.281V26.2456ZM284.883 26.2456H280.683V24.146H284.883V26.2456ZM276.484 26.2456H272.285V24.146H276.484V26.2456ZM268.086 26.2456H263.886V24.146H268.086V26.2456ZM259.687 26.2456H255.488V24.146H259.687V26.2456ZM251.288 26.2456H247.089V24.146H251.288V26.2456ZM242.89 26.2456H238.691V24.146H242.89V26.2456ZM234.491 26.2456H230.292V24.146H234.491V26.2456ZM226.093 26.2456H221.894V24.146H226.093V26.2456ZM217.694 26.2456H213.495V24.146H217.694V26.2456ZM209.296 26.2456H205.096V24.146H209.296V26.2456ZM200.897 26.2456H196.698V24.146H200.897V26.2456ZM192.499 26.2456H188.299V24.146H192.499V26.2456ZM184.1 26.2456H179.901V24.146H184.1V26.2456ZM175.701 26.2456H171.502V24.146H175.701V26.2456ZM167.303 26.2456H163.104V24.146H167.303V26.2456ZM158.904 26.2456H154.705V24.146H158.904V26.2456ZM150.506 26.2456H146.307V24.146H150.506V26.2456ZM142.107 26.2456H137.908V24.146H142.107V26.2456ZM133.709 26.2456H129.509V24.146H133.709V26.2456ZM125.31 26.2456H121.111V24.146H125.31V26.2456ZM116.912 26.2456H112.712V24.146H116.912V26.2456ZM108.513 26.2456H104.314V24.146H108.513V26.2456ZM100.114 26.2456H95.9152V24.146H100.114V26.2456ZM91.7159 26.2456H87.5167V24.146H91.7159V26.2456ZM83.3174 26.2456H79.1181V24.146H83.3174V26.2456ZM74.9188 26.2456H70.7195V24.146H74.9188V26.2456ZM66.5203 26.2456H62.321V24.146H66.5203V26.2456ZM58.1217 26.2456H53.9224V24.146H58.1217V26.2456Z" fill="#F5B3A5"/>
<path d="M88.9511 69.8127H11.6494V140.746H88.9511V69.8127Z" fill="white"/>
<path d="M90.0359 141.795H10.5996V68.7629H90.0359V141.795ZM12.6992 139.696H87.9363V70.8626H12.6992V139.696Z" fill="#F5B3A5"/>
<path d="M53.6417 79.6467C44.7532 78.4219 36.3197 81.9212 30.7906 88.1852C27.5712 91.8595 25.3666 96.4787 24.6317 101.658C23.9668 106.627 24.7367 111.456 26.6963 115.725C27.0813 116.6 27.5362 117.44 28.0261 118.245C31.8754 124.754 38.5943 129.548 46.6779 130.633C46.7829 130.633 46.9229 130.668 47.0278 130.668C47.2378 130.703 47.4478 130.703 47.6577 130.738C52.5919 131.228 57.3511 130.248 61.5503 128.183C68.9341 124.509 74.4631 117.37 75.6529 108.622C77.5776 94.589 67.7093 81.5713 53.6417 79.6467ZM62.6701 106.872C62.0403 111.561 58.8908 115.306 54.7615 116.915C53.1168 117.58 51.2971 117.86 49.4424 117.755C49.3024 117.755 49.1275 117.72 48.9875 117.72C48.8125 117.685 48.6376 117.685 48.4626 117.65C44.5783 117.125 41.3588 114.886 39.4341 111.771C38.9092 110.931 38.4893 110.021 38.1744 109.077C37.5795 107.292 37.4045 105.402 37.6494 103.408C37.9644 101.133 38.8742 99.1032 40.169 97.3885C42.8636 93.9241 47.2378 91.9645 51.892 92.5944C58.7858 93.5743 63.615 99.9431 62.6701 106.872Z" fill="white"/>
<path d="M50.1778 131.753C49.3029 131.753 48.4631 131.718 47.5882 131.613C47.3783 131.578 47.1683 131.578 46.9234 131.543C46.7834 131.543 46.6784 131.508 46.5384 131.508C38.4548 130.388 31.421 125.734 27.2567 118.7C26.7668 117.86 26.3119 116.985 25.892 116.11C23.8273 111.561 23.0925 106.522 23.7573 101.553C24.4572 96.3738 26.6618 91.5446 30.1262 87.6252C36.0402 80.8714 44.8937 77.5821 53.7472 78.8069C68.2697 80.8015 78.4879 94.2391 76.4933 108.797C75.3035 117.545 69.8444 125.104 61.9008 129.023C58.2614 130.808 54.2371 131.753 50.1778 131.753ZM50.1428 80.2765C43.039 80.2765 36.2502 83.3211 31.456 88.7801C28.2366 92.4545 26.1719 96.9336 25.507 101.798C24.8771 106.452 25.542 111.141 27.5017 115.376C27.8866 116.215 28.3066 117.02 28.7615 117.825C32.6458 124.404 39.2247 128.778 46.7834 129.793C46.8884 129.793 47.0283 129.828 47.1333 129.828C47.3433 129.863 47.5533 129.863 47.7632 129.898C52.3824 130.353 57.0016 129.513 61.1659 127.448C68.5846 123.774 73.6938 116.705 74.8136 108.552C76.6682 94.9741 67.1499 82.4112 53.5372 80.5566C52.3824 80.3466 51.2626 80.2765 50.1428 80.2765ZM50.1778 118.665C49.8978 118.665 49.6529 118.665 49.3729 118.63C49.198 118.63 49.058 118.595 48.883 118.595C48.6731 118.56 48.4981 118.56 48.3231 118.525C44.3338 117.965 40.8344 115.69 38.6998 112.261C38.1399 111.351 37.6849 110.371 37.335 109.357C36.7051 107.397 36.4951 105.367 36.7751 103.303C37.09 100.958 38.0349 98.7533 39.4696 96.8636C42.4441 93.0493 47.2383 91.0897 51.9975 91.7196C55.5669 92.2095 58.7513 94.0642 60.9209 96.9337C63.0906 99.8032 64.0354 103.373 63.5455 106.942C62.8806 111.771 59.6262 115.9 55.077 117.685C53.5022 118.35 51.8575 118.665 50.1778 118.665ZM50.1778 93.3992C46.5734 93.3992 43.109 95.079 40.8694 97.9835C39.6096 99.5932 38.8047 101.553 38.5248 103.583C38.2798 105.367 38.4548 107.152 39.0147 108.832C39.2947 109.706 39.7146 110.546 40.2045 111.351C42.0592 114.361 45.1387 116.32 48.6031 116.81C48.778 116.845 48.953 116.845 49.093 116.88C49.233 116.88 49.3729 116.915 49.5129 116.915C51.2276 117.02 52.8723 116.74 54.4471 116.11C58.4014 114.536 61.2359 110.966 61.8308 106.767C62.2507 103.653 61.4459 100.573 59.5562 98.0535C57.6665 95.534 54.902 93.9243 51.7875 93.5043C51.2276 93.4343 50.7027 93.3992 50.1778 93.3992Z" fill="#424DB3"/>
<path d="M61.5508 128.218C57.3865 130.283 52.5924 131.263 47.6582 130.773C47.4482 130.738 47.2383 130.738 47.0283 130.703L48.988 117.755C49.128 117.755 49.3029 117.79 49.4429 117.79C51.2976 117.895 53.1173 117.58 54.762 116.95L61.5508 128.218Z" fill="#F5B3A5"/>
<path d="M50.178 131.752C49.3031 131.752 48.4633 131.717 47.5884 131.613C47.3784 131.578 47.1685 131.577 46.9235 131.542L46.0137 131.438L48.2183 116.775L49.0581 116.845C49.1981 116.845 49.3381 116.88 49.4781 116.88C51.1928 116.985 52.8375 116.705 54.4122 116.075L55.1121 115.795L62.7758 128.533L61.9359 128.953C58.2616 130.808 54.2373 131.752 50.178 131.752ZM48.0433 129.898C52.2426 130.248 56.4769 129.548 60.3262 127.833L54.4122 117.965C52.9075 118.455 51.3328 118.7 49.758 118.63L48.0433 129.898Z" fill="#424DB3"/>
<path d="M26.6973 115.725L38.1403 109.076C38.4552 110.021 38.8752 110.931 39.4001 111.771C41.3247 114.85 44.5442 117.09 48.4285 117.65C48.7785 117.685 49.0934 117.72 49.4434 117.755L47.6587 130.737C47.3437 130.702 46.9938 130.667 46.6788 130.632C38.5952 129.513 31.9114 124.753 28.027 118.244C27.5371 117.44 27.0822 116.6 26.6973 115.725Z" fill="#4AE8A6"/>
<path d="M48.4294 131.717L47.5895 131.647C47.2396 131.612 46.8896 131.577 46.5747 131.542C38.4911 130.422 31.4573 125.768 27.293 118.734C26.8031 117.895 26.3482 117.02 25.9282 116.145L25.6133 115.41L38.666 107.816L39.016 108.831C39.2959 109.706 39.7159 110.546 40.2058 111.351C42.0605 114.36 45.1399 116.32 48.6043 116.81C48.9193 116.845 49.2342 116.88 49.5492 116.915L50.494 116.985L48.4294 131.717ZM27.8529 116.075C28.1328 116.67 28.4478 117.23 28.7977 117.79C32.6821 124.369 39.2609 128.743 46.8196 129.758C46.8546 129.758 46.8896 129.758 46.9596 129.758L48.4993 118.525C48.4643 118.525 48.4294 118.525 48.3594 118.525C44.3701 117.965 40.8357 115.69 38.701 112.261C38.3161 111.666 38.0012 111.036 37.7212 110.371L27.8529 116.075Z" fill="#424DB3"/>
<path d="M24.6685 101.658C25.3684 96.4786 27.608 91.8594 30.8275 88.1851L40.1709 97.4234C38.8411 99.1031 37.9662 101.168 37.6513 103.442C37.2314 106.452 37.9312 109.391 39.436 111.806L28.0279 118.245C25.1584 113.416 23.8287 107.642 24.6685 101.658Z" fill="#2A69EA"/>
<path d="M27.7127 119.434L27.2927 118.7C24.2133 113.486 22.9885 107.537 23.8283 101.553C24.5282 96.3735 26.7328 91.5443 30.1972 87.6249L30.7921 86.925L41.3603 97.3534L40.8704 97.9832C39.6106 99.5929 38.8058 101.553 38.5258 103.582C38.1409 106.277 38.7358 109.041 40.1705 111.386L40.6604 112.156L27.7127 119.434ZM30.8621 89.4797C27.9926 93.0141 26.1379 97.2482 25.543 101.762C24.8082 107.082 25.788 112.366 28.3776 117.055L38.2459 111.456C36.9161 108.971 36.3912 106.102 36.7761 103.302C37.0561 101.203 37.8259 99.243 39.0157 97.4933L30.8621 89.4797Z" fill="#424DB3"/>
<path d="M216.644 1.0498H138.117V45.6321H216.644V1.0498Z" fill="white"/>
<path d="M217.659 46.6819H137.067V0H217.693V46.6819H217.659ZM139.167 44.5823H215.594V2.09964H139.167V44.5823Z" fill="#F5B3A5"/>
<path d="M154.81 9.51831H145.502V18.8267H154.81V9.51831Z" fill="white"/>
<path d="M155.685 19.7016H144.627V8.64355H155.685V19.7016ZM146.377 17.9519H153.935V10.3933H146.377V17.9519Z" fill="#424DB3"/>
<path d="M173.391 9.51831H164.083V18.8267H173.391V9.51831Z" fill="#2A69EA"/>
<path d="M174.266 19.7016H163.208V8.64355H174.266V19.7016ZM164.958 17.9519H172.516V10.3933H164.958V17.9519Z" fill="#424DB3"/>
<path d="M193.058 9.51831H183.75V18.8267H193.058V9.51831Z" fill="#4AE8A6"/>
<path d="M193.899 19.7016H182.841V8.64355H193.899V19.7016ZM184.626 17.9519H192.184V10.3933H184.626V17.9519Z" fill="#424DB3"/>
<path d="M210.207 9.51807H200.898V18.8264H210.207V9.51807Z" fill="#F5B3A5"/>
<path d="M211.082 19.7014H200.023V8.64331H211.082V19.7014ZM201.773 17.9517H209.332V10.393H201.773V17.9517Z" fill="#424DB3"/>
<path d="M179.096 24.3909H145.502V26.1406H179.096V24.3909Z" fill="#424DB3"/>
<path d="M210.171 30.7947H145.502V32.5444H210.171V30.7947Z" fill="#424DB3"/>
<path d="M210.171 37.2336H145.502V38.9833H210.171V37.2336Z" fill="#424DB3"/>
<path d="M324.776 42.5876H275.26V89.8644H324.776V42.5876Z" fill="white"/>
<path d="M325.861 90.9142H274.245V41.5378H325.861V90.9142ZM276.31 88.8146H323.727V43.6375H276.31V88.8146Z" fill="#F5B3A5"/>
<path d="M315.433 61.9394C315.118 60.6796 314.593 59.4198 313.963 58.265L315.223 55.3256L310.814 51.0212L307.874 52.281C306.719 51.6511 305.565 51.1263 304.2 50.8114L303.15 47.7668H296.921L295.766 50.8114C294.507 51.1263 293.247 51.6511 292.092 52.281L289.152 51.0212L284.848 55.3256L286.108 58.265C285.478 59.4198 284.953 60.5746 284.638 61.9394L281.594 63.0941V69.3232L284.638 70.4779C284.953 71.7377 285.478 72.9975 286.108 74.1523L284.848 77.0917L289.257 81.3961L292.197 80.1363C293.352 80.7662 294.507 81.2911 295.871 81.6061L297.026 84.6505H303.15L304.305 81.6061C305.565 81.2911 306.824 80.7662 307.979 80.1363L310.919 81.3961L315.328 77.0917L314.068 74.1523C314.698 72.9975 315.223 71.8427 315.538 70.4779L318.582 69.3232V63.0941L315.433 61.9394ZM299.931 73.7673C295.731 73.7673 292.337 70.408 292.337 66.1737C292.337 61.9394 295.696 58.58 299.931 58.58C304.13 58.58 307.524 61.9394 307.524 66.1737C307.524 70.408 304.165 73.7673 299.931 73.7673Z" fill="#5B6CD9"/>
<path d="M255.697 63.8992H109.282V235.86H255.697V63.8992Z" fill="white"/>
<path d="M256.747 236.945H108.232V62.8845H256.747V236.945ZM110.332 234.845H254.647V64.9842H110.332V234.845Z" fill="#F5B3A5"/>
<path d="M233.546 116.495H131.469V84.6155H233.546V116.495ZM133.218 114.745H231.796V86.3652H133.218V114.745Z" fill="#424DB3"/>
<path d="M230.782 135.112H134.198V137.562H230.782V135.112Z" fill="#424DB3"/>
<path d="M220.739 144.28C225.203 144.28 228.822 140.661 228.822 136.197C228.822 131.732 225.203 128.113 220.739 128.113C216.274 128.113 212.655 131.732 212.655 136.197C212.655 140.661 216.274 144.28 220.739 144.28Z" fill="#2A69EA"/>
<path d="M220.739 145.155C215.805 145.155 211.78 141.131 211.78 136.197C211.78 131.262 215.805 127.238 220.739 127.238C225.673 127.238 229.697 131.262 229.697 136.197C229.697 141.131 225.673 145.155 220.739 145.155ZM220.739 128.953C216.749 128.953 213.53 132.207 213.53 136.162C213.53 140.151 216.784 143.37 220.739 143.37C224.693 143.37 227.947 140.116 227.947 136.162C227.947 132.207 224.728 128.953 220.739 128.953Z" fill="#424DB3"/>
<path d="M230.782 159.433H134.198V161.882H230.782V159.433Z" fill="#424DB3"/>
<path d="M147.287 168.566C151.751 168.566 155.37 164.947 155.37 160.483C155.37 156.018 151.751 152.399 147.287 152.399C142.822 152.399 139.203 156.018 139.203 160.483C139.203 164.947 142.822 168.566 147.287 168.566Z" fill="#4AE8A6"/>
<path d="M147.288 169.476C142.353 169.476 138.329 165.452 138.329 160.518C138.329 155.584 142.353 151.559 147.288 151.559C152.222 151.559 156.246 155.584 156.246 160.518C156.246 165.452 152.222 169.476 147.288 169.476ZM147.288 153.274C143.298 153.274 140.079 156.528 140.079 160.483C140.079 164.472 143.333 167.692 147.288 167.692C151.242 167.692 154.496 164.437 154.496 160.483C154.496 156.493 151.277 153.274 147.288 153.274Z" fill="#424DB3"/>
<path d="M230.782 183.719H134.198V186.168H230.782V183.719Z" fill="#424DB3"/>
<path d="M192.813 192.887C197.278 192.887 200.897 189.268 200.897 184.803C200.897 180.339 197.278 176.72 192.813 176.72C188.349 176.72 184.729 180.339 184.729 184.803C184.729 189.268 188.349 192.887 192.813 192.887Z" fill="#F5B3A5"/>
<path d="M192.813 193.762C187.879 193.762 183.854 189.738 183.854 184.803C183.854 179.869 187.879 175.845 192.813 175.845C197.747 175.845 201.771 179.869 201.771 184.803C201.771 189.738 197.747 193.762 192.813 193.762ZM192.813 177.56C188.824 177.56 185.604 180.814 185.604 184.768C185.604 188.758 188.859 191.977 192.813 191.977C196.767 191.977 200.022 188.723 200.022 184.768C200.022 180.814 196.802 177.56 192.813 177.56Z" fill="#424DB3"/>
<path d="M230.782 208.634H134.198V211.084H230.782V208.634Z" fill="#424DB3"/>
<path d="M160.655 217.803C165.119 217.803 168.739 214.183 168.739 209.719C168.739 205.255 165.119 201.635 160.655 201.635C156.19 201.635 152.571 205.255 152.571 209.719C152.571 214.183 156.19 217.803 160.655 217.803Z" fill="white"/>
<path d="M160.655 218.678C155.721 218.678 151.696 214.653 151.696 209.719C151.696 204.785 155.721 200.761 160.655 200.761C165.589 200.761 169.613 204.785 169.613 209.719C169.613 214.653 165.589 218.678 160.655 218.678ZM160.655 202.475C156.665 202.475 153.446 205.73 153.446 209.684C153.446 213.674 156.7 216.893 160.655 216.893C164.609 216.893 167.864 213.639 167.864 209.684C167.864 205.73 164.609 202.475 160.655 202.475Z" fill="#424DB3"/>
<path d="M185.465 95.3938H143.192V97.1435H185.465V95.3938Z" fill="#424DB3"/>
<path d="M221.929 104.562H143.332V106.312H221.929V104.562Z" fill="#424DB3"/>
<path d="M39.9262 227.601C39.9262 227.601 51.7542 221.092 81.0091 226.411C81.0091 226.411 99.9059 229.946 107.01 239.114L96.9664 255.351L34.3271 244.993L39.9262 227.601Z" fill="#424DB3"/>
<path d="M117.402 155.198C117.402 155.198 131.89 163.457 128.636 169.371C125.381 175.285 109.424 168.496 109.424 168.496L117.402 155.198Z" fill="white"/>
<path d="M122.897 172.695C117.263 172.695 110.194 169.791 109.074 169.301L108.164 168.916L117.088 154.009L117.822 154.428C119.397 155.303 132.94 163.317 129.37 169.791C128.216 171.96 125.731 172.695 122.897 172.695ZM110.684 168.076C115.478 169.966 125.661 172.975 127.866 168.951C130.035 164.962 121.882 158.908 117.717 156.388L110.684 168.076Z" fill="#424DB3"/>
<path d="M110.613 171.75C110.613 171.75 120.656 173.815 120.376 178.539C120.096 183.264 107.358 183.264 107.358 183.264L110.613 171.75Z" fill="white"/>
<path d="M107.359 184.173H106.204L109.983 170.771L110.788 170.946C111.908 171.156 121.566 173.325 121.252 178.644C120.902 183.998 108.759 184.173 107.359 184.173ZM111.208 172.8L108.514 182.389C113.098 182.214 119.327 181.129 119.467 178.504C119.677 175.53 114.183 173.535 111.208 172.8Z" fill="#424DB3"/>
<path d="M85.0333 259.165L99.8008 228.931L130.805 208.284C132.59 207.094 134.025 205.485 135.005 203.63L153.272 168.881C153.971 167.551 153.202 165.941 151.767 165.626C146.903 164.647 135.985 165.521 123.177 186.378L115.058 187.708C115.058 187.708 109.739 181.199 119.187 154.918L134.27 156.108C134.27 156.108 143.508 158.103 149.387 153.029C151.452 151.244 150.857 147.919 148.337 146.905C136.509 142.145 103.475 130.912 95.2516 150.194C95.2516 150.194 81.9538 149.599 76.9147 162.302C76.9147 162.302 67.1514 166.746 63.617 177.069C63.617 177.069 54.1686 203.945 52.6989 214.583C51.2291 225.221 31.1426 258.99 31.1426 258.99L85.0333 259.165Z" fill="white"/>
<path d="M85.5927 260.04L29.5674 259.9L30.3372 258.57C30.5472 258.221 50.3538 224.836 51.7886 214.513C53.2583 203.91 62.3917 177.909 62.7767 176.824C66.0661 167.201 74.4297 162.582 76.2144 161.707C80.8686 150.474 91.9267 149.424 94.6562 149.354C98.4705 141.026 107.149 137.456 120.482 138.681C131.4 139.696 142.808 143.79 148.617 146.135C150.087 146.73 151.136 148.024 151.416 149.599C151.661 151.139 151.136 152.714 149.947 153.728C143.998 158.873 135.039 157.193 134.129 157.018L119.782 155.898C112.223 177.209 114.673 185.048 115.513 186.798L122.651 185.643C135.459 164.962 146.517 163.702 151.976 164.822C152.921 165.032 153.726 165.626 154.146 166.536C154.566 167.446 154.566 168.461 154.076 169.336L135.809 204.085C134.759 206.08 133.185 207.829 131.33 209.054L100.535 229.596L85.5927 260.04ZM32.6468 258.151L84.5079 258.291L99.1354 228.336L130.315 207.549C131.96 206.464 133.325 204.96 134.234 203.21L152.501 168.461C152.711 168.076 152.711 167.621 152.536 167.236C152.361 166.851 152.011 166.571 151.591 166.501C149.282 166.046 145.572 166.011 140.883 168.601C135.144 171.75 129.44 177.874 123.911 186.868L123.701 187.218L114.673 188.688L114.358 188.303C114.113 188.023 108.829 181.129 118.347 154.638L118.557 154.009L134.409 155.268C134.479 155.303 143.298 157.123 148.792 152.399C149.527 151.769 149.842 150.824 149.702 149.879C149.527 148.899 148.897 148.095 147.987 147.745C142.248 145.435 131.05 141.411 120.342 140.431C107.604 139.241 99.4154 142.67 96.0559 150.579L95.811 151.139L95.2161 151.104C94.6912 151.069 82.4783 150.719 77.7541 162.652L77.6141 162.967L77.2992 163.107C77.1942 163.142 67.8508 167.516 64.4564 177.384C64.3514 177.664 55.008 204.33 53.5732 214.758C52.2085 224.346 36.4262 251.712 32.6468 258.151Z" fill="#424DB3"/>
<path d="M107.009 239.149C107.009 239.149 89.8623 251.257 66.5213 246.532C46.1548 242.403 39.9259 227.636 39.9259 227.636L22.4639 260.6H97.7359L107.009 239.149Z" fill="#5B6CD9"/>
<path d="M257.098 220.812C257.098 220.812 259.162 208.109 289.012 199.256C289.012 199.256 311.758 193.342 322.711 201.635L326.841 224.101L261.822 239.779L257.098 220.812Z" fill="#424DB3"/>
<path d="M249.853 131.577C249.853 131.577 235.365 139.836 238.62 145.75C241.874 151.664 257.832 144.875 257.832 144.875L249.853 131.577Z" fill="white"/>
<path d="M244.359 149.074C241.525 149.074 239.04 148.339 237.85 146.205C234.281 139.731 247.859 131.717 249.398 130.842L250.133 130.423L259.057 145.33L258.147 145.715C257.062 146.17 249.993 149.074 244.359 149.074ZM249.573 132.767C245.409 135.287 237.221 141.376 239.425 145.33C241.63 149.319 251.813 146.31 256.607 144.455L249.573 132.767Z" fill="#424DB3"/>
<path d="M256.676 148.129C256.676 148.129 246.633 150.194 246.913 154.918C247.193 159.642 259.931 159.642 259.931 159.642L256.676 148.129Z" fill="white"/>
<path d="M261.051 160.517H259.896C258.496 160.517 246.353 160.377 246.039 154.953C245.689 149.634 255.382 147.464 256.502 147.254L257.307 147.079L261.051 160.517ZM256.047 149.179C253.107 149.914 247.613 151.909 247.788 154.883C247.963 157.508 254.192 158.593 258.741 158.767L256.047 149.179Z" fill="#424DB3"/>
<path d="M276.905 259.165L268.052 205.31L236.662 184.733C234.772 183.508 233.233 181.794 232.183 179.799L214.511 146.205C213.496 144.28 214.756 141.971 216.925 141.796C222.314 141.306 232.428 143.685 244.116 162.757L252.234 164.087C252.234 164.087 257.553 157.578 248.105 131.298L233.023 132.487C233.023 132.487 223.714 134.517 217.8 129.338C215.806 127.588 216.365 124.334 218.85 123.319C230.608 118.56 263.782 107.222 272.006 126.573C272.006 126.573 285.304 125.978 290.343 138.681C290.343 138.681 298.601 141.621 302.171 151.979C302.171 151.979 313.089 180.359 314.594 190.997C316.063 201.635 327.296 259.026 327.296 259.026L276.905 259.165Z" fill="white"/>
<path d="M276.17 260.04L267.247 205.835L236.172 185.468C234.177 184.138 232.497 182.319 231.413 180.219L213.741 146.625C213.146 145.47 213.146 144.105 213.776 142.95C214.406 141.795 215.56 141.061 216.855 140.921C222.104 140.466 232.637 142.565 244.675 161.952L251.814 163.107C252.654 161.357 255.104 153.553 247.545 132.207L233.197 133.327C232.288 133.502 223.259 135.217 217.275 129.967C216.12 128.953 215.56 127.413 215.84 125.873C216.12 124.334 217.135 123.074 218.57 122.479C224.379 120.134 235.787 116.04 246.74 114.99C260.108 113.73 268.821 117.335 272.671 125.663C275.4 125.733 286.423 126.748 291.077 137.981C292.792 138.716 299.791 142.18 303.045 151.664C303.465 152.784 314.033 180.219 315.503 190.822C316.973 201.32 328.101 258.255 328.206 258.815L328.416 259.865L276.17 260.04ZM218.115 142.6C217.695 142.6 217.345 142.635 216.995 142.635C216.26 142.705 215.63 143.125 215.28 143.755C214.931 144.385 214.931 145.12 215.28 145.785L232.952 179.379C233.932 181.234 235.367 182.843 237.152 183.998L268.856 204.785L277.675 258.29L326.246 258.151C324.707 250.312 315.083 200.865 313.719 191.102C312.284 180.674 301.471 152.574 301.366 152.294C297.971 142.425 290.133 139.521 290.063 139.521L289.678 139.381L289.538 138.996C284.813 126.993 272.216 127.413 272.076 127.448L271.481 127.483L271.236 126.923C267.876 118.979 259.653 115.585 246.845 116.775C236.137 117.79 224.904 121.814 219.165 124.124C218.29 124.474 217.66 125.243 217.485 126.188C217.31 127.133 217.66 128.043 218.36 128.673C223.854 133.502 232.707 131.647 232.812 131.612H232.917L248.665 130.387L248.875 131.017C258.393 157.473 253.109 164.402 252.864 164.682L252.549 165.067L243.521 163.597L243.311 163.247C232.567 145.68 223.294 142.6 218.115 142.6Z" fill="#424DB3"/>
<path d="M257.098 220.812C257.098 220.812 271.445 225.956 291.392 222.877C312.388 219.622 322.711 201.74 322.711 201.74L341.538 260.705H263.397L257.098 220.812Z" fill="#5B6CD9"/>
<path d="M359 260.25H0.801758V262H359V260.25Z" fill="#424DB3"/>
</svg>
