<svg width="60" height="60" viewBox="0 0 60 60" fill="none" xmlns="http://www.w3.org/2000/svg">
<path fill-rule="evenodd" clip-rule="evenodd" d="M37.0161 34.4492C36.6632 34.4492 36.3248 34.5965 36.0752 34.8587C35.8257 35.1209 35.6855 35.4766 35.6855 35.8475V41.0593H41.9758V34.4492H37.0161ZM37.0161 32.161C36.0857 32.161 35.1934 32.5494 34.5356 33.2408C33.8777 33.9321 33.5081 34.8698 33.5081 35.8475V53.6441C33.5081 54.6218 33.8777 55.5594 34.5356 56.2508C35.1934 56.9421 36.0857 57.3305 37.0161 57.3305H46.0887C46.69 57.3305 47.1774 56.8183 47.1774 56.1864C47.1774 55.5546 46.69 55.0424 46.0887 55.0424H44.1532V43.3475H55.2823V45.3814C55.2823 46.0132 55.7697 46.5254 56.371 46.5254C56.9722 46.5254 57.4597 46.0132 57.4597 45.3814V35.8475C57.4597 34.8698 57.0901 33.9321 56.4322 33.2408C55.7743 32.5494 54.882 32.161 53.9516 32.161H37.0161ZM44.1532 34.4492V41.0593H55.2823V35.8475C55.2823 35.4766 55.1421 35.1209 54.8925 34.8587C54.643 34.5965 54.3045 34.4492 53.9516 34.4492H44.1532ZM41.9758 43.3475H35.6855V53.6441C35.6855 54.0149 35.8257 54.3706 36.0752 54.6328C36.3248 54.8951 36.6632 55.0424 37.0161 55.0424H41.9758V43.3475Z" fill="#383838"/>
<path d="M53.1452 48.1357C53.9055 48.1357 54.5218 48.7833 54.5218 49.5822C54.5218 50.0511 54.699 50.5008 55.0145 50.8323C55.3301 51.1639 55.758 51.3502 56.2042 51.3502C56.9644 51.3502 57.5807 51.9978 57.5807 52.7967C57.5807 53.5956 56.9644 54.2432 56.2042 54.2432C55.758 54.2432 55.3301 54.4295 55.0145 54.761C54.699 55.0926 54.5218 55.5423 54.5218 56.0112C54.5218 56.8101 53.9055 57.4577 53.1452 57.4577C52.385 57.4577 51.7687 56.8101 51.7687 56.0112C51.7687 55.5423 51.5915 55.0926 51.2759 54.761C50.9604 54.4295 50.5325 54.2432 50.0863 54.2432C49.326 54.2432 48.7098 53.5956 48.7098 52.7967C48.7098 51.9978 49.326 51.3502 50.0863 51.3502C50.5325 51.3502 50.9604 51.1639 51.2759 50.8323C51.5915 50.5008 51.7687 50.0511 51.7687 49.5822C51.7687 48.7833 52.385 48.1357 53.1452 48.1357Z" fill="#383838"/>
<path d="M48.3065 45.5933C48.6521 45.5933 48.9322 45.8877 48.9322 46.2508C48.9322 46.4639 49.0128 46.6684 49.1562 46.8191C49.2996 46.9698 49.4941 47.0544 49.697 47.0544C50.0425 47.0544 50.3227 47.3488 50.3227 47.7119C50.3227 48.0751 50.0425 48.3695 49.697 48.3695C49.4941 48.3695 49.2996 48.4541 49.1562 48.6048C49.0128 48.7555 48.9322 48.9599 48.9322 49.1731C48.9322 49.5362 48.6521 49.8306 48.3065 49.8306C47.961 49.8306 47.6808 49.5362 47.6808 49.1731C47.6808 48.9599 47.6003 48.7555 47.4568 48.6048C47.3134 48.4541 47.1189 48.3695 46.9161 48.3695C46.5705 48.3695 46.2904 48.0751 46.2904 47.7119C46.2904 47.3488 46.5705 47.0544 46.9161 47.0544C47.1189 47.0544 47.3134 46.9698 47.4568 46.8191C47.6003 46.6684 47.6808 46.4639 47.6808 46.2508C47.6808 45.8877 47.961 45.5933 48.3065 45.5933Z" fill="#383838"/>
<path d="M30.8911 28.5804C30.1576 26.7547 29.0932 25.0963 27.7571 23.6977C26.4251 22.295 24.8473 21.1767 23.1107 20.4044C23.0951 20.3962 23.0796 20.3921 23.064 20.384C25.4864 18.5453 27.0611 15.5503 27.0611 12.1712C27.0611 6.57342 22.7452 2.03801 17.4183 2.03801C12.0914 2.03801 7.77541 6.57342 7.77541 12.1712C7.77541 15.5503 9.35015 18.5453 11.7725 20.388C11.757 20.3962 11.7414 20.4003 11.7259 20.4085C9.98394 21.1807 8.42086 22.288 7.07941 23.7018C5.74462 25.1015 4.68038 26.7596 3.94549 28.5845C3.22352 30.3711 2.83415 32.2865 2.79845 34.2272C2.79741 34.2708 2.80469 34.3142 2.81986 34.3548C2.83503 34.3954 2.85778 34.4324 2.88676 34.4636C2.91575 34.4948 2.9504 34.5197 2.98865 34.5366C3.02691 34.5535 3.068 34.5622 3.10951 34.5622H5.44246C5.61354 34.5622 5.74963 34.4192 5.75352 34.2435C5.83129 31.0892 7.03664 28.135 9.1674 25.8959C11.372 23.5792 14.2999 22.3044 17.4183 22.3044C20.5366 22.3044 23.4645 23.5792 25.6691 25.8959C27.7999 28.135 29.0053 31.0892 29.083 34.2435C29.0869 34.4233 29.223 34.5622 29.3941 34.5622H31.727C31.7685 34.5622 31.8096 34.5535 31.8479 34.5366C31.8861 34.5197 31.9208 34.4948 31.9498 34.4636C31.9788 34.4324 32.0015 34.3954 32.0167 34.3548C32.0318 34.3142 32.0391 34.2708 32.0381 34.2272C31.9992 32.2741 31.6143 30.3741 30.8911 28.5804V28.5804ZM17.4183 19.199C15.6336 19.199 13.9538 18.4676 12.6902 17.1397C11.4265 15.8118 10.7305 14.0466 10.7305 12.1712C10.7305 10.2957 11.4265 8.5306 12.6902 7.20266C13.9538 5.87472 15.6336 5.14334 17.4183 5.14334C19.203 5.14334 20.8827 5.87472 22.1464 7.20266C23.4101 8.5306 24.1061 10.2957 24.1061 12.1712C24.1061 14.0466 23.4101 15.8118 22.1464 17.1397C20.8827 18.4676 19.203 19.199 17.4183 19.199Z" fill="black" fill-opacity="0.85"/>
</svg>
