<svg width="60" height="60" viewBox="0 0 60 60" fill="none" xmlns="http://www.w3.org/2000/svg">
<path fill-rule="evenodd" clip-rule="evenodd" d="M41.3333 31.2787C41.9961 31.2787 42.5333 31.8071 42.5333 32.459V33.9016H45.4667V32.459C45.4667 31.8071 46.0039 31.2787 46.6667 31.2787C47.3294 31.2787 47.8667 31.8071 47.8667 32.459V33.9016H52C52.6934 33.9016 53.3156 34.1802 53.772 34.6054L53.7952 34.6277C54.2819 35.1064 54.5333 35.738 54.5333 36.3934V40.459H56C56.6627 40.459 57.2 40.9875 57.2 41.6393C57.2 42.2912 56.6627 42.8197 56 42.8197H54.5333V45.7049H56C56.6627 45.7049 57.2 46.2334 57.2 46.8852C57.2 47.5371 56.6627 48.0656 56 48.0656H54.5333V52.1311C54.5333 52.8132 54.2501 53.4252 53.8178 53.8741C53.3233 54.3875 52.6467 54.623 52 54.623H47.8667V56.0656C47.8667 56.7175 47.3294 57.2459 46.6667 57.2459C46.0039 57.2459 45.4667 56.7175 45.4667 56.0656V54.623H42.5333V56.0656C42.5333 56.7175 41.9961 57.2459 41.3333 57.2459C40.6706 57.2459 40.1333 56.7175 40.1333 56.0656V54.623H36C35.3066 54.623 34.6844 54.3444 34.228 53.9192L34.2048 53.8969C33.7182 53.4182 33.4667 52.7866 33.4667 52.1311V48.0656H32C31.3373 48.0656 30.8 47.5371 30.8 46.8852C30.8 46.2334 31.3373 45.7049 32 45.7049H33.4667V42.8197H32C31.3373 42.8197 30.8 42.2912 30.8 41.6393C30.8 40.9875 31.3373 40.459 32 40.459H33.4667V36.3934C33.4667 35.7114 33.7499 35.0994 34.1822 34.6505L34.2048 34.6277C34.6915 34.149 35.3336 33.9016 36 33.9016H40.1333V32.459C40.1333 31.8071 40.6706 31.2787 41.3333 31.2787ZM36 36.2623C35.9691 36.2623 35.9496 36.2677 35.9383 36.2722C35.9302 36.2755 35.9216 36.2801 35.9121 36.2877C35.875 36.3316 35.8667 36.3697 35.8667 36.3934V52.1311C35.8667 52.1616 35.8722 52.1807 35.8768 52.1918C35.88 52.1998 35.8847 52.2082 35.8925 52.2176C35.9371 52.2541 35.9759 52.2623 36 52.2623H52C52.0331 52.2623 52.0572 52.2561 52.0707 52.2508C52.0746 52.2492 52.0773 52.2479 52.0788 52.2471C52.1237 52.199 52.1333 52.1567 52.1333 52.1311V36.3934C52.1333 36.363 52.1278 36.3439 52.1232 36.3328C52.12 36.3248 52.1153 36.3163 52.1075 36.307C52.0629 36.2705 52.0241 36.2623 52 36.2623H36ZM42 41.5082C41.6316 41.5082 41.2587 41.6585 40.9571 41.9473C40.6881 42.2049 40.5333 42.5664 40.5333 42.9508V44.3934H43.4667V42.9508C43.4667 42.5755 43.318 42.218 43.0315 41.9363L43.0202 41.9251C42.7582 41.6605 42.3908 41.5082 42 41.5082ZM43.4667 46.7541V48.1967C43.4667 48.8486 44.0039 49.377 44.6667 49.377C45.3294 49.377 45.8667 48.8486 45.8667 48.1967V42.9508C45.8667 41.9386 45.4575 40.9869 44.7341 40.2725C44.0099 39.544 43.0198 39.1475 42 39.1475C40.9551 39.1475 39.9946 39.5743 39.2829 40.256C38.5385 40.9688 38.1333 41.9451 38.1333 42.9508V48.1967C38.1333 48.8486 38.6706 49.377 39.3333 49.377C39.9961 49.377 40.5333 48.8486 40.5333 48.1967V46.7541H43.4667ZM48.6667 39.1475C49.3294 39.1475 49.8667 39.676 49.8667 40.3279V48.1967C49.8667 48.8486 49.3294 49.377 48.6667 49.377C48.0039 49.377 47.4667 48.8486 47.4667 48.1967V40.3279C47.4667 39.676 48.0039 39.1475 48.6667 39.1475Z" fill="#383838"/>
<path d="M31.9208 27.6433C31.1628 25.8775 30.0629 24.2735 28.6824 22.9207C27.306 21.564 25.6755 20.4823 23.881 19.7354C23.8649 19.7275 23.8489 19.7235 23.8328 19.7156C26.3359 17.9372 27.9632 15.0404 27.9632 11.7721C27.9632 6.3579 23.5033 1.97119 17.9989 1.97119C12.4944 1.97119 8.03459 6.3579 8.03459 11.7721C8.03459 15.0404 9.66182 17.9372 12.1649 19.7196C12.1489 19.7275 12.1328 19.7314 12.1167 19.7393C10.3167 20.4863 8.70155 21.5573 7.31539 22.9246C5.9361 24.2785 4.83639 25.8822 4.077 27.6473C3.33097 29.3753 2.92862 31.228 2.89173 33.105C2.89066 33.1472 2.89818 33.1891 2.91385 33.2284C2.92953 33.2677 2.95303 33.3035 2.98299 33.3337C3.01294 33.3639 3.04874 33.3879 3.08827 33.4042C3.1278 33.4206 3.17027 33.4291 3.21316 33.429H5.62388C5.80066 33.429 5.94129 33.2907 5.9453 33.1208C6.02566 30.0698 7.2712 27.2126 9.47298 25.0469C11.7511 22.8061 14.7766 21.5731 17.9989 21.5731C21.2212 21.5731 24.2466 22.8061 26.5248 25.0469C28.7266 27.2126 29.9721 30.0698 30.0524 33.1208C30.0565 33.2947 30.1971 33.429 30.3739 33.429H32.7846C32.8275 33.4291 32.8699 33.4206 32.9095 33.4042C32.949 33.3879 32.9848 33.3639 33.0148 33.3337C33.0447 33.3035 33.0682 33.2677 33.0839 33.2284C33.0996 33.1891 33.1071 33.1472 33.106 33.105C33.0658 31.2159 32.6681 29.3782 31.9208 27.6433V27.6433ZM17.9989 18.5696C16.1547 18.5696 14.419 17.8621 13.1132 16.5778C11.8074 15.2934 11.0882 13.5861 11.0882 11.7721C11.0882 9.95817 11.8074 8.2509 13.1132 6.96651C14.419 5.68211 16.1547 4.9747 17.9989 4.9747C19.8431 4.9747 21.5788 5.68211 22.8846 6.96651C24.1904 8.2509 24.9096 9.95817 24.9096 11.7721C24.9096 13.5861 24.1904 15.2934 22.8846 16.5778C21.5788 17.8621 19.8431 18.5696 17.9989 18.5696Z" fill="black" fill-opacity="0.85"/>
</svg>
