<svg width="76" height="18" viewBox="0 0 76 18" fill="none" xmlns="http://www.w3.org/2000/svg">
<rect width="76" height="18" rx="4" fill="#F9F0FF"/>
<g clip-path="url(#clip0_158353_1842)">
<path fill-rule="evenodd" clip-rule="evenodd" d="M11.4493 4.64983C11.3108 4.14511 10.6756 4.15011 10.5469 4.66484C10.5455 4.67049 10.544 4.67613 10.5424 4.68173C10.4051 5.16229 10.0382 5.51535 9.62966 5.6882C9.22722 5.85847 8.71781 5.87944 8.28299 5.60254C8.01376 5.46296 7.79205 5.53489 7.66352 5.66342C7.53249 5.79445 7.46028 6.0223 7.61099 6.29861C7.63708 6.34643 7.65546 6.39784 7.66567 6.45095C7.67558 6.4707 7.69742 6.51434 7.7155 6.56254C7.72869 6.59771 7.74448 6.64668 7.75401 6.706C7.97716 7.49215 7.48032 8.39556 6.64993 8.55076C6.15578 8.68639 6.15022 9.29811 6.63325 9.44444C6.69746 9.45371 6.75027 9.47062 6.78756 9.48461C6.83576 9.50268 6.87941 9.52452 6.89916 9.53444C6.96749 9.54757 7.03287 9.57421 7.09132 9.61318C7.8552 10.1224 8.0034 11.0482 7.60028 11.7201C7.486 11.9106 7.52462 12.1321 7.69633 12.3038C7.86804 12.4755 8.08953 12.5141 8.27999 12.3998C8.33295 12.368 8.39088 12.346 8.45104 12.3344C8.47079 12.3245 8.51444 12.3027 8.56263 12.2846C8.59781 12.2714 8.64678 12.2556 8.7061 12.2461C9.49224 12.0229 10.3957 12.5198 10.5509 13.3502C10.6847 13.8379 11.2823 13.8497 11.4386 13.3855C11.4436 13.2645 11.4729 13.0616 11.6385 12.872C12.1526 12.1402 13.0593 12.0033 13.7202 12.3998C13.9107 12.5141 14.1322 12.4755 14.3039 12.3038C14.4756 12.1321 14.5142 11.9106 14.3999 11.7201C14.3681 11.6671 14.3461 11.6092 14.3345 11.5491C14.3246 11.5293 14.3028 11.4857 14.2847 11.4375C14.2715 11.4023 14.2557 11.3533 14.2462 11.294C14.023 10.5079 14.5199 9.60445 15.3503 9.44925C15.838 9.3154 15.8497 8.71781 15.3856 8.56155C15.2646 8.55652 15.0617 8.52719 14.8721 8.36165C14.1403 7.84752 14.0033 6.94084 14.3999 6.2799C14.5142 6.08943 14.4756 5.86795 14.3039 5.69624C14.1322 5.52452 13.9107 5.48591 13.7202 5.60019C13.6672 5.63197 13.6093 5.65402 13.5492 5.66558C13.5294 5.67549 13.4858 5.69733 13.4376 5.71541C13.4024 5.7286 13.3534 5.74438 13.2941 5.75392C12.508 5.97707 11.6045 5.48023 11.4493 4.64983ZM9.53104 4.39924C9.93327 2.82996 12.0778 2.8336 12.4719 4.41017C12.4753 4.42373 12.4782 4.43741 12.4805 4.4512C12.5109 4.63399 12.7791 4.82028 13.0216 4.73945C13.0435 4.73213 13.0659 4.72629 13.0885 4.72194C13.1083 4.71202 13.1519 4.69018 13.2001 4.67211C13.2195 4.66482 13.2432 4.65675 13.2704 4.64938C13.929 4.30917 14.6249 4.53233 15.0463 4.95378C15.4871 5.39456 15.711 6.13558 15.3003 6.82012C15.1784 7.02324 15.2052 7.32244 15.4913 7.51318C15.4914 7.51322 15.4913 7.51314 15.4913 7.51318C15.5245 7.51501 15.5576 7.52011 15.5899 7.52818C17.1702 7.92324 17.1702 10.0768 15.5899 10.4718C15.5764 10.4752 15.5627 10.4781 15.5489 10.4804C15.3661 10.5108 15.1798 10.779 15.2607 11.0215C15.268 11.0434 15.2738 11.0658 15.2782 11.0884C15.2881 11.1082 15.3099 11.1518 15.328 11.2C15.3353 11.2195 15.3434 11.2431 15.3507 11.2703C15.6909 11.9289 15.4678 12.6248 15.0463 13.0462C14.6055 13.487 13.8645 13.7109 13.18 13.3002C12.9769 13.1783 12.6777 13.2051 12.4869 13.4912C12.4869 13.4913 12.487 13.4912 12.4869 13.4912C12.4851 13.5244 12.48 13.5576 12.4719 13.5898C12.0769 15.1701 9.92333 15.1701 9.52827 13.5898C9.52488 13.5763 9.52204 13.5626 9.51974 13.5488C9.48928 13.366 9.2211 13.1797 8.97862 13.2606C8.95667 13.2679 8.9343 13.2737 8.91166 13.2781C8.89191 13.288 8.84826 13.3098 8.80006 13.3279C8.78065 13.3352 8.75703 13.3433 8.72978 13.3506C8.0712 13.6908 7.37531 13.4677 6.95387 13.0462C6.51308 12.6055 6.28919 11.8644 6.69991 11.1799C6.81158 10.9938 6.79844 10.727 6.57537 10.5369C6.56631 10.5338 6.55789 10.5308 6.55013 10.5279C6.50194 10.5098 6.45829 10.488 6.43854 10.4781C6.42907 10.4763 6.41964 10.4742 6.41027 10.4718C4.83004 10.0768 4.83004 7.92324 6.41027 7.52818C6.42382 7.52479 6.43751 7.52195 6.45129 7.51965C6.63408 7.48918 6.82037 7.22101 6.73954 6.97853C6.73222 6.95658 6.72638 6.93421 6.72203 6.91157C6.71211 6.89182 6.69027 6.84817 6.6722 6.79997C6.66391 6.77787 6.6546 6.75032 6.64645 6.71818C6.32724 6.05641 6.47998 5.36203 6.92105 4.92096C7.38066 4.46136 8.1153 4.31482 8.8015 4.68911C8.81512 4.69654 8.8284 4.70457 8.84132 4.71318C8.92631 4.76985 9.06169 4.78839 9.22054 4.72119C9.37831 4.65444 9.49164 4.52908 9.53104 4.39924Z" fill="#722ED1"/>
<path fill-rule="evenodd" clip-rule="evenodd" d="M8.7251 9.00001C8.7251 7.74756 9.74765 6.72501 11.0001 6.72501C12.2525 6.72501 13.2751 7.74756 13.2751 9.00001C13.2751 10.2525 12.2525 11.275 11.0001 11.275C9.74765 11.275 8.7251 10.2525 8.7251 9.00001ZM11.0001 7.77501C10.3275 7.77501 9.7751 8.32746 9.7751 9.00001C9.7751 9.67256 10.3275 10.225 11.0001 10.225C11.6726 10.225 12.2251 9.67256 12.2251 9.00001C12.2251 8.32746 11.6726 7.77501 11.0001 7.77501Z" fill="#722ED1"/>
</g>
<path d="M28.1406 10.2871H29.2656C29.207 10.8262 29.0527 11.3086 28.8027 11.7344C28.5527 12.1602 28.1992 12.498 27.7422 12.748C27.2852 12.9941 26.7148 13.1172 26.0312 13.1172C25.5312 13.1172 25.0762 13.0234 24.666 12.8359C24.2598 12.6484 23.9102 12.3828 23.6172 12.0391C23.3242 11.6914 23.0977 11.2754 22.9375 10.791C22.7812 10.3027 22.7031 9.75977 22.7031 9.16211V8.3125C22.7031 7.71484 22.7812 7.17383 22.9375 6.68945C23.0977 6.20117 23.3262 5.7832 23.623 5.43555C23.9238 5.08789 24.2852 4.82031 24.707 4.63281C25.1289 4.44531 25.6035 4.35156 26.1309 4.35156C26.7754 4.35156 27.3203 4.47266 27.7656 4.71484C28.2109 4.95703 28.5566 5.29297 28.8027 5.72266C29.0527 6.14844 29.207 6.64258 29.2656 7.20508H28.1406C28.0859 6.80664 27.9844 6.46484 27.8359 6.17969C27.6875 5.89062 27.4766 5.66797 27.2031 5.51172C26.9297 5.35547 26.5723 5.27734 26.1309 5.27734C25.752 5.27734 25.418 5.34961 25.1289 5.49414C24.8438 5.63867 24.6035 5.84375 24.4082 6.10938C24.2168 6.375 24.0723 6.69336 23.9746 7.06445C23.877 7.43555 23.8281 7.84766 23.8281 8.30078V9.16211C23.8281 9.58008 23.8711 9.97266 23.957 10.3398C24.0469 10.707 24.1816 11.0293 24.3613 11.3066C24.541 11.584 24.7695 11.8027 25.0469 11.9629C25.3242 12.1191 25.6523 12.1973 26.0312 12.1973C26.5117 12.1973 26.8945 12.1211 27.1797 11.9688C27.4648 11.8164 27.6797 11.5977 27.8242 11.3125C27.9727 11.0273 28.0781 10.6855 28.1406 10.2871ZM30.3555 9.90039V9.76562C30.3555 9.30859 30.4219 8.88477 30.5547 8.49414C30.6875 8.09961 30.8789 7.75781 31.1289 7.46875C31.3789 7.17578 31.6816 6.94922 32.0371 6.78906C32.3926 6.625 32.791 6.54297 33.2324 6.54297C33.6777 6.54297 34.0781 6.625 34.4336 6.78906C34.793 6.94922 35.0977 7.17578 35.3477 7.46875C35.6016 7.75781 35.7949 8.09961 35.9277 8.49414C36.0605 8.88477 36.127 9.30859 36.127 9.76562V9.90039C36.127 10.3574 36.0605 10.7812 35.9277 11.1719C35.7949 11.5625 35.6016 11.9043 35.3477 12.1973C35.0977 12.4863 34.7949 12.7129 34.4395 12.877C34.0879 13.0371 33.6895 13.1172 33.2441 13.1172C32.7988 13.1172 32.3984 13.0371 32.043 12.877C31.6875 12.7129 31.3828 12.4863 31.1289 12.1973C30.8789 11.9043 30.6875 11.5625 30.5547 11.1719C30.4219 10.7812 30.3555 10.3574 30.3555 9.90039ZM31.4395 9.76562V9.90039C31.4395 10.2168 31.4766 10.5156 31.5508 10.7969C31.625 11.0742 31.7363 11.3203 31.8848 11.5352C32.0371 11.75 32.2266 11.9199 32.4531 12.0449C32.6797 12.166 32.9434 12.2266 33.2441 12.2266C33.541 12.2266 33.8008 12.166 34.0234 12.0449C34.25 11.9199 34.4375 11.75 34.5859 11.5352C34.7344 11.3203 34.8457 11.0742 34.9199 10.7969C34.998 10.5156 35.0371 10.2168 35.0371 9.90039V9.76562C35.0371 9.45312 34.998 9.1582 34.9199 8.88086C34.8457 8.59961 34.7324 8.35156 34.5801 8.13672C34.4316 7.91797 34.2441 7.74609 34.0176 7.62109C33.7949 7.49609 33.5332 7.43359 33.2324 7.43359C32.9355 7.43359 32.6738 7.49609 32.4473 7.62109C32.2246 7.74609 32.0371 7.91797 31.8848 8.13672C31.7363 8.35156 31.625 8.59961 31.5508 8.88086C31.4766 9.1582 31.4395 9.45312 31.4395 9.76562ZM38.5703 8.01367V13H37.4863V6.66016H38.5117L38.5703 8.01367ZM38.3125 9.58984L37.8613 9.57227C37.8652 9.13867 37.9297 8.73828 38.0547 8.37109C38.1797 8 38.3555 7.67773 38.582 7.4043C38.8086 7.13086 39.0781 6.91992 39.3906 6.77148C39.707 6.61914 40.0566 6.54297 40.4395 6.54297C40.752 6.54297 41.0332 6.58594 41.2832 6.67188C41.5332 6.75391 41.7461 6.88672 41.9219 7.07031C42.1016 7.25391 42.2383 7.49219 42.332 7.78516C42.4258 8.07422 42.4727 8.42773 42.4727 8.8457V13H41.3828V8.83398C41.3828 8.50195 41.334 8.23633 41.2363 8.03711C41.1387 7.83398 40.9961 7.6875 40.8086 7.59766C40.6211 7.50391 40.3906 7.45703 40.1172 7.45703C39.8477 7.45703 39.6016 7.51367 39.3789 7.62695C39.1602 7.74023 38.9707 7.89648 38.8105 8.0957C38.6543 8.29492 38.5312 8.52344 38.4414 8.78125C38.3555 9.03516 38.3125 9.30469 38.3125 9.58984ZM46.7734 6.66016V7.49219H43.3457V6.66016H46.7734ZM44.5059 5.11914H45.5898V11.4297C45.5898 11.6445 45.623 11.8066 45.6895 11.916C45.7559 12.0254 45.8418 12.0977 45.9473 12.1328C46.0527 12.168 46.166 12.1855 46.2871 12.1855C46.377 12.1855 46.4707 12.1777 46.5684 12.1621C46.6699 12.1426 46.7461 12.127 46.7969 12.1152L46.8027 13C46.7168 13.0273 46.6035 13.0527 46.4629 13.0762C46.3262 13.1035 46.1602 13.1172 45.9648 13.1172C45.6992 13.1172 45.4551 13.0645 45.2324 12.959C45.0098 12.8535 44.832 12.6777 44.6992 12.4316C44.5703 12.1816 44.5059 11.8457 44.5059 11.4238V5.11914ZM49.2227 6.66016V13H48.1328V6.66016H49.2227ZM48.0508 4.97852C48.0508 4.80273 48.1035 4.6543 48.209 4.5332C48.3184 4.41211 48.4785 4.35156 48.6895 4.35156C48.8965 4.35156 49.0547 4.41211 49.1641 4.5332C49.2773 4.6543 49.334 4.80273 49.334 4.97852C49.334 5.14648 49.2773 5.29102 49.1641 5.41211C49.0547 5.5293 48.8965 5.58789 48.6895 5.58789C48.4785 5.58789 48.3184 5.5293 48.209 5.41211C48.1035 5.29102 48.0508 5.14648 48.0508 4.97852ZM52.0469 8.01367V13H50.9629V6.66016H51.9883L52.0469 8.01367ZM51.7891 9.58984L51.3379 9.57227C51.3418 9.13867 51.4062 8.73828 51.5312 8.37109C51.6562 8 51.832 7.67773 52.0586 7.4043C52.2852 7.13086 52.5547 6.91992 52.8672 6.77148C53.1836 6.61914 53.5332 6.54297 53.916 6.54297C54.2285 6.54297 54.5098 6.58594 54.7598 6.67188C55.0098 6.75391 55.2227 6.88672 55.3984 7.07031C55.5781 7.25391 55.7148 7.49219 55.8086 7.78516C55.9023 8.07422 55.9492 8.42773 55.9492 8.8457V13H54.8594V8.83398C54.8594 8.50195 54.8105 8.23633 54.7129 8.03711C54.6152 7.83398 54.4727 7.6875 54.2852 7.59766C54.0977 7.50391 53.8672 7.45703 53.5938 7.45703C53.3242 7.45703 53.0781 7.51367 52.8555 7.62695C52.6367 7.74023 52.4473 7.89648 52.2871 8.0957C52.1309 8.29492 52.0078 8.52344 51.918 8.78125C51.832 9.03516 51.7891 9.30469 51.7891 9.58984ZM61.4746 11.5352V6.66016H62.5645V13H61.5273L61.4746 11.5352ZM61.6797 10.1992L62.1309 10.1875C62.1309 10.6094 62.0859 11 61.9961 11.3594C61.9102 11.7148 61.7695 12.0234 61.5742 12.2852C61.3789 12.5469 61.123 12.752 60.8066 12.9004C60.4902 13.0449 60.1055 13.1172 59.6523 13.1172C59.3438 13.1172 59.0605 13.0723 58.8027 12.9824C58.5488 12.8926 58.3301 12.7539 58.1465 12.5664C57.9629 12.3789 57.8203 12.1348 57.7188 11.834C57.6211 11.5332 57.5723 11.1719 57.5723 10.75V6.66016H58.6562V10.7617C58.6562 11.0469 58.6875 11.2832 58.75 11.4707C58.8164 11.6543 58.9043 11.8008 59.0137 11.9102C59.127 12.0156 59.252 12.0898 59.3887 12.1328C59.5293 12.1758 59.6738 12.1973 59.8223 12.1973C60.2832 12.1973 60.6484 12.1094 60.918 11.9336C61.1875 11.7539 61.3809 11.5137 61.498 11.2129C61.6191 10.9082 61.6797 10.5703 61.6797 10.1992ZM66.8477 13.1172C66.4062 13.1172 66.0059 13.043 65.6465 12.8945C65.291 12.7422 64.9844 12.5293 64.7266 12.2559C64.4727 11.9824 64.2773 11.6582 64.1406 11.2832C64.0039 10.9082 63.9355 10.498 63.9355 10.0527V9.80664C63.9355 9.29102 64.0117 8.83203 64.1641 8.42969C64.3164 8.02344 64.5234 7.67969 64.7852 7.39844C65.0469 7.11719 65.3438 6.9043 65.6758 6.75977C66.0078 6.61523 66.3516 6.54297 66.707 6.54297C67.1602 6.54297 67.5508 6.62109 67.8789 6.77734C68.2109 6.93359 68.4824 7.15234 68.6934 7.43359C68.9043 7.71094 69.0605 8.03906 69.1621 8.41797C69.2637 8.79297 69.3145 9.20312 69.3145 9.64844V10.1348H64.5801V9.25H68.2305V9.16797C68.2148 8.88672 68.1562 8.61328 68.0547 8.34766C67.957 8.08203 67.8008 7.86328 67.5859 7.69141C67.3711 7.51953 67.0781 7.43359 66.707 7.43359C66.4609 7.43359 66.2344 7.48633 66.0273 7.5918C65.8203 7.69336 65.6426 7.8457 65.4941 8.04883C65.3457 8.25195 65.2305 8.5 65.1484 8.79297C65.0664 9.08594 65.0254 9.42383 65.0254 9.80664V10.0527C65.0254 10.3535 65.0664 10.6367 65.1484 10.9023C65.2344 11.1641 65.3574 11.3945 65.5176 11.5938C65.6816 11.793 65.8789 11.9492 66.1094 12.0625C66.3438 12.1758 66.6094 12.2324 66.9062 12.2324C67.2891 12.2324 67.6133 12.1543 67.8789 11.998C68.1445 11.8418 68.377 11.6328 68.5762 11.3711L69.2324 11.8926C69.0957 12.0996 68.9219 12.2969 68.7109 12.4844C68.5 12.6719 68.2402 12.8242 67.9316 12.9414C67.627 13.0586 67.2656 13.1172 66.8477 13.1172Z" fill="#722ED1"/>
<defs>
<clipPath id="clip0_158353_1842">
<rect width="14" height="14" fill="white" transform="translate(4 2)"/>
</clipPath>
</defs>
</svg>
