<svg width="68" height="18" viewBox="0 0 68 18" fill="none" xmlns="http://www.w3.org/2000/svg">
<rect width="68" height="18" rx="4" fill="#FFF7E6"/>
<g clip-path="url(#clip0_1109_90533)">
<path fill-rule="evenodd" clip-rule="evenodd" d="M8.08331 5.44063C8.06784 5.44063 8.053 5.44677 8.04206 5.45771C8.03112 5.46865 8.02498 5.48349 8.02498 5.49896V12.499C8.02498 12.5144 8.03112 12.5293 8.04206 12.5402C8.053 12.5511 8.06784 12.5573 8.08331 12.5573H9.24998C9.26545 12.5573 9.28028 12.5511 9.29122 12.5402C9.30216 12.5293 9.30831 12.5144 9.30831 12.499V5.49896C9.30831 5.48349 9.30216 5.46865 9.29122 5.45771C9.28028 5.44677 9.26545 5.44063 9.24998 5.44063H8.08331ZM7.2996 4.71525C7.50745 4.5074 7.78936 4.39062 8.08331 4.39062H9.24998C9.54392 4.39062 9.82583 4.5074 10.0337 4.71525C10.2415 4.9231 10.3583 5.20501 10.3583 5.49896V12.499C10.3583 12.7929 10.2415 13.0748 10.0337 13.2827C9.82583 13.4905 9.54392 13.6073 9.24998 13.6073H8.08331C7.78936 13.6073 7.50745 13.4905 7.2996 13.2827C7.09175 13.0748 6.97498 12.7929 6.97498 12.499V5.49896C6.97498 5.20501 7.09175 4.9231 7.2996 4.71525ZM12.75 5.44063C12.7345 5.44063 12.7197 5.44677 12.7087 5.45771C12.6978 5.46865 12.6916 5.48349 12.6916 5.49896V12.499C12.6916 12.5144 12.6978 12.5293 12.7087 12.5402C12.7197 12.5511 12.7345 12.5573 12.75 12.5573H13.9166C13.9321 12.5573 13.947 12.5511 13.9579 12.5402C13.9688 12.5293 13.975 12.5144 13.975 12.499V5.49896C13.975 5.48349 13.9688 5.46865 13.9579 5.45771C13.947 5.44677 13.9321 5.44063 13.9166 5.44063H12.75ZM11.9663 4.71525C12.1741 4.5074 12.456 4.39062 12.75 4.39062H13.9166C14.2106 4.39062 14.4925 4.5074 14.7004 4.71525C14.9082 4.9231 15.025 5.20501 15.025 5.49896V12.499C15.025 12.7929 14.9082 13.0748 14.7004 13.2827C14.4925 13.4905 14.2106 13.6073 13.9166 13.6073H12.75C12.456 13.6073 12.1741 13.4905 11.9663 13.2827C11.7584 13.0748 11.6416 12.7929 11.6416 12.499V5.49896C11.6416 5.20501 11.7584 4.9231 11.9663 4.71525Z" fill="#D46B08"/>
</g>
<path d="M26.1367 9.6543H23.8574V8.73438H26.1367C26.5781 8.73438 26.9355 8.66406 27.209 8.52344C27.4824 8.38281 27.6816 8.1875 27.8066 7.9375C27.9355 7.6875 28 7.40234 28 7.08203C28 6.78906 27.9355 6.51367 27.8066 6.25586C27.6816 5.99805 27.4824 5.79102 27.209 5.63477C26.9355 5.47461 26.5781 5.39453 26.1367 5.39453H24.1211V13H22.9902V4.46875H26.1367C26.7812 4.46875 27.3262 4.58008 27.7715 4.80273C28.2168 5.02539 28.5547 5.33398 28.7852 5.72852C29.0156 6.11914 29.1309 6.56641 29.1309 7.07031C29.1309 7.61719 29.0156 8.08398 28.7852 8.4707C28.5547 8.85742 28.2168 9.15234 27.7715 9.35547C27.3262 9.55469 26.7812 9.6543 26.1367 9.6543ZM34.0645 11.916V8.65234C34.0645 8.40234 34.0137 8.18555 33.9121 8.00195C33.8145 7.81445 33.666 7.66992 33.4668 7.56836C33.2676 7.4668 33.0215 7.41602 32.7285 7.41602C32.4551 7.41602 32.2148 7.46289 32.0078 7.55664C31.8047 7.65039 31.6445 7.77344 31.5273 7.92578C31.4141 8.07812 31.3574 8.24219 31.3574 8.41797H30.2734C30.2734 8.19141 30.332 7.9668 30.4492 7.74414C30.5664 7.52148 30.7344 7.32031 30.9531 7.14062C31.1758 6.95703 31.4414 6.8125 31.75 6.70703C32.0625 6.59766 32.4102 6.54297 32.793 6.54297C33.2539 6.54297 33.6602 6.62109 34.0117 6.77734C34.3672 6.93359 34.6445 7.16992 34.8438 7.48633C35.0469 7.79883 35.1484 8.19141 35.1484 8.66406V11.6172C35.1484 11.8281 35.166 12.0527 35.2012 12.291C35.2402 12.5293 35.2969 12.7344 35.3711 12.9062V13H34.2402C34.1855 12.875 34.1426 12.709 34.1113 12.502C34.0801 12.291 34.0645 12.0957 34.0645 11.916ZM34.252 9.15625L34.2637 9.91797H33.168C32.8594 9.91797 32.584 9.94336 32.3418 9.99414C32.0996 10.041 31.8965 10.1133 31.7324 10.2109C31.5684 10.3086 31.4434 10.4316 31.3574 10.5801C31.2715 10.7246 31.2285 10.8945 31.2285 11.0898C31.2285 11.2891 31.2734 11.4707 31.3633 11.6348C31.4531 11.7988 31.5879 11.9297 31.7676 12.0273C31.9512 12.1211 32.1758 12.168 32.4414 12.168C32.7734 12.168 33.0664 12.0977 33.3203 11.957C33.5742 11.8164 33.7754 11.6445 33.9238 11.4414C34.0762 11.2383 34.1582 11.041 34.1699 10.8496L34.6328 11.3711C34.6055 11.5352 34.5312 11.7168 34.4102 11.916C34.2891 12.1152 34.127 12.3066 33.9238 12.4902C33.7246 12.6699 33.4863 12.8203 33.209 12.9414C32.9355 13.0586 32.627 13.1172 32.2832 13.1172C31.8535 13.1172 31.4766 13.0332 31.1523 12.8652C30.832 12.6973 30.582 12.4727 30.4023 12.1914C30.2266 11.9062 30.1387 11.5879 30.1387 11.2363C30.1387 10.8965 30.2051 10.5977 30.3379 10.3398C30.4707 10.0781 30.6621 9.86133 30.9121 9.68945C31.1621 9.51367 31.4629 9.38086 31.8145 9.29102C32.166 9.20117 32.5586 9.15625 32.9922 9.15625H34.252ZM40.7324 11.5352V6.66016H41.8223V13H40.7852L40.7324 11.5352ZM40.9375 10.1992L41.3887 10.1875C41.3887 10.6094 41.3438 11 41.2539 11.3594C41.168 11.7148 41.0273 12.0234 40.832 12.2852C40.6367 12.5469 40.3809 12.752 40.0645 12.9004C39.748 13.0449 39.3633 13.1172 38.9102 13.1172C38.6016 13.1172 38.3184 13.0723 38.0605 12.9824C37.8066 12.8926 37.5879 12.7539 37.4043 12.5664C37.2207 12.3789 37.0781 12.1348 36.9766 11.834C36.8789 11.5332 36.8301 11.1719 36.8301 10.75V6.66016H37.9141V10.7617C37.9141 11.0469 37.9453 11.2832 38.0078 11.4707C38.0742 11.6543 38.1621 11.8008 38.2715 11.9102C38.3848 12.0156 38.5098 12.0898 38.6465 12.1328C38.7871 12.1758 38.9316 12.1973 39.0801 12.1973C39.541 12.1973 39.9062 12.1094 40.1758 11.9336C40.4453 11.7539 40.6387 11.5137 40.7559 11.2129C40.877 10.9082 40.9375 10.5703 40.9375 10.1992ZM47.166 11.3184C47.166 11.1621 47.1309 11.0176 47.0605 10.8848C46.9941 10.748 46.8555 10.625 46.6445 10.5156C46.4375 10.4023 46.125 10.3047 45.707 10.2227C45.3555 10.1484 45.0371 10.0605 44.752 9.95898C44.4707 9.85742 44.2305 9.73438 44.0312 9.58984C43.8359 9.44531 43.6855 9.27539 43.5801 9.08008C43.4746 8.88477 43.4219 8.65625 43.4219 8.39453C43.4219 8.14453 43.4766 7.9082 43.5859 7.68555C43.6992 7.46289 43.8574 7.26562 44.0605 7.09375C44.2676 6.92188 44.5156 6.78711 44.8047 6.68945C45.0938 6.5918 45.416 6.54297 45.7715 6.54297C46.2793 6.54297 46.7129 6.63281 47.0723 6.8125C47.4316 6.99219 47.707 7.23242 47.8984 7.5332C48.0898 7.83008 48.1855 8.16016 48.1855 8.52344H47.1016C47.1016 8.34766 47.0488 8.17773 46.9434 8.01367C46.8418 7.8457 46.6914 7.70703 46.4922 7.59766C46.2969 7.48828 46.0566 7.43359 45.7715 7.43359C45.4707 7.43359 45.2266 7.48047 45.0391 7.57422C44.8555 7.66406 44.7207 7.7793 44.6348 7.91992C44.5527 8.06055 44.5117 8.20898 44.5117 8.36523C44.5117 8.48242 44.5312 8.58789 44.5703 8.68164C44.6133 8.77148 44.6875 8.85547 44.793 8.93359C44.8984 9.00781 45.0469 9.07812 45.2383 9.14453C45.4297 9.21094 45.6738 9.27734 45.9707 9.34375C46.4902 9.46094 46.918 9.60156 47.2539 9.76562C47.5898 9.92969 47.8398 10.1309 48.0039 10.3691C48.168 10.6074 48.25 10.8965 48.25 11.2363C48.25 11.5137 48.1914 11.7676 48.0742 11.998C47.9609 12.2285 47.7949 12.4277 47.5762 12.5957C47.3613 12.7598 47.1035 12.8887 46.8027 12.9824C46.5059 13.0723 46.1719 13.1172 45.8008 13.1172C45.2422 13.1172 44.7695 13.0176 44.3828 12.8184C43.9961 12.6191 43.7031 12.3613 43.5039 12.0449C43.3047 11.7285 43.2051 11.3945 43.2051 11.043H44.2949C44.3105 11.3398 44.3965 11.5762 44.5527 11.752C44.709 11.9238 44.9004 12.0469 45.127 12.1211C45.3535 12.1914 45.5781 12.2266 45.8008 12.2266C46.0977 12.2266 46.3457 12.1875 46.5449 12.1094C46.748 12.0312 46.9023 11.9238 47.0078 11.7871C47.1133 11.6504 47.166 11.4941 47.166 11.3184ZM52.3047 13.1172C51.8633 13.1172 51.4629 13.043 51.1035 12.8945C50.748 12.7422 50.4414 12.5293 50.1836 12.2559C49.9297 11.9824 49.7344 11.6582 49.5977 11.2832C49.4609 10.9082 49.3926 10.498 49.3926 10.0527V9.80664C49.3926 9.29102 49.4688 8.83203 49.6211 8.42969C49.7734 8.02344 49.9805 7.67969 50.2422 7.39844C50.5039 7.11719 50.8008 6.9043 51.1328 6.75977C51.4648 6.61523 51.8086 6.54297 52.1641 6.54297C52.6172 6.54297 53.0078 6.62109 53.3359 6.77734C53.668 6.93359 53.9395 7.15234 54.1504 7.43359C54.3613 7.71094 54.5176 8.03906 54.6191 8.41797C54.7207 8.79297 54.7715 9.20312 54.7715 9.64844V10.1348H50.0371V9.25H53.6875V9.16797C53.6719 8.88672 53.6133 8.61328 53.5117 8.34766C53.4141 8.08203 53.2578 7.86328 53.043 7.69141C52.8281 7.51953 52.5352 7.43359 52.1641 7.43359C51.918 7.43359 51.6914 7.48633 51.4844 7.5918C51.2773 7.69336 51.0996 7.8457 50.9512 8.04883C50.8027 8.25195 50.6875 8.5 50.6055 8.79297C50.5234 9.08594 50.4824 9.42383 50.4824 9.80664V10.0527C50.4824 10.3535 50.5234 10.6367 50.6055 10.9023C50.6914 11.1641 50.8145 11.3945 50.9746 11.5938C51.1387 11.793 51.3359 11.9492 51.5664 12.0625C51.8008 12.1758 52.0664 12.2324 52.3633 12.2324C52.7461 12.2324 53.0703 12.1543 53.3359 11.998C53.6016 11.8418 53.834 11.6328 54.0332 11.3711L54.6895 11.8926C54.5527 12.0996 54.3789 12.2969 54.168 12.4844C53.957 12.6719 53.6973 12.8242 53.3887 12.9414C53.084 13.0586 52.7227 13.1172 52.3047 13.1172ZM60.0332 11.7695V4H61.123V13H60.127L60.0332 11.7695ZM55.7676 9.90039V9.77734C55.7676 9.29297 55.8262 8.85352 55.9434 8.45898C56.0645 8.06055 56.2344 7.71875 56.4531 7.43359C56.6758 7.14844 56.9395 6.92969 57.2441 6.77734C57.5527 6.62109 57.8965 6.54297 58.2754 6.54297C58.6738 6.54297 59.0215 6.61328 59.3184 6.75391C59.6191 6.89062 59.873 7.0918 60.0801 7.35742C60.291 7.61914 60.457 7.93555 60.5781 8.30664C60.6992 8.67773 60.7832 9.09766 60.8301 9.56641V10.1055C60.7871 10.5703 60.7031 10.9883 60.5781 11.3594C60.457 11.7305 60.291 12.0469 60.0801 12.3086C59.873 12.5703 59.6191 12.7715 59.3184 12.9121C59.0176 13.0488 58.666 13.1172 58.2637 13.1172C57.8926 13.1172 57.5527 13.0371 57.2441 12.877C56.9395 12.7168 56.6758 12.4922 56.4531 12.2031C56.2344 11.9141 56.0645 11.5742 55.9434 11.1836C55.8262 10.7891 55.7676 10.3613 55.7676 9.90039ZM56.8574 9.77734V9.90039C56.8574 10.2168 56.8887 10.5137 56.9512 10.791C57.0176 11.0684 57.1191 11.3125 57.2559 11.5234C57.3926 11.7344 57.5664 11.9004 57.7773 12.0215C57.9883 12.1387 58.2402 12.1973 58.5332 12.1973C58.8926 12.1973 59.1875 12.1211 59.418 11.9688C59.6523 11.8164 59.8398 11.6152 59.9805 11.3652C60.1211 11.1152 60.2305 10.8438 60.3086 10.5508V9.13867C60.2617 8.92383 60.1934 8.7168 60.1035 8.51758C60.0176 8.31445 59.9043 8.13477 59.7637 7.97852C59.627 7.81836 59.457 7.69141 59.2539 7.59766C59.0547 7.50391 58.8184 7.45703 58.5449 7.45703C58.248 7.45703 57.9922 7.51953 57.7773 7.64453C57.5664 7.76562 57.3926 7.93359 57.2559 8.14844C57.1191 8.35938 57.0176 8.60547 56.9512 8.88672C56.8887 9.16406 56.8574 9.46094 56.8574 9.77734Z" fill="#D46B08"/>
<defs>
<clipPath id="clip0_1109_90533">
<rect width="14" height="14" fill="white" transform="translate(4 2)"/>
</clipPath>
</defs>
</svg>
