<svg width="70" height="18" viewBox="0 0 70 18" fill="none" xmlns="http://www.w3.org/2000/svg">
<rect width="70" height="18" rx="4" fill="#E6F7FF"/>
<g clip-path="url(#clip0_1109_90533)">
<path fill-rule="evenodd" clip-rule="evenodd" d="M11.2917 3.69063C11.2457 3.69063 11.2002 3.69968 11.1577 3.71727C11.1153 3.73486 11.0767 3.76064 11.0442 3.79314C11.0117 3.82564 10.9859 3.86422 10.9683 3.90669C10.9507 3.94915 10.9417 3.99466 10.9417 4.04062V8.99896C10.9417 9.28891 10.7066 9.52396 10.4167 9.52396C10.1267 9.52396 9.89166 9.28891 9.89166 8.99896V5.20729C9.89166 5.11447 9.85479 5.02544 9.78915 4.9598C9.72351 4.89417 9.63449 4.85729 9.54166 4.85729C9.44884 4.85729 9.35981 4.89417 9.29418 4.9598C9.22854 5.02544 9.19166 5.11447 9.19166 5.20729V9.58229C9.19166 9.79463 9.06375 9.98607 8.86758 10.0673C8.6714 10.1486 8.44559 10.1037 8.29544 9.95353L7.43811 9.09623C7.34917 9.00749 7.23294 8.95077 7.10823 8.93545C6.98342 8.92013 6.85707 8.94694 6.74925 9.01164C6.67107 9.05851 6.6141 9.13413 6.59074 9.22224C6.56738 9.31035 6.57932 9.40409 6.62402 9.48353C7.72586 11.4421 8.35319 12.5347 8.5232 12.7958C8.56068 12.8534 8.59863 12.9115 8.6364 12.969C8.90738 13.3805 9.276 13.7178 9.70976 13.9514C10.1432 14.1849 10.6279 14.3072 11.1202 14.3073C11.1205 14.3073 11.1209 14.3073 11.1212 14.3073H12.1666C12.9556 14.3073 13.7124 13.9939 14.2703 13.4359C14.8282 12.878 15.1416 12.1213 15.1416 11.3323V6.37396C15.1416 6.28113 15.1048 6.19211 15.0391 6.12647C14.9735 6.06083 14.8845 6.02396 14.7916 6.02396C14.6988 6.02396 14.6098 6.06083 14.5441 6.12647C14.4797 6.19093 14.443 6.27793 14.4417 6.36894V8.99896C14.4417 9.28891 14.2066 9.52396 13.9167 9.52396C13.6267 9.52396 13.3917 9.28891 13.3917 8.99896V6.38016C13.3916 6.3781 13.3916 6.37603 13.3916 6.37396C13.3916 6.37061 13.3916 6.36727 13.3917 6.36393V5.20729C13.3917 5.11447 13.3548 5.02544 13.2892 4.9598C13.2235 4.89417 13.1345 4.85729 13.0417 4.85729C12.9488 4.85729 12.8598 4.89417 12.7942 4.9598C12.7285 5.02544 12.6917 5.11447 12.6917 5.20729V8.99896C12.6917 9.28891 12.4566 9.52396 12.1667 9.52396C11.8767 9.52396 11.6417 9.28891 11.6417 8.99896V4.04062C11.6417 3.99466 11.6326 3.94915 11.615 3.90669C11.5974 3.86422 11.5717 3.82564 11.5392 3.79314C11.5067 3.76064 11.4681 3.73486 11.4256 3.71727C11.3831 3.69968 11.3376 3.69063 11.2917 3.69063ZM12.6793 3.855C12.6632 3.73496 12.6316 3.61724 12.5851 3.50487C12.5147 3.33501 12.4116 3.18068 12.2816 3.05068C12.1516 2.92067 11.9973 2.81755 11.8274 2.74719C11.6576 2.67684 11.4755 2.64062 11.2917 2.64062C11.1078 2.64062 10.9258 2.67684 10.7559 2.74719C10.5861 2.81755 10.4317 2.92067 10.3017 3.05068C10.1717 3.18068 10.0686 3.33501 9.99823 3.50487C9.95168 3.61724 9.92008 3.73496 9.90402 3.855C9.78684 3.82359 9.66509 3.80729 9.54166 3.80729C9.17036 3.80729 8.81426 3.95479 8.55171 4.21734C8.28916 4.47989 8.14166 4.83599 8.14166 5.20729V8.31616C7.89253 8.08328 7.57561 7.93496 7.23621 7.89328C6.87915 7.84943 6.51767 7.92613 6.20917 8.11118M12.6793 3.855C12.7965 3.82359 12.9182 3.80729 13.0417 3.80729C13.413 3.80729 13.7691 3.95479 14.0316 4.21734C14.25 4.43575 14.3888 4.71888 14.4293 5.02165C14.5465 4.99025 14.6682 4.97396 14.7916 4.97396C15.1629 4.97396 15.519 5.12146 15.7816 5.38401C16.0441 5.64656 16.1916 6.00265 16.1916 6.37396V11.3323C16.1916 12.3998 15.7676 13.4236 15.0127 14.1784C14.2579 14.9332 13.2341 15.3573 12.1666 15.3573H11.1214C11.1214 15.3573 11.1214 15.3573 11.1214 15.3573H11C10.9767 15.3573 10.9537 15.3558 10.9312 15.3528C10.3304 15.3245 9.74271 15.1618 9.21178 14.8758C8.62493 14.5597 8.12579 14.1027 7.75917 13.546C7.72041 13.4871 7.6815 13.4275 7.64305 13.3683C7.44864 13.0697 6.79859 11.9353 5.7089 9.99837C5.53012 9.6806 5.48237 9.30562 5.5758 8.95319C5.6692 8.60081 5.89654 8.29867 6.20917 8.11118" fill="#096DD9"/>
</g>
<path d="M29.5586 8.46484V9.00391C29.5586 9.64453 29.4785 10.2188 29.3184 10.7266C29.1582 11.2344 28.9277 11.666 28.627 12.0215C28.3262 12.377 27.9648 12.6484 27.543 12.8359C27.125 13.0234 26.6562 13.1172 26.1367 13.1172C25.6328 13.1172 25.1699 13.0234 24.748 12.8359C24.3301 12.6484 23.9668 12.377 23.6582 12.0215C23.3535 11.666 23.1172 11.2344 22.9492 10.7266C22.7812 10.2188 22.6973 9.64453 22.6973 9.00391V8.46484C22.6973 7.82422 22.7793 7.25195 22.9434 6.74805C23.1113 6.24023 23.3477 5.80859 23.6523 5.45312C23.957 5.09375 24.3184 4.82031 24.7363 4.63281C25.1582 4.44531 25.6211 4.35156 26.125 4.35156C26.6445 4.35156 27.1133 4.44531 27.5312 4.63281C27.9531 4.82031 28.3145 5.09375 28.6152 5.45312C28.9199 5.80859 29.1523 6.24023 29.3125 6.74805C29.4766 7.25195 29.5586 7.82422 29.5586 8.46484ZM28.4395 9.00391V8.45312C28.4395 7.94531 28.3867 7.49609 28.2812 7.10547C28.1797 6.71484 28.0293 6.38672 27.8301 6.12109C27.6309 5.85547 27.3867 5.6543 27.0977 5.51758C26.8125 5.38086 26.4883 5.3125 26.125 5.3125C25.7734 5.3125 25.4551 5.38086 25.1699 5.51758C24.8887 5.6543 24.6465 5.85547 24.4434 6.12109C24.2441 6.38672 24.0898 6.71484 23.9805 7.10547C23.8711 7.49609 23.8164 7.94531 23.8164 8.45312V9.00391C23.8164 9.51562 23.8711 9.96875 23.9805 10.3633C24.0898 10.7539 24.2461 11.084 24.4492 11.3535C24.6562 11.6191 24.9004 11.8203 25.1816 11.957C25.4668 12.0938 25.7852 12.1621 26.1367 12.1621C26.5039 12.1621 26.8301 12.0938 27.1152 11.957C27.4004 11.8203 27.6406 11.6191 27.8359 11.3535C28.0352 11.084 28.1855 10.7539 28.2871 10.3633C28.3887 9.96875 28.4395 9.51562 28.4395 9.00391ZM32.1719 8.01367V13H31.0879V6.66016H32.1133L32.1719 8.01367ZM31.9141 9.58984L31.4629 9.57227C31.4668 9.13867 31.5312 8.73828 31.6562 8.37109C31.7812 8 31.957 7.67773 32.1836 7.4043C32.4102 7.13086 32.6797 6.91992 32.9922 6.77148C33.3086 6.61914 33.6582 6.54297 34.041 6.54297C34.3535 6.54297 34.6348 6.58594 34.8848 6.67188C35.1348 6.75391 35.3477 6.88672 35.5234 7.07031C35.7031 7.25391 35.8398 7.49219 35.9336 7.78516C36.0273 8.07422 36.0742 8.42773 36.0742 8.8457V13H34.9844V8.83398C34.9844 8.50195 34.9355 8.23633 34.8379 8.03711C34.7402 7.83398 34.5977 7.6875 34.4102 7.59766C34.2227 7.50391 33.9922 7.45703 33.7188 7.45703C33.4492 7.45703 33.2031 7.51367 32.9805 7.62695C32.7617 7.74023 32.5723 7.89648 32.4121 8.0957C32.2559 8.29492 32.1328 8.52344 32.043 8.78125C31.957 9.03516 31.9141 9.30469 31.9141 9.58984ZM41.7812 4V13H40.6973V4H41.7812ZM41.5234 9.58984L41.0723 9.57227C41.0762 9.13867 41.1406 8.73828 41.2656 8.37109C41.3906 8 41.5664 7.67773 41.793 7.4043C42.0195 7.13086 42.2891 6.91992 42.6016 6.77148C42.918 6.61914 43.2676 6.54297 43.6504 6.54297C43.9629 6.54297 44.2441 6.58594 44.4941 6.67188C44.7441 6.75391 44.957 6.88672 45.1328 7.07031C45.3125 7.25391 45.4492 7.49219 45.543 7.78516C45.6367 8.07422 45.6836 8.42773 45.6836 8.8457V13H44.5938V8.83398C44.5938 8.50195 44.5449 8.23633 44.4473 8.03711C44.3496 7.83398 44.207 7.6875 44.0195 7.59766C43.832 7.50391 43.6016 7.45703 43.3281 7.45703C43.0586 7.45703 42.8125 7.51367 42.5898 7.62695C42.3711 7.74023 42.1816 7.89648 42.0215 8.0957C41.8652 8.29492 41.7422 8.52344 41.6523 8.78125C41.5664 9.03516 41.5234 9.30469 41.5234 9.58984ZM47.0195 9.90039V9.76562C47.0195 9.30859 47.0859 8.88477 47.2188 8.49414C47.3516 8.09961 47.543 7.75781 47.793 7.46875C48.043 7.17578 48.3457 6.94922 48.7012 6.78906C49.0566 6.625 49.4551 6.54297 49.8965 6.54297C50.3418 6.54297 50.7422 6.625 51.0977 6.78906C51.457 6.94922 51.7617 7.17578 52.0117 7.46875C52.2656 7.75781 52.459 8.09961 52.5918 8.49414C52.7246 8.88477 52.791 9.30859 52.791 9.76562V9.90039C52.791 10.3574 52.7246 10.7812 52.5918 11.1719C52.459 11.5625 52.2656 11.9043 52.0117 12.1973C51.7617 12.4863 51.459 12.7129 51.1035 12.877C50.752 13.0371 50.3535 13.1172 49.9082 13.1172C49.4629 13.1172 49.0625 13.0371 48.707 12.877C48.3516 12.7129 48.0469 12.4863 47.793 12.1973C47.543 11.9043 47.3516 11.5625 47.2188 11.1719C47.0859 10.7812 47.0195 10.3574 47.0195 9.90039ZM48.1035 9.76562V9.90039C48.1035 10.2168 48.1406 10.5156 48.2148 10.7969C48.2891 11.0742 48.4004 11.3203 48.5488 11.5352C48.7012 11.75 48.8906 11.9199 49.1172 12.0449C49.3438 12.166 49.6074 12.2266 49.9082 12.2266C50.2051 12.2266 50.4648 12.166 50.6875 12.0449C50.9141 11.9199 51.1016 11.75 51.25 11.5352C51.3984 11.3203 51.5098 11.0742 51.584 10.7969C51.6621 10.5156 51.7012 10.2168 51.7012 9.90039V9.76562C51.7012 9.45312 51.6621 9.1582 51.584 8.88086C51.5098 8.59961 51.3965 8.35156 51.2441 8.13672C51.0957 7.91797 50.9082 7.74609 50.6816 7.62109C50.459 7.49609 50.1973 7.43359 49.8965 7.43359C49.5996 7.43359 49.3379 7.49609 49.1113 7.62109C48.8887 7.74609 48.7012 7.91797 48.5488 8.13672C48.4004 8.35156 48.2891 8.59961 48.2148 8.88086C48.1406 9.1582 48.1035 9.45312 48.1035 9.76562ZM55.3281 4V13H54.2383V4H55.3281ZM61.0645 11.7695V4H62.1543V13H61.1582L61.0645 11.7695ZM56.7988 9.90039V9.77734C56.7988 9.29297 56.8574 8.85352 56.9746 8.45898C57.0957 8.06055 57.2656 7.71875 57.4844 7.43359C57.707 7.14844 57.9707 6.92969 58.2754 6.77734C58.584 6.62109 58.9277 6.54297 59.3066 6.54297C59.7051 6.54297 60.0527 6.61328 60.3496 6.75391C60.6504 6.89062 60.9043 7.0918 61.1113 7.35742C61.3223 7.61914 61.4883 7.93555 61.6094 8.30664C61.7305 8.67773 61.8145 9.09766 61.8613 9.56641V10.1055C61.8184 10.5703 61.7344 10.9883 61.6094 11.3594C61.4883 11.7305 61.3223 12.0469 61.1113 12.3086C60.9043 12.5703 60.6504 12.7715 60.3496 12.9121C60.0488 13.0488 59.6973 13.1172 59.2949 13.1172C58.9238 13.1172 58.584 13.0371 58.2754 12.877C57.9707 12.7168 57.707 12.4922 57.4844 12.2031C57.2656 11.9141 57.0957 11.5742 56.9746 11.1836C56.8574 10.7891 56.7988 10.3613 56.7988 9.90039ZM57.8887 9.77734V9.90039C57.8887 10.2168 57.9199 10.5137 57.9824 10.791C58.0488 11.0684 58.1504 11.3125 58.2871 11.5234C58.4238 11.7344 58.5977 11.9004 58.8086 12.0215C59.0195 12.1387 59.2715 12.1973 59.5645 12.1973C59.9238 12.1973 60.2188 12.1211 60.4492 11.9688C60.6836 11.8164 60.8711 11.6152 61.0117 11.3652C61.1523 11.1152 61.2617 10.8438 61.3398 10.5508V9.13867C61.293 8.92383 61.2246 8.7168 61.1348 8.51758C61.0488 8.31445 60.9355 8.13477 60.7949 7.97852C60.6582 7.81836 60.4883 7.69141 60.2852 7.59766C60.0859 7.50391 59.8496 7.45703 59.5762 7.45703C59.2793 7.45703 59.0234 7.51953 58.8086 7.64453C58.5977 7.76562 58.4238 7.93359 58.2871 8.14844C58.1504 8.35938 58.0488 8.60547 57.9824 8.88672C57.9199 9.16406 57.8887 9.46094 57.8887 9.77734Z" fill="#096DD9"/>
<defs>
<clipPath id="clip0_1109_90533">
<rect width="14" height="14" fill="white" transform="translate(4 2)"/>
</clipPath>
</defs>
</svg>
