<svg width="61" height="18" viewBox="0 0 61 18" fill="none" xmlns="http://www.w3.org/2000/svg">
<rect width="61" height="18" rx="4" fill="#F0FFF7"/>
<g clip-path="url(#clip0_1109_90533)">
<path fill-rule="evenodd" clip-rule="evenodd" d="M16.038 5.71236C16.243 5.91739 16.243 6.2498 16.038 6.45482L10.2046 12.2882C9.9996 12.4932 9.66718 12.4932 9.46216 12.2882L6.54549 9.37149C6.34047 9.16647 6.34047 8.83405 6.54549 8.62903C6.75052 8.424 7.08293 8.424 7.28795 8.62903L9.83339 11.1745L15.2955 5.71236C15.5005 5.50734 15.8329 5.50734 16.038 5.71236Z" fill="#098F64"/>
</g>
<path d="M22.9902 4.46875H25.8145C26.4551 4.46875 26.9961 4.56641 27.4375 4.76172C27.8828 4.95703 28.2207 5.24609 28.4512 5.62891C28.6855 6.00781 28.8027 6.47461 28.8027 7.0293C28.8027 7.41992 28.7227 7.77734 28.5625 8.10156C28.4062 8.42188 28.1797 8.69531 27.8828 8.92188C27.5898 9.14453 27.2383 9.31055 26.8281 9.41992L26.5117 9.54297H23.8574L23.8457 8.62305H25.8496C26.2559 8.62305 26.5938 8.55273 26.8633 8.41211C27.1328 8.26758 27.3359 8.07422 27.4727 7.83203C27.6094 7.58984 27.6777 7.32227 27.6777 7.0293C27.6777 6.70117 27.6133 6.41406 27.4844 6.16797C27.3555 5.92188 27.1523 5.73242 26.875 5.59961C26.6016 5.46289 26.248 5.39453 25.8145 5.39453H24.1211V13H22.9902V4.46875ZM27.9766 13L25.9023 9.13281L27.0801 9.12695L29.1836 12.9297V13H27.9766ZM32.8516 13.1172C32.4102 13.1172 32.0098 13.043 31.6504 12.8945C31.2949 12.7422 30.9883 12.5293 30.7305 12.2559C30.4766 11.9824 30.2812 11.6582 30.1445 11.2832C30.0078 10.9082 29.9395 10.498 29.9395 10.0527V9.80664C29.9395 9.29102 30.0156 8.83203 30.168 8.42969C30.3203 8.02344 30.5273 7.67969 30.7891 7.39844C31.0508 7.11719 31.3477 6.9043 31.6797 6.75977C32.0117 6.61523 32.3555 6.54297 32.7109 6.54297C33.1641 6.54297 33.5547 6.62109 33.8828 6.77734C34.2148 6.93359 34.4863 7.15234 34.6973 7.43359C34.9082 7.71094 35.0645 8.03906 35.166 8.41797C35.2676 8.79297 35.3184 9.20312 35.3184 9.64844V10.1348H30.584V9.25H34.2344V9.16797C34.2188 8.88672 34.1602 8.61328 34.0586 8.34766C33.9609 8.08203 33.8047 7.86328 33.5898 7.69141C33.375 7.51953 33.082 7.43359 32.7109 7.43359C32.4648 7.43359 32.2383 7.48633 32.0312 7.5918C31.8242 7.69336 31.6465 7.8457 31.498 8.04883C31.3496 8.25195 31.2344 8.5 31.1523 8.79297C31.0703 9.08594 31.0293 9.42383 31.0293 9.80664V10.0527C31.0293 10.3535 31.0703 10.6367 31.1523 10.9023C31.2383 11.1641 31.3613 11.3945 31.5215 11.5938C31.6855 11.793 31.8828 11.9492 32.1133 12.0625C32.3477 12.1758 32.6133 12.2324 32.9102 12.2324C33.293 12.2324 33.6172 12.1543 33.8828 11.998C34.1484 11.8418 34.3809 11.6328 34.5801 11.3711L35.2363 11.8926C35.0996 12.0996 34.9258 12.2969 34.7148 12.4844C34.5039 12.6719 34.2441 12.8242 33.9355 12.9414C33.6309 13.0586 33.2695 13.1172 32.8516 13.1172ZM40.3223 11.916V8.65234C40.3223 8.40234 40.2715 8.18555 40.1699 8.00195C40.0723 7.81445 39.9238 7.66992 39.7246 7.56836C39.5254 7.4668 39.2793 7.41602 38.9863 7.41602C38.7129 7.41602 38.4727 7.46289 38.2656 7.55664C38.0625 7.65039 37.9023 7.77344 37.7852 7.92578C37.6719 8.07812 37.6152 8.24219 37.6152 8.41797H36.5312C36.5312 8.19141 36.5898 7.9668 36.707 7.74414C36.8242 7.52148 36.9922 7.32031 37.2109 7.14062C37.4336 6.95703 37.6992 6.8125 38.0078 6.70703C38.3203 6.59766 38.668 6.54297 39.0508 6.54297C39.5117 6.54297 39.918 6.62109 40.2695 6.77734C40.625 6.93359 40.9023 7.16992 41.1016 7.48633C41.3047 7.79883 41.4062 8.19141 41.4062 8.66406V11.6172C41.4062 11.8281 41.4238 12.0527 41.459 12.291C41.498 12.5293 41.5547 12.7344 41.6289 12.9062V13H40.498C40.4434 12.875 40.4004 12.709 40.3691 12.502C40.3379 12.291 40.3223 12.0957 40.3223 11.916ZM40.5098 9.15625L40.5215 9.91797H39.4258C39.1172 9.91797 38.8418 9.94336 38.5996 9.99414C38.3574 10.041 38.1543 10.1133 37.9902 10.2109C37.8262 10.3086 37.7012 10.4316 37.6152 10.5801C37.5293 10.7246 37.4863 10.8945 37.4863 11.0898C37.4863 11.2891 37.5312 11.4707 37.6211 11.6348C37.7109 11.7988 37.8457 11.9297 38.0254 12.0273C38.209 12.1211 38.4336 12.168 38.6992 12.168C39.0312 12.168 39.3242 12.0977 39.5781 11.957C39.832 11.8164 40.0332 11.6445 40.1816 11.4414C40.334 11.2383 40.416 11.041 40.4277 10.8496L40.8906 11.3711C40.8633 11.5352 40.7891 11.7168 40.668 11.916C40.5469 12.1152 40.3848 12.3066 40.1816 12.4902C39.9824 12.6699 39.7441 12.8203 39.4668 12.9414C39.1934 13.0586 38.8848 13.1172 38.541 13.1172C38.1113 13.1172 37.7344 13.0332 37.4102 12.8652C37.0898 12.6973 36.8398 12.4727 36.6602 12.1914C36.4844 11.9062 36.3965 11.5879 36.3965 11.2363C36.3965 10.8965 36.4629 10.5977 36.5957 10.3398C36.7285 10.0781 36.9199 9.86133 37.1699 9.68945C37.4199 9.51367 37.7207 9.38086 38.0723 9.29102C38.4238 9.20117 38.8164 9.15625 39.25 9.15625H40.5098ZM47.1074 11.7695V4H48.1973V13H47.2012L47.1074 11.7695ZM42.8418 9.90039V9.77734C42.8418 9.29297 42.9004 8.85352 43.0176 8.45898C43.1387 8.06055 43.3086 7.71875 43.5273 7.43359C43.75 7.14844 44.0137 6.92969 44.3184 6.77734C44.627 6.62109 44.9707 6.54297 45.3496 6.54297C45.748 6.54297 46.0957 6.61328 46.3926 6.75391C46.6934 6.89062 46.9473 7.0918 47.1543 7.35742C47.3652 7.61914 47.5312 7.93555 47.6523 8.30664C47.7734 8.67773 47.8574 9.09766 47.9043 9.56641V10.1055C47.8613 10.5703 47.7773 10.9883 47.6523 11.3594C47.5312 11.7305 47.3652 12.0469 47.1543 12.3086C46.9473 12.5703 46.6934 12.7715 46.3926 12.9121C46.0918 13.0488 45.7402 13.1172 45.3379 13.1172C44.9668 13.1172 44.627 13.0371 44.3184 12.877C44.0137 12.7168 43.75 12.4922 43.5273 12.2031C43.3086 11.9141 43.1387 11.5742 43.0176 11.1836C42.9004 10.7891 42.8418 10.3613 42.8418 9.90039ZM43.9316 9.77734V9.90039C43.9316 10.2168 43.9629 10.5137 44.0254 10.791C44.0918 11.0684 44.1934 11.3125 44.3301 11.5234C44.4668 11.7344 44.6406 11.9004 44.8516 12.0215C45.0625 12.1387 45.3145 12.1973 45.6074 12.1973C45.9668 12.1973 46.2617 12.1211 46.4922 11.9688C46.7266 11.8164 46.9141 11.6152 47.0547 11.3652C47.1953 11.1152 47.3047 10.8438 47.3828 10.5508V9.13867C47.3359 8.92383 47.2676 8.7168 47.1777 8.51758C47.0918 8.31445 46.9785 8.13477 46.8379 7.97852C46.7012 7.81836 46.5312 7.69141 46.3281 7.59766C46.1289 7.50391 45.8926 7.45703 45.6191 7.45703C45.3223 7.45703 45.0664 7.51953 44.8516 7.64453C44.6406 7.76562 44.4668 7.93359 44.3301 8.14844C44.1934 8.35938 44.0918 8.60547 44.0254 8.88672C43.9629 9.16406 43.9316 9.46094 43.9316 9.77734ZM51.666 12.3438L53.4297 6.66016H54.5898L52.0469 13.9785C51.9883 14.1348 51.9102 14.3027 51.8125 14.4824C51.7188 14.666 51.5977 14.8398 51.4492 15.0039C51.3008 15.168 51.1211 15.3008 50.9102 15.4023C50.7031 15.5078 50.4551 15.5605 50.166 15.5605C50.0801 15.5605 49.9707 15.5488 49.8379 15.5254C49.7051 15.502 49.6113 15.4824 49.5566 15.4668L49.5508 14.5879C49.582 14.5918 49.6309 14.5957 49.6973 14.5996C49.7676 14.6074 49.8164 14.6113 49.8438 14.6113C50.0898 14.6113 50.2988 14.5781 50.4707 14.5117C50.6426 14.4492 50.7871 14.3418 50.9043 14.1895C51.0254 14.041 51.1289 13.8359 51.2148 13.5742L51.666 12.3438ZM50.3711 6.66016L52.0176 11.582L52.2988 12.7246L51.5195 13.123L49.1875 6.66016H50.3711Z" fill="#098F64"/>
<defs>
<clipPath id="clip0_1109_90533">
<rect width="14" height="14" fill="white" transform="translate(4 2)"/>
</clipPath>
</defs>
</svg>
