<svg width="87" height="18" viewBox="0 0 87 18" fill="none" xmlns="http://www.w3.org/2000/svg">
<rect width="87" height="18" rx="4" fill="#E6F7FF"/>
<g clip-path="url(#clip0_1109_90533)">
<path fill-rule="evenodd" clip-rule="evenodd" d="M11 3.22656C11.2899 3.22656 11.525 3.46161 11.525 3.75156V5.50156C11.525 5.79151 11.2899 6.02656 11 6.02656C10.71 6.02656 10.475 5.79151 10.475 5.50156V3.75156C10.475 3.46161 10.71 3.22656 11 3.22656ZM6.89547 4.89706C7.10049 4.69203 7.43291 4.69203 7.63793 4.89706L8.8921 6.15122C9.09712 6.35625 9.09712 6.68866 8.8921 6.89368C8.68707 7.09871 8.35466 7.09871 8.14964 6.89368L6.89547 5.63952C6.69044 5.43449 6.69044 5.10208 6.89547 4.89706ZM15.1045 4.89706C15.3096 5.10208 15.3096 5.43449 15.1045 5.63952L13.8504 6.89368C13.6453 7.09871 13.3129 7.09871 13.1079 6.89368C12.9029 6.68866 12.9029 6.35625 13.1079 6.15122L14.3621 4.89706C14.5671 4.69203 14.8995 4.69203 15.1045 4.89706ZM5.22498 9.00156C5.22498 8.71161 5.46003 8.47656 5.74998 8.47656H7.49998C7.78993 8.47656 8.02498 8.71161 8.02498 9.00156C8.02498 9.29151 7.78993 9.52656 7.49998 9.52656H5.74998C5.46003 9.52656 5.22498 9.29151 5.22498 9.00156ZM13.975 9.00156C13.975 8.71161 14.21 8.47656 14.5 8.47656H16.25C16.5399 8.47656 16.775 8.71161 16.775 9.00156C16.775 9.29151 16.5399 9.52656 16.25 9.52656H14.5C14.21 9.52656 13.975 9.29151 13.975 9.00156ZM8.8921 11.1095C9.09712 11.3145 9.09712 11.6469 8.8921 11.852L7.63793 13.1061C7.43291 13.3112 7.10049 13.3112 6.89547 13.1061C6.69044 12.9011 6.69044 12.5687 6.89547 12.3637L8.14964 11.1095C8.35466 10.9045 8.68707 10.9045 8.8921 11.1095ZM13.1079 11.1095C13.3129 10.9045 13.6453 10.9045 13.8504 11.1095L15.1045 12.3637C15.3096 12.5687 15.3096 12.9011 15.1045 13.1061C14.8995 13.3112 14.5671 13.3112 14.3621 13.1061L13.1079 11.852C12.9029 11.6469 12.9029 11.3145 13.1079 11.1095ZM11 11.9766C11.2899 11.9766 11.525 12.2116 11.525 12.5016V14.2516C11.525 14.5415 11.2899 14.7766 11 14.7766C10.71 14.7766 10.475 14.5415 10.475 14.2516V12.5016C10.475 12.2116 10.71 11.9766 11 11.9766Z" fill="#096DD9"/>
</g>
<path d="M29.2949 8.75195V11.875C29.1895 12.0312 29.0215 12.207 28.791 12.4023C28.5605 12.5938 28.2422 12.7617 27.8359 12.9062C27.4336 13.0469 26.9141 13.1172 26.2773 13.1172C25.7578 13.1172 25.2793 13.0273 24.8418 12.8477C24.4082 12.6641 24.0312 12.3984 23.7109 12.0508C23.3945 11.6992 23.1484 11.2734 22.9727 10.7734C22.8008 10.2695 22.7148 9.69922 22.7148 9.0625V8.40039C22.7148 7.76367 22.7891 7.19531 22.9375 6.69531C23.0898 6.19531 23.3125 5.77148 23.6055 5.42383C23.8984 5.07227 24.2578 4.80664 24.6836 4.62695C25.1094 4.44336 25.5977 4.35156 26.1484 4.35156C26.8008 4.35156 27.3457 4.46484 27.7832 4.69141C28.2246 4.91406 28.5684 5.22266 28.8145 5.61719C29.0645 6.01172 29.2246 6.46094 29.2949 6.96484H28.1641C28.1133 6.65625 28.0117 6.375 27.8594 6.12109C27.7109 5.86719 27.498 5.66406 27.2207 5.51172C26.9434 5.35547 26.5859 5.27734 26.1484 5.27734C25.7539 5.27734 25.4121 5.34961 25.123 5.49414C24.834 5.63867 24.5957 5.8457 24.4082 6.11523C24.2207 6.38477 24.0801 6.71094 23.9863 7.09375C23.8965 7.47656 23.8516 7.9082 23.8516 8.38867V9.0625C23.8516 9.55469 23.9082 9.99414 24.0215 10.3809C24.1387 10.7676 24.3047 11.0977 24.5195 11.3711C24.7344 11.6406 24.9902 11.8457 25.2871 11.9863C25.5879 12.127 25.9199 12.1973 26.2832 12.1973C26.6855 12.1973 27.0117 12.1641 27.2617 12.0977C27.5117 12.0273 27.707 11.9453 27.8477 11.8516C27.9883 11.7539 28.0957 11.6621 28.1699 11.5762V9.66602H26.1953V8.75195H29.2949ZM33.6367 13.1172C33.1953 13.1172 32.7949 13.043 32.4355 12.8945C32.0801 12.7422 31.7734 12.5293 31.5156 12.2559C31.2617 11.9824 31.0664 11.6582 30.9297 11.2832C30.793 10.9082 30.7246 10.498 30.7246 10.0527V9.80664C30.7246 9.29102 30.8008 8.83203 30.9531 8.42969C31.1055 8.02344 31.3125 7.67969 31.5742 7.39844C31.8359 7.11719 32.1328 6.9043 32.4648 6.75977C32.7969 6.61523 33.1406 6.54297 33.4961 6.54297C33.9492 6.54297 34.3398 6.62109 34.668 6.77734C35 6.93359 35.2715 7.15234 35.4824 7.43359C35.6934 7.71094 35.8496 8.03906 35.9512 8.41797C36.0527 8.79297 36.1035 9.20312 36.1035 9.64844V10.1348H31.3691V9.25H35.0195V9.16797C35.0039 8.88672 34.9453 8.61328 34.8438 8.34766C34.7461 8.08203 34.5898 7.86328 34.375 7.69141C34.1602 7.51953 33.8672 7.43359 33.4961 7.43359C33.25 7.43359 33.0234 7.48633 32.8164 7.5918C32.6094 7.69336 32.4316 7.8457 32.2832 8.04883C32.1348 8.25195 32.0195 8.5 31.9375 8.79297C31.8555 9.08594 31.8145 9.42383 31.8145 9.80664V10.0527C31.8145 10.3535 31.8555 10.6367 31.9375 10.9023C32.0234 11.1641 32.1465 11.3945 32.3066 11.5938C32.4707 11.793 32.668 11.9492 32.8984 12.0625C33.1328 12.1758 33.3984 12.2324 33.6953 12.2324C34.0781 12.2324 34.4023 12.1543 34.668 11.998C34.9336 11.8418 35.166 11.6328 35.3652 11.3711L36.0215 11.8926C35.8848 12.0996 35.7109 12.2969 35.5 12.4844C35.2891 12.6719 35.0293 12.8242 34.7207 12.9414C34.416 13.0586 34.0547 13.1172 33.6367 13.1172ZM38.4531 8.01367V13H37.3691V6.66016H38.3945L38.4531 8.01367ZM38.1953 9.58984L37.7441 9.57227C37.748 9.13867 37.8125 8.73828 37.9375 8.37109C38.0625 8 38.2383 7.67773 38.4648 7.4043C38.6914 7.13086 38.9609 6.91992 39.2734 6.77148C39.5898 6.61914 39.9395 6.54297 40.3223 6.54297C40.6348 6.54297 40.916 6.58594 41.166 6.67188C41.416 6.75391 41.6289 6.88672 41.8047 7.07031C41.9844 7.25391 42.1211 7.49219 42.2148 7.78516C42.3086 8.07422 42.3555 8.42773 42.3555 8.8457V13H41.2656V8.83398C41.2656 8.50195 41.2168 8.23633 41.1191 8.03711C41.0215 7.83398 40.8789 7.6875 40.6914 7.59766C40.5039 7.50391 40.2734 7.45703 40 7.45703C39.7305 7.45703 39.4844 7.51367 39.2617 7.62695C39.043 7.74023 38.8535 7.89648 38.6934 8.0957C38.5371 8.29492 38.4141 8.52344 38.3242 8.78125C38.2383 9.03516 38.1953 9.30469 38.1953 9.58984ZM46.6328 13.1172C46.1914 13.1172 45.791 13.043 45.4316 12.8945C45.0762 12.7422 44.7695 12.5293 44.5117 12.2559C44.2578 11.9824 44.0625 11.6582 43.9258 11.2832C43.7891 10.9082 43.7207 10.498 43.7207 10.0527V9.80664C43.7207 9.29102 43.7969 8.83203 43.9492 8.42969C44.1016 8.02344 44.3086 7.67969 44.5703 7.39844C44.832 7.11719 45.1289 6.9043 45.4609 6.75977C45.793 6.61523 46.1367 6.54297 46.4922 6.54297C46.9453 6.54297 47.3359 6.62109 47.6641 6.77734C47.9961 6.93359 48.2676 7.15234 48.4785 7.43359C48.6895 7.71094 48.8457 8.03906 48.9473 8.41797C49.0488 8.79297 49.0996 9.20312 49.0996 9.64844V10.1348H44.3652V9.25H48.0156V9.16797C48 8.88672 47.9414 8.61328 47.8398 8.34766C47.7422 8.08203 47.5859 7.86328 47.3711 7.69141C47.1562 7.51953 46.8633 7.43359 46.4922 7.43359C46.2461 7.43359 46.0195 7.48633 45.8125 7.5918C45.6055 7.69336 45.4277 7.8457 45.2793 8.04883C45.1309 8.25195 45.0156 8.5 44.9336 8.79297C44.8516 9.08594 44.8105 9.42383 44.8105 9.80664V10.0527C44.8105 10.3535 44.8516 10.6367 44.9336 10.9023C45.0195 11.1641 45.1426 11.3945 45.3027 11.5938C45.4668 11.793 45.6641 11.9492 45.8945 12.0625C46.1289 12.1758 46.3945 12.2324 46.6914 12.2324C47.0742 12.2324 47.3984 12.1543 47.6641 11.998C47.9297 11.8418 48.1621 11.6328 48.3613 11.3711L49.0176 11.8926C48.8809 12.0996 48.707 12.2969 48.4961 12.4844C48.2852 12.6719 48.0254 12.8242 47.7168 12.9414C47.4121 13.0586 47.0508 13.1172 46.6328 13.1172ZM51.4492 7.65625V13H50.3652V6.66016H51.4199L51.4492 7.65625ZM53.4297 6.625L53.4238 7.63281C53.334 7.61328 53.248 7.60156 53.166 7.59766C53.0879 7.58984 52.998 7.58594 52.8965 7.58594C52.6465 7.58594 52.4258 7.625 52.2344 7.70312C52.043 7.78125 51.8809 7.89062 51.748 8.03125C51.6152 8.17188 51.5098 8.33984 51.4316 8.53516C51.3574 8.72656 51.3086 8.9375 51.2852 9.16797L50.9805 9.34375C50.9805 8.96094 51.0176 8.60156 51.0918 8.26562C51.1699 7.92969 51.2891 7.63281 51.4492 7.375C51.6094 7.11328 51.8125 6.91016 52.0586 6.76562C52.3086 6.61719 52.6055 6.54297 52.9492 6.54297C53.0273 6.54297 53.1172 6.55273 53.2188 6.57227C53.3203 6.58789 53.3906 6.60547 53.4297 6.625ZM57.9355 11.916V8.65234C57.9355 8.40234 57.8848 8.18555 57.7832 8.00195C57.6855 7.81445 57.5371 7.66992 57.3379 7.56836C57.1387 7.4668 56.8926 7.41602 56.5996 7.41602C56.3262 7.41602 56.0859 7.46289 55.8789 7.55664C55.6758 7.65039 55.5156 7.77344 55.3984 7.92578C55.2852 8.07812 55.2285 8.24219 55.2285 8.41797H54.1445C54.1445 8.19141 54.2031 7.9668 54.3203 7.74414C54.4375 7.52148 54.6055 7.32031 54.8242 7.14062C55.0469 6.95703 55.3125 6.8125 55.6211 6.70703C55.9336 6.59766 56.2812 6.54297 56.6641 6.54297C57.125 6.54297 57.5312 6.62109 57.8828 6.77734C58.2383 6.93359 58.5156 7.16992 58.7148 7.48633C58.918 7.79883 59.0195 8.19141 59.0195 8.66406V11.6172C59.0195 11.8281 59.0371 12.0527 59.0723 12.291C59.1113 12.5293 59.168 12.7344 59.2422 12.9062V13H58.1113C58.0566 12.875 58.0137 12.709 57.9824 12.502C57.9512 12.291 57.9355 12.0957 57.9355 11.916ZM58.123 9.15625L58.1348 9.91797H57.0391C56.7305 9.91797 56.4551 9.94336 56.2129 9.99414C55.9707 10.041 55.7676 10.1133 55.6035 10.2109C55.4395 10.3086 55.3145 10.4316 55.2285 10.5801C55.1426 10.7246 55.0996 10.8945 55.0996 11.0898C55.0996 11.2891 55.1445 11.4707 55.2344 11.6348C55.3242 11.7988 55.459 11.9297 55.6387 12.0273C55.8223 12.1211 56.0469 12.168 56.3125 12.168C56.6445 12.168 56.9375 12.0977 57.1914 11.957C57.4453 11.8164 57.6465 11.6445 57.7949 11.4414C57.9473 11.2383 58.0293 11.041 58.041 10.8496L58.5039 11.3711C58.4766 11.5352 58.4023 11.7168 58.2812 11.916C58.1602 12.1152 57.998 12.3066 57.7949 12.4902C57.5957 12.6699 57.3574 12.8203 57.0801 12.9414C56.8066 13.0586 56.498 13.1172 56.1543 13.1172C55.7246 13.1172 55.3477 13.0332 55.0234 12.8652C54.7031 12.6973 54.4531 12.4727 54.2734 12.1914C54.0977 11.9062 54.0098 11.5879 54.0098 11.2363C54.0098 10.8965 54.0762 10.5977 54.209 10.3398C54.3418 10.0781 54.5332 9.86133 54.7832 9.68945C55.0332 9.51367 55.334 9.38086 55.6855 9.29102C56.0371 9.20117 56.4297 9.15625 56.8633 9.15625H58.123ZM63.3789 6.66016V7.49219H59.9512V6.66016H63.3789ZM61.1113 5.11914H62.1953V11.4297C62.1953 11.6445 62.2285 11.8066 62.2949 11.916C62.3613 12.0254 62.4473 12.0977 62.5527 12.1328C62.6582 12.168 62.7715 12.1855 62.8926 12.1855C62.9824 12.1855 63.0762 12.1777 63.1738 12.1621C63.2754 12.1426 63.3516 12.127 63.4023 12.1152L63.4082 13C63.3223 13.0273 63.209 13.0527 63.0684 13.0762C62.9316 13.1035 62.7656 13.1172 62.5703 13.1172C62.3047 13.1172 62.0605 13.0645 61.8379 12.959C61.6152 12.8535 61.4375 12.6777 61.3047 12.4316C61.1758 12.1816 61.1113 11.8457 61.1113 11.4238V5.11914ZM65.8281 6.66016V13H64.7383V6.66016H65.8281ZM64.6562 4.97852C64.6562 4.80273 64.709 4.6543 64.8145 4.5332C64.9238 4.41211 65.084 4.35156 65.2949 4.35156C65.502 4.35156 65.6602 4.41211 65.7695 4.5332C65.8828 4.6543 65.9395 4.80273 65.9395 4.97852C65.9395 5.14648 65.8828 5.29102 65.7695 5.41211C65.6602 5.5293 65.502 5.58789 65.2949 5.58789C65.084 5.58789 64.9238 5.5293 64.8145 5.41211C64.709 5.29102 64.6562 5.14648 64.6562 4.97852ZM68.6523 8.01367V13H67.5684V6.66016H68.5938L68.6523 8.01367ZM68.3945 9.58984L67.9434 9.57227C67.9473 9.13867 68.0117 8.73828 68.1367 8.37109C68.2617 8 68.4375 7.67773 68.6641 7.4043C68.8906 7.13086 69.1602 6.91992 69.4727 6.77148C69.7891 6.61914 70.1387 6.54297 70.5215 6.54297C70.834 6.54297 71.1152 6.58594 71.3652 6.67188C71.6152 6.75391 71.8281 6.88672 72.0039 7.07031C72.1836 7.25391 72.3203 7.49219 72.4141 7.78516C72.5078 8.07422 72.5547 8.42773 72.5547 8.8457V13H71.4648V8.83398C71.4648 8.50195 71.416 8.23633 71.3184 8.03711C71.2207 7.83398 71.0781 7.6875 70.8906 7.59766C70.7031 7.50391 70.4727 7.45703 70.1992 7.45703C69.9297 7.45703 69.6836 7.51367 69.4609 7.62695C69.2422 7.74023 69.0527 7.89648 68.8926 8.0957C68.7363 8.29492 68.6133 8.52344 68.5234 8.78125C68.4375 9.03516 68.3945 9.30469 68.3945 9.58984ZM78.3086 6.66016H79.293V12.8652C79.293 13.4238 79.1797 13.9004 78.9531 14.2949C78.7266 14.6895 78.4102 14.9883 78.0039 15.1914C77.6016 15.3984 77.1367 15.502 76.6094 15.502C76.3906 15.502 76.1328 15.4668 75.8359 15.3965C75.543 15.3301 75.2539 15.2148 74.9688 15.0508C74.6875 14.8906 74.4512 14.6738 74.2598 14.4004L74.8281 13.7559C75.0938 14.0762 75.3711 14.2988 75.6602 14.4238C75.9531 14.5488 76.2422 14.6113 76.5273 14.6113C76.8711 14.6113 77.168 14.5469 77.418 14.418C77.668 14.2891 77.8613 14.0977 77.998 13.8438C78.1387 13.5938 78.209 13.2852 78.209 12.918V8.05469L78.3086 6.66016ZM73.9434 9.90039V9.77734C73.9434 9.29297 74 8.85352 74.1133 8.45898C74.2305 8.06055 74.3965 7.71875 74.6113 7.43359C74.8301 7.14844 75.0938 6.92969 75.4023 6.77734C75.7109 6.62109 76.0586 6.54297 76.4453 6.54297C76.8438 6.54297 77.1914 6.61328 77.4883 6.75391C77.7891 6.89062 78.043 7.0918 78.25 7.35742C78.4609 7.61914 78.627 7.93555 78.748 8.30664C78.8691 8.67773 78.9531 9.09766 79 9.56641V10.1055C78.957 10.5703 78.873 10.9883 78.748 11.3594C78.627 11.7305 78.4609 12.0469 78.25 12.3086C78.043 12.5703 77.7891 12.7715 77.4883 12.9121C77.1875 13.0488 76.8359 13.1172 76.4336 13.1172C76.0547 13.1172 75.7109 13.0371 75.4023 12.877C75.0977 12.7168 74.8359 12.4922 74.6172 12.2031C74.3984 11.9141 74.2305 11.5742 74.1133 11.1836C74 10.7891 73.9434 10.3613 73.9434 9.90039ZM75.0273 9.77734V9.90039C75.0273 10.2168 75.0586 10.5137 75.1211 10.791C75.1875 11.0684 75.2871 11.3125 75.4199 11.5234C75.5566 11.7344 75.7305 11.9004 75.9414 12.0215C76.1523 12.1387 76.4043 12.1973 76.6973 12.1973C77.0566 12.1973 77.3535 12.1211 77.5879 11.9688C77.8223 11.8164 78.0078 11.6152 78.1445 11.3652C78.2852 11.1152 78.3945 10.8438 78.4727 10.5508V9.13867C78.4297 8.92383 78.3633 8.7168 78.2734 8.51758C78.1875 8.31445 78.0742 8.13477 77.9336 7.97852C77.7969 7.81836 77.627 7.69141 77.4238 7.59766C77.2207 7.50391 76.9824 7.45703 76.709 7.45703C76.4121 7.45703 76.1562 7.51953 75.9414 7.64453C75.7305 7.76562 75.5566 7.93359 75.4199 8.14844C75.2871 8.35938 75.1875 8.60547 75.1211 8.88672C75.0586 9.16406 75.0273 9.46094 75.0273 9.77734Z" fill="#096DD9"/>
<defs>
<clipPath id="clip0_1109_90533">
<rect width="14" height="14" fill="white" transform="translate(4 2)"/>
</clipPath>
</defs>
</svg>
