<svg width="88" height="18" viewBox="0 0 88 18" fill="none" xmlns="http://www.w3.org/2000/svg">
<rect width="88" height="18" rx="4" fill="#E6F7FF"/>
<g clip-path="url(#clip0_1109_90533)">
<path fill-rule="evenodd" clip-rule="evenodd" d="M11 3.22656C11.2899 3.22656 11.525 3.46161 11.525 3.75156V5.50156C11.525 5.79151 11.2899 6.02656 11 6.02656C10.71 6.02656 10.475 5.79151 10.475 5.50156V3.75156C10.475 3.46161 10.71 3.22656 11 3.22656ZM6.89547 4.89706C7.10049 4.69203 7.43291 4.69203 7.63793 4.89706L8.8921 6.15122C9.09712 6.35625 9.09712 6.68866 8.8921 6.89368C8.68707 7.09871 8.35466 7.09871 8.14964 6.89368L6.89547 5.63952C6.69044 5.43449 6.69044 5.10208 6.89547 4.89706ZM15.1045 4.89706C15.3096 5.10208 15.3096 5.43449 15.1045 5.63952L13.8504 6.89368C13.6453 7.09871 13.3129 7.09871 13.1079 6.89368C12.9029 6.68866 12.9029 6.35625 13.1079 6.15122L14.3621 4.89706C14.5671 4.69203 14.8995 4.69203 15.1045 4.89706ZM5.22498 9.00156C5.22498 8.71161 5.46003 8.47656 5.74998 8.47656H7.49998C7.78993 8.47656 8.02498 8.71161 8.02498 9.00156C8.02498 9.29151 7.78993 9.52656 7.49998 9.52656H5.74998C5.46003 9.52656 5.22498 9.29151 5.22498 9.00156ZM13.975 9.00156C13.975 8.71161 14.21 8.47656 14.5 8.47656H16.25C16.5399 8.47656 16.775 8.71161 16.775 9.00156C16.775 9.29151 16.5399 9.52656 16.25 9.52656H14.5C14.21 9.52656 13.975 9.29151 13.975 9.00156ZM8.8921 11.1095C9.09712 11.3145 9.09712 11.6469 8.8921 11.852L7.63793 13.1061C7.43291 13.3112 7.10049 13.3112 6.89547 13.1061C6.69044 12.9011 6.69044 12.5687 6.89547 12.3637L8.14964 11.1095C8.35466 10.9045 8.68707 10.9045 8.8921 11.1095ZM13.1079 11.1095C13.3129 10.9045 13.6453 10.9045 13.8504 11.1095L15.1045 12.3637C15.3096 12.5687 15.3096 12.9011 15.1045 13.1061C14.8995 13.3112 14.5671 13.3112 14.3621 13.1061L13.1079 11.852C12.9029 11.6469 12.9029 11.3145 13.1079 11.1095ZM11 11.9766C11.2899 11.9766 11.525 12.2116 11.525 12.5016V14.2516C11.525 14.5415 11.2899 14.7766 11 14.7766C10.71 14.7766 10.475 14.5415 10.475 14.2516V12.5016C10.475 12.2116 10.71 11.9766 11 11.9766Z" fill="#096DD9"/>
</g>
<path d="M24.2031 4.46875V13H23.0723V4.46875H24.2031ZM27.1797 8.01367V13H26.0957V6.66016H27.1211L27.1797 8.01367ZM26.9219 9.58984L26.4707 9.57227C26.4746 9.13867 26.5391 8.73828 26.6641 8.37109C26.7891 8 26.9648 7.67773 27.1914 7.4043C27.418 7.13086 27.6875 6.91992 28 6.77148C28.3164 6.61914 28.666 6.54297 29.0488 6.54297C29.3613 6.54297 29.6426 6.58594 29.8926 6.67188C30.1426 6.75391 30.3555 6.88672 30.5312 7.07031C30.7109 7.25391 30.8477 7.49219 30.9414 7.78516C31.0352 8.07422 31.082 8.42773 31.082 8.8457V13H29.9922V8.83398C29.9922 8.50195 29.9434 8.23633 29.8457 8.03711C29.748 7.83398 29.6055 7.6875 29.418 7.59766C29.2305 7.50391 29 7.45703 28.7266 7.45703C28.457 7.45703 28.2109 7.51367 27.9883 7.62695C27.7695 7.74023 27.5801 7.89648 27.4199 8.0957C27.2637 8.29492 27.1406 8.52344 27.0508 8.78125C26.9648 9.03516 26.9219 9.30469 26.9219 9.58984ZM36.7891 7.87891V15.4375H35.6992V6.66016H36.6953L36.7891 7.87891ZM41.0605 9.77734V9.90039C41.0605 10.3613 41.0059 10.7891 40.8965 11.1836C40.7871 11.5742 40.627 11.9141 40.416 12.2031C40.209 12.4922 39.9531 12.7168 39.6484 12.877C39.3438 13.0371 38.9941 13.1172 38.5996 13.1172C38.1973 13.1172 37.8418 13.0508 37.5332 12.918C37.2246 12.7852 36.9629 12.5918 36.748 12.3379C36.5332 12.084 36.3613 11.7793 36.2324 11.4238C36.1074 11.0684 36.0215 10.668 35.9746 10.2227V9.56641C36.0215 9.09766 36.1094 8.67773 36.2383 8.30664C36.3672 7.93555 36.5371 7.61914 36.748 7.35742C36.9629 7.0918 37.2227 6.89062 37.5273 6.75391C37.832 6.61328 38.1836 6.54297 38.582 6.54297C38.9805 6.54297 39.334 6.62109 39.6426 6.77734C39.9512 6.92969 40.2109 7.14844 40.4219 7.43359C40.6328 7.71875 40.791 8.06055 40.8965 8.45898C41.0059 8.85352 41.0605 9.29297 41.0605 9.77734ZM39.9707 9.90039V9.77734C39.9707 9.46094 39.9375 9.16406 39.8711 8.88672C39.8047 8.60547 39.7012 8.35938 39.5605 8.14844C39.4238 7.93359 39.248 7.76562 39.0332 7.64453C38.8184 7.51953 38.5625 7.45703 38.2656 7.45703C37.9922 7.45703 37.7539 7.50391 37.5508 7.59766C37.3516 7.69141 37.1816 7.81836 37.041 7.97852C36.9004 8.13477 36.7852 8.31445 36.6953 8.51758C36.6094 8.7168 36.5449 8.92383 36.502 9.13867V10.6562C36.5801 10.9297 36.6895 11.1875 36.8301 11.4297C36.9707 11.668 37.1582 11.8613 37.3926 12.0098C37.627 12.1543 37.9219 12.2266 38.2773 12.2266C38.5703 12.2266 38.8223 12.166 39.0332 12.0449C39.248 11.9199 39.4238 11.75 39.5605 11.5352C39.7012 11.3203 39.8047 11.0742 39.8711 10.7969C39.9375 10.5156 39.9707 10.2168 39.9707 9.90039ZM43.5273 7.65625V13H42.4434V6.66016H43.498L43.5273 7.65625ZM45.5078 6.625L45.502 7.63281C45.4121 7.61328 45.3262 7.60156 45.2441 7.59766C45.166 7.58984 45.0762 7.58594 44.9746 7.58594C44.7246 7.58594 44.5039 7.625 44.3125 7.70312C44.1211 7.78125 43.959 7.89062 43.8262 8.03125C43.6934 8.17188 43.5879 8.33984 43.5098 8.53516C43.4355 8.72656 43.3867 8.9375 43.3633 9.16797L43.0586 9.34375C43.0586 8.96094 43.0957 8.60156 43.1699 8.26562C43.248 7.92969 43.3672 7.63281 43.5273 7.375C43.6875 7.11328 43.8906 6.91016 44.1367 6.76562C44.3867 6.61719 44.6836 6.54297 45.0273 6.54297C45.1055 6.54297 45.1953 6.55273 45.2969 6.57227C45.3984 6.58789 45.4688 6.60547 45.5078 6.625ZM46.1055 9.90039V9.76562C46.1055 9.30859 46.1719 8.88477 46.3047 8.49414C46.4375 8.09961 46.6289 7.75781 46.8789 7.46875C47.1289 7.17578 47.4316 6.94922 47.7871 6.78906C48.1426 6.625 48.541 6.54297 48.9824 6.54297C49.4277 6.54297 49.8281 6.625 50.1836 6.78906C50.543 6.94922 50.8477 7.17578 51.0977 7.46875C51.3516 7.75781 51.5449 8.09961 51.6777 8.49414C51.8105 8.88477 51.877 9.30859 51.877 9.76562V9.90039C51.877 10.3574 51.8105 10.7812 51.6777 11.1719C51.5449 11.5625 51.3516 11.9043 51.0977 12.1973C50.8477 12.4863 50.5449 12.7129 50.1895 12.877C49.8379 13.0371 49.4395 13.1172 48.9941 13.1172C48.5488 13.1172 48.1484 13.0371 47.793 12.877C47.4375 12.7129 47.1328 12.4863 46.8789 12.1973C46.6289 11.9043 46.4375 11.5625 46.3047 11.1719C46.1719 10.7812 46.1055 10.3574 46.1055 9.90039ZM47.1895 9.76562V9.90039C47.1895 10.2168 47.2266 10.5156 47.3008 10.7969C47.375 11.0742 47.4863 11.3203 47.6348 11.5352C47.7871 11.75 47.9766 11.9199 48.2031 12.0449C48.4297 12.166 48.6934 12.2266 48.9941 12.2266C49.291 12.2266 49.5508 12.166 49.7734 12.0449C50 11.9199 50.1875 11.75 50.3359 11.5352C50.4844 11.3203 50.5957 11.0742 50.6699 10.7969C50.748 10.5156 50.7871 10.2168 50.7871 9.90039V9.76562C50.7871 9.45312 50.748 9.1582 50.6699 8.88086C50.5957 8.59961 50.4824 8.35156 50.3301 8.13672C50.1816 7.91797 49.9941 7.74609 49.7676 7.62109C49.5449 7.49609 49.2832 7.43359 48.9824 7.43359C48.6855 7.43359 48.4238 7.49609 48.1973 7.62109C47.9746 7.74609 47.7871 7.91797 47.6348 8.13672C47.4863 8.35156 47.375 8.59961 47.3008 8.88086C47.2266 9.1582 47.1895 9.45312 47.1895 9.76562ZM57.3438 6.66016H58.3281V12.8652C58.3281 13.4238 58.2148 13.9004 57.9883 14.2949C57.7617 14.6895 57.4453 14.9883 57.0391 15.1914C56.6367 15.3984 56.1719 15.502 55.6445 15.502C55.4258 15.502 55.168 15.4668 54.8711 15.3965C54.5781 15.3301 54.2891 15.2148 54.0039 15.0508C53.7227 14.8906 53.4863 14.6738 53.2949 14.4004L53.8633 13.7559C54.1289 14.0762 54.4062 14.2988 54.6953 14.4238C54.9883 14.5488 55.2773 14.6113 55.5625 14.6113C55.9062 14.6113 56.2031 14.5469 56.4531 14.418C56.7031 14.2891 56.8965 14.0977 57.0332 13.8438C57.1738 13.5938 57.2441 13.2852 57.2441 12.918V8.05469L57.3438 6.66016ZM52.9785 9.90039V9.77734C52.9785 9.29297 53.0352 8.85352 53.1484 8.45898C53.2656 8.06055 53.4316 7.71875 53.6465 7.43359C53.8652 7.14844 54.1289 6.92969 54.4375 6.77734C54.7461 6.62109 55.0938 6.54297 55.4805 6.54297C55.8789 6.54297 56.2266 6.61328 56.5234 6.75391C56.8242 6.89062 57.0781 7.0918 57.2852 7.35742C57.4961 7.61914 57.6621 7.93555 57.7832 8.30664C57.9043 8.67773 57.9883 9.09766 58.0352 9.56641V10.1055C57.9922 10.5703 57.9082 10.9883 57.7832 11.3594C57.6621 11.7305 57.4961 12.0469 57.2852 12.3086C57.0781 12.5703 56.8242 12.7715 56.5234 12.9121C56.2227 13.0488 55.8711 13.1172 55.4688 13.1172C55.0898 13.1172 54.7461 13.0371 54.4375 12.877C54.1328 12.7168 53.8711 12.4922 53.6523 12.2031C53.4336 11.9141 53.2656 11.5742 53.1484 11.1836C53.0352 10.7891 52.9785 10.3613 52.9785 9.90039ZM54.0625 9.77734V9.90039C54.0625 10.2168 54.0938 10.5137 54.1562 10.791C54.2227 11.0684 54.3223 11.3125 54.4551 11.5234C54.5918 11.7344 54.7656 11.9004 54.9766 12.0215C55.1875 12.1387 55.4395 12.1973 55.7324 12.1973C56.0918 12.1973 56.3887 12.1211 56.623 11.9688C56.8574 11.8164 57.043 11.6152 57.1797 11.3652C57.3203 11.1152 57.4297 10.8438 57.5078 10.5508V9.13867C57.4648 8.92383 57.3984 8.7168 57.3086 8.51758C57.2227 8.31445 57.1094 8.13477 56.9688 7.97852C56.832 7.81836 56.6621 7.69141 56.459 7.59766C56.2559 7.50391 56.0176 7.45703 55.7441 7.45703C55.4473 7.45703 55.1914 7.51953 54.9766 7.64453C54.7656 7.76562 54.5918 7.93359 54.4551 8.14844C54.3223 8.35938 54.2227 8.60547 54.1562 8.88672C54.0938 9.16406 54.0625 9.46094 54.0625 9.77734ZM61.0586 7.65625V13H59.9746V6.66016H61.0293L61.0586 7.65625ZM63.0391 6.625L63.0332 7.63281C62.9434 7.61328 62.8574 7.60156 62.7754 7.59766C62.6973 7.58984 62.6074 7.58594 62.5059 7.58594C62.2559 7.58594 62.0352 7.625 61.8438 7.70312C61.6523 7.78125 61.4902 7.89062 61.3574 8.03125C61.2246 8.17188 61.1191 8.33984 61.041 8.53516C60.9668 8.72656 60.918 8.9375 60.8945 9.16797L60.5898 9.34375C60.5898 8.96094 60.627 8.60156 60.7012 8.26562C60.7793 7.92969 60.8984 7.63281 61.0586 7.375C61.2188 7.11328 61.4219 6.91016 61.668 6.76562C61.918 6.61719 62.2148 6.54297 62.5586 6.54297C62.6367 6.54297 62.7266 6.55273 62.8281 6.57227C62.9297 6.58789 63 6.60547 63.0391 6.625ZM66.5547 13.1172C66.1133 13.1172 65.7129 13.043 65.3535 12.8945C64.998 12.7422 64.6914 12.5293 64.4336 12.2559C64.1797 11.9824 63.9844 11.6582 63.8477 11.2832C63.7109 10.9082 63.6426 10.498 63.6426 10.0527V9.80664C63.6426 9.29102 63.7188 8.83203 63.8711 8.42969C64.0234 8.02344 64.2305 7.67969 64.4922 7.39844C64.7539 7.11719 65.0508 6.9043 65.3828 6.75977C65.7148 6.61523 66.0586 6.54297 66.4141 6.54297C66.8672 6.54297 67.2578 6.62109 67.5859 6.77734C67.918 6.93359 68.1895 7.15234 68.4004 7.43359C68.6113 7.71094 68.7676 8.03906 68.8691 8.41797C68.9707 8.79297 69.0215 9.20312 69.0215 9.64844V10.1348H64.2871V9.25H67.9375V9.16797C67.9219 8.88672 67.8633 8.61328 67.7617 8.34766C67.6641 8.08203 67.5078 7.86328 67.293 7.69141C67.0781 7.51953 66.7852 7.43359 66.4141 7.43359C66.168 7.43359 65.9414 7.48633 65.7344 7.5918C65.5273 7.69336 65.3496 7.8457 65.2012 8.04883C65.0527 8.25195 64.9375 8.5 64.8555 8.79297C64.7734 9.08594 64.7324 9.42383 64.7324 9.80664V10.0527C64.7324 10.3535 64.7734 10.6367 64.8555 10.9023C64.9414 11.1641 65.0645 11.3945 65.2246 11.5938C65.3887 11.793 65.5859 11.9492 65.8164 12.0625C66.0508 12.1758 66.3164 12.2324 66.6133 12.2324C66.9961 12.2324 67.3203 12.1543 67.5859 11.998C67.8516 11.8418 68.084 11.6328 68.2832 11.3711L68.9395 11.8926C68.8027 12.0996 68.6289 12.2969 68.418 12.4844C68.207 12.6719 67.9473 12.8242 67.6387 12.9414C67.334 13.0586 66.9727 13.1172 66.5547 13.1172ZM73.9785 11.3184C73.9785 11.1621 73.9434 11.0176 73.873 10.8848C73.8066 10.748 73.668 10.625 73.457 10.5156C73.25 10.4023 72.9375 10.3047 72.5195 10.2227C72.168 10.1484 71.8496 10.0605 71.5645 9.95898C71.2832 9.85742 71.043 9.73438 70.8438 9.58984C70.6484 9.44531 70.498 9.27539 70.3926 9.08008C70.2871 8.88477 70.2344 8.65625 70.2344 8.39453C70.2344 8.14453 70.2891 7.9082 70.3984 7.68555C70.5117 7.46289 70.6699 7.26562 70.873 7.09375C71.0801 6.92188 71.3281 6.78711 71.6172 6.68945C71.9062 6.5918 72.2285 6.54297 72.584 6.54297C73.0918 6.54297 73.5254 6.63281 73.8848 6.8125C74.2441 6.99219 74.5195 7.23242 74.7109 7.5332C74.9023 7.83008 74.998 8.16016 74.998 8.52344H73.9141C73.9141 8.34766 73.8613 8.17773 73.7559 8.01367C73.6543 7.8457 73.5039 7.70703 73.3047 7.59766C73.1094 7.48828 72.8691 7.43359 72.584 7.43359C72.2832 7.43359 72.0391 7.48047 71.8516 7.57422C71.668 7.66406 71.5332 7.7793 71.4473 7.91992C71.3652 8.06055 71.3242 8.20898 71.3242 8.36523C71.3242 8.48242 71.3438 8.58789 71.3828 8.68164C71.4258 8.77148 71.5 8.85547 71.6055 8.93359C71.7109 9.00781 71.8594 9.07812 72.0508 9.14453C72.2422 9.21094 72.4863 9.27734 72.7832 9.34375C73.3027 9.46094 73.7305 9.60156 74.0664 9.76562C74.4023 9.92969 74.6523 10.1309 74.8164 10.3691C74.9805 10.6074 75.0625 10.8965 75.0625 11.2363C75.0625 11.5137 75.0039 11.7676 74.8867 11.998C74.7734 12.2285 74.6074 12.4277 74.3887 12.5957C74.1738 12.7598 73.916 12.8887 73.6152 12.9824C73.3184 13.0723 72.9844 13.1172 72.6133 13.1172C72.0547 13.1172 71.582 13.0176 71.1953 12.8184C70.8086 12.6191 70.5156 12.3613 70.3164 12.0449C70.1172 11.7285 70.0176 11.3945 70.0176 11.043H71.1074C71.123 11.3398 71.209 11.5762 71.3652 11.752C71.5215 11.9238 71.7129 12.0469 71.9395 12.1211C72.166 12.1914 72.3906 12.2266 72.6133 12.2266C72.9102 12.2266 73.1582 12.1875 73.3574 12.1094C73.5605 12.0312 73.7148 11.9238 73.8203 11.7871C73.9258 11.6504 73.9785 11.4941 73.9785 11.3184ZM80.1777 11.3184C80.1777 11.1621 80.1426 11.0176 80.0723 10.8848C80.0059 10.748 79.8672 10.625 79.6562 10.5156C79.4492 10.4023 79.1367 10.3047 78.7188 10.2227C78.3672 10.1484 78.0488 10.0605 77.7637 9.95898C77.4824 9.85742 77.2422 9.73438 77.043 9.58984C76.8477 9.44531 76.6973 9.27539 76.5918 9.08008C76.4863 8.88477 76.4336 8.65625 76.4336 8.39453C76.4336 8.14453 76.4883 7.9082 76.5977 7.68555C76.7109 7.46289 76.8691 7.26562 77.0723 7.09375C77.2793 6.92188 77.5273 6.78711 77.8164 6.68945C78.1055 6.5918 78.4277 6.54297 78.7832 6.54297C79.291 6.54297 79.7246 6.63281 80.084 6.8125C80.4434 6.99219 80.7188 7.23242 80.9102 7.5332C81.1016 7.83008 81.1973 8.16016 81.1973 8.52344H80.1133C80.1133 8.34766 80.0605 8.17773 79.9551 8.01367C79.8535 7.8457 79.7031 7.70703 79.5039 7.59766C79.3086 7.48828 79.0684 7.43359 78.7832 7.43359C78.4824 7.43359 78.2383 7.48047 78.0508 7.57422C77.8672 7.66406 77.7324 7.7793 77.6465 7.91992C77.5645 8.06055 77.5234 8.20898 77.5234 8.36523C77.5234 8.48242 77.543 8.58789 77.582 8.68164C77.625 8.77148 77.6992 8.85547 77.8047 8.93359C77.9102 9.00781 78.0586 9.07812 78.25 9.14453C78.4414 9.21094 78.6855 9.27734 78.9824 9.34375C79.502 9.46094 79.9297 9.60156 80.2656 9.76562C80.6016 9.92969 80.8516 10.1309 81.0156 10.3691C81.1797 10.6074 81.2617 10.8965 81.2617 11.2363C81.2617 11.5137 81.2031 11.7676 81.0859 11.998C80.9727 12.2285 80.8066 12.4277 80.5879 12.5957C80.373 12.7598 80.1152 12.8887 79.8145 12.9824C79.5176 13.0723 79.1836 13.1172 78.8125 13.1172C78.2539 13.1172 77.7812 13.0176 77.3945 12.8184C77.0078 12.6191 76.7148 12.3613 76.5156 12.0449C76.3164 11.7285 76.2168 11.3945 76.2168 11.043H77.3066C77.3223 11.3398 77.4082 11.5762 77.5645 11.752C77.7207 11.9238 77.9121 12.0469 78.1387 12.1211C78.3652 12.1914 78.5898 12.2266 78.8125 12.2266C79.1094 12.2266 79.3574 12.1875 79.5566 12.1094C79.7598 12.0312 79.9141 11.9238 80.0195 11.7871C80.125 11.6504 80.1777 11.4941 80.1777 11.3184Z" fill="#096DD9"/>
<defs>
<clipPath id="clip0_1109_90533">
<rect width="14" height="14" fill="white" transform="translate(4 2)"/>
</clipPath>
</defs>
</svg>
