<svg width="78" height="18" viewBox="0 0 78 18" fill="none" xmlns="http://www.w3.org/2000/svg">
<rect width="78" height="18" rx="4" fill="#FFEFE6"/>
<g clip-path="url(#clip0_1109_90533)">
<path fill-rule="evenodd" clip-rule="evenodd" d="M8.78998 3.66616C9.49063 3.37594 10.2416 3.22656 11 3.22656C11.7584 3.22656 12.5093 3.37594 13.21 3.66616C13.9106 3.95638 14.5473 4.38176 15.0835 4.91802C15.6198 5.45428 16.0452 6.09091 16.3354 6.79157C16.6256 7.49222 16.775 8.24318 16.775 9.00156C16.775 9.75995 16.6256 10.5109 16.3354 11.2116C16.0452 11.9122 15.6198 12.5488 15.0835 13.0851C14.5473 13.6214 13.9106 14.0467 13.21 14.337C12.5093 14.6272 11.7584 14.7766 11 14.7766C10.2416 14.7766 9.49063 14.6272 8.78998 14.337C8.08932 14.0467 7.45269 13.6214 6.91643 13.0851C6.38018 12.5488 5.95479 11.9122 5.66457 11.2116C5.37435 10.5109 5.22498 9.75995 5.22498 9.00156C5.22498 8.24318 5.37435 7.49222 5.66457 6.79157C5.95479 6.09091 6.38018 5.45428 6.91643 4.91802C7.45269 4.38176 8.08932 3.95638 8.78998 3.66616ZM11 4.27656C10.3795 4.27656 9.76506 4.39878 9.1918 4.63623C8.61853 4.87369 8.09765 5.22173 7.6589 5.66048C7.22014 6.09924 6.8721 6.62012 6.63464 7.19338C6.39719 7.76665 6.27498 8.38107 6.27498 9.00156C6.27498 9.62206 6.39719 10.2365 6.63464 10.8097C6.8721 11.383 7.22014 11.9039 7.6589 12.3426C8.09765 12.7814 8.61853 13.1294 9.1918 13.3669C9.76506 13.6043 10.3795 13.7266 11 13.7266C11.6205 13.7266 12.2349 13.6043 12.8082 13.3669C13.3814 13.1294 13.9023 12.7814 14.3411 12.3426C14.7798 11.9039 15.1279 11.383 15.3653 10.8097C15.6028 10.2365 15.725 9.62206 15.725 9.00156C15.725 8.38107 15.6028 7.76665 15.3653 7.19338C15.1279 6.62012 14.7798 6.09924 14.3411 5.66048C13.9023 5.22173 13.3814 4.87369 12.8082 4.63623C12.2349 4.39878 11.6205 4.27656 11 4.27656ZM8.87874 6.88033C9.08377 6.67531 9.41618 6.67531 9.62121 6.88033L13.1212 10.3803C13.3262 10.5854 13.3262 10.9178 13.1212 11.1228C12.9162 11.3278 12.5838 11.3278 12.3787 11.1228L8.87874 7.62279C8.67372 7.41777 8.67372 7.08536 8.87874 6.88033Z" fill="#D92400"/>
</g>
<path d="M28.1406 10.2871H29.2656C29.207 10.8262 29.0527 11.3086 28.8027 11.7344C28.5527 12.1602 28.1992 12.498 27.7422 12.748C27.2852 12.9941 26.7148 13.1172 26.0312 13.1172C25.5312 13.1172 25.0762 13.0234 24.666 12.8359C24.2598 12.6484 23.9102 12.3828 23.6172 12.0391C23.3242 11.6914 23.0977 11.2754 22.9375 10.791C22.7812 10.3027 22.7031 9.75977 22.7031 9.16211V8.3125C22.7031 7.71484 22.7812 7.17383 22.9375 6.68945C23.0977 6.20117 23.3262 5.7832 23.623 5.43555C23.9238 5.08789 24.2852 4.82031 24.707 4.63281C25.1289 4.44531 25.6035 4.35156 26.1309 4.35156C26.7754 4.35156 27.3203 4.47266 27.7656 4.71484C28.2109 4.95703 28.5566 5.29297 28.8027 5.72266C29.0527 6.14844 29.207 6.64258 29.2656 7.20508H28.1406C28.0859 6.80664 27.9844 6.46484 27.8359 6.17969C27.6875 5.89062 27.4766 5.66797 27.2031 5.51172C26.9297 5.35547 26.5723 5.27734 26.1309 5.27734C25.752 5.27734 25.418 5.34961 25.1289 5.49414C24.8438 5.63867 24.6035 5.84375 24.4082 6.10938C24.2168 6.375 24.0723 6.69336 23.9746 7.06445C23.877 7.43555 23.8281 7.84766 23.8281 8.30078V9.16211C23.8281 9.58008 23.8711 9.97266 23.957 10.3398C24.0469 10.707 24.1816 11.0293 24.3613 11.3066C24.541 11.584 24.7695 11.8027 25.0469 11.9629C25.3242 12.1191 25.6523 12.1973 26.0312 12.1973C26.5117 12.1973 26.8945 12.1211 27.1797 11.9688C27.4648 11.8164 27.6797 11.5977 27.8242 11.3125C27.9727 11.0273 28.0781 10.6855 28.1406 10.2871ZM34.3809 11.916V8.65234C34.3809 8.40234 34.3301 8.18555 34.2285 8.00195C34.1309 7.81445 33.9824 7.66992 33.7832 7.56836C33.584 7.4668 33.3379 7.41602 33.0449 7.41602C32.7715 7.41602 32.5312 7.46289 32.3242 7.55664C32.1211 7.65039 31.9609 7.77344 31.8438 7.92578C31.7305 8.07812 31.6738 8.24219 31.6738 8.41797H30.5898C30.5898 8.19141 30.6484 7.9668 30.7656 7.74414C30.8828 7.52148 31.0508 7.32031 31.2695 7.14062C31.4922 6.95703 31.7578 6.8125 32.0664 6.70703C32.3789 6.59766 32.7266 6.54297 33.1094 6.54297C33.5703 6.54297 33.9766 6.62109 34.3281 6.77734C34.6836 6.93359 34.9609 7.16992 35.1602 7.48633C35.3633 7.79883 35.4648 8.19141 35.4648 8.66406V11.6172C35.4648 11.8281 35.4824 12.0527 35.5176 12.291C35.5566 12.5293 35.6133 12.7344 35.6875 12.9062V13H34.5566C34.502 12.875 34.459 12.709 34.4277 12.502C34.3965 12.291 34.3809 12.0957 34.3809 11.916ZM34.5684 9.15625L34.5801 9.91797H33.4844C33.1758 9.91797 32.9004 9.94336 32.6582 9.99414C32.416 10.041 32.2129 10.1133 32.0488 10.2109C31.8848 10.3086 31.7598 10.4316 31.6738 10.5801C31.5879 10.7246 31.5449 10.8945 31.5449 11.0898C31.5449 11.2891 31.5898 11.4707 31.6797 11.6348C31.7695 11.7988 31.9043 11.9297 32.084 12.0273C32.2676 12.1211 32.4922 12.168 32.7578 12.168C33.0898 12.168 33.3828 12.0977 33.6367 11.957C33.8906 11.8164 34.0918 11.6445 34.2402 11.4414C34.3926 11.2383 34.4746 11.041 34.4863 10.8496L34.9492 11.3711C34.9219 11.5352 34.8477 11.7168 34.7266 11.916C34.6055 12.1152 34.4434 12.3066 34.2402 12.4902C34.041 12.6699 33.8027 12.8203 33.5254 12.9414C33.252 13.0586 32.9434 13.1172 32.5996 13.1172C32.1699 13.1172 31.793 13.0332 31.4688 12.8652C31.1484 12.6973 30.8984 12.4727 30.7188 12.1914C30.543 11.9062 30.4551 11.5879 30.4551 11.2363C30.4551 10.8965 30.5215 10.5977 30.6543 10.3398C30.7871 10.0781 30.9785 9.86133 31.2285 9.68945C31.4785 9.51367 31.7793 9.38086 32.1309 9.29102C32.4824 9.20117 32.875 9.15625 33.3086 9.15625H34.5684ZM38.2539 8.01367V13H37.1699V6.66016H38.1953L38.2539 8.01367ZM37.9961 9.58984L37.5449 9.57227C37.5488 9.13867 37.6133 8.73828 37.7383 8.37109C37.8633 8 38.0391 7.67773 38.2656 7.4043C38.4922 7.13086 38.7617 6.91992 39.0742 6.77148C39.3906 6.61914 39.7402 6.54297 40.123 6.54297C40.4355 6.54297 40.7168 6.58594 40.9668 6.67188C41.2168 6.75391 41.4297 6.88672 41.6055 7.07031C41.7852 7.25391 41.9219 7.49219 42.0156 7.78516C42.1094 8.07422 42.1562 8.42773 42.1562 8.8457V13H41.0664V8.83398C41.0664 8.50195 41.0176 8.23633 40.9199 8.03711C40.8223 7.83398 40.6797 7.6875 40.4922 7.59766C40.3047 7.50391 40.0742 7.45703 39.8008 7.45703C39.5312 7.45703 39.2852 7.51367 39.0625 7.62695C38.8438 7.74023 38.6543 7.89648 38.4941 8.0957C38.3379 8.29492 38.2148 8.52344 38.125 8.78125C38.0391 9.03516 37.9961 9.30469 37.9961 9.58984ZM46.3398 12.2266C46.5977 12.2266 46.8359 12.1738 47.0547 12.0684C47.2734 11.9629 47.4531 11.8184 47.5938 11.6348C47.7344 11.4473 47.8145 11.2344 47.834 10.9961H48.8652C48.8457 11.3711 48.7188 11.7207 48.4844 12.0449C48.2539 12.3652 47.9512 12.625 47.5762 12.8242C47.2012 13.0195 46.7891 13.1172 46.3398 13.1172C45.8633 13.1172 45.4473 13.0332 45.0918 12.8652C44.7402 12.6973 44.4473 12.4668 44.2129 12.1738C43.9824 11.8809 43.8086 11.5449 43.6914 11.166C43.5781 10.7832 43.5215 10.3789 43.5215 9.95312V9.70703C43.5215 9.28125 43.5781 8.87891 43.6914 8.5C43.8086 8.11719 43.9824 7.7793 44.2129 7.48633C44.4473 7.19336 44.7402 6.96289 45.0918 6.79492C45.4473 6.62695 45.8633 6.54297 46.3398 6.54297C46.8359 6.54297 47.2695 6.64453 47.6406 6.84766C48.0117 7.04688 48.3027 7.32031 48.5137 7.66797C48.7285 8.01172 48.8457 8.40234 48.8652 8.83984H47.834C47.8145 8.57812 47.7402 8.3418 47.6113 8.13086C47.4863 7.91992 47.3145 7.75195 47.0957 7.62695C46.8809 7.49805 46.6289 7.43359 46.3398 7.43359C46.0078 7.43359 45.7285 7.5 45.502 7.63281C45.2793 7.76172 45.1016 7.9375 44.9688 8.16016C44.8398 8.37891 44.7461 8.62305 44.6875 8.89258C44.6328 9.1582 44.6055 9.42969 44.6055 9.70703V9.95312C44.6055 10.2305 44.6328 10.5039 44.6875 10.7734C44.7422 11.043 44.834 11.2871 44.9629 11.5059C45.0957 11.7246 45.2734 11.9004 45.4961 12.0332C45.7227 12.1621 46.0039 12.2266 46.3398 12.2266ZM52.7148 13.1172C52.2734 13.1172 51.873 13.043 51.5137 12.8945C51.1582 12.7422 50.8516 12.5293 50.5938 12.2559C50.3398 11.9824 50.1445 11.6582 50.0078 11.2832C49.8711 10.9082 49.8027 10.498 49.8027 10.0527V9.80664C49.8027 9.29102 49.8789 8.83203 50.0312 8.42969C50.1836 8.02344 50.3906 7.67969 50.6523 7.39844C50.9141 7.11719 51.2109 6.9043 51.543 6.75977C51.875 6.61523 52.2188 6.54297 52.5742 6.54297C53.0273 6.54297 53.418 6.62109 53.7461 6.77734C54.0781 6.93359 54.3496 7.15234 54.5605 7.43359C54.7715 7.71094 54.9277 8.03906 55.0293 8.41797C55.1309 8.79297 55.1816 9.20312 55.1816 9.64844V10.1348H50.4473V9.25H54.0977V9.16797C54.082 8.88672 54.0234 8.61328 53.9219 8.34766C53.8242 8.08203 53.668 7.86328 53.4531 7.69141C53.2383 7.51953 52.9453 7.43359 52.5742 7.43359C52.3281 7.43359 52.1016 7.48633 51.8945 7.5918C51.6875 7.69336 51.5098 7.8457 51.3613 8.04883C51.2129 8.25195 51.0977 8.5 51.0156 8.79297C50.9336 9.08594 50.8926 9.42383 50.8926 9.80664V10.0527C50.8926 10.3535 50.9336 10.6367 51.0156 10.9023C51.1016 11.1641 51.2246 11.3945 51.3848 11.5938C51.5488 11.793 51.7461 11.9492 51.9766 12.0625C52.2109 12.1758 52.4766 12.2324 52.7734 12.2324C53.1562 12.2324 53.4805 12.1543 53.7461 11.998C54.0117 11.8418 54.2441 11.6328 54.4434 11.3711L55.0996 11.8926C54.9629 12.0996 54.7891 12.2969 54.5781 12.4844C54.3672 12.6719 54.1074 12.8242 53.7988 12.9414C53.4941 13.0586 53.1328 13.1172 52.7148 13.1172ZM57.625 4V13H56.5352V4H57.625ZM61.9961 13.1172C61.5547 13.1172 61.1543 13.043 60.7949 12.8945C60.4395 12.7422 60.1328 12.5293 59.875 12.2559C59.6211 11.9824 59.4258 11.6582 59.2891 11.2832C59.1523 10.9082 59.084 10.498 59.084 10.0527V9.80664C59.084 9.29102 59.1602 8.83203 59.3125 8.42969C59.4648 8.02344 59.6719 7.67969 59.9336 7.39844C60.1953 7.11719 60.4922 6.9043 60.8242 6.75977C61.1562 6.61523 61.5 6.54297 61.8555 6.54297C62.3086 6.54297 62.6992 6.62109 63.0273 6.77734C63.3594 6.93359 63.6309 7.15234 63.8418 7.43359C64.0527 7.71094 64.209 8.03906 64.3105 8.41797C64.4121 8.79297 64.4629 9.20312 64.4629 9.64844V10.1348H59.7285V9.25H63.3789V9.16797C63.3633 8.88672 63.3047 8.61328 63.2031 8.34766C63.1055 8.08203 62.9492 7.86328 62.7344 7.69141C62.5195 7.51953 62.2266 7.43359 61.8555 7.43359C61.6094 7.43359 61.3828 7.48633 61.1758 7.5918C60.9688 7.69336 60.791 7.8457 60.6426 8.04883C60.4941 8.25195 60.3789 8.5 60.2969 8.79297C60.2148 9.08594 60.1738 9.42383 60.1738 9.80664V10.0527C60.1738 10.3535 60.2148 10.6367 60.2969 10.9023C60.3828 11.1641 60.5059 11.3945 60.666 11.5938C60.8301 11.793 61.0273 11.9492 61.2578 12.0625C61.4922 12.1758 61.7578 12.2324 62.0547 12.2324C62.4375 12.2324 62.7617 12.1543 63.0273 11.998C63.293 11.8418 63.5254 11.6328 63.7246 11.3711L64.3809 11.8926C64.2441 12.0996 64.0703 12.2969 63.8594 12.4844C63.6484 12.6719 63.3887 12.8242 63.0801 12.9414C62.7754 13.0586 62.4141 13.1172 61.9961 13.1172ZM69.7246 11.7695V4H70.8145V13H69.8184L69.7246 11.7695ZM65.459 9.90039V9.77734C65.459 9.29297 65.5176 8.85352 65.6348 8.45898C65.7559 8.06055 65.9258 7.71875 66.1445 7.43359C66.3672 7.14844 66.6309 6.92969 66.9355 6.77734C67.2441 6.62109 67.5879 6.54297 67.9668 6.54297C68.3652 6.54297 68.7129 6.61328 69.0098 6.75391C69.3105 6.89062 69.5645 7.0918 69.7715 7.35742C69.9824 7.61914 70.1484 7.93555 70.2695 8.30664C70.3906 8.67773 70.4746 9.09766 70.5215 9.56641V10.1055C70.4785 10.5703 70.3945 10.9883 70.2695 11.3594C70.1484 11.7305 69.9824 12.0469 69.7715 12.3086C69.5645 12.5703 69.3105 12.7715 69.0098 12.9121C68.709 13.0488 68.3574 13.1172 67.9551 13.1172C67.584 13.1172 67.2441 13.0371 66.9355 12.877C66.6309 12.7168 66.3672 12.4922 66.1445 12.2031C65.9258 11.9141 65.7559 11.5742 65.6348 11.1836C65.5176 10.7891 65.459 10.3613 65.459 9.90039ZM66.5488 9.77734V9.90039C66.5488 10.2168 66.5801 10.5137 66.6426 10.791C66.709 11.0684 66.8105 11.3125 66.9473 11.5234C67.084 11.7344 67.2578 11.9004 67.4688 12.0215C67.6797 12.1387 67.9316 12.1973 68.2246 12.1973C68.584 12.1973 68.8789 12.1211 69.1094 11.9688C69.3438 11.8164 69.5312 11.6152 69.6719 11.3652C69.8125 11.1152 69.9219 10.8438 70 10.5508V9.13867C69.9531 8.92383 69.8848 8.7168 69.7949 8.51758C69.709 8.31445 69.5957 8.13477 69.4551 7.97852C69.3184 7.81836 69.1484 7.69141 68.9453 7.59766C68.7461 7.50391 68.5098 7.45703 68.2363 7.45703C67.9395 7.45703 67.6836 7.51953 67.4688 7.64453C67.2578 7.76562 67.084 7.93359 66.9473 8.14844C66.8105 8.35938 66.709 8.60547 66.6426 8.88672C66.5801 9.16406 66.5488 9.46094 66.5488 9.77734Z" fill="#D92400"/>
<defs>
<clipPath id="clip0_1109_90533">
<rect width="14" height="14" fill="white" transform="translate(4 2)"/>
</clipPath>
</defs>
</svg>
