<svg width="70" height="18" viewBox="0 0 70 18" fill="none" xmlns="http://www.w3.org/2000/svg">
<rect width="70" height="18" rx="4" fill="#E6F7FF"/>
<g clip-path="url(#clip0_1109_90533)">
<path fill-rule="evenodd" clip-rule="evenodd" d="M6.91643 4.91802C7.99946 3.835 9.46835 3.22656 11 3.22656C12.5316 3.22656 14.0005 3.835 15.0835 4.91802C16.1665 6.00104 16.775 7.46994 16.775 9.00156C16.775 9.75995 16.6256 10.5109 16.3354 11.2116C16.0452 11.9122 15.6198 12.5488 15.0835 13.0851C14.5473 13.6214 13.9106 14.0467 13.21 14.337C12.5093 14.6272 11.7584 14.7766 11 14.7766C10.2416 14.7766 9.49063 14.6272 8.78998 14.337C8.08932 14.0467 7.45269 13.6214 6.91643 13.0851C6.38018 12.5488 5.95479 11.9122 5.66457 11.2116C5.37435 10.5109 5.22498 9.75995 5.22498 9.00156C5.22498 7.46994 5.83341 6.00104 6.91643 4.91802ZM11 4.27656C9.74683 4.27656 8.54501 4.77437 7.6589 5.66048C6.77279 6.54659 6.27498 7.74841 6.27498 9.00156C6.27498 9.62206 6.39719 10.2365 6.63464 10.8097C6.8721 11.383 7.22014 11.9039 7.6589 12.3426C8.09765 12.7814 8.61853 13.1294 9.1918 13.3669C9.76506 13.6043 10.3795 13.7266 11 13.7266C11.6205 13.7266 12.2349 13.6043 12.8082 13.3669C13.3814 13.1294 13.9023 12.7814 14.3411 12.3426C14.7798 11.9039 15.1279 11.383 15.3653 10.8097C15.6028 10.2365 15.725 9.62206 15.725 9.00156C15.725 7.74841 15.2272 6.54659 14.3411 5.66048C13.4549 4.77437 12.2531 4.27656 11 4.27656ZM11 5.5599C11.2899 5.5599 11.525 5.79495 11.525 6.0849V8.7841L13.1212 10.3803C13.3262 10.5854 13.3262 10.9178 13.1212 11.1228C12.9162 11.3278 12.5838 11.3278 12.3787 11.1228L10.6287 9.37279C10.5303 9.27434 10.475 9.1408 10.475 9.00156V6.0849C10.475 5.79495 10.71 5.5599 11 5.5599Z" fill="#096DD9"/>
</g>
<path d="M27.3672 12.0215L29.5352 13.7383L28.7734 14.4414L26.6406 12.748L27.3672 12.0215ZM29.5059 8.46484V9.00391C29.5059 9.64453 29.4258 10.2188 29.2656 10.7266C29.1055 11.2344 28.875 11.666 28.5742 12.0215C28.2734 12.377 27.9121 12.6484 27.4902 12.8359C27.0723 13.0234 26.6035 13.1172 26.084 13.1172C25.5801 13.1172 25.1172 13.0234 24.6953 12.8359C24.2773 12.6484 23.9141 12.377 23.6055 12.0215C23.3008 11.666 23.0645 11.2344 22.8965 10.7266C22.7285 10.2188 22.6445 9.64453 22.6445 9.00391V8.46484C22.6445 7.82422 22.7266 7.25195 22.8906 6.74805C23.0586 6.24023 23.2949 5.80859 23.5996 5.45312C23.9043 5.09375 24.2656 4.82031 24.6836 4.63281C25.1055 4.44531 25.5684 4.35156 26.0723 4.35156C26.5918 4.35156 27.0625 4.44531 27.4844 4.63281C27.9062 4.82031 28.2676 5.09375 28.5684 5.45312C28.8691 5.80859 29.0996 6.24023 29.2598 6.74805C29.4238 7.25195 29.5059 7.82422 29.5059 8.46484ZM28.3867 9.00391V8.45312C28.3867 7.94531 28.334 7.49609 28.2285 7.10547C28.127 6.71484 27.9766 6.38672 27.7773 6.12109C27.5781 5.85547 27.3359 5.6543 27.0508 5.51758C26.7656 5.38086 26.4395 5.3125 26.0723 5.3125C25.7246 5.3125 25.4082 5.38086 25.123 5.51758C24.8418 5.6543 24.5996 5.85547 24.3965 6.12109C24.1934 6.38672 24.0371 6.71484 23.9277 7.10547C23.8184 7.49609 23.7637 7.94531 23.7637 8.45312V9.00391C23.7637 9.51562 23.8184 9.96875 23.9277 10.3633C24.0371 10.7539 24.1934 11.084 24.3965 11.3535C24.6035 11.6191 24.8496 11.8203 25.1348 11.957C25.4199 12.0938 25.7363 12.1621 26.084 12.1621C26.4512 12.1621 26.7773 12.0938 27.0625 11.957C27.3477 11.8203 27.5879 11.6191 27.7832 11.3535C27.9824 11.084 28.1328 10.7539 28.2344 10.3633C28.3359 9.96875 28.3867 9.51562 28.3867 9.00391ZM34.9668 11.5352V6.66016H36.0566V13H35.0195L34.9668 11.5352ZM35.1719 10.1992L35.623 10.1875C35.623 10.6094 35.5781 11 35.4883 11.3594C35.4023 11.7148 35.2617 12.0234 35.0664 12.2852C34.8711 12.5469 34.6152 12.752 34.2988 12.9004C33.9824 13.0449 33.5977 13.1172 33.1445 13.1172C32.8359 13.1172 32.5527 13.0723 32.2949 12.9824C32.041 12.8926 31.8223 12.7539 31.6387 12.5664C31.4551 12.3789 31.3125 12.1348 31.2109 11.834C31.1133 11.5332 31.0645 11.1719 31.0645 10.75V6.66016H32.1484V10.7617C32.1484 11.0469 32.1797 11.2832 32.2422 11.4707C32.3086 11.6543 32.3965 11.8008 32.5059 11.9102C32.6191 12.0156 32.7441 12.0898 32.8809 12.1328C33.0215 12.1758 33.166 12.1973 33.3145 12.1973C33.7754 12.1973 34.1406 12.1094 34.4102 11.9336C34.6797 11.7539 34.873 11.5137 34.9902 11.2129C35.1113 10.9082 35.1719 10.5703 35.1719 10.1992ZM40.3398 13.1172C39.8984 13.1172 39.498 13.043 39.1387 12.8945C38.7832 12.7422 38.4766 12.5293 38.2188 12.2559C37.9648 11.9824 37.7695 11.6582 37.6328 11.2832C37.4961 10.9082 37.4277 10.498 37.4277 10.0527V9.80664C37.4277 9.29102 37.5039 8.83203 37.6562 8.42969C37.8086 8.02344 38.0156 7.67969 38.2773 7.39844C38.5391 7.11719 38.8359 6.9043 39.168 6.75977C39.5 6.61523 39.8438 6.54297 40.1992 6.54297C40.6523 6.54297 41.043 6.62109 41.3711 6.77734C41.7031 6.93359 41.9746 7.15234 42.1855 7.43359C42.3965 7.71094 42.5527 8.03906 42.6543 8.41797C42.7559 8.79297 42.8066 9.20312 42.8066 9.64844V10.1348H38.0723V9.25H41.7227V9.16797C41.707 8.88672 41.6484 8.61328 41.5469 8.34766C41.4492 8.08203 41.293 7.86328 41.0781 7.69141C40.8633 7.51953 40.5703 7.43359 40.1992 7.43359C39.9531 7.43359 39.7266 7.48633 39.5195 7.5918C39.3125 7.69336 39.1348 7.8457 38.9863 8.04883C38.8379 8.25195 38.7227 8.5 38.6406 8.79297C38.5586 9.08594 38.5176 9.42383 38.5176 9.80664V10.0527C38.5176 10.3535 38.5586 10.6367 38.6406 10.9023C38.7266 11.1641 38.8496 11.3945 39.0098 11.5938C39.1738 11.793 39.3711 11.9492 39.6016 12.0625C39.8359 12.1758 40.1016 12.2324 40.3984 12.2324C40.7812 12.2324 41.1055 12.1543 41.3711 11.998C41.6367 11.8418 41.8691 11.6328 42.0684 11.3711L42.7246 11.8926C42.5879 12.0996 42.4141 12.2969 42.2031 12.4844C41.9922 12.6719 41.7324 12.8242 41.4238 12.9414C41.1191 13.0586 40.7578 13.1172 40.3398 13.1172ZM47.9512 11.5352V6.66016H49.041V13H48.0039L47.9512 11.5352ZM48.1562 10.1992L48.6074 10.1875C48.6074 10.6094 48.5625 11 48.4727 11.3594C48.3867 11.7148 48.2461 12.0234 48.0508 12.2852C47.8555 12.5469 47.5996 12.752 47.2832 12.9004C46.9668 13.0449 46.582 13.1172 46.1289 13.1172C45.8203 13.1172 45.5371 13.0723 45.2793 12.9824C45.0254 12.8926 44.8066 12.7539 44.623 12.5664C44.4395 12.3789 44.2969 12.1348 44.1953 11.834C44.0977 11.5332 44.0488 11.1719 44.0488 10.75V6.66016H45.1328V10.7617C45.1328 11.0469 45.1641 11.2832 45.2266 11.4707C45.293 11.6543 45.3809 11.8008 45.4902 11.9102C45.6035 12.0156 45.7285 12.0898 45.8652 12.1328C46.0059 12.1758 46.1504 12.1973 46.2988 12.1973C46.7598 12.1973 47.125 12.1094 47.3945 11.9336C47.6641 11.7539 47.8574 11.5137 47.9746 11.2129C48.0957 10.9082 48.1562 10.5703 48.1562 10.1992ZM53.3242 13.1172C52.8828 13.1172 52.4824 13.043 52.123 12.8945C51.7676 12.7422 51.4609 12.5293 51.2031 12.2559C50.9492 11.9824 50.7539 11.6582 50.6172 11.2832C50.4805 10.9082 50.4121 10.498 50.4121 10.0527V9.80664C50.4121 9.29102 50.4883 8.83203 50.6406 8.42969C50.793 8.02344 51 7.67969 51.2617 7.39844C51.5234 7.11719 51.8203 6.9043 52.1523 6.75977C52.4844 6.61523 52.8281 6.54297 53.1836 6.54297C53.6367 6.54297 54.0273 6.62109 54.3555 6.77734C54.6875 6.93359 54.959 7.15234 55.1699 7.43359C55.3809 7.71094 55.5371 8.03906 55.6387 8.41797C55.7402 8.79297 55.791 9.20312 55.791 9.64844V10.1348H51.0566V9.25H54.707V9.16797C54.6914 8.88672 54.6328 8.61328 54.5312 8.34766C54.4336 8.08203 54.2773 7.86328 54.0625 7.69141C53.8477 7.51953 53.5547 7.43359 53.1836 7.43359C52.9375 7.43359 52.7109 7.48633 52.5039 7.5918C52.2969 7.69336 52.1191 7.8457 51.9707 8.04883C51.8223 8.25195 51.707 8.5 51.625 8.79297C51.543 9.08594 51.502 9.42383 51.502 9.80664V10.0527C51.502 10.3535 51.543 10.6367 51.625 10.9023C51.7109 11.1641 51.834 11.3945 51.9941 11.5938C52.1582 11.793 52.3555 11.9492 52.5859 12.0625C52.8203 12.1758 53.0859 12.2324 53.3828 12.2324C53.7656 12.2324 54.0898 12.1543 54.3555 11.998C54.6211 11.8418 54.8535 11.6328 55.0527 11.3711L55.709 11.8926C55.5723 12.0996 55.3984 12.2969 55.1875 12.4844C54.9766 12.6719 54.7168 12.8242 54.4082 12.9414C54.1035 13.0586 53.7422 13.1172 53.3242 13.1172ZM61.0527 11.7695V4H62.1426V13H61.1465L61.0527 11.7695ZM56.7871 9.90039V9.77734C56.7871 9.29297 56.8457 8.85352 56.9629 8.45898C57.084 8.06055 57.2539 7.71875 57.4727 7.43359C57.6953 7.14844 57.959 6.92969 58.2637 6.77734C58.5723 6.62109 58.916 6.54297 59.2949 6.54297C59.6934 6.54297 60.041 6.61328 60.3379 6.75391C60.6387 6.89062 60.8926 7.0918 61.0996 7.35742C61.3105 7.61914 61.4766 7.93555 61.5977 8.30664C61.7188 8.67773 61.8027 9.09766 61.8496 9.56641V10.1055C61.8066 10.5703 61.7227 10.9883 61.5977 11.3594C61.4766 11.7305 61.3105 12.0469 61.0996 12.3086C60.8926 12.5703 60.6387 12.7715 60.3379 12.9121C60.0371 13.0488 59.6855 13.1172 59.2832 13.1172C58.9121 13.1172 58.5723 13.0371 58.2637 12.877C57.959 12.7168 57.6953 12.4922 57.4727 12.2031C57.2539 11.9141 57.084 11.5742 56.9629 11.1836C56.8457 10.7891 56.7871 10.3613 56.7871 9.90039ZM57.877 9.77734V9.90039C57.877 10.2168 57.9082 10.5137 57.9707 10.791C58.0371 11.0684 58.1387 11.3125 58.2754 11.5234C58.4121 11.7344 58.5859 11.9004 58.7969 12.0215C59.0078 12.1387 59.2598 12.1973 59.5527 12.1973C59.9121 12.1973 60.207 12.1211 60.4375 11.9688C60.6719 11.8164 60.8594 11.6152 61 11.3652C61.1406 11.1152 61.25 10.8438 61.3281 10.5508V9.13867C61.2812 8.92383 61.2129 8.7168 61.123 8.51758C61.0371 8.31445 60.9238 8.13477 60.7832 7.97852C60.6465 7.81836 60.4766 7.69141 60.2734 7.59766C60.0742 7.50391 59.8379 7.45703 59.5645 7.45703C59.2676 7.45703 59.0117 7.51953 58.7969 7.64453C58.5859 7.76562 58.4121 7.93359 58.2754 8.14844C58.1387 8.35938 58.0371 8.60547 57.9707 8.88672C57.9082 9.16406 57.877 9.46094 57.877 9.77734Z" fill="#096DD9"/>
<defs>
<clipPath id="clip0_1109_90533">
<rect width="14" height="14" fill="white" transform="translate(4 2)"/>
</clipPath>
</defs>
</svg>
