<svg width="52" height="18" viewBox="0 0 52 18" fill="none" xmlns="http://www.w3.org/2000/svg">
<rect width="52" height="18" rx="4" fill="#EAECF0"/>
<g clip-path="url(#clip0_158117_1862)">
<path fill-rule="evenodd" clip-rule="evenodd" d="M11.4493 4.64983C11.3108 4.14511 10.6756 4.15011 10.5469 4.66484C10.5455 4.67049 10.544 4.67613 10.5424 4.68173C10.4051 5.16229 10.0382 5.51535 9.62966 5.6882C9.22722 5.85847 8.71781 5.87944 8.28299 5.60254C8.01376 5.46296 7.79205 5.53489 7.66352 5.66342C7.53249 5.79445 7.46028 6.0223 7.61099 6.29861C7.63708 6.34643 7.65546 6.39784 7.66567 6.45095C7.67558 6.4707 7.69742 6.51434 7.7155 6.56254C7.72869 6.59771 7.74448 6.64668 7.75401 6.706C7.97716 7.49215 7.48032 8.39556 6.64993 8.55076C6.15578 8.68639 6.15022 9.29811 6.63325 9.44444C6.69746 9.45371 6.75027 9.47062 6.78756 9.48461C6.83576 9.50268 6.87941 9.52452 6.89916 9.53444C6.96749 9.54757 7.03287 9.57421 7.09132 9.61318C7.8552 10.1224 8.0034 11.0482 7.60028 11.7201C7.486 11.9106 7.52462 12.1321 7.69633 12.3038C7.86804 12.4755 8.08953 12.5141 8.27999 12.3998C8.33295 12.368 8.39088 12.346 8.45104 12.3344C8.47079 12.3245 8.51444 12.3027 8.56263 12.2846C8.59781 12.2714 8.64678 12.2556 8.7061 12.2461C9.49224 12.0229 10.3957 12.5198 10.5509 13.3502C10.6847 13.8379 11.2823 13.8497 11.4386 13.3855C11.4436 13.2645 11.4729 13.0616 11.6385 12.872C12.1526 12.1402 13.0593 12.0033 13.7202 12.3998C13.9107 12.5141 14.1322 12.4755 14.3039 12.3038C14.4756 12.1321 14.5142 11.9106 14.3999 11.7201C14.3681 11.6671 14.3461 11.6092 14.3345 11.5491C14.3246 11.5293 14.3028 11.4857 14.2847 11.4375C14.2715 11.4023 14.2557 11.3533 14.2462 11.294C14.023 10.5079 14.5199 9.60445 15.3503 9.44925C15.838 9.3154 15.8497 8.71781 15.3856 8.56155C15.2646 8.55652 15.0617 8.52719 14.8721 8.36165C14.1403 7.84752 14.0033 6.94084 14.3999 6.2799C14.5142 6.08943 14.4756 5.86795 14.3039 5.69624C14.1322 5.52452 13.9107 5.48591 13.7202 5.60019C13.6672 5.63197 13.6093 5.65402 13.5492 5.66558C13.5294 5.67549 13.4858 5.69733 13.4376 5.71541C13.4024 5.7286 13.3534 5.74438 13.2941 5.75392C12.508 5.97707 11.6045 5.48023 11.4493 4.64983ZM9.53104 4.39924C9.93327 2.82996 12.0778 2.8336 12.4719 4.41017C12.4753 4.42373 12.4782 4.43741 12.4805 4.4512C12.5109 4.63399 12.7791 4.82028 13.0216 4.73945C13.0435 4.73213 13.0659 4.72629 13.0885 4.72194C13.1083 4.71202 13.1519 4.69018 13.2001 4.67211C13.2195 4.66482 13.2432 4.65675 13.2704 4.64938C13.929 4.30917 14.6249 4.53233 15.0463 4.95378C15.4871 5.39456 15.711 6.13558 15.3003 6.82012C15.1784 7.02324 15.2052 7.32244 15.4913 7.51318C15.4914 7.51322 15.4913 7.51314 15.4913 7.51318C15.5245 7.51501 15.5576 7.52011 15.5899 7.52818C17.1702 7.92324 17.1702 10.0768 15.5899 10.4718C15.5764 10.4752 15.5627 10.4781 15.5489 10.4804C15.3661 10.5108 15.1798 10.779 15.2607 11.0215C15.268 11.0434 15.2738 11.0658 15.2782 11.0884C15.2881 11.1082 15.3099 11.1518 15.328 11.2C15.3353 11.2195 15.3434 11.2431 15.3507 11.2703C15.6909 11.9289 15.4678 12.6248 15.0463 13.0462C14.6055 13.487 13.8645 13.7109 13.18 13.3002C12.9769 13.1783 12.6777 13.2051 12.4869 13.4912C12.4869 13.4913 12.487 13.4912 12.4869 13.4912C12.4851 13.5244 12.48 13.5576 12.4719 13.5898C12.0769 15.1701 9.92333 15.1701 9.52827 13.5898C9.52488 13.5763 9.52204 13.5626 9.51974 13.5488C9.48928 13.366 9.2211 13.1797 8.97862 13.2606C8.95667 13.2679 8.9343 13.2737 8.91166 13.2781C8.89191 13.288 8.84826 13.3098 8.80006 13.3279C8.78065 13.3352 8.75703 13.3433 8.72978 13.3506C8.0712 13.6908 7.37531 13.4677 6.95387 13.0462C6.51308 12.6055 6.28919 11.8644 6.69991 11.1799C6.81158 10.9938 6.79844 10.727 6.57537 10.5369C6.56631 10.5338 6.55789 10.5308 6.55013 10.5279C6.50194 10.5098 6.45829 10.488 6.43854 10.4781C6.42907 10.4763 6.41964 10.4742 6.41027 10.4718C4.83004 10.0768 4.83004 7.92324 6.41027 7.52818C6.42382 7.52479 6.43751 7.52195 6.45129 7.51965C6.63408 7.48918 6.82037 7.22101 6.73954 6.97853C6.73222 6.95658 6.72638 6.93421 6.72203 6.91157C6.71211 6.89182 6.69027 6.84817 6.6722 6.79997C6.66391 6.77787 6.6546 6.75032 6.64645 6.71818C6.32724 6.05641 6.47998 5.36203 6.92105 4.92096C7.38066 4.46136 8.1153 4.31482 8.8015 4.68911C8.81512 4.69654 8.8284 4.70457 8.84132 4.71318C8.92631 4.76985 9.06169 4.78839 9.22054 4.72119C9.37831 4.65444 9.49164 4.52908 9.53104 4.39924Z" fill="#475467"/>
<path fill-rule="evenodd" clip-rule="evenodd" d="M8.7251 9.00001C8.7251 7.74756 9.74765 6.72501 11.0001 6.72501C12.2525 6.72501 13.2751 7.74756 13.2751 9.00001C13.2751 10.2525 12.2525 11.275 11.0001 11.275C9.74765 11.275 8.7251 10.2525 8.7251 9.00001ZM11.0001 7.77501C10.3275 7.77501 9.7751 8.32746 9.7751 9.00001C9.7751 9.67256 10.3275 10.225 11.0001 10.225C11.6726 10.225 12.2251 9.67256 12.2251 9.00001C12.2251 8.32746 11.6726 7.77501 11.0001 7.77501Z" fill="#475467"/>
</g>
<path d="M29.5527 4.46875V13H28.416L24.1211 6.41992V13H22.9902V4.46875H24.1211L28.4336 11.0664V4.46875H29.5527ZM34.0234 13.1172C33.582 13.1172 33.1816 13.043 32.8223 12.8945C32.4668 12.7422 32.1602 12.5293 31.9023 12.2559C31.6484 11.9824 31.4531 11.6582 31.3164 11.2832C31.1797 10.9082 31.1113 10.498 31.1113 10.0527V9.80664C31.1113 9.29102 31.1875 8.83203 31.3398 8.42969C31.4922 8.02344 31.6992 7.67969 31.9609 7.39844C32.2227 7.11719 32.5195 6.9043 32.8516 6.75977C33.1836 6.61523 33.5273 6.54297 33.8828 6.54297C34.3359 6.54297 34.7266 6.62109 35.0547 6.77734C35.3867 6.93359 35.6582 7.15234 35.8691 7.43359C36.0801 7.71094 36.2363 8.03906 36.3379 8.41797C36.4395 8.79297 36.4902 9.20312 36.4902 9.64844V10.1348H31.7559V9.25H35.4062V9.16797C35.3906 8.88672 35.332 8.61328 35.2305 8.34766C35.1328 8.08203 34.9766 7.86328 34.7617 7.69141C34.5469 7.51953 34.2539 7.43359 33.8828 7.43359C33.6367 7.43359 33.4102 7.48633 33.2031 7.5918C32.9961 7.69336 32.8184 7.8457 32.6699 8.04883C32.5215 8.25195 32.4062 8.5 32.3242 8.79297C32.2422 9.08594 32.2012 9.42383 32.2012 9.80664V10.0527C32.2012 10.3535 32.2422 10.6367 32.3242 10.9023C32.4102 11.1641 32.5332 11.3945 32.6934 11.5938C32.8574 11.793 33.0547 11.9492 33.2852 12.0625C33.5195 12.1758 33.7852 12.2324 34.082 12.2324C34.4648 12.2324 34.7891 12.1543 35.0547 11.998C35.3203 11.8418 35.5527 11.6328 35.752 11.3711L36.4082 11.8926C36.2715 12.0996 36.0977 12.2969 35.8867 12.4844C35.6758 12.6719 35.416 12.8242 35.1074 12.9414C34.8027 13.0586 34.4414 13.1172 34.0234 13.1172ZM39.3613 11.875L40.9902 6.66016H41.7051L41.5645 7.69727L39.9062 13H39.209L39.3613 11.875ZM38.2656 6.66016L39.6543 11.9336L39.7539 13H39.0215L37.1816 6.66016H38.2656ZM43.2637 11.8926L44.5879 6.66016H45.666L43.8262 13H43.0996L43.2637 11.8926ZM41.8633 6.66016L43.457 11.7871L43.6387 13H42.9473L41.2422 7.68555L41.1016 6.66016H41.8633Z" fill="#475467"/>
<defs>
<clipPath id="clip0_158117_1862">
<rect width="14" height="14" fill="white" transform="translate(4 2)"/>
</clipPath>
</defs>
</svg>
