<svg width="52" height="18" viewBox="0 0 52 18" fill="none" xmlns="http://www.w3.org/2000/svg">
<rect width="52" height="18" rx="4" fill="#EAECF0"/>
<g clip-path="url(#clip0_154_102)">
<path fill-rule="evenodd" clip-rule="evenodd" d="M8.08333 4.275C7.91315 4.275 7.74994 4.3426 7.62961 4.46294C7.50927 4.58327 7.44167 4.74648 7.44167 4.91667V13.0833C7.44167 13.2535 7.50927 13.4167 7.62961 13.5371C7.74994 13.6574 7.91315 13.725 8.08333 13.725H11C11.2899 13.725 11.525 13.96 11.525 14.25C11.525 14.5399 11.2899 14.775 11 14.775H8.08333C7.63468 14.775 7.20439 14.5968 6.88714 14.2795C6.5699 13.9623 6.39167 13.532 6.39167 13.0833V4.91667C6.39167 4.46801 6.56989 4.03773 6.88714 3.72048C7.20439 3.40323 7.63468 3.225 8.08333 3.225H12.1667C12.3059 3.225 12.4394 3.28031 12.5379 3.37877L15.4546 6.29543C15.553 6.39389 15.6083 6.52743 15.6083 6.66667V8.70833C15.6083 8.99828 15.3733 9.23333 15.0833 9.23333C14.7934 9.23333 14.5583 8.99828 14.5583 8.70833V7.19166H12.75C12.4561 7.19166 12.1741 7.07489 11.9663 6.86704C11.7584 6.65919 11.6417 6.37728 11.6417 6.08333V4.275H8.08333ZM12.6917 5.01746L13.8159 6.14166H12.75C12.7345 6.14166 12.7197 6.13552 12.7088 6.12458C12.6978 6.11364 12.6917 6.0988 12.6917 6.08333V5.01746ZM15.0833 10.5167C15.3257 10.5167 15.5366 10.6826 15.5936 10.9182C15.6907 11.3195 15.8965 11.6863 16.1884 11.9782C16.4804 12.2702 16.8471 12.476 17.2484 12.573C17.484 12.63 17.65 12.8409 17.65 13.0833C17.65 13.3257 17.484 13.5366 17.2484 13.5936C16.8471 13.6907 16.4804 13.8965 16.1884 14.1884C15.8965 14.4804 15.6907 14.8471 15.5936 15.2484C15.5366 15.484 15.3257 15.65 15.0833 15.65C14.8409 15.65 14.63 15.484 14.5731 15.2484C14.476 14.8471 14.2702 14.4804 13.9782 14.1884C13.6863 13.8965 13.3195 13.6907 12.9182 13.5936C12.6826 13.5366 12.5167 13.3257 12.5167 13.0833C12.5167 12.8409 12.6826 12.63 12.9182 12.573C13.3195 12.476 13.6863 12.2702 13.9782 11.9782C14.2702 11.6863 14.476 11.3195 14.5731 10.9182C14.63 10.6826 14.8409 10.5167 15.0833 10.5167ZM15.0833 12.29C14.9754 12.443 14.8542 12.5872 14.7207 12.7207C14.5872 12.8542 14.443 12.9754 14.29 13.0833C14.443 13.1913 14.5872 13.3125 14.7207 13.446C14.8542 13.5795 14.9754 13.7236 15.0833 13.8766C15.1913 13.7236 15.3125 13.5795 15.446 13.446C15.5795 13.3125 15.7236 13.1913 15.8766 13.0833C15.7236 12.9754 15.5795 12.8542 15.446 12.7207C15.3125 12.5872 15.1913 12.443 15.0833 12.29Z" fill="#475467"/>
</g>
<path d="M29.5527 4.46875V13H28.416L24.1211 6.41992V13H22.9902V4.46875H24.1211L28.4336 11.0664V4.46875H29.5527ZM34.0234 13.1172C33.582 13.1172 33.1816 13.043 32.8223 12.8945C32.4668 12.7422 32.1602 12.5293 31.9023 12.2559C31.6484 11.9824 31.4531 11.6582 31.3164 11.2832C31.1797 10.9082 31.1113 10.498 31.1113 10.0527V9.80664C31.1113 9.29102 31.1875 8.83203 31.3398 8.42969C31.4922 8.02344 31.6992 7.67969 31.9609 7.39844C32.2227 7.11719 32.5195 6.9043 32.8516 6.75977C33.1836 6.61523 33.5273 6.54297 33.8828 6.54297C34.3359 6.54297 34.7266 6.62109 35.0547 6.77734C35.3867 6.93359 35.6582 7.15234 35.8691 7.43359C36.0801 7.71094 36.2363 8.03906 36.3379 8.41797C36.4395 8.79297 36.4902 9.20312 36.4902 9.64844V10.1348H31.7559V9.25H35.4062V9.16797C35.3906 8.88672 35.332 8.61328 35.2305 8.34766C35.1328 8.08203 34.9766 7.86328 34.7617 7.69141C34.5469 7.51953 34.2539 7.43359 33.8828 7.43359C33.6367 7.43359 33.4102 7.48633 33.2031 7.5918C32.9961 7.69336 32.8184 7.8457 32.6699 8.04883C32.5215 8.25195 32.4062 8.5 32.3242 8.79297C32.2422 9.08594 32.2012 9.42383 32.2012 9.80664V10.0527C32.2012 10.3535 32.2422 10.6367 32.3242 10.9023C32.4102 11.1641 32.5332 11.3945 32.6934 11.5938C32.8574 11.793 33.0547 11.9492 33.2852 12.0625C33.5195 12.1758 33.7852 12.2324 34.082 12.2324C34.4648 12.2324 34.7891 12.1543 35.0547 11.998C35.3203 11.8418 35.5527 11.6328 35.752 11.3711L36.4082 11.8926C36.2715 12.0996 36.0977 12.2969 35.8867 12.4844C35.6758 12.6719 35.416 12.8242 35.1074 12.9414C34.8027 13.0586 34.4414 13.1172 34.0234 13.1172ZM39.3613 11.875L40.9902 6.66016H41.7051L41.5645 7.69727L39.9062 13H39.209L39.3613 11.875ZM38.2656 6.66016L39.6543 11.9336L39.7539 13H39.0215L37.1816 6.66016H38.2656ZM43.2637 11.8926L44.5879 6.66016H45.666L43.8262 13H43.0996L43.2637 11.8926ZM41.8633 6.66016L43.457 11.7871L43.6387 13H42.9473L41.2422 7.68555L41.1016 6.66016H41.8633Z" fill="#475467"/>
<defs>
<clipPath id="clip0_154_102">
<rect width="14" height="14" fill="white" transform="translate(4 2)"/>
</clipPath>
</defs>
</svg>
