<svg width="60" height="18" viewBox="0 0 60 18" fill="none" xmlns="http://www.w3.org/2000/svg">
<rect width="60" height="18" rx="4" fill="#FFEFE6"/>
<g clip-path="url(#clip0_1109_90533)">
<path fill-rule="evenodd" clip-rule="evenodd" d="M14.8712 5.13033C15.0762 5.33536 15.0762 5.66777 14.8712 5.87279L7.87121 12.8728C7.66618 13.0778 7.33377 13.0778 7.12874 12.8728C6.92372 12.6678 6.92372 12.3354 7.12874 12.1303L14.1287 5.13033C14.3338 4.92531 14.6662 4.92531 14.8712 5.13033Z" fill="#D92400"/>
<path fill-rule="evenodd" clip-rule="evenodd" d="M7.12874 5.13033C7.33377 4.92531 7.66618 4.92531 7.87121 5.13033L14.8712 12.1303C15.0762 12.3354 15.0762 12.6678 14.8712 12.8728C14.6662 13.0778 14.3338 13.0778 14.1287 12.8728L7.12874 5.87279C6.92372 5.66777 6.92372 5.33536 7.12874 5.13033Z" fill="#D92400"/>
</g>
<path d="M24.1211 4.46875V13H22.9902V4.46875H24.1211ZM27.6953 8.30664V9.23242H23.875V8.30664H27.6953ZM28.2754 4.46875V5.39453H23.875V4.46875H28.2754ZM32.998 11.916V8.65234C32.998 8.40234 32.9473 8.18555 32.8457 8.00195C32.748 7.81445 32.5996 7.66992 32.4004 7.56836C32.2012 7.4668 31.9551 7.41602 31.6621 7.41602C31.3887 7.41602 31.1484 7.46289 30.9414 7.55664C30.7383 7.65039 30.5781 7.77344 30.4609 7.92578C30.3477 8.07812 30.291 8.24219 30.291 8.41797H29.207C29.207 8.19141 29.2656 7.9668 29.3828 7.74414C29.5 7.52148 29.668 7.32031 29.8867 7.14062C30.1094 6.95703 30.375 6.8125 30.6836 6.70703C30.9961 6.59766 31.3438 6.54297 31.7266 6.54297C32.1875 6.54297 32.5938 6.62109 32.9453 6.77734C33.3008 6.93359 33.5781 7.16992 33.7773 7.48633C33.9805 7.79883 34.082 8.19141 34.082 8.66406V11.6172C34.082 11.8281 34.0996 12.0527 34.1348 12.291C34.1738 12.5293 34.2305 12.7344 34.3047 12.9062V13H33.1738C33.1191 12.875 33.0762 12.709 33.0449 12.502C33.0137 12.291 32.998 12.0957 32.998 11.916ZM33.1855 9.15625L33.1973 9.91797H32.1016C31.793 9.91797 31.5176 9.94336 31.2754 9.99414C31.0332 10.041 30.8301 10.1133 30.666 10.2109C30.502 10.3086 30.377 10.4316 30.291 10.5801C30.2051 10.7246 30.1621 10.8945 30.1621 11.0898C30.1621 11.2891 30.207 11.4707 30.2969 11.6348C30.3867 11.7988 30.5215 11.9297 30.7012 12.0273C30.8848 12.1211 31.1094 12.168 31.375 12.168C31.707 12.168 32 12.0977 32.2539 11.957C32.5078 11.8164 32.709 11.6445 32.8574 11.4414C33.0098 11.2383 33.0918 11.041 33.1035 10.8496L33.5664 11.3711C33.5391 11.5352 33.4648 11.7168 33.3438 11.916C33.2227 12.1152 33.0605 12.3066 32.8574 12.4902C32.6582 12.6699 32.4199 12.8203 32.1426 12.9414C31.8691 13.0586 31.5605 13.1172 31.2168 13.1172C30.7871 13.1172 30.4102 13.0332 30.0859 12.8652C29.7656 12.6973 29.5156 12.4727 29.3359 12.1914C29.1602 11.9062 29.0723 11.5879 29.0723 11.2363C29.0723 10.8965 29.1387 10.5977 29.2715 10.3398C29.4043 10.0781 29.5957 9.86133 29.8457 9.68945C30.0957 9.51367 30.3965 9.38086 30.748 9.29102C31.0996 9.20117 31.4922 9.15625 31.9258 9.15625H33.1855ZM36.9648 6.66016V13H35.875V6.66016H36.9648ZM35.793 4.97852C35.793 4.80273 35.8457 4.6543 35.9512 4.5332C36.0605 4.41211 36.2207 4.35156 36.4316 4.35156C36.6387 4.35156 36.7969 4.41211 36.9062 4.5332C37.0195 4.6543 37.0762 4.80273 37.0762 4.97852C37.0762 5.14648 37.0195 5.29102 36.9062 5.41211C36.7969 5.5293 36.6387 5.58789 36.4316 5.58789C36.2207 5.58789 36.0605 5.5293 35.9512 5.41211C35.8457 5.29102 35.793 5.14648 35.793 4.97852ZM39.8828 4V13H38.793V4H39.8828ZM44.2539 13.1172C43.8125 13.1172 43.4121 13.043 43.0527 12.8945C42.6973 12.7422 42.3906 12.5293 42.1328 12.2559C41.8789 11.9824 41.6836 11.6582 41.5469 11.2832C41.4102 10.9082 41.3418 10.498 41.3418 10.0527V9.80664C41.3418 9.29102 41.418 8.83203 41.5703 8.42969C41.7227 8.02344 41.9297 7.67969 42.1914 7.39844C42.4531 7.11719 42.75 6.9043 43.082 6.75977C43.4141 6.61523 43.7578 6.54297 44.1133 6.54297C44.5664 6.54297 44.957 6.62109 45.2852 6.77734C45.6172 6.93359 45.8887 7.15234 46.0996 7.43359C46.3105 7.71094 46.4668 8.03906 46.5684 8.41797C46.6699 8.79297 46.7207 9.20312 46.7207 9.64844V10.1348H41.9863V9.25H45.6367V9.16797C45.6211 8.88672 45.5625 8.61328 45.4609 8.34766C45.3633 8.08203 45.207 7.86328 44.9922 7.69141C44.7773 7.51953 44.4844 7.43359 44.1133 7.43359C43.8672 7.43359 43.6406 7.48633 43.4336 7.5918C43.2266 7.69336 43.0488 7.8457 42.9004 8.04883C42.752 8.25195 42.6367 8.5 42.5547 8.79297C42.4727 9.08594 42.4316 9.42383 42.4316 9.80664V10.0527C42.4316 10.3535 42.4727 10.6367 42.5547 10.9023C42.6406 11.1641 42.7637 11.3945 42.9238 11.5938C43.0879 11.793 43.2852 11.9492 43.5156 12.0625C43.75 12.1758 44.0156 12.2324 44.3125 12.2324C44.6953 12.2324 45.0195 12.1543 45.2852 11.998C45.5508 11.8418 45.7832 11.6328 45.9824 11.3711L46.6387 11.8926C46.502 12.0996 46.3281 12.2969 46.1172 12.4844C45.9062 12.6719 45.6465 12.8242 45.3379 12.9414C45.0332 13.0586 44.6719 13.1172 44.2539 13.1172ZM51.9824 11.7695V4H53.0723V13H52.0762L51.9824 11.7695ZM47.7168 9.90039V9.77734C47.7168 9.29297 47.7754 8.85352 47.8926 8.45898C48.0137 8.06055 48.1836 7.71875 48.4023 7.43359C48.625 7.14844 48.8887 6.92969 49.1934 6.77734C49.502 6.62109 49.8457 6.54297 50.2246 6.54297C50.623 6.54297 50.9707 6.61328 51.2676 6.75391C51.5684 6.89062 51.8223 7.0918 52.0293 7.35742C52.2402 7.61914 52.4062 7.93555 52.5273 8.30664C52.6484 8.67773 52.7324 9.09766 52.7793 9.56641V10.1055C52.7363 10.5703 52.6523 10.9883 52.5273 11.3594C52.4062 11.7305 52.2402 12.0469 52.0293 12.3086C51.8223 12.5703 51.5684 12.7715 51.2676 12.9121C50.9668 13.0488 50.6152 13.1172 50.2129 13.1172C49.8418 13.1172 49.502 13.0371 49.1934 12.877C48.8887 12.7168 48.625 12.4922 48.4023 12.2031C48.1836 11.9141 48.0137 11.5742 47.8926 11.1836C47.7754 10.7891 47.7168 10.3613 47.7168 9.90039ZM48.8066 9.77734V9.90039C48.8066 10.2168 48.8379 10.5137 48.9004 10.791C48.9668 11.0684 49.0684 11.3125 49.2051 11.5234C49.3418 11.7344 49.5156 11.9004 49.7266 12.0215C49.9375 12.1387 50.1895 12.1973 50.4824 12.1973C50.8418 12.1973 51.1367 12.1211 51.3672 11.9688C51.6016 11.8164 51.7891 11.6152 51.9297 11.3652C52.0703 11.1152 52.1797 10.8438 52.2578 10.5508V9.13867C52.2109 8.92383 52.1426 8.7168 52.0527 8.51758C51.9668 8.31445 51.8535 8.13477 51.7129 7.97852C51.5762 7.81836 51.4062 7.69141 51.2031 7.59766C51.0039 7.50391 50.7676 7.45703 50.4941 7.45703C50.1973 7.45703 49.9414 7.51953 49.7266 7.64453C49.5156 7.76562 49.3418 7.93359 49.2051 8.14844C49.0684 8.35938 48.9668 8.60547 48.9004 8.88672C48.8379 9.16406 48.8066 9.46094 48.8066 9.77734Z" fill="#D92400"/>
<defs>
<clipPath id="clip0_1109_90533">
<rect width="14" height="14" fill="white" transform="translate(4 2)"/>
</clipPath>
</defs>
</svg>
