<svg width="52" height="18" viewBox="0 0 52 18" fill="none" xmlns="http://www.w3.org/2000/svg">
<rect width="52" height="18" rx="4" fill="#F9FAFB"/>
<g clip-path="url(#clip0_1109_90533)">
<path fill-rule="evenodd" clip-rule="evenodd" d="M11.4492 4.65139C11.3107 4.14667 10.6755 4.15167 10.5468 4.66639C10.5454 4.67205 10.5439 4.67768 10.5423 4.68329C10.405 5.16384 10.0381 5.5169 9.62954 5.68976C9.22709 5.86002 8.71769 5.881 8.28287 5.6041C8.01364 5.46451 7.79192 5.53645 7.66339 5.66498C7.53237 5.796 7.46016 6.02386 7.61087 6.30017C7.63696 6.34799 7.65534 6.3994 7.66555 6.4525C7.67546 6.47225 7.6973 6.5159 7.71538 6.5641C7.72857 6.59927 7.74435 6.64824 7.75389 6.70756C7.97704 7.49371 7.4802 8.39711 6.6498 8.55232C6.15565 8.68794 6.1501 9.29966 6.63313 9.44599C6.69734 9.45527 6.75015 9.47218 6.78744 9.48616C6.83564 9.50424 6.87928 9.52608 6.89903 9.53599C6.96737 9.54912 7.03275 9.57577 7.09119 9.61474C7.85508 10.124 8.00328 11.0498 7.60016 11.7217C7.48588 11.9121 7.52449 12.1336 7.69621 12.3053C7.86792 12.477 8.0894 12.5157 8.27987 12.4014C8.33283 12.3696 8.39076 12.3476 8.45092 12.336C8.47067 12.3261 8.51431 12.3042 8.56251 12.2862C8.59768 12.273 8.64666 12.2572 8.70597 12.2476C9.49212 12.0245 10.3955 12.5213 10.5507 13.3517C10.6846 13.8394 11.2822 13.8512 11.4384 13.3871C11.4435 13.2661 11.4728 13.0632 11.6383 12.8736C12.1525 12.1418 13.0591 12.0048 13.7201 12.4014C13.9105 12.5157 14.132 12.477 14.3037 12.3053C14.4755 12.1336 14.5141 11.9121 14.3998 11.7217C14.368 11.6687 14.346 11.6108 14.3344 11.5506C14.3245 11.5309 14.3026 11.4872 14.2846 11.439C14.2714 11.4039 14.2556 11.3549 14.2461 11.2956C14.0229 10.5094 14.5198 9.60601 15.3501 9.45081C15.8378 9.31695 15.8496 8.71936 15.3855 8.5631C15.2645 8.55807 15.0616 8.52875 14.872 8.36321C14.1402 7.84908 14.0032 6.9424 14.3998 6.28145C14.5141 6.09099 14.4755 5.86951 14.3037 5.69779C14.132 5.52608 13.9105 5.48747 13.7201 5.60175C13.6671 5.63353 13.6092 5.65557 13.549 5.66713C13.5293 5.67705 13.4856 5.69889 13.4374 5.71696C13.4023 5.73015 13.3533 5.74594 13.294 5.75548C12.5078 5.97863 11.6044 5.48178 11.4492 4.65139ZM9.53092 4.4008C9.93315 2.83151 12.0777 2.83516 12.4718 4.41173C12.4752 4.42529 12.478 4.43897 12.4803 4.45275C12.5108 4.63554 12.779 4.82183 13.0215 4.741C13.0434 4.73369 13.0658 4.72784 13.0884 4.72349C13.1082 4.71358 13.1518 4.69174 13.2 4.67366C13.2194 4.66638 13.243 4.65831 13.2703 4.65093C13.9289 4.31073 14.6248 4.53389 15.0462 4.95533C15.487 5.39612 15.7109 6.13713 15.3002 6.82167C15.1783 7.0248 15.2051 7.324 15.4912 7.51474C15.4913 7.51478 15.4911 7.5147 15.4912 7.51474C15.5244 7.51657 15.5575 7.52167 15.5898 7.52974C17.17 7.92479 17.17 10.0783 15.5898 10.4734C15.5763 10.4768 15.5626 10.4796 15.5488 10.4819C15.366 10.5124 15.1797 10.7806 15.2605 11.023C15.2679 11.045 15.2737 11.0674 15.278 11.09C15.288 11.1098 15.3098 11.1534 15.3279 11.2016C15.3352 11.221 15.3432 11.2446 15.3506 11.2719C15.6908 11.9305 15.4676 12.6264 15.0462 13.0478C14.6054 13.4886 13.8644 13.7125 13.1799 13.3017C12.9767 13.1799 12.6775 13.2067 12.4868 13.4928C12.4868 13.4928 12.4868 13.4927 12.4868 13.4928C12.485 13.526 12.4799 13.5591 12.4718 13.5914C12.0767 15.1716 9.92321 15.1716 9.52815 13.5914C9.52476 13.5778 9.52192 13.5642 9.51962 13.5504C9.48915 13.3676 9.22098 13.1813 8.9785 13.2621C8.95655 13.2694 8.93418 13.2753 8.91154 13.2796C8.89179 13.2895 8.84814 13.3114 8.79994 13.3295C8.78052 13.3367 8.7569 13.3448 8.72966 13.3522C8.07108 13.6924 7.37519 13.4692 6.95374 13.0478C6.51296 12.607 6.28907 11.866 6.69979 11.1815C6.81146 10.9953 6.79832 10.7286 6.57525 10.5385C6.56619 10.5354 6.55777 10.5324 6.55001 10.5295C6.50181 10.5114 6.45817 10.4895 6.43842 10.4796C6.42894 10.4778 6.41952 10.4757 6.41014 10.4734C4.82992 10.0783 4.82992 7.92479 6.41014 7.52974C6.4237 7.52635 6.43738 7.5235 6.45117 7.52121C6.63395 7.49074 6.82025 7.22257 6.73942 6.98008C6.7321 6.95814 6.72626 6.93577 6.72191 6.91312C6.71199 6.89337 6.69015 6.84973 6.67207 6.80153C6.66379 6.77943 6.65447 6.75188 6.64633 6.71973C6.32712 6.05797 6.47986 5.36359 6.92093 4.92252C7.38054 4.46292 8.11518 4.31638 8.80137 4.69067C8.815 4.6981 8.82828 4.70613 8.84119 4.71474C8.92619 4.7714 9.06157 4.78995 9.22041 4.72274C9.37819 4.65599 9.49152 4.53063 9.53092 4.4008Z" fill="#98A2B3"/>
<path fill-rule="evenodd" clip-rule="evenodd" d="M8.72498 9.00156C8.72498 7.74911 9.74753 6.72656 11 6.72656C12.2524 6.72656 13.275 7.74911 13.275 9.00156C13.275 10.254 12.2524 11.2766 11 11.2766C9.74753 11.2766 8.72498 10.254 8.72498 9.00156ZM11 7.77656C10.3274 7.77656 9.77498 8.32901 9.77498 9.00156C9.77498 9.67411 10.3274 10.2266 11 10.2266C11.6725 10.2266 12.225 9.67411 12.225 9.00156C12.225 8.32901 11.6725 7.77656 11 7.77656Z" fill="#98A2B3"/>
</g>
<path d="M29.5527 4.46875V13H28.416L24.1211 6.41992V13H22.9902V4.46875H24.1211L28.4336 11.0664V4.46875H29.5527ZM34.0234 13.1172C33.582 13.1172 33.1816 13.043 32.8223 12.8945C32.4668 12.7422 32.1602 12.5293 31.9023 12.2559C31.6484 11.9824 31.4531 11.6582 31.3164 11.2832C31.1797 10.9082 31.1113 10.498 31.1113 10.0527V9.80664C31.1113 9.29102 31.1875 8.83203 31.3398 8.42969C31.4922 8.02344 31.6992 7.67969 31.9609 7.39844C32.2227 7.11719 32.5195 6.9043 32.8516 6.75977C33.1836 6.61523 33.5273 6.54297 33.8828 6.54297C34.3359 6.54297 34.7266 6.62109 35.0547 6.77734C35.3867 6.93359 35.6582 7.15234 35.8691 7.43359C36.0801 7.71094 36.2363 8.03906 36.3379 8.41797C36.4395 8.79297 36.4902 9.20312 36.4902 9.64844V10.1348H31.7559V9.25H35.4062V9.16797C35.3906 8.88672 35.332 8.61328 35.2305 8.34766C35.1328 8.08203 34.9766 7.86328 34.7617 7.69141C34.5469 7.51953 34.2539 7.43359 33.8828 7.43359C33.6367 7.43359 33.4102 7.48633 33.2031 7.5918C32.9961 7.69336 32.8184 7.8457 32.6699 8.04883C32.5215 8.25195 32.4062 8.5 32.3242 8.79297C32.2422 9.08594 32.2012 9.42383 32.2012 9.80664V10.0527C32.2012 10.3535 32.2422 10.6367 32.3242 10.9023C32.4102 11.1641 32.5332 11.3945 32.6934 11.5938C32.8574 11.793 33.0547 11.9492 33.2852 12.0625C33.5195 12.1758 33.7852 12.2324 34.082 12.2324C34.4648 12.2324 34.7891 12.1543 35.0547 11.998C35.3203 11.8418 35.5527 11.6328 35.752 11.3711L36.4082 11.8926C36.2715 12.0996 36.0977 12.2969 35.8867 12.4844C35.6758 12.6719 35.416 12.8242 35.1074 12.9414C34.8027 13.0586 34.4414 13.1172 34.0234 13.1172ZM39.3613 11.875L40.9902 6.66016H41.7051L41.5645 7.69727L39.9062 13H39.209L39.3613 11.875ZM38.2656 6.66016L39.6543 11.9336L39.7539 13H39.0215L37.1816 6.66016H38.2656ZM43.2637 11.8926L44.5879 6.66016H45.666L43.8262 13H43.0996L43.2637 11.8926ZM41.8633 6.66016L43.457 11.7871L43.6387 13H42.9473L41.2422 7.68555L41.1016 6.66016H41.8633Z" fill="#98A2B3"/>
<defs>
<clipPath id="clip0_1109_90533">
<rect width="14" height="14" fill="white" transform="translate(4 2)"/>
</clipPath>
</defs>
</svg>
