<svg width="235" height="119" viewBox="0 0 235 119" fill="none" xmlns="http://www.w3.org/2000/svg">
<rect width="235" height="119" rx="32" fill="#788FFF"/>
<path d="M53.4121 85H41.6484L41.7227 76.3164H53.4121C56.3314 76.3164 58.793 75.6608 60.7969 74.3496C62.8008 73.0137 64.3099 71.0716 65.3242 68.5234C66.3633 65.9753 66.8828 62.8952 66.8828 59.2832V56.6484C66.8828 53.8776 66.5859 51.4408 65.9922 49.3379C65.4232 47.235 64.5697 45.4661 63.4316 44.0312C62.2936 42.5964 60.8958 41.5202 59.2383 40.8027C57.5807 40.0605 55.6758 39.6895 53.5234 39.6895H41.4258V30.9688H53.5234C57.1354 30.9688 60.4382 31.5872 63.4316 32.8242C66.4499 34.0365 69.0599 35.7806 71.2617 38.0566C73.4635 40.3327 75.1582 43.054 76.3457 46.2207C77.5579 49.3626 78.1641 52.8633 78.1641 56.7227V59.2832C78.1641 63.1178 77.5579 66.6185 76.3457 69.7852C75.1582 72.9518 73.4635 75.6732 71.2617 77.9492C69.0846 80.2005 66.4746 81.9447 63.4316 83.1816C60.4134 84.3939 57.0736 85 53.4121 85ZM47.957 30.9688V85H36.8242V30.9688H47.957ZM83.8789 65.332V64.5527C83.8789 61.6087 84.2995 58.8997 85.1406 56.4258C85.9818 53.9271 87.2064 51.7624 88.8145 49.9316C90.4225 48.1009 92.4017 46.6784 94.752 45.6641C97.1022 44.625 99.7988 44.1055 102.842 44.1055C105.885 44.1055 108.594 44.625 110.969 45.6641C113.344 46.6784 115.335 48.1009 116.943 49.9316C118.576 51.7624 119.813 53.9271 120.654 56.4258C121.495 58.8997 121.916 61.6087 121.916 64.5527V65.332C121.916 68.2513 121.495 70.9603 120.654 73.459C119.813 75.9329 118.576 78.0977 116.943 79.9531C115.335 81.7839 113.356 83.2064 111.006 84.2207C108.656 85.235 105.959 85.7422 102.916 85.7422C99.873 85.7422 97.1641 85.235 94.7891 84.2207C92.4388 83.2064 90.4473 81.7839 88.8145 79.9531C87.2064 78.0977 85.9818 75.9329 85.1406 73.459C84.2995 70.9603 83.8789 68.2513 83.8789 65.332ZM94.5664 64.5527V65.332C94.5664 67.0143 94.7148 68.5853 95.0117 70.0449C95.3086 71.5046 95.7786 72.791 96.4219 73.9043C97.0898 74.9928 97.9557 75.8464 99.0195 76.4648C100.083 77.0833 101.382 77.3926 102.916 77.3926C104.4 77.3926 105.674 77.0833 106.738 76.4648C107.802 75.8464 108.656 74.9928 109.299 73.9043C109.942 72.791 110.412 71.5046 110.709 70.0449C111.031 68.5853 111.191 67.0143 111.191 65.332V64.5527C111.191 62.9199 111.031 61.3861 110.709 59.9512C110.412 58.4915 109.93 57.2051 109.262 56.0918C108.618 54.9538 107.765 54.0632 106.701 53.4199C105.637 52.7767 104.351 52.4551 102.842 52.4551C101.333 52.4551 100.046 52.7767 98.9824 53.4199C97.9434 54.0632 97.0898 54.9538 96.4219 56.0918C95.7786 57.2051 95.3086 58.4915 95.0117 59.9512C94.7148 61.3861 94.5664 62.9199 94.5664 64.5527ZM145.072 77.3926C146.383 77.3926 147.546 77.1452 148.561 76.6504C149.575 76.1309 150.367 75.4134 150.936 74.498C151.529 73.5579 151.839 72.457 151.863 71.1953H161.92C161.895 74.0156 161.141 76.5267 159.656 78.7285C158.172 80.9056 156.18 82.625 153.682 83.8867C151.183 85.1237 148.387 85.7422 145.295 85.7422C142.178 85.7422 139.456 85.2227 137.131 84.1836C134.83 83.1445 132.913 81.7096 131.379 79.8789C129.845 78.0234 128.695 75.8711 127.928 73.4219C127.161 70.9479 126.777 68.3008 126.777 65.4805V64.4043C126.777 61.5592 127.161 58.9121 127.928 56.4629C128.695 53.9889 129.845 51.8366 131.379 50.0059C132.913 48.1504 134.83 46.7031 137.131 45.6641C139.432 44.625 142.128 44.1055 145.221 44.1055C148.511 44.1055 151.393 44.7363 153.867 45.998C156.366 47.2598 158.32 49.0658 159.73 51.416C161.165 53.7415 161.895 56.5 161.92 59.6914H151.863C151.839 58.3555 151.554 57.1432 151.01 56.0547C150.49 54.9661 149.723 54.1003 148.709 53.457C147.719 52.7891 146.495 52.4551 145.035 52.4551C143.477 52.4551 142.202 52.7891 141.213 53.457C140.223 54.1003 139.456 54.9909 138.912 56.1289C138.368 57.2422 137.984 58.5163 137.762 59.9512C137.564 61.3613 137.465 62.8457 137.465 64.4043V65.4805C137.465 67.0391 137.564 68.5358 137.762 69.9707C137.96 71.4056 138.331 72.6797 138.875 73.793C139.444 74.9062 140.223 75.7845 141.213 76.4277C142.202 77.071 143.489 77.3926 145.072 77.3926ZM189.826 73.9043C189.826 73.1374 189.604 72.4447 189.158 71.8262C188.713 71.2077 187.884 70.6387 186.672 70.1191C185.484 69.5749 183.765 69.0801 181.514 68.6348C179.485 68.1895 177.592 67.6328 175.836 66.9648C174.104 66.2721 172.595 65.4434 171.309 64.4785C170.047 63.5137 169.057 62.3757 168.34 61.0645C167.622 59.7285 167.264 58.207 167.264 56.5C167.264 54.8177 167.622 53.2344 168.34 51.75C169.082 50.2656 170.133 48.9544 171.494 47.8164C172.88 46.6536 174.562 45.7507 176.541 45.1074C178.545 44.4395 180.796 44.1055 183.295 44.1055C186.783 44.1055 189.777 44.6621 192.275 45.7754C194.799 46.8887 196.729 48.4225 198.064 50.377C199.425 52.3066 200.105 54.5085 200.105 56.9824H189.418C189.418 55.9434 189.195 55.0156 188.75 54.1992C188.329 53.3581 187.661 52.7025 186.746 52.2324C185.855 51.7376 184.693 51.4902 183.258 51.4902C182.07 51.4902 181.044 51.7005 180.178 52.1211C179.312 52.5169 178.644 53.0612 178.174 53.7539C177.729 54.4219 177.506 55.1641 177.506 55.9805C177.506 56.599 177.63 57.1556 177.877 57.6504C178.149 58.1204 178.582 58.5534 179.176 58.9492C179.77 59.3451 180.536 59.7161 181.477 60.0625C182.441 60.3841 183.629 60.681 185.039 60.9531C187.934 61.5469 190.519 62.3262 192.795 63.291C195.071 64.2311 196.877 65.5176 198.213 67.1504C199.549 68.7585 200.217 70.8737 200.217 73.4961C200.217 75.2773 199.821 76.9102 199.029 78.3945C198.238 79.8789 197.1 81.1777 195.615 82.291C194.131 83.3796 192.35 84.2331 190.271 84.8516C188.218 85.4453 185.905 85.7422 183.332 85.7422C179.596 85.7422 176.43 85.0742 173.832 83.7383C171.259 82.4023 169.305 80.7077 167.969 78.6543C166.658 76.5762 166.002 74.4486 166.002 72.2715H176.133C176.182 73.7311 176.553 74.9062 177.246 75.7969C177.964 76.6875 178.867 77.3307 179.955 77.7266C181.068 78.1224 182.268 78.3203 183.555 78.3203C184.94 78.3203 186.09 78.1348 187.006 77.7637C187.921 77.3678 188.614 76.8483 189.084 76.2051C189.579 75.5371 189.826 74.7702 189.826 73.9043Z" fill="white"/>
</svg>
