<svg width="137" height="16" viewBox="0 0 137 16" fill="none" xmlns="http://www.w3.org/2000/svg">
<path d="M23.6984 8.0328C23.6984 3.62232 26.9354 0.565552 31.6723 0.565552C36.3868 0.565552 39.6462 3.62232 39.6462 8.0328C39.6462 12.4651 36.3868 15.5 31.6723 15.5C26.9354 15.5 23.6984 12.4651 23.6984 8.0328ZM27.0933 8.0328C27.0933 10.7621 28.9768 12.6616 31.6723 12.6835C34.3679 12.6835 36.2514 10.7621 36.2514 8.0328C36.2514 5.30354 34.3679 3.38215 31.6723 3.38215C28.9768 3.38215 27.0933 5.30354 27.0933 8.0328Z" fill="currentColor"/>
<path d="M4.93097 15.0086H1.59253V1.00208H6.08138L10.1868 11.2859L14.247 1.00208H18.8035V15.0086H15.4651V4.99771L11.4612 15.0086H8.91228L4.93097 4.99771V15.0086Z" fill="currentColor"/>
<path d="M51.3082 15.5C47.6314 15.5 44.9922 13.3603 44.9922 10.4017H48.06C48.06 11.9192 49.4585 13 51.4097 13C53.0789 13 54.1166 12.1921 54.1166 11.0677C54.1166 9.74672 52.5489 9.55022 50.7668 9.33188C47.9021 8.98253 45.1389 8.38209 45.1389 5.1179C45.1389 2.38865 47.5525 0.5 51.0488 0.5C54.5677 0.5 57.1054 2.54148 57.1054 5.35808H54.1391C54.1617 3.98253 52.8759 3 51.1278 3C49.5262 3 48.466 3.73144 48.466 4.74672C48.466 6.06768 49.9097 6.26419 51.7368 6.49345C54.5452 6.81004 57.4437 7.39956 57.4437 10.6201C57.4437 13.5131 54.985 15.5 51.3082 15.5Z" fill="currentColor"/>
<path d="M78.0608 15.0086V1.00208H81.4782V12.1811H87.5347V15.0086H78.0608Z" fill="currentColor"/>
<path d="M135.592 1.00208V15.0086H132.175V1.00208H135.592Z" fill="currentColor"/>
<path d="M123.829 15.0086H127.404L122.566 1.00208H117.603L112.754 15.0086H116.352L117.118 12.6833H121.269L120.457 10.3252H117.897L120.085 3.8405L122.261 10.3252L123.04 12.6833H123.051L123.829 15.0086Z" fill="currentColor"/>
<path d="M68.9479 5.43439H65.5305V15.0195H68.9479V5.43439Z" fill="currentColor"/>
<path d="M73.3013 1.00208H61.1882V3.75317H73.3013V1.00208Z" fill="currentColor"/>
<path d="M94.9785 10.1069L89.8694 1.00208H93.4785L96.6816 7.20295L99.7381 1.00208H103.404L98.3959 10.1069V14.9759H94.9785V10.1069Z" fill="currentColor"/>
<path d="M107.971 10.5108C109.41 10.5108 110.577 9.38171 110.577 7.98894C110.577 6.59617 109.41 5.4671 107.971 5.4671C106.532 5.4671 105.366 6.59617 105.366 7.98894C105.366 9.38171 106.532 10.5108 107.971 10.5108Z" fill="url(#paint0_linear_4_65)"/>
<defs>
<linearGradient id="paint0_linear_4_65" x1="105.366" y1="7.98894" x2="110.577" y2="7.98894" gradientUnits="userSpaceOnUse">
<stop stop-color="#3D4FFF"/>
<stop offset="0.372209" stop-color="#788FFF"/>
<stop offset="0.630305" stop-color="#24DB96"/>
<stop offset="1" stop-color="#C7FF00"/>
</linearGradient>
</defs>
</svg>
