<svg width="517" height="516" viewBox="0 0 517 516" fill="none" xmlns="http://www.w3.org/2000/svg">
<rect x="7.5" y="7.5" width="501" height="501" rx="22.5" fill="white" stroke="#606BA8" stroke-width="15"/>
<path d="M81.6055 300.344V343H75.9512V300.344H81.6055ZM99.4766 319.533V324.162H80.375V319.533H99.4766ZM102.377 300.344V304.973H80.375V300.344H102.377ZM124.848 326.271H113.451V321.672H124.848C127.055 321.672 128.842 321.32 130.209 320.617C131.576 319.914 132.572 318.938 133.197 317.688C133.842 316.438 134.164 315.012 134.164 313.41C134.164 311.945 133.842 310.568 133.197 309.279C132.572 307.99 131.576 306.955 130.209 306.174C128.842 305.373 127.055 304.973 124.848 304.973H114.77V343H109.115V300.344H124.848C128.07 300.344 130.795 300.9 133.021 302.014C135.248 303.127 136.938 304.67 138.09 306.643C139.242 308.596 139.818 310.832 139.818 313.352C139.818 316.086 139.242 318.42 138.09 320.354C136.938 322.287 135.248 323.762 133.021 324.777C130.795 325.773 128.07 326.271 124.848 326.271ZM172.309 322.639V327.092H158.012V322.639H172.309ZM198.764 322.697L194.428 321.584L196.566 300.344H218.451V305.354H201.166L199.877 316.955C200.658 316.506 201.645 316.086 202.836 315.695C204.047 315.305 205.434 315.109 206.996 315.109C208.969 315.109 210.736 315.451 212.299 316.135C213.861 316.799 215.189 317.756 216.283 319.006C217.396 320.256 218.246 321.76 218.832 323.518C219.418 325.275 219.711 327.238 219.711 329.406C219.711 331.457 219.428 333.342 218.861 335.061C218.314 336.779 217.484 338.283 216.371 339.572C215.258 340.842 213.852 341.828 212.152 342.531C210.473 343.234 208.49 343.586 206.205 343.586C204.486 343.586 202.855 343.352 201.312 342.883C199.789 342.395 198.422 341.662 197.211 340.686C196.02 339.689 195.043 338.459 194.281 336.994C193.539 335.51 193.07 333.771 192.875 331.779H198.031C198.266 333.381 198.734 334.729 199.438 335.822C200.141 336.916 201.059 337.746 202.191 338.312C203.344 338.859 204.682 339.133 206.205 339.133C207.494 339.133 208.637 338.908 209.633 338.459C210.629 338.01 211.469 337.365 212.152 336.525C212.836 335.686 213.354 334.67 213.705 333.479C214.076 332.287 214.262 330.949 214.262 329.465C214.262 328.117 214.076 326.867 213.705 325.715C213.334 324.562 212.777 323.557 212.035 322.697C211.312 321.838 210.424 321.174 209.369 320.705C208.314 320.217 207.104 319.973 205.736 319.973C203.92 319.973 202.543 320.217 201.605 320.705C200.688 321.193 199.74 321.857 198.764 322.697ZM233.568 319.006H237.436C239.33 319.006 240.893 318.693 242.123 318.068C243.373 317.424 244.301 316.555 244.906 315.461C245.531 314.348 245.844 313.098 245.844 311.711C245.844 310.07 245.57 308.693 245.023 307.58C244.477 306.467 243.656 305.627 242.562 305.061C241.469 304.494 240.082 304.211 238.402 304.211C236.879 304.211 235.531 304.514 234.359 305.119C233.207 305.705 232.299 306.545 231.635 307.639C230.99 308.732 230.668 310.021 230.668 311.506H225.248C225.248 309.338 225.795 307.365 226.889 305.588C227.982 303.811 229.516 302.395 231.488 301.34C233.48 300.285 235.785 299.758 238.402 299.758C240.98 299.758 243.236 300.217 245.17 301.135C247.104 302.033 248.607 303.381 249.682 305.178C250.756 306.955 251.293 309.172 251.293 311.828C251.293 312.902 251.039 314.055 250.531 315.285C250.043 316.496 249.271 317.629 248.217 318.684C247.182 319.738 245.834 320.607 244.174 321.291C242.514 321.955 240.521 322.287 238.197 322.287H233.568V319.006ZM233.568 323.459V320.207H238.197C240.912 320.207 243.158 320.529 244.936 321.174C246.713 321.818 248.109 322.678 249.125 323.752C250.16 324.826 250.883 326.008 251.293 327.297C251.723 328.566 251.938 329.836 251.938 331.105C251.938 333.098 251.596 334.865 250.912 336.408C250.248 337.951 249.301 339.26 248.07 340.334C246.859 341.408 245.434 342.219 243.793 342.766C242.152 343.312 240.365 343.586 238.432 343.586C236.576 343.586 234.828 343.322 233.188 342.795C231.566 342.268 230.131 341.506 228.881 340.51C227.631 339.494 226.654 338.254 225.951 336.789C225.248 335.305 224.896 333.615 224.896 331.721H230.316C230.316 333.205 230.639 334.504 231.283 335.617C231.947 336.73 232.885 337.6 234.096 338.225C235.326 338.83 236.771 339.133 238.432 339.133C240.092 339.133 241.518 338.85 242.709 338.283C243.92 337.697 244.848 336.818 245.492 335.646C246.156 334.475 246.488 333 246.488 331.223C246.488 329.445 246.117 327.99 245.375 326.857C244.633 325.705 243.578 324.855 242.211 324.309C240.863 323.742 239.271 323.459 237.436 323.459H233.568ZM288.031 343.586C285.824 343.586 283.822 343.215 282.025 342.473C280.248 341.711 278.715 340.646 277.426 339.279C276.156 337.912 275.18 336.291 274.496 334.416C273.812 332.541 273.471 330.49 273.471 328.264V327.033C273.471 324.455 273.852 322.16 274.613 320.148C275.375 318.117 276.41 316.398 277.719 314.992C279.027 313.586 280.512 312.521 282.172 311.799C283.832 311.076 285.551 310.715 287.328 310.715C289.594 310.715 291.547 311.105 293.188 311.887C294.848 312.668 296.205 313.762 297.26 315.168C298.314 316.555 299.096 318.195 299.604 320.09C300.111 321.965 300.365 324.016 300.365 326.242V328.674H276.693V324.25H294.945V323.84C294.867 322.434 294.574 321.066 294.066 319.738C293.578 318.41 292.797 317.316 291.723 316.457C290.648 315.598 289.184 315.168 287.328 315.168C286.098 315.168 284.965 315.432 283.93 315.959C282.895 316.467 282.006 317.229 281.264 318.244C280.521 319.26 279.945 320.5 279.535 321.965C279.125 323.43 278.92 325.119 278.92 327.033V328.264C278.92 329.768 279.125 331.184 279.535 332.512C279.965 333.82 280.58 334.973 281.381 335.969C282.201 336.965 283.188 337.746 284.34 338.312C285.512 338.879 286.84 339.162 288.324 339.162C290.238 339.162 291.859 338.771 293.188 337.99C294.516 337.209 295.678 336.164 296.674 334.855L299.955 337.463C299.271 338.498 298.402 339.484 297.348 340.422C296.293 341.359 294.994 342.121 293.451 342.707C291.928 343.293 290.121 343.586 288.031 343.586ZM315.922 338.107L324.594 311.301H330.131L318.734 343H315.102L315.922 338.107ZM308.686 311.301L317.621 338.254L318.236 343H314.604L303.119 311.301H308.686ZM348.09 343.586C345.883 343.586 343.881 343.215 342.084 342.473C340.307 341.711 338.773 340.646 337.484 339.279C336.215 337.912 335.238 336.291 334.555 334.416C333.871 332.541 333.529 330.49 333.529 328.264V327.033C333.529 324.455 333.91 322.16 334.672 320.148C335.434 318.117 336.469 316.398 337.777 314.992C339.086 313.586 340.57 312.521 342.23 311.799C343.891 311.076 345.609 310.715 347.387 310.715C349.652 310.715 351.605 311.105 353.246 311.887C354.906 312.668 356.264 313.762 357.318 315.168C358.373 316.555 359.154 318.195 359.662 320.09C360.17 321.965 360.424 324.016 360.424 326.242V328.674H336.752V324.25H355.004V323.84C354.926 322.434 354.633 321.066 354.125 319.738C353.637 318.41 352.855 317.316 351.781 316.457C350.707 315.598 349.242 315.168 347.387 315.168C346.156 315.168 345.023 315.432 343.988 315.959C342.953 316.467 342.064 317.229 341.322 318.244C340.58 319.26 340.004 320.5 339.594 321.965C339.184 323.43 338.979 325.119 338.979 327.033V328.264C338.979 329.768 339.184 331.184 339.594 332.512C340.023 333.82 340.639 334.973 341.439 335.969C342.26 336.965 343.246 337.746 344.398 338.312C345.57 338.879 346.898 339.162 348.383 339.162C350.297 339.162 351.918 338.771 353.246 337.99C354.574 337.209 355.736 336.164 356.732 334.855L360.014 337.463C359.33 338.498 358.461 339.484 357.406 340.422C356.352 341.359 355.053 342.121 353.51 342.707C351.986 343.293 350.18 343.586 348.09 343.586ZM372.172 318.068V343H366.752V311.301H371.879L372.172 318.068ZM370.883 325.949L368.627 325.861C368.646 323.693 368.969 321.691 369.594 319.855C370.219 318 371.098 316.389 372.23 315.021C373.363 313.654 374.711 312.6 376.273 311.857C377.855 311.096 379.604 310.715 381.518 310.715C383.08 310.715 384.486 310.93 385.736 311.359C386.986 311.77 388.051 312.434 388.93 313.352C389.828 314.27 390.512 315.461 390.98 316.926C391.449 318.371 391.684 320.139 391.684 322.229V343H386.234V322.17C386.234 320.51 385.99 319.182 385.502 318.186C385.014 317.17 384.301 316.438 383.363 315.988C382.426 315.52 381.273 315.285 379.906 315.285C378.559 315.285 377.328 315.568 376.215 316.135C375.121 316.701 374.174 317.482 373.373 318.479C372.592 319.475 371.977 320.617 371.527 321.906C371.098 323.176 370.883 324.523 370.883 325.949ZM413.188 311.301V315.461H396.049V311.301H413.188ZM401.85 303.596H407.27V335.148C407.27 336.223 407.436 337.033 407.768 337.58C408.1 338.127 408.529 338.488 409.057 338.664C409.584 338.84 410.15 338.928 410.756 338.928C411.205 338.928 411.674 338.889 412.162 338.811C412.67 338.713 413.051 338.635 413.305 338.576L413.334 343C412.904 343.137 412.338 343.264 411.635 343.381C410.951 343.518 410.121 343.586 409.145 343.586C407.816 343.586 406.596 343.322 405.482 342.795C404.369 342.268 403.48 341.389 402.816 340.158C402.172 338.908 401.85 337.229 401.85 335.119V303.596ZM438.002 334.592C438.002 333.811 437.826 333.088 437.475 332.424C437.143 331.74 436.449 331.125 435.395 330.578C434.359 330.012 432.797 329.523 430.707 329.113C428.949 328.742 427.357 328.303 425.932 327.795C424.525 327.287 423.324 326.672 422.328 325.949C421.352 325.227 420.6 324.377 420.072 323.4C419.545 322.424 419.281 321.281 419.281 319.973C419.281 318.723 419.555 317.541 420.102 316.428C420.668 315.314 421.459 314.328 422.475 313.469C423.51 312.609 424.75 311.936 426.195 311.447C427.641 310.959 429.252 310.715 431.029 310.715C433.568 310.715 435.736 311.164 437.533 312.062C439.33 312.961 440.707 314.162 441.664 315.666C442.621 317.15 443.1 318.801 443.1 320.617H437.68C437.68 319.738 437.416 318.889 436.889 318.068C436.381 317.229 435.629 316.535 434.633 315.988C433.656 315.441 432.455 315.168 431.029 315.168C429.525 315.168 428.305 315.402 427.367 315.871C426.449 316.32 425.775 316.896 425.346 317.6C424.936 318.303 424.73 319.045 424.73 319.826C424.73 320.412 424.828 320.939 425.023 321.408C425.238 321.857 425.609 322.277 426.137 322.668C426.664 323.039 427.406 323.391 428.363 323.723C429.32 324.055 430.541 324.387 432.025 324.719C434.623 325.305 436.762 326.008 438.441 326.828C440.121 327.648 441.371 328.654 442.191 329.846C443.012 331.037 443.422 332.482 443.422 334.182C443.422 335.568 443.129 336.838 442.543 337.99C441.977 339.143 441.146 340.139 440.053 340.979C438.979 341.799 437.689 342.443 436.186 342.912C434.701 343.361 433.031 343.586 431.176 343.586C428.383 343.586 426.02 343.088 424.086 342.092C422.152 341.096 420.688 339.807 419.691 338.225C418.695 336.643 418.197 334.973 418.197 333.215H423.646C423.725 334.699 424.154 335.881 424.936 336.76C425.717 337.619 426.674 338.234 427.807 338.605C428.939 338.957 430.062 339.133 431.176 339.133C432.66 339.133 433.9 338.938 434.896 338.547C435.912 338.156 436.684 337.619 437.211 336.936C437.738 336.252 438.002 335.471 438.002 334.592Z" fill="#606BA8"/>
<path d="M71 333H433" stroke="#D81010" stroke-width="12" stroke-linecap="round"/>
<path d="M1 30C1 13.4315 14.4315 0 31 0H487C503.569 0 517 13.4315 517 30V70H1V30Z" fill="#606BA8"/>
<path d="M81.6055 126.344V169H75.9512V126.344H81.6055ZM107.357 126.344L89.6328 146.236L79.6719 156.578L78.7344 150.543L86.2344 142.281L100.561 126.344H107.357ZM101.908 169L86.1172 148.199L89.4863 143.717L108.646 169H101.908ZM119.281 126.344V169H113.627V126.344H119.281ZM145.033 126.344L127.309 146.236L117.348 156.578L116.41 150.543L123.91 142.281L138.236 126.344H145.033ZM139.584 169L123.793 148.199L127.162 143.717L146.322 169H139.584ZM176.645 148.639V153.092H162.348V148.639H176.645ZM224.193 164.547V169H196.273V165.104L210.248 149.547C211.967 147.633 213.295 146.012 214.232 144.684C215.189 143.336 215.854 142.135 216.225 141.08C216.615 140.006 216.811 138.912 216.811 137.799C216.811 136.393 216.518 135.123 215.932 133.99C215.365 132.838 214.525 131.92 213.412 131.236C212.299 130.553 210.951 130.211 209.369 130.211C207.475 130.211 205.893 130.582 204.623 131.324C203.373 132.047 202.436 133.062 201.811 134.371C201.186 135.68 200.873 137.184 200.873 138.883H195.453C195.453 136.48 195.98 134.283 197.035 132.291C198.09 130.299 199.652 128.717 201.723 127.545C203.793 126.354 206.342 125.758 209.369 125.758C212.064 125.758 214.369 126.236 216.283 127.193C218.197 128.131 219.662 129.459 220.678 131.178C221.713 132.877 222.23 134.869 222.23 137.154C222.23 138.404 222.016 139.674 221.586 140.963C221.176 142.232 220.6 143.502 219.857 144.771C219.135 146.041 218.285 147.291 217.309 148.521C216.352 149.752 215.326 150.963 214.232 152.154L202.807 164.547H224.193ZM258.617 169.586C256.41 169.586 254.408 169.215 252.611 168.473C250.834 167.711 249.301 166.646 248.012 165.279C246.742 163.912 245.766 162.291 245.082 160.416C244.398 158.541 244.057 156.49 244.057 154.264V153.033C244.057 150.455 244.438 148.16 245.199 146.148C245.961 144.117 246.996 142.398 248.305 140.992C249.613 139.586 251.098 138.521 252.758 137.799C254.418 137.076 256.137 136.715 257.914 136.715C260.18 136.715 262.133 137.105 263.773 137.887C265.434 138.668 266.791 139.762 267.846 141.168C268.9 142.555 269.682 144.195 270.189 146.09C270.697 147.965 270.951 150.016 270.951 152.242V154.674H247.279V150.25H265.531V149.84C265.453 148.434 265.16 147.066 264.652 145.738C264.164 144.41 263.383 143.316 262.309 142.457C261.234 141.598 259.77 141.168 257.914 141.168C256.684 141.168 255.551 141.432 254.516 141.959C253.48 142.467 252.592 143.229 251.85 144.244C251.107 145.26 250.531 146.5 250.121 147.965C249.711 149.43 249.506 151.119 249.506 153.033V154.264C249.506 155.768 249.711 157.184 250.121 158.512C250.551 159.82 251.166 160.973 251.967 161.969C252.787 162.965 253.773 163.746 254.926 164.312C256.098 164.879 257.426 165.162 258.91 165.162C260.824 165.162 262.445 164.771 263.773 163.99C265.102 163.209 266.264 162.164 267.26 160.855L270.541 163.463C269.857 164.498 268.988 165.484 267.934 166.422C266.879 167.359 265.58 168.121 264.037 168.707C262.514 169.293 260.707 169.586 258.617 169.586ZM286.508 164.107L295.18 137.301H300.717L289.32 169H285.688L286.508 164.107ZM279.271 137.301L288.207 164.254L288.822 169H285.189L273.705 137.301H279.271ZM318.676 169.586C316.469 169.586 314.467 169.215 312.67 168.473C310.893 167.711 309.359 166.646 308.07 165.279C306.801 163.912 305.824 162.291 305.141 160.416C304.457 158.541 304.115 156.49 304.115 154.264V153.033C304.115 150.455 304.496 148.16 305.258 146.148C306.02 144.117 307.055 142.398 308.363 140.992C309.672 139.586 311.156 138.521 312.816 137.799C314.477 137.076 316.195 136.715 317.973 136.715C320.238 136.715 322.191 137.105 323.832 137.887C325.492 138.668 326.85 139.762 327.904 141.168C328.959 142.555 329.74 144.195 330.248 146.09C330.756 147.965 331.01 150.016 331.01 152.242V154.674H307.338V150.25H325.59V149.84C325.512 148.434 325.219 147.066 324.711 145.738C324.223 144.41 323.441 143.316 322.367 142.457C321.293 141.598 319.828 141.168 317.973 141.168C316.742 141.168 315.609 141.432 314.574 141.959C313.539 142.467 312.65 143.229 311.908 144.244C311.166 145.26 310.59 146.5 310.18 147.965C309.77 149.43 309.564 151.119 309.564 153.033V154.264C309.564 155.768 309.77 157.184 310.18 158.512C310.609 159.82 311.225 160.973 312.025 161.969C312.846 162.965 313.832 163.746 314.984 164.312C316.156 164.879 317.484 165.162 318.969 165.162C320.883 165.162 322.504 164.771 323.832 163.99C325.16 163.209 326.322 162.164 327.318 160.855L330.6 163.463C329.916 164.498 329.047 165.484 327.992 166.422C326.938 167.359 325.639 168.121 324.096 168.707C322.572 169.293 320.766 169.586 318.676 169.586ZM342.758 144.068V169H337.338V137.301H342.465L342.758 144.068ZM341.469 151.949L339.213 151.861C339.232 149.693 339.555 147.691 340.18 145.855C340.805 144 341.684 142.389 342.816 141.021C343.949 139.654 345.297 138.6 346.859 137.857C348.441 137.096 350.189 136.715 352.104 136.715C353.666 136.715 355.072 136.93 356.322 137.359C357.572 137.77 358.637 138.434 359.516 139.352C360.414 140.27 361.098 141.461 361.566 142.926C362.035 144.371 362.27 146.139 362.27 148.229V169H356.82V148.17C356.82 146.51 356.576 145.182 356.088 144.186C355.6 143.17 354.887 142.438 353.949 141.988C353.012 141.52 351.859 141.285 350.492 141.285C349.145 141.285 347.914 141.568 346.801 142.135C345.707 142.701 344.76 143.482 343.959 144.479C343.178 145.475 342.562 146.617 342.113 147.906C341.684 149.176 341.469 150.523 341.469 151.949ZM383.773 137.301V141.461H366.635V137.301H383.773ZM372.436 129.596H377.855V161.148C377.855 162.223 378.021 163.033 378.354 163.58C378.686 164.127 379.115 164.488 379.643 164.664C380.17 164.84 380.736 164.928 381.342 164.928C381.791 164.928 382.26 164.889 382.748 164.811C383.256 164.713 383.637 164.635 383.891 164.576L383.92 169C383.49 169.137 382.924 169.264 382.221 169.381C381.537 169.518 380.707 169.586 379.73 169.586C378.402 169.586 377.182 169.322 376.068 168.795C374.955 168.268 374.066 167.389 373.402 166.158C372.758 164.908 372.436 163.229 372.436 161.119V129.596ZM408.588 160.592C408.588 159.811 408.412 159.088 408.061 158.424C407.729 157.74 407.035 157.125 405.98 156.578C404.945 156.012 403.383 155.523 401.293 155.113C399.535 154.742 397.943 154.303 396.518 153.795C395.111 153.287 393.91 152.672 392.914 151.949C391.938 151.227 391.186 150.377 390.658 149.4C390.131 148.424 389.867 147.281 389.867 145.973C389.867 144.723 390.141 143.541 390.688 142.428C391.254 141.314 392.045 140.328 393.061 139.469C394.096 138.609 395.336 137.936 396.781 137.447C398.227 136.959 399.838 136.715 401.615 136.715C404.154 136.715 406.322 137.164 408.119 138.062C409.916 138.961 411.293 140.162 412.25 141.666C413.207 143.15 413.686 144.801 413.686 146.617H408.266C408.266 145.738 408.002 144.889 407.475 144.068C406.967 143.229 406.215 142.535 405.219 141.988C404.242 141.441 403.041 141.168 401.615 141.168C400.111 141.168 398.891 141.402 397.953 141.871C397.035 142.32 396.361 142.896 395.932 143.6C395.521 144.303 395.316 145.045 395.316 145.826C395.316 146.412 395.414 146.939 395.609 147.408C395.824 147.857 396.195 148.277 396.723 148.668C397.25 149.039 397.992 149.391 398.949 149.723C399.906 150.055 401.127 150.387 402.611 150.719C405.209 151.305 407.348 152.008 409.027 152.828C410.707 153.648 411.957 154.654 412.777 155.846C413.598 157.037 414.008 158.482 414.008 160.182C414.008 161.568 413.715 162.838 413.129 163.99C412.562 165.143 411.732 166.139 410.639 166.979C409.564 167.799 408.275 168.443 406.771 168.912C405.287 169.361 403.617 169.586 401.762 169.586C398.969 169.586 396.605 169.088 394.672 168.092C392.738 167.096 391.273 165.807 390.277 164.225C389.281 162.643 388.783 160.973 388.783 159.215H394.232C394.311 160.699 394.74 161.881 395.521 162.76C396.303 163.619 397.26 164.234 398.393 164.605C399.525 164.957 400.648 165.133 401.762 165.133C403.246 165.133 404.486 164.938 405.482 164.547C406.498 164.156 407.27 163.619 407.797 162.936C408.324 162.252 408.588 161.471 408.588 160.592Z" fill="#606BA8"/>
<path d="M101.82 251.4V256H80.4922V251.4H101.82ZM81.6055 213.344V256H75.9512V213.344H81.6055ZM134.164 251.4V256H112.836V251.4H134.164ZM113.949 213.344V256H108.295V213.344H113.949ZM165.98 235.639V240.092H151.684V235.639H165.98ZM193.49 232.006H197.357C199.252 232.006 200.814 231.693 202.045 231.068C203.295 230.424 204.223 229.555 204.828 228.461C205.453 227.348 205.766 226.098 205.766 224.711C205.766 223.07 205.492 221.693 204.945 220.58C204.398 219.467 203.578 218.627 202.484 218.061C201.391 217.494 200.004 217.211 198.324 217.211C196.801 217.211 195.453 217.514 194.281 218.119C193.129 218.705 192.221 219.545 191.557 220.639C190.912 221.732 190.59 223.021 190.59 224.506H185.17C185.17 222.338 185.717 220.365 186.811 218.588C187.904 216.811 189.438 215.395 191.41 214.34C193.402 213.285 195.707 212.758 198.324 212.758C200.902 212.758 203.158 213.217 205.092 214.135C207.025 215.033 208.529 216.381 209.604 218.178C210.678 219.955 211.215 222.172 211.215 224.828C211.215 225.902 210.961 227.055 210.453 228.285C209.965 229.496 209.193 230.629 208.139 231.684C207.104 232.738 205.756 233.607 204.096 234.291C202.436 234.955 200.443 235.287 198.119 235.287H193.49V232.006ZM193.49 236.459V233.207H198.119C200.834 233.207 203.08 233.529 204.857 234.174C206.635 234.818 208.031 235.678 209.047 236.752C210.082 237.826 210.805 239.008 211.215 240.297C211.645 241.566 211.859 242.836 211.859 244.105C211.859 246.098 211.518 247.865 210.834 249.408C210.17 250.951 209.223 252.26 207.992 253.334C206.781 254.408 205.355 255.219 203.715 255.766C202.074 256.312 200.287 256.586 198.354 256.586C196.498 256.586 194.75 256.322 193.109 255.795C191.488 255.268 190.053 254.506 188.803 253.51C187.553 252.494 186.576 251.254 185.873 249.789C185.17 248.305 184.818 246.615 184.818 244.721H190.238C190.238 246.205 190.561 247.504 191.205 248.617C191.869 249.73 192.807 250.6 194.018 251.225C195.248 251.83 196.693 252.133 198.354 252.133C200.014 252.133 201.439 251.85 202.631 251.283C203.842 250.697 204.77 249.818 205.414 248.646C206.078 247.475 206.41 246 206.41 244.223C206.41 242.445 206.039 240.99 205.297 239.857C204.555 238.705 203.5 237.855 202.133 237.309C200.785 236.742 199.193 236.459 197.357 236.459H193.49ZM247.953 256.586C245.746 256.586 243.744 256.215 241.947 255.473C240.17 254.711 238.637 253.646 237.348 252.279C236.078 250.912 235.102 249.291 234.418 247.416C233.734 245.541 233.393 243.49 233.393 241.264V240.033C233.393 237.455 233.773 235.16 234.535 233.148C235.297 231.117 236.332 229.398 237.641 227.992C238.949 226.586 240.434 225.521 242.094 224.799C243.754 224.076 245.473 223.715 247.25 223.715C249.516 223.715 251.469 224.105 253.109 224.887C254.77 225.668 256.127 226.762 257.182 228.168C258.236 229.555 259.018 231.195 259.525 233.09C260.033 234.965 260.287 237.016 260.287 239.242V241.674H236.615V237.25H254.867V236.84C254.789 235.434 254.496 234.066 253.988 232.738C253.5 231.41 252.719 230.316 251.645 229.457C250.57 228.598 249.105 228.168 247.25 228.168C246.02 228.168 244.887 228.432 243.852 228.959C242.816 229.467 241.928 230.229 241.186 231.244C240.443 232.26 239.867 233.5 239.457 234.965C239.047 236.43 238.842 238.119 238.842 240.033V241.264C238.842 242.768 239.047 244.184 239.457 245.512C239.887 246.82 240.502 247.973 241.303 248.969C242.123 249.965 243.109 250.746 244.262 251.312C245.434 251.879 246.762 252.162 248.246 252.162C250.16 252.162 251.781 251.771 253.109 250.99C254.438 250.209 255.6 249.164 256.596 247.855L259.877 250.463C259.193 251.498 258.324 252.484 257.27 253.422C256.215 254.359 254.916 255.121 253.373 255.707C251.85 256.293 250.043 256.586 247.953 256.586ZM275.844 251.107L284.516 224.301H290.053L278.656 256H275.023L275.844 251.107ZM268.607 224.301L277.543 251.254L278.158 256H274.525L263.041 224.301H268.607ZM308.012 256.586C305.805 256.586 303.803 256.215 302.006 255.473C300.229 254.711 298.695 253.646 297.406 252.279C296.137 250.912 295.16 249.291 294.477 247.416C293.793 245.541 293.451 243.49 293.451 241.264V240.033C293.451 237.455 293.832 235.16 294.594 233.148C295.355 231.117 296.391 229.398 297.699 227.992C299.008 226.586 300.492 225.521 302.152 224.799C303.812 224.076 305.531 223.715 307.309 223.715C309.574 223.715 311.527 224.105 313.168 224.887C314.828 225.668 316.186 226.762 317.24 228.168C318.295 229.555 319.076 231.195 319.584 233.09C320.092 234.965 320.346 237.016 320.346 239.242V241.674H296.674V237.25H314.926V236.84C314.848 235.434 314.555 234.066 314.047 232.738C313.559 231.41 312.777 230.316 311.703 229.457C310.629 228.598 309.164 228.168 307.309 228.168C306.078 228.168 304.945 228.432 303.91 228.959C302.875 229.467 301.986 230.229 301.244 231.244C300.502 232.26 299.926 233.5 299.516 234.965C299.105 236.43 298.9 238.119 298.9 240.033V241.264C298.9 242.768 299.105 244.184 299.516 245.512C299.945 246.82 300.561 247.973 301.361 248.969C302.182 249.965 303.168 250.746 304.32 251.312C305.492 251.879 306.82 252.162 308.305 252.162C310.219 252.162 311.84 251.771 313.168 250.99C314.496 250.209 315.658 249.164 316.654 247.855L319.936 250.463C319.252 251.498 318.383 252.484 317.328 253.422C316.273 254.359 314.975 255.121 313.432 255.707C311.908 256.293 310.102 256.586 308.012 256.586ZM332.094 231.068V256H326.674V224.301H331.801L332.094 231.068ZM330.805 238.949L328.549 238.861C328.568 236.693 328.891 234.691 329.516 232.855C330.141 231 331.02 229.389 332.152 228.021C333.285 226.654 334.633 225.6 336.195 224.857C337.777 224.096 339.525 223.715 341.439 223.715C343.002 223.715 344.408 223.93 345.658 224.359C346.908 224.77 347.973 225.434 348.852 226.352C349.75 227.27 350.434 228.461 350.902 229.926C351.371 231.371 351.605 233.139 351.605 235.229V256H346.156V235.17C346.156 233.51 345.912 232.182 345.424 231.186C344.936 230.17 344.223 229.438 343.285 228.988C342.348 228.52 341.195 228.285 339.828 228.285C338.48 228.285 337.25 228.568 336.137 229.135C335.043 229.701 334.096 230.482 333.295 231.479C332.514 232.475 331.898 233.617 331.449 234.906C331.02 236.176 330.805 237.523 330.805 238.949ZM373.109 224.301V228.461H355.971V224.301H373.109ZM361.771 216.596H367.191V248.148C367.191 249.223 367.357 250.033 367.689 250.58C368.021 251.127 368.451 251.488 368.979 251.664C369.506 251.84 370.072 251.928 370.678 251.928C371.127 251.928 371.596 251.889 372.084 251.811C372.592 251.713 372.973 251.635 373.227 251.576L373.256 256C372.826 256.137 372.26 256.264 371.557 256.381C370.873 256.518 370.043 256.586 369.066 256.586C367.738 256.586 366.518 256.322 365.404 255.795C364.291 255.268 363.402 254.389 362.738 253.158C362.094 251.908 361.771 250.229 361.771 248.119V216.596ZM397.924 247.592C397.924 246.811 397.748 246.088 397.396 245.424C397.064 244.74 396.371 244.125 395.316 243.578C394.281 243.012 392.719 242.523 390.629 242.113C388.871 241.742 387.279 241.303 385.854 240.795C384.447 240.287 383.246 239.672 382.25 238.949C381.273 238.227 380.521 237.377 379.994 236.4C379.467 235.424 379.203 234.281 379.203 232.973C379.203 231.723 379.477 230.541 380.023 229.428C380.59 228.314 381.381 227.328 382.396 226.469C383.432 225.609 384.672 224.936 386.117 224.447C387.562 223.959 389.174 223.715 390.951 223.715C393.49 223.715 395.658 224.164 397.455 225.062C399.252 225.961 400.629 227.162 401.586 228.666C402.543 230.15 403.021 231.801 403.021 233.617H397.602C397.602 232.738 397.338 231.889 396.811 231.068C396.303 230.229 395.551 229.535 394.555 228.988C393.578 228.441 392.377 228.168 390.951 228.168C389.447 228.168 388.227 228.402 387.289 228.871C386.371 229.32 385.697 229.896 385.268 230.6C384.857 231.303 384.652 232.045 384.652 232.826C384.652 233.412 384.75 233.939 384.945 234.408C385.16 234.857 385.531 235.277 386.059 235.668C386.586 236.039 387.328 236.391 388.285 236.723C389.242 237.055 390.463 237.387 391.947 237.719C394.545 238.305 396.684 239.008 398.363 239.828C400.043 240.648 401.293 241.654 402.113 242.846C402.934 244.037 403.344 245.482 403.344 247.182C403.344 248.568 403.051 249.838 402.465 250.99C401.898 252.143 401.068 253.139 399.975 253.979C398.9 254.799 397.611 255.443 396.107 255.912C394.623 256.361 392.953 256.586 391.098 256.586C388.305 256.586 385.941 256.088 384.008 255.092C382.074 254.096 380.609 252.807 379.613 251.225C378.617 249.643 378.119 247.973 378.119 246.215H383.568C383.646 247.699 384.076 248.881 384.857 249.76C385.639 250.619 386.596 251.234 387.729 251.605C388.861 251.957 389.984 252.133 391.098 252.133C392.582 252.133 393.822 251.938 394.818 251.547C395.834 251.156 396.605 250.619 397.133 249.936C397.66 249.252 397.924 248.471 397.924 247.592Z" fill="#606BA8"/>
<path d="M108.793 407.324V410.02C108.793 413.223 108.393 416.094 107.592 418.633C106.791 421.172 105.639 423.33 104.135 425.107C102.631 426.885 100.824 428.242 98.7148 429.18C96.625 430.117 94.2812 430.586 91.6836 430.586C89.1641 430.586 86.8496 430.117 84.7402 429.18C82.6504 428.242 80.834 426.885 79.291 425.107C77.7676 423.33 76.5859 421.172 75.7461 418.633C74.9062 416.094 74.4863 413.223 74.4863 410.02V407.324C74.4863 404.121 74.8965 401.26 75.7168 398.74C76.5566 396.201 77.7383 394.043 79.2617 392.266C80.7852 390.469 82.5918 389.102 84.6816 388.164C86.791 387.227 89.1055 386.758 91.625 386.758C94.2227 386.758 96.5664 387.227 98.6562 388.164C100.766 389.102 102.572 390.469 104.076 392.266C105.6 394.043 106.762 396.201 107.562 398.74C108.383 401.26 108.793 404.121 108.793 407.324ZM103.197 410.02V407.266C103.197 404.727 102.934 402.48 102.406 400.527C101.898 398.574 101.146 396.934 100.15 395.605C99.1543 394.277 97.9336 393.271 96.4883 392.588C95.0625 391.904 93.4414 391.562 91.625 391.562C89.8672 391.562 88.2754 391.904 86.8496 392.588C85.4434 393.271 84.2324 394.277 83.2168 395.605C82.2207 396.934 81.4492 398.574 80.9023 400.527C80.3555 402.48 80.082 404.727 80.082 407.266V410.02C80.082 412.578 80.3555 414.844 80.9023 416.816C81.4492 418.77 82.2305 420.42 83.2461 421.768C84.2812 423.096 85.502 424.102 86.9082 424.785C88.334 425.469 89.9258 425.811 91.6836 425.811C93.5195 425.811 95.1504 425.469 96.5762 424.785C98.002 424.102 99.2031 423.096 100.18 421.768C101.176 420.42 101.928 418.77 102.436 416.816C102.943 414.844 103.197 412.578 103.197 410.02ZM132.201 387.344V430H126.635V387.344H132.201ZM145.912 387.344V391.973H112.953V387.344H145.912ZM176.41 409.639V414.092H162.113V409.639H176.41ZM224.838 415.645V420.098H194.018V416.904L213.119 387.344H217.543L212.797 395.898L200.17 415.645H224.838ZM218.891 387.344V430H213.471V387.344H218.891ZM258.383 430.586C256.176 430.586 254.174 430.215 252.377 429.473C250.6 428.711 249.066 427.646 247.777 426.279C246.508 424.912 245.531 423.291 244.848 421.416C244.164 419.541 243.822 417.49 243.822 415.264V414.033C243.822 411.455 244.203 409.16 244.965 407.148C245.727 405.117 246.762 403.398 248.07 401.992C249.379 400.586 250.863 399.521 252.523 398.799C254.184 398.076 255.902 397.715 257.68 397.715C259.945 397.715 261.898 398.105 263.539 398.887C265.199 399.668 266.557 400.762 267.611 402.168C268.666 403.555 269.447 405.195 269.955 407.09C270.463 408.965 270.717 411.016 270.717 413.242V415.674H247.045V411.25H265.297V410.84C265.219 409.434 264.926 408.066 264.418 406.738C263.93 405.41 263.148 404.316 262.074 403.457C261 402.598 259.535 402.168 257.68 402.168C256.449 402.168 255.316 402.432 254.281 402.959C253.246 403.467 252.357 404.229 251.615 405.244C250.873 406.26 250.297 407.5 249.887 408.965C249.477 410.43 249.271 412.119 249.271 414.033V415.264C249.271 416.768 249.477 418.184 249.887 419.512C250.316 420.82 250.932 421.973 251.732 422.969C252.553 423.965 253.539 424.746 254.691 425.312C255.863 425.879 257.191 426.162 258.676 426.162C260.59 426.162 262.211 425.771 263.539 424.99C264.867 424.209 266.029 423.164 267.025 421.855L270.307 424.463C269.623 425.498 268.754 426.484 267.699 427.422C266.645 428.359 265.346 429.121 263.803 429.707C262.279 430.293 260.473 430.586 258.383 430.586ZM286.273 425.107L294.945 398.301H300.482L289.086 430H285.453L286.273 425.107ZM279.037 398.301L287.973 425.254L288.588 430H284.955L273.471 398.301H279.037ZM318.441 430.586C316.234 430.586 314.232 430.215 312.436 429.473C310.658 428.711 309.125 427.646 307.836 426.279C306.566 424.912 305.59 423.291 304.906 421.416C304.223 419.541 303.881 417.49 303.881 415.264V414.033C303.881 411.455 304.262 409.16 305.023 407.148C305.785 405.117 306.82 403.398 308.129 401.992C309.438 400.586 310.922 399.521 312.582 398.799C314.242 398.076 315.961 397.715 317.738 397.715C320.004 397.715 321.957 398.105 323.598 398.887C325.258 399.668 326.615 400.762 327.67 402.168C328.725 403.555 329.506 405.195 330.014 407.09C330.521 408.965 330.775 411.016 330.775 413.242V415.674H307.104V411.25H325.355V410.84C325.277 409.434 324.984 408.066 324.477 406.738C323.988 405.41 323.207 404.316 322.133 403.457C321.059 402.598 319.594 402.168 317.738 402.168C316.508 402.168 315.375 402.432 314.34 402.959C313.305 403.467 312.416 404.229 311.674 405.244C310.932 406.26 310.355 407.5 309.945 408.965C309.535 410.43 309.33 412.119 309.33 414.033V415.264C309.33 416.768 309.535 418.184 309.945 419.512C310.375 420.82 310.99 421.973 311.791 422.969C312.611 423.965 313.598 424.746 314.75 425.312C315.922 425.879 317.25 426.162 318.734 426.162C320.648 426.162 322.27 425.771 323.598 424.99C324.926 424.209 326.088 423.164 327.084 421.855L330.365 424.463C329.682 425.498 328.812 426.484 327.758 427.422C326.703 428.359 325.404 429.121 323.861 429.707C322.338 430.293 320.531 430.586 318.441 430.586ZM342.523 405.068V430H337.104V398.301H342.23L342.523 405.068ZM341.234 412.949L338.979 412.861C338.998 410.693 339.32 408.691 339.945 406.855C340.57 405 341.449 403.389 342.582 402.021C343.715 400.654 345.062 399.6 346.625 398.857C348.207 398.096 349.955 397.715 351.869 397.715C353.432 397.715 354.838 397.93 356.088 398.359C357.338 398.77 358.402 399.434 359.281 400.352C360.18 401.27 360.863 402.461 361.332 403.926C361.801 405.371 362.035 407.139 362.035 409.229V430H356.586V409.17C356.586 407.51 356.342 406.182 355.854 405.186C355.365 404.17 354.652 403.438 353.715 402.988C352.777 402.52 351.625 402.285 350.258 402.285C348.91 402.285 347.68 402.568 346.566 403.135C345.473 403.701 344.525 404.482 343.725 405.479C342.943 406.475 342.328 407.617 341.879 408.906C341.449 410.176 341.234 411.523 341.234 412.949ZM383.539 398.301V402.461H366.4V398.301H383.539ZM372.201 390.596H377.621V422.148C377.621 423.223 377.787 424.033 378.119 424.58C378.451 425.127 378.881 425.488 379.408 425.664C379.936 425.84 380.502 425.928 381.107 425.928C381.557 425.928 382.025 425.889 382.514 425.811C383.021 425.713 383.402 425.635 383.656 425.576L383.686 430C383.256 430.137 382.689 430.264 381.986 430.381C381.303 430.518 380.473 430.586 379.496 430.586C378.168 430.586 376.947 430.322 375.834 429.795C374.721 429.268 373.832 428.389 373.168 427.158C372.523 425.908 372.201 424.229 372.201 422.119V390.596ZM408.354 421.592C408.354 420.811 408.178 420.088 407.826 419.424C407.494 418.74 406.801 418.125 405.746 417.578C404.711 417.012 403.148 416.523 401.059 416.113C399.301 415.742 397.709 415.303 396.283 414.795C394.877 414.287 393.676 413.672 392.68 412.949C391.703 412.227 390.951 411.377 390.424 410.4C389.896 409.424 389.633 408.281 389.633 406.973C389.633 405.723 389.906 404.541 390.453 403.428C391.02 402.314 391.811 401.328 392.826 400.469C393.861 399.609 395.102 398.936 396.547 398.447C397.992 397.959 399.604 397.715 401.381 397.715C403.92 397.715 406.088 398.164 407.885 399.062C409.682 399.961 411.059 401.162 412.016 402.666C412.973 404.15 413.451 405.801 413.451 407.617H408.031C408.031 406.738 407.768 405.889 407.24 405.068C406.732 404.229 405.98 403.535 404.984 402.988C404.008 402.441 402.807 402.168 401.381 402.168C399.877 402.168 398.656 402.402 397.719 402.871C396.801 403.32 396.127 403.896 395.697 404.6C395.287 405.303 395.082 406.045 395.082 406.826C395.082 407.412 395.18 407.939 395.375 408.408C395.59 408.857 395.961 409.277 396.488 409.668C397.016 410.039 397.758 410.391 398.715 410.723C399.672 411.055 400.893 411.387 402.377 411.719C404.975 412.305 407.113 413.008 408.793 413.828C410.473 414.648 411.723 415.654 412.543 416.846C413.363 418.037 413.773 419.482 413.773 421.182C413.773 422.568 413.48 423.838 412.895 424.99C412.328 426.143 411.498 427.139 410.404 427.979C409.33 428.799 408.041 429.443 406.537 429.912C405.053 430.361 403.383 430.586 401.527 430.586C398.734 430.586 396.371 430.088 394.438 429.092C392.504 428.096 391.039 426.807 390.043 425.225C389.047 423.643 388.549 421.973 388.549 420.215H393.998C394.076 421.699 394.506 422.881 395.287 423.76C396.068 424.619 397.025 425.234 398.158 425.605C399.291 425.957 400.414 426.133 401.527 426.133C403.012 426.133 404.252 425.938 405.248 425.547C406.264 425.156 407.035 424.619 407.562 423.936C408.09 423.252 408.354 422.471 408.354 421.592Z" fill="#606BA8"/>
</svg>
