<svg width="517" height="516" viewBox="0 0 517 516" fill="none" xmlns="http://www.w3.org/2000/svg">
<rect x="7.5" y="7.5" width="501" height="501" rx="22.5" fill="white" stroke="#606BA8" stroke-width="15"/>
<path d="M1 30C1 13.4315 14.4315 0 31 0H487C503.569 0 517 13.4315 517 30V70H1V30Z" fill="#606BA8"/>
<path d="M195.617 152.831L197.934 129.789H221.643V135.502H202.885L201.584 147.816C202.494 147.287 203.583 146.822 204.853 146.42C206.123 146.018 207.593 145.817 209.265 145.817C211.402 145.817 213.317 146.187 215.009 146.928C216.702 147.668 218.141 148.705 219.326 150.038C220.511 151.392 221.42 153.021 222.055 154.926C222.69 156.83 223.007 158.946 223.007 161.273C223.007 163.474 222.711 165.516 222.119 167.399C221.526 169.282 220.638 170.901 219.453 172.255C218.247 173.63 216.734 174.709 214.914 175.492C213.094 176.254 210.957 176.635 208.503 176.635C206.62 176.635 204.842 176.37 203.171 175.841C201.499 175.312 200.018 174.519 198.728 173.461C197.416 172.403 196.337 171.07 195.49 169.462C194.665 167.854 194.147 165.981 193.935 163.844H199.521C199.881 166.468 200.843 168.457 202.409 169.811C203.996 171.165 206.027 171.842 208.503 171.842C209.899 171.842 211.137 171.599 212.216 171.112C213.295 170.604 214.205 169.885 214.946 168.954C215.665 168.044 216.205 166.944 216.564 165.653C216.945 164.363 217.136 162.924 217.136 161.337C217.136 159.898 216.924 158.555 216.501 157.306C216.099 156.058 215.507 154.968 214.724 154.037C213.941 153.127 212.978 152.408 211.835 151.879C210.693 151.35 209.381 151.085 207.9 151.085C206.927 151.085 206.08 151.16 205.361 151.308C204.663 151.435 204.028 151.625 203.457 151.879C202.885 152.133 202.346 152.44 201.838 152.799C201.351 153.159 200.843 153.572 200.314 154.037L195.617 152.831ZM254.206 129.757V135.026H253.698C250.905 135.026 248.535 135.428 246.589 136.232C244.642 137.015 243.034 138.073 241.765 139.406C240.432 140.802 239.416 142.463 238.718 144.389C238.041 146.314 237.639 148.292 237.512 150.324C238.062 149.668 238.697 149.065 239.416 148.515C240.135 147.943 240.918 147.446 241.765 147.023C242.59 146.621 243.479 146.304 244.431 146.071C245.404 145.817 246.42 145.69 247.478 145.69C249.784 145.69 251.773 146.134 253.444 147.023C255.116 147.89 256.491 149.044 257.57 150.482C258.649 151.921 259.443 153.55 259.951 155.37C260.458 157.19 260.712 159.041 260.712 160.924C260.712 163.083 260.406 165.114 259.792 167.018C259.2 168.922 258.3 170.583 257.094 172.001C255.888 173.44 254.386 174.572 252.587 175.397C250.81 176.222 248.747 176.635 246.398 176.635C244.029 176.635 241.944 176.159 240.146 175.207C238.347 174.254 236.835 173.017 235.607 171.493C234.232 169.822 233.206 167.875 232.529 165.653C231.852 163.41 231.513 161.168 231.513 158.925V156.164C231.513 152.313 231.968 148.525 232.878 144.801C233.788 141.077 235.565 137.893 238.21 135.248C240.03 133.428 242.241 132.064 244.843 131.154C247.446 130.223 250.397 129.757 253.698 129.757H254.206ZM246.525 150.578C245.531 150.578 244.568 150.736 243.637 151.054C242.706 151.371 241.839 151.815 241.035 152.387C240.231 152.958 239.522 153.646 238.908 154.45C238.295 155.254 237.808 156.142 237.448 157.116V159.083C237.448 161.115 237.692 162.924 238.178 164.511C238.665 166.076 239.321 167.399 240.146 168.478C240.971 169.557 241.923 170.382 243.002 170.954C244.082 171.504 245.214 171.779 246.398 171.779C247.774 171.779 248.99 171.514 250.048 170.985C251.106 170.456 252.006 169.726 252.746 168.795C253.465 167.864 254.005 166.754 254.365 165.463C254.746 164.151 254.936 162.733 254.936 161.21C254.936 159.856 254.767 158.544 254.428 157.274C254.09 155.984 253.571 154.841 252.873 153.847C252.175 152.852 251.297 152.059 250.239 151.466C249.181 150.874 247.943 150.578 246.525 150.578ZM286.484 174.635C286.484 176.751 285.987 178.909 284.992 181.11C283.998 183.31 282.654 185.162 280.961 186.664L277.312 184.665C278.327 183.183 279.047 181.607 279.47 179.936C279.893 178.264 280.104 176.529 280.104 174.73V169.049H286.484V174.635ZM339.646 158.322C339.646 161.263 339.307 163.876 338.63 166.161C337.953 168.425 336.979 170.329 335.71 171.874C334.44 173.44 332.885 174.625 331.044 175.429C329.204 176.233 327.098 176.635 324.729 176.635C322.38 176.635 320.275 176.243 318.413 175.46C316.551 174.656 314.974 173.461 313.684 171.874C312.393 170.329 311.409 168.425 310.732 166.161C310.055 163.876 309.716 161.263 309.716 158.322V147.499C309.716 144.558 310.055 141.955 310.732 139.691C311.409 137.406 312.393 135.481 313.684 133.915C314.953 132.349 316.508 131.164 318.349 130.36C320.211 129.535 322.316 129.123 324.665 129.123C327.035 129.123 329.14 129.535 330.981 130.36C332.843 131.164 334.419 132.349 335.71 133.915C336.979 135.481 337.953 137.406 338.63 139.691C339.307 141.955 339.646 144.558 339.646 147.499V158.322ZM315.62 157.147L333.615 143.341C333.446 141.818 333.139 140.474 332.695 139.311C332.272 138.126 331.69 137.142 330.949 136.359C330.23 135.555 329.341 134.952 328.283 134.55C327.246 134.148 326.04 133.947 324.665 133.947C323.269 133.947 322.031 134.169 320.952 134.613C319.894 135.036 318.994 135.661 318.254 136.486C317.365 137.523 316.699 138.866 316.254 140.517C315.831 142.146 315.62 144.04 315.62 146.198V153.942C315.62 154.471 315.62 155 315.62 155.529C315.62 156.058 315.62 156.597 315.62 157.147ZM333.742 159.56V153.021C333.742 152.704 333.742 152.101 333.742 151.212C333.742 150.303 333.742 149.551 333.742 148.959L315.778 162.702C315.969 164.246 316.307 165.611 316.794 166.796C317.281 167.96 317.915 168.922 318.698 169.684C319.418 170.403 320.285 170.954 321.301 171.334C322.316 171.694 323.459 171.874 324.729 171.874C326.062 171.874 327.246 171.673 328.283 171.271C329.32 170.869 330.198 170.287 330.917 169.525C331.891 168.489 332.6 167.134 333.044 165.463C333.509 163.791 333.742 161.824 333.742 159.56ZM378.684 158.322C378.684 161.263 378.345 163.876 377.668 166.161C376.991 168.425 376.018 170.329 374.748 171.874C373.479 173.44 371.923 174.625 370.083 175.429C368.242 176.233 366.136 176.635 363.767 176.635C361.418 176.635 359.313 176.243 357.451 175.46C355.589 174.656 354.012 173.461 352.722 171.874C351.431 170.329 350.447 168.425 349.77 166.161C349.093 163.876 348.754 161.263 348.754 158.322V147.499C348.754 144.558 349.093 141.955 349.77 139.691C350.447 137.406 351.431 135.481 352.722 133.915C353.991 132.349 355.546 131.164 357.387 130.36C359.249 129.535 361.354 129.123 363.703 129.123C366.073 129.123 368.178 129.535 370.019 130.36C371.881 131.164 373.457 132.349 374.748 133.915C376.018 135.481 376.991 137.406 377.668 139.691C378.345 141.955 378.684 144.558 378.684 147.499V158.322ZM354.658 157.147L372.653 143.341C372.484 141.818 372.177 140.474 371.733 139.311C371.31 138.126 370.728 137.142 369.987 136.359C369.268 135.555 368.379 134.952 367.321 134.55C366.285 134.148 365.078 133.947 363.703 133.947C362.307 133.947 361.069 134.169 359.99 134.613C358.932 135.036 358.033 135.661 357.292 136.486C356.403 137.523 355.737 138.866 355.292 140.517C354.869 142.146 354.658 144.04 354.658 146.198V153.942C354.658 154.471 354.658 155 354.658 155.529C354.658 156.058 354.658 156.597 354.658 157.147ZM372.78 159.56V153.021C372.78 152.704 372.78 152.101 372.78 151.212C372.78 150.303 372.78 149.551 372.78 148.959L354.816 162.702C355.007 164.246 355.345 165.611 355.832 166.796C356.319 167.96 356.953 168.922 357.736 169.684C358.456 170.403 359.323 170.954 360.339 171.334C361.354 171.694 362.497 171.874 363.767 171.874C365.1 171.874 366.285 171.673 367.321 171.271C368.358 170.869 369.236 170.287 369.956 169.525C370.929 168.489 371.638 167.134 372.082 165.463C372.548 163.791 372.78 161.824 372.78 159.56ZM417.722 158.322C417.722 161.263 417.383 163.876 416.706 166.161C416.029 168.425 415.056 170.329 413.786 171.874C412.517 173.44 410.961 174.625 409.121 175.429C407.28 176.233 405.174 176.635 402.805 176.635C400.456 176.635 398.351 176.243 396.489 175.46C394.627 174.656 393.05 173.461 391.76 171.874C390.469 170.329 389.485 168.425 388.808 166.161C388.131 163.876 387.792 161.263 387.792 158.322V147.499C387.792 144.558 388.131 141.955 388.808 139.691C389.485 137.406 390.469 135.481 391.76 133.915C393.029 132.349 394.584 131.164 396.425 130.36C398.287 129.535 400.393 129.123 402.741 129.123C405.111 129.123 407.216 129.535 409.057 130.36C410.919 131.164 412.495 132.349 413.786 133.915C415.056 135.481 416.029 137.406 416.706 139.691C417.383 141.955 417.722 144.558 417.722 147.499V158.322ZM393.696 157.147L411.691 143.341C411.522 141.818 411.215 140.474 410.771 139.311C410.348 138.126 409.766 137.142 409.025 136.359C408.306 135.555 407.417 134.952 406.359 134.55C405.323 134.148 404.117 133.947 402.741 133.947C401.345 133.947 400.107 134.169 399.028 134.613C397.97 135.036 397.071 135.661 396.33 136.486C395.441 137.523 394.775 138.866 394.331 140.517C393.907 142.146 393.696 144.04 393.696 146.198V153.942C393.696 154.471 393.696 155 393.696 155.529C393.696 156.058 393.696 156.597 393.696 157.147ZM411.818 159.56V153.021C411.818 152.704 411.818 152.101 411.818 151.212C411.818 150.303 411.818 149.551 411.818 148.959L393.854 162.702C394.045 164.246 394.383 165.611 394.87 166.796C395.357 167.96 395.992 168.922 396.774 169.684C397.494 170.403 398.361 170.954 399.377 171.334C400.393 171.694 401.535 171.874 402.805 171.874C404.138 171.874 405.323 171.673 406.359 171.271C407.396 170.869 408.274 170.287 408.994 169.525C409.967 168.489 410.676 167.134 411.12 165.463C411.586 163.791 411.818 161.824 411.818 159.56Z" fill="#606BA8"/>
<path d="M215.168 214.757V220.026H214.66C211.867 220.026 209.497 220.428 207.551 221.232C205.604 222.015 203.996 223.073 202.727 224.406C201.394 225.802 200.378 227.463 199.68 229.389C199.003 231.314 198.601 233.292 198.474 235.324C199.024 234.668 199.659 234.065 200.378 233.515C201.097 232.943 201.88 232.446 202.727 232.023C203.552 231.621 204.44 231.304 205.393 231.071C206.366 230.817 207.382 230.69 208.439 230.69C210.746 230.69 212.735 231.134 214.406 232.023C216.078 232.89 217.453 234.044 218.532 235.482C219.611 236.921 220.405 238.55 220.913 240.37C221.42 242.19 221.674 244.041 221.674 245.924C221.674 248.083 221.368 250.114 220.754 252.018C220.161 253.922 219.262 255.583 218.056 257.001C216.85 258.44 215.348 259.572 213.549 260.397C211.772 261.222 209.709 261.635 207.36 261.635C204.991 261.635 202.906 261.159 201.108 260.207C199.309 259.254 197.797 258.017 196.569 256.493C195.194 254.822 194.168 252.875 193.491 250.653C192.814 248.41 192.475 246.168 192.475 243.925V241.164C192.475 237.313 192.93 233.525 193.84 229.801C194.75 226.077 196.527 222.893 199.172 220.248C200.992 218.428 203.203 217.064 205.805 216.154C208.408 215.223 211.359 214.757 214.66 214.757H215.168ZM207.487 235.578C206.493 235.578 205.53 235.736 204.599 236.054C203.668 236.371 202.801 236.815 201.997 237.387C201.193 237.958 200.484 238.646 199.87 239.45C199.257 240.254 198.77 241.142 198.41 242.116V244.083C198.41 246.115 198.653 247.924 199.14 249.511C199.627 251.076 200.283 252.399 201.108 253.478C201.933 254.557 202.885 255.382 203.964 255.954C205.043 256.504 206.175 256.779 207.36 256.779C208.736 256.779 209.952 256.514 211.01 255.985C212.068 255.456 212.967 254.726 213.708 253.795C214.427 252.864 214.967 251.754 215.327 250.463C215.708 249.151 215.898 247.733 215.898 246.21C215.898 244.856 215.729 243.544 215.39 242.274C215.052 240.984 214.533 239.841 213.835 238.847C213.137 237.852 212.259 237.059 211.201 236.466C210.143 235.874 208.905 235.578 207.487 235.578ZM260.998 226.85C260.977 228.394 260.681 229.844 260.109 231.198C259.538 232.531 258.745 233.705 257.729 234.721C257.242 235.207 256.703 235.662 256.11 236.085C255.518 236.509 254.883 236.889 254.206 237.228C255.391 237.736 256.459 238.371 257.412 239.132C258.385 239.873 259.221 240.73 259.919 241.703C260.596 242.676 261.114 243.734 261.474 244.877C261.855 246.02 262.045 247.236 262.045 248.527C262.045 250.622 261.654 252.484 260.871 254.113C260.109 255.742 259.073 257.107 257.761 258.207C256.428 259.328 254.873 260.185 253.095 260.778C251.318 261.349 249.414 261.635 247.382 261.635C245.309 261.635 243.373 261.349 241.574 260.778C239.797 260.207 238.252 259.36 236.94 258.239C235.607 257.139 234.56 255.774 233.798 254.145C233.037 252.515 232.656 250.643 232.656 248.527C232.656 247.236 232.836 246.02 233.195 244.877C233.555 243.713 234.073 242.645 234.75 241.671C235.428 240.719 236.242 239.862 237.194 239.101C238.146 238.339 239.215 237.704 240.4 237.196C239.384 236.688 238.464 236.085 237.639 235.387C236.813 234.668 236.115 233.864 235.544 232.975C234.973 232.108 234.528 231.155 234.211 230.119C233.894 229.082 233.735 227.992 233.735 226.85C233.735 224.84 234.073 223.052 234.75 221.486C235.428 219.899 236.369 218.566 237.575 217.487C238.76 216.408 240.178 215.583 241.828 215.011C243.5 214.44 245.319 214.154 247.287 214.154C249.234 214.154 251.043 214.44 252.714 215.011C254.386 215.583 255.835 216.408 257.062 217.487C258.29 218.566 259.252 219.899 259.951 221.486C260.649 223.052 260.998 224.84 260.998 226.85ZM256.174 248.4C256.174 247.109 255.952 245.924 255.507 244.845C255.084 243.766 254.481 242.835 253.698 242.052C252.915 241.291 251.974 240.698 250.874 240.275C249.794 239.852 248.61 239.64 247.319 239.64C245.986 239.64 244.78 239.852 243.701 240.275C242.622 240.698 241.701 241.291 240.939 242.052C240.178 242.835 239.585 243.766 239.162 244.845C238.76 245.924 238.559 247.109 238.559 248.4C238.559 249.733 238.76 250.928 239.162 251.986C239.585 253.023 240.178 253.901 240.939 254.621C241.701 255.34 242.622 255.89 243.701 256.271C244.801 256.652 246.028 256.842 247.382 256.842C248.673 256.842 249.858 256.652 250.937 256.271C252.016 255.89 252.947 255.34 253.73 254.621C254.492 253.901 255.084 253.023 255.507 251.986C255.952 250.928 256.174 249.733 256.174 248.4ZM255.095 226.945C255.095 225.781 254.894 224.713 254.492 223.739C254.111 222.766 253.582 221.92 252.905 221.2C252.207 220.502 251.381 219.962 250.429 219.582C249.477 219.18 248.43 218.979 247.287 218.979C246.145 218.979 245.108 219.169 244.177 219.55C243.246 219.91 242.442 220.438 241.765 221.137C241.088 221.835 240.559 222.681 240.178 223.676C239.818 224.649 239.638 225.739 239.638 226.945C239.638 228.151 239.818 229.241 240.178 230.214C240.559 231.166 241.098 231.981 241.796 232.658C242.473 233.356 243.278 233.896 244.208 234.276C245.161 234.636 246.208 234.816 247.351 234.816C248.472 234.816 249.509 234.636 250.461 234.276C251.413 233.896 252.238 233.356 252.937 232.658C253.614 231.981 254.143 231.155 254.523 230.182C254.904 229.209 255.095 228.13 255.095 226.945ZM286.484 259.635C286.484 261.751 285.987 263.909 284.992 266.11C283.998 268.31 282.654 270.162 280.961 271.664L277.312 269.665C278.327 268.183 279.047 266.607 279.47 264.936C279.893 263.264 280.104 261.529 280.104 259.73V254.049H286.484V259.635ZM339.646 243.322C339.646 246.263 339.307 248.876 338.63 251.161C337.953 253.425 336.979 255.329 335.71 256.874C334.44 258.44 332.885 259.625 331.044 260.429C329.204 261.233 327.098 261.635 324.729 261.635C322.38 261.635 320.275 261.243 318.413 260.46C316.551 259.656 314.974 258.461 313.684 256.874C312.393 255.329 311.409 253.425 310.732 251.161C310.055 248.876 309.716 246.263 309.716 243.322V232.499C309.716 229.558 310.055 226.955 310.732 224.691C311.409 222.406 312.393 220.481 313.684 218.915C314.953 217.349 316.508 216.164 318.349 215.36C320.211 214.535 322.316 214.123 324.665 214.123C327.035 214.123 329.14 214.535 330.981 215.36C332.843 216.164 334.419 217.349 335.71 218.915C336.979 220.481 337.953 222.406 338.63 224.691C339.307 226.955 339.646 229.558 339.646 232.499V243.322ZM315.62 242.147L333.615 228.341C333.446 226.818 333.139 225.474 332.695 224.311C332.272 223.126 331.69 222.142 330.949 221.359C330.23 220.555 329.341 219.952 328.283 219.55C327.246 219.148 326.04 218.947 324.665 218.947C323.269 218.947 322.031 219.169 320.952 219.613C319.894 220.036 318.994 220.661 318.254 221.486C317.365 222.523 316.699 223.866 316.254 225.517C315.831 227.146 315.62 229.04 315.62 231.198V238.942C315.62 239.471 315.62 240 315.62 240.529C315.62 241.058 315.62 241.597 315.62 242.147ZM333.742 244.56V238.021C333.742 237.704 333.742 237.101 333.742 236.212C333.742 235.303 333.742 234.551 333.742 233.959L315.778 247.702C315.969 249.246 316.307 250.611 316.794 251.796C317.281 252.96 317.915 253.922 318.698 254.684C319.418 255.403 320.285 255.954 321.301 256.334C322.316 256.694 323.459 256.874 324.729 256.874C326.062 256.874 327.246 256.673 328.283 256.271C329.32 255.869 330.198 255.287 330.917 254.525C331.891 253.489 332.6 252.134 333.044 250.463C333.509 248.791 333.742 246.824 333.742 244.56ZM378.684 243.322C378.684 246.263 378.345 248.876 377.668 251.161C376.991 253.425 376.018 255.329 374.748 256.874C373.479 258.44 371.923 259.625 370.083 260.429C368.242 261.233 366.136 261.635 363.767 261.635C361.418 261.635 359.313 261.243 357.451 260.46C355.589 259.656 354.012 258.461 352.722 256.874C351.431 255.329 350.447 253.425 349.77 251.161C349.093 248.876 348.754 246.263 348.754 243.322V232.499C348.754 229.558 349.093 226.955 349.77 224.691C350.447 222.406 351.431 220.481 352.722 218.915C353.991 217.349 355.546 216.164 357.387 215.36C359.249 214.535 361.354 214.123 363.703 214.123C366.073 214.123 368.178 214.535 370.019 215.36C371.881 216.164 373.457 217.349 374.748 218.915C376.018 220.481 376.991 222.406 377.668 224.691C378.345 226.955 378.684 229.558 378.684 232.499V243.322ZM354.658 242.147L372.653 228.341C372.484 226.818 372.177 225.474 371.733 224.311C371.31 223.126 370.728 222.142 369.987 221.359C369.268 220.555 368.379 219.952 367.321 219.55C366.285 219.148 365.078 218.947 363.703 218.947C362.307 218.947 361.069 219.169 359.99 219.613C358.932 220.036 358.033 220.661 357.292 221.486C356.403 222.523 355.737 223.866 355.292 225.517C354.869 227.146 354.658 229.04 354.658 231.198V238.942C354.658 239.471 354.658 240 354.658 240.529C354.658 241.058 354.658 241.597 354.658 242.147ZM372.78 244.56V238.021C372.78 237.704 372.78 237.101 372.78 236.212C372.78 235.303 372.78 234.551 372.78 233.959L354.816 247.702C355.007 249.246 355.345 250.611 355.832 251.796C356.319 252.96 356.953 253.922 357.736 254.684C358.456 255.403 359.323 255.954 360.339 256.334C361.354 256.694 362.497 256.874 363.767 256.874C365.1 256.874 366.285 256.673 367.321 256.271C368.358 255.869 369.236 255.287 369.956 254.525C370.929 253.489 371.638 252.134 372.082 250.463C372.548 248.791 372.78 246.824 372.78 244.56ZM417.722 243.322C417.722 246.263 417.383 248.876 416.706 251.161C416.029 253.425 415.056 255.329 413.786 256.874C412.517 258.44 410.961 259.625 409.121 260.429C407.28 261.233 405.174 261.635 402.805 261.635C400.456 261.635 398.351 261.243 396.489 260.46C394.627 259.656 393.05 258.461 391.76 256.874C390.469 255.329 389.485 253.425 388.808 251.161C388.131 248.876 387.792 246.263 387.792 243.322V232.499C387.792 229.558 388.131 226.955 388.808 224.691C389.485 222.406 390.469 220.481 391.76 218.915C393.029 217.349 394.584 216.164 396.425 215.36C398.287 214.535 400.393 214.123 402.741 214.123C405.111 214.123 407.216 214.535 409.057 215.36C410.919 216.164 412.495 217.349 413.786 218.915C415.056 220.481 416.029 222.406 416.706 224.691C417.383 226.955 417.722 229.558 417.722 232.499V243.322ZM393.696 242.147L411.691 228.341C411.522 226.818 411.215 225.474 410.771 224.311C410.348 223.126 409.766 222.142 409.025 221.359C408.306 220.555 407.417 219.952 406.359 219.55C405.323 219.148 404.117 218.947 402.741 218.947C401.345 218.947 400.107 219.169 399.028 219.613C397.97 220.036 397.071 220.661 396.33 221.486C395.441 222.523 394.775 223.866 394.331 225.517C393.907 227.146 393.696 229.04 393.696 231.198V238.942C393.696 239.471 393.696 240 393.696 240.529C393.696 241.058 393.696 241.597 393.696 242.147ZM411.818 244.56V238.021C411.818 237.704 411.818 237.101 411.818 236.212C411.818 235.303 411.818 234.551 411.818 233.959L393.854 247.702C394.045 249.246 394.383 250.611 394.87 251.796C395.357 252.96 395.992 253.922 396.774 254.684C397.494 255.403 398.361 255.954 399.377 256.334C400.393 256.694 401.535 256.874 402.805 256.874C404.138 256.874 405.323 256.673 406.359 256.271C407.396 255.869 408.274 255.287 408.994 254.525C409.967 253.489 410.676 252.134 411.12 250.463C411.586 248.791 411.818 246.824 411.818 244.56Z" fill="#606BA8"/>
<path d="M215.168 389.757V395.026H214.66C211.867 395.026 209.497 395.428 207.551 396.232C205.604 397.015 203.996 398.073 202.727 399.406C201.394 400.802 200.378 402.463 199.68 404.389C199.003 406.314 198.601 408.292 198.474 410.324C199.024 409.668 199.659 409.065 200.378 408.515C201.097 407.943 201.88 407.446 202.727 407.023C203.552 406.621 204.44 406.304 205.393 406.071C206.366 405.817 207.382 405.69 208.439 405.69C210.746 405.69 212.735 406.134 214.406 407.023C216.078 407.89 217.453 409.044 218.532 410.482C219.611 411.921 220.405 413.55 220.913 415.37C221.42 417.19 221.674 419.041 221.674 420.924C221.674 423.083 221.368 425.114 220.754 427.018C220.161 428.922 219.262 430.583 218.056 432.001C216.85 433.44 215.348 434.572 213.549 435.397C211.772 436.222 209.709 436.635 207.36 436.635C204.991 436.635 202.906 436.159 201.108 435.207C199.309 434.254 197.797 433.017 196.569 431.493C195.194 429.822 194.168 427.875 193.491 425.653C192.814 423.41 192.475 421.168 192.475 418.925V416.164C192.475 412.313 192.93 408.525 193.84 404.801C194.75 401.077 196.527 397.893 199.172 395.248C200.992 393.428 203.203 392.064 205.805 391.154C208.408 390.223 211.359 389.757 214.66 389.757H215.168ZM207.487 410.578C206.493 410.578 205.53 410.736 204.599 411.054C203.668 411.371 202.801 411.815 201.997 412.387C201.193 412.958 200.484 413.646 199.87 414.45C199.257 415.254 198.77 416.142 198.41 417.116V419.083C198.41 421.115 198.653 422.924 199.14 424.511C199.627 426.076 200.283 427.399 201.108 428.478C201.933 429.557 202.885 430.382 203.964 430.954C205.043 431.504 206.175 431.779 207.36 431.779C208.736 431.779 209.952 431.514 211.01 430.985C212.068 430.456 212.967 429.726 213.708 428.795C214.427 427.864 214.967 426.754 215.327 425.463C215.708 424.151 215.898 422.733 215.898 421.21C215.898 419.856 215.729 418.544 215.39 417.274C215.052 415.984 214.533 414.841 213.835 413.847C213.137 412.852 212.259 412.059 211.201 411.466C210.143 410.874 208.905 410.578 207.487 410.578ZM260.903 436H230.625V431.779L245.764 414.958C247.118 413.455 248.25 412.122 249.16 410.958C250.069 409.795 250.799 408.716 251.35 407.721C251.9 406.748 252.291 405.827 252.524 404.96C252.757 404.071 252.873 403.161 252.873 402.23C252.873 401.088 252.683 400.019 252.302 399.025C251.942 398.009 251.413 397.131 250.715 396.391C249.995 395.65 249.128 395.068 248.112 394.645C247.118 394.201 245.986 393.979 244.716 393.979C243.172 393.979 241.828 394.201 240.686 394.645C239.564 395.089 238.633 395.714 237.893 396.518C237.131 397.343 236.56 398.337 236.179 399.501C235.819 400.665 235.639 401.966 235.639 403.405H229.736C229.736 401.458 230.074 399.628 230.751 397.914C231.429 396.179 232.412 394.666 233.703 393.375C234.973 392.085 236.528 391.059 238.369 390.297C240.231 389.535 242.347 389.154 244.716 389.154C246.896 389.154 248.853 389.482 250.588 390.138C252.344 390.773 253.825 391.662 255.031 392.804C256.237 393.947 257.158 395.301 257.792 396.867C258.448 398.432 258.776 400.136 258.776 401.977C258.776 403.352 258.544 404.717 258.078 406.071C257.613 407.404 256.988 408.726 256.206 410.038C255.402 411.35 254.471 412.651 253.413 413.942C252.376 415.211 251.276 416.481 250.112 417.75L237.702 431.208H260.903V436ZM286.484 434.635C286.484 436.751 285.987 438.909 284.992 441.11C283.998 443.31 282.654 445.162 280.961 446.664L277.312 444.665C278.327 443.183 279.047 441.607 279.47 439.936C279.893 438.264 280.104 436.529 280.104 434.73V429.049H286.484V434.635ZM339.646 418.322C339.646 421.263 339.307 423.876 338.63 426.161C337.953 428.425 336.979 430.329 335.71 431.874C334.44 433.44 332.885 434.625 331.044 435.429C329.204 436.233 327.098 436.635 324.729 436.635C322.38 436.635 320.275 436.243 318.413 435.46C316.551 434.656 314.974 433.461 313.684 431.874C312.393 430.329 311.409 428.425 310.732 426.161C310.055 423.876 309.716 421.263 309.716 418.322V407.499C309.716 404.558 310.055 401.955 310.732 399.691C311.409 397.406 312.393 395.481 313.684 393.915C314.953 392.349 316.508 391.164 318.349 390.36C320.211 389.535 322.316 389.123 324.665 389.123C327.035 389.123 329.14 389.535 330.981 390.36C332.843 391.164 334.419 392.349 335.71 393.915C336.979 395.481 337.953 397.406 338.63 399.691C339.307 401.955 339.646 404.558 339.646 407.499V418.322ZM315.62 417.147L333.615 403.341C333.446 401.818 333.139 400.474 332.695 399.311C332.272 398.126 331.69 397.142 330.949 396.359C330.23 395.555 329.341 394.952 328.283 394.55C327.246 394.148 326.04 393.947 324.665 393.947C323.269 393.947 322.031 394.169 320.952 394.613C319.894 395.036 318.994 395.661 318.254 396.486C317.365 397.523 316.699 398.866 316.254 400.517C315.831 402.146 315.62 404.04 315.62 406.198V413.942C315.62 414.471 315.62 415 315.62 415.529C315.62 416.058 315.62 416.597 315.62 417.147ZM333.742 419.56V413.021C333.742 412.704 333.742 412.101 333.742 411.212C333.742 410.303 333.742 409.551 333.742 408.959L315.778 422.702C315.969 424.246 316.307 425.611 316.794 426.796C317.281 427.96 317.915 428.922 318.698 429.684C319.418 430.403 320.285 430.954 321.301 431.334C322.316 431.694 323.459 431.874 324.729 431.874C326.062 431.874 327.246 431.673 328.283 431.271C329.32 430.869 330.198 430.287 330.917 429.525C331.891 428.489 332.6 427.134 333.044 425.463C333.509 423.791 333.742 421.824 333.742 419.56ZM378.684 418.322C378.684 421.263 378.345 423.876 377.668 426.161C376.991 428.425 376.018 430.329 374.748 431.874C373.479 433.44 371.923 434.625 370.083 435.429C368.242 436.233 366.136 436.635 363.767 436.635C361.418 436.635 359.313 436.243 357.451 435.46C355.589 434.656 354.012 433.461 352.722 431.874C351.431 430.329 350.447 428.425 349.77 426.161C349.093 423.876 348.754 421.263 348.754 418.322V407.499C348.754 404.558 349.093 401.955 349.77 399.691C350.447 397.406 351.431 395.481 352.722 393.915C353.991 392.349 355.546 391.164 357.387 390.36C359.249 389.535 361.354 389.123 363.703 389.123C366.073 389.123 368.178 389.535 370.019 390.36C371.881 391.164 373.457 392.349 374.748 393.915C376.018 395.481 376.991 397.406 377.668 399.691C378.345 401.955 378.684 404.558 378.684 407.499V418.322ZM354.658 417.147L372.653 403.341C372.484 401.818 372.177 400.474 371.733 399.311C371.31 398.126 370.728 397.142 369.987 396.359C369.268 395.555 368.379 394.952 367.321 394.55C366.285 394.148 365.078 393.947 363.703 393.947C362.307 393.947 361.069 394.169 359.99 394.613C358.932 395.036 358.033 395.661 357.292 396.486C356.403 397.523 355.737 398.866 355.292 400.517C354.869 402.146 354.658 404.04 354.658 406.198V413.942C354.658 414.471 354.658 415 354.658 415.529C354.658 416.058 354.658 416.597 354.658 417.147ZM372.78 419.56V413.021C372.78 412.704 372.78 412.101 372.78 411.212C372.78 410.303 372.78 409.551 372.78 408.959L354.816 422.702C355.007 424.246 355.345 425.611 355.832 426.796C356.319 427.96 356.953 428.922 357.736 429.684C358.456 430.403 359.323 430.954 360.339 431.334C361.354 431.694 362.497 431.874 363.767 431.874C365.1 431.874 366.285 431.673 367.321 431.271C368.358 430.869 369.236 430.287 369.956 429.525C370.929 428.489 371.638 427.134 372.082 425.463C372.548 423.791 372.78 421.824 372.78 419.56ZM417.722 418.322C417.722 421.263 417.383 423.876 416.706 426.161C416.029 428.425 415.056 430.329 413.786 431.874C412.517 433.44 410.961 434.625 409.121 435.429C407.28 436.233 405.174 436.635 402.805 436.635C400.456 436.635 398.351 436.243 396.489 435.46C394.627 434.656 393.05 433.461 391.76 431.874C390.469 430.329 389.485 428.425 388.808 426.161C388.131 423.876 387.792 421.263 387.792 418.322V407.499C387.792 404.558 388.131 401.955 388.808 399.691C389.485 397.406 390.469 395.481 391.76 393.915C393.029 392.349 394.584 391.164 396.425 390.36C398.287 389.535 400.393 389.123 402.741 389.123C405.111 389.123 407.216 389.535 409.057 390.36C410.919 391.164 412.495 392.349 413.786 393.915C415.056 395.481 416.029 397.406 416.706 399.691C417.383 401.955 417.722 404.558 417.722 407.499V418.322ZM393.696 417.147L411.691 403.341C411.522 401.818 411.215 400.474 410.771 399.311C410.348 398.126 409.766 397.142 409.025 396.359C408.306 395.555 407.417 394.952 406.359 394.55C405.323 394.148 404.117 393.947 402.741 393.947C401.345 393.947 400.107 394.169 399.028 394.613C397.97 395.036 397.071 395.661 396.33 396.486C395.441 397.523 394.775 398.866 394.331 400.517C393.907 402.146 393.696 404.04 393.696 406.198V413.942C393.696 414.471 393.696 415 393.696 415.529C393.696 416.058 393.696 416.597 393.696 417.147ZM411.818 419.56V413.021C411.818 412.704 411.818 412.101 411.818 411.212C411.818 410.303 411.818 409.551 411.818 408.959L393.854 422.702C394.045 424.246 394.383 425.611 394.87 426.796C395.357 427.96 395.992 428.922 396.774 429.684C397.494 430.403 398.361 430.954 399.377 431.334C400.393 431.694 401.535 431.874 402.805 431.874C404.138 431.874 405.323 431.673 406.359 431.271C407.396 430.869 408.274 430.287 408.994 429.525C409.967 428.489 410.676 427.134 411.12 425.463C411.586 423.791 411.818 421.824 411.818 419.56Z" fill="#606BA8"/>
<path d="M83.3779 314.07H87.5674C89.0485 314.07 90.3498 313.869 91.4712 313.467C92.6138 313.065 93.5765 312.515 94.3594 311.816C95.1211 311.118 95.703 310.282 96.105 309.309C96.507 308.336 96.708 307.267 96.708 306.104C96.708 304.728 96.5282 303.533 96.1685 302.517C95.8088 301.48 95.2798 300.623 94.5815 299.946C93.9045 299.29 93.0581 298.804 92.0425 298.486C91.048 298.148 89.9054 297.979 88.6147 297.979C87.3664 297.979 86.2238 298.169 85.187 298.55C84.1714 298.91 83.3039 299.438 82.5845 300.137C81.8439 300.835 81.2726 301.671 80.8706 302.644C80.4686 303.617 80.2676 304.707 80.2676 305.913H74.3643C74.3643 304.157 74.7028 302.507 75.3799 300.962C76.0781 299.396 77.0514 298.031 78.2998 296.868C79.5482 295.725 81.0399 294.826 82.7749 294.17C84.5311 293.493 86.4777 293.154 88.6147 293.154C90.6883 293.154 92.582 293.44 94.2959 294.011C96.0098 294.561 97.4803 295.387 98.7075 296.487C99.9347 297.587 100.887 298.952 101.564 300.581C102.241 302.21 102.58 304.093 102.58 306.23C102.58 307.119 102.442 308.04 102.167 308.992C101.892 309.944 101.469 310.864 100.897 311.753C100.326 312.663 99.5856 313.52 98.6758 314.324C97.7871 315.107 96.7186 315.763 95.4702 316.292C96.9725 316.778 98.2209 317.413 99.2153 318.196C100.231 318.979 101.046 319.857 101.659 320.83C102.252 321.803 102.664 322.83 102.897 323.909C103.151 324.988 103.278 326.056 103.278 327.114C103.278 329.272 102.908 331.187 102.167 332.859C101.426 334.53 100.4 335.938 99.0884 337.08C97.7765 338.244 96.2214 339.132 94.4229 339.746C92.6455 340.339 90.7201 340.635 88.6465 340.635C86.6152 340.635 84.7004 340.349 82.9019 339.778C81.1245 339.207 79.5799 338.371 78.2681 337.271C76.9562 336.17 75.9089 334.827 75.126 333.24C74.3643 331.653 73.9834 329.844 73.9834 327.812H79.855C79.855 329.019 80.056 330.119 80.458 331.113C80.8812 332.108 81.4736 332.954 82.2354 333.652C82.9971 334.351 83.9175 334.89 84.9966 335.271C86.0968 335.652 87.3135 335.842 88.6465 335.842C89.9795 335.842 91.1855 335.673 92.2646 335.334C93.3438 334.975 94.2642 334.435 95.0259 333.716C95.7876 332.996 96.3695 332.108 96.7715 331.05C97.1947 329.971 97.4062 328.701 97.4062 327.241C97.4062 325.802 97.1629 324.565 96.6763 323.528C96.2108 322.47 95.5549 321.592 94.7085 320.894C93.841 320.195 92.7936 319.677 91.5664 319.338C90.3604 319 89.0273 318.831 87.5674 318.831H83.3779V314.07ZM130.446 338.635C130.446 340.751 129.949 342.909 128.954 345.11C127.96 347.31 126.616 349.162 124.923 350.664L121.273 348.665C122.289 347.183 123.008 345.607 123.432 343.936C123.855 342.264 124.066 340.529 124.066 338.73V333.049H130.446V338.635ZM183.607 322.322C183.607 325.263 183.269 327.876 182.592 330.161C181.915 332.425 180.941 334.329 179.672 335.874C178.402 337.44 176.847 338.625 175.006 339.429C173.166 340.233 171.06 340.635 168.69 340.635C166.342 340.635 164.236 340.243 162.375 339.46C160.513 338.656 158.936 337.461 157.646 335.874C156.355 334.329 155.371 332.425 154.694 330.161C154.017 327.876 153.678 325.263 153.678 322.322V311.499C153.678 308.558 154.017 305.955 154.694 303.691C155.371 301.406 156.355 299.481 157.646 297.915C158.915 296.349 160.47 295.164 162.311 294.36C164.173 293.535 166.278 293.123 168.627 293.123C170.997 293.123 173.102 293.535 174.943 294.36C176.805 295.164 178.381 296.349 179.672 297.915C180.941 299.481 181.915 301.406 182.592 303.691C183.269 305.955 183.607 308.558 183.607 311.499V322.322ZM159.582 321.147L177.577 307.341C177.408 305.818 177.101 304.474 176.657 303.311C176.234 302.126 175.652 301.142 174.911 300.359C174.192 299.555 173.303 298.952 172.245 298.55C171.208 298.148 170.002 297.947 168.627 297.947C167.23 297.947 165.993 298.169 164.914 298.613C163.856 299.036 162.956 299.661 162.216 300.486C161.327 301.523 160.661 302.866 160.216 304.517C159.793 306.146 159.582 308.04 159.582 310.198V317.942C159.582 318.471 159.582 319 159.582 319.529C159.582 320.058 159.582 320.597 159.582 321.147ZM177.704 323.56V317.021C177.704 316.704 177.704 316.101 177.704 315.212C177.704 314.303 177.704 313.551 177.704 312.959L159.74 326.702C159.931 328.246 160.269 329.611 160.756 330.796C161.243 331.96 161.877 332.922 162.66 333.684C163.38 334.403 164.247 334.954 165.263 335.334C166.278 335.694 167.421 335.874 168.69 335.874C170.023 335.874 171.208 335.673 172.245 335.271C173.282 334.869 174.16 334.287 174.879 333.525C175.853 332.489 176.562 331.134 177.006 329.463C177.471 327.791 177.704 325.824 177.704 323.56ZM222.646 322.322C222.646 325.263 222.307 327.876 221.63 330.161C220.953 332.425 219.979 334.329 218.71 335.874C217.44 337.44 215.885 338.625 214.044 339.429C212.204 340.233 210.098 340.635 207.729 340.635C205.38 340.635 203.275 340.243 201.413 339.46C199.551 338.656 197.974 337.461 196.684 335.874C195.393 334.329 194.409 332.425 193.732 330.161C193.055 327.876 192.716 325.263 192.716 322.322V311.499C192.716 308.558 193.055 305.955 193.732 303.691C194.409 301.406 195.393 299.481 196.684 297.915C197.953 296.349 199.508 295.164 201.349 294.36C203.211 293.535 205.316 293.123 207.665 293.123C210.035 293.123 212.14 293.535 213.981 294.36C215.843 295.164 217.419 296.349 218.71 297.915C219.979 299.481 220.953 301.406 221.63 303.691C222.307 305.955 222.646 308.558 222.646 311.499V322.322ZM198.62 321.147L216.615 307.341C216.446 305.818 216.139 304.474 215.695 303.311C215.272 302.126 214.69 301.142 213.949 300.359C213.23 299.555 212.341 298.952 211.283 298.55C210.246 298.148 209.04 297.947 207.665 297.947C206.269 297.947 205.031 298.169 203.952 298.613C202.894 299.036 201.994 299.661 201.254 300.486C200.365 301.523 199.699 302.866 199.254 304.517C198.831 306.146 198.62 308.04 198.62 310.198V317.942C198.62 318.471 198.62 319 198.62 319.529C198.62 320.058 198.62 320.597 198.62 321.147ZM216.742 323.56V317.021C216.742 316.704 216.742 316.101 216.742 315.212C216.742 314.303 216.742 313.551 216.742 312.959L198.778 326.702C198.969 328.246 199.307 329.611 199.794 330.796C200.281 331.96 200.915 332.922 201.698 333.684C202.418 334.403 203.285 334.954 204.301 335.334C205.316 335.694 206.459 335.874 207.729 335.874C209.062 335.874 210.246 335.673 211.283 335.271C212.32 334.869 213.198 334.287 213.917 333.525C214.891 332.489 215.6 331.134 216.044 329.463C216.509 327.791 216.742 325.824 216.742 323.56ZM261.684 322.322C261.684 325.263 261.345 327.876 260.668 330.161C259.991 332.425 259.018 334.329 257.748 335.874C256.479 337.44 254.923 338.625 253.083 339.429C251.242 340.233 249.136 340.635 246.767 340.635C244.418 340.635 242.313 340.243 240.451 339.46C238.589 338.656 237.012 337.461 235.722 335.874C234.431 334.329 233.447 332.425 232.77 330.161C232.093 327.876 231.754 325.263 231.754 322.322V311.499C231.754 308.558 232.093 305.955 232.77 303.691C233.447 301.406 234.431 299.481 235.722 297.915C236.991 296.349 238.546 295.164 240.387 294.36C242.249 293.535 244.354 293.123 246.703 293.123C249.073 293.123 251.178 293.535 253.019 294.36C254.881 295.164 256.457 296.349 257.748 297.915C259.018 299.481 259.991 301.406 260.668 303.691C261.345 305.955 261.684 308.558 261.684 311.499V322.322ZM237.658 321.147L255.653 307.341C255.484 305.818 255.177 304.474 254.733 303.311C254.31 302.126 253.728 301.142 252.987 300.359C252.268 299.555 251.379 298.952 250.321 298.55C249.285 298.148 248.078 297.947 246.703 297.947C245.307 297.947 244.069 298.169 242.99 298.613C241.932 299.036 241.033 299.661 240.292 300.486C239.403 301.523 238.737 302.866 238.292 304.517C237.869 306.146 237.658 308.04 237.658 310.198V317.942C237.658 318.471 237.658 319 237.658 319.529C237.658 320.058 237.658 320.597 237.658 321.147ZM255.78 323.56V317.021C255.78 316.704 255.78 316.101 255.78 315.212C255.78 314.303 255.78 313.551 255.78 312.959L237.816 326.702C238.007 328.246 238.345 329.611 238.832 330.796C239.319 331.96 239.953 332.922 240.736 333.684C241.456 334.403 242.323 334.954 243.339 335.334C244.354 335.694 245.497 335.874 246.767 335.874C248.1 335.874 249.285 335.673 250.321 335.271C251.358 334.869 252.236 334.287 252.956 333.525C253.929 332.489 254.638 331.134 255.082 329.463C255.548 327.791 255.78 325.824 255.78 323.56ZM286.598 338.635C286.598 340.751 286.101 342.909 285.106 345.11C284.112 347.31 282.768 349.162 281.076 350.664L277.426 348.665C278.441 347.183 279.161 345.607 279.584 343.936C280.007 342.264 280.219 340.529 280.219 338.73V333.049H286.598V338.635ZM339.76 322.322C339.76 325.263 339.421 327.876 338.744 330.161C338.067 332.425 337.094 334.329 335.824 335.874C334.555 337.44 333 338.625 331.159 339.429C329.318 340.233 327.213 340.635 324.843 340.635C322.494 340.635 320.389 340.243 318.527 339.46C316.665 338.656 315.089 337.461 313.798 335.874C312.507 334.329 311.523 332.425 310.846 330.161C310.169 327.876 309.831 325.263 309.831 322.322V311.499C309.831 308.558 310.169 305.955 310.846 303.691C311.523 301.406 312.507 299.481 313.798 297.915C315.067 296.349 316.623 295.164 318.463 294.36C320.325 293.535 322.431 293.123 324.779 293.123C327.149 293.123 329.254 293.535 331.095 294.36C332.957 295.164 334.534 296.349 335.824 297.915C337.094 299.481 338.067 301.406 338.744 303.691C339.421 305.955 339.76 308.558 339.76 311.499V322.322ZM315.734 321.147L333.729 307.341C333.56 305.818 333.253 304.474 332.809 303.311C332.386 302.126 331.804 301.142 331.063 300.359C330.344 299.555 329.455 298.952 328.397 298.55C327.361 298.148 326.155 297.947 324.779 297.947C323.383 297.947 322.145 298.169 321.066 298.613C320.008 299.036 319.109 299.661 318.368 300.486C317.479 301.523 316.813 302.866 316.369 304.517C315.945 306.146 315.734 308.04 315.734 310.198V317.942C315.734 318.471 315.734 319 315.734 319.529C315.734 320.058 315.734 320.597 315.734 321.147ZM333.856 323.56V317.021C333.856 316.704 333.856 316.101 333.856 315.212C333.856 314.303 333.856 313.551 333.856 312.959L315.893 326.702C316.083 328.246 316.422 329.611 316.908 330.796C317.395 331.96 318.03 332.922 318.812 333.684C319.532 334.403 320.399 334.954 321.415 335.334C322.431 335.694 323.573 335.874 324.843 335.874C326.176 335.874 327.361 335.673 328.397 335.271C329.434 334.869 330.312 334.287 331.032 333.525C332.005 332.489 332.714 331.134 333.158 329.463C333.624 327.791 333.856 325.824 333.856 323.56ZM378.798 322.322C378.798 325.263 378.459 327.876 377.782 330.161C377.105 332.425 376.132 334.329 374.862 335.874C373.593 337.44 372.038 338.625 370.197 339.429C368.356 340.233 366.251 340.635 363.881 340.635C361.532 340.635 359.427 340.243 357.565 339.46C355.703 338.656 354.127 337.461 352.836 335.874C351.545 334.329 350.561 332.425 349.884 330.161C349.207 327.876 348.869 325.263 348.869 322.322V311.499C348.869 308.558 349.207 305.955 349.884 303.691C350.561 301.406 351.545 299.481 352.836 297.915C354.105 296.349 355.661 295.164 357.501 294.36C359.363 293.535 361.469 293.123 363.817 293.123C366.187 293.123 368.292 293.535 370.133 294.36C371.995 295.164 373.572 296.349 374.862 297.915C376.132 299.481 377.105 301.406 377.782 303.691C378.459 305.955 378.798 308.558 378.798 311.499V322.322ZM354.772 321.147L372.768 307.341C372.598 305.818 372.292 304.474 371.847 303.311C371.424 302.126 370.842 301.142 370.102 300.359C369.382 299.555 368.493 298.952 367.436 298.55C366.399 298.148 365.193 297.947 363.817 297.947C362.421 297.947 361.183 298.169 360.104 298.613C359.046 299.036 358.147 299.661 357.406 300.486C356.518 301.523 355.851 302.866 355.407 304.517C354.984 306.146 354.772 308.04 354.772 310.198V317.942C354.772 318.471 354.772 319 354.772 319.529C354.772 320.058 354.772 320.597 354.772 321.147ZM372.895 323.56V317.021C372.895 316.704 372.895 316.101 372.895 315.212C372.895 314.303 372.895 313.551 372.895 312.959L354.931 326.702C355.121 328.246 355.46 329.611 355.946 330.796C356.433 331.96 357.068 332.922 357.851 333.684C358.57 334.403 359.438 334.954 360.453 335.334C361.469 335.694 362.611 335.874 363.881 335.874C365.214 335.874 366.399 335.673 367.436 335.271C368.472 334.869 369.35 334.287 370.07 333.525C371.043 332.489 371.752 331.134 372.196 329.463C372.662 327.791 372.895 325.824 372.895 323.56ZM417.836 322.322C417.836 325.263 417.497 327.876 416.82 330.161C416.143 332.425 415.17 334.329 413.9 335.874C412.631 337.44 411.076 338.625 409.235 339.429C407.394 340.233 405.289 340.635 402.919 340.635C400.57 340.635 398.465 340.243 396.603 339.46C394.741 338.656 393.165 337.461 391.874 335.874C390.583 334.329 389.599 332.425 388.922 330.161C388.245 327.876 387.907 325.263 387.907 322.322V311.499C387.907 308.558 388.245 305.955 388.922 303.691C389.599 301.406 390.583 299.481 391.874 297.915C393.144 296.349 394.699 295.164 396.54 294.36C398.402 293.535 400.507 293.123 402.855 293.123C405.225 293.123 407.331 293.535 409.171 294.36C411.033 295.164 412.61 296.349 413.9 297.915C415.17 299.481 416.143 301.406 416.82 303.691C417.497 305.955 417.836 308.558 417.836 311.499V322.322ZM393.81 321.147L411.806 307.341C411.636 305.818 411.33 304.474 410.885 303.311C410.462 302.126 409.88 301.142 409.14 300.359C408.42 299.555 407.532 298.952 406.474 298.55C405.437 298.148 404.231 297.947 402.855 297.947C401.459 297.947 400.221 298.169 399.142 298.613C398.084 299.036 397.185 299.661 396.444 300.486C395.556 301.523 394.889 302.866 394.445 304.517C394.022 306.146 393.81 308.04 393.81 310.198V317.942C393.81 318.471 393.81 319 393.81 319.529C393.81 320.058 393.81 320.597 393.81 321.147ZM411.933 323.56V317.021C411.933 316.704 411.933 316.101 411.933 315.212C411.933 314.303 411.933 313.551 411.933 312.959L393.969 326.702C394.159 328.246 394.498 329.611 394.984 330.796C395.471 331.96 396.106 332.922 396.889 333.684C397.608 334.403 398.476 334.954 399.491 335.334C400.507 335.694 401.649 335.874 402.919 335.874C404.252 335.874 405.437 335.673 406.474 335.271C407.51 334.869 408.389 334.287 409.108 333.525C410.081 332.489 410.79 331.134 411.234 329.463C411.7 327.791 411.933 325.824 411.933 323.56Z" fill="#606BA8"/>
<path d="M70 315H422" stroke="#D81010" stroke-width="12" stroke-linecap="round"/>
</svg>
