<svg width="517" height="516" viewBox="0 0 517 516" fill="none" xmlns="http://www.w3.org/2000/svg">
<rect x="7.5" y="7.5" width="501" height="501" rx="22.5" fill="white" stroke="#606BA8" stroke-width="15"/>
<path d="M68.2363 329.06H58.7393V325.227H68.2363C70.0755 325.227 71.5648 324.934 72.7041 324.348C73.8434 323.762 74.6735 322.948 75.1943 321.906C75.7314 320.865 76 319.676 76 318.342C76 317.121 75.7314 315.974 75.1943 314.899C74.6735 313.825 73.8434 312.963 72.7041 312.312C71.5648 311.644 70.0755 311.311 68.2363 311.311H59.8379V343H55.126V307.453H68.2363C70.9219 307.453 73.1924 307.917 75.0479 308.845C76.9033 309.772 78.3112 311.058 79.2715 312.702C80.2318 314.33 80.7119 316.193 80.7119 318.293C80.7119 320.572 80.2318 322.517 79.2715 324.128C78.3112 325.739 76.9033 326.968 75.0479 327.814C73.1924 328.645 70.9219 329.06 68.2363 329.06ZM90.502 320.734V343H85.9854V316.584H90.3799L90.502 320.734ZM98.7539 316.438L98.7295 320.637C98.3551 320.555 97.9971 320.507 97.6553 320.49C97.3298 320.458 96.9554 320.441 96.5322 320.441C95.4906 320.441 94.571 320.604 93.7734 320.93C92.9759 321.255 92.3005 321.711 91.7471 322.297C91.1937 322.883 90.7542 323.583 90.4287 324.396C90.1195 325.194 89.916 326.073 89.8184 327.033L88.5488 327.766C88.5488 326.171 88.7035 324.673 89.0127 323.273C89.3382 321.874 89.8346 320.637 90.502 319.562C91.1693 318.472 92.0156 317.626 93.041 317.023C94.0827 316.405 95.3197 316.096 96.752 316.096C97.0775 316.096 97.4518 316.136 97.875 316.218C98.2982 316.283 98.5911 316.356 98.7539 316.438ZM113.402 343.488C111.563 343.488 109.895 343.179 108.397 342.561C106.916 341.926 105.639 341.039 104.564 339.899C103.507 338.76 102.693 337.409 102.123 335.847C101.553 334.284 101.269 332.575 101.269 330.72V329.694C101.269 327.546 101.586 325.633 102.221 323.957C102.855 322.264 103.718 320.832 104.809 319.66C105.899 318.488 107.136 317.601 108.52 316.999C109.903 316.397 111.335 316.096 112.816 316.096C114.704 316.096 116.332 316.421 117.699 317.072C119.083 317.723 120.214 318.635 121.093 319.807C121.972 320.962 122.623 322.329 123.046 323.908C123.469 325.471 123.681 327.18 123.681 329.035V331.062H103.954V327.375H119.164V327.033C119.099 325.861 118.855 324.722 118.432 323.615C118.025 322.508 117.374 321.597 116.479 320.881C115.583 320.165 114.363 319.807 112.816 319.807C111.791 319.807 110.847 320.026 109.984 320.466C109.122 320.889 108.381 321.524 107.763 322.37C107.144 323.216 106.664 324.25 106.322 325.471C105.98 326.691 105.81 328.099 105.81 329.694V330.72C105.81 331.973 105.98 333.153 106.322 334.26C106.68 335.35 107.193 336.311 107.86 337.141C108.544 337.971 109.366 338.622 110.326 339.094C111.303 339.566 112.41 339.802 113.646 339.802C115.242 339.802 116.592 339.476 117.699 338.825C118.806 338.174 119.774 337.303 120.604 336.213L123.339 338.386C122.769 339.248 122.045 340.07 121.166 340.852C120.287 341.633 119.205 342.268 117.919 342.756C116.649 343.244 115.144 343.488 113.402 343.488ZM144.335 335.993C144.335 335.342 144.188 334.74 143.896 334.187C143.619 333.617 143.041 333.104 142.162 332.648C141.299 332.176 139.997 331.77 138.256 331.428C136.791 331.118 135.465 330.752 134.276 330.329C133.104 329.906 132.104 329.393 131.273 328.791C130.46 328.189 129.833 327.481 129.394 326.667C128.954 325.853 128.734 324.901 128.734 323.811C128.734 322.769 128.962 321.784 129.418 320.856C129.89 319.929 130.549 319.107 131.396 318.391C132.258 317.674 133.292 317.113 134.496 316.706C135.701 316.299 137.043 316.096 138.524 316.096C140.64 316.096 142.447 316.47 143.944 317.219C145.442 317.967 146.589 318.968 147.387 320.222C148.184 321.459 148.583 322.834 148.583 324.348H144.066C144.066 323.615 143.847 322.907 143.407 322.224C142.984 321.524 142.357 320.946 141.527 320.49C140.714 320.035 139.713 319.807 138.524 319.807C137.271 319.807 136.254 320.002 135.473 320.393C134.708 320.767 134.146 321.247 133.788 321.833C133.446 322.419 133.275 323.037 133.275 323.688C133.275 324.177 133.357 324.616 133.52 325.007C133.699 325.381 134.008 325.731 134.447 326.057C134.887 326.366 135.505 326.659 136.303 326.936C137.1 327.212 138.118 327.489 139.354 327.766C141.519 328.254 143.301 328.84 144.701 329.523C146.101 330.207 147.143 331.045 147.826 332.038C148.51 333.031 148.852 334.235 148.852 335.651C148.852 336.807 148.607 337.865 148.119 338.825C147.647 339.785 146.955 340.616 146.044 341.315C145.149 341.999 144.075 342.536 142.821 342.927C141.584 343.301 140.193 343.488 138.646 343.488C136.319 343.488 134.35 343.073 132.738 342.243C131.127 341.413 129.906 340.339 129.076 339.021C128.246 337.702 127.831 336.311 127.831 334.846H132.372C132.437 336.083 132.795 337.067 133.446 337.8C134.097 338.516 134.895 339.029 135.839 339.338C136.783 339.631 137.719 339.777 138.646 339.777C139.883 339.777 140.917 339.615 141.747 339.289C142.593 338.964 143.236 338.516 143.676 337.946C144.115 337.377 144.335 336.726 144.335 335.993ZM159.691 316.584V343H155.15V316.584H159.691ZM154.809 309.577C154.809 308.845 155.028 308.226 155.468 307.722C155.924 307.217 156.591 306.965 157.47 306.965C158.332 306.965 158.992 307.217 159.447 307.722C159.919 308.226 160.155 308.845 160.155 309.577C160.155 310.277 159.919 310.879 159.447 311.384C158.992 311.872 158.332 312.116 157.47 312.116C156.591 312.116 155.924 311.872 155.468 311.384C155.028 310.879 154.809 310.277 154.809 309.577ZM183.593 337.873V305.5H188.134V343H183.983L183.593 337.873ZM165.819 330.085V329.572C165.819 327.554 166.063 325.723 166.552 324.079C167.056 322.419 167.764 320.995 168.676 319.807C169.604 318.618 170.702 317.707 171.972 317.072C173.257 316.421 174.69 316.096 176.269 316.096C177.929 316.096 179.377 316.389 180.614 316.975C181.868 317.544 182.925 318.382 183.788 319.489C184.667 320.58 185.359 321.898 185.863 323.444C186.368 324.991 186.718 326.74 186.913 328.693V330.939C186.734 332.876 186.384 334.618 185.863 336.164C185.359 337.71 184.667 339.029 183.788 340.119C182.925 341.21 181.868 342.048 180.614 342.634C179.361 343.203 177.896 343.488 176.22 343.488C174.674 343.488 173.257 343.155 171.972 342.487C170.702 341.82 169.604 340.884 168.676 339.68C167.764 338.475 167.056 337.059 166.552 335.432C166.063 333.788 165.819 332.006 165.819 330.085ZM170.36 329.572V330.085C170.36 331.403 170.491 332.64 170.751 333.796C171.028 334.951 171.451 335.969 172.021 336.848C172.59 337.727 173.314 338.418 174.193 338.923C175.072 339.411 176.122 339.655 177.343 339.655C178.84 339.655 180.069 339.338 181.029 338.703C182.006 338.068 182.787 337.23 183.373 336.188C183.959 335.147 184.415 334.016 184.74 332.795V326.911C184.545 326.016 184.26 325.153 183.886 324.323C183.528 323.477 183.056 322.728 182.47 322.077C181.9 321.41 181.192 320.881 180.346 320.49C179.516 320.1 178.531 319.904 177.392 319.904C176.155 319.904 175.089 320.165 174.193 320.686C173.314 321.19 172.59 321.89 172.021 322.785C171.451 323.664 171.028 324.689 170.751 325.861C170.491 327.017 170.36 328.254 170.36 329.572ZM206.127 343.488C204.288 343.488 202.619 343.179 201.122 342.561C199.641 341.926 198.363 341.039 197.289 339.899C196.231 338.76 195.417 337.409 194.848 335.847C194.278 334.284 193.993 332.575 193.993 330.72V329.694C193.993 327.546 194.311 325.633 194.945 323.957C195.58 322.264 196.443 320.832 197.533 319.66C198.624 318.488 199.861 317.601 201.244 316.999C202.628 316.397 204.06 316.096 205.541 316.096C207.429 316.096 209.057 316.421 210.424 317.072C211.807 317.723 212.938 318.635 213.817 319.807C214.696 320.962 215.347 322.329 215.771 323.908C216.194 325.471 216.405 327.18 216.405 329.035V331.062H196.679V327.375H211.889V327.033C211.824 325.861 211.579 324.722 211.156 323.615C210.749 322.508 210.098 321.597 209.203 320.881C208.308 320.165 207.087 319.807 205.541 319.807C204.516 319.807 203.572 320.026 202.709 320.466C201.846 320.889 201.106 321.524 200.487 322.37C199.869 323.216 199.389 324.25 199.047 325.471C198.705 326.691 198.534 328.099 198.534 329.694V330.72C198.534 331.973 198.705 333.153 199.047 334.26C199.405 335.35 199.918 336.311 200.585 337.141C201.269 337.971 202.09 338.622 203.051 339.094C204.027 339.566 205.134 339.802 206.371 339.802C207.966 339.802 209.317 339.476 210.424 338.825C211.531 338.174 212.499 337.303 213.329 336.213L216.063 338.386C215.494 339.248 214.77 340.07 213.891 340.852C213.012 341.633 211.929 342.268 210.644 342.756C209.374 343.244 207.868 343.488 206.127 343.488ZM226.195 322.224V343H221.679V316.584H225.951L226.195 322.224ZM225.121 328.791L223.241 328.718C223.257 326.911 223.526 325.243 224.047 323.713C224.568 322.167 225.3 320.824 226.244 319.685C227.188 318.545 228.311 317.666 229.613 317.048C230.932 316.413 232.388 316.096 233.983 316.096C235.285 316.096 236.457 316.275 237.499 316.633C238.541 316.975 239.428 317.528 240.16 318.293C240.909 319.058 241.479 320.051 241.869 321.271C242.26 322.476 242.455 323.949 242.455 325.69V343H237.914V325.642C237.914 324.258 237.711 323.151 237.304 322.321C236.897 321.475 236.303 320.865 235.521 320.49C234.74 320.1 233.78 319.904 232.641 319.904C231.518 319.904 230.492 320.14 229.564 320.612C228.653 321.084 227.864 321.735 227.196 322.565C226.545 323.396 226.033 324.348 225.658 325.422C225.3 326.48 225.121 327.603 225.121 328.791ZM260.375 316.584V320.051H246.093V316.584H260.375ZM250.927 310.163H255.443V336.457C255.443 337.352 255.582 338.028 255.858 338.483C256.135 338.939 256.493 339.24 256.933 339.387C257.372 339.533 257.844 339.606 258.349 339.606C258.723 339.606 259.114 339.574 259.521 339.509C259.944 339.427 260.261 339.362 260.473 339.313L260.497 343C260.139 343.114 259.667 343.22 259.081 343.317C258.511 343.431 257.82 343.488 257.006 343.488C255.899 343.488 254.882 343.269 253.954 342.829C253.026 342.39 252.286 341.657 251.732 340.632C251.195 339.59 250.927 338.19 250.927 336.433V310.163ZM276.879 330.085V329.523C276.879 327.619 277.156 325.853 277.709 324.226C278.262 322.582 279.06 321.158 280.102 319.953C281.143 318.732 282.405 317.788 283.886 317.121C285.367 316.438 287.027 316.096 288.866 316.096C290.722 316.096 292.39 316.438 293.871 317.121C295.368 317.788 296.638 318.732 297.68 319.953C298.738 321.158 299.543 322.582 300.097 324.226C300.65 325.853 300.927 327.619 300.927 329.523V330.085C300.927 331.989 300.65 333.755 300.097 335.383C299.543 337.01 298.738 338.435 297.68 339.655C296.638 340.86 295.377 341.804 293.896 342.487C292.431 343.155 290.771 343.488 288.915 343.488C287.06 343.488 285.391 343.155 283.91 342.487C282.429 341.804 281.16 340.86 280.102 339.655C279.06 338.435 278.262 337.01 277.709 335.383C277.156 333.755 276.879 331.989 276.879 330.085ZM281.396 329.523V330.085C281.396 331.403 281.55 332.648 281.859 333.82C282.169 334.976 282.632 336.001 283.251 336.896C283.886 337.792 284.675 338.5 285.619 339.021C286.563 339.525 287.662 339.777 288.915 339.777C290.152 339.777 291.234 339.525 292.162 339.021C293.106 338.5 293.887 337.792 294.506 336.896C295.124 336.001 295.588 334.976 295.897 333.82C296.223 332.648 296.386 331.403 296.386 330.085V329.523C296.386 328.221 296.223 326.993 295.897 325.837C295.588 324.665 295.116 323.632 294.481 322.736C293.863 321.825 293.082 321.109 292.138 320.588C291.21 320.067 290.119 319.807 288.866 319.807C287.629 319.807 286.539 320.067 285.595 320.588C284.667 321.109 283.886 321.825 283.251 322.736C282.632 323.632 282.169 324.665 281.859 325.837C281.55 326.993 281.396 328.221 281.396 329.523ZM313.329 343H308.812V313.801C308.812 311.896 309.154 310.293 309.838 308.991C310.538 307.673 311.539 306.68 312.841 306.013C314.143 305.329 315.689 304.987 317.479 304.987C318 304.987 318.521 305.02 319.042 305.085C319.579 305.15 320.1 305.248 320.604 305.378L320.36 309.064C320.019 308.983 319.628 308.926 319.188 308.894C318.765 308.861 318.342 308.845 317.919 308.845C316.959 308.845 316.129 309.04 315.429 309.431C314.745 309.805 314.224 310.358 313.866 311.091C313.508 311.823 313.329 312.727 313.329 313.801V343ZM318.944 316.584V320.051H304.638V316.584H318.944ZM347.436 316.584V320.051H333.153V316.584H347.436ZM337.987 310.163H342.504V336.457C342.504 337.352 342.642 338.028 342.919 338.483C343.196 338.939 343.554 339.24 343.993 339.387C344.433 339.533 344.905 339.606 345.409 339.606C345.784 339.606 346.174 339.574 346.581 339.509C347.004 339.427 347.322 339.362 347.533 339.313L347.558 343C347.2 343.114 346.728 343.22 346.142 343.317C345.572 343.431 344.88 343.488 344.066 343.488C342.96 343.488 341.942 343.269 341.015 342.829C340.087 342.39 339.346 341.657 338.793 340.632C338.256 339.59 337.987 338.19 337.987 336.433V310.163ZM357.25 305.5V343H352.733V305.5H357.25ZM356.176 328.791L354.296 328.718C354.312 326.911 354.581 325.243 355.102 323.713C355.622 322.167 356.355 320.824 357.299 319.685C358.243 318.545 359.366 317.666 360.668 317.048C361.986 316.413 363.443 316.096 365.038 316.096C366.34 316.096 367.512 316.275 368.554 316.633C369.595 316.975 370.482 317.528 371.215 318.293C371.964 319.058 372.533 320.051 372.924 321.271C373.314 322.476 373.51 323.949 373.51 325.69V343H368.969V325.642C368.969 324.258 368.765 323.151 368.358 322.321C367.951 321.475 367.357 320.865 366.576 320.49C365.795 320.1 364.835 319.904 363.695 319.904C362.572 319.904 361.547 320.14 360.619 320.612C359.708 321.084 358.918 321.735 358.251 322.565C357.6 323.396 357.087 324.348 356.713 325.422C356.355 326.48 356.176 327.603 356.176 328.791ZM391.234 343.488C389.395 343.488 387.727 343.179 386.229 342.561C384.748 341.926 383.471 341.039 382.396 339.899C381.339 338.76 380.525 337.409 379.955 335.847C379.385 334.284 379.101 332.575 379.101 330.72V329.694C379.101 327.546 379.418 325.633 380.053 323.957C380.688 322.264 381.55 320.832 382.641 319.66C383.731 318.488 384.968 317.601 386.352 316.999C387.735 316.397 389.167 316.096 390.648 316.096C392.536 316.096 394.164 316.421 395.531 317.072C396.915 317.723 398.046 318.635 398.925 319.807C399.804 320.962 400.455 322.329 400.878 323.908C401.301 325.471 401.513 327.18 401.513 329.035V331.062H381.786V327.375H396.996V327.033C396.931 325.861 396.687 324.722 396.264 323.615C395.857 322.508 395.206 321.597 394.311 320.881C393.415 320.165 392.195 319.807 390.648 319.807C389.623 319.807 388.679 320.026 387.816 320.466C386.954 320.889 386.213 321.524 385.595 322.37C384.976 323.216 384.496 324.25 384.154 325.471C383.812 326.691 383.642 328.099 383.642 329.694V330.72C383.642 331.973 383.812 333.153 384.154 334.26C384.512 335.35 385.025 336.311 385.692 337.141C386.376 337.971 387.198 338.622 388.158 339.094C389.135 339.566 390.242 339.802 391.479 339.802C393.074 339.802 394.424 339.476 395.531 338.825C396.638 338.174 397.606 337.303 398.437 336.213L401.171 338.386C400.601 339.248 399.877 340.07 398.998 340.852C398.119 341.633 397.037 342.268 395.751 342.756C394.481 343.244 392.976 343.488 391.234 343.488ZM440.209 307.453H444.896V331.501C444.896 334.17 444.302 336.392 443.114 338.166C441.926 339.94 440.347 341.275 438.378 342.17C436.425 343.049 434.301 343.488 432.006 343.488C429.597 343.488 427.416 343.049 425.463 342.17C423.526 341.275 421.988 339.94 420.849 338.166C419.726 336.392 419.164 334.17 419.164 331.501V307.453H423.827V331.501C423.827 333.356 424.169 334.886 424.853 336.091C425.536 337.295 426.488 338.19 427.709 338.776C428.946 339.362 430.378 339.655 432.006 339.655C433.65 339.655 435.082 339.362 436.303 338.776C437.54 338.19 438.5 337.295 439.184 336.091C439.867 334.886 440.209 333.356 440.209 331.501V307.453ZM471.239 334.016C471.239 333.186 471.109 332.453 470.849 331.818C470.604 331.167 470.165 330.581 469.53 330.061C468.912 329.54 468.049 329.043 466.942 328.571C465.852 328.099 464.468 327.619 462.792 327.131C461.034 326.61 459.447 326.032 458.031 325.397C456.615 324.746 455.403 324.006 454.394 323.176C453.384 322.346 452.611 321.394 452.074 320.319C451.537 319.245 451.269 318.016 451.269 316.633C451.269 315.249 451.553 313.972 452.123 312.8C452.693 311.628 453.507 310.611 454.564 309.748C455.639 308.869 456.916 308.186 458.397 307.697C459.879 307.209 461.531 306.965 463.354 306.965C466.023 306.965 468.285 307.478 470.141 308.503C472.012 309.512 473.437 310.839 474.413 312.482C475.39 314.11 475.878 315.852 475.878 317.707H471.19C471.19 316.372 470.906 315.192 470.336 314.167C469.766 313.125 468.904 312.312 467.748 311.726C466.592 311.123 465.128 310.822 463.354 310.822C461.677 310.822 460.294 311.075 459.203 311.579C458.113 312.084 457.299 312.767 456.762 313.63C456.241 314.493 455.98 315.477 455.98 316.584C455.98 317.333 456.135 318.016 456.444 318.635C456.77 319.237 457.266 319.799 457.934 320.319C458.617 320.84 459.48 321.32 460.521 321.76C461.579 322.199 462.841 322.622 464.306 323.029C466.324 323.599 468.065 324.234 469.53 324.934C470.995 325.633 472.2 326.423 473.144 327.302C474.104 328.164 474.812 329.149 475.268 330.256C475.74 331.346 475.976 332.583 475.976 333.967C475.976 335.415 475.683 336.726 475.097 337.897C474.511 339.069 473.673 340.07 472.582 340.9C471.492 341.73 470.181 342.373 468.651 342.829C467.138 343.269 465.445 343.488 463.573 343.488C461.929 343.488 460.31 343.26 458.715 342.805C457.136 342.349 455.696 341.665 454.394 340.754C453.108 339.842 452.074 338.719 451.293 337.385C450.528 336.034 450.146 334.471 450.146 332.697H454.833C454.833 333.918 455.069 334.968 455.541 335.847C456.013 336.709 456.656 337.425 457.47 337.995C458.3 338.565 459.236 338.988 460.277 339.265C461.335 339.525 462.434 339.655 463.573 339.655C465.217 339.655 466.609 339.427 467.748 338.972C468.887 338.516 469.75 337.865 470.336 337.019C470.938 336.172 471.239 335.171 471.239 334.016Z" fill="#606BA8"/>
<path d="M51 331.5H478" stroke="#D81010" stroke-width="12" stroke-linecap="round"/>
<path d="M1 30C1 13.4315 14.4315 0 31 0H487C503.569 0 517 13.4315 517 30V70H1V30Z" fill="#606BA8"/>
<path d="M68.2363 155.06H58.7393V151.227H68.2363C70.0755 151.227 71.5648 150.934 72.7041 150.348C73.8434 149.762 74.6735 148.948 75.1943 147.906C75.7314 146.865 76 145.676 76 144.342C76 143.121 75.7314 141.974 75.1943 140.899C74.6735 139.825 73.8434 138.963 72.7041 138.312C71.5648 137.644 70.0755 137.311 68.2363 137.311H59.8379V169H55.126V133.453H68.2363C70.9219 133.453 73.1924 133.917 75.0479 134.845C76.9033 135.772 78.3112 137.058 79.2715 138.702C80.2318 140.33 80.7119 142.193 80.7119 144.293C80.7119 146.572 80.2318 148.517 79.2715 150.128C78.3112 151.739 76.9033 152.968 75.0479 153.814C73.1924 154.645 70.9219 155.06 68.2363 155.06ZM90.502 131.5V169H85.9854V131.5H90.502ZM89.4277 154.791L87.5479 154.718C87.5641 152.911 87.8327 151.243 88.3535 149.713C88.8743 148.167 89.6068 146.824 90.5508 145.685C91.4948 144.545 92.6178 143.666 93.9199 143.048C95.2383 142.413 96.695 142.096 98.29 142.096C99.5921 142.096 100.764 142.275 101.806 142.633C102.847 142.975 103.734 143.528 104.467 144.293C105.215 145.058 105.785 146.051 106.176 147.271C106.566 148.476 106.762 149.949 106.762 151.69V169H102.221V151.642C102.221 150.258 102.017 149.151 101.61 148.321C101.203 147.475 100.609 146.865 99.8281 146.49C99.0469 146.1 98.0866 145.904 96.9473 145.904C95.8242 145.904 94.7988 146.14 93.8711 146.612C92.9596 147.084 92.1702 147.735 91.5029 148.565C90.8519 149.396 90.3392 150.348 89.9648 151.422C89.6068 152.48 89.4277 153.603 89.4277 154.791ZM129.101 164.483V150.885C129.101 149.843 128.889 148.94 128.466 148.175C128.059 147.394 127.44 146.791 126.61 146.368C125.78 145.945 124.755 145.733 123.534 145.733C122.395 145.733 121.394 145.929 120.531 146.319C119.685 146.71 119.018 147.223 118.529 147.857C118.057 148.492 117.821 149.176 117.821 149.908H113.305C113.305 148.964 113.549 148.028 114.037 147.101C114.525 146.173 115.225 145.335 116.137 144.586C117.064 143.821 118.171 143.219 119.457 142.779C120.759 142.324 122.208 142.096 123.803 142.096C125.723 142.096 127.416 142.421 128.881 143.072C130.362 143.723 131.518 144.708 132.348 146.026C133.194 147.328 133.617 148.964 133.617 150.934V163.238C133.617 164.117 133.69 165.053 133.837 166.046C134 167.039 134.236 167.893 134.545 168.609V169H129.833C129.605 168.479 129.426 167.787 129.296 166.925C129.166 166.046 129.101 165.232 129.101 164.483ZM129.882 152.984L129.931 156.158H125.365C124.079 156.158 122.932 156.264 121.923 156.476C120.914 156.671 120.067 156.972 119.384 157.379C118.7 157.786 118.179 158.299 117.821 158.917C117.463 159.519 117.284 160.227 117.284 161.041C117.284 161.871 117.471 162.628 117.846 163.312C118.22 163.995 118.782 164.54 119.53 164.947C120.295 165.338 121.231 165.533 122.338 165.533C123.721 165.533 124.942 165.24 126 164.654C127.058 164.068 127.896 163.352 128.515 162.506C129.149 161.66 129.491 160.838 129.54 160.04L131.469 162.213C131.355 162.896 131.046 163.653 130.541 164.483C130.036 165.313 129.361 166.111 128.515 166.876C127.685 167.625 126.692 168.251 125.536 168.756C124.397 169.244 123.111 169.488 121.679 169.488C119.888 169.488 118.318 169.138 116.967 168.438C115.632 167.739 114.59 166.803 113.842 165.631C113.109 164.443 112.743 163.116 112.743 161.651C112.743 160.235 113.02 158.99 113.573 157.916C114.127 156.826 114.924 155.922 115.966 155.206C117.007 154.474 118.261 153.92 119.726 153.546C121.19 153.172 122.826 152.984 124.633 152.984H129.882ZM145.238 146.734V169H140.722V142.584H145.116L145.238 146.734ZM153.49 142.438L153.466 146.637C153.091 146.555 152.733 146.507 152.392 146.49C152.066 146.458 151.692 146.441 151.269 146.441C150.227 146.441 149.307 146.604 148.51 146.93C147.712 147.255 147.037 147.711 146.483 148.297C145.93 148.883 145.491 149.583 145.165 150.396C144.856 151.194 144.652 152.073 144.555 153.033L143.285 153.766C143.285 152.171 143.44 150.673 143.749 149.273C144.075 147.874 144.571 146.637 145.238 145.562C145.906 144.472 146.752 143.626 147.777 143.023C148.819 142.405 150.056 142.096 151.488 142.096C151.814 142.096 152.188 142.136 152.611 142.218C153.035 142.283 153.327 142.356 153.49 142.438ZM162.157 147.833V169H157.616V142.584H161.913L162.157 147.833ZM161.229 154.791L159.13 154.718C159.146 152.911 159.382 151.243 159.838 149.713C160.294 148.167 160.969 146.824 161.864 145.685C162.759 144.545 163.874 143.666 165.209 143.048C166.544 142.413 168.09 142.096 169.848 142.096C171.085 142.096 172.224 142.275 173.266 142.633C174.307 142.975 175.211 143.52 175.976 144.269C176.741 145.017 177.335 145.978 177.758 147.149C178.181 148.321 178.393 149.737 178.393 151.397V169H173.876V151.617C173.876 150.234 173.64 149.127 173.168 148.297C172.712 147.467 172.061 146.865 171.215 146.49C170.368 146.1 169.376 145.904 168.236 145.904C166.902 145.904 165.787 146.14 164.892 146.612C163.996 147.084 163.28 147.735 162.743 148.565C162.206 149.396 161.815 150.348 161.571 151.422C161.343 152.48 161.229 153.603 161.229 154.791ZM178.344 152.301L175.316 153.229C175.333 151.78 175.569 150.388 176.024 149.054C176.496 147.719 177.172 146.531 178.051 145.489C178.946 144.448 180.045 143.626 181.347 143.023C182.649 142.405 184.138 142.096 185.814 142.096C187.23 142.096 188.484 142.283 189.574 142.657C190.681 143.032 191.609 143.609 192.357 144.391C193.122 145.156 193.7 146.14 194.091 147.345C194.481 148.549 194.677 149.981 194.677 151.642V169H190.136V151.593C190.136 150.112 189.9 148.964 189.428 148.15C188.972 147.32 188.321 146.743 187.475 146.417C186.645 146.075 185.652 145.904 184.496 145.904C183.503 145.904 182.624 146.075 181.859 146.417C181.094 146.759 180.451 147.231 179.931 147.833C179.41 148.419 179.011 149.094 178.734 149.859C178.474 150.624 178.344 151.438 178.344 152.301ZM217.089 164.483V150.885C217.089 149.843 216.877 148.94 216.454 148.175C216.047 147.394 215.429 146.791 214.599 146.368C213.769 145.945 212.743 145.733 211.522 145.733C210.383 145.733 209.382 145.929 208.52 146.319C207.673 146.71 207.006 147.223 206.518 147.857C206.046 148.492 205.81 149.176 205.81 149.908H201.293C201.293 148.964 201.537 148.028 202.025 147.101C202.514 146.173 203.214 145.335 204.125 144.586C205.053 143.821 206.16 143.219 207.445 142.779C208.747 142.324 210.196 142.096 211.791 142.096C213.712 142.096 215.404 142.421 216.869 143.072C218.35 143.723 219.506 144.708 220.336 146.026C221.182 147.328 221.605 148.964 221.605 150.934V163.238C221.605 164.117 221.679 165.053 221.825 166.046C221.988 167.039 222.224 167.893 222.533 168.609V169H217.821C217.593 168.479 217.414 167.787 217.284 166.925C217.154 166.046 217.089 165.232 217.089 164.483ZM217.87 152.984L217.919 156.158H213.354C212.068 156.158 210.92 156.264 209.911 156.476C208.902 156.671 208.056 156.972 207.372 157.379C206.688 157.786 206.168 158.299 205.81 158.917C205.451 159.519 205.272 160.227 205.272 161.041C205.272 161.871 205.46 162.628 205.834 163.312C206.208 163.995 206.77 164.54 207.519 164.947C208.284 165.338 209.219 165.533 210.326 165.533C211.71 165.533 212.93 165.24 213.988 164.654C215.046 164.068 215.884 163.352 216.503 162.506C217.138 161.66 217.479 160.838 217.528 160.04L219.457 162.213C219.343 162.896 219.034 163.653 218.529 164.483C218.025 165.313 217.349 166.111 216.503 166.876C215.673 167.625 214.68 168.251 213.524 168.756C212.385 169.244 211.099 169.488 209.667 169.488C207.877 169.488 206.306 169.138 204.955 168.438C203.62 167.739 202.579 166.803 201.83 165.631C201.098 164.443 200.731 163.116 200.731 161.651C200.731 160.235 201.008 158.99 201.562 157.916C202.115 156.826 202.912 155.922 203.954 155.206C204.996 154.474 206.249 153.92 207.714 153.546C209.179 153.172 210.814 152.984 212.621 152.984H217.87ZM239.281 165.777C240.355 165.777 241.348 165.558 242.26 165.118C243.171 164.679 243.92 164.076 244.506 163.312C245.092 162.53 245.425 161.643 245.507 160.65H249.804C249.722 162.213 249.193 163.67 248.217 165.021C247.257 166.355 245.995 167.438 244.433 168.268C242.87 169.081 241.153 169.488 239.281 169.488C237.296 169.488 235.562 169.138 234.081 168.438C232.616 167.739 231.396 166.778 230.419 165.558C229.459 164.337 228.734 162.937 228.246 161.358C227.774 159.763 227.538 158.079 227.538 156.305V155.279C227.538 153.505 227.774 151.829 228.246 150.25C228.734 148.655 229.459 147.247 230.419 146.026C231.396 144.806 232.616 143.845 234.081 143.146C235.562 142.446 237.296 142.096 239.281 142.096C241.348 142.096 243.155 142.519 244.701 143.365C246.247 144.195 247.46 145.335 248.339 146.783C249.234 148.215 249.722 149.843 249.804 151.666H245.507C245.425 150.576 245.116 149.591 244.579 148.712C244.058 147.833 243.342 147.133 242.431 146.612C241.535 146.075 240.486 145.807 239.281 145.807C237.898 145.807 236.734 146.083 235.79 146.637C234.862 147.174 234.122 147.906 233.568 148.834C233.031 149.745 232.641 150.763 232.396 151.886C232.169 152.993 232.055 154.124 232.055 155.279V156.305C232.055 157.46 232.169 158.6 232.396 159.723C232.624 160.846 233.007 161.863 233.544 162.774C234.097 163.686 234.838 164.418 235.766 164.972C236.71 165.509 237.882 165.777 239.281 165.777ZM259.789 142.584V169H255.248V142.584H259.789ZM254.906 135.577C254.906 134.845 255.126 134.226 255.565 133.722C256.021 133.217 256.688 132.965 257.567 132.965C258.43 132.965 259.089 133.217 259.545 133.722C260.017 134.226 260.253 134.845 260.253 135.577C260.253 136.277 260.017 136.879 259.545 137.384C259.089 137.872 258.43 138.116 257.567 138.116C256.688 138.116 256.021 137.872 255.565 137.384C255.126 136.879 254.906 136.277 254.906 135.577ZM282.421 161.993C282.421 161.342 282.274 160.74 281.981 160.187C281.705 159.617 281.127 159.104 280.248 158.648C279.385 158.176 278.083 157.77 276.342 157.428C274.877 157.118 273.55 156.752 272.362 156.329C271.19 155.906 270.189 155.393 269.359 154.791C268.546 154.189 267.919 153.481 267.479 152.667C267.04 151.853 266.82 150.901 266.82 149.811C266.82 148.769 267.048 147.784 267.504 146.856C267.976 145.929 268.635 145.107 269.481 144.391C270.344 143.674 271.378 143.113 272.582 142.706C273.786 142.299 275.129 142.096 276.61 142.096C278.726 142.096 280.533 142.47 282.03 143.219C283.528 143.967 284.675 144.968 285.473 146.222C286.27 147.459 286.669 148.834 286.669 150.348H282.152C282.152 149.615 281.933 148.907 281.493 148.224C281.07 147.524 280.443 146.946 279.613 146.49C278.799 146.035 277.799 145.807 276.61 145.807C275.357 145.807 274.34 146.002 273.559 146.393C272.794 146.767 272.232 147.247 271.874 147.833C271.532 148.419 271.361 149.037 271.361 149.688C271.361 150.177 271.443 150.616 271.605 151.007C271.785 151.381 272.094 151.731 272.533 152.057C272.973 152.366 273.591 152.659 274.389 152.936C275.186 153.212 276.203 153.489 277.44 153.766C279.605 154.254 281.387 154.84 282.787 155.523C284.187 156.207 285.229 157.045 285.912 158.038C286.596 159.031 286.938 160.235 286.938 161.651C286.938 162.807 286.693 163.865 286.205 164.825C285.733 165.785 285.041 166.616 284.13 167.315C283.235 167.999 282.16 168.536 280.907 168.927C279.67 169.301 278.279 169.488 276.732 169.488C274.405 169.488 272.436 169.073 270.824 168.243C269.213 167.413 267.992 166.339 267.162 165.021C266.332 163.702 265.917 162.311 265.917 160.846H270.458C270.523 162.083 270.881 163.067 271.532 163.8C272.183 164.516 272.981 165.029 273.925 165.338C274.869 165.631 275.805 165.777 276.732 165.777C277.969 165.777 279.003 165.615 279.833 165.289C280.679 164.964 281.322 164.516 281.762 163.946C282.201 163.377 282.421 162.726 282.421 161.993ZM303.93 142.584V146.051H289.647V142.584H303.93ZM294.481 136.163H298.998V162.457C298.998 163.352 299.136 164.028 299.413 164.483C299.69 164.939 300.048 165.24 300.487 165.387C300.927 165.533 301.399 165.606 301.903 165.606C302.278 165.606 302.668 165.574 303.075 165.509C303.498 165.427 303.816 165.362 304.027 165.313L304.052 169C303.694 169.114 303.222 169.22 302.636 169.317C302.066 169.431 301.374 169.488 300.561 169.488C299.454 169.488 298.437 169.269 297.509 168.829C296.581 168.39 295.84 167.657 295.287 166.632C294.75 165.59 294.481 164.19 294.481 162.433V136.163Z" fill="#606BA8"/>
<path d="M78.3438 235.736V239.569H59.1055V235.736H78.3438ZM59.8379 220.453V256H55.126V220.453H59.8379ZM82.4453 220.453V256H77.7578V220.453H82.4453ZM105.712 251.483V237.885C105.712 236.843 105.5 235.94 105.077 235.175C104.67 234.394 104.052 233.791 103.222 233.368C102.392 232.945 101.366 232.733 100.146 232.733C99.0062 232.733 98.0052 232.929 97.1426 233.319C96.2962 233.71 95.6289 234.223 95.1406 234.857C94.6686 235.492 94.4326 236.176 94.4326 236.908H89.916C89.916 235.964 90.1602 235.028 90.6484 234.101C91.1367 233.173 91.8366 232.335 92.748 231.586C93.6758 230.821 94.7826 230.219 96.0684 229.779C97.3704 229.324 98.819 229.096 100.414 229.096C102.335 229.096 104.027 229.421 105.492 230.072C106.973 230.723 108.129 231.708 108.959 233.026C109.805 234.328 110.229 235.964 110.229 237.934V250.238C110.229 251.117 110.302 252.053 110.448 253.046C110.611 254.039 110.847 254.893 111.156 255.609V256H106.444C106.216 255.479 106.037 254.787 105.907 253.925C105.777 253.046 105.712 252.232 105.712 251.483ZM106.493 239.984L106.542 243.158H101.977C100.691 243.158 99.5433 243.264 98.5342 243.476C97.5251 243.671 96.6787 243.972 95.9951 244.379C95.3115 244.786 94.7907 245.299 94.4326 245.917C94.0745 246.519 93.8955 247.227 93.8955 248.041C93.8955 248.871 94.0827 249.628 94.457 250.312C94.8314 250.995 95.3929 251.54 96.1416 251.947C96.9066 252.338 97.8424 252.533 98.9492 252.533C100.333 252.533 101.553 252.24 102.611 251.654C103.669 251.068 104.507 250.352 105.126 249.506C105.761 248.66 106.103 247.838 106.151 247.04L108.08 249.213C107.966 249.896 107.657 250.653 107.152 251.483C106.648 252.313 105.972 253.111 105.126 253.876C104.296 254.625 103.303 255.251 102.147 255.756C101.008 256.244 99.7223 256.488 98.29 256.488C96.4997 256.488 94.929 256.138 93.5781 255.438C92.2435 254.739 91.2018 253.803 90.4531 252.631C89.7207 251.443 89.3545 250.116 89.3545 248.651C89.3545 247.235 89.6312 245.99 90.1846 244.916C90.738 243.826 91.5355 242.922 92.5771 242.206C93.6188 241.474 94.8721 240.92 96.3369 240.546C97.8018 240.172 99.4375 239.984 101.244 239.984H106.493ZM122.24 229.584V256H117.699V229.584H122.24ZM117.357 222.577C117.357 221.845 117.577 221.226 118.017 220.722C118.472 220.217 119.14 219.965 120.019 219.965C120.881 219.965 121.54 220.217 121.996 220.722C122.468 221.226 122.704 221.845 122.704 222.577C122.704 223.277 122.468 223.879 121.996 224.384C121.54 224.872 120.881 225.116 120.019 225.116C119.14 225.116 118.472 224.872 118.017 224.384C117.577 223.879 117.357 223.277 117.357 222.577ZM134.008 233.734V256H129.491V229.584H133.886L134.008 233.734ZM142.26 229.438L142.235 233.637C141.861 233.555 141.503 233.507 141.161 233.49C140.836 233.458 140.461 233.441 140.038 233.441C138.996 233.441 138.077 233.604 137.279 233.93C136.482 234.255 135.806 234.711 135.253 235.297C134.7 235.883 134.26 236.583 133.935 237.396C133.625 238.194 133.422 239.073 133.324 240.033L132.055 240.766C132.055 239.171 132.209 237.673 132.519 236.273C132.844 234.874 133.34 233.637 134.008 232.562C134.675 231.472 135.521 230.626 136.547 230.023C137.589 229.405 138.826 229.096 140.258 229.096C140.583 229.096 140.958 229.136 141.381 229.218C141.804 229.283 142.097 229.356 142.26 229.438ZM162.597 250.873V218.5H167.138V256H162.987L162.597 250.873ZM144.823 243.085V242.572C144.823 240.554 145.067 238.723 145.556 237.079C146.06 235.419 146.768 233.995 147.68 232.807C148.607 231.618 149.706 230.707 150.976 230.072C152.261 229.421 153.694 229.096 155.272 229.096C156.933 229.096 158.381 229.389 159.618 229.975C160.871 230.544 161.929 231.382 162.792 232.489C163.671 233.58 164.363 234.898 164.867 236.444C165.372 237.991 165.722 239.74 165.917 241.693V243.939C165.738 245.876 165.388 247.618 164.867 249.164C164.363 250.71 163.671 252.029 162.792 253.119C161.929 254.21 160.871 255.048 159.618 255.634C158.365 256.203 156.9 256.488 155.224 256.488C153.677 256.488 152.261 256.155 150.976 255.487C149.706 254.82 148.607 253.884 147.68 252.68C146.768 251.475 146.06 250.059 145.556 248.432C145.067 246.788 144.823 245.006 144.823 243.085ZM149.364 242.572V243.085C149.364 244.403 149.494 245.64 149.755 246.796C150.032 247.951 150.455 248.969 151.024 249.848C151.594 250.727 152.318 251.418 153.197 251.923C154.076 252.411 155.126 252.655 156.347 252.655C157.844 252.655 159.073 252.338 160.033 251.703C161.01 251.068 161.791 250.23 162.377 249.188C162.963 248.147 163.419 247.016 163.744 245.795V239.911C163.549 239.016 163.264 238.153 162.89 237.323C162.532 236.477 162.06 235.728 161.474 235.077C160.904 234.41 160.196 233.881 159.35 233.49C158.52 233.1 157.535 232.904 156.396 232.904C155.159 232.904 154.092 233.165 153.197 233.686C152.318 234.19 151.594 234.89 151.024 235.785C150.455 236.664 150.032 237.689 149.755 238.861C149.494 240.017 149.364 241.254 149.364 242.572ZM178.686 233.734V256H174.169V229.584H178.563L178.686 233.734ZM186.938 229.438L186.913 233.637C186.539 233.555 186.181 233.507 185.839 233.49C185.513 233.458 185.139 233.441 184.716 233.441C183.674 233.441 182.755 233.604 181.957 233.93C181.16 234.255 180.484 234.711 179.931 235.297C179.377 235.883 178.938 236.583 178.612 237.396C178.303 238.194 178.1 239.073 178.002 240.033L176.732 240.766C176.732 239.171 176.887 237.673 177.196 236.273C177.522 234.874 178.018 233.637 178.686 232.562C179.353 231.472 180.199 230.626 181.225 230.023C182.266 229.405 183.503 229.096 184.936 229.096C185.261 229.096 185.635 229.136 186.059 229.218C186.482 229.283 186.775 229.356 186.938 229.438ZM201.586 256.488C199.747 256.488 198.078 256.179 196.581 255.561C195.1 254.926 193.822 254.039 192.748 252.899C191.69 251.76 190.876 250.409 190.307 248.847C189.737 247.284 189.452 245.575 189.452 243.72V242.694C189.452 240.546 189.77 238.633 190.404 236.957C191.039 235.264 191.902 233.832 192.992 232.66C194.083 231.488 195.32 230.601 196.703 229.999C198.087 229.397 199.519 229.096 201 229.096C202.888 229.096 204.516 229.421 205.883 230.072C207.266 230.723 208.397 231.635 209.276 232.807C210.155 233.962 210.806 235.329 211.229 236.908C211.653 238.471 211.864 240.18 211.864 242.035V244.062H192.138V240.375H207.348V240.033C207.283 238.861 207.038 237.722 206.615 236.615C206.208 235.508 205.557 234.597 204.662 233.881C203.767 233.165 202.546 232.807 201 232.807C199.975 232.807 199.031 233.026 198.168 233.466C197.305 233.889 196.565 234.524 195.946 235.37C195.328 236.216 194.848 237.25 194.506 238.471C194.164 239.691 193.993 241.099 193.993 242.694V243.72C193.993 244.973 194.164 246.153 194.506 247.26C194.864 248.35 195.377 249.311 196.044 250.141C196.728 250.971 197.549 251.622 198.51 252.094C199.486 252.566 200.593 252.802 201.83 252.802C203.425 252.802 204.776 252.476 205.883 251.825C206.99 251.174 207.958 250.303 208.788 249.213L211.522 251.386C210.953 252.248 210.229 253.07 209.35 253.852C208.471 254.633 207.388 255.268 206.103 255.756C204.833 256.244 203.327 256.488 201.586 256.488ZM232.519 248.993C232.519 248.342 232.372 247.74 232.079 247.187C231.802 246.617 231.225 246.104 230.346 245.648C229.483 245.176 228.181 244.77 226.439 244.428C224.975 244.118 223.648 243.752 222.46 243.329C221.288 242.906 220.287 242.393 219.457 241.791C218.643 241.189 218.017 240.481 217.577 239.667C217.138 238.853 216.918 237.901 216.918 236.811C216.918 235.769 217.146 234.784 217.602 233.856C218.074 232.929 218.733 232.107 219.579 231.391C220.442 230.674 221.475 230.113 222.68 229.706C223.884 229.299 225.227 229.096 226.708 229.096C228.824 229.096 230.631 229.47 232.128 230.219C233.625 230.967 234.773 231.968 235.57 233.222C236.368 234.459 236.767 235.834 236.767 237.348H232.25C232.25 236.615 232.03 235.907 231.591 235.224C231.168 234.524 230.541 233.946 229.711 233.49C228.897 233.035 227.896 232.807 226.708 232.807C225.455 232.807 224.438 233.002 223.656 233.393C222.891 233.767 222.33 234.247 221.972 234.833C221.63 235.419 221.459 236.037 221.459 236.688C221.459 237.177 221.54 237.616 221.703 238.007C221.882 238.381 222.191 238.731 222.631 239.057C223.07 239.366 223.689 239.659 224.486 239.936C225.284 240.212 226.301 240.489 227.538 240.766C229.703 241.254 231.485 241.84 232.885 242.523C234.285 243.207 235.326 244.045 236.01 245.038C236.693 246.031 237.035 247.235 237.035 248.651C237.035 249.807 236.791 250.865 236.303 251.825C235.831 252.785 235.139 253.616 234.228 254.315C233.332 254.999 232.258 255.536 231.005 255.927C229.768 256.301 228.376 256.488 226.83 256.488C224.503 256.488 222.533 256.073 220.922 255.243C219.311 254.413 218.09 253.339 217.26 252.021C216.43 250.702 216.015 249.311 216.015 247.846H220.556C220.621 249.083 220.979 250.067 221.63 250.8C222.281 251.516 223.078 252.029 224.022 252.338C224.966 252.631 225.902 252.777 226.83 252.777C228.067 252.777 229.101 252.615 229.931 252.289C230.777 251.964 231.42 251.516 231.859 250.946C232.299 250.377 232.519 249.726 232.519 248.993ZM258.349 248.993C258.349 248.342 258.202 247.74 257.909 247.187C257.632 246.617 257.055 246.104 256.176 245.648C255.313 245.176 254.011 244.77 252.27 244.428C250.805 244.118 249.478 243.752 248.29 243.329C247.118 242.906 246.117 242.393 245.287 241.791C244.473 241.189 243.847 240.481 243.407 239.667C242.968 238.853 242.748 237.901 242.748 236.811C242.748 235.769 242.976 234.784 243.432 233.856C243.904 232.929 244.563 232.107 245.409 231.391C246.272 230.674 247.305 230.113 248.51 229.706C249.714 229.299 251.057 229.096 252.538 229.096C254.654 229.096 256.461 229.47 257.958 230.219C259.455 230.967 260.603 231.968 261.4 233.222C262.198 234.459 262.597 235.834 262.597 237.348H258.08C258.08 236.615 257.86 235.907 257.421 235.224C256.998 234.524 256.371 233.946 255.541 233.49C254.727 233.035 253.726 232.807 252.538 232.807C251.285 232.807 250.268 233.002 249.486 233.393C248.721 233.767 248.16 234.247 247.802 234.833C247.46 235.419 247.289 236.037 247.289 236.688C247.289 237.177 247.37 237.616 247.533 238.007C247.712 238.381 248.021 238.731 248.461 239.057C248.9 239.366 249.519 239.659 250.316 239.936C251.114 240.212 252.131 240.489 253.368 240.766C255.533 241.254 257.315 241.84 258.715 242.523C260.115 243.207 261.156 244.045 261.84 245.038C262.523 246.031 262.865 247.235 262.865 248.651C262.865 249.807 262.621 250.865 262.133 251.825C261.661 252.785 260.969 253.616 260.058 254.315C259.162 254.999 258.088 255.536 256.835 255.927C255.598 256.301 254.206 256.488 252.66 256.488C250.333 256.488 248.363 256.073 246.752 255.243C245.141 254.413 243.92 253.339 243.09 252.021C242.26 250.702 241.845 249.311 241.845 247.846H246.386C246.451 249.083 246.809 250.067 247.46 250.8C248.111 251.516 248.909 252.029 249.853 252.338C250.797 252.631 251.732 252.777 252.66 252.777C253.897 252.777 254.931 252.615 255.761 252.289C256.607 251.964 257.25 251.516 257.689 250.946C258.129 250.377 258.349 249.726 258.349 248.993ZM279.76 256.488C277.921 256.488 276.252 256.179 274.755 255.561C273.274 254.926 271.996 254.039 270.922 252.899C269.864 251.76 269.05 250.409 268.48 248.847C267.911 247.284 267.626 245.575 267.626 243.72V242.694C267.626 240.546 267.943 238.633 268.578 236.957C269.213 235.264 270.076 233.832 271.166 232.66C272.257 231.488 273.493 230.601 274.877 229.999C276.26 229.397 277.693 229.096 279.174 229.096C281.062 229.096 282.689 229.421 284.057 230.072C285.44 230.723 286.571 231.635 287.45 232.807C288.329 233.962 288.98 235.329 289.403 236.908C289.826 238.471 290.038 240.18 290.038 242.035V244.062H270.312V240.375H285.521V240.033C285.456 238.861 285.212 237.722 284.789 236.615C284.382 235.508 283.731 234.597 282.836 233.881C281.941 233.165 280.72 232.807 279.174 232.807C278.148 232.807 277.204 233.026 276.342 233.466C275.479 233.889 274.739 234.524 274.12 235.37C273.502 236.216 273.021 237.25 272.68 238.471C272.338 239.691 272.167 241.099 272.167 242.694V243.72C272.167 244.973 272.338 246.153 272.68 247.26C273.038 248.35 273.55 249.311 274.218 250.141C274.901 250.971 275.723 251.622 276.684 252.094C277.66 252.566 278.767 252.802 280.004 252.802C281.599 252.802 282.95 252.476 284.057 251.825C285.163 251.174 286.132 250.303 286.962 249.213L289.696 251.386C289.127 252.248 288.402 253.07 287.523 253.852C286.645 254.633 285.562 255.268 284.276 255.756C283.007 256.244 281.501 256.488 279.76 256.488ZM299.828 233.734V256H295.312V229.584H299.706L299.828 233.734ZM308.08 229.438L308.056 233.637C307.681 233.555 307.323 233.507 306.981 233.49C306.656 233.458 306.282 233.441 305.858 233.441C304.817 233.441 303.897 233.604 303.1 233.93C302.302 234.255 301.627 234.711 301.073 235.297C300.52 235.883 300.08 236.583 299.755 237.396C299.446 238.194 299.242 239.073 299.145 240.033L297.875 240.766C297.875 239.171 298.03 237.673 298.339 236.273C298.664 234.874 299.161 233.637 299.828 232.562C300.495 231.472 301.342 230.626 302.367 230.023C303.409 229.405 304.646 229.096 306.078 229.096C306.404 229.096 306.778 229.136 307.201 229.218C307.624 229.283 307.917 229.356 308.08 229.438Z" fill="#606BA8"/>
<path d="M74.0713 421.016C74.0713 420.186 73.9411 419.453 73.6807 418.818C73.4365 418.167 72.9971 417.581 72.3623 417.061C71.7438 416.54 70.8812 416.043 69.7744 415.571C68.6839 415.099 67.3005 414.619 65.624 414.131C63.8662 413.61 62.2793 413.032 60.8633 412.397C59.4473 411.746 58.2347 411.006 57.2256 410.176C56.2165 409.346 55.4434 408.394 54.9062 407.319C54.3691 406.245 54.1006 405.016 54.1006 403.633C54.1006 402.249 54.3854 400.972 54.9551 399.8C55.5247 398.628 56.3385 397.611 57.3965 396.748C58.4707 395.869 59.7484 395.186 61.2295 394.697C62.7106 394.209 64.3626 393.965 66.1855 393.965C68.8548 393.965 71.1172 394.478 72.9727 395.503C74.8444 396.512 76.2686 397.839 77.2451 399.482C78.2217 401.11 78.71 402.852 78.71 404.707H74.0225C74.0225 403.372 73.7376 402.192 73.168 401.167C72.5983 400.125 71.7357 399.312 70.5801 398.726C69.4245 398.123 67.9596 397.822 66.1855 397.822C64.5091 397.822 63.1257 398.075 62.0352 398.579C60.9447 399.084 60.1309 399.767 59.5938 400.63C59.0729 401.493 58.8125 402.477 58.8125 403.584C58.8125 404.333 58.9671 405.016 59.2764 405.635C59.6019 406.237 60.0983 406.799 60.7656 407.319C61.4492 407.84 62.3118 408.32 63.3535 408.76C64.4115 409.199 65.6729 409.622 67.1377 410.029C69.1559 410.599 70.8975 411.234 72.3623 411.934C73.8271 412.633 75.0316 413.423 75.9756 414.302C76.9359 415.164 77.6439 416.149 78.0996 417.256C78.5716 418.346 78.8076 419.583 78.8076 420.967C78.8076 422.415 78.5146 423.726 77.9287 424.897C77.3428 426.069 76.5046 427.07 75.4141 427.9C74.3236 428.73 73.0133 429.373 71.4834 429.829C69.9697 430.269 68.277 430.488 66.4053 430.488C64.7614 430.488 63.1419 430.26 61.5469 429.805C59.9681 429.349 58.5277 428.665 57.2256 427.754C55.9398 426.842 54.9062 425.719 54.125 424.385C53.36 423.034 52.9775 421.471 52.9775 419.697H57.665C57.665 420.918 57.901 421.968 58.373 422.847C58.8451 423.709 59.488 424.425 60.3018 424.995C61.1318 425.565 62.0677 425.988 63.1094 426.265C64.1673 426.525 65.266 426.655 66.4053 426.655C68.0492 426.655 69.4408 426.427 70.5801 425.972C71.7194 425.516 72.582 424.865 73.168 424.019C73.7702 423.172 74.0713 422.171 74.0713 421.016ZM88.6465 407.734V430H84.1299V403.584H88.5244L88.6465 407.734ZM96.8984 403.438L96.874 407.637C96.4997 407.555 96.1416 407.507 95.7998 407.49C95.4743 407.458 95.0999 407.441 94.6768 407.441C93.6351 407.441 92.7155 407.604 91.918 407.93C91.1204 408.255 90.445 408.711 89.8916 409.297C89.3382 409.883 88.8988 410.583 88.5732 411.396C88.264 412.194 88.0605 413.073 87.9629 414.033L86.6934 414.766C86.6934 413.171 86.848 411.673 87.1572 410.273C87.4827 408.874 87.9792 407.637 88.6465 406.562C89.3138 405.472 90.1602 404.626 91.1855 404.023C92.2272 403.405 93.4642 403.096 94.8965 403.096C95.222 403.096 95.5964 403.136 96.0195 403.218C96.4427 403.283 96.7357 403.356 96.8984 403.438ZM98.1191 427.607C98.1191 426.842 98.3551 426.2 98.8271 425.679C99.3154 425.142 100.015 424.873 100.927 424.873C101.838 424.873 102.53 425.142 103.002 425.679C103.49 426.2 103.734 426.842 103.734 427.607C103.734 428.356 103.49 428.991 103.002 429.512C102.53 430.033 101.838 430.293 100.927 430.293C100.015 430.293 99.3154 430.033 98.8271 429.512C98.3551 428.991 98.1191 428.356 98.1191 427.607ZM146.898 426.167V430H128.075V426.167H146.898ZM129.027 394.453V430H124.315V394.453H129.027ZM144.408 409.736V413.569H128.075V409.736H144.408ZM146.654 394.453V398.311H128.075V394.453H146.654ZM156.566 409.224V430H152.05V403.584H156.322L156.566 409.224ZM155.492 415.791L153.612 415.718C153.629 413.911 153.897 412.243 154.418 410.713C154.939 409.167 155.671 407.824 156.615 406.685C157.559 405.545 158.682 404.666 159.984 404.048C161.303 403.413 162.759 403.096 164.354 403.096C165.657 403.096 166.828 403.275 167.87 403.633C168.912 403.975 169.799 404.528 170.531 405.293C171.28 406.058 171.85 407.051 172.24 408.271C172.631 409.476 172.826 410.949 172.826 412.69V430H168.285V412.642C168.285 411.258 168.082 410.151 167.675 409.321C167.268 408.475 166.674 407.865 165.893 407.49C165.111 407.1 164.151 406.904 163.012 406.904C161.889 406.904 160.863 407.14 159.936 407.612C159.024 408.084 158.235 408.735 157.567 409.565C156.916 410.396 156.404 411.348 156.029 412.422C155.671 413.48 155.492 414.603 155.492 415.791ZM196.801 403.584H200.902V429.438C200.902 431.766 200.43 433.752 199.486 435.396C198.542 437.039 197.224 438.285 195.531 439.131C193.855 439.993 191.918 440.425 189.721 440.425C188.809 440.425 187.735 440.278 186.498 439.985C185.277 439.709 184.073 439.229 182.885 438.545C181.713 437.878 180.728 436.974 179.931 435.835L182.299 433.149C183.406 434.484 184.561 435.412 185.766 435.933C186.986 436.453 188.191 436.714 189.379 436.714C190.811 436.714 192.048 436.445 193.09 435.908C194.132 435.371 194.937 434.574 195.507 433.516C196.093 432.474 196.386 431.188 196.386 429.658V409.395L196.801 403.584ZM178.612 417.085V416.572C178.612 414.554 178.848 412.723 179.32 411.079C179.809 409.419 180.5 407.995 181.396 406.807C182.307 405.618 183.406 404.707 184.691 404.072C185.977 403.421 187.426 403.096 189.037 403.096C190.697 403.096 192.146 403.389 193.383 403.975C194.636 404.544 195.694 405.382 196.557 406.489C197.436 407.58 198.127 408.898 198.632 410.444C199.136 411.991 199.486 413.74 199.682 415.693V417.939C199.503 419.876 199.153 421.618 198.632 423.164C198.127 424.71 197.436 426.029 196.557 427.119C195.694 428.21 194.636 429.048 193.383 429.634C192.13 430.203 190.665 430.488 188.988 430.488C187.41 430.488 185.977 430.155 184.691 429.487C183.422 428.82 182.331 427.884 181.42 426.68C180.508 425.475 179.809 424.059 179.32 422.432C178.848 420.788 178.612 419.006 178.612 417.085ZM183.129 416.572V417.085C183.129 418.403 183.259 419.64 183.52 420.796C183.796 421.951 184.211 422.969 184.765 423.848C185.334 424.727 186.059 425.418 186.938 425.923C187.816 426.411 188.866 426.655 190.087 426.655C191.584 426.655 192.821 426.338 193.798 425.703C194.774 425.068 195.548 424.23 196.117 423.188C196.703 422.147 197.159 421.016 197.484 419.795V413.911C197.305 413.016 197.029 412.153 196.654 411.323C196.296 410.477 195.824 409.728 195.238 409.077C194.669 408.41 193.961 407.881 193.114 407.49C192.268 407.1 191.275 406.904 190.136 406.904C188.899 406.904 187.833 407.165 186.938 407.686C186.059 408.19 185.334 408.89 184.765 409.785C184.211 410.664 183.796 411.689 183.52 412.861C183.259 414.017 183.129 415.254 183.129 416.572ZM212.67 403.584V430H208.129V403.584H212.67ZM207.787 396.577C207.787 395.845 208.007 395.226 208.446 394.722C208.902 394.217 209.569 393.965 210.448 393.965C211.311 393.965 211.97 394.217 212.426 394.722C212.898 395.226 213.134 395.845 213.134 396.577C213.134 397.277 212.898 397.879 212.426 398.384C211.97 398.872 211.311 399.116 210.448 399.116C209.569 399.116 208.902 398.872 208.446 398.384C208.007 397.879 207.787 397.277 207.787 396.577ZM224.438 409.224V430H219.921V403.584H224.193L224.438 409.224ZM223.363 415.791L221.483 415.718C221.5 413.911 221.768 412.243 222.289 410.713C222.81 409.167 223.542 407.824 224.486 406.685C225.43 405.545 226.553 404.666 227.855 404.048C229.174 403.413 230.631 403.096 232.226 403.096C233.528 403.096 234.7 403.275 235.741 403.633C236.783 403.975 237.67 404.528 238.402 405.293C239.151 406.058 239.721 407.051 240.111 408.271C240.502 409.476 240.697 410.949 240.697 412.69V430H236.156V412.642C236.156 411.258 235.953 410.151 235.546 409.321C235.139 408.475 234.545 407.865 233.764 407.49C232.982 407.1 232.022 406.904 230.883 406.904C229.76 406.904 228.734 407.14 227.807 407.612C226.895 408.084 226.106 408.735 225.438 409.565C224.787 410.396 224.275 411.348 223.9 412.422C223.542 413.48 223.363 414.603 223.363 415.791ZM258.52 430.488C256.68 430.488 255.012 430.179 253.515 429.561C252.034 428.926 250.756 428.039 249.682 426.899C248.624 425.76 247.81 424.409 247.24 422.847C246.671 421.284 246.386 419.575 246.386 417.72V416.694C246.386 414.546 246.703 412.633 247.338 410.957C247.973 409.264 248.835 407.832 249.926 406.66C251.016 405.488 252.253 404.601 253.637 403.999C255.02 403.397 256.452 403.096 257.934 403.096C259.822 403.096 261.449 403.421 262.816 404.072C264.2 404.723 265.331 405.635 266.21 406.807C267.089 407.962 267.74 409.329 268.163 410.908C268.586 412.471 268.798 414.18 268.798 416.035V418.062H249.071V414.375H264.281V414.033C264.216 412.861 263.972 411.722 263.549 410.615C263.142 409.508 262.491 408.597 261.596 407.881C260.701 407.165 259.48 406.807 257.934 406.807C256.908 406.807 255.964 407.026 255.102 407.466C254.239 407.889 253.498 408.524 252.88 409.37C252.261 410.216 251.781 411.25 251.439 412.471C251.098 413.691 250.927 415.099 250.927 416.694V417.72C250.927 418.973 251.098 420.153 251.439 421.26C251.798 422.35 252.31 423.311 252.978 424.141C253.661 424.971 254.483 425.622 255.443 426.094C256.42 426.566 257.527 426.802 258.764 426.802C260.359 426.802 261.71 426.476 262.816 425.825C263.923 425.174 264.892 424.303 265.722 423.213L268.456 425.386C267.886 426.248 267.162 427.07 266.283 427.852C265.404 428.633 264.322 429.268 263.036 429.756C261.767 430.244 260.261 430.488 258.52 430.488ZM285.033 430.488C283.194 430.488 281.526 430.179 280.028 429.561C278.547 428.926 277.27 428.039 276.195 426.899C275.137 425.76 274.324 424.409 273.754 422.847C273.184 421.284 272.899 419.575 272.899 417.72V416.694C272.899 414.546 273.217 412.633 273.852 410.957C274.486 409.264 275.349 407.832 276.439 406.66C277.53 405.488 278.767 404.601 280.15 403.999C281.534 403.397 282.966 403.096 284.447 403.096C286.335 403.096 287.963 403.421 289.33 404.072C290.714 404.723 291.845 405.635 292.724 406.807C293.603 407.962 294.254 409.329 294.677 410.908C295.1 412.471 295.312 414.18 295.312 416.035V418.062H275.585V414.375H290.795V414.033C290.73 412.861 290.486 411.722 290.062 410.615C289.656 409.508 289.005 408.597 288.109 407.881C287.214 407.165 285.993 406.807 284.447 406.807C283.422 406.807 282.478 407.026 281.615 407.466C280.753 407.889 280.012 408.524 279.394 409.37C278.775 410.216 278.295 411.25 277.953 412.471C277.611 413.691 277.44 415.099 277.44 416.694V417.72C277.44 418.973 277.611 420.153 277.953 421.26C278.311 422.35 278.824 423.311 279.491 424.141C280.175 424.971 280.997 425.622 281.957 426.094C282.934 426.566 284.04 426.802 285.277 426.802C286.872 426.802 288.223 426.476 289.33 425.825C290.437 425.174 291.405 424.303 292.235 423.213L294.97 425.386C294.4 426.248 293.676 427.07 292.797 427.852C291.918 428.633 290.836 429.268 289.55 429.756C288.28 430.244 286.775 430.488 285.033 430.488ZM305.102 407.734V430H300.585V403.584H304.979L305.102 407.734ZM313.354 403.438L313.329 407.637C312.955 407.555 312.597 407.507 312.255 407.49C311.929 407.458 311.555 407.441 311.132 407.441C310.09 407.441 309.171 407.604 308.373 407.93C307.576 408.255 306.9 408.711 306.347 409.297C305.793 409.883 305.354 410.583 305.028 411.396C304.719 412.194 304.516 413.073 304.418 414.033L303.148 414.766C303.148 413.171 303.303 411.673 303.612 410.273C303.938 408.874 304.434 407.637 305.102 406.562C305.769 405.472 306.615 404.626 307.641 404.023C308.682 403.405 309.919 403.096 311.352 403.096C311.677 403.096 312.051 403.136 312.475 403.218C312.898 403.283 313.191 403.356 313.354 403.438Z" fill="#606BA8"/>
</svg>
