<svg width="206" height="206" viewBox="0 0 206 206" fill="none" xmlns="http://www.w3.org/2000/svg">
<rect x="2.5" y="2.5" width="201" height="201" rx="44.5" fill="#2C82FA" stroke="#2569A6" stroke-width="5"/>
<path d="M198 31.5C198 82.3102 156.81 115 106 115C55.1898 115 14 73.8102 14 23C14 23 24.3952 12.0908 46 7.00001C61.5926 3.3259 84.7011 4.99999 106 4.99999C118.666 4.79075 135 5.49999 148 5C156.471 5.64726 165.5 4 174.5 8C179.731 10.6153 183 12 187.5 16C189.5 17.7778 192.171 21.0948 194 24C196 27 197.5 30.5 198 31.5Z" fill="#70C6FC"/>
<path d="M39.2358 140H20.3438L44.8821 67.2727H68.2841L92.8224 140H73.9304L56.8494 85.5966H56.2812L39.2358 140ZM36.7145 111.378H76.2031V124.73H36.7145V111.378ZM100.653 140V67.2727H130.695C136.14 67.2727 140.84 68.3381 144.793 70.4688C148.771 72.5758 151.836 75.5232 153.991 79.3111C156.145 83.0753 157.222 87.455 157.222 92.4503C157.222 97.4692 156.121 101.861 153.92 105.625C151.742 109.366 148.629 112.266 144.58 114.325C140.532 116.385 135.726 117.415 130.163 117.415H111.626V103.565H126.896C129.547 103.565 131.761 103.104 133.536 102.18C135.335 101.257 136.697 99.9669 137.62 98.3097C138.543 96.6288 139.005 94.6757 139.005 92.4503C139.005 90.2012 138.543 88.2599 137.62 86.6264C136.697 84.9692 135.335 83.6908 133.536 82.7912C131.737 81.8916 129.523 81.4418 126.896 81.4418H118.231V140H100.653ZM183.465 67.2727V140H165.887V67.2727H183.465Z" fill="white"/>
<path d="M5 50C5 24.0426 22.5426 5 48.5 5H80L53 6C31.9175 8.78012 12.2801 27.4175 9.5 48.5L5 80.5V50Z" fill="white"/>
<path d="M201 156.5C202 181.5 182.957 201.5 157 201.5L130 201L158.5 197.5C179.583 194.72 193.72 181.083 196.5 160L201 136V156.5Z" fill="#70C6FC"/>
</svg>
