<svg width="36" height="36" viewBox="0 0 36 36" fill="none" xmlns="http://www.w3.org/2000/svg">
<path fill-rule="evenodd" clip-rule="evenodd" d="M26.0454 5.04543C26.5726 4.51822 27.4274 4.51822 27.9546 5.04543L32.4546 9.54543C32.7078 9.7986 32.85 10.142 32.85 10.5C32.85 10.8581 32.7078 11.2014 32.4546 11.4546L27.9546 15.9546C27.4274 16.4818 26.5726 16.4818 26.0454 15.9546C25.5182 15.4274 25.5182 14.5726 26.0454 14.0454L28.2408 11.85H23.2031L21.1012 14.8544C20.6737 15.4653 19.832 15.6141 19.2211 15.1867C18.6102 14.7593 18.4614 13.9175 18.8888 13.3066L21.3938 9.72613C21.6464 9.36508 22.0594 9.15002 22.5 9.15002H28.2408L26.0454 6.95462C25.5182 6.42741 25.5182 5.57264 26.0454 5.04543ZM3.14999 10.5C3.14999 9.75444 3.75441 9.15002 4.49999 9.15002H12C12.4405 9.15002 12.8533 9.36496 13.106 9.72585L23.2029 24.15H28.2408L26.0454 21.9546C25.5182 21.4274 25.5182 20.5726 26.0454 20.0454C26.5726 19.5182 27.4274 19.5182 27.9546 20.0454L32.4546 24.5454C32.9818 25.0726 32.9818 25.9274 32.4546 26.4546L27.9546 30.9546C27.4274 31.4818 26.5726 31.4818 26.0454 30.9546C25.5182 30.4274 25.5182 29.5726 26.0454 29.0454L28.2408 26.85H22.5C22.0595 26.85 21.6467 26.6351 21.394 26.2742L11.2971 11.85H4.49999C3.75441 11.85 3.14999 11.2456 3.14999 10.5ZM15.2791 20.815C15.8899 21.2425 16.0385 22.0843 15.611 22.6951L13.106 26.2741C12.8534 26.6351 12.4405 26.85 12 26.85H4.49999C3.75441 26.85 3.14999 26.2456 3.14999 25.5C3.14999 24.7544 3.75441 24.15 4.49999 24.15H11.2971L13.399 21.1469C13.8265 20.5361 14.6683 20.3875 15.2791 20.815Z" fill="black"/>
</svg>
