<svg width="32" height="32" viewBox="0 0 32 32" fill="none" xmlns="http://www.w3.org/2000/svg">
<rect x="0.5" y="0.5" width="31" height="31" rx="15.5" fill="#F0F5FF"/>
<rect x="0.5" y="0.5" width="31" height="31" rx="15.5" stroke="#D0D5DD"/>
<g clip-path="url(#clip0_317_3867)">
<path fill-rule="evenodd" clip-rule="evenodd" d="M16.0003 9.925C15.7815 9.925 15.5716 10.0119 15.4169 10.1666C15.2622 10.3214 15.1753 10.5312 15.1753 10.75C15.1753 11.011 15.0248 11.2486 14.7888 11.3602C14.0382 11.7151 13.3984 12.2676 12.9379 12.9584C12.4801 13.645 12.2167 14.4425 12.1753 15.2664V17.5C12.1753 17.5271 12.1736 17.5542 12.1704 17.5811C12.1061 18.1117 11.927 18.6215 11.646 19.075H20.3545C20.0735 18.6215 19.8944 18.1117 19.8301 17.5811C19.8269 17.5542 19.8253 17.5271 19.8253 17.5V15.2664C19.7838 14.4425 19.5204 13.645 19.0627 12.9584C18.6021 12.2676 17.9623 11.7151 17.2117 11.3602C16.9757 11.2486 16.8253 11.011 16.8253 10.75C16.8253 10.5312 16.7383 10.3214 16.5836 10.1666C16.4289 10.0119 16.2191 9.925 16.0003 9.925ZM17.5753 20.425H14.4253V20.5C14.4253 20.9177 14.5912 21.3183 14.8866 21.6137C15.1819 21.9091 15.5825 22.075 16.0003 22.075C16.418 22.075 16.8186 21.9091 17.114 21.6137C17.4093 21.3183 17.5753 20.9177 17.5753 20.5V20.425ZM13.0753 20.425V20.5C13.0753 21.2758 13.3834 22.0197 13.932 22.5683C14.4805 23.1168 15.2245 23.425 16.0003 23.425C16.776 23.425 17.52 23.1168 18.0685 22.5683C18.6171 22.0197 18.9253 21.2758 18.9253 20.5V20.425H22.0003C22.3068 20.425 22.5749 20.2184 22.653 19.922C22.7311 19.6255 22.5996 19.3137 22.3329 19.1626C22.0161 18.9833 21.7459 18.732 21.544 18.4292C21.3491 18.1369 21.2231 17.8044 21.1753 17.4567V15.25C21.1753 15.2394 21.175 15.2289 21.1745 15.2184C21.1241 14.1443 20.7824 13.1042 20.1859 12.2096C19.6609 11.422 18.9558 10.7732 18.1315 10.3157C18.0469 9.90065 17.8422 9.516 17.5382 9.21204C17.1303 8.80415 16.5771 8.575 16.0003 8.575C15.4234 8.575 14.8702 8.80415 14.4623 9.21204C14.1583 9.516 13.9536 9.90065 13.8691 10.3157C13.0447 10.7732 12.3396 11.422 11.8146 12.2096C11.2182 13.1042 10.8764 14.1443 10.826 15.2184C10.8255 15.2289 10.8253 15.2394 10.8253 15.25V17.4567C10.7774 17.8044 10.6514 18.1369 10.4565 18.4292C10.2546 18.732 9.98439 18.9833 9.66765 19.1626C9.40089 19.3137 9.26943 19.6255 9.34753 19.922C9.42564 20.2184 9.6937 20.425 10.0003 20.425H13.0753Z" fill="#424DB3"/>
</g>
<circle cx="27" cy="5" r="4" fill="#FF3300"/>
<defs>
<clipPath id="clip0_317_3867">
<rect width="18" height="18" fill="white" transform="translate(7 7)"/>
</clipPath>
</defs>
</svg>
