<svg width="269" height="225" viewBox="0 0 269 225" fill="none" xmlns="http://www.w3.org/2000/svg">
<path fillRule="evenodd" clip-rule="evenodd" d="M134.39 0L268.78 225H0L134.39 0ZM151.282 109.715C151.282 79.223 143.82 54.5046 134.615 54.5046C125.41 54.5046 117.948 79.223 117.948 109.715C117.948 140.206 125.41 144.595 134.615 144.595C143.82 144.595 151.282 140.206 151.282 109.715ZM134.615 201.802C143.82 201.802 151.282 194.34 151.282 185.135C151.282 175.93 143.82 168.469 134.615 168.469C125.41 168.469 117.948 175.93 117.948 185.135C117.948 194.34 125.41 201.802 134.615 201.802Z" fill="#D4D757"/>
</svg>
