<svg width="30" height="30" viewBox="0 0 30 30" fill="none" xmlns="http://www.w3.org/2000/svg">
<path d="M23.75 3.33333C24.2499 3.33333 24.6552 3.73859 24.6552 4.2385C24.6552 4.53191 24.7717 4.81331 24.9792 5.02079C25.1867 5.22826 25.4681 5.34482 25.7615 5.34482C26.2614 5.34482 26.6667 5.75008 26.6667 6.24999C26.6667 6.74991 26.2614 7.15517 25.7615 7.15517C25.4681 7.15517 25.1867 7.27173 24.9792 7.4792C24.7717 7.68668 24.6552 7.96807 24.6552 8.26149C24.6552 8.7614 24.2499 9.16666 23.75 9.16666C23.2501 9.16666 22.8448 8.7614 22.8448 8.26149C22.8448 7.96807 22.7283 7.68668 22.5208 7.4792C22.3133 7.27173 22.0319 7.15517 21.7385 7.15517C21.2386 7.15517 20.8333 6.74991 20.8333 6.24999C20.8333 5.75008 21.2386 5.34482 21.7385 5.34482C22.0319 5.34482 22.3133 5.22826 22.5208 5.02079C22.7283 4.81331 22.8448 4.53191 22.8448 4.2385C22.8448 3.73859 23.2501 3.33333 23.75 3.33333Z" fill="#3d4fff"/>
<path fill-rule="evenodd" clip-rule="evenodd" d="M15 4.49999C15.6213 4.49999 16.125 5.00367 16.125 5.62499C16.125 7.81303 16.9942 9.91145 18.5414 11.4586C20.0885 13.0058 22.187 13.875 24.375 13.875C24.9963 13.875 25.5 14.3787 25.5 15C25.5 15.6213 24.9963 16.125 24.375 16.125C22.187 16.125 20.0885 16.9942 18.5414 18.5414C16.9942 20.0885 16.125 22.187 16.125 24.375C16.125 24.9963 15.6213 25.5 15 25.5C14.3787 25.5 13.875 24.9963 13.875 24.375C13.875 22.187 13.0058 20.0885 11.4586 18.5414C9.91146 16.9942 7.81304 16.125 5.625 16.125C5.00368 16.125 4.5 15.6213 4.5 15C4.5 14.3787 5.00368 13.875 5.625 13.875C7.81304 13.875 9.91146 13.0058 11.4586 11.4586C13.0058 9.91145 13.875 7.81303 13.875 5.62499C13.875 5.00367 14.3787 4.49999 15 4.49999ZM15 10.3536C14.5019 11.3412 13.8464 12.2528 13.0496 13.0496C12.2528 13.8464 11.3412 14.5019 10.3536 15C11.3412 15.4981 12.2528 16.1536 13.0496 16.9504C13.8464 17.7472 14.5019 18.6588 15 19.6464C15.4981 18.6588 16.1536 17.7472 16.9504 16.9504C17.7472 16.1536 18.6588 15.4981 19.6464 15C18.6588 14.5019 17.7472 13.8464 16.9504 13.0496C16.1536 12.2528 15.4981 11.3412 15 10.3536Z" fill="#3d4fff"/>
</svg>
