<svg width="36" height="36" viewBox="0 0 36 36" fill="none" xmlns="http://www.w3.org/2000/svg">
<path fill-rule="evenodd" clip-rule="evenodd" d="M5.85 9.80762V26.3583C7.56502 25.6888 9.39589 25.3417 11.25 25.3417C13.1041 25.3417 14.935 25.6888 16.65 26.3583V9.80762C14.9748 8.97648 13.1269 8.54167 11.25 8.54167C9.37306 8.54167 7.52521 8.97648 5.85 9.80762ZM19.35 9.80762V26.3583C21.065 25.6888 22.8959 25.3417 24.75 25.3417C26.6041 25.3417 28.435 25.6888 30.15 26.3583V9.80762C28.4748 8.97648 26.6269 8.54167 24.75 8.54167C22.8731 8.54167 21.0252 8.97648 19.35 9.80762ZM18 7.46443C15.9131 6.39944 13.6002 5.84167 11.25 5.84167C8.64328 5.84167 6.08249 6.52784 3.825 7.8312C3.40731 8.07235 3.15 8.51802 3.15 9.00033V28.5003C3.15 28.9826 3.40731 29.4283 3.825 29.6695C4.24269 29.9106 4.75731 29.9106 5.175 29.6695C7.02203 28.6031 9.11723 28.0417 11.25 28.0417C13.3828 28.0417 15.478 28.6031 17.325 29.6695C17.7427 29.9106 18.2573 29.9106 18.675 29.6695C20.522 28.6031 22.6172 28.0417 24.75 28.0417C26.8828 28.0417 28.978 28.6031 30.825 29.6695C31.2427 29.9106 31.7573 29.9106 32.175 29.6695C32.5927 29.4283 32.85 28.9826 32.85 28.5003V9.00033C32.85 8.51802 32.5927 8.07235 32.175 7.8312C29.9175 6.52784 27.3567 5.84167 24.75 5.84167C22.3998 5.84167 20.0869 6.39944 18 7.46443Z" fill="#3d4fff"/>
</svg>
