<svg width="36" height="36" viewBox="0 0 36 36" fill="none" xmlns="http://www.w3.org/2000/svg">
<path fill-rule="evenodd" clip-rule="evenodd" d="M7.49999 7.34999C7.06239 7.34999 6.6427 7.52383 6.33327 7.83327C6.02383 8.1427 5.84999 8.56239 5.84999 8.99999V27C5.84999 27.4376 6.02383 27.8573 6.33327 28.1667C6.6427 28.4762 7.06239 28.65 7.49999 28.65H28.5C28.9376 28.65 29.3573 28.4762 29.6667 28.1667C29.9762 27.8573 30.15 27.4376 30.15 27V8.99999C30.15 8.56239 29.9762 8.1427 29.6667 7.83327C29.3573 7.52383 28.9376 7.34999 28.5 7.34999H7.49999ZM4.42408 5.92408C5.23986 5.1083 6.3463 4.64999 7.49999 4.64999H28.5C29.6537 4.64999 30.7601 5.1083 31.5759 5.92408C32.3917 6.73986 32.85 7.8463 32.85 8.99999V27C32.85 28.1537 32.3917 29.2601 31.5759 30.0759C30.7601 30.8917 29.6537 31.35 28.5 31.35H7.49999C6.3463 31.35 5.23986 30.8917 4.42408 30.0759C3.6083 29.2601 3.14999 28.1537 3.14999 27V8.99999C3.14999 7.8463 3.6083 6.73986 4.42408 5.92408ZM11.0454 12.5454C11.5726 12.0182 12.4274 12.0182 12.9546 12.5454L17.4546 17.0454C17.9818 17.5726 17.9818 18.4274 17.4546 18.9546L12.9546 23.4546C12.4274 23.9818 11.5726 23.9818 11.0454 23.4546C10.5182 22.9274 10.5182 22.0726 11.0454 21.5454L14.5908 18L11.0454 14.4546C10.5182 13.9274 10.5182 13.0726 11.0454 12.5454ZM18.15 22.5C18.15 21.7544 18.7544 21.15 19.5 21.15H24C24.7456 21.15 25.35 21.7544 25.35 22.5C25.35 23.2456 24.7456 23.85 24 23.85H19.5C18.7544 23.85 18.15 23.2456 18.15 22.5Z" fill="#3d4fff"/>
</svg>
