<svg width="36" height="36" viewBox="0 0 36 36" fill="none" xmlns="http://www.w3.org/2000/svg">
<path fill-rule="evenodd" clip-rule="evenodd" d="M9.04088 4.55391C11.3996 3.66944 14.5675 3.15002 18 3.15002C21.4325 3.15002 24.6004 3.66944 26.9591 4.55391C28.1335 4.99427 29.1777 5.55122 29.9525 6.23816C30.7258 6.92372 31.35 7.85393 31.35 9.00002V17.0877C31.35 17.8333 30.7456 18.4377 30 18.4377C29.2544 18.4377 28.65 17.8333 28.65 17.0877V12.6717C28.1335 12.962 27.5636 13.2195 26.9591 13.4461C24.6004 14.3306 21.4325 14.85 18 14.85C14.5675 14.85 11.3996 14.3306 9.04088 13.4461C8.43644 13.2195 7.86649 12.962 7.35 12.6717V18C7.35 18.2798 7.66162 19.0147 9.18438 19.7622C10.6018 20.458 12.7244 20.9635 15.3422 20.9635C16.0878 20.9635 16.6922 21.5679 16.6922 22.3135C16.6922 23.0591 16.0878 23.6635 15.3422 23.6635C12.409 23.6635 9.86051 23.102 7.99454 22.1859C7.77608 22.0787 7.56034 21.9628 7.35 21.8386V27C7.35 27.608 7.59795 28.1916 8.60049 28.7252C9.69694 29.3088 11.5936 29.7544 14.6172 29.8407C15.3625 29.862 15.9494 30.4835 15.9281 31.2287C15.9068 31.974 15.2853 32.5609 14.5401 32.5396C11.3687 32.449 8.97599 31.9837 7.33188 31.1086C5.59386 30.1835 4.65 28.7606 4.65 27V9.00002C4.65 7.85393 5.27423 6.92372 6.0475 6.23816C6.82234 5.55122 7.86651 4.99427 9.04088 4.55391ZM7.35 9.00002C7.35 9.09668 7.3974 9.35035 7.83866 9.74155C8.27835 10.1314 8.99162 10.5441 9.98887 10.918C11.9734 11.6622 14.8055 12.15 18 12.15C21.1945 12.15 24.0266 11.6622 26.0111 10.918C27.0084 10.5441 27.7216 10.1314 28.1613 9.74155C28.6026 9.35035 28.65 9.09668 28.65 9.00002C28.65 8.90337 28.6026 8.6497 28.1613 8.25849C27.7216 7.86868 27.0084 7.45596 26.0111 7.08202C24.0266 6.33786 21.1945 5.85002 18 5.85002C14.8055 5.85002 11.9734 6.33786 9.98887 7.08202C8.99162 7.45596 8.27835 7.86868 7.83866 8.25849C7.3974 8.6497 7.35 8.90337 7.35 9.00002Z" fill="#3d4fff"/>
<path fill-rule="evenodd" clip-rule="evenodd" d="M24.4809 20.2212C24.1139 20.2212 23.7576 20.3691 23.4916 20.6394C23.2248 20.9104 23.0712 21.2825 23.0712 21.6748V23.1283H25.8906V21.6748C25.8906 21.2825 25.737 20.9104 25.4702 20.6394C25.2042 20.3691 24.8479 20.2212 24.4809 20.2212ZM28.5906 23.1283V21.6748C28.5906 20.58 28.1627 19.5258 27.3944 18.7453C26.6254 17.9641 25.5778 17.5212 24.4809 17.5212C23.384 17.5212 22.3364 17.9641 21.5674 18.7453C20.7991 19.5258 20.3712 20.58 20.3712 21.6748V23.1283H20.3413C19.6104 23.1283 18.9138 23.4235 18.4035 23.9418C17.894 24.4595 17.6114 25.1571 17.6114 25.8801V30.0854C17.6114 30.8084 17.894 31.506 18.4035 32.0236C18.9138 32.542 19.6104 32.8372 20.3413 32.8372H28.6205C29.3514 32.8372 30.048 32.542 30.5583 32.0236C31.0678 31.506 31.3504 30.8084 31.3504 30.0854V25.8801C31.3504 25.1571 31.0678 24.4595 30.5583 23.9418C30.048 23.4235 29.3514 23.1283 28.6205 23.1283H28.5906ZM20.3413 25.8283C20.3413 25.8283 20.335 25.8285 20.3277 25.8359C20.3197 25.8441 20.3114 25.8596 20.3114 25.8801V30.0854C20.3114 30.1059 20.3197 30.1214 20.3277 30.1295C20.335 30.137 20.3413 30.1372 20.3413 30.1372H28.6205C28.6205 30.1372 28.6268 30.137 28.6341 30.1295C28.6421 30.1214 28.6504 30.1059 28.6504 30.0854V25.8801C28.6504 25.8596 28.6421 25.8441 28.6341 25.8359C28.6268 25.8285 28.6205 25.8283 28.6205 25.8283H20.3413Z" fill="#3d4fff"/>
</svg>
