<svg width="36" height="36" viewBox="0 0 36 36" fill="none" xmlns="http://www.w3.org/2000/svg">
<path fill-rule="evenodd" clip-rule="evenodd" d="M9.0407 4.554C11.483 3.63814 14.705 3.15002 18 3.15002C21.295 3.15002 24.517 3.63814 26.9593 4.554C28.1783 5.01114 29.2259 5.58309 29.9926 6.27716C30.7588 6.97079 31.35 7.89146 31.35 9.00002V27C31.35 28.1086 30.7588 29.0293 29.9926 29.7229C29.2259 30.417 28.1783 30.9889 26.9593 31.4461C24.517 32.3619 21.295 32.85 18 32.85C14.705 32.85 11.483 32.3619 9.0407 31.4461C7.82165 30.9889 6.77404 30.417 6.00739 29.7229C5.24123 29.0293 4.64999 28.1086 4.64999 27V9.00002C4.64999 7.89146 5.24123 6.97079 6.00739 6.27716C6.77404 5.58309 7.82165 5.01114 9.0407 4.554ZM7.34999 12.6708V18C7.34999 18.0849 7.3909 18.3333 7.81949 18.7213C8.24759 19.1089 8.95734 19.5312 9.98873 19.918C12.0473 20.6899 14.9298 21.15 18 21.15C21.0702 21.15 23.9527 20.6899 26.0113 19.918C27.0427 19.5312 27.7524 19.1089 28.1805 18.7213C28.6091 18.3333 28.65 18.0849 28.65 18V12.6708C28.1387 12.9587 27.5706 13.2168 26.9593 13.4461C24.517 14.3619 21.295 14.85 18 14.85C14.705 14.85 11.483 14.3619 9.0407 13.4461C8.42942 13.2168 7.86125 12.9587 7.34999 12.6708ZM28.65 9.00002C28.65 9.08493 28.6091 9.3333 28.1805 9.72131C27.7524 10.1089 27.0427 10.5312 26.0113 10.918C23.9527 11.6899 21.0702 12.15 18 12.15C14.9298 12.15 12.0473 11.6899 9.98873 10.918C8.95734 10.5312 8.24759 10.1089 7.81949 9.72131C7.3909 9.3333 7.34999 9.08493 7.34999 9.00002C7.34999 8.91511 7.3909 8.66675 7.81949 8.27874C8.24759 7.89117 8.95734 7.46886 9.98873 7.08209C12.0473 6.31012 14.9298 5.85002 18 5.85002C21.0702 5.85002 23.9527 6.31012 26.0113 7.08209C27.0427 7.46886 27.7524 7.89117 28.1805 8.27874C28.6091 8.66675 28.65 8.91511 28.65 9.00002ZM28.65 21.6708C28.1387 21.9587 27.5706 22.2168 26.9593 22.4461C24.517 23.3619 21.295 23.85 18 23.85C14.705 23.85 11.483 23.3619 9.0407 22.4461C8.42942 22.2168 7.86125 21.9587 7.34999 21.6708V27C7.34999 27.0849 7.3909 27.3333 7.81949 27.7213C8.24759 28.1089 8.95734 28.5312 9.98873 28.918C12.0473 29.6899 14.9298 30.15 18 30.15C21.0702 30.15 23.9527 29.6899 26.0113 28.918C27.0427 28.5312 27.7524 28.1089 28.1805 27.7213C28.6091 27.3333 28.65 27.0849 28.65 27V21.6708Z" fill="#3d4fff"/>
</svg>
