<svg width="36" height="36" viewBox="0 0 36 36" fill="none" xmlns="http://www.w3.org/2000/svg">
<path fill-rule="evenodd" clip-rule="evenodd" d="M19.1766 3.83817C19.5422 4.488 19.3117 5.31112 18.6618 5.67665L8.75363 11.25L18.0012 16.4518L19.6949 15.5024C20.3453 15.1378 21.1681 15.3696 21.5326 16.0199C21.8972 16.6703 21.6655 17.4931 21.0151 17.8576L19.35 18.7909V29.1917L28.65 23.9605V17.76C28.65 17.0144 29.2544 16.41 30 16.41C30.7456 16.41 31.35 17.0144 31.35 17.76V24.75C31.35 25.2377 31.0869 25.6875 30.6618 25.9266L18.6618 32.6766C18.2509 32.9078 17.7491 32.9078 17.3381 32.6766L5.33814 25.9266C4.91306 25.6875 4.64999 25.2377 4.64999 24.75V11.25C4.64999 10.7623 4.91306 10.3125 5.33814 10.0734L17.3381 3.32339C17.988 2.95786 18.8111 3.18833 19.1766 3.83817ZM16.65 29.1917V18.7896L7.34999 13.5583V23.9605L16.65 29.1917ZM25.335 3.15002C25.693 3.15002 26.0364 3.29225 26.2896 3.54543L30.7896 8.04543C31.3168 8.57263 31.3168 9.42741 30.7896 9.95461C30.2624 10.4818 29.4076 10.4818 28.8804 9.95461L26.685 7.75921V15C26.685 15.7456 26.0806 16.35 25.335 16.35C24.5894 16.35 23.985 15.7456 23.985 15V7.75921L21.7896 9.95461C21.2624 10.4818 20.4076 10.4818 19.8804 9.95461C19.3532 9.42741 19.3532 8.57263 19.8804 8.04543L24.3804 3.54543C24.6336 3.29225 24.977 3.15002 25.335 3.15002Z" fill="#3d4fff"/>
</svg>
