<svg width="36" height="36" viewBox="0 0 36 36" fill="none" xmlns="http://www.w3.org/2000/svg">
<path fill-rule="evenodd" clip-rule="evenodd" d="M10.4879 3.15002C11.2335 3.15002 11.8379 3.75444 11.8379 4.50002V6.74839C11.8413 8.10162 12.0426 9.28782 12.4344 10.358H19.1248C19.8704 10.358 20.4748 10.9624 20.4748 11.708C20.4748 12.4536 19.8704 13.058 19.1248 13.058H13.995C14.9569 14.2331 16.2681 15.332 17.9779 16.4213L17.9901 16.4286C21.3609 14.2324 23.2906 11.5576 23.9197 8.38123H15.4611C14.7155 8.38123 14.1111 7.77681 14.1111 7.03123C14.1111 6.28565 14.7155 5.68123 15.4611 5.68123H24.1499V4.50002C24.1499 3.75444 24.7543 3.15002 25.4999 3.15002C26.2455 3.15002 26.8499 3.75444 26.8499 4.50002V6.00002L26.8499 6.00405C26.8352 10.9337 24.6276 14.9468 20.4479 18.0105C24.6276 21.0742 26.8352 25.0873 26.8499 30.017L26.8499 30.021L26.8499 31.521C26.8499 32.2666 26.2455 32.871 25.4999 32.871C24.7543 32.871 24.1499 32.2666 24.1499 31.521V30.0233C24.1449 28.4185 23.8609 26.9253 23.2833 25.5415H16.8748C16.1292 25.5415 15.5248 24.937 15.5248 24.1915C15.5248 23.4459 16.1292 22.8415 16.8748 22.8415H21.671C20.7267 21.6616 19.5052 20.5801 17.9937 19.5949C14.5219 21.8569 12.5785 24.6285 12.0131 27.9322H20.2498C20.9954 27.9322 21.5998 28.5366 21.5998 29.2822C21.5998 30.0278 20.9954 30.6322 20.2498 30.6322H11.8379V31.521C11.8379 32.2666 11.2335 32.871 10.4879 32.871C9.74233 32.871 9.13792 32.2666 9.13792 31.521V30.021L9.13792 30.0178C9.13844 29.7985 9.14332 29.581 9.15252 29.3653C9.15085 29.3378 9.15 29.3101 9.15 29.2822C9.15 29.2054 9.1564 29.1302 9.1687 29.057C9.44838 24.5716 11.6268 20.8848 15.5187 18.0256C13.7627 16.7957 12.3278 15.4583 11.2651 13.9176C9.843 11.8557 9.14451 9.51268 9.13792 6.75325L9.13792 6.75002V4.50002C9.13792 3.75444 9.74233 3.15002 10.4879 3.15002Z" fill="#3d4fff"/>
</svg>
