<svg width="18" height="18" viewBox="0 0 18 18" fill="none" xmlns="http://www.w3.org/2000/svg">
<path fill-rule="evenodd" clip-rule="evenodd" d="M7.5 1.575C7.87279 1.575 8.175 1.8772 8.175 2.25V3.075H9.825V2.25C9.825 1.8772 10.1272 1.575 10.5 1.575C10.8728 1.575 11.175 1.8772 11.175 2.25V3.075H13.5C13.89 3.075 14.24 3.2343 14.4967 3.47748L14.5098 3.4902C14.7835 3.76394 14.925 4.12517 14.925 4.5V6.825H15.75C16.1228 6.825 16.425 7.12721 16.425 7.5C16.425 7.87279 16.1228 8.175 15.75 8.175H14.925V9.825H15.75C16.1228 9.825 16.425 10.1272 16.425 10.5C16.425 10.8728 16.1228 11.175 15.75 11.175H14.925V13.5C14.925 13.89 14.7657 14.24 14.5225 14.4967C14.2444 14.7903 13.8638 14.925 13.5 14.925H11.175V15.75C11.175 16.1228 10.8728 16.425 10.5 16.425C10.1272 16.425 9.825 16.1228 9.825 15.75V14.925H8.175V15.75C8.175 16.1228 7.87279 16.425 7.5 16.425C7.12721 16.425 6.825 16.1228 6.825 15.75V14.925H4.5C4.10997 14.925 3.75996 14.7657 3.50327 14.5225L3.4902 14.5098C3.21646 14.2361 3.075 13.8748 3.075 13.5V11.175H2.25C1.8772 11.175 1.575 10.8728 1.575 10.5C1.575 10.1272 1.8772 9.825 2.25 9.825H3.075V8.175H2.25C1.8772 8.175 1.575 7.87279 1.575 7.5C1.575 7.12721 1.8772 6.825 2.25 6.825H3.075V4.5C3.075 4.10997 3.2343 3.75996 3.47748 3.50327L3.4902 3.4902C3.76394 3.21646 4.12517 3.075 4.5 3.075H6.825V2.25C6.825 1.8772 7.12721 1.575 7.5 1.575ZM4.5 4.425C4.48261 4.425 4.47167 4.42809 4.4653 4.43067C4.46075 4.43252 4.45591 4.43516 4.45055 4.43955C4.42968 4.46461 4.425 4.48642 4.425 4.5V13.5C4.425 13.5174 4.42809 13.5283 4.43067 13.5347C4.43252 13.5392 4.43516 13.5441 4.43955 13.5494C4.46461 13.5703 4.48642 13.575 4.5 13.575H13.5C13.5186 13.575 13.5322 13.5715 13.5398 13.5684C13.542 13.5675 13.5435 13.5668 13.5443 13.5663C13.5696 13.5388 13.575 13.5146 13.575 13.5V4.5C13.575 4.48261 13.5719 4.47167 13.5693 4.4653C13.5675 4.46075 13.5648 4.45591 13.5604 4.45055C13.5354 4.42968 13.5136 4.425 13.5 4.425H4.5ZM7.875 7.425C7.66776 7.425 7.45804 7.51093 7.28839 7.67612C7.13707 7.82345 7.05 8.03015 7.05 8.25V9.075H8.7V8.25C8.7 8.03535 8.61635 7.83094 8.4552 7.66979L8.44884 7.66343C8.3015 7.51211 8.09485 7.425 7.875 7.425ZM8.7 10.425V11.25C8.7 11.6228 9.0022 11.925 9.375 11.925C9.74779 11.925 10.05 11.6228 10.05 11.25V8.25C10.05 7.67114 9.81983 7.12686 9.41294 6.71835C9.00555 6.30174 8.44865 6.075 7.875 6.075C7.28723 6.075 6.74696 6.31906 6.34661 6.70888C5.92792 7.11654 5.7 7.67485 5.7 8.25V11.25C5.7 11.6228 6.00221 11.925 6.375 11.925C6.74779 11.925 7.05 11.6228 7.05 11.25V10.425H8.7ZM11.625 6.075C11.9978 6.075 12.3 6.3772 12.3 6.75V11.25C12.3 11.6228 11.9978 11.925 11.625 11.925C11.2522 11.925 10.95 11.6228 10.95 11.25V6.75C10.95 6.3772 11.2522 6.075 11.625 6.075Z" fill="#3d4fff"/>
</svg>
