<svg width="36" height="36" viewBox="0 0 36 36" fill="none" xmlns="http://www.w3.org/2000/svg">
<path fill-rule="evenodd" clip-rule="evenodd" d="M21.9546 3.54543C22.4818 4.07264 22.4818 4.92741 21.9546 5.45462L19.7592 7.65002H24C25.1537 7.65002 26.2601 8.10833 27.0759 8.92411C27.8917 9.73989 28.35 10.8463 28.35 12V22.8648C28.9947 23.0753 29.5874 23.4356 30.0759 23.9241C30.8917 24.7399 31.35 25.8463 31.35 27C31.35 28.1537 30.8917 29.2602 30.0759 30.0759C29.2601 30.8917 28.1537 31.35 27 31.35C25.8463 31.35 24.7399 30.8917 23.9241 30.0759C23.1083 29.2602 22.65 28.1537 22.65 27C22.65 25.8463 23.1083 24.7399 23.9241 23.9241C24.4126 23.4356 25.0053 23.0753 25.65 22.8648V12C25.65 11.5624 25.4762 11.1427 25.1667 10.8333C24.8573 10.5239 24.4376 10.35 24 10.35H19.7592L21.9546 12.5454C22.4818 13.0726 22.4818 13.9274 21.9546 14.4546C21.4274 14.9818 20.5726 14.9818 20.0454 14.4546L15.5454 9.95462C15.2922 9.70144 15.15 9.35807 15.15 9.00002C15.15 8.64198 15.2922 8.2986 15.5454 8.04543L20.0454 3.54543C20.5726 3.01822 21.4274 3.01822 21.9546 3.54543ZM5.92409 5.92411C6.73987 5.10833 7.84631 4.65002 9 4.65002C10.1537 4.65002 11.2601 5.10833 12.0759 5.92411C12.8917 6.73989 13.35 7.84633 13.35 9.00002C13.35 10.1537 12.8917 11.2602 12.0759 12.0759C11.5874 12.5644 10.9947 12.9248 10.35 13.1352V22.8648C10.9947 23.0753 11.5874 23.4356 12.0759 23.9241C12.8917 24.7399 13.35 25.8463 13.35 27C13.35 28.1537 12.8917 29.2602 12.0759 30.0759C11.2601 30.8917 10.1537 31.35 9 31.35C7.84631 31.35 6.73987 30.8917 5.92409 30.0759C5.1083 29.2602 4.65 28.1537 4.65 27C4.65 25.8463 5.1083 24.7399 5.92409 23.9241C6.41259 23.4356 7.00532 23.0753 7.65 22.8648V13.1352C7.00532 12.9248 6.41259 12.5644 5.92409 12.0759C5.1083 11.2602 4.65 10.1537 4.65 9.00002C4.65 7.84633 5.1083 6.73989 5.92409 5.92411ZM9 7.35002C8.56239 7.35002 8.14271 7.52386 7.83328 7.8333C7.52384 8.14273 7.35 8.56242 7.35 9.00002C7.35 9.43763 7.52384 9.85732 7.83328 10.1668C8.14271 10.4762 8.56239 10.65 9 10.65C9.43761 10.65 9.85729 10.4762 10.1667 10.1668C10.4762 9.85732 10.65 9.43763 10.65 9.00002C10.65 8.56242 10.4762 8.14273 10.1667 7.8333C9.85729 7.52386 9.43761 7.35002 9 7.35002ZM9 25.35C8.5624 25.35 8.14271 25.5239 7.83328 25.8333C7.52384 26.1427 7.35 26.5624 7.35 27C7.35 27.4376 7.52384 27.8573 7.83328 28.1667C8.14271 28.4762 8.5624 28.65 9 28.65C9.43761 28.65 9.85729 28.4762 10.1667 28.1667C10.4762 27.8573 10.65 27.4376 10.65 27C10.65 26.5624 10.4762 26.1427 10.1667 25.8333C9.85729 25.5239 9.43761 25.35 9 25.35ZM27 25.35C26.5624 25.35 26.1427 25.5239 25.8333 25.8333C25.5238 26.1427 25.35 26.5624 25.35 27C25.35 27.4376 25.5238 27.8573 25.8333 28.1667C26.1427 28.4762 26.5624 28.65 27 28.65C27.4376 28.65 27.8573 28.4762 28.1667 28.1667C28.4762 27.8573 28.65 27.4376 28.65 27C28.65 26.5624 28.4762 26.1427 28.1667 25.8333C27.8573 25.5239 27.4376 25.35 27 25.35Z" fill="#3d4fff"/>
</svg>
