<svg width="36" height="36" viewBox="0 0 36 36" fill="none" xmlns="http://www.w3.org/2000/svg">
<path fill-rule="evenodd" clip-rule="evenodd" d="M7.46447 7.76866C7.45785 7.7715 7.43569 7.78212 7.40071 7.81709C7.38799 7.82982 7.37502 7.84228 7.3618 7.85448C7.3618 7.85448 7.35868 7.8573 7.35527 7.86537C7.35146 7.87441 7.34612 7.89236 7.34612 7.92V11.07H12.5436C13.2892 11.07 13.8936 11.6744 13.8936 12.42C13.8936 13.1656 13.2892 13.77 12.5436 13.77H7.34612V28.9125L7.34654 28.9156C7.34654 28.9156 7.34867 28.9243 7.35351 28.9352C7.36366 28.958 7.38761 28.9996 7.4381 29.0543C7.4381 29.0543 7.44092 29.0574 7.44899 29.0608C7.45803 29.0647 7.47598 29.07 7.50362 29.07H28.4961L28.4993 29.0696C28.4993 29.0696 28.5079 29.0674 28.5188 29.0626C28.5416 29.0525 28.5832 29.0285 28.6379 28.978C28.6379 28.978 28.6411 28.9752 28.6445 28.9671C28.6483 28.9581 28.6536 28.9401 28.6536 28.9125V13.77H23.4561C22.7105 13.77 22.1061 13.1656 22.1061 12.42C22.1061 11.6744 22.7105 11.07 23.4561 11.07H28.6536V7.92L28.6532 7.91687C28.6532 7.91687 28.6511 7.90825 28.6462 7.89735C28.6361 7.87452 28.6121 7.83288 28.5616 7.77818C28.5616 7.77818 28.5591 7.77518 28.5507 7.77165C28.5417 7.76784 28.5238 7.7625 28.4961 7.7625H23.4561C22.7105 7.7625 22.1061 7.15808 22.1061 6.4125C22.1061 5.66692 22.7105 5.0625 23.4561 5.0625H28.4961C29.251 5.0625 30.0024 5.35832 30.5456 5.94682C30.9827 6.42032 31.3536 7.0928 31.3536 7.92V28.9125C31.3536 29.6674 31.0578 30.4188 30.4693 30.962C29.9958 31.3991 29.3233 31.77 28.4961 31.77H7.50362C6.7487 31.77 5.99737 31.4742 5.45413 30.8857C5.01706 30.4122 4.64612 29.7397 4.64612 28.9125V7.92C4.64612 7.17381 4.93514 6.43112 5.51015 5.88943C6.03648 5.3719 6.72637 5.0625 7.50362 5.0625H12.5886C13.3342 5.0625 13.9386 5.66692 13.9386 6.4125C13.9386 7.15808 13.3342 7.7625 12.5886 7.7625H7.50362C7.47986 7.7625 7.4699 7.76633 7.46447 7.76866Z" fill="#3d4fff"/>
<path fill-rule="evenodd" clip-rule="evenodd" d="M17.9886 5.0625C18.7342 5.0625 19.3386 5.66692 19.3386 6.4125V22.0391L23.0999 18.7004C23.6575 18.2054 24.5108 18.2562 25.0057 18.8138C25.5007 19.3714 25.4499 20.2247 24.8923 20.7196L18.8848 26.0521C18.3735 26.506 17.6037 26.506 17.0924 26.0521L11.0849 20.7196C10.5273 20.2247 10.4765 19.3714 10.9715 18.8138C11.4664 18.2562 12.3197 18.2054 12.8773 18.7004L16.6386 22.0391V6.4125C16.6386 5.66692 17.243 5.0625 17.9886 5.0625Z" fill="#3d4fff"/>
</svg>
