<svg width="36" height="36" viewBox="0 0 36 36" fill="none" xmlns="http://www.w3.org/2000/svg">
<path fill-rule="evenodd" clip-rule="evenodd" d="M7.5 5.85002C7.06239 5.85002 6.64271 6.02386 6.33327 6.3333C6.02384 6.64273 5.85 7.06242 5.85 7.50002V28.5C5.85 28.9376 6.02384 29.3573 6.33327 29.6668C6.64271 29.9762 7.06239 30.15 7.5 30.15H28.5C28.9376 30.15 29.3573 29.9762 29.6667 29.6668C29.9762 29.3573 30.15 28.9376 30.15 28.5V7.50002C30.15 7.06242 29.9762 6.64273 29.6667 6.3333C29.3573 6.02386 28.9376 5.85002 28.5 5.85002H7.5ZM4.42409 4.42411C5.23987 3.60833 6.34631 3.15002 7.5 3.15002H28.5C29.6537 3.15002 30.7601 3.60833 31.5759 4.42411C32.3917 5.23989 32.85 6.34633 32.85 7.50002V28.5C32.85 29.6537 32.3917 30.7602 31.5759 31.5759C30.7601 32.3917 29.6537 32.85 28.5 32.85H7.5C6.34631 32.85 5.23987 32.3917 4.42409 31.5759C3.6083 30.7602 3.15 29.6537 3.15 28.5V7.50002C3.15 6.34633 3.6083 5.23989 4.42409 4.42411Z" fill="black"/>
<path fill-rule="evenodd" clip-rule="evenodd" d="M23.3836 7.91432C23.4081 7.91299 23.4326 7.91232 23.4571 7.91232C24.6851 7.91232 25.8629 8.40016 26.7312 9.26851C27.5996 10.1369 28.0874 11.3146 28.0874 12.5427C28.0874 12.5672 28.0868 12.5917 28.0854 12.6162C27.9649 14.8262 27.1918 16.9508 25.8638 18.7215C24.7126 20.2564 23.1893 21.4655 21.4441 22.2387C21.2915 23.2631 20.9389 24.2506 20.403 25.1437C19.7109 26.2972 18.7361 27.2551 17.5707 27.927C17.1776 28.1536 16.6969 28.1676 16.2913 27.9642C15.8857 27.7609 15.6094 27.3673 15.5559 26.9168C15.5232 26.6422 15.4754 26.3708 15.4128 26.1037C14.8795 26.5888 14.2795 27.0013 13.6276 27.3273C12.2182 28.032 10.6305 28.2997 9.06789 28.0961C8.46065 28.017 7.98272 27.5391 7.90361 26.9319C7.70004 25.3693 7.96776 23.7815 8.67247 22.3721C8.99842 21.7202 9.41098 21.1202 9.89609 20.5869C9.62897 20.5244 9.35756 20.4765 9.08299 20.4439C8.63242 20.3903 8.23888 20.114 8.03551 19.7084C7.83213 19.3028 7.84612 18.8222 8.07275 18.4291C8.74461 17.2637 9.70257 16.2888 10.8561 15.5967C11.7492 15.0609 12.7367 14.7082 13.761 14.5557C14.5342 12.8104 15.7434 11.2871 17.2783 10.1359C19.0489 8.80794 21.1736 8.03482 23.3836 7.91432ZM12.5479 21.7976C11.9368 22.2732 11.4366 22.8812 11.0874 23.5796C10.7949 24.1647 10.6167 24.7965 10.5584 25.4413C11.2033 25.3831 11.8351 25.2049 12.4202 24.9123C13.1186 24.5631 13.7266 24.063 14.2022 23.4518C13.9736 23.1361 13.7193 22.8373 13.4409 22.5589C13.1624 22.2805 12.8637 22.0262 12.5479 21.7976ZM23.4904 10.6126C21.828 10.7112 20.231 11.2964 18.8983 12.2959C17.5548 13.3035 16.5403 14.6868 15.983 16.271C15.7983 16.796 15.3104 17.1539 14.7541 17.1723C13.8685 17.2015 13.005 17.4561 12.2452 17.912C12.0468 18.031 11.8571 18.1628 11.6773 18.3062C13.0488 18.8076 14.3043 19.604 15.35 20.6497C16.3958 21.6954 17.1921 22.9509 17.6936 24.3224C17.837 24.1426 17.9687 23.953 18.0878 23.7545C18.5437 22.9947 18.7982 22.1312 18.8275 21.2457C18.8459 20.6894 19.2037 20.2014 19.7288 20.0167C21.3129 19.4594 22.6962 18.4449 23.7038 17.1015C24.7034 15.7688 25.2886 14.1717 25.3871 12.5094C25.3785 12.0095 25.1762 11.5319 24.822 11.1777C24.4679 10.8235 23.9903 10.6212 23.4904 10.6126Z" fill="#3d4fff"/>
</svg>
