<svg width="36" height="36" viewBox="0 0 36 36" fill="none" xmlns="http://www.w3.org/2000/svg">
<path fill-rule="evenodd" clip-rule="evenodd" d="M15 5.85002C14.5624 5.85002 14.1427 6.02386 13.8333 6.3333C13.5238 6.64273 13.35 7.06242 13.35 7.50002V9.00002C13.35 9.75589 13.0497 10.4808 12.5153 11.0153C11.9808 11.5498 11.2559 11.85 10.5 11.85H6C5.96022 11.85 5.92207 11.8658 5.89394 11.894C5.86581 11.9221 5.85 11.9602 5.85 12V16.5C5.85 16.5398 5.86581 16.578 5.89394 16.6061C5.92207 16.6342 5.96022 16.65 6 16.65H7.5C8.65369 16.65 9.76013 17.1083 10.5759 17.9241C11.3917 18.7399 11.85 19.8463 11.85 21C11.85 22.1537 11.3917 23.2602 10.5759 24.0759C9.76013 24.8917 8.65369 25.35 7.5 25.35H6C5.96022 25.35 5.92206 25.3658 5.89394 25.394C5.86581 25.4221 5.85 25.4602 5.85 25.5V30C5.85 30.0398 5.86581 30.078 5.89394 30.1061C5.92206 30.1342 5.96022 30.15 6 30.15H10.5C10.5398 30.15 10.5779 30.1342 10.6061 30.1061C10.6342 30.078 10.65 30.0398 10.65 30V28.5C10.65 27.3463 11.1083 26.2399 11.9241 25.4241C12.7399 24.6083 13.8463 24.15 15 24.15C16.1537 24.15 17.2601 24.6083 18.0759 25.4241C18.8917 26.2399 19.35 27.3463 19.35 28.5V30C19.35 30.0398 19.3658 30.078 19.3939 30.1061C19.4221 30.1342 19.4602 30.15 19.5 30.15H24C24.0398 30.15 24.0779 30.1342 24.1061 30.1061C24.1342 30.078 24.15 30.0398 24.15 30V25.5C24.15 24.7442 24.4503 24.0193 24.9847 23.4848C25.5192 22.9503 26.2441 22.65 27 22.65H28.5C28.9376 22.65 29.3573 22.4762 29.6667 22.1668C29.9762 21.8573 30.15 21.4376 30.15 21C30.15 20.5624 29.9762 20.1427 29.6667 19.8333C29.3573 19.5239 28.9376 19.35 28.5 19.35H27C26.2441 19.35 25.5192 19.0498 24.9847 18.5153C24.4503 17.9808 24.15 17.2559 24.15 16.5V12C24.15 11.9602 24.1342 11.9221 24.1061 11.894C24.0779 11.8658 24.0398 11.85 24 11.85H19.5C18.7441 11.85 18.0192 11.5498 17.4847 11.0153C16.9503 10.4808 16.65 9.75589 16.65 9.00002V7.50002C16.65 7.06242 16.4762 6.64273 16.1667 6.3333C15.8573 6.02386 15.4376 5.85002 15 5.85002ZM11.9241 4.42411C12.7399 3.60833 13.8463 3.15002 15 3.15002C16.1537 3.15002 17.2601 3.60833 18.0759 4.42411C18.8917 5.23989 19.35 6.34633 19.35 7.50002V9.00002C19.35 9.03981 19.3658 9.07796 19.3939 9.10609C19.4221 9.13422 19.4602 9.15002 19.5 9.15002H24C24.7559 9.15002 25.4808 9.45029 26.0153 9.98477C26.5497 10.5193 26.85 11.2442 26.85 12V16.5C26.85 16.5398 26.8658 16.578 26.8939 16.6061C26.9221 16.6342 26.9602 16.65 27 16.65H28.5C29.6537 16.65 30.7601 17.1083 31.5759 17.9241C32.3917 18.7399 32.85 19.8463 32.85 21C32.85 22.1537 32.3917 23.2602 31.5759 24.0759C30.7601 24.8917 29.6537 25.35 28.5 25.35H27C26.9602 25.35 26.9221 25.3658 26.8939 25.394C26.8658 25.4221 26.85 25.4602 26.85 25.5V30C26.85 30.7559 26.5497 31.4808 26.0153 32.0153C25.4808 32.5498 24.7559 32.85 24 32.85H19.5C18.7441 32.85 18.0192 32.5498 17.4847 32.0153C16.9503 31.4808 16.65 30.7559 16.65 30V28.5C16.65 28.0624 16.4762 27.6427 16.1667 27.3333C15.8573 27.0239 15.4376 26.85 15 26.85C14.5624 26.85 14.1427 27.0239 13.8333 27.3333C13.5238 27.6427 13.35 28.0624 13.35 28.5V30C13.35 30.7559 13.0497 31.4808 12.5153 32.0153C11.9808 32.5498 11.2559 32.85 10.5 32.85H6C5.24414 32.85 4.51923 32.5498 3.98475 32.0153C3.45027 31.4808 3.15 30.7559 3.15 30V25.5C3.15 24.7442 3.45027 24.0192 3.98475 23.4848C4.51923 22.9503 5.24414 22.65 6 22.65H7.5C7.93761 22.65 8.35729 22.4762 8.66673 22.1668C8.97616 21.8573 9.15 21.4376 9.15 21C9.15 20.5624 8.97616 20.1427 8.66673 19.8333C8.35729 19.5239 7.93761 19.35 7.5 19.35H6C5.24413 19.35 4.51923 19.0498 3.98475 18.5153C3.45027 17.9808 3.15 17.2559 3.15 16.5V12C3.15 11.2442 3.45027 10.5192 3.98475 9.98477C4.51923 9.45029 5.24413 9.15002 6 9.15002H10.5C10.5398 9.15002 10.5779 9.13422 10.6061 9.10609C10.6342 9.07796 10.65 9.03981 10.65 9.00002V7.50002C10.65 6.34633 11.1083 5.23989 11.9241 4.42411Z" fill="#3d4fff"/>
</svg>
