<svg width="36" height="36" viewBox="0 0 36 36" fill="none" xmlns="http://www.w3.org/2000/svg">
<path fill-rule="evenodd" clip-rule="evenodd" d="M25.4265 4.65203C25.451 4.65069 25.4755 4.65002 25.5 4.65002C27.0515 4.65002 28.5395 5.26636 29.6366 6.36345C30.7337 7.46054 31.35 8.94851 31.35 10.5C31.35 10.5245 31.3493 10.549 31.348 10.5735C31.1881 13.5061 30.1622 16.3255 28.4 18.675C26.8164 20.7865 24.7021 22.4334 22.2792 23.4528C22.1042 24.891 21.6288 26.2799 20.88 27.528C19.9744 29.0372 18.699 30.2905 17.1743 31.1696C16.7812 31.3962 16.3005 31.4102 15.8949 31.2068C15.4893 31.0034 15.213 30.6099 15.1594 30.1593C15.0778 29.4721 14.9298 28.7985 14.7198 28.1474C13.8854 29.0391 12.8952 29.7808 11.7914 30.3328C9.94735 31.2548 7.86998 31.6051 5.82559 31.3387C5.21835 31.2596 4.74042 30.7817 4.6613 30.1744C4.39496 28.13 4.74524 26.0527 5.66725 24.2087C6.21919 23.1048 6.96095 22.1146 7.85262 21.2802C7.20147 21.0702 6.52795 20.9223 5.84069 20.8406C5.39011 20.787 4.99658 20.5107 4.7932 20.1051C4.58983 19.6995 4.60382 19.2189 4.83044 18.8258C5.70949 17.301 6.96284 16.0256 8.47203 15.1201C9.72011 14.3712 11.1091 13.8958 12.5472 13.7209C13.5667 11.2979 15.2135 9.1836 17.325 7.6C19.6746 5.83782 22.4939 4.81192 25.4265 4.65203ZM10.5262 22.5781C9.49222 23.3047 8.65089 24.2788 8.0822 25.4161C7.56601 26.4485 7.29226 27.5799 7.27539 28.7246C8.42015 28.7078 9.5515 28.434 10.5839 27.9178C11.7213 27.3491 12.6953 26.5078 13.4219 25.4738C13.0406 24.9066 12.6034 24.3743 12.1145 23.8855C11.6257 23.3966 11.0934 22.9595 10.5262 22.5781ZM25.5345 7.35021C23.1491 7.48797 20.8569 8.32604 18.945 9.76C17.0226 11.2018 15.5709 13.1812 14.7735 15.448C14.5888 15.9731 14.1008 16.3309 13.5446 16.3493C12.2444 16.3922 10.9767 16.766 9.86117 17.4353C9.31205 17.7648 8.80875 18.1605 8.36173 18.6118C10.4891 19.2395 12.4386 20.3912 14.0237 21.9763C15.6088 23.5614 16.7605 25.5109 17.3882 27.6383C17.8395 27.1913 18.2353 26.688 18.5647 26.1389C19.234 25.0234 19.6078 23.7556 19.6507 22.4555C19.6691 21.8992 20.027 21.4112 20.552 21.2265C22.8188 20.4291 24.7982 18.9774 26.24 17.055C27.674 15.1431 28.5121 12.8509 28.6498 10.4655C28.6408 9.64258 28.31 8.85525 27.7274 8.27264C27.1448 7.69003 26.3575 7.35921 25.5345 7.35021ZM20.4847 11.4848C21.0192 10.9503 21.7441 10.65 22.5 10.65C23.2559 10.65 23.9808 10.9503 24.5153 11.4848C25.0497 12.0192 25.35 12.7442 25.35 13.5C25.35 14.2559 25.0497 14.9808 24.5153 15.5153C23.9808 16.0498 23.2559 16.35 22.5 16.35C21.7441 16.35 21.0192 16.0498 20.4847 15.5153C19.9503 14.9808 19.65 14.2559 19.65 13.5C19.65 12.7442 19.9503 12.0192 20.4847 11.4848ZM22.5 13.35C22.4602 13.35 22.4221 13.3658 22.3939 13.394C22.3658 13.4221 22.35 13.4602 22.35 13.5C22.35 13.5398 22.3658 13.578 22.3939 13.6061C22.4221 13.6342 22.4602 13.65 22.5 13.65C22.5398 13.65 22.5779 13.6342 22.6061 13.6061C22.6342 13.578 22.65 13.5398 22.65 13.5C22.65 13.4602 22.6342 13.4221 22.6061 13.394C22.5779 13.3658 22.5398 13.35 22.5 13.35Z" fill="#3d4fff"/>
</svg>
