<svg width="36" height="36" viewBox="0 0 36 36" fill="none" xmlns="http://www.w3.org/2000/svg">
<path fill-rule="evenodd" clip-rule="evenodd" d="M17.4986 6.24658C17.8205 6.11784 18.1795 6.11784 18.5014 6.24658L33.5014 12.2466C34.0139 12.4516 34.35 12.948 34.35 13.5V22.5C34.35 23.2456 33.7456 23.85 33 23.85C32.2544 23.85 31.65 23.2456 31.65 22.5V15.494L28.35 16.814V24.0002C28.35 25.9639 26.8228 27.4621 24.9677 28.3896C23.0494 29.3488 20.5425 29.8502 18 29.8502C15.4575 29.8502 12.9506 29.3488 11.0323 28.3896C9.17718 27.4621 7.65 25.9639 7.65 24.0002V16.814L2.49862 14.7535C1.98609 14.5485 1.65 14.052 1.65 13.5C1.65 12.948 1.98609 12.4516 2.49862 12.2466L17.4986 6.24658ZM9.52375 14.6555C9.50875 14.6492 9.49361 14.6432 9.47834 14.6374L6.63499 13.5L18 8.95402L29.365 13.5L26.5217 14.6374C26.5064 14.6431 26.4912 14.6492 26.4762 14.6555L18 18.046L9.52375 14.6555ZM10.35 17.894V24.0002C10.35 24.4233 10.7192 25.2144 12.2398 25.9747C13.6972 26.7034 15.7686 27.1502 18 27.1502C20.2314 27.1502 22.3028 26.7034 23.7602 25.9747C25.2808 25.2144 25.65 24.4233 25.65 24.0002V17.894L18.5014 20.7535C18.1795 20.8822 17.8205 20.8822 17.4986 20.7535L10.35 17.894Z" fill="#3d4fff"/>
</svg>
