<svg width="36" height="36" viewBox="0 0 36 36" fill="none" xmlns="http://www.w3.org/2000/svg">
<path d="M13.5 31.3425H11.9925C11.25 31.3425 10.5075 31.05 9.9675 30.51C9.4275 29.97 9.135 29.25 9.135 28.485V22.3425H5.985C5.22 22.3425 4.5 22.05 3.96 21.51C3.42 20.97 3.1275 20.25 3.1275 19.485V13.4775C3.1275 12.7125 3.42 11.9925 3.96 11.4525C4.5 10.9125 5.22 10.62 5.985 10.62H17.505L23.9175 5.2875C24.3 4.95 24.795 4.7475 25.29 4.68C25.8075 4.6125 26.325 4.68 26.775 4.905C27.2475 5.13 27.63 5.4675 27.9 5.895C28.17 6.3225 28.3275 6.8175 28.3275 7.335V10.755C29.385 11.0025 30.33 11.5425 31.1175 12.3075C32.22 13.41 32.8275 14.8725 32.8275 16.4475C32.8275 18.0225 32.22 19.485 31.1175 20.5875C30.33 21.375 29.385 21.8925 28.3275 22.14V25.56C28.3275 26.0775 28.17 26.5725 27.9 27.0225C27.63 27.45 27.2475 27.7875 26.775 28.0125C26.325 28.215 25.8075 28.305 25.29 28.2375C24.7725 28.17 24.3 27.9675 23.9175 27.63L17.505 22.275H16.335V28.4175C16.335 29.16 16.02 29.9025 15.5025 30.4425C14.9625 30.9825 14.2425 31.275 13.4775 31.275L13.5 31.3425ZM11.8575 22.3425V28.485L13.5 28.6425L13.5675 22.3425H11.8575ZM16.3575 19.62H18C18.315 19.62 18.63 19.755 18.855 19.9575L25.65 25.605V7.38L18.855 13.0275C18.6075 13.23 18.315 13.3425 18 13.3425H16.3575V19.62ZM6.0075 13.3425L5.85 19.485L13.59 19.575L13.635 13.32H6.0075V13.3425ZM28.35 13.6575V19.35C28.665 19.1925 28.9575 18.99 29.2275 18.72C29.8125 18.135 30.15 17.325 30.15 16.4925C30.15 15.66 29.8125 14.85 29.2275 14.265C28.98 14.0175 28.665 13.7925 28.35 13.6575Z" fill="#3d4fff"/>
</svg>
