<svg width="18" height="18" viewBox="0 0 18 18" fill="none" xmlns="http://www.w3.org/2000/svg">
<path fill-rule="evenodd" clip-rule="evenodd" d="M3.75 2.925C3.53119 2.925 3.32135 3.01192 3.16663 3.16663C3.01192 3.32135 2.925 3.53119 2.925 3.75V6.825H6.825V2.925H3.75ZM3.75 1.575C3.17315 1.575 2.61993 1.80415 2.21204 2.21204C1.80415 2.61993 1.575 3.17315 1.575 3.75V14.25C1.575 14.8268 1.80415 15.3801 2.21204 15.788C2.61993 16.1958 3.17315 16.425 3.75 16.425H9.375C9.74779 16.425 10.05 16.1228 10.05 15.75C10.05 15.3772 9.74779 15.075 9.375 15.075H8.175V8.175H15.075V9.375C15.075 9.74779 15.3772 10.05 15.75 10.05C16.1228 10.05 16.425 9.74779 16.425 9.375V3.75C16.425 3.17315 16.1958 2.61993 15.788 2.21204C15.3801 1.80415 14.8268 1.575 14.25 1.575H3.75ZM8.175 2.925V6.825H15.075V3.75C15.075 3.53119 14.9881 3.32135 14.8334 3.16663C14.6786 3.01192 14.4688 2.925 14.25 2.925H8.175ZM6.825 8.175H2.925V14.25C2.925 14.4688 3.01192 14.6786 3.16663 14.8334C3.32135 14.9881 3.53119 15.075 3.75 15.075H6.825V8.175Z" fill="#3d4fff"/>
<path d="M13.75 11C14.2214 11 14.6035 11.3821 14.6035 11.8535C14.6035 12.1301 14.7134 12.3955 14.909 12.5911C15.1046 12.7867 15.37 12.8966 15.6466 12.8966C16.1179 12.8966 16.5 13.2787 16.5 13.75C16.5 14.2214 16.1179 14.6035 15.6466 14.6035C15.37 14.6035 15.1046 14.7134 14.909 14.909C14.7134 15.1046 14.6035 15.37 14.6035 15.6466C14.6035 16.1179 14.2214 16.5 13.75 16.5C13.2787 16.5 12.8966 16.1179 12.8966 15.6466C12.8966 15.37 12.7867 15.1046 12.5911 14.909C12.3955 14.7134 12.1301 14.6035 11.8535 14.6035C11.3821 14.6035 11 14.2214 11 13.75C11 13.2787 11.3821 12.8966 11.8535 12.8966C12.1301 12.8966 12.3955 12.7867 12.5911 12.5911C12.7867 12.3955 12.8966 12.1301 12.8966 11.8535C12.8966 11.3821 13.2787 11 13.75 11Z" fill="#3d4fff"/>
<path d="M10.75 9.50005C10.9643 9.50005 11.138 9.67373 11.138 9.88798C11.138 10.0137 11.1879 10.1343 11.2768 10.2232C11.3658 10.3122 11.4864 10.3621 11.6121 10.3621C11.8264 10.3621 12 10.5358 12 10.75C12 10.9643 11.8264 11.138 11.6121 11.138C11.4864 11.138 11.3658 11.1879 11.2768 11.2768C11.1879 11.3658 11.138 11.4864 11.138 11.6121C11.138 11.8264 10.9643 12 10.75 12C10.5358 12 10.3621 11.8264 10.3621 11.6121C10.3621 11.4864 10.3122 11.3658 10.2232 11.2768C10.1343 11.1879 10.0137 11.138 9.88798 11.138C9.67373 11.138 9.50005 10.9643 9.50005 10.75C9.50005 10.5358 9.67373 10.3621 9.88798 10.3621C10.0137 10.3621 10.1343 10.3122 10.2232 10.2232C10.3122 10.1343 10.3621 10.0137 10.3621 9.88798C10.3621 9.67373 10.5358 9.50005 10.75 9.50005Z" fill="#3d4fff"/>
</svg>
