<svg width="36" height="36" viewBox="0 0 36 36" fill="none" xmlns="http://www.w3.org/2000/svg">
<path fill-rule="evenodd" clip-rule="evenodd" d="M7.5 5.85002C7.06239 5.85002 6.64271 6.02386 6.33328 6.3333C6.02384 6.64273 5.85 7.06242 5.85 7.50002V13.65H13.65V5.85002H7.5ZM7.5 3.15002C6.34631 3.15002 5.23987 3.60833 4.42409 4.42411C3.6083 5.23989 3.15 6.34633 3.15 7.50002V28.5C3.15 29.6537 3.6083 30.7602 4.42409 31.5759C5.23987 32.3917 6.34631 32.85 7.5 32.85H28.5C29.6537 32.85 30.7601 32.3917 31.5759 31.5759C32.3917 30.7602 32.85 29.6537 32.85 28.5V7.50002C32.85 6.34633 32.3917 5.23989 31.5759 4.42411C30.7601 3.60833 29.6537 3.15002 28.5 3.15002H7.5ZM16.35 5.85002V13.65H30.15V7.50002C30.15 7.06242 29.9762 6.64273 29.6667 6.3333C29.3573 6.02386 28.9376 5.85002 28.5 5.85002H16.35ZM30.15 16.35H16.35V30.15H28.5C28.9376 30.15 29.3573 29.9762 29.6667 29.6668C29.9762 29.3573 30.15 28.9376 30.15 28.5V16.35ZM13.65 30.15V16.35H5.85V28.5C5.85 28.9376 6.02384 29.3573 6.33328 29.6668C6.64271 29.9762 7.06239 30.15 7.5 30.15H13.65Z" fill="#3d4fff"/>
</svg>
