<svg width="90" height="90" viewBox="0 0 90 90" fill="none" xmlns="http://www.w3.org/2000/svg">
<path fill-rule="evenodd" clip-rule="evenodd" d="M45.5 25.5876C40.2189 25.5876 35.154 27.6855 31.4197 31.4198C27.6854 35.1542 25.5875 40.219 25.5875 45.5001C25.5875 48.115 26.1025 50.7044 27.1032 53.1203C28.1039 55.5362 29.5707 57.7313 31.4197 59.5804C33.2688 61.4294 35.4639 62.8962 37.8798 63.8969C40.2957 64.8975 42.885 65.4126 45.5 65.4126C48.1149 65.4126 50.7043 64.8975 53.1202 63.8969C55.5361 62.8962 57.7312 61.4294 59.5802 59.5804C61.4293 57.7313 62.896 55.5362 63.8967 53.1203C64.8974 50.7044 65.4125 48.115 65.4125 45.5001C65.4125 40.219 63.3146 35.1542 59.5802 31.4198C55.8459 27.6855 50.7811 25.5876 45.5 25.5876ZM28.2908 28.2909C32.8549 23.7267 39.0453 21.1626 45.5 21.1626C51.9547 21.1626 58.145 23.7267 62.7092 28.2909C67.2734 32.8551 69.8375 39.0454 69.8375 45.5001C69.8375 48.6961 69.208 51.8609 67.9849 54.8137C66.7618 57.7664 64.9691 60.4494 62.7092 62.7093C60.4492 64.9693 57.7663 66.7619 54.8135 67.985C51.8608 69.2081 48.696 69.8376 45.5 69.8376C42.3039 69.8376 39.1392 69.2081 36.1864 67.985C33.2337 66.7619 30.5507 64.9693 28.2908 62.7093C26.0308 60.4494 24.2381 57.7664 23.0151 54.8137C21.792 51.8609 21.1625 48.6961 21.1625 45.5001C21.1625 39.0454 23.7266 32.8551 28.2908 28.2909ZM45.3756 35.5423C46.7125 34.2054 48.5259 33.4543 50.4166 33.4543C52.3074 33.4543 54.1207 34.2054 55.4577 35.5423C56.7947 36.8793 57.5458 38.6927 57.5458 40.5834C57.5458 42.4742 56.7947 44.2875 55.4577 45.6245C54.1207 46.9615 52.3074 47.7126 50.4166 47.7126C49.2844 47.7126 48.18 47.4433 47.1889 46.9401L44.9414 49.1876L47.0644 51.3106C47.9285 52.1747 47.9285 53.5755 47.0644 54.4396C46.2004 55.3036 44.7995 55.3036 43.9355 54.4396L41.8125 52.3165L40.0248 54.1043L42.1478 56.2273C43.0118 57.0913 43.0118 58.4922 42.1478 59.3562C41.2837 60.2203 39.8829 60.2203 39.0188 59.3562L35.3313 55.6687C34.9164 55.2538 34.6833 54.6911 34.6833 54.1043C34.6833 53.5175 34.9164 52.9547 35.3313 52.5398L40.2463 47.6248C40.2469 47.6242 40.2474 47.6237 40.248 47.6231C40.2486 47.6226 40.2491 47.622 40.2497 47.6214L44.06 43.8111C43.5568 42.8201 43.2875 41.7157 43.2875 40.5834C43.2875 38.6927 44.0386 36.8793 45.3756 35.5423ZM50.4166 37.8793C49.6995 37.8793 49.0116 38.1642 48.5045 38.6713C47.9974 39.1784 47.7125 39.8662 47.7125 40.5834C47.7125 41.3006 47.9974 41.9884 48.5045 42.4956C49.0116 43.0027 49.6995 43.2876 50.4166 43.2876C51.1338 43.2876 51.8216 43.0027 52.3288 42.4956C52.8359 41.9884 53.1208 41.3006 53.1208 40.5834C53.1208 39.8662 52.8359 39.1784 52.3288 38.6713C51.8216 38.1642 51.1338 37.8793 50.4166 37.8793Z" fill="black"/>
</svg>
