<svg width="90" height="90" viewBox="0 0 90 90" fill="none" xmlns="http://www.w3.org/2000/svg">
<path fill-rule="evenodd" clip-rule="evenodd" d="M7.4999 24.9594C7.06229 24.9594 6.64261 25.1413 6.33318 25.4651C6.02374 25.7889 5.8499 26.2282 5.8499 26.6861V33.1222H13.6499V24.9594H7.4999ZM7.4999 22.1338C6.34621 22.1338 5.23977 22.6134 4.42399 23.4671C3.6082 24.3209 3.1499 25.4788 3.1499 26.6861V48.6629C3.1499 49.8702 3.6082 51.0281 4.42399 51.8818C5.23977 52.7356 6.34621 53.2152 7.4999 53.2152H28.4999C29.6536 53.2152 30.76 52.7356 31.5758 51.8818C32.3916 51.0281 32.8499 49.8702 32.8499 48.6629V26.6861C32.8499 25.4788 32.3916 24.3209 31.5758 23.4671C30.76 22.6134 29.6536 22.1338 28.4999 22.1338H7.4999ZM16.3499 24.9594V33.1222H30.1499V26.6861C30.1499 26.2282 29.9761 25.7889 29.6666 25.4651C29.3572 25.1413 28.9375 24.9594 28.4999 24.9594H16.3499ZM30.1499 35.9477H16.3499V50.3896H28.4999C28.9375 50.3896 29.3572 50.2077 29.6666 49.8839C29.9761 49.56 30.1499 49.1208 30.1499 48.6629V35.9477ZM13.6499 50.3896V35.9477H5.8499V48.6629C5.8499 49.1208 6.02374 49.56 6.33318 49.8839C6.64261 50.2077 7.06229 50.3896 7.4999 50.3896H13.6499Z" fill="black"/>
<path fill-rule="evenodd" clip-rule="evenodd" d="M48.4999 58.4479C48.0623 58.4479 47.6426 58.6298 47.3332 58.9536C47.0237 59.2775 46.8499 59.7167 46.8499 60.1746V66.6107H54.6499V58.4479H48.4999ZM48.4999 55.6223C47.3462 55.6223 46.2398 56.1019 45.424 56.9557C44.6082 57.8094 44.1499 58.9673 44.1499 60.1746V82.1514C44.1499 83.3587 44.6082 84.5166 45.424 85.3704C46.2398 86.2241 47.3462 86.7037 48.4999 86.7037H69.4999C70.6536 86.7037 71.76 86.2241 72.5758 85.3704C73.3916 84.5166 73.8499 83.3587 73.8499 82.1514V60.1746C73.8499 58.9673 73.3916 57.8094 72.5758 56.9557C71.76 56.1019 70.6536 55.6223 69.4999 55.6223H48.4999ZM57.3499 58.4479V66.6107H71.1499V60.1746C71.1499 59.7167 70.9761 59.2775 70.6666 58.9536C70.3572 58.6298 69.9375 58.4479 69.4999 58.4479H57.3499ZM71.1499 69.4363H57.3499V83.8781H69.4999C69.9375 83.8781 70.3572 83.6962 70.6666 83.3724C70.9761 83.0485 71.1499 82.6093 71.1499 82.1514V69.4363ZM54.6499 83.8781V69.4363H46.8499V82.1514C46.8499 82.6093 47.0237 83.0485 47.3332 83.3724C47.6426 83.6962 48.0623 83.8781 48.4999 83.8781H54.6499Z" fill="black"/>
<path fill-rule="evenodd" clip-rule="evenodd" d="M61.4999 6.12221C61.0623 6.12221 60.6426 6.30414 60.3332 6.62796C60.0237 6.95179 59.8499 7.39099 59.8499 7.84896V14.285H67.6499V6.12221H61.4999ZM61.4999 3.29663C60.3462 3.29663 59.2398 3.77625 58.424 4.62998C57.6082 5.4837 57.1499 6.6416 57.1499 7.84896V29.8257C57.1499 31.0331 57.6082 32.191 58.424 33.0447C59.2398 33.8984 60.3462 34.378 61.4999 34.378H82.4999C83.6536 34.378 84.76 33.8984 85.5758 33.0447C86.3916 32.191 86.8499 31.0331 86.8499 29.8257V7.84896C86.8499 6.64161 86.3916 5.4837 85.5758 4.62998C84.76 3.77625 83.6536 3.29663 82.4999 3.29663H61.4999ZM70.3499 6.12221V14.285H84.1499V7.84896C84.1499 7.39099 83.9761 6.95179 83.6666 6.62796C83.3572 6.30414 82.9375 6.12221 82.4999 6.12221H70.3499ZM84.1499 17.1106H70.3499V31.5524H82.4999C82.9375 31.5524 83.3572 31.3705 83.6666 31.0467C83.9761 30.7229 84.1499 30.2837 84.1499 29.8257V17.1106ZM67.6499 31.5524V17.1106H59.8499V29.8257C59.8499 30.2837 60.0237 30.7229 60.3332 31.0467C60.6426 31.3705 61.0623 31.5524 61.4999 31.5524H67.6499Z" fill="black"/>
<path d="M33.2922 33.2889C33.1777 33.6952 33.4018 34.1139 33.7927 34.2241L40.1625 36.0191C40.5534 36.1293 40.9631 35.8891 41.0776 35.4828C41.1921 35.0765 40.9681 34.6578 40.5772 34.5476L34.9151 32.952L36.5738 27.0661C36.6883 26.6598 36.4642 26.2411 36.0733 26.131C35.6824 26.0208 35.2727 26.2609 35.1582 26.6672L33.2922 33.2889ZM58.6461 18.1759L33.6461 32.827L34.3539 34.1496L59.3539 19.4984L58.6461 18.1759Z" fill="black"/>
<path d="M33.9238 51.5628C33.5209 51.6031 33.2284 51.9772 33.2705 52.3984L33.9563 59.2629C33.9984 59.6841 34.3591 59.993 34.7619 59.9528C35.1648 59.9125 35.4573 59.5384 35.4152 59.1172L34.8057 53.0154L40.6415 52.4324C41.0444 52.3921 41.3369 52.018 41.2948 51.5968C41.2527 51.1756 40.892 50.8667 40.4891 50.9069L33.9238 51.5628ZM45.4619 61.1533L34.4619 51.7347L33.5381 52.9164L44.5381 62.335L45.4619 61.1533Z" fill="black"/>
</svg>
