<svg width="90" height="90" viewBox="0 0 90 90" fill="none" xmlns="http://www.w3.org/2000/svg">
<path fill-rule="evenodd" clip-rule="evenodd" d="M37.3708 23.3751C37.3708 22.1532 38.3614 21.1626 39.5833 21.1626H49.4166C50.6386 21.1626 51.6291 22.1532 51.6291 23.3751V33.2084C51.6291 34.4304 50.6386 35.4209 49.4166 35.4209H39.5833C38.3614 35.4209 37.3708 34.4304 37.3708 33.2084V23.3751ZM41.7958 25.5876V30.9959H47.2041V25.5876H41.7958Z" fill="black"/>
<path fill-rule="evenodd" clip-rule="evenodd" d="M20.1625 57.7918C20.1625 56.5698 21.153 55.5793 22.375 55.5793H32.2083C33.4302 55.5793 34.4208 56.5698 34.4208 57.7918V67.6251C34.4208 68.847 33.4302 69.8376 32.2083 69.8376H22.375C21.153 69.8376 20.1625 68.847 20.1625 67.6251V57.7918ZM24.5875 60.0043V65.4126H29.9958V60.0043H24.5875Z" fill="black"/>
<path fill-rule="evenodd" clip-rule="evenodd" d="M54.5791 57.7918C54.5791 56.5698 55.5697 55.5793 56.7916 55.5793H66.625C67.8469 55.5793 68.8375 56.5698 68.8375 57.7918V67.6251C68.8375 68.847 67.8469 69.8376 66.625 69.8376H56.7916C55.5697 69.8376 54.5791 68.847 54.5791 67.6251V57.7918ZM59.0041 60.0043V65.4126H64.4125V60.0043H59.0041Z" fill="black"/>
<path fill-rule="evenodd" clip-rule="evenodd" d="M43.1178 46.2308C43.9259 45.5843 45.0741 45.5843 45.8821 46.2308L58.1738 56.0641C59.1279 56.8274 59.2826 58.2197 58.5193 59.1739C57.756 60.1281 56.3637 60.2828 55.4095 59.5194L44.5 50.7918L33.5904 59.5194C32.6363 60.2828 31.244 60.1281 30.4806 59.1739C29.7173 58.2197 29.872 56.8274 30.8262 56.0641L43.1178 46.2308Z" fill="black"/>
<path fill-rule="evenodd" clip-rule="evenodd" d="M44.5 30.9959C45.7219 30.9959 46.7125 31.9865 46.7125 33.2084V47.9584C46.7125 49.1804 45.7219 50.1709 44.5 50.1709C43.278 50.1709 42.2875 49.1804 42.2875 47.9584V33.2084C42.2875 31.9865 43.278 30.9959 44.5 30.9959Z" fill="black"/>
</svg>
