<svg width="90" height="90" viewBox="0 0 90 90" fill="none" xmlns="http://www.w3.org/2000/svg">
<path fill-rule="evenodd" clip-rule="evenodd" d="M9.375 7.3125C8.82799 7.3125 8.30339 7.5298 7.91659 7.91659C7.5298 8.30339 7.3125 8.82799 7.3125 9.375V17.0625H17.0625V7.3125H9.375ZM9.375 3.9375C7.93289 3.9375 6.54984 4.51038 5.53011 5.53011C4.51038 6.54984 3.9375 7.93289 3.9375 9.375V35.625C3.9375 37.0671 4.51038 38.4502 5.53011 39.4699C6.54984 40.4896 7.93289 41.0625 9.375 41.0625H35.625C37.0671 41.0625 38.4502 40.4896 39.4699 39.4699C40.4896 38.4502 41.0625 37.0671 41.0625 35.625V9.375C41.0625 7.93289 40.4896 6.54984 39.4699 5.53011C38.4502 4.51038 37.0671 3.9375 35.625 3.9375H9.375ZM20.4375 7.3125V17.0625H37.6875V9.375C37.6875 8.82799 37.4702 8.30338 37.0834 7.91659C36.6966 7.5298 36.172 7.3125 35.625 7.3125H20.4375ZM37.6875 20.4375H20.4375V37.6875H35.625C36.172 37.6875 36.6966 37.4702 37.0834 37.0834C37.4702 36.6966 37.6875 36.172 37.6875 35.625V20.4375ZM17.0625 37.6875V20.4375H7.3125V35.625C7.3125 36.172 7.5298 36.6966 7.91659 37.0834C8.30338 37.4702 8.82799 37.6875 9.375 37.6875H17.0625Z" fill="black"/>
<path fill-rule="evenodd" clip-rule="evenodd" d="M54.375 52.3125C53.828 52.3125 53.3034 52.5298 52.9166 52.9166C52.5298 53.3034 52.3125 53.828 52.3125 54.375V62.0625H62.0625V52.3125H54.375ZM54.375 48.9375C52.9329 48.9375 51.5498 49.5104 50.5301 50.5301C49.5104 51.5498 48.9375 52.9329 48.9375 54.375V80.625C48.9375 82.0671 49.5104 83.4502 50.5301 84.4699C51.5498 85.4896 52.9329 86.0625 54.375 86.0625H80.625C82.0671 86.0625 83.4502 85.4896 84.4699 84.4699C85.4896 83.4502 86.0625 82.0671 86.0625 80.625V54.375C86.0625 52.9329 85.4896 51.5498 84.4699 50.5301C83.4502 49.5104 82.0671 48.9375 80.625 48.9375H54.375ZM65.4375 52.3125V62.0625H82.6875V54.375C82.6875 53.828 82.4702 53.3034 82.0834 52.9166C81.6966 52.5298 81.172 52.3125 80.625 52.3125H65.4375ZM82.6875 65.4375H65.4375V82.6875H80.625C81.172 82.6875 81.6966 82.4702 82.0834 82.0834C82.4702 81.6966 82.6875 81.172 82.6875 80.625V65.4375ZM62.0625 82.6875V65.4375H52.3125V80.625C52.3125 81.172 52.5298 81.6966 52.9166 82.0834C53.3034 82.4702 53.828 82.6875 54.375 82.6875H62.0625Z" fill="black"/>
<path d="M67.5 32.797L68.25 32.797L68.25 32.797L67.5 32.797ZM57.5 22.797L57.5 22.047L57.5 22.047L57.5 22.797ZM42.5947 22.2666C42.3018 22.5595 42.3018 23.0344 42.5947 23.3273L47.3676 28.1003C47.6605 28.3932 48.1354 28.3932 48.4283 28.1003C48.7212 27.8074 48.7212 27.3325 48.4283 27.0396L44.1857 22.797L48.4283 18.5543C48.7212 18.2614 48.7212 17.7866 48.4283 17.4937C48.1354 17.2008 47.6605 17.2008 47.3676 17.4937L42.5947 22.2666ZM68.25 51.25L68.25 32.797L66.75 32.797L66.75 51.25L68.25 51.25ZM57.5 22.047L43.125 22.047L43.125 23.547L57.5 23.547L57.5 22.047ZM68.25 32.797C68.25 26.8599 63.4371 22.047 57.5 22.047L57.5 23.547C62.6086 23.547 66.75 27.6883 66.75 32.797L68.25 32.797Z" fill="black"/>
</svg>
