<svg width="265" height="264" viewBox="0 0 265 264" fill="none" xmlns="http://www.w3.org/2000/svg">
<g filter="url(#filter0_d_767_1510)">
<rect x="10.125" y="44.125" width="39.75" height="34.75" fill="#EAECF0"/>
<rect x="10.125" y="44.125" width="39.75" height="34.75" stroke="#98A2B3" stroke-width="0.25"/>
<path d="M22.8565 66V59.4545H24.1307V66H22.8565ZM23.5 58.4446C23.2784 58.4446 23.0881 58.3707 22.929 58.223C22.7727 58.0724 22.6946 57.8935 22.6946 57.6861C22.6946 57.4759 22.7727 57.2969 22.929 57.1491C23.0881 56.9986 23.2784 56.9233 23.5 56.9233C23.7216 56.9233 23.9105 56.9986 24.0668 57.1491C24.2259 57.2969 24.3054 57.4759 24.3054 57.6861C24.3054 57.8935 24.2259 58.0724 24.0668 58.223C23.9105 58.3707 23.7216 58.4446 23.5 58.4446ZM28.2951 66.1278C27.7667 66.1278 27.2951 65.9929 26.8803 65.723C26.4684 65.4503 26.1445 65.0625 25.9087 64.5597C25.6758 64.054 25.5593 63.4474 25.5593 62.7401C25.5593 62.0327 25.6772 61.4276 25.913 60.9247C26.1516 60.4219 26.4783 60.0369 26.8931 59.7699C27.3079 59.5028 27.7781 59.3693 28.3036 59.3693C28.7099 59.3693 29.0366 59.4375 29.2837 59.5739C29.5337 59.7074 29.7269 59.8636 29.8633 60.0426C30.0025 60.2216 30.1104 60.3793 30.1871 60.5156H30.2638V57.2727H31.538V66H30.2937V64.9815H30.1871C30.1104 65.1207 29.9996 65.2798 29.8548 65.4588C29.7127 65.6378 29.5167 65.794 29.2667 65.9276C29.0167 66.0611 28.6928 66.1278 28.2951 66.1278ZM28.5763 65.0412C28.9428 65.0412 29.2525 64.9446 29.5053 64.7514C29.761 64.5554 29.9542 64.2841 30.0849 63.9375C30.2184 63.5909 30.2852 63.1875 30.2852 62.7273C30.2852 62.2727 30.2198 61.875 30.0891 61.5341C29.9585 61.1932 29.7667 60.9276 29.5138 60.7372C29.261 60.5469 28.9485 60.4517 28.5763 60.4517C28.1928 60.4517 27.8732 60.5511 27.6175 60.75C27.3619 60.9489 27.1687 61.2202 27.038 61.5639C26.9102 61.9077 26.8462 62.2955 26.8462 62.7273C26.8462 63.1648 26.9116 63.5582 27.0423 63.9077C27.1729 64.2571 27.3661 64.5341 27.6218 64.7386C27.8803 64.9403 28.1985 65.0412 28.5763 65.0412Z" fill="black"/>
<rect x="50.125" y="44.125" width="84.75" height="34.75" fill="#EAECF0"/>
<rect x="50.125" y="44.125" width="84.75" height="34.75" stroke="#98A2B3" stroke-width="0.25"/>
<path d="M65.9716 59.4545V60.4773H62.2727V59.4545H65.9716ZM63.2869 66V58.696C63.2869 58.2869 63.3764 57.9474 63.5554 57.6776C63.7344 57.4048 63.9716 57.2017 64.267 57.0682C64.5625 56.9318 64.8835 56.8636 65.2301 56.8636C65.4858 56.8636 65.7045 56.8849 65.8864 56.9276C66.0682 56.9673 66.2031 57.0043 66.2912 57.0384L65.9929 58.0696C65.9332 58.0526 65.8565 58.0327 65.7628 58.0099C65.669 57.9844 65.5554 57.9716 65.4219 57.9716C65.1122 57.9716 64.8906 58.0483 64.7571 58.2017C64.6264 58.3551 64.5611 58.5767 64.5611 58.8665V66H63.2869ZM67.2862 66V59.4545H68.5604V66H67.2862ZM67.9297 58.4446C67.7081 58.4446 67.5178 58.3707 67.3587 58.223C67.2024 58.0724 67.1243 57.8935 67.1243 57.6861C67.1243 57.4759 67.2024 57.2969 67.3587 57.1491C67.5178 56.9986 67.7081 56.9233 67.9297 56.9233C68.1513 56.9233 68.3402 56.9986 68.4964 57.1491C68.6555 57.2969 68.7351 57.4759 68.7351 57.6861C68.7351 57.8935 68.6555 58.0724 68.4964 58.223C68.3402 58.3707 68.1513 58.4446 67.9297 58.4446ZM70.2745 66V59.4545H71.506V60.4943H71.5742C71.6935 60.142 71.9038 59.8651 72.2049 59.6634C72.5089 59.4588 72.8526 59.3565 73.2362 59.3565C73.3157 59.3565 73.4094 59.3594 73.5174 59.3651C73.6282 59.3707 73.7148 59.3778 73.7773 59.3864V60.6051C73.7262 60.5909 73.6353 60.5753 73.5046 60.5582C73.3739 60.5384 73.2433 60.5284 73.1126 60.5284C72.8114 60.5284 72.543 60.5923 72.3072 60.7202C72.0742 60.8452 71.8896 61.0199 71.7532 61.2443C71.6168 61.4659 71.5487 61.7187 71.5487 62.0028V66H70.2745ZM79.7848 61.0526L78.63 61.2571C78.5817 61.1094 78.505 60.9687 78.3999 60.8352C78.2976 60.7017 78.1584 60.5923 77.9822 60.5071C77.8061 60.4219 77.5859 60.3793 77.3217 60.3793C76.9609 60.3793 76.6598 60.4602 76.4183 60.6222C76.1768 60.7812 76.0561 60.9872 76.0561 61.2401C76.0561 61.4588 76.1371 61.6349 76.299 61.7685C76.4609 61.902 76.7223 62.0114 77.0831 62.0966L78.1229 62.3352C78.7251 62.4744 79.174 62.6889 79.4695 62.9787C79.7649 63.2685 79.9126 63.6449 79.9126 64.108C79.9126 64.5 79.799 64.8494 79.5717 65.1562C79.3473 65.4602 79.0334 65.6989 78.63 65.8722C78.2294 66.0455 77.7649 66.1321 77.2365 66.1321C76.5036 66.1321 75.9055 65.9759 75.4425 65.6634C74.9794 65.348 74.6953 64.9006 74.5902 64.321L75.8217 64.1335C75.8984 64.4545 76.0561 64.6974 76.2947 64.8622C76.5334 65.0241 76.8445 65.1051 77.228 65.1051C77.6456 65.1051 77.9794 65.0185 78.2294 64.8452C78.4794 64.669 78.6044 64.4545 78.6044 64.2017C78.6044 63.9972 78.5277 63.8253 78.3743 63.6861C78.2237 63.5469 77.9922 63.4418 77.6797 63.3707L76.5717 63.1278C75.9609 62.9886 75.5092 62.767 75.2166 62.4631C74.9268 62.1591 74.782 61.7741 74.782 61.3082C74.782 60.9219 74.8899 60.5838 75.1058 60.294C75.3217 60.0043 75.62 59.7784 76.0007 59.6165C76.3814 59.4517 76.8175 59.3693 77.3089 59.3693C78.0163 59.3693 78.5732 59.5227 78.9794 59.8295C79.3857 60.1335 79.6541 60.5412 79.7848 61.0526ZM84.369 59.4545V60.4773H80.7937V59.4545H84.369ZM81.7525 57.8864H83.0266V64.0781C83.0266 64.3253 83.0636 64.5114 83.1374 64.6364C83.2113 64.7585 83.3065 64.8423 83.4229 64.8878C83.5423 64.9304 83.6715 64.9517 83.8107 64.9517C83.913 64.9517 84.0025 64.9446 84.0792 64.9304C84.1559 64.9162 84.2156 64.9048 84.2582 64.8963L84.4883 65.9489C84.4144 65.9773 84.3093 66.0057 84.1729 66.0341C84.0366 66.0653 83.8661 66.0824 83.6616 66.0852C83.3263 66.0909 83.0138 66.0312 82.7241 65.9062C82.4343 65.7812 82.1999 65.5881 82.021 65.3267C81.842 65.0653 81.7525 64.7372 81.7525 64.3423V57.8864ZM90.4531 66V67.0824H84.9091V66H90.4531ZM93.1229 62.1136V66H91.8487V59.4545H93.0717V60.5199H93.1527C93.3033 60.1733 93.5391 59.8949 93.8601 59.6847C94.1839 59.4744 94.5916 59.3693 95.0831 59.3693C95.5291 59.3693 95.9197 59.4631 96.255 59.6506C96.5902 59.8352 96.8501 60.1108 97.0348 60.4773C97.2195 60.8437 97.3118 61.2969 97.3118 61.8366V66H96.0376V61.9901C96.0376 61.5156 95.9141 61.1449 95.6669 60.8778C95.4197 60.608 95.0803 60.473 94.6484 60.473C94.353 60.473 94.0902 60.5369 93.8601 60.6648C93.6328 60.7926 93.4524 60.9801 93.3189 61.2273C93.1882 61.4716 93.1229 61.767 93.1229 62.1136ZM100.925 66.1449C100.511 66.1449 100.136 66.0682 99.8004 65.9148C99.4652 65.7585 99.1996 65.5327 99.0036 65.2372C98.8104 64.9418 98.7138 64.5795 98.7138 64.1506C98.7138 63.7812 98.7848 63.4773 98.9268 63.2386C99.0689 63 99.2607 62.8111 99.5021 62.6719C99.7436 62.5327 100.013 62.4276 100.312 62.3565C100.61 62.2855 100.914 62.2315 101.224 62.1946C101.616 62.1491 101.934 62.1122 102.178 62.0838C102.423 62.0526 102.6 62.0028 102.711 61.9347C102.822 61.8665 102.877 61.7557 102.877 61.6023V61.5724C102.877 61.2003 102.772 60.9119 102.562 60.7074C102.354 60.5028 102.045 60.4006 101.633 60.4006C101.204 60.4006 100.866 60.4957 100.619 60.6861C100.374 60.8736 100.205 61.0824 100.112 61.3125L98.9141 61.0398C99.0561 60.642 99.2635 60.321 99.5362 60.0767C99.8118 59.8295 100.129 59.6506 100.487 59.5398C100.844 59.4261 101.221 59.3693 101.616 59.3693C101.877 59.3693 102.154 59.4006 102.447 59.4631C102.742 59.5227 103.018 59.6335 103.273 59.7955C103.532 59.9574 103.744 60.1889 103.908 60.4901C104.073 60.7884 104.156 61.1761 104.156 61.6534V66H102.911V65.1051H102.86C102.778 65.2699 102.654 65.4318 102.489 65.5909C102.325 65.75 102.113 65.8821 101.854 65.9872C101.596 66.0923 101.286 66.1449 100.925 66.1449ZM101.202 65.1222C101.555 65.1222 101.856 65.0526 102.106 64.9134C102.359 64.7741 102.55 64.5923 102.681 64.3679C102.815 64.1406 102.881 63.8977 102.881 63.6392V62.7955C102.836 62.8409 102.748 62.8835 102.617 62.9233C102.489 62.9602 102.343 62.9929 102.178 63.0213C102.013 63.0469 101.853 63.071 101.697 63.0938C101.54 63.1136 101.41 63.1307 101.305 63.1449C101.058 63.1761 100.832 63.2287 100.627 63.3026C100.425 63.3764 100.263 63.483 100.141 63.6222C100.022 63.7585 99.9624 63.9403 99.9624 64.1676C99.9624 64.483 100.079 64.7216 100.312 64.8835C100.545 65.0426 100.842 65.1222 101.202 65.1222ZM105.853 66V59.4545H107.076V60.5199H107.157C107.293 60.1591 107.516 59.8778 107.826 59.6761C108.135 59.4716 108.506 59.3693 108.938 59.3693C109.375 59.3693 109.742 59.4716 110.037 59.6761C110.336 59.8807 110.556 60.1619 110.698 60.5199H110.766C110.922 60.1705 111.171 59.892 111.512 59.6847C111.853 59.4744 112.259 59.3693 112.73 59.3693C113.324 59.3693 113.809 59.5554 114.184 59.9276C114.561 60.2997 114.75 60.8608 114.75 61.6108V66H113.476V61.7301C113.476 61.2869 113.355 60.9659 113.114 60.767C112.873 60.5682 112.584 60.4688 112.249 60.4688C111.834 60.4688 111.512 60.5966 111.282 60.8523C111.051 61.1051 110.936 61.4304 110.936 61.8281V66H109.667V61.6491C109.667 61.294 109.556 61.0085 109.334 60.7926C109.113 60.5767 108.824 60.4688 108.469 60.4688C108.228 60.4688 108.005 60.5327 107.8 60.6605C107.598 60.7855 107.435 60.9602 107.31 61.1847C107.188 61.4091 107.127 61.669 107.127 61.9645V66H105.853ZM119.279 66.1321C118.634 66.1321 118.079 65.9943 117.613 65.7188C117.15 65.4403 116.792 65.0497 116.539 64.5469C116.289 64.0412 116.164 63.4489 116.164 62.7699C116.164 62.0994 116.289 61.5085 116.539 60.9972C116.792 60.4858 117.144 60.0866 117.596 59.7997C118.05 59.5128 118.582 59.3693 119.19 59.3693C119.559 59.3693 119.917 59.4304 120.263 59.5526C120.61 59.6747 120.921 59.8665 121.197 60.1278C121.472 60.3892 121.69 60.7287 121.849 61.1463C122.008 61.5611 122.087 62.0653 122.087 62.6591V63.1108H116.884V62.1562H120.839C120.839 61.821 120.771 61.5241 120.634 61.2656C120.498 61.0043 120.306 60.7983 120.059 60.6477C119.815 60.4972 119.528 60.4219 119.198 60.4219C118.84 60.4219 118.528 60.5099 118.261 60.6861C117.996 60.8594 117.792 61.0866 117.647 61.3679C117.505 61.6463 117.434 61.9489 117.434 62.2756V63.0213C117.434 63.4588 117.511 63.831 117.664 64.1378C117.82 64.4446 118.038 64.679 118.316 64.8409C118.594 65 118.92 65.0795 119.292 65.0795C119.533 65.0795 119.754 65.0455 119.952 64.9773C120.151 64.9062 120.323 64.8011 120.468 64.6619C120.613 64.5227 120.724 64.3509 120.8 64.1463L122.006 64.3636C121.91 64.7187 121.737 65.0298 121.487 65.2969C121.239 65.5611 120.928 65.767 120.553 65.9148C120.181 66.0597 119.756 66.1321 119.279 66.1321Z" fill="black"/>
<rect x="135.125" y="44.125" width="84.75" height="34.75" fill="#EAECF0"/>
<rect x="135.125" y="44.125" width="84.75" height="34.75" stroke="#98A2B3" stroke-width="0.25"/>
<path d="M149.131 57.2727V66H147.857V57.2727H149.131ZM152.75 66.1449C152.335 66.1449 151.96 66.0682 151.625 65.9148C151.289 65.7585 151.024 65.5327 150.828 65.2372C150.635 64.9418 150.538 64.5795 150.538 64.1506C150.538 63.7812 150.609 63.4773 150.751 63.2386C150.893 63 151.085 62.8111 151.326 62.6719C151.568 62.5327 151.838 62.4276 152.136 62.3565C152.434 62.2855 152.738 62.2315 153.048 62.1946C153.44 62.1491 153.758 62.1122 154.002 62.0838C154.247 62.0526 154.424 62.0028 154.535 61.9347C154.646 61.8665 154.701 61.7557 154.701 61.6023V61.5724C154.701 61.2003 154.596 60.9119 154.386 60.7074C154.179 60.5028 153.869 60.4006 153.457 60.4006C153.028 60.4006 152.69 60.4957 152.443 60.6861C152.199 60.8736 152.029 61.0824 151.936 61.3125L150.738 61.0398C150.88 60.642 151.088 60.321 151.36 60.0767C151.636 59.8295 151.953 59.6506 152.311 59.5398C152.669 59.4261 153.045 59.3693 153.44 59.3693C153.701 59.3693 153.978 59.4006 154.271 59.4631C154.566 59.5227 154.842 59.6335 155.098 59.7955C155.356 59.9574 155.568 60.1889 155.733 60.4901C155.897 60.7884 155.98 61.1761 155.98 61.6534V66H154.735V65.1051H154.684C154.602 65.2699 154.478 65.4318 154.314 65.5909C154.149 65.75 153.937 65.8821 153.679 65.9872C153.42 66.0923 153.11 66.1449 152.75 66.1449ZM153.027 65.1222C153.379 65.1222 153.68 65.0526 153.93 64.9134C154.183 64.7741 154.375 64.5923 154.505 64.3679C154.639 64.1406 154.706 63.8977 154.706 63.6392V62.7955C154.66 62.8409 154.572 62.8835 154.441 62.9233C154.314 62.9602 154.167 62.9929 154.002 63.0213C153.838 63.0469 153.677 63.071 153.521 63.0938C153.365 63.1136 153.234 63.1307 153.129 63.1449C152.882 63.1761 152.656 63.2287 152.451 63.3026C152.25 63.3764 152.088 63.483 151.966 63.6222C151.846 63.7585 151.787 63.9403 151.787 64.1676C151.787 64.483 151.903 64.7216 152.136 64.8835C152.369 65.0426 152.666 65.1222 153.027 65.1222ZM162.582 61.0526L161.427 61.2571C161.379 61.1094 161.302 60.9687 161.197 60.8352C161.094 60.7017 160.955 60.5923 160.779 60.5071C160.603 60.4219 160.383 60.3793 160.119 60.3793C159.758 60.3793 159.457 60.4602 159.215 60.6222C158.974 60.7812 158.853 60.9872 158.853 61.2401C158.853 61.4588 158.934 61.6349 159.096 61.7685C159.258 61.902 159.519 62.0114 159.88 62.0966L160.92 62.3352C161.522 62.4744 161.971 62.6889 162.266 62.9787C162.562 63.2685 162.71 63.6449 162.71 64.108C162.71 64.5 162.596 64.8494 162.369 65.1562C162.144 65.4602 161.83 65.6989 161.427 65.8722C161.026 66.0455 160.562 66.1321 160.033 66.1321C159.3 66.1321 158.702 65.9759 158.239 65.6634C157.776 65.348 157.492 64.9006 157.387 64.321L158.619 64.1335C158.695 64.4545 158.853 64.6974 159.092 64.8622C159.33 65.0241 159.641 65.1051 160.025 65.1051C160.442 65.1051 160.776 65.0185 161.026 64.8452C161.276 64.669 161.401 64.4545 161.401 64.2017C161.401 63.9972 161.325 63.8253 161.171 63.6861C161.021 63.5469 160.789 63.4418 160.477 63.3707L159.369 63.1278C158.758 62.9886 158.306 62.767 158.013 62.4631C157.724 62.1591 157.579 61.7741 157.579 61.3082C157.579 60.9219 157.687 60.5838 157.903 60.294C158.119 60.0043 158.417 59.7784 158.798 59.6165C159.178 59.4517 159.614 59.3693 160.106 59.3693C160.813 59.3693 161.37 59.5227 161.776 59.8295C162.183 60.1335 162.451 60.5412 162.582 61.0526ZM167.166 59.4545V60.4773H163.591V59.4545H167.166ZM164.549 57.8864H165.824V64.0781C165.824 64.3253 165.86 64.5114 165.934 64.6364C166.008 64.7585 166.103 64.8423 166.22 64.8878C166.339 64.9304 166.468 64.9517 166.608 64.9517C166.71 64.9517 166.799 64.9446 166.876 64.9304C166.953 64.9162 167.012 64.9048 167.055 64.8963L167.285 65.9489C167.211 65.9773 167.106 66.0057 166.97 66.0341C166.833 66.0653 166.663 66.0824 166.458 66.0852C166.123 66.0909 165.811 66.0312 165.521 65.9062C165.231 65.7812 164.997 65.5881 164.818 65.3267C164.639 65.0653 164.549 64.7372 164.549 64.3423V57.8864ZM173.25 66V67.0824H167.706V66H173.25ZM175.92 62.1136V66H174.646V59.4545H175.869V60.5199H175.95C176.1 60.1733 176.336 59.8949 176.657 59.6847C176.981 59.4744 177.388 59.3693 177.88 59.3693C178.326 59.3693 178.717 59.4631 179.052 59.6506C179.387 59.8352 179.647 60.1108 179.832 60.4773C180.016 60.8437 180.109 61.2969 180.109 61.8366V66H178.835V61.9901C178.835 61.5156 178.711 61.1449 178.464 60.8778C178.217 60.608 177.877 60.473 177.445 60.473C177.15 60.473 176.887 60.5369 176.657 60.6648C176.43 60.7926 176.249 60.9801 176.116 61.2273C175.985 61.4716 175.92 61.767 175.92 62.1136ZM183.722 66.1449C183.308 66.1449 182.933 66.0682 182.597 65.9148C182.262 65.7585 181.996 65.5327 181.8 65.2372C181.607 64.9418 181.511 64.5795 181.511 64.1506C181.511 63.7812 181.582 63.4773 181.724 63.2386C181.866 63 182.058 62.8111 182.299 62.6719C182.54 62.5327 182.81 62.4276 183.109 62.3565C183.407 62.2855 183.711 62.2315 184.021 62.1946C184.413 62.1491 184.731 62.1122 184.975 62.0838C185.219 62.0526 185.397 62.0028 185.508 61.9347C185.619 61.8665 185.674 61.7557 185.674 61.6023V61.5724C185.674 61.2003 185.569 60.9119 185.359 60.7074C185.151 60.5028 184.842 60.4006 184.43 60.4006C184.001 60.4006 183.663 60.4957 183.415 60.6861C183.171 60.8736 183.002 61.0824 182.908 61.3125L181.711 61.0398C181.853 60.642 182.06 60.321 182.333 60.0767C182.609 59.8295 182.925 59.6506 183.283 59.5398C183.641 59.4261 184.018 59.3693 184.413 59.3693C184.674 59.3693 184.951 59.4006 185.244 59.4631C185.539 59.5227 185.815 59.6335 186.07 59.7955C186.329 59.9574 186.54 60.1889 186.705 60.4901C186.87 60.7884 186.952 61.1761 186.952 61.6534V66H185.708V65.1051H185.657C185.575 65.2699 185.451 65.4318 185.286 65.5909C185.121 65.75 184.91 65.8821 184.651 65.9872C184.393 66.0923 184.083 66.1449 183.722 66.1449ZM183.999 65.1222C184.352 65.1222 184.653 65.0526 184.903 64.9134C185.156 64.7741 185.347 64.5923 185.478 64.3679C185.612 64.1406 185.678 63.8977 185.678 63.6392V62.7955C185.633 62.8409 185.545 62.8835 185.414 62.9233C185.286 62.9602 185.14 62.9929 184.975 63.0213C184.81 63.0469 184.65 63.071 184.494 63.0938C184.337 63.1136 184.207 63.1307 184.102 63.1449C183.854 63.1761 183.629 63.2287 183.424 63.3026C183.222 63.3764 183.06 63.483 182.938 63.6222C182.819 63.7585 182.759 63.9403 182.759 64.1676C182.759 64.483 182.876 64.7216 183.109 64.8835C183.342 65.0426 183.638 65.1222 183.999 65.1222ZM188.65 66V59.4545H189.873V60.5199H189.953C190.09 60.1591 190.313 59.8778 190.623 59.6761C190.932 59.4716 191.303 59.3693 191.735 59.3693C192.172 59.3693 192.539 59.4716 192.834 59.6761C193.132 59.8807 193.353 60.1619 193.495 60.5199H193.563C193.719 60.1705 193.968 59.892 194.309 59.6847C194.65 59.4744 195.056 59.3693 195.527 59.3693C196.121 59.3693 196.605 59.5554 196.98 59.9276C197.358 60.2997 197.547 60.8608 197.547 61.6108V66H196.273V61.7301C196.273 61.2869 196.152 60.9659 195.911 60.767C195.669 60.5682 195.381 60.4688 195.046 60.4688C194.631 60.4688 194.309 60.5966 194.078 60.8523C193.848 61.1051 193.733 61.4304 193.733 61.8281V66H192.463V61.6491C192.463 61.294 192.353 61.0085 192.131 60.7926C191.909 60.5767 191.621 60.4688 191.266 60.4688C191.025 60.4688 190.801 60.5327 190.597 60.6605C190.395 60.7855 190.232 60.9602 190.107 61.1847C189.985 61.4091 189.924 61.669 189.924 61.9645V66H188.65ZM202.076 66.1321C201.431 66.1321 200.876 65.9943 200.41 65.7188C199.947 65.4403 199.589 65.0497 199.336 64.5469C199.086 64.0412 198.961 63.4489 198.961 62.7699C198.961 62.0994 199.086 61.5085 199.336 60.9972C199.589 60.4858 199.941 60.0866 200.393 59.7997C200.847 59.5128 201.379 59.3693 201.987 59.3693C202.356 59.3693 202.714 59.4304 203.06 59.5526C203.407 59.6747 203.718 59.8665 203.994 60.1278C204.269 60.3892 204.487 60.7287 204.646 61.1463C204.805 61.5611 204.884 62.0653 204.884 62.6591V63.1108H199.681V62.1562H203.636C203.636 61.821 203.567 61.5241 203.431 61.2656C203.295 61.0043 203.103 60.7983 202.856 60.6477C202.612 60.4972 202.325 60.4219 201.995 60.4219C201.637 60.4219 201.325 60.5099 201.058 60.6861C200.793 60.8594 200.589 61.0866 200.444 61.3679C200.302 61.6463 200.231 61.9489 200.231 62.2756V63.0213C200.231 63.4588 200.308 63.831 200.461 64.1378C200.617 64.4446 200.835 64.679 201.113 64.8409C201.391 65 201.717 65.0795 202.089 65.0795C202.33 65.0795 202.55 65.0455 202.749 64.9773C202.948 64.9062 203.12 64.8011 203.265 64.6619C203.41 64.5227 203.521 64.3509 203.597 64.1463L204.803 64.3636C204.707 64.7187 204.533 65.0298 204.283 65.2969C204.036 65.5611 203.725 65.767 203.35 65.9148C202.978 66.0597 202.553 66.1321 202.076 66.1321Z" fill="black"/>
<rect x="220.125" y="44.125" width="34.75" height="34.75" fill="#EAECF0"/>
<rect x="220.125" y="44.125" width="34.75" height="34.75" stroke="#98A2B3" stroke-width="0.25"/>
<path d="M233.696 66.081C233.463 66.081 233.263 65.9986 233.095 65.8338C232.928 65.6662 232.844 65.4645 232.844 65.2287C232.844 64.9957 232.928 64.7969 233.095 64.6321C233.263 64.4645 233.463 64.3807 233.696 64.3807C233.929 64.3807 234.129 64.4645 234.297 64.6321C234.464 64.7969 234.548 64.9957 234.548 65.2287C234.548 65.3849 234.509 65.5284 234.429 65.6591C234.352 65.7869 234.25 65.8892 234.122 65.9659C233.994 66.0426 233.852 66.081 233.696 66.081ZM237.094 66.081C236.862 66.081 236.661 65.9986 236.494 65.8338C236.326 65.6662 236.242 65.4645 236.242 65.2287C236.242 64.9957 236.326 64.7969 236.494 64.6321C236.661 64.4645 236.862 64.3807 237.094 64.3807C237.327 64.3807 237.528 64.4645 237.695 64.6321C237.863 64.7969 237.947 64.9957 237.947 65.2287C237.947 65.3849 237.907 65.5284 237.827 65.6591C237.751 65.7869 237.648 65.8892 237.521 65.9659C237.393 66.0426 237.251 66.081 237.094 66.081ZM240.493 66.081C240.26 66.081 240.06 65.9986 239.892 65.8338C239.724 65.6662 239.641 65.4645 239.641 65.2287C239.641 64.9957 239.724 64.7969 239.892 64.6321C240.06 64.4645 240.26 64.3807 240.493 64.3807C240.726 64.3807 240.926 64.4645 241.094 64.6321C241.261 64.7969 241.345 64.9957 241.345 65.2287C241.345 65.3849 241.305 65.5284 241.226 65.6591C241.149 65.7869 241.047 65.8892 240.919 65.9659C240.791 66.0426 240.649 66.081 240.493 66.081Z" fill="black"/>
<rect x="10.125" y="79.125" width="39.75" height="34.75" fill="white"/>
<rect x="10.125" y="79.125" width="39.75" height="34.75" stroke="#EAECF0" stroke-width="0.25"/>
<path d="M25.9716 92.2727V101H24.9148V93.3807H24.8636L22.733 94.7955V93.7216L24.9148 92.2727H25.9716Z" fill="black"/>
<rect x="50.125" y="79.125" width="84.75" height="34.75" fill="white"/>
<rect x="50.125" y="79.125" width="84.75" height="34.75" stroke="#EAECF0" stroke-width="0.25"/>
<path d="M63.0568 101V92.2727H68.3239V93.2102H64.1136V96.1591H68.0511V97.0966H64.1136V100.062H68.392V101H63.0568ZM71.098 92.2727V101H70.0923V92.2727H71.098ZM74.8661 101.153C74.4513 101.153 74.0749 101.075 73.7369 100.919C73.3988 100.76 73.1303 100.531 72.9315 100.233C72.7326 99.9318 72.6332 99.5682 72.6332 99.142C72.6332 98.767 72.707 98.4631 72.8548 98.2301C73.0025 97.9943 73.1999 97.8097 73.4471 97.6761C73.6942 97.5426 73.967 97.4432 74.2653 97.3778C74.5664 97.3097 74.869 97.2557 75.1729 97.2159C75.5707 97.1648 75.8931 97.1264 76.1403 97.1009C76.3903 97.0724 76.5721 97.0256 76.6857 96.9602C76.8022 96.8949 76.8604 96.7812 76.8604 96.6193V96.5852C76.8604 96.1648 76.7454 95.8381 76.5153 95.6051C76.288 95.3722 75.9428 95.2557 75.4798 95.2557C74.9996 95.2557 74.6232 95.3608 74.3505 95.571C74.0778 95.7812 73.886 96.0057 73.7752 96.2443L72.8207 95.9034C72.9911 95.5057 73.2184 95.196 73.5025 94.9744C73.7894 94.75 74.1019 94.5937 74.44 94.5057C74.7809 94.4148 75.1161 94.3693 75.4457 94.3693C75.6559 94.3693 75.8974 94.3949 76.1701 94.446C76.4457 94.4943 76.7113 94.5952 76.967 94.7486C77.2255 94.902 77.44 95.1335 77.6104 95.4432C77.7809 95.7528 77.8661 96.1676 77.8661 96.6875V101H76.8604V100.114H76.8093C76.7411 100.256 76.6275 100.408 76.4684 100.57C76.3093 100.732 76.0977 100.869 75.8335 100.983C75.5692 101.097 75.2468 101.153 74.8661 101.153ZM75.0195 100.25C75.4173 100.25 75.7525 100.172 76.0252 100.016C76.3008 99.8594 76.5082 99.6577 76.6474 99.4105C76.7894 99.1634 76.8604 98.9034 76.8604 98.6307V97.7102C76.8178 97.7614 76.7241 97.8082 76.5792 97.8509C76.4371 97.8906 76.2724 97.9261 76.0849 97.9574C75.9002 97.9858 75.7198 98.0114 75.5437 98.0341C75.3704 98.054 75.2298 98.071 75.1218 98.0852C74.8604 98.1193 74.6161 98.1747 74.3888 98.2514C74.1644 98.3253 73.9826 98.4375 73.8434 98.5881C73.707 98.7358 73.6388 98.9375 73.6388 99.1932C73.6388 99.5426 73.7681 99.8068 74.0266 99.9858C74.288 100.162 74.619 100.25 75.0195 100.25ZM80.1151 103.455C79.9446 103.455 79.7926 103.44 79.6591 103.412C79.5256 103.386 79.4332 103.361 79.3821 103.335L79.6378 102.449C79.8821 102.511 80.098 102.534 80.2855 102.517C80.473 102.5 80.6392 102.416 80.7841 102.266C80.9318 102.118 81.0668 101.878 81.1889 101.545L81.3764 101.034L78.956 94.4545H80.0469L81.8537 99.6705H81.9219L83.7287 94.4545H84.8196L82.0412 101.955C81.9162 102.293 81.7614 102.572 81.5767 102.794C81.392 103.018 81.1776 103.185 80.9332 103.293C80.6918 103.401 80.419 103.455 80.1151 103.455ZM87.1527 97.0625V101H86.147V94.4545H87.1186V95.4773H87.2038C87.3572 95.1449 87.5902 94.8778 87.9027 94.6761C88.2152 94.4716 88.6186 94.3693 89.1129 94.3693C89.5561 94.3693 89.9439 94.4602 90.2763 94.642C90.6087 94.821 90.8672 95.0938 91.0518 95.4602C91.2365 95.8239 91.3288 96.2841 91.3288 96.8409V101H90.3232V96.9091C90.3232 96.3949 90.1896 95.9943 89.9226 95.7074C89.6555 95.4176 89.2891 95.2727 88.8232 95.2727C88.5021 95.2727 88.2152 95.3423 87.9624 95.4815C87.7124 95.6207 87.5149 95.8239 87.37 96.0909C87.2251 96.358 87.1527 96.6818 87.1527 97.0625ZM95.9109 101.136C95.2802 101.136 94.7362 100.997 94.2788 100.719C93.8242 100.438 93.4734 100.045 93.2262 99.5426C92.9819 99.0369 92.8597 98.4489 92.8597 97.7784C92.8597 97.108 92.9819 96.517 93.2262 96.0057C93.4734 95.4915 93.8171 95.0909 94.2575 94.804C94.7006 94.5142 95.2177 94.3693 95.8086 94.3693C96.1495 94.3693 96.4862 94.4261 96.8185 94.5398C97.1509 94.6534 97.4535 94.8381 97.7262 95.0938C97.9989 95.3466 98.2163 95.6818 98.3782 96.0994C98.5401 96.517 98.6211 97.0312 98.6211 97.642V98.0682H93.5756V97.1989H97.5984C97.5984 96.8295 97.5245 96.5 97.3768 96.2102C97.2319 95.9205 97.0245 95.6918 96.7546 95.5241C96.4876 95.3565 96.1722 95.2727 95.8086 95.2727C95.408 95.2727 95.0614 95.3722 94.7688 95.571C94.479 95.767 94.256 96.0227 94.0998 96.3381C93.9435 96.6534 93.8654 96.9915 93.8654 97.3523V97.9318C93.8654 98.4261 93.9506 98.8452 94.1211 99.1889C94.2944 99.5298 94.5344 99.7898 94.8413 99.9688C95.1481 100.145 95.5046 100.233 95.9109 100.233C96.1751 100.233 96.4137 100.196 96.6268 100.122C96.8427 100.045 97.0288 99.9318 97.185 99.7812C97.3413 99.6278 97.462 99.4375 97.5472 99.2102L98.5188 99.483C98.4165 99.8125 98.2447 100.102 98.0032 100.352C97.7617 100.599 97.4634 100.793 97.1083 100.932C96.7532 101.068 96.354 101.136 95.9109 101.136Z" fill="black"/>
<rect x="135.125" y="79.125" width="84.75" height="34.75" fill="white"/>
<rect x="135.125" y="79.125" width="84.75" height="34.75" stroke="#EAECF0" stroke-width="0.25"/>
<path d="M151.398 92.2727H152.455V98.5114C152.455 99.0682 152.352 99.5412 152.148 99.9304C151.943 100.32 151.655 100.615 151.283 100.817C150.911 101.018 150.472 101.119 149.966 101.119C149.489 101.119 149.064 101.033 148.692 100.859C148.32 100.683 148.027 100.433 147.814 100.109C147.601 99.7855 147.494 99.4006 147.494 98.9545H148.534C148.534 99.2017 148.595 99.4176 148.717 99.6023C148.842 99.7841 149.013 99.9261 149.229 100.028C149.445 100.131 149.69 100.182 149.966 100.182C150.27 100.182 150.528 100.118 150.741 99.9901C150.955 99.8622 151.116 99.6747 151.227 99.4276C151.341 99.1776 151.398 98.8722 151.398 98.5114V92.2727ZM156.362 101.153C155.947 101.153 155.571 101.075 155.233 100.919C154.895 100.76 154.626 100.531 154.428 100.233C154.229 99.9318 154.129 99.5682 154.129 99.142C154.129 98.767 154.203 98.4631 154.351 98.2301C154.499 97.9943 154.696 97.8097 154.943 97.6761C155.19 97.5426 155.463 97.4432 155.761 97.3778C156.063 97.3097 156.365 97.2557 156.669 97.2159C157.067 97.1648 157.389 97.1264 157.636 97.1009C157.886 97.0724 158.068 97.0256 158.182 96.9602C158.298 96.8949 158.357 96.7812 158.357 96.6193V96.5852C158.357 96.1648 158.241 95.8381 158.011 95.6051C157.784 95.3722 157.439 95.2557 156.976 95.2557C156.496 95.2557 156.119 95.3608 155.847 95.571C155.574 95.7812 155.382 96.0057 155.271 96.2443L154.317 95.9034C154.487 95.5057 154.714 95.196 154.999 94.9744C155.286 94.75 155.598 94.5937 155.936 94.5057C156.277 94.4148 156.612 94.3693 156.942 94.3693C157.152 94.3693 157.393 94.3949 157.666 94.446C157.942 94.4943 158.207 94.5952 158.463 94.7486C158.722 94.902 158.936 95.1335 159.107 95.4432C159.277 95.7528 159.362 96.1676 159.362 96.6875V101H158.357V100.114H158.305C158.237 100.256 158.124 100.408 157.964 100.57C157.805 100.732 157.594 100.869 157.33 100.983C157.065 101.097 156.743 101.153 156.362 101.153ZM156.516 100.25C156.913 100.25 157.249 100.172 157.521 100.016C157.797 99.8594 158.004 99.6577 158.143 99.4105C158.286 99.1634 158.357 98.9034 158.357 98.6307V97.7102C158.314 97.7614 158.22 97.8082 158.075 97.8509C157.933 97.8906 157.768 97.9261 157.581 97.9574C157.396 97.9858 157.216 98.0114 157.04 98.0341C156.866 98.054 156.726 98.071 156.618 98.0852C156.357 98.1193 156.112 98.1747 155.885 98.2514C155.661 98.3253 155.479 98.4375 155.339 98.5881C155.203 98.7358 155.135 98.9375 155.135 99.1932C155.135 99.5426 155.264 99.8068 155.523 99.9858C155.784 100.162 156.115 100.25 156.516 100.25ZM161.198 101V94.4545H162.169V95.4773H162.255C162.391 95.1278 162.611 94.8565 162.915 94.6634C163.219 94.4673 163.584 94.3693 164.01 94.3693C164.442 94.3693 164.801 94.4673 165.088 94.6634C165.378 94.8565 165.604 95.1278 165.766 95.4773H165.834C166.002 95.1392 166.253 94.8707 166.588 94.6719C166.924 94.4702 167.326 94.3693 167.794 94.3693C168.38 94.3693 168.858 94.5526 169.23 94.919C169.603 95.2827 169.789 95.8494 169.789 96.6193V101H168.783V96.6193C168.783 96.1364 168.651 95.7912 168.387 95.5838C168.123 95.3764 167.811 95.2727 167.453 95.2727C166.993 95.2727 166.637 95.4119 166.384 95.6903C166.131 95.9659 166.005 96.3153 166.005 96.7386V101H164.982V96.517C164.982 96.1449 164.861 95.8452 164.62 95.6179C164.378 95.3878 164.067 95.2727 163.686 95.2727C163.425 95.2727 163.181 95.3423 162.953 95.4815C162.729 95.6207 162.547 95.8139 162.408 96.0611C162.272 96.3054 162.203 96.5881 162.203 96.9091V101H161.198ZM174.372 101.136C173.741 101.136 173.197 100.997 172.74 100.719C172.285 100.438 171.934 100.045 171.687 99.5426C171.443 99.0369 171.321 98.4489 171.321 97.7784C171.321 97.108 171.443 96.517 171.687 96.0057C171.934 95.4915 172.278 95.0909 172.718 94.804C173.162 94.5142 173.679 94.3693 174.27 94.3693C174.61 94.3693 174.947 94.4261 175.279 94.5398C175.612 94.6534 175.914 94.8381 176.187 95.0938C176.46 95.3466 176.677 95.6818 176.839 96.0994C177.001 96.517 177.082 97.0312 177.082 97.642V98.0682H172.037V97.1989H176.059C176.059 96.8295 175.985 96.5 175.838 96.2102C175.693 95.9205 175.485 95.6918 175.216 95.5241C174.949 95.3565 174.633 95.2727 174.27 95.2727C173.869 95.2727 173.522 95.3722 173.23 95.571C172.94 95.767 172.717 96.0227 172.561 96.3381C172.404 96.6534 172.326 96.9915 172.326 97.3523V97.9318C172.326 98.4261 172.412 98.8452 172.582 99.1889C172.755 99.5298 172.995 99.7898 173.302 99.9688C173.609 100.145 173.966 100.233 174.372 100.233C174.636 100.233 174.875 100.196 175.088 100.122C175.304 100.045 175.49 99.9318 175.646 99.7812C175.802 99.6278 175.923 99.4375 176.008 99.2102L176.98 99.483C176.877 99.8125 176.706 100.102 176.464 100.352C176.223 100.599 175.924 100.793 175.569 100.932C175.214 101.068 174.815 101.136 174.372 101.136ZM183.248 95.9205L182.345 96.1761C182.288 96.0256 182.204 95.8793 182.093 95.7372C181.985 95.5923 181.838 95.473 181.65 95.3793C181.463 95.2855 181.223 95.2386 180.93 95.2386C180.529 95.2386 180.196 95.331 179.929 95.5156C179.664 95.6974 179.532 95.929 179.532 96.2102C179.532 96.4602 179.623 96.6577 179.805 96.8026C179.987 96.9474 180.271 97.0682 180.657 97.1648L181.629 97.4034C182.214 97.5455 182.65 97.7628 182.937 98.0554C183.224 98.3452 183.368 98.7187 183.368 99.1761C183.368 99.5511 183.26 99.8864 183.044 100.182C182.831 100.477 182.532 100.71 182.149 100.881C181.765 101.051 181.319 101.136 180.811 101.136C180.143 101.136 179.591 100.991 179.153 100.702C178.716 100.412 178.439 99.9886 178.322 99.4318L179.277 99.1932C179.368 99.5455 179.539 99.8097 179.792 99.9858C180.048 100.162 180.382 100.25 180.794 100.25C181.262 100.25 181.635 100.151 181.91 99.9517C182.189 99.75 182.328 99.5085 182.328 99.2273C182.328 99 182.248 98.8097 182.089 98.6562C181.93 98.5 181.686 98.3835 181.356 98.3068L180.265 98.0511C179.666 97.9091 179.225 97.6889 178.944 97.3906C178.666 97.0895 178.527 96.7131 178.527 96.2614C178.527 95.892 178.63 95.5653 178.838 95.2812C179.048 94.9972 179.333 94.7741 179.694 94.6122C180.058 94.4503 180.47 94.3693 180.93 94.3693C181.578 94.3693 182.086 94.5114 182.456 94.7955C182.828 95.0795 183.092 95.4545 183.248 95.9205Z" fill="black"/>
<rect x="220.125" y="79.125" width="34.75" height="34.75" fill="white"/>
<rect x="220.125" y="79.125" width="34.75" height="34.75" stroke="#EAECF0" stroke-width="0.25"/>
<path d="M233.653 101.068C233.443 101.068 233.263 100.993 233.112 100.842C232.962 100.692 232.886 100.511 232.886 100.301C232.886 100.091 232.962 99.9105 233.112 99.7599C233.263 99.6094 233.443 99.5341 233.653 99.5341C233.864 99.5341 234.044 99.6094 234.195 99.7599C234.345 99.9105 234.42 100.091 234.42 100.301C234.42 100.44 234.385 100.568 234.314 100.685C234.246 100.801 234.153 100.895 234.037 100.966C233.923 101.034 233.795 101.068 233.653 101.068ZM236.958 101.068C236.748 101.068 236.567 100.993 236.417 100.842C236.266 100.692 236.191 100.511 236.191 100.301C236.191 100.091 236.266 99.9105 236.417 99.7599C236.567 99.6094 236.748 99.5341 236.958 99.5341C237.168 99.5341 237.349 99.6094 237.499 99.7599C237.65 99.9105 237.725 100.091 237.725 100.301C237.725 100.44 237.69 100.568 237.619 100.685C237.55 100.801 237.458 100.895 237.342 100.966C237.228 101.034 237.1 101.068 236.958 101.068ZM240.263 101.068C240.053 101.068 239.872 100.993 239.722 100.842C239.571 100.692 239.496 100.511 239.496 100.301C239.496 100.091 239.571 99.9105 239.722 99.7599C239.872 99.6094 240.053 99.5341 240.263 99.5341C240.473 99.5341 240.653 99.6094 240.804 99.7599C240.955 99.9105 241.03 100.091 241.03 100.301C241.03 100.44 240.994 100.568 240.923 100.685C240.855 100.801 240.763 100.895 240.646 100.966C240.533 101.034 240.405 101.068 240.263 101.068Z" fill="black"/>
<rect x="10.125" y="114.125" width="39.75" height="34.75" fill="#F9FAFB"/>
<rect x="10.125" y="114.125" width="39.75" height="34.75" stroke="#EAECF0" stroke-width="0.25"/>
<path d="M22.9034 136V135.233L25.7841 132.08C26.1222 131.71 26.4006 131.389 26.6193 131.116C26.8381 130.841 27 130.582 27.1051 130.341C27.2131 130.097 27.267 129.841 27.267 129.574C27.267 129.267 27.1932 129.001 27.0455 128.777C26.9006 128.553 26.7017 128.379 26.4489 128.257C26.196 128.135 25.9119 128.074 25.5966 128.074C25.2614 128.074 24.9688 128.143 24.7188 128.283C24.4716 128.419 24.2798 128.611 24.1435 128.858C24.0099 129.105 23.9432 129.395 23.9432 129.727H22.9375C22.9375 129.216 23.0554 128.767 23.2912 128.381C23.527 127.994 23.848 127.693 24.2543 127.477C24.6634 127.261 25.1222 127.153 25.6307 127.153C26.142 127.153 26.5952 127.261 26.9901 127.477C27.3849 127.693 27.6946 127.984 27.919 128.351C28.1435 128.717 28.2557 129.125 28.2557 129.574C28.2557 129.895 28.1974 130.209 28.081 130.516C27.9673 130.82 27.7685 131.159 27.4844 131.534C27.2031 131.906 26.8125 132.361 26.3125 132.898L24.3523 134.994V135.062H28.4091V136H22.9034Z" fill="black"/>
<rect x="50.125" y="114.125" width="84.75" height="34.75" fill="#F9FAFB"/>
<rect x="50.125" y="114.125" width="84.75" height="34.75" stroke="#EAECF0" stroke-width="0.25"/>
<path d="M63.0568 136V127.273H64.1136V135.062H68.1705V136H63.0568ZM73.7955 133.324V129.455H74.8011V136H73.7955V134.892H73.7273C73.5739 135.224 73.3352 135.507 73.0114 135.74C72.6875 135.97 72.2784 136.085 71.7841 136.085C71.375 136.085 71.0114 135.996 70.6932 135.817C70.375 135.635 70.125 135.362 69.9432 134.999C69.7614 134.632 69.6705 134.17 69.6705 133.614V129.455H70.6761V133.545C70.6761 134.023 70.8097 134.403 71.0767 134.688C71.3466 134.972 71.6903 135.114 72.108 135.114C72.358 135.114 72.6122 135.05 72.8707 134.922C73.1321 134.794 73.3509 134.598 73.527 134.334C73.706 134.07 73.7955 133.733 73.7955 133.324ZM79.3022 136.136C78.6886 136.136 78.1602 135.991 77.717 135.702C77.2738 135.412 76.9329 135.013 76.6942 134.504C76.4556 133.996 76.3363 133.415 76.3363 132.761C76.3363 132.097 76.4585 131.51 76.7028 131.001C76.9499 130.49 77.2937 130.091 77.734 129.804C78.1772 129.514 78.6942 129.369 79.2852 129.369C79.7454 129.369 80.1602 129.455 80.5295 129.625C80.8988 129.795 81.2013 130.034 81.4371 130.341C81.6729 130.648 81.8192 131.006 81.8761 131.415H80.8704C80.7937 131.116 80.6232 130.852 80.359 130.622C80.0977 130.389 79.7454 130.273 79.3022 130.273C78.9102 130.273 78.5664 130.375 78.271 130.58C77.9783 130.781 77.7496 131.067 77.5849 131.436C77.4229 131.803 77.342 132.233 77.342 132.727C77.342 133.233 77.4215 133.673 77.5806 134.048C77.7425 134.423 77.9698 134.714 78.2624 134.922C78.5579 135.129 78.9045 135.233 79.3022 135.233C79.5636 135.233 79.8008 135.188 80.0138 135.097C80.2269 135.006 80.4073 134.875 80.555 134.705C80.7028 134.534 80.8079 134.33 80.8704 134.091H81.8761C81.8192 134.477 81.6786 134.825 81.4542 135.135C81.2326 135.442 80.9386 135.686 80.5721 135.868C80.2085 136.047 79.7852 136.136 79.3022 136.136ZM83.3462 136V129.455H84.3519V136H83.3462ZM83.8576 128.364C83.6616 128.364 83.4925 128.297 83.3505 128.163C83.2113 128.03 83.1417 127.869 83.1417 127.682C83.1417 127.494 83.2113 127.334 83.3505 127.2C83.4925 127.067 83.6616 127 83.8576 127C84.0536 127 84.2212 127.067 84.3604 127.2C84.5025 127.334 84.5735 127.494 84.5735 127.682C84.5735 127.869 84.5025 128.03 84.3604 128.163C84.2212 128.297 84.0536 128.364 83.8576 128.364ZM88.12 136.153C87.7053 136.153 87.3288 136.075 86.9908 135.919C86.6527 135.76 86.3842 135.531 86.1854 135.233C85.9865 134.932 85.8871 134.568 85.8871 134.142C85.8871 133.767 85.9609 133.463 86.1087 133.23C86.2564 132.994 86.4538 132.81 86.701 132.676C86.9482 132.543 87.2209 132.443 87.5192 132.378C87.8203 132.31 88.1229 132.256 88.4268 132.216C88.8246 132.165 89.147 132.126 89.3942 132.101C89.6442 132.072 89.826 132.026 89.9396 131.96C90.0561 131.895 90.1143 131.781 90.1143 131.619V131.585C90.1143 131.165 89.9993 130.838 89.7692 130.605C89.5419 130.372 89.1967 130.256 88.7337 130.256C88.2536 130.256 87.8771 130.361 87.6044 130.571C87.3317 130.781 87.1399 131.006 87.0291 131.244L86.0746 130.903C86.245 130.506 86.4723 130.196 86.7564 129.974C87.0433 129.75 87.3558 129.594 87.6939 129.506C88.0348 129.415 88.37 129.369 88.6996 129.369C88.9098 129.369 89.1513 129.395 89.424 129.446C89.6996 129.494 89.9652 129.595 90.2209 129.749C90.4794 129.902 90.6939 130.134 90.8643 130.443C91.0348 130.753 91.12 131.168 91.12 131.688V136H90.1143V135.114H90.0632C89.995 135.256 89.8814 135.408 89.7223 135.57C89.5632 135.732 89.3516 135.869 89.0874 135.983C88.8232 136.097 88.5007 136.153 88.12 136.153ZM88.2734 135.25C88.6712 135.25 89.0064 135.172 89.2791 135.016C89.5547 134.859 89.7621 134.658 89.9013 134.411C90.0433 134.163 90.1143 133.903 90.1143 133.631V132.71C90.0717 132.761 89.978 132.808 89.8331 132.851C89.6911 132.891 89.5263 132.926 89.3388 132.957C89.1541 132.986 88.9737 133.011 88.7976 133.034C88.6243 133.054 88.4837 133.071 88.3757 133.085C88.1143 133.119 87.87 133.175 87.6428 133.251C87.4183 133.325 87.2365 133.437 87.0973 133.588C86.9609 133.736 86.8928 133.937 86.8928 134.193C86.8928 134.543 87.022 134.807 87.2805 134.986C87.5419 135.162 87.8729 135.25 88.2734 135.25Z" fill="black"/>
<rect x="135.125" y="114.125" width="84.75" height="34.75" fill="#F9FAFB"/>
<rect x="135.125" y="114.125" width="84.75" height="34.75" stroke="#EAECF0" stroke-width="0.25"/>
<path d="M154.023 130C153.929 129.713 153.805 129.456 153.652 129.229C153.501 128.999 153.321 128.803 153.111 128.641C152.903 128.479 152.668 128.355 152.403 128.27C152.139 128.185 151.849 128.142 151.534 128.142C151.017 128.142 150.547 128.276 150.124 128.543C149.7 128.81 149.364 129.203 149.114 129.723C148.864 130.243 148.739 130.881 148.739 131.636C148.739 132.392 148.865 133.03 149.118 133.55C149.371 134.07 149.713 134.463 150.145 134.73C150.577 134.997 151.063 135.131 151.602 135.131C152.102 135.131 152.543 135.024 152.923 134.811C153.307 134.595 153.605 134.291 153.818 133.899C154.034 133.504 154.142 133.04 154.142 132.506L154.466 132.574H151.841V131.636H155.165V132.574C155.165 133.293 155.011 133.918 154.705 134.449C154.401 134.98 153.98 135.392 153.443 135.685C152.909 135.974 152.295 136.119 151.602 136.119C150.83 136.119 150.151 135.938 149.565 135.574C148.983 135.21 148.528 134.693 148.202 134.023C147.878 133.352 147.716 132.557 147.716 131.636C147.716 130.946 147.808 130.325 147.993 129.774C148.18 129.22 148.445 128.749 148.786 128.359C149.126 127.97 149.53 127.672 149.996 127.464C150.462 127.257 150.974 127.153 151.534 127.153C151.994 127.153 152.423 127.223 152.821 127.362C153.222 127.499 153.578 127.693 153.891 127.946C154.206 128.196 154.469 128.496 154.679 128.845C154.889 129.192 155.034 129.577 155.114 130H154.023ZM158.765 136.153C158.35 136.153 157.973 136.075 157.635 135.919C157.297 135.76 157.029 135.531 156.83 135.233C156.631 134.932 156.532 134.568 156.532 134.142C156.532 133.767 156.605 133.463 156.753 133.23C156.901 132.994 157.098 132.81 157.346 132.676C157.593 132.543 157.865 132.443 158.164 132.378C158.465 132.31 158.767 132.256 159.071 132.216C159.469 132.165 159.792 132.126 160.039 132.101C160.289 132.072 160.471 132.026 160.584 131.96C160.701 131.895 160.759 131.781 160.759 131.619V131.585C160.759 131.165 160.644 130.838 160.414 130.605C160.186 130.372 159.841 130.256 159.378 130.256C158.898 130.256 158.522 130.361 158.249 130.571C157.976 130.781 157.784 131.006 157.674 131.244L156.719 130.903C156.89 130.506 157.117 130.196 157.401 129.974C157.688 129.75 158 129.594 158.338 129.506C158.679 129.415 159.015 129.369 159.344 129.369C159.554 129.369 159.796 129.395 160.069 129.446C160.344 129.494 160.61 129.595 160.865 129.749C161.124 129.902 161.338 130.134 161.509 130.443C161.679 130.753 161.765 131.168 161.765 131.688V136H160.759V135.114H160.708C160.64 135.256 160.526 135.408 160.367 135.57C160.208 135.732 159.996 135.869 159.732 135.983C159.468 136.097 159.145 136.153 158.765 136.153ZM158.918 135.25C159.316 135.25 159.651 135.172 159.924 135.016C160.199 134.859 160.407 134.658 160.546 134.411C160.688 134.163 160.759 133.903 160.759 133.631V132.71C160.716 132.761 160.623 132.808 160.478 132.851C160.336 132.891 160.171 132.926 159.983 132.957C159.799 132.986 159.618 133.011 159.442 133.034C159.269 133.054 159.128 133.071 159.02 133.085C158.759 133.119 158.515 133.175 158.287 133.251C158.063 133.325 157.881 133.437 157.742 133.588C157.605 133.736 157.537 133.937 157.537 134.193C157.537 134.543 157.667 134.807 157.925 134.986C158.186 135.162 158.517 135.25 158.918 135.25ZM163.6 136V129.455H164.572V130.443H164.64C164.759 130.119 164.975 129.857 165.288 129.655C165.6 129.453 165.952 129.352 166.344 129.352C166.418 129.352 166.511 129.354 166.621 129.357C166.732 129.359 166.816 129.364 166.873 129.369V130.392C166.839 130.384 166.761 130.371 166.638 130.354C166.519 130.334 166.393 130.324 166.259 130.324C165.941 130.324 165.657 130.391 165.407 130.524C165.16 130.655 164.964 130.837 164.819 131.07C164.677 131.3 164.606 131.562 164.606 131.858V136H163.6ZM170.525 136.136C169.911 136.136 169.383 135.991 168.94 135.702C168.496 135.412 168.156 135.013 167.917 134.504C167.678 133.996 167.559 133.415 167.559 132.761C167.559 132.097 167.681 131.51 167.925 131.001C168.173 130.49 168.516 130.091 168.957 129.804C169.4 129.514 169.917 129.369 170.508 129.369C170.968 129.369 171.383 129.455 171.752 129.625C172.121 129.795 172.424 130.034 172.66 130.341C172.896 130.648 173.042 131.006 173.099 131.415H172.093C172.016 131.116 171.846 130.852 171.582 130.622C171.32 130.389 170.968 130.273 170.525 130.273C170.133 130.273 169.789 130.375 169.494 130.58C169.201 130.781 168.972 131.067 168.808 131.436C168.646 131.803 168.565 132.233 168.565 132.727C168.565 133.233 168.644 133.673 168.803 134.048C168.965 134.423 169.192 134.714 169.485 134.922C169.781 135.129 170.127 135.233 170.525 135.233C170.786 135.233 171.023 135.188 171.237 135.097C171.45 135.006 171.63 134.875 171.778 134.705C171.925 134.534 172.031 134.33 172.093 134.091H173.099C173.042 134.477 172.901 134.825 172.677 135.135C172.455 135.442 172.161 135.686 171.795 135.868C171.431 136.047 171.008 136.136 170.525 136.136ZM174.569 136V129.455H175.575V136H174.569ZM175.08 128.364C174.884 128.364 174.715 128.297 174.573 128.163C174.434 128.03 174.364 127.869 174.364 127.682C174.364 127.494 174.434 127.334 174.573 127.2C174.715 127.067 174.884 127 175.08 127C175.276 127 175.444 127.067 175.583 127.2C175.725 127.334 175.796 127.494 175.796 127.682C175.796 127.869 175.725 128.03 175.583 128.163C175.444 128.297 175.276 128.364 175.08 128.364ZM179.343 136.153C178.928 136.153 178.551 136.075 178.213 135.919C177.875 135.76 177.607 135.531 177.408 135.233C177.209 134.932 177.11 134.568 177.11 134.142C177.11 133.767 177.184 133.463 177.331 133.23C177.479 132.994 177.676 132.81 177.924 132.676C178.171 132.543 178.444 132.443 178.742 132.378C179.043 132.31 179.346 132.256 179.65 132.216C180.047 132.165 180.37 132.126 180.617 132.101C180.867 132.072 181.049 132.026 181.162 131.96C181.279 131.895 181.337 131.781 181.337 131.619V131.585C181.337 131.165 181.222 130.838 180.992 130.605C180.765 130.372 180.419 130.256 179.956 130.256C179.476 130.256 179.1 130.361 178.827 130.571C178.554 130.781 178.363 131.006 178.252 131.244L177.297 130.903C177.468 130.506 177.695 130.196 177.979 129.974C178.266 129.75 178.578 129.594 178.917 129.506C179.257 129.415 179.593 129.369 179.922 129.369C180.132 129.369 180.374 129.395 180.647 129.446C180.922 129.494 181.188 129.595 181.444 129.749C181.702 129.902 181.917 130.134 182.087 130.443C182.257 130.753 182.343 131.168 182.343 131.688V136H181.337V135.114H181.286C181.218 135.256 181.104 135.408 180.945 135.57C180.786 135.732 180.574 135.869 180.31 135.983C180.046 136.097 179.723 136.153 179.343 136.153ZM179.496 135.25C179.894 135.25 180.229 135.172 180.502 135.016C180.777 134.859 180.985 134.658 181.124 134.411C181.266 134.163 181.337 133.903 181.337 133.631V132.71C181.294 132.761 181.201 132.808 181.056 132.851C180.914 132.891 180.749 132.926 180.561 132.957C180.377 132.986 180.196 133.011 180.02 133.034C179.847 133.054 179.706 133.071 179.598 133.085C179.337 133.119 179.093 133.175 178.865 133.251C178.641 133.325 178.459 133.437 178.32 133.588C178.184 133.736 178.115 133.937 178.115 134.193C178.115 134.543 178.245 134.807 178.503 134.986C178.765 135.162 179.096 135.25 179.496 135.25Z" fill="black"/>
<rect x="220.125" y="114.125" width="34.75" height="34.75" fill="#F9FAFB"/>
<rect x="220.125" y="114.125" width="34.75" height="34.75" stroke="#EAECF0" stroke-width="0.25"/>
<path d="M233.653 136.068C233.443 136.068 233.263 135.993 233.112 135.842C232.962 135.692 232.886 135.511 232.886 135.301C232.886 135.091 232.962 134.911 233.112 134.76C233.263 134.609 233.443 134.534 233.653 134.534C233.864 134.534 234.044 134.609 234.195 134.76C234.345 134.911 234.42 135.091 234.42 135.301C234.42 135.44 234.385 135.568 234.314 135.685C234.246 135.801 234.153 135.895 234.037 135.966C233.923 136.034 233.795 136.068 233.653 136.068ZM236.958 136.068C236.748 136.068 236.567 135.993 236.417 135.842C236.266 135.692 236.191 135.511 236.191 135.301C236.191 135.091 236.266 134.911 236.417 134.76C236.567 134.609 236.748 134.534 236.958 134.534C237.168 134.534 237.349 134.609 237.499 134.76C237.65 134.911 237.725 135.091 237.725 135.301C237.725 135.44 237.69 135.568 237.619 135.685C237.55 135.801 237.458 135.895 237.342 135.966C237.228 136.034 237.1 136.068 236.958 136.068ZM240.263 136.068C240.053 136.068 239.872 135.993 239.722 135.842C239.571 135.692 239.496 135.511 239.496 135.301C239.496 135.091 239.571 134.911 239.722 134.76C239.872 134.609 240.053 134.534 240.263 134.534C240.473 134.534 240.653 134.609 240.804 134.76C240.955 134.911 241.03 135.091 241.03 135.301C241.03 135.44 240.994 135.568 240.923 135.685C240.855 135.801 240.763 135.895 240.646 135.966C240.533 136.034 240.405 136.068 240.263 136.068Z" fill="black"/>
<rect x="10.125" y="149.125" width="39.75" height="34.75" fill="white"/>
<rect x="10.125" y="149.125" width="39.75" height="34.75" stroke="#EAECF0" stroke-width="0.25"/>
<path d="M25.8523 171.119C25.2898 171.119 24.7884 171.023 24.348 170.83C23.9105 170.636 23.5625 170.368 23.304 170.024C23.0483 169.678 22.9091 169.276 22.8864 168.818H23.9602C23.983 169.099 24.0795 169.342 24.25 169.547C24.4205 169.749 24.6435 169.905 24.919 170.016C25.1946 170.126 25.5 170.182 25.8352 170.182C26.2102 170.182 26.5426 170.116 26.8324 169.986C27.1222 169.855 27.3494 169.673 27.5142 169.44C27.679 169.207 27.7614 168.938 27.7614 168.631C27.7614 168.31 27.6818 168.027 27.5227 167.783C27.3636 167.536 27.1307 167.342 26.8239 167.203C26.517 167.064 26.142 166.994 25.6989 166.994H25V166.057H25.6989C26.0455 166.057 26.3494 165.994 26.6108 165.869C26.875 165.744 27.081 165.568 27.2287 165.341C27.3793 165.114 27.4545 164.847 27.4545 164.54C27.4545 164.244 27.3892 163.987 27.2585 163.768C27.1278 163.55 26.9432 163.379 26.7045 163.257C26.4688 163.135 26.1903 163.074 25.8693 163.074C25.5682 163.074 25.2841 163.129 25.017 163.24C24.7528 163.348 24.5369 163.506 24.3693 163.713C24.2017 163.918 24.1108 164.165 24.0966 164.455H23.0739C23.0909 163.997 23.2287 163.597 23.4872 163.253C23.7457 162.906 24.0838 162.636 24.5014 162.443C24.9219 162.25 25.3835 162.153 25.8864 162.153C26.4261 162.153 26.8892 162.263 27.2756 162.482C27.6619 162.697 27.9588 162.983 28.1662 163.338C28.3736 163.693 28.4773 164.077 28.4773 164.489C28.4773 164.98 28.348 165.399 28.0895 165.746C27.8338 166.092 27.4858 166.332 27.0455 166.466V166.534C27.5966 166.625 28.027 166.859 28.3366 167.237C28.6463 167.612 28.8011 168.077 28.8011 168.631C28.8011 169.105 28.6719 169.531 28.4134 169.909C28.1577 170.284 27.8082 170.58 27.3651 170.795C26.9219 171.011 26.4176 171.119 25.8523 171.119Z" fill="black"/>
<rect x="50.125" y="149.125" width="84.75" height="34.75" fill="white"/>
<rect x="50.125" y="149.125" width="84.75" height="34.75" stroke="#EAECF0" stroke-width="0.25"/>
<path d="M69.0227 165C68.929 164.713 68.8054 164.456 68.652 164.229C68.5014 163.999 68.321 163.803 68.1108 163.641C67.9034 163.479 67.6676 163.355 67.4034 163.27C67.1392 163.185 66.8494 163.142 66.5341 163.142C66.017 163.142 65.5469 163.276 65.1236 163.543C64.7003 163.81 64.3636 164.203 64.1136 164.723C63.8636 165.243 63.7386 165.881 63.7386 166.636C63.7386 167.392 63.8651 168.03 64.1179 168.55C64.3707 169.07 64.7131 169.463 65.1449 169.73C65.5767 169.997 66.0625 170.131 66.6023 170.131C67.1023 170.131 67.5426 170.024 67.9233 169.811C68.3068 169.595 68.6051 169.291 68.8182 168.899C69.0341 168.504 69.142 168.04 69.142 167.506L69.4659 167.574H66.8409V166.636H70.1648V167.574C70.1648 168.293 70.0114 168.918 69.7045 169.449C69.4006 169.98 68.9801 170.392 68.4432 170.685C67.9091 170.974 67.2955 171.119 66.6023 171.119C65.8295 171.119 65.1506 170.938 64.5653 170.574C63.983 170.21 63.5284 169.693 63.2017 169.023C62.8778 168.352 62.7159 167.557 62.7159 166.636C62.7159 165.946 62.8082 165.325 62.9929 164.774C63.1804 164.22 63.4446 163.749 63.7855 163.359C64.1264 162.97 64.5298 162.672 64.9957 162.464C65.4616 162.257 65.9744 162.153 66.5341 162.153C66.9943 162.153 67.4233 162.223 67.821 162.362C68.2216 162.499 68.5781 162.693 68.8906 162.946C69.206 163.196 69.4688 163.496 69.679 163.845C69.8892 164.192 70.0341 164.577 70.1136 165H69.0227ZM72.2486 171V164.455H73.2543V171H72.2486ZM72.7599 163.364C72.5639 163.364 72.3949 163.297 72.2528 163.163C72.1136 163.03 72.044 162.869 72.044 162.682C72.044 162.494 72.1136 162.334 72.2528 162.2C72.3949 162.067 72.5639 162 72.7599 162C72.956 162 73.1236 162.067 73.2628 162.2C73.4048 162.334 73.4759 162.494 73.4759 162.682C73.4759 162.869 73.4048 163.03 73.2628 163.163C73.1236 163.297 72.956 163.364 72.7599 163.364ZM77.0224 171.153C76.6076 171.153 76.2312 171.075 75.8931 170.919C75.555 170.76 75.2866 170.531 75.0877 170.233C74.8888 169.932 74.7894 169.568 74.7894 169.142C74.7894 168.767 74.8633 168.463 75.011 168.23C75.1587 167.994 75.3562 167.81 75.6033 167.676C75.8505 167.543 76.1232 167.443 76.4215 167.378C76.7227 167.31 77.0252 167.256 77.3292 167.216C77.7269 167.165 78.0494 167.126 78.2965 167.101C78.5465 167.072 78.7283 167.026 78.842 166.96C78.9585 166.895 79.0167 166.781 79.0167 166.619V166.585C79.0167 166.165 78.9016 165.838 78.6715 165.605C78.4442 165.372 78.0991 165.256 77.636 165.256C77.1559 165.256 76.7795 165.361 76.5067 165.571C76.234 165.781 76.0423 166.006 75.9315 166.244L74.9769 165.903C75.1474 165.506 75.3746 165.196 75.6587 164.974C75.9457 164.75 76.2582 164.594 76.5962 164.506C76.9371 164.415 77.2724 164.369 77.6019 164.369C77.8121 164.369 78.0536 164.395 78.3263 164.446C78.6019 164.494 78.8675 164.595 79.1232 164.749C79.3817 164.902 79.5962 165.134 79.7667 165.443C79.9371 165.753 80.0224 166.168 80.0224 166.688V171H79.0167V170.114H78.9656C78.8974 170.256 78.7837 170.408 78.6246 170.57C78.4656 170.732 78.2539 170.869 77.9897 170.983C77.7255 171.097 77.4031 171.153 77.0224 171.153ZM77.1758 170.25C77.5735 170.25 77.9087 170.172 78.1815 170.016C78.457 169.859 78.6644 169.658 78.8036 169.411C78.9457 169.163 79.0167 168.903 79.0167 168.631V167.71C78.9741 167.761 78.8803 167.808 78.7354 167.851C78.5934 167.891 78.4286 167.926 78.2411 167.957C78.0565 167.986 77.8761 168.011 77.6999 168.034C77.5266 168.054 77.386 168.071 77.2781 168.085C77.0167 168.119 76.7724 168.175 76.5451 168.251C76.3207 168.325 76.1388 168.437 75.9996 168.588C75.8633 168.736 75.7951 168.937 75.7951 169.193C75.7951 169.543 75.9244 169.807 76.1829 169.986C76.4442 170.162 76.7752 170.25 77.1758 170.25ZM82.8636 167.062V171H81.858V164.455H82.8295V165.477H82.9148C83.0682 165.145 83.3011 164.878 83.6136 164.676C83.9261 164.472 84.3295 164.369 84.8239 164.369C85.267 164.369 85.6548 164.46 85.9872 164.642C86.3196 164.821 86.5781 165.094 86.7628 165.46C86.9474 165.824 87.0398 166.284 87.0398 166.841V171H86.0341V166.909C86.0341 166.395 85.9006 165.994 85.6335 165.707C85.3665 165.418 85 165.273 84.5341 165.273C84.2131 165.273 83.9261 165.342 83.6733 165.482C83.4233 165.621 83.2259 165.824 83.081 166.091C82.9361 166.358 82.8636 166.682 82.8636 167.062ZM91.7923 164.455V165.307H88.2638V164.455H91.7923ZM89.3207 171V163.551C89.3207 163.176 89.4087 162.864 89.5849 162.614C89.761 162.364 89.9897 162.176 90.271 162.051C90.5522 161.926 90.8491 161.864 91.1616 161.864C91.4087 161.864 91.6104 161.884 91.7667 161.923C91.9229 161.963 92.0394 162 92.1161 162.034L91.8263 162.903C91.7752 162.886 91.7042 162.865 91.6133 162.839C91.5252 162.814 91.4087 162.801 91.2638 162.801C90.9315 162.801 90.6914 162.885 90.5437 163.053C90.3988 163.22 90.3263 163.466 90.3263 163.79V171H89.3207ZM93.2017 171V164.455H94.1733V165.443H94.2415C94.3608 165.119 94.5767 164.857 94.8892 164.655C95.2017 164.453 95.554 164.352 95.946 164.352C96.0199 164.352 96.1122 164.354 96.223 164.357C96.3338 164.359 96.4176 164.364 96.4744 164.369V165.392C96.4403 165.384 96.3622 165.371 96.2401 165.354C96.1207 165.334 95.9943 165.324 95.8608 165.324C95.5426 165.324 95.2585 165.391 95.0085 165.524C94.7614 165.655 94.5653 165.837 94.4205 166.07C94.2784 166.3 94.2074 166.562 94.2074 166.858V171H93.2017ZM99.5927 171.153C99.1779 171.153 98.8015 171.075 98.4634 170.919C98.1254 170.76 97.8569 170.531 97.658 170.233C97.4592 169.932 97.3597 169.568 97.3597 169.142C97.3597 168.767 97.4336 168.463 97.5813 168.23C97.729 167.994 97.9265 167.81 98.1737 167.676C98.4208 167.543 98.6935 167.443 98.9918 167.378C99.293 167.31 99.5955 167.256 99.8995 167.216C100.297 167.165 100.62 167.126 100.867 167.101C101.117 167.072 101.299 167.026 101.412 166.96C101.529 166.895 101.587 166.781 101.587 166.619V166.585C101.587 166.165 101.472 165.838 101.242 165.605C101.015 165.372 100.669 165.256 100.206 165.256C99.7262 165.256 99.3498 165.361 99.0771 165.571C98.8043 165.781 98.6126 166.006 98.5018 166.244L97.5472 165.903C97.7177 165.506 97.945 165.196 98.229 164.974C98.516 164.75 98.8285 164.594 99.1665 164.506C99.5075 164.415 99.8427 164.369 100.172 164.369C100.382 164.369 100.624 164.395 100.897 164.446C101.172 164.494 101.438 164.595 101.694 164.749C101.952 164.902 102.167 165.134 102.337 165.443C102.507 165.753 102.593 166.168 102.593 166.688V171H101.587V170.114H101.536C101.468 170.256 101.354 170.408 101.195 170.57C101.036 170.732 100.824 170.869 100.56 170.983C100.296 171.097 99.9734 171.153 99.5927 171.153ZM99.7461 170.25C100.144 170.25 100.479 170.172 100.752 170.016C101.027 169.859 101.235 169.658 101.374 169.411C101.516 169.163 101.587 168.903 101.587 168.631V167.71C101.544 167.761 101.451 167.808 101.306 167.851C101.164 167.891 100.999 167.926 100.811 167.957C100.627 167.986 100.446 168.011 100.27 168.034C100.097 168.054 99.9563 168.071 99.8484 168.085C99.587 168.119 99.3427 168.175 99.1154 168.251C98.891 168.325 98.7092 168.437 98.57 168.588C98.4336 168.736 98.3654 168.937 98.3654 169.193C98.3654 169.543 98.4947 169.807 98.7532 169.986C99.0146 170.162 99.3455 170.25 99.7461 170.25ZM105.434 167.062V171H104.428V164.455H105.4V165.477H105.485C105.638 165.145 105.871 164.878 106.184 164.676C106.496 164.472 106.9 164.369 107.394 164.369C107.837 164.369 108.225 164.46 108.558 164.642C108.89 164.821 109.148 165.094 109.333 165.46C109.518 165.824 109.61 166.284 109.61 166.841V171H108.604V166.909C108.604 166.395 108.471 165.994 108.204 165.707C107.937 165.418 107.57 165.273 107.104 165.273C106.783 165.273 106.496 165.342 106.244 165.482C105.994 165.621 105.796 165.824 105.651 166.091C105.506 166.358 105.434 166.682 105.434 167.062ZM114.107 171.136C113.493 171.136 112.965 170.991 112.522 170.702C112.078 170.412 111.738 170.013 111.499 169.504C111.26 168.996 111.141 168.415 111.141 167.761C111.141 167.097 111.263 166.51 111.507 166.001C111.755 165.49 112.098 165.091 112.539 164.804C112.982 164.514 113.499 164.369 114.09 164.369C114.55 164.369 114.965 164.455 115.334 164.625C115.703 164.795 116.006 165.034 116.242 165.341C116.478 165.648 116.624 166.006 116.681 166.415H115.675C115.598 166.116 115.428 165.852 115.164 165.622C114.902 165.389 114.55 165.273 114.107 165.273C113.715 165.273 113.371 165.375 113.076 165.58C112.783 165.781 112.554 166.067 112.39 166.436C112.228 166.803 112.147 167.233 112.147 167.727C112.147 168.233 112.226 168.673 112.385 169.048C112.547 169.423 112.775 169.714 113.067 169.922C113.363 170.129 113.709 170.233 114.107 170.233C114.368 170.233 114.605 170.188 114.819 170.097C115.032 170.006 115.212 169.875 115.36 169.705C115.507 169.534 115.613 169.33 115.675 169.091H116.681C116.624 169.477 116.483 169.825 116.259 170.135C116.037 170.442 115.743 170.686 115.377 170.868C115.013 171.047 114.59 171.136 114.107 171.136ZM120.81 171.136C120.219 171.136 119.701 170.996 119.255 170.714C118.811 170.433 118.465 170.04 118.215 169.534C117.968 169.028 117.844 168.437 117.844 167.761C117.844 167.08 117.968 166.484 118.215 165.976C118.465 165.467 118.811 165.072 119.255 164.791C119.701 164.51 120.219 164.369 120.81 164.369C121.401 164.369 121.918 164.51 122.361 164.791C122.807 165.072 123.154 165.467 123.401 165.976C123.651 166.484 123.776 167.08 123.776 167.761C123.776 168.437 123.651 169.028 123.401 169.534C123.154 170.04 122.807 170.433 122.361 170.714C121.918 170.996 121.401 171.136 120.81 171.136ZM120.81 170.233C121.259 170.233 121.628 170.118 121.918 169.888C122.208 169.658 122.422 169.355 122.561 168.98C122.701 168.605 122.77 168.199 122.77 167.761C122.77 167.324 122.701 166.916 122.561 166.538C122.422 166.161 122.208 165.855 121.918 165.622C121.628 165.389 121.259 165.273 120.81 165.273C120.361 165.273 119.992 165.389 119.702 165.622C119.412 165.855 119.198 166.161 119.059 166.538C118.919 166.916 118.85 167.324 118.85 167.761C118.85 168.199 118.919 168.605 119.059 168.98C119.198 169.355 119.412 169.658 119.702 169.888C119.992 170.118 120.361 170.233 120.81 170.233Z" fill="black"/>
<rect x="135.125" y="149.125" width="84.75" height="34.75" fill="white"/>
<rect x="135.125" y="149.125" width="84.75" height="34.75" stroke="#EAECF0" stroke-width="0.25"/>
<path d="M147.58 163.21V162.273H154.125V163.21H151.381V171H150.324V163.21H147.58ZM156.625 167.062V171H155.62V162.273H156.625V165.477H156.711C156.864 165.139 157.094 164.871 157.401 164.672C157.711 164.47 158.123 164.369 158.637 164.369C159.083 164.369 159.473 164.459 159.809 164.638C160.144 164.814 160.404 165.085 160.588 165.452C160.776 165.815 160.87 166.278 160.87 166.841V171H159.864V166.909C159.864 166.389 159.729 165.987 159.459 165.703C159.192 165.416 158.821 165.273 158.347 165.273C158.017 165.273 157.722 165.342 157.461 165.482C157.202 165.621 156.998 165.824 156.847 166.091C156.699 166.358 156.625 166.682 156.625 167.062ZM165.369 171.136C164.778 171.136 164.259 170.996 163.813 170.714C163.37 170.433 163.023 170.04 162.773 169.534C162.526 169.028 162.403 168.437 162.403 167.761C162.403 167.08 162.526 166.484 162.773 165.976C163.023 165.467 163.37 165.072 163.813 164.791C164.259 164.51 164.778 164.369 165.369 164.369C165.96 164.369 166.477 164.51 166.92 164.791C167.366 165.072 167.712 165.467 167.96 165.976C168.21 166.484 168.335 167.08 168.335 167.761C168.335 168.437 168.21 169.028 167.96 169.534C167.712 170.04 167.366 170.433 166.92 170.714C166.477 170.996 165.96 171.136 165.369 171.136ZM165.369 170.233C165.817 170.233 166.187 170.118 166.477 169.888C166.766 169.658 166.981 169.355 167.12 168.98C167.259 168.605 167.329 168.199 167.329 167.761C167.329 167.324 167.259 166.916 167.12 166.538C166.981 166.161 166.766 165.855 166.477 165.622C166.187 165.389 165.817 165.273 165.369 165.273C164.92 165.273 164.55 165.389 164.261 165.622C163.971 165.855 163.756 166.161 163.617 166.538C163.478 166.916 163.408 167.324 163.408 167.761C163.408 168.199 163.478 168.605 163.617 168.98C163.756 169.355 163.971 169.658 164.261 169.888C164.55 170.118 164.92 170.233 165.369 170.233ZM169.87 171V164.455H170.841V165.477H170.926C171.063 165.128 171.283 164.857 171.587 164.663C171.891 164.467 172.256 164.369 172.682 164.369C173.114 164.369 173.473 164.467 173.76 164.663C174.05 164.857 174.276 165.128 174.438 165.477H174.506C174.674 165.139 174.925 164.871 175.26 164.672C175.596 164.47 175.998 164.369 176.466 164.369C177.051 164.369 177.53 164.553 177.902 164.919C178.275 165.283 178.461 165.849 178.461 166.619V171H177.455V166.619C177.455 166.136 177.323 165.791 177.059 165.584C176.794 165.376 176.483 165.273 176.125 165.273C175.665 165.273 175.309 165.412 175.056 165.69C174.803 165.966 174.676 166.315 174.676 166.739V171H173.654V166.517C173.654 166.145 173.533 165.845 173.292 165.618C173.05 165.388 172.739 165.273 172.358 165.273C172.097 165.273 171.853 165.342 171.625 165.482C171.401 165.621 171.219 165.814 171.08 166.061C170.944 166.305 170.875 166.588 170.875 166.909V171H169.87ZM182.225 171.153C181.811 171.153 181.434 171.075 181.096 170.919C180.758 170.76 180.49 170.531 180.291 170.233C180.092 169.932 179.993 169.568 179.993 169.142C179.993 168.767 180.066 168.463 180.214 168.23C180.362 167.994 180.559 167.81 180.806 167.676C181.054 167.543 181.326 167.443 181.625 167.378C181.926 167.31 182.228 167.256 182.532 167.216C182.93 167.165 183.252 167.126 183.5 167.101C183.75 167.072 183.931 167.026 184.045 166.96C184.162 166.895 184.22 166.781 184.22 166.619V166.585C184.22 166.165 184.105 165.838 183.875 165.605C183.647 165.372 183.302 165.256 182.839 165.256C182.359 165.256 181.983 165.361 181.71 165.571C181.437 165.781 181.245 166.006 181.135 166.244L180.18 165.903C180.35 165.506 180.578 165.196 180.862 164.974C181.149 164.75 181.461 164.594 181.799 164.506C182.14 164.415 182.475 164.369 182.805 164.369C183.015 164.369 183.257 164.395 183.529 164.446C183.805 164.494 184.071 164.595 184.326 164.749C184.585 164.902 184.799 165.134 184.97 165.443C185.14 165.753 185.225 166.168 185.225 166.688V171H184.22V170.114H184.169C184.1 170.256 183.987 170.408 183.828 170.57C183.669 170.732 183.457 170.869 183.193 170.983C182.929 171.097 182.606 171.153 182.225 171.153ZM182.379 170.25C182.777 170.25 183.112 170.172 183.385 170.016C183.66 169.859 183.868 169.658 184.007 169.411C184.149 169.163 184.22 168.903 184.22 168.631V167.71C184.177 167.761 184.083 167.808 183.939 167.851C183.797 167.891 183.632 167.926 183.444 167.957C183.26 167.986 183.079 168.011 182.903 168.034C182.73 168.054 182.589 168.071 182.481 168.085C182.22 168.119 181.975 168.175 181.748 168.251C181.524 168.325 181.342 168.437 181.203 168.588C181.066 168.736 180.998 168.937 180.998 169.193C180.998 169.543 181.127 169.807 181.386 169.986C181.647 170.162 181.978 170.25 182.379 170.25ZM191.697 165.92L190.794 166.176C190.737 166.026 190.653 165.879 190.543 165.737C190.435 165.592 190.287 165.473 190.099 165.379C189.912 165.286 189.672 165.239 189.379 165.239C188.979 165.239 188.645 165.331 188.378 165.516C188.114 165.697 187.982 165.929 187.982 166.21C187.982 166.46 188.072 166.658 188.254 166.803C188.436 166.947 188.72 167.068 189.107 167.165L190.078 167.403C190.663 167.545 191.099 167.763 191.386 168.055C191.673 168.345 191.817 168.719 191.817 169.176C191.817 169.551 191.709 169.886 191.493 170.182C191.28 170.477 190.982 170.71 190.598 170.881C190.214 171.051 189.768 171.136 189.26 171.136C188.592 171.136 188.04 170.991 187.602 170.702C187.165 170.412 186.888 169.989 186.771 169.432L187.726 169.193C187.817 169.545 187.989 169.81 188.241 169.986C188.497 170.162 188.831 170.25 189.243 170.25C189.712 170.25 190.084 170.151 190.359 169.952C190.638 169.75 190.777 169.509 190.777 169.227C190.777 169 190.697 168.81 190.538 168.656C190.379 168.5 190.135 168.384 189.805 168.307L188.714 168.051C188.115 167.909 187.675 167.689 187.393 167.391C187.115 167.089 186.976 166.713 186.976 166.261C186.976 165.892 187.08 165.565 187.287 165.281C187.497 164.997 187.783 164.774 188.143 164.612C188.507 164.45 188.919 164.369 189.379 164.369C190.027 164.369 190.536 164.511 190.905 164.795C191.277 165.08 191.541 165.455 191.697 165.92Z" fill="black"/>
<rect x="220.125" y="149.125" width="34.75" height="34.75" fill="white"/>
<rect x="220.125" y="149.125" width="34.75" height="34.75" stroke="#EAECF0" stroke-width="0.25"/>
<path d="M233.653 171.068C233.443 171.068 233.263 170.993 233.112 170.842C232.962 170.692 232.886 170.511 232.886 170.301C232.886 170.091 232.962 169.911 233.112 169.76C233.263 169.609 233.443 169.534 233.653 169.534C233.864 169.534 234.044 169.609 234.195 169.76C234.345 169.911 234.42 170.091 234.42 170.301C234.42 170.44 234.385 170.568 234.314 170.685C234.246 170.801 234.153 170.895 234.037 170.966C233.923 171.034 233.795 171.068 233.653 171.068ZM236.958 171.068C236.748 171.068 236.567 170.993 236.417 170.842C236.266 170.692 236.191 170.511 236.191 170.301C236.191 170.091 236.266 169.911 236.417 169.76C236.567 169.609 236.748 169.534 236.958 169.534C237.168 169.534 237.349 169.609 237.499 169.76C237.65 169.911 237.725 170.091 237.725 170.301C237.725 170.44 237.69 170.568 237.619 170.685C237.55 170.801 237.458 170.895 237.342 170.966C237.228 171.034 237.1 171.068 236.958 171.068ZM240.263 171.068C240.053 171.068 239.872 170.993 239.722 170.842C239.571 170.692 239.496 170.511 239.496 170.301C239.496 170.091 239.571 169.911 239.722 169.76C239.872 169.609 240.053 169.534 240.263 169.534C240.473 169.534 240.653 169.609 240.804 169.76C240.955 169.911 241.03 170.091 241.03 170.301C241.03 170.44 240.994 170.568 240.923 170.685C240.855 170.801 240.763 170.895 240.646 170.966C240.533 171.034 240.405 171.068 240.263 171.068Z" fill="black"/>
<rect x="10.125" y="184.125" width="39.75" height="34.75" fill="#F9FAFB"/>
<rect x="10.125" y="184.125" width="39.75" height="34.75" stroke="#EAECF0" stroke-width="0.25"/>
<path d="M22.6989 204.21V203.341L26.5341 197.273H27.1648V198.619H26.7386L23.8409 203.205V203.273H29.0057V204.21H22.6989ZM26.8068 206V203.946V203.541V197.273H27.8125V206H26.8068Z" fill="black"/>
<rect x="50.125" y="184.125" width="84.75" height="34.75" fill="#F9FAFB"/>
<rect x="50.125" y="184.125" width="84.75" height="34.75" stroke="#EAECF0" stroke-width="0.25"/>
<path d="M65.75 206H63.0568V197.273H65.8693C66.7159 197.273 67.4403 197.447 68.0426 197.797C68.6449 198.143 69.1065 198.642 69.4276 199.293C69.7486 199.94 69.9091 200.716 69.9091 201.619C69.9091 202.528 69.7472 203.311 69.4233 203.967C69.0994 204.621 68.6278 205.124 68.0085 205.476C67.3892 205.825 66.6364 206 65.75 206ZM64.1136 205.062H65.6818C66.4034 205.062 67.0014 204.923 67.4759 204.645C67.9503 204.366 68.304 203.97 68.5369 203.456C68.7699 202.942 68.8864 202.33 68.8864 201.619C68.8864 200.915 68.7713 200.308 68.5412 199.8C68.3111 199.288 67.9673 198.896 67.5099 198.624C67.0526 198.348 66.483 198.21 65.8011 198.21H64.1136V205.062ZM73.4716 206.153C73.0568 206.153 72.6804 206.075 72.3423 205.919C72.0043 205.76 71.7358 205.531 71.5369 205.233C71.3381 204.932 71.2386 204.568 71.2386 204.142C71.2386 203.767 71.3125 203.463 71.4602 203.23C71.608 202.994 71.8054 202.81 72.0526 202.676C72.2997 202.543 72.5724 202.443 72.8707 202.378C73.1719 202.31 73.4744 202.256 73.7784 202.216C74.1761 202.165 74.4986 202.126 74.7457 202.101C74.9957 202.072 75.1776 202.026 75.2912 201.96C75.4077 201.895 75.4659 201.781 75.4659 201.619V201.585C75.4659 201.165 75.3509 200.838 75.1207 200.605C74.8935 200.372 74.5483 200.256 74.0852 200.256C73.6051 200.256 73.2287 200.361 72.956 200.571C72.6832 200.781 72.4915 201.006 72.3807 201.244L71.4261 200.903C71.5966 200.506 71.8239 200.196 72.108 199.974C72.3949 199.75 72.7074 199.594 73.0455 199.506C73.3864 199.415 73.7216 199.369 74.0511 199.369C74.2614 199.369 74.5028 199.395 74.7756 199.446C75.0511 199.494 75.3168 199.595 75.5724 199.749C75.831 199.902 76.0455 200.134 76.2159 200.443C76.3864 200.753 76.4716 201.168 76.4716 201.688V206H75.4659V205.114H75.4148C75.3466 205.256 75.233 205.408 75.0739 205.57C74.9148 205.732 74.7031 205.869 74.4389 205.983C74.1747 206.097 73.8523 206.153 73.4716 206.153ZM73.625 205.25C74.0227 205.25 74.358 205.172 74.6307 205.016C74.9063 204.859 75.1136 204.658 75.2528 204.411C75.3949 204.163 75.4659 203.903 75.4659 203.631V202.71C75.4233 202.761 75.3295 202.808 75.1847 202.851C75.0426 202.891 74.8778 202.926 74.6903 202.957C74.5057 202.986 74.3253 203.011 74.1491 203.034C73.9759 203.054 73.8352 203.071 73.7273 203.085C73.4659 203.119 73.2216 203.175 72.9943 203.251C72.7699 203.325 72.5881 203.437 72.4489 203.588C72.3125 203.736 72.2443 203.937 72.2443 204.193C72.2443 204.543 72.3736 204.807 72.6321 204.986C72.8935 205.162 73.2244 205.25 73.625 205.25ZM78.3072 206V199.455H79.3129V206H78.3072ZM78.8185 198.364C78.6225 198.364 78.4535 198.297 78.3114 198.163C78.1722 198.03 78.1026 197.869 78.1026 197.682C78.1026 197.494 78.1722 197.334 78.3114 197.2C78.4535 197.067 78.6225 197 78.8185 197C79.0146 197 79.1822 197.067 79.3214 197.2C79.4634 197.334 79.5344 197.494 79.5344 197.682C79.5344 197.869 79.4634 198.03 79.3214 198.163C79.1822 198.297 79.0146 198.364 78.8185 198.364ZM85.7912 200.92L84.8878 201.176C84.831 201.026 84.7472 200.879 84.6364 200.737C84.5284 200.592 84.3807 200.473 84.1932 200.379C84.0057 200.286 83.7656 200.239 83.473 200.239C83.0724 200.239 82.7386 200.331 82.4716 200.516C82.2074 200.697 82.0753 200.929 82.0753 201.21C82.0753 201.46 82.1662 201.658 82.348 201.803C82.5298 201.947 82.8139 202.068 83.2003 202.165L84.1719 202.403C84.7571 202.545 85.1932 202.763 85.4801 203.055C85.767 203.345 85.9105 203.719 85.9105 204.176C85.9105 204.551 85.8026 204.886 85.5866 205.182C85.3736 205.477 85.0753 205.71 84.6918 205.881C84.3082 206.051 83.8622 206.136 83.3537 206.136C82.6861 206.136 82.1335 205.991 81.696 205.702C81.2585 205.412 80.9815 204.989 80.8651 204.432L81.8196 204.193C81.9105 204.545 82.0824 204.81 82.3352 204.986C82.5909 205.162 82.9247 205.25 83.3366 205.25C83.8054 205.25 84.1776 205.151 84.4531 204.952C84.7315 204.75 84.8707 204.509 84.8707 204.227C84.8707 204 84.7912 203.81 84.6321 203.656C84.473 203.5 84.2287 203.384 83.8991 203.307L82.8082 203.051C82.2088 202.909 81.7685 202.689 81.4872 202.391C81.2088 202.089 81.0696 201.713 81.0696 201.261C81.0696 200.892 81.1733 200.565 81.3807 200.281C81.5909 199.997 81.8764 199.774 82.2372 199.612C82.6009 199.45 83.0128 199.369 83.473 199.369C84.1207 199.369 84.6293 199.511 84.9986 199.795C85.3707 200.08 85.6349 200.455 85.7912 200.92ZM91.5494 203.324V199.455H92.555V206H91.5494V204.892H91.4812C91.3278 205.224 91.0891 205.507 90.7653 205.74C90.4414 205.97 90.0323 206.085 89.538 206.085C89.1289 206.085 88.7653 205.996 88.4471 205.817C88.1289 205.635 87.8789 205.362 87.6971 204.999C87.5153 204.632 87.4244 204.17 87.4244 203.614V199.455H88.43V203.545C88.43 204.023 88.5636 204.403 88.8306 204.688C89.1005 204.972 89.4442 205.114 89.8619 205.114C90.1119 205.114 90.3661 205.05 90.6246 204.922C90.886 204.794 91.1048 204.598 91.2809 204.334C91.4599 204.07 91.5494 203.733 91.5494 203.324ZM95.3345 203.614L95.3175 202.369H95.522L98.3857 199.455H99.63L96.5788 202.54H96.4936L95.3345 203.614ZM94.397 206V197.273H95.4027V206H94.397ZM98.5561 206L95.9993 202.761L96.7152 202.062L99.8345 206H98.5561ZM103.399 206.136C102.768 206.136 102.224 205.997 101.767 205.719C101.312 205.438 100.962 205.045 100.714 204.543C100.47 204.037 100.348 203.449 100.348 202.778C100.348 202.108 100.47 201.517 100.714 201.006C100.962 200.491 101.305 200.091 101.746 199.804C102.189 199.514 102.706 199.369 103.297 199.369C103.638 199.369 103.974 199.426 104.307 199.54C104.639 199.653 104.942 199.838 105.214 200.094C105.487 200.347 105.705 200.682 105.866 201.099C106.028 201.517 106.109 202.031 106.109 202.642V203.068H101.064V202.199H105.087C105.087 201.83 105.013 201.5 104.865 201.21C104.72 200.92 104.513 200.692 104.243 200.524C103.976 200.357 103.661 200.273 103.297 200.273C102.896 200.273 102.55 200.372 102.257 200.571C101.967 200.767 101.744 201.023 101.588 201.338C101.432 201.653 101.354 201.991 101.354 202.352V202.932C101.354 203.426 101.439 203.845 101.609 204.189C101.783 204.53 102.023 204.79 102.33 204.969C102.636 205.145 102.993 205.233 103.399 205.233C103.663 205.233 103.902 205.196 104.115 205.122C104.331 205.045 104.517 204.932 104.673 204.781C104.83 204.628 104.95 204.437 105.036 204.21L106.007 204.483C105.905 204.812 105.733 205.102 105.491 205.352C105.25 205.599 104.952 205.793 104.597 205.932C104.241 206.068 103.842 206.136 103.399 206.136Z" fill="black"/>
<rect x="135.125" y="184.125" width="84.75" height="34.75" fill="#F9FAFB"/>
<rect x="135.125" y="184.125" width="84.75" height="34.75" stroke="#EAECF0" stroke-width="0.25"/>
<path d="M154.977 197.273V206H153.955L149.199 199.148H149.114V206H148.057V197.273H149.08L153.852 204.142H153.938V197.273H154.977ZM158.882 206.153C158.467 206.153 158.091 206.075 157.752 205.919C157.414 205.76 157.146 205.531 156.947 205.233C156.748 204.932 156.649 204.568 156.649 204.142C156.649 203.767 156.723 203.463 156.87 203.23C157.018 202.994 157.216 202.81 157.463 202.676C157.71 202.543 157.983 202.443 158.281 202.378C158.582 202.31 158.885 202.256 159.189 202.216C159.586 202.165 159.909 202.126 160.156 202.101C160.406 202.072 160.588 202.026 160.701 201.96C160.818 201.895 160.876 201.781 160.876 201.619V201.585C160.876 201.165 160.761 200.838 160.531 200.605C160.304 200.372 159.958 200.256 159.495 200.256C159.015 200.256 158.639 200.361 158.366 200.571C158.093 200.781 157.902 201.006 157.791 201.244L156.836 200.903C157.007 200.506 157.234 200.196 157.518 199.974C157.805 199.75 158.118 199.594 158.456 199.506C158.797 199.415 159.132 199.369 159.461 199.369C159.672 199.369 159.913 199.395 160.186 199.446C160.461 199.494 160.727 199.595 160.983 199.749C161.241 199.902 161.456 200.134 161.626 200.443C161.797 200.753 161.882 201.168 161.882 201.688V206H160.876V205.114H160.825C160.757 205.256 160.643 205.408 160.484 205.57C160.325 205.732 160.113 205.869 159.849 205.983C159.585 206.097 159.262 206.153 158.882 206.153ZM159.035 205.25C159.433 205.25 159.768 205.172 160.041 205.016C160.316 204.859 160.524 204.658 160.663 204.411C160.805 204.163 160.876 203.903 160.876 203.631V202.71C160.833 202.761 160.74 202.808 160.595 202.851C160.453 202.891 160.288 202.926 160.1 202.957C159.916 202.986 159.735 203.011 159.559 203.034C159.386 203.054 159.245 203.071 159.137 203.085C158.876 203.119 158.632 203.175 158.404 203.251C158.18 203.325 157.998 203.437 157.859 203.588C157.723 203.736 157.654 203.937 157.654 204.193C157.654 204.543 157.784 204.807 158.042 204.986C158.304 205.162 158.635 205.25 159.035 205.25ZM164.655 203.614L164.638 202.369H164.842L167.706 199.455H168.95L165.899 202.54H165.814L164.655 203.614ZM163.717 206V197.273H164.723V206H163.717ZM167.876 206L165.32 202.761L166.036 202.062L169.155 206H167.876ZM172.171 206.153C171.756 206.153 171.38 206.075 171.042 205.919C170.703 205.76 170.435 205.531 170.236 205.233C170.037 204.932 169.938 204.568 169.938 204.142C169.938 203.767 170.012 203.463 170.159 203.23C170.307 202.994 170.505 202.81 170.752 202.676C170.999 202.543 171.272 202.443 171.57 202.378C171.871 202.31 172.174 202.256 172.478 202.216C172.875 202.165 173.198 202.126 173.445 202.101C173.695 202.072 173.877 202.026 173.99 201.96C174.107 201.895 174.165 201.781 174.165 201.619V201.585C174.165 201.165 174.05 200.838 173.82 200.605C173.593 200.372 173.248 200.256 172.784 200.256C172.304 200.256 171.928 200.361 171.655 200.571C171.382 200.781 171.191 201.006 171.08 201.244L170.125 200.903C170.296 200.506 170.523 200.196 170.807 199.974C171.094 199.75 171.407 199.594 171.745 199.506C172.086 199.415 172.421 199.369 172.75 199.369C172.961 199.369 173.202 199.395 173.475 199.446C173.75 199.494 174.016 199.595 174.272 199.749C174.53 199.902 174.745 200.134 174.915 200.443C175.086 200.753 175.171 201.168 175.171 201.688V206H174.165V205.114H174.114C174.046 205.256 173.932 205.408 173.773 205.57C173.614 205.732 173.402 205.869 173.138 205.983C172.874 206.097 172.551 206.153 172.171 206.153ZM172.324 205.25C172.722 205.25 173.057 205.172 173.33 205.016C173.605 204.859 173.813 204.658 173.952 204.411C174.094 204.163 174.165 203.903 174.165 203.631V202.71C174.123 202.761 174.029 202.808 173.884 202.851C173.742 202.891 173.577 202.926 173.39 202.957C173.205 202.986 173.025 203.011 172.848 203.034C172.675 203.054 172.534 203.071 172.426 203.085C172.165 203.119 171.921 203.175 171.694 203.251C171.469 203.325 171.287 203.437 171.148 203.588C171.012 203.736 170.944 203.937 170.944 204.193C170.944 204.543 171.073 204.807 171.331 204.986C171.593 205.162 171.924 205.25 172.324 205.25ZM177.006 206V199.455H177.978V200.477H178.063C178.2 200.128 178.42 199.857 178.724 199.663C179.028 199.467 179.393 199.369 179.819 199.369C180.251 199.369 180.61 199.467 180.897 199.663C181.187 199.857 181.413 200.128 181.575 200.477H181.643C181.81 200.139 182.062 199.871 182.397 199.672C182.732 199.47 183.134 199.369 183.603 199.369C184.188 199.369 184.667 199.553 185.039 199.919C185.411 200.283 185.597 200.849 185.597 201.619V206H184.592V201.619C184.592 201.136 184.46 200.791 184.195 200.584C183.931 200.376 183.62 200.273 183.262 200.273C182.802 200.273 182.445 200.412 182.192 200.69C181.94 200.966 181.813 201.315 181.813 201.739V206H180.79V201.517C180.79 201.145 180.67 200.845 180.428 200.618C180.187 200.388 179.876 200.273 179.495 200.273C179.234 200.273 178.989 200.342 178.762 200.482C178.538 200.621 178.356 200.814 178.217 201.061C178.08 201.305 178.012 201.588 178.012 201.909V206H177.006ZM191.561 203.324V199.455H192.567V206H191.561V204.892H191.493C191.339 205.224 191.101 205.507 190.777 205.74C190.453 205.97 190.044 206.085 189.55 206.085C189.141 206.085 188.777 205.996 188.459 205.817C188.141 205.635 187.891 205.362 187.709 204.999C187.527 204.632 187.436 204.17 187.436 203.614V199.455H188.442V203.545C188.442 204.023 188.575 204.403 188.842 204.688C189.112 204.972 189.456 205.114 189.874 205.114C190.124 205.114 190.378 205.05 190.636 204.922C190.898 204.794 191.116 204.598 191.293 204.334C191.472 204.07 191.561 203.733 191.561 203.324ZM194.409 206V199.455H195.38V200.443H195.449C195.568 200.119 195.784 199.857 196.096 199.655C196.409 199.453 196.761 199.352 197.153 199.352C197.227 199.352 197.319 199.354 197.43 199.357C197.541 199.359 197.625 199.364 197.681 199.369V200.392C197.647 200.384 197.569 200.371 197.447 200.354C197.328 200.334 197.201 200.324 197.068 200.324C196.75 200.324 196.466 200.391 196.216 200.524C195.968 200.655 195.772 200.837 195.627 201.07C195.485 201.3 195.414 201.562 195.414 201.858V206H194.409ZM200.8 206.153C200.385 206.153 200.009 206.075 199.67 205.919C199.332 205.76 199.064 205.531 198.865 205.233C198.666 204.932 198.567 204.568 198.567 204.142C198.567 203.767 198.641 203.463 198.788 203.23C198.936 202.994 199.134 202.81 199.381 202.676C199.628 202.543 199.901 202.443 200.199 202.378C200.5 202.31 200.803 202.256 201.107 202.216C201.504 202.165 201.827 202.126 202.074 202.101C202.324 202.072 202.506 202.026 202.619 201.96C202.736 201.895 202.794 201.781 202.794 201.619V201.585C202.794 201.165 202.679 200.838 202.449 200.605C202.222 200.372 201.876 200.256 201.413 200.256C200.933 200.256 200.557 200.361 200.284 200.571C200.011 200.781 199.82 201.006 199.709 201.244L198.754 200.903C198.925 200.506 199.152 200.196 199.436 199.974C199.723 199.75 200.036 199.594 200.374 199.506C200.714 199.415 201.05 199.369 201.379 199.369C201.589 199.369 201.831 199.395 202.104 199.446C202.379 199.494 202.645 199.595 202.901 199.749C203.159 199.902 203.374 200.134 203.544 200.443C203.714 200.753 203.8 201.168 203.8 201.688V206H202.794V205.114H202.743C202.675 205.256 202.561 205.408 202.402 205.57C202.243 205.732 202.031 205.869 201.767 205.983C201.503 206.097 201.18 206.153 200.8 206.153ZM200.953 205.25C201.351 205.25 201.686 205.172 201.959 205.016C202.234 204.859 202.442 204.658 202.581 204.411C202.723 204.163 202.794 203.903 202.794 203.631V202.71C202.751 202.761 202.658 202.808 202.513 202.851C202.371 202.891 202.206 202.926 202.018 202.957C201.834 202.986 201.653 203.011 201.477 203.034C201.304 203.054 201.163 203.071 201.055 203.085C200.794 203.119 200.55 203.175 200.322 203.251C200.098 203.325 199.916 203.437 199.777 203.588C199.641 203.736 199.572 203.937 199.572 204.193C199.572 204.543 199.702 204.807 199.96 204.986C200.222 205.162 200.553 205.25 200.953 205.25Z" fill="black"/>
<rect x="220.125" y="184.125" width="34.75" height="34.75" fill="#F9FAFB"/>
<rect x="220.125" y="184.125" width="34.75" height="34.75" stroke="#EAECF0" stroke-width="0.25"/>
<path d="M233.653 206.068C233.443 206.068 233.263 205.993 233.112 205.842C232.962 205.692 232.886 205.511 232.886 205.301C232.886 205.091 232.962 204.911 233.112 204.76C233.263 204.609 233.443 204.534 233.653 204.534C233.864 204.534 234.044 204.609 234.195 204.76C234.345 204.911 234.42 205.091 234.42 205.301C234.42 205.44 234.385 205.568 234.314 205.685C234.246 205.801 234.153 205.895 234.037 205.966C233.923 206.034 233.795 206.068 233.653 206.068ZM236.958 206.068C236.748 206.068 236.567 205.993 236.417 205.842C236.266 205.692 236.191 205.511 236.191 205.301C236.191 205.091 236.266 204.911 236.417 204.76C236.567 204.609 236.748 204.534 236.958 204.534C237.168 204.534 237.349 204.609 237.499 204.76C237.65 204.911 237.725 205.091 237.725 205.301C237.725 205.44 237.69 205.568 237.619 205.685C237.55 205.801 237.458 205.895 237.342 205.966C237.228 206.034 237.1 206.068 236.958 206.068ZM240.263 206.068C240.053 206.068 239.872 205.993 239.722 205.842C239.571 205.692 239.496 205.511 239.496 205.301C239.496 205.091 239.571 204.911 239.722 204.76C239.872 204.609 240.053 204.534 240.263 204.534C240.473 204.534 240.653 204.609 240.804 204.76C240.955 204.911 241.03 205.091 241.03 205.301C241.03 205.44 240.994 205.568 240.923 205.685C240.855 205.801 240.763 205.895 240.646 205.966C240.533 206.034 240.405 206.068 240.263 206.068Z" fill="black"/>
<rect x="10.125" y="219.125" width="39.75" height="34.75" fill="white"/>
<rect x="10.125" y="219.125" width="39.75" height="34.75" stroke="#EAECF0" stroke-width="0.25"/>
<path d="M23.6534 241.068C23.4432 241.068 23.2628 240.993 23.1122 240.842C22.9616 240.692 22.8864 240.511 22.8864 240.301C22.8864 240.091 22.9616 239.911 23.1122 239.76C23.2628 239.609 23.4432 239.534 23.6534 239.534C23.8636 239.534 24.044 239.609 24.1946 239.76C24.3452 239.911 24.4205 240.091 24.4205 240.301C24.4205 240.44 24.3849 240.568 24.3139 240.685C24.2457 240.801 24.1534 240.895 24.0369 240.966C23.9233 241.034 23.7955 241.068 23.6534 241.068ZM26.9581 241.068C26.7479 241.068 26.5675 240.993 26.4169 240.842C26.2663 240.692 26.1911 240.511 26.1911 240.301C26.1911 240.091 26.2663 239.911 26.4169 239.76C26.5675 239.609 26.7479 239.534 26.9581 239.534C27.1683 239.534 27.3487 239.609 27.4993 239.76C27.6499 239.911 27.7251 240.091 27.7251 240.301C27.7251 240.44 27.6896 240.568 27.6186 240.685C27.5504 240.801 27.4581 240.895 27.3416 240.966C27.228 241.034 27.1001 241.068 26.9581 241.068ZM30.2628 241.068C30.0526 241.068 29.8722 240.993 29.7216 240.842C29.571 240.692 29.4957 240.511 29.4957 240.301C29.4957 240.091 29.571 239.911 29.7216 239.76C29.8722 239.609 30.0526 239.534 30.2628 239.534C30.473 239.534 30.6534 239.609 30.804 239.76C30.9545 239.911 31.0298 240.091 31.0298 240.301C31.0298 240.44 30.9943 240.568 30.9233 240.685C30.8551 240.801 30.7628 240.895 30.6463 240.966C30.5327 241.034 30.4048 241.068 30.2628 241.068Z" fill="black"/>
<rect x="50.125" y="219.125" width="84.75" height="34.75" fill="white"/>
<rect x="50.125" y="219.125" width="84.75" height="34.75" stroke="#EAECF0" stroke-width="0.25"/>
<path d="M63.6534 241.068C63.4432 241.068 63.2628 240.993 63.1122 240.842C62.9616 240.692 62.8864 240.511 62.8864 240.301C62.8864 240.091 62.9616 239.911 63.1122 239.76C63.2628 239.609 63.4432 239.534 63.6534 239.534C63.8636 239.534 64.044 239.609 64.1946 239.76C64.3452 239.911 64.4205 240.091 64.4205 240.301C64.4205 240.44 64.3849 240.568 64.3139 240.685C64.2457 240.801 64.1534 240.895 64.0369 240.966C63.9233 241.034 63.7955 241.068 63.6534 241.068ZM66.9581 241.068C66.7479 241.068 66.5675 240.993 66.4169 240.842C66.2663 240.692 66.1911 240.511 66.1911 240.301C66.1911 240.091 66.2663 239.911 66.4169 239.76C66.5675 239.609 66.7479 239.534 66.9581 239.534C67.1683 239.534 67.3487 239.609 67.4993 239.76C67.6499 239.911 67.7251 240.091 67.7251 240.301C67.7251 240.44 67.6896 240.568 67.6186 240.685C67.5504 240.801 67.4581 240.895 67.3416 240.966C67.228 241.034 67.1001 241.068 66.9581 241.068ZM70.2628 241.068C70.0526 241.068 69.8722 240.993 69.7216 240.842C69.571 240.692 69.4957 240.511 69.4957 240.301C69.4957 240.091 69.571 239.911 69.7216 239.76C69.8722 239.609 70.0526 239.534 70.2628 239.534C70.473 239.534 70.6534 239.609 70.804 239.76C70.9545 239.911 71.0298 240.091 71.0298 240.301C71.0298 240.44 70.9943 240.568 70.9233 240.685C70.8551 240.801 70.7628 240.895 70.6463 240.966C70.5327 241.034 70.4048 241.068 70.2628 241.068Z" fill="black"/>
<rect x="135.125" y="219.125" width="84.75" height="34.75" fill="white"/>
<rect x="135.125" y="219.125" width="84.75" height="34.75" stroke="#EAECF0" stroke-width="0.25"/>
<path d="M148.653 241.068C148.443 241.068 148.263 240.993 148.112 240.842C147.962 240.692 147.886 240.511 147.886 240.301C147.886 240.091 147.962 239.911 148.112 239.76C148.263 239.609 148.443 239.534 148.653 239.534C148.864 239.534 149.044 239.609 149.195 239.76C149.345 239.911 149.42 240.091 149.42 240.301C149.42 240.44 149.385 240.568 149.314 240.685C149.246 240.801 149.153 240.895 149.037 240.966C148.923 241.034 148.795 241.068 148.653 241.068ZM151.958 241.068C151.748 241.068 151.567 240.993 151.417 240.842C151.266 240.692 151.191 240.511 151.191 240.301C151.191 240.091 151.266 239.911 151.417 239.76C151.567 239.609 151.748 239.534 151.958 239.534C152.168 239.534 152.349 239.609 152.499 239.76C152.65 239.911 152.725 240.091 152.725 240.301C152.725 240.44 152.69 240.568 152.619 240.685C152.55 240.801 152.458 240.895 152.342 240.966C152.228 241.034 152.1 241.068 151.958 241.068ZM155.263 241.068C155.053 241.068 154.872 240.993 154.722 240.842C154.571 240.692 154.496 240.511 154.496 240.301C154.496 240.091 154.571 239.911 154.722 239.76C154.872 239.609 155.053 239.534 155.263 239.534C155.473 239.534 155.653 239.609 155.804 239.76C155.955 239.911 156.03 240.091 156.03 240.301C156.03 240.44 155.994 240.568 155.923 240.685C155.855 240.801 155.763 240.895 155.646 240.966C155.533 241.034 155.405 241.068 155.263 241.068Z" fill="black"/>
<rect x="220.125" y="219.125" width="34.75" height="34.75" fill="white"/>
<rect x="220.125" y="219.125" width="34.75" height="34.75" stroke="#EAECF0" stroke-width="0.25"/>
<path d="M233.653 241.068C233.443 241.068 233.263 240.993 233.112 240.842C232.962 240.692 232.886 240.511 232.886 240.301C232.886 240.091 232.962 239.911 233.112 239.76C233.263 239.609 233.443 239.534 233.653 239.534C233.864 239.534 234.044 239.609 234.195 239.76C234.345 239.911 234.42 240.091 234.42 240.301C234.42 240.44 234.385 240.568 234.314 240.685C234.246 240.801 234.153 240.895 234.037 240.966C233.923 241.034 233.795 241.068 233.653 241.068ZM236.958 241.068C236.748 241.068 236.567 240.993 236.417 240.842C236.266 240.692 236.191 240.511 236.191 240.301C236.191 240.091 236.266 239.911 236.417 239.76C236.567 239.609 236.748 239.534 236.958 239.534C237.168 239.534 237.349 239.609 237.499 239.76C237.65 239.911 237.725 240.091 237.725 240.301C237.725 240.44 237.69 240.568 237.619 240.685C237.55 240.801 237.458 240.895 237.342 240.966C237.228 241.034 237.1 241.068 236.958 241.068ZM240.263 241.068C240.053 241.068 239.872 240.993 239.722 240.842C239.571 240.692 239.496 240.511 239.496 240.301C239.496 240.091 239.571 239.911 239.722 239.76C239.872 239.609 240.053 239.534 240.263 239.534C240.473 239.534 240.653 239.609 240.804 239.76C240.955 239.911 241.03 240.091 241.03 240.301C241.03 240.44 240.994 240.568 240.923 240.685C240.855 240.801 240.763 240.895 240.646 240.966C240.533 241.034 240.405 241.068 240.263 241.068Z" fill="black"/>
<path d="M10 16C10 12.6863 12.6863 10 16 10H104C107.314 10 110 12.6863 110 16V29C110 32.3137 107.314 35 104 35H16C12.6863 35 10 32.3137 10 29V16Z" fill="white"/>
<path d="M26.312 27.14C25.668 27.14 25.0847 26.986 24.562 26.678C24.0487 26.3607 23.638 25.936 23.33 25.404C23.0313 24.872 22.882 24.27 22.882 23.598C22.882 22.926 23.0313 22.324 23.33 21.792C23.638 21.2507 24.0487 20.826 24.562 20.518C25.0847 20.21 25.668 20.056 26.312 20.056C26.9467 20.056 27.5207 20.196 28.034 20.476C28.5473 20.756 28.9533 21.134 29.252 21.61L28.426 22.128C28.2113 21.7733 27.9173 21.4933 27.544 21.288C27.18 21.0733 26.7693 20.966 26.312 20.966C25.8453 20.966 25.43 21.0827 25.066 21.316C24.702 21.54 24.4127 21.848 24.198 22.24C23.9927 22.632 23.89 23.0847 23.89 23.598C23.89 24.102 23.9927 24.5547 24.198 24.956C24.4127 25.348 24.702 25.6607 25.066 25.894C25.43 26.118 25.8453 26.23 26.312 26.23C26.7693 26.23 27.18 26.1273 27.544 25.922C27.9173 25.7073 28.2113 25.4227 28.426 25.068L29.252 25.586C28.9533 26.062 28.5473 26.44 28.034 26.72C27.5207 27 26.9467 27.14 26.312 27.14ZM34.2165 27.112C33.7312 27.112 33.3019 27.0047 32.9285 26.79C32.5552 26.5753 32.2612 26.2767 32.0465 25.894C31.8412 25.5113 31.7385 25.0727 31.7385 24.578V20.168H32.7745V24.284C32.7745 24.8907 32.9379 25.3713 33.2645 25.726C33.5912 26.0807 34.0345 26.258 34.5945 26.258C34.9772 26.258 35.3179 26.1693 35.6165 25.992C35.9245 25.8147 36.1812 25.558 36.3865 25.222V20.168H37.4085V27H36.3865V25.894C35.8732 26.706 35.1499 27.112 34.2165 27.112ZM42.9191 27.14C42.3124 27.14 41.7477 27.0607 41.2251 26.902C40.7024 26.734 40.2637 26.4773 39.9091 26.132L40.4551 25.418C40.8937 25.7353 41.3091 25.9593 41.7011 26.09C42.0931 26.2113 42.4897 26.272 42.8911 26.272C43.4604 26.272 43.9271 26.16 44.2911 25.936C44.6644 25.712 44.8511 25.4273 44.8511 25.082C44.8511 24.8113 44.7624 24.606 44.5851 24.466C44.4171 24.3167 44.1931 24.2093 43.9131 24.144C43.6331 24.0787 43.3204 24.0273 42.9751 23.99C42.6391 23.9527 42.2984 23.906 41.9531 23.85C41.6171 23.7847 41.3091 23.6913 41.0291 23.57C40.7491 23.4487 40.5204 23.2713 40.3431 23.038C40.1751 22.7953 40.0911 22.4733 40.0911 22.072C40.0911 21.6707 40.2031 21.3207 40.4271 21.022C40.6604 20.7233 40.9824 20.49 41.3931 20.322C41.8037 20.1447 42.2704 20.056 42.7931 20.056C43.3064 20.056 43.7917 20.1213 44.2491 20.252C44.7157 20.3733 45.1777 20.5927 45.6351 20.91L45.1311 21.652C44.7484 21.3813 44.3564 21.1947 43.9551 21.092C43.5631 20.98 43.1617 20.924 42.7511 20.924C42.2377 20.924 41.8224 21.022 41.5051 21.218C41.1877 21.414 41.0291 21.6753 41.0291 22.002C41.0291 22.2633 41.1131 22.464 41.2811 22.604C41.4584 22.744 41.6871 22.8467 41.9671 22.912C42.2564 22.9773 42.5691 23.0333 42.9051 23.08C43.2504 23.1173 43.5911 23.1687 43.9271 23.234C44.2724 23.29 44.5851 23.3833 44.8651 23.514C45.1544 23.6353 45.3831 23.8173 45.5511 24.06C45.7284 24.2933 45.8171 24.6153 45.8171 25.026C45.8171 25.418 45.6911 25.7773 45.4391 26.104C45.1871 26.4213 44.8417 26.6733 44.4031 26.86C43.9644 27.0467 43.4697 27.14 42.9191 27.14ZM52.5036 27.14C51.7383 27.14 51.1503 26.9767 50.7396 26.65C50.3383 26.314 50.1376 25.8287 50.1376 25.194V21.008H47.7996V20.168H50.1376V18.292L51.1596 18.054V20.168H54.3096V21.008H51.1596V25.026C51.1596 25.4553 51.2763 25.7633 51.5096 25.95C51.7429 26.1367 52.0789 26.23 52.5176 26.23C52.7883 26.23 53.0683 26.202 53.3576 26.146C53.6469 26.09 53.9643 25.9967 54.3096 25.866V26.79C54.0016 26.902 53.6983 26.986 53.3996 27.042C53.1009 27.1073 52.8023 27.14 52.5036 27.14ZM59.7781 27.14C59.1528 27.14 58.5881 26.986 58.0841 26.678C57.5895 26.3607 57.1928 25.936 56.8941 25.404C56.6048 24.872 56.4601 24.27 56.4601 23.598C56.4601 22.926 56.6048 22.324 56.8941 21.792C57.1928 21.2507 57.5895 20.826 58.0841 20.518C58.5881 20.21 59.1528 20.056 59.7781 20.056C60.4035 20.056 60.9635 20.21 61.4581 20.518C61.9621 20.826 62.3588 21.2507 62.6481 21.792C62.9468 22.324 63.0961 22.926 63.0961 23.598C63.0961 24.27 62.9468 24.872 62.6481 25.404C62.3588 25.936 61.9621 26.3607 61.4581 26.678C60.9635 26.986 60.4035 27.14 59.7781 27.14ZM59.7781 26.23C60.2261 26.23 60.6228 26.118 60.9681 25.894C61.3135 25.6607 61.5841 25.348 61.7801 24.956C61.9855 24.5547 62.0881 24.102 62.0881 23.598C62.0881 23.0847 61.9855 22.632 61.7801 22.24C61.5841 21.848 61.3135 21.54 60.9681 21.316C60.6228 21.0827 60.2261 20.966 59.7781 20.966C59.3301 20.966 58.9335 21.0827 58.5881 21.316C58.2428 21.54 57.9675 21.848 57.7621 22.24C57.5661 22.632 57.4681 23.0847 57.4681 23.598C57.4681 24.102 57.5661 24.5547 57.7621 24.956C57.9675 25.348 58.2428 25.6607 58.5881 25.894C58.9335 26.118 59.3301 26.23 59.7781 26.23ZM64.9107 27V20.168H65.8627V20.756C66.0307 20.5133 66.2127 20.3407 66.4087 20.238C66.614 20.126 66.8473 20.07 67.1087 20.07C67.4073 20.07 67.6733 20.1447 67.9067 20.294C68.14 20.434 68.322 20.6347 68.4527 20.896C68.6393 20.6067 68.854 20.3967 69.0967 20.266C69.3487 20.1353 69.6333 20.07 69.9507 20.07C70.408 20.07 70.7767 20.238 71.0567 20.574C71.346 20.91 71.4907 21.3487 71.4907 21.89V27H70.5527V22.142C70.5527 21.7407 70.4687 21.4233 70.3007 21.19C70.1327 20.9567 69.89 20.84 69.5727 20.84C69.3953 20.84 69.232 20.882 69.0827 20.966C68.9333 21.0407 68.7887 21.19 68.6487 21.414C68.6673 21.4887 68.6767 21.568 68.6767 21.652C68.686 21.7267 68.6907 21.806 68.6907 21.89V27H67.7527V22.142C67.7527 21.7407 67.664 21.4233 67.4867 21.19C67.3187 20.9567 67.0713 20.84 66.7447 20.84C66.586 20.84 66.432 20.8773 66.2827 20.952C66.1333 21.0173 65.9933 21.1527 65.8627 21.358V27H64.9107ZM76.7352 27.14C76.0819 27.14 75.4939 26.986 74.9712 26.678C74.4485 26.3607 74.0332 25.936 73.7252 25.404C73.4265 24.8627 73.2772 24.256 73.2772 23.584C73.2772 22.912 73.4219 22.31 73.7112 21.778C74.0005 21.246 74.3925 20.826 74.8872 20.518C75.3912 20.21 75.9512 20.056 76.5672 20.056C77.2112 20.056 77.7852 20.21 78.2892 20.518C78.7932 20.8167 79.1899 21.2273 79.4792 21.75C79.7685 22.2633 79.9132 22.8467 79.9132 23.5V23.808H74.2712C74.3085 24.2747 74.4392 24.6947 74.6632 25.068C74.8872 25.432 75.1812 25.7213 75.5452 25.936C75.9185 26.1413 76.3292 26.244 76.7772 26.244C77.1785 26.244 77.5519 26.1693 77.8972 26.02C78.2519 25.8613 78.5459 25.6467 78.7792 25.376L79.4932 26.006C79.1292 26.3793 78.7139 26.664 78.2472 26.86C77.7805 27.0467 77.2765 27.14 76.7352 27.14ZM74.2992 23.052H78.9052C78.8492 22.6413 78.7092 22.2773 78.4852 21.96C78.2705 21.6427 77.9952 21.3953 77.6592 21.218C77.3325 21.0313 76.9639 20.938 76.5532 20.938C76.1705 20.938 75.8205 21.0267 75.5032 21.204C75.1859 21.3813 74.9199 21.6287 74.7052 21.946C74.4999 22.2633 74.3645 22.632 74.2992 23.052ZM82.0637 27V26.16H83.9397V21.008H82.0637V20.168H84.9617V21.694C85.1671 21.1713 85.4751 20.77 85.8857 20.49C86.2964 20.2007 86.7724 20.056 87.3137 20.056C87.5284 20.056 87.7197 20.0747 87.8877 20.112C88.0557 20.14 88.2564 20.1913 88.4897 20.266V21.204C88.2564 21.1293 88.0324 21.0687 87.8177 21.022C87.6124 20.9753 87.4071 20.952 87.2017 20.952C86.6977 20.952 86.2497 21.0827 85.8577 21.344C85.4657 21.6053 85.1671 21.9787 84.9617 22.464V26.16H86.9497V27H82.0637ZM93.2863 27.14C92.6796 27.14 92.1149 27.0607 91.5923 26.902C91.0696 26.734 90.6309 26.4773 90.2763 26.132L90.8223 25.418C91.2609 25.7353 91.6763 25.9593 92.0683 26.09C92.4603 26.2113 92.8569 26.272 93.2583 26.272C93.8276 26.272 94.2943 26.16 94.6583 25.936C95.0316 25.712 95.2183 25.4273 95.2183 25.082C95.2183 24.8113 95.1296 24.606 94.9523 24.466C94.7843 24.3167 94.5603 24.2093 94.2803 24.144C94.0003 24.0787 93.6876 24.0273 93.3423 23.99C93.0063 23.9527 92.6656 23.906 92.3203 23.85C91.9843 23.7847 91.6763 23.6913 91.3963 23.57C91.1163 23.4487 90.8876 23.2713 90.7103 23.038C90.5423 22.7953 90.4583 22.4733 90.4583 22.072C90.4583 21.6707 90.5703 21.3207 90.7943 21.022C91.0276 20.7233 91.3496 20.49 91.7603 20.322C92.1709 20.1447 92.6376 20.056 93.1603 20.056C93.6736 20.056 94.1589 20.1213 94.6163 20.252C95.0829 20.3733 95.5449 20.5927 96.0023 20.91L95.4983 21.652C95.1156 21.3813 94.7236 21.1947 94.3223 21.092C93.9303 20.98 93.5289 20.924 93.1183 20.924C92.6049 20.924 92.1896 21.022 91.8723 21.218C91.5549 21.414 91.3963 21.6753 91.3963 22.002C91.3963 22.2633 91.4803 22.464 91.6483 22.604C91.8256 22.744 92.0543 22.8467 92.3343 22.912C92.6236 22.9773 92.9363 23.0333 93.2722 23.08C93.6176 23.1173 93.9583 23.1687 94.2943 23.234C94.6396 23.29 94.9523 23.3833 95.2323 23.514C95.5216 23.6353 95.7503 23.8173 95.9183 24.06C96.0956 24.2933 96.1843 24.6153 96.1843 25.026C96.1843 25.418 96.0583 25.7773 95.8063 26.104C95.5543 26.4213 95.2089 26.6733 94.7703 26.86C94.3316 27.0467 93.8369 27.14 93.2863 27.14Z" fill="black"/>
</g>
<defs>
<filter id="filter0_d_767_1510" x="0" y="0" width="265" height="264" filterUnits="userSpaceOnUse" color-interpolation-filters="sRGB">
<feFlood flood-opacity="0" result="BackgroundImageFix"/>
<feColorMatrix in="SourceAlpha" type="matrix" values="0 0 0 0 0 0 0 0 0 0 0 0 0 0 0 0 0 0 127 0" result="hardAlpha"/>
<feOffset/>
<feGaussianBlur stdDeviation="5"/>
<feComposite in2="hardAlpha" operator="out"/>
<feColorMatrix type="matrix" values="0 0 0 0 0 0 0 0 0 0 0 0 0 0 0 0 0 0 0.15 0"/>
<feBlend mode="normal" in2="BackgroundImageFix" result="effect1_dropShadow_767_1510"/>
<feBlend mode="normal" in="SourceGraphic" in2="effect1_dropShadow_767_1510" result="shape"/>
</filter>
</defs>
</svg>
